M48
; DRILL file {KiCad 6.0.1-79c1e3a40b~116~ubuntu21.10.1} date Mo 14 Feb 2022 17:27:18 CET
; FORMAT={-:-/ absolute / inch / decimal}
; #@! TF.CreationDate,2022-02-14T17:27:18+01:00
; #@! TF.GenerationSoftware,Kicad,Pcbnew,6.0.1-79c1e3a40b~116~ubuntu21.10.1
; #@! TF.FileFunction,Plated,1,2,PTH
FMAT,2
INCH
; #@! TA.AperFunction,Plated,PTH,ViaDrill
T1C0.0157
; #@! TA.AperFunction,Plated,PTH,ComponentDrill
T2C0.0315
; #@! TA.AperFunction,Plated,PTH,ComponentDrill
T3C0.0354
; #@! TA.AperFunction,Plated,PTH,ComponentDrill
T4C0.0394
%
G90
G05
T1
X1.2854Y-1.7016
X1.3386Y-0.9055
X1.3444Y-0.8586
X1.378Y-1.6535
X1.4961Y-1.937
X1.4961Y-4.311
X1.6949Y-0.861
X3.1311Y-1.6902
X3.1311Y-1.8248
X3.135Y-1.952
X3.1406Y-2.0476
X3.1654Y-1.5433
X3.2236Y-4.7795
X3.2561Y-5.2722
X3.2882Y-5.3087
X3.2886Y-3.5941
X3.3317Y-5.2065
X3.3555Y-4.4657
X3.3878Y-5.3741
X3.4588Y-5.4236
X3.4669Y-4.4925
X3.4857Y-3.6743
X3.4874Y-5.0457
X3.5139Y-4.635
X3.5481Y-5.446
X3.6088Y-3.6245
X3.6157Y-4.5146
X3.6224Y-3.6764
X3.6516Y-5.5039
X3.6555Y-2.8419
X3.6559Y-4.6264
X3.6684Y-5.549
X3.672Y-5.0024
X3.6929Y-2.3937
X3.701Y-5.4472
X3.7193Y-4.5036
X3.7398Y-5.0681
X3.7403Y-5.4179
X3.7637Y-4.091
X3.7748Y-4.4874
X3.7787Y-5.3903
X3.79Y-5.0126
X3.8031Y-2.252
X3.8138Y-4.4598
X3.8228Y-5.3594
X3.8555Y-4.4343
X3.8673Y-4.054
X3.8776Y-2.5232
X3.8851Y-4.9449
X3.9055Y-2.3854
X3.9055Y-2.2441
X3.9291Y-2.2992
X3.965Y-4.0221
X3.9673Y-4.935
X4.0157Y-2.1654
X4.0585Y-4.8921
X4.0685Y-3.9791
X4.1256Y-5.1055
X4.126Y-2.1654
X4.1607Y-4.8645
X4.1646Y-4.2638
X4.1701Y-3.9469
X4.1701Y-5.2071
X4.2503Y-2.5388
X4.265Y-5.1697
X4.2665Y-4.2369
X4.2669Y-3.9102
X4.2677Y-2.622
X4.2692Y-4.8309
X4.2787Y-3.0941
X4.2799Y-3.0169
X4.3527Y-2.5349
X4.3618Y-4.7985
X4.363Y-4.2028
X4.3654Y-3.8797
X4.3713Y-5.126
X4.4564Y-4.7569
X4.4681Y-3.8295
X4.4705Y-4.1591
X4.4744Y-5.0929
X4.5988Y-3.685
X4.6086Y-3.592
X4.6102Y-3.6392
X4.7072Y-3.6049
X4.7263Y-3.6481
X4.7272Y-3.6953
X4.7799Y-4.7154
X4.7894Y-4.3795
X4.7945Y-4.2689
X4.7996Y-3.7972
X4.8268Y-2.4232
X4.8425Y-2.874
X4.852Y-4.461
X4.9213Y-2.7953
X5.1437Y-4.5732
X5.2866Y-4.9937
X5.2997Y-4.4179
X5.3055Y-4.0953
X5.3951Y-4.9843
X5.4012Y-4.0579
X5.4926Y-4.9516
X5.4992Y-4.0166
X5.6055Y-4.9181
X5.6126Y-3.9862
X5.6628Y-4.2553
X5.6957Y-3.9547
X5.7038Y-5.2054
X5.7047Y-4.8862
X5.748Y-5.0591
X5.7553Y-3.5863
X5.7992Y-5.1724
X5.7997Y-3.9213
X5.8006Y-4.2339
X5.8063Y-4.8587
X5.8972Y-4.2012
X5.9Y-5.1351
X5.9008Y-4.8311
X5.902Y-3.9028
X5.9055Y-4.4685
X5.9252Y-2.9535
X5.9465Y-2.8705
X5.9984Y-3.8642
X6.0008Y-5.0964
X6.0043Y-4.7898
X6.0053Y-4.1638
X6.0229Y-2.9594
X6.0433Y-4.6063
X6.0642Y-4.478
X6.1236Y-3.0212
X6.161Y-2.4673
X6.2008Y-5.0591
X6.2343Y-3.087
X6.2555Y-4.0425
X6.2655Y-2.5286
X6.2749Y-2.7236
X6.2764Y-4.2417
X6.2765Y-3.858
X6.2972Y-4.3346
X6.3Y-4.0197
X6.3098Y-3.8915
X6.3189Y-4.6063
X6.3238Y-3.9366
X6.3257Y-2.6849
X6.3338Y-4.2383
X6.3343Y-3.9827
X6.335Y-3.1492
X6.338Y-4.1913
X6.3405Y-4.1441
X6.3424Y-4.317
X6.3435Y-4.097
X6.3583Y-3.622
X6.3583Y-3.7205
X6.4077Y-3.1884
X6.4162Y-3.8626
X6.4476Y-3.9144
X6.4841Y-3.9498
X6.485Y-3.2269
X6.513Y-3.9871
X6.5382Y-3.2803
X6.541Y-4.0252
X6.5725Y-4.0614
X6.6Y-4.1031
X6.6276Y-4.1443
X6.6559Y-4.184
X6.6914Y-4.2349
X6.7099Y-4.279
X6.7383Y-4.3167
X6.7541Y-4.3816
T2
X1.189Y-0.8882
X1.189Y-0.9882
X1.189Y-1.0882
X1.189Y-1.1882
X1.189Y-1.2882
X1.189Y-1.3882
X1.189Y-1.4882
X1.189Y-1.5882
X1.189Y-1.6882
X1.189Y-1.7882
X1.189Y-2.0305
X1.189Y-2.1305
X1.189Y-2.2305
X1.189Y-2.3305
X1.189Y-2.4305
X1.189Y-2.5305
X1.189Y-2.6305
X1.189Y-2.7305
X1.189Y-2.8305
X1.189Y-2.9305
X1.489Y-0.8882
X1.489Y-0.9882
X1.489Y-1.0882
X1.489Y-1.1882
X1.489Y-1.2882
X1.489Y-1.3882
X1.489Y-1.4882
X1.489Y-1.5882
X1.489Y-1.6882
X1.489Y-1.7882
X1.489Y-2.0305
X1.489Y-2.1305
X1.489Y-2.2305
X1.489Y-2.3305
X1.489Y-2.4305
X1.489Y-2.5305
X1.489Y-2.6305
X1.489Y-2.7305
X1.489Y-2.8305
X1.489Y-2.9305
X3.3663Y-3.7549
X3.3663Y-4.3549
X3.3663Y-4.6998
X3.3663Y-5.2998
X3.4663Y-3.7549
X3.4663Y-4.3549
X3.4663Y-4.6998
X3.4663Y-5.2998
X3.5663Y-3.7549
X3.5663Y-4.3549
X3.5663Y-4.6998
X3.5663Y-5.2998
X3.6663Y-3.7549
X3.6663Y-4.3549
X3.6663Y-4.6998
X3.6663Y-5.2998
X3.7663Y-3.7549
X3.7663Y-4.3549
X3.7663Y-4.6998
X3.7663Y-5.2998
X3.7874Y-2.6526
X3.7874Y-2.7526
X3.7874Y-2.8526
X3.7874Y-2.9526
X3.7874Y-3.0526
X3.7874Y-3.1526
X3.7874Y-3.2526
X3.8663Y-3.7549
X3.8663Y-4.3549
X3.8663Y-4.6998
X3.8663Y-5.2998
X3.9663Y-3.7549
X3.9663Y-4.3549
X3.9663Y-4.6998
X3.9663Y-5.2998
X4.0663Y-3.7549
X4.0663Y-4.3549
X4.0663Y-4.6998
X4.0663Y-5.2998
X4.0874Y-2.6526
X4.0874Y-2.7526
X4.0874Y-2.8526
X4.0874Y-2.9526
X4.0874Y-3.0526
X4.0874Y-3.1526
X4.0874Y-3.2526
X4.1181Y-1.8189
X4.1663Y-3.7549
X4.1663Y-4.3549
X4.1663Y-4.6998
X4.1663Y-5.2998
X4.2181Y-1.8189
X4.2663Y-3.7549
X4.2663Y-4.3549
X4.2663Y-4.6998
X4.2663Y-5.2998
X4.3663Y-3.7549
X4.3663Y-4.3549
X4.3663Y-4.6998
X4.3663Y-5.2998
X4.3858Y-1.8189
X4.4173Y-2.6526
X4.4173Y-2.7526
X4.4173Y-2.8526
X4.4173Y-2.9526
X4.4173Y-3.0526
X4.4173Y-3.1526
X4.4173Y-3.2526
X4.4663Y-3.7549
X4.4663Y-4.3549
X4.4663Y-4.6998
X4.4663Y-5.2998
X4.4858Y-1.8189
X4.5663Y-3.7549
X4.5663Y-4.3549
X4.5663Y-4.6998
X4.5663Y-5.2998
X4.6457Y-1.8189
X4.6663Y-3.7549
X4.6663Y-4.3549
X4.6663Y-4.6998
X4.6663Y-5.2998
X4.7173Y-2.6526
X4.7173Y-2.7526
X4.7173Y-2.8526
X4.7173Y-2.9526
X4.7173Y-3.0526
X4.7173Y-3.1526
X4.7173Y-3.2526
X4.7457Y-1.8189
X4.9018Y-3.7549
X4.9018Y-4.3549
X4.9018Y-4.6959
X4.9018Y-5.2959
X5.0018Y-3.7549
X5.0018Y-4.3549
X5.0018Y-4.6959
X5.0018Y-5.2959
X5.0866Y-2.563
X5.0866Y-2.663
X5.0866Y-2.763
X5.0866Y-2.863
X5.0866Y-2.963
X5.0866Y-3.063
X5.0866Y-3.163
X5.0866Y-3.263
X5.1018Y-3.7549
X5.1018Y-4.3549
X5.1018Y-4.6959
X5.1018Y-5.2959
X5.2018Y-3.7549
X5.2018Y-4.3549
X5.2018Y-4.6959
X5.2018Y-5.2959
X5.3018Y-3.7549
X5.3018Y-4.3549
X5.3018Y-4.6959
X5.3018Y-5.2959
X5.3866Y-2.563
X5.3866Y-2.663
X5.3866Y-2.763
X5.3866Y-2.863
X5.3866Y-2.963
X5.3866Y-3.063
X5.3866Y-3.163
X5.3866Y-3.263
X5.4018Y-3.7549
X5.4018Y-4.3549
X5.4018Y-4.6959
X5.4018Y-5.2959
X5.5018Y-3.7549
X5.5018Y-4.3549
X5.5018Y-4.6959
X5.5018Y-5.2959
X5.6018Y-3.7549
X5.6018Y-4.3549
X5.6018Y-4.6959
X5.6018Y-5.2959
X5.7018Y-3.7549
X5.7018Y-4.3549
X5.7018Y-4.6959
X5.7018Y-5.2959
X5.8018Y-3.7549
X5.8018Y-4.3549
X5.8018Y-4.6959
X5.8018Y-5.2959
X5.9018Y-3.7549
X5.9018Y-4.3549
X5.9018Y-4.6959
X5.9018Y-5.2959
X6.0018Y-3.7549
X6.0018Y-4.3549
X6.0018Y-4.6959
X6.0018Y-5.2959
X6.1018Y-3.7549
X6.1018Y-4.3549
X6.1018Y-4.6959
X6.1018Y-5.2959
X6.2018Y-3.7549
X6.2018Y-4.3549
X6.2018Y-4.6959
X6.2018Y-5.2959
T3
X4.1234Y-1.5039
X4.2234Y-1.5039
X4.3882Y-1.5039
X4.4882Y-1.5039
X4.6539Y-1.5039
X4.7539Y-1.5039
T4
X0.9843Y-0.7874
X0.9843Y-0.8874
X0.9843Y-0.9874
X0.9843Y-1.0874
X0.9843Y-1.1874
X0.9843Y-1.2874
X0.9843Y-1.3874
X0.9843Y-1.4874
X0.9843Y-1.5874
X0.9843Y-1.6874
X0.9843Y-1.7874
X0.9843Y-1.8874
X0.9843Y-1.9874
X0.9843Y-2.0874
X0.9843Y-2.1874
X0.9843Y-2.2874
X0.9843Y-2.3874
X0.9843Y-2.4874
X0.9843Y-2.5874
X0.9843Y-2.6874
X0.9843Y-2.7874
X0.9843Y-2.8874
X0.9843Y-2.9874
X0.9843Y-3.0874
X0.9843Y-3.1874
X0.9843Y-3.2874
X0.9843Y-3.3874
X0.9843Y-3.4874
X0.9843Y-3.5874
X0.9843Y-3.6874
X0.9843Y-3.7874
X0.9843Y-3.8874
X0.9843Y-3.9874
X0.9843Y-4.0874
X0.9843Y-4.1874
X0.9843Y-4.2874
X0.9843Y-4.3874
X0.9843Y-4.4874
X0.9843Y-4.5874
X0.9843Y-4.6874
X0.9843Y-4.7874
X0.9843Y-4.8874
X0.9843Y-4.9874
X0.9843Y-5.0874
X0.9843Y-5.1874
X0.9843Y-5.2874
X0.9843Y-5.3874
X0.9843Y-5.4874
X0.9843Y-5.5874
X0.9843Y-5.6874
X0.9843Y-5.7874
X0.9843Y-5.8874
X0.9843Y-5.9874
X0.9843Y-6.0874
X0.9843Y-6.1874
X0.9843Y-6.2874
X0.9843Y-6.3874
X0.9843Y-6.4874
X0.9843Y-6.5874
X0.9843Y-6.6874
X0.9843Y-6.7874
X0.9843Y-6.8874
X0.9843Y-6.9874
X0.9843Y-7.0874
X0.9843Y-7.1874
X0.9843Y-7.2874
X0.9843Y-7.3874
X0.9843Y-7.4874
X0.9843Y-7.5874
X0.9843Y-7.6874
X0.9843Y-7.7874
X0.9843Y-7.8874
X0.9843Y-7.9874
X0.9843Y-8.0874
X0.9843Y-8.1874
X0.9843Y-8.2874
X0.9843Y-8.3874
X0.9843Y-8.4874
X1.6929Y-1.9961
X1.6929Y-2.1929
X2.5Y-1.1811
X2.5Y-1.2811
X2.5Y-1.3811
X2.5Y-1.4811
X2.5Y-1.5811
X2.5Y-1.6811
X2.5Y-1.7811
X2.5Y-1.8811
X2.5Y-1.9811
X2.5Y-2.0811
X2.5Y-2.1811
X2.5Y-2.2811
X2.5Y-2.3811
X2.5Y-2.4811
X2.5Y-2.5811
X2.5Y-2.6811
X2.5Y-2.7811
X2.5Y-2.8811
X2.5Y-2.9811
X2.5Y-3.0811
X2.5Y-3.1811
X2.5Y-3.2811
X2.5Y-3.3811
X2.5Y-3.4811
X2.5Y-3.5811
X2.5Y-3.6811
X2.5Y-3.7811
X2.5Y-3.8811
X2.5Y-3.9811
X2.5Y-4.0811
X2.5Y-4.1811
X2.5Y-4.2811
X2.5Y-4.3811
X2.5Y-4.4811
X2.5Y-4.5811
X2.5Y-4.6811
X2.5Y-4.7811
X2.5Y-4.8811
X2.5Y-4.9811
X2.5Y-5.0811
X2.5Y-5.1811
X2.5Y-5.2811
X2.6929Y-3.7776
X2.6929Y-3.8776
X2.6929Y-3.9776
X2.6929Y-4.0776
X2.6929Y-4.1776
X2.6929Y-4.2776
X2.6929Y-4.3776
X2.6929Y-4.4776
X2.6929Y-4.5776
X2.6929Y-4.6776
X2.6929Y-4.7776
X2.6929Y-4.8776
X2.6929Y-4.9776
X2.6929Y-5.0776
X2.6929Y-5.1776
X2.6929Y-5.2776
X3.013Y-1.9988
X3.013Y-2.0988
X5.1614Y-3.4646
X5.3583Y-3.4646
X5.5315Y-5.622
X5.7283Y-5.622
X5.8512Y-2.0862
X5.8512Y-2.1862
X5.8512Y-2.2862
X5.8512Y-2.3862
X5.8512Y-2.4862
X5.8512Y-2.5862
X5.8512Y-2.6862
X5.8512Y-2.7862
X5.8512Y-2.8862
X5.8512Y-2.9862
X5.8512Y-3.0862
X5.8512Y-3.1862
X5.8512Y-3.2862
X5.8512Y-3.3862
X5.8512Y-3.4862
X5.8512Y-3.5862
T0
M30
