%TF.GenerationSoftware,KiCad,Pcbnew,6.0.1-79c1e3a40b~116~ubuntu21.10.1*%
%TF.CreationDate,2022-02-14T17:27:14+01:00*%
%TF.ProjectId,memory,6d656d6f-7279-42e6-9b69-6361645f7063,v.1*%
%TF.SameCoordinates,Original*%
%TF.FileFunction,Copper,L2,Bot*%
%TF.FilePolarity,Positive*%
%FSLAX46Y46*%
G04 Gerber Fmt 4.6, Leading zero omitted, Abs format (unit mm)*
G04 Created by KiCad (PCBNEW 6.0.1-79c1e3a40b~116~ubuntu21.10.1) date 2022-02-14 17:27:14*
%MOMM*%
%LPD*%
G01*
G04 APERTURE LIST*
%TA.AperFunction,ComponentPad*%
%ADD10R,1.600000X1.600000*%
%TD*%
%TA.AperFunction,ComponentPad*%
%ADD11O,1.600000X1.600000*%
%TD*%
%TA.AperFunction,ComponentPad*%
%ADD12C,1.600000*%
%TD*%
%TA.AperFunction,ComponentPad*%
%ADD13R,1.800000X1.800000*%
%TD*%
%TA.AperFunction,ComponentPad*%
%ADD14C,1.800000*%
%TD*%
%TA.AperFunction,ComponentPad*%
%ADD15R,1.700000X1.700000*%
%TD*%
%TA.AperFunction,ComponentPad*%
%ADD16O,1.700000X1.700000*%
%TD*%
%TA.AperFunction,ComponentPad*%
%ADD17C,2.000000*%
%TD*%
%TA.AperFunction,ViaPad*%
%ADD18C,0.800000*%
%TD*%
%TA.AperFunction,Conductor*%
%ADD19C,0.600000*%
%TD*%
%TA.AperFunction,Conductor*%
%ADD20C,0.300000*%
%TD*%
G04 APERTURE END LIST*
D10*
%TO.P,U9,1,A14*%
%TO.N,GND*%
X118525000Y-95375000D03*
D11*
%TO.P,U9,2,A12*%
%TO.N,/Addr12*%
X115985000Y-95375000D03*
%TO.P,U9,3,A7*%
%TO.N,/Addr7*%
X113445000Y-95375000D03*
%TO.P,U9,4,A6*%
%TO.N,/Addr6*%
X110905000Y-95375000D03*
%TO.P,U9,5,A5*%
%TO.N,/Addr5*%
X108365000Y-95375000D03*
%TO.P,U9,6,A4*%
%TO.N,/Addr4*%
X105825000Y-95375000D03*
%TO.P,U9,7,A3*%
%TO.N,/Addr3*%
X103285000Y-95375000D03*
%TO.P,U9,8,A2*%
%TO.N,/Addr2*%
X100745000Y-95375000D03*
%TO.P,U9,9,A1*%
%TO.N,/Addr1*%
X98205000Y-95375000D03*
%TO.P,U9,10,A0*%
%TO.N,/Addr0*%
X95665000Y-95375000D03*
%TO.P,U9,11,D0*%
%TO.N,/Data0*%
X93125000Y-95375000D03*
%TO.P,U9,12,D1*%
%TO.N,/Data1*%
X90585000Y-95375000D03*
%TO.P,U9,13,D2*%
%TO.N,/Data2*%
X88045000Y-95375000D03*
%TO.P,U9,14,GND*%
%TO.N,GND*%
X85505000Y-95375000D03*
%TO.P,U9,15,D3*%
%TO.N,/Data3*%
X85505000Y-110615000D03*
%TO.P,U9,16,D4*%
%TO.N,/Data4*%
X88045000Y-110615000D03*
%TO.P,U9,17,D5*%
%TO.N,/Data5*%
X90585000Y-110615000D03*
%TO.P,U9,18,D6*%
%TO.N,/Data6*%
X93125000Y-110615000D03*
%TO.P,U9,19,D7*%
%TO.N,/Data7*%
X95665000Y-110615000D03*
%TO.P,U9,20,~{CS}*%
%TO.N,GND*%
X98205000Y-110615000D03*
%TO.P,U9,21,A10*%
%TO.N,/Addr10*%
X100745000Y-110615000D03*
%TO.P,U9,22,~{OE}*%
%TO.N,/RE_ROM*%
X103285000Y-110615000D03*
%TO.P,U9,23,A11*%
%TO.N,/Addr11*%
X105825000Y-110615000D03*
%TO.P,U9,24,A9*%
%TO.N,/Addr9*%
X108365000Y-110615000D03*
%TO.P,U9,25,A8*%
%TO.N,/Addr8*%
X110905000Y-110615000D03*
%TO.P,U9,26,A13*%
%TO.N,/Addr13*%
X113445000Y-110615000D03*
%TO.P,U9,27,~{WE}*%
%TO.N,+5V*%
X115985000Y-110615000D03*
%TO.P,U9,28,VCC*%
X118525000Y-110615000D03*
%TD*%
D10*
%TO.P,U10,1,A14*%
%TO.N,GND*%
X157525000Y-95375000D03*
D11*
%TO.P,U10,2,A12*%
%TO.N,/Addr12*%
X154985000Y-95375000D03*
%TO.P,U10,3,A7*%
%TO.N,/Addr7*%
X152445000Y-95375000D03*
%TO.P,U10,4,A6*%
%TO.N,/Addr6*%
X149905000Y-95375000D03*
%TO.P,U10,5,A5*%
%TO.N,/Addr5*%
X147365000Y-95375000D03*
%TO.P,U10,6,A4*%
%TO.N,/Addr4*%
X144825000Y-95375000D03*
%TO.P,U10,7,A3*%
%TO.N,/Addr3*%
X142285000Y-95375000D03*
%TO.P,U10,8,A2*%
%TO.N,/Addr2*%
X139745000Y-95375000D03*
%TO.P,U10,9,A1*%
%TO.N,/Addr1*%
X137205000Y-95375000D03*
%TO.P,U10,10,A0*%
%TO.N,/Addr0*%
X134665000Y-95375000D03*
%TO.P,U10,11,DQ0*%
%TO.N,/Data0*%
X132125000Y-95375000D03*
%TO.P,U10,12,DQ1*%
%TO.N,/Data1*%
X129585000Y-95375000D03*
%TO.P,U10,13,DQ2*%
%TO.N,/Data2*%
X127045000Y-95375000D03*
%TO.P,U10,14,Vss*%
%TO.N,GND*%
X124505000Y-95375000D03*
%TO.P,U10,15,DQ3*%
%TO.N,/Data3*%
X124505000Y-110615000D03*
%TO.P,U10,16,DQ4*%
%TO.N,/Data4*%
X127045000Y-110615000D03*
%TO.P,U10,17,DQ5*%
%TO.N,/Data5*%
X129585000Y-110615000D03*
%TO.P,U10,18,DQ6*%
%TO.N,/Data6*%
X132125000Y-110615000D03*
%TO.P,U10,19,DQ7*%
%TO.N,/Data7*%
X134665000Y-110615000D03*
%TO.P,U10,20,~{CE}*%
%TO.N,GND*%
X137205000Y-110615000D03*
%TO.P,U10,21,A10*%
%TO.N,/Addr10*%
X139745000Y-110615000D03*
%TO.P,U10,22,~{OE}*%
%TO.N,/RE_RAM*%
X142285000Y-110615000D03*
%TO.P,U10,23,A11*%
%TO.N,/Addr11*%
X144825000Y-110615000D03*
%TO.P,U10,24,A9*%
%TO.N,/Addr9*%
X147365000Y-110615000D03*
%TO.P,U10,25,A8*%
%TO.N,/Addr8*%
X149905000Y-110615000D03*
%TO.P,U10,26,A13*%
%TO.N,/Addr13*%
X152445000Y-110615000D03*
%TO.P,U10,27,~{WE}*%
%TO.N,/WE_RAM*%
X154985000Y-110615000D03*
%TO.P,U10,28,Vcc*%
%TO.N,+5V*%
X157525000Y-110615000D03*
%TD*%
D12*
%TO.P,R2,1*%
%TO.N,/RE_ROM*%
X111400000Y-46200000D03*
D11*
%TO.P,R2,2*%
%TO.N,Net-(D2-Pad2)*%
X113940000Y-46200000D03*
%TD*%
D10*
%TO.P,U3,1,E*%
%TO.N,Net-(U1-Pad11)*%
X129200000Y-65100000D03*
D11*
%TO.P,U3,2,A0*%
%TO.N,/Addr1*%
X129200000Y-67640000D03*
%TO.P,U3,3,A1*%
%TO.N,/Addr0*%
X129200000Y-70180000D03*
%TO.P,U3,4,O0*%
%TO.N,Net-(U1-Pad4)*%
X129200000Y-72720000D03*
%TO.P,U3,5,O1*%
%TO.N,Net-(U1-Pad1)*%
X129200000Y-75260000D03*
%TO.P,U3,6,O2*%
%TO.N,unconnected-(U3-Pad6)*%
X129200000Y-77800000D03*
%TO.P,U3,7,O3*%
%TO.N,unconnected-(U3-Pad7)*%
X129200000Y-80340000D03*
%TO.P,U3,8,GND*%
%TO.N,GND*%
X129200000Y-82880000D03*
%TO.P,U3,9*%
%TO.N,N/C*%
X136820000Y-82880000D03*
%TO.P,U3,10*%
X136820000Y-80340000D03*
%TO.P,U3,11*%
X136820000Y-77800000D03*
%TO.P,U3,12*%
X136820000Y-75260000D03*
%TO.P,U3,13*%
X136820000Y-72720000D03*
%TO.P,U3,14*%
X136820000Y-70180000D03*
%TO.P,U3,15*%
X136820000Y-67640000D03*
%TO.P,U3,16,VCC*%
%TO.N,+5V*%
X136820000Y-65100000D03*
%TD*%
D13*
%TO.P,D1,1,K*%
%TO.N,GND*%
X107275000Y-38200000D03*
D14*
%TO.P,D1,2,A*%
%TO.N,Net-(D1-Pad2)*%
X104735000Y-38200000D03*
%TD*%
D12*
%TO.P,R1,1*%
%TO.N,Net-(U2-Pad11)*%
X104600000Y-46200000D03*
D11*
%TO.P,R1,2*%
%TO.N,Net-(D1-Pad2)*%
X107140000Y-46200000D03*
%TD*%
D13*
%TO.P,D3,1,K*%
%TO.N,GND*%
X120750000Y-38200000D03*
D14*
%TO.P,D3,2,A*%
%TO.N,Net-(D3-Pad2)*%
X118210000Y-38200000D03*
%TD*%
D15*
%TO.P,J4,1,Pin_1*%
%TO.N,/Data15*%
X68400000Y-134050000D03*
D16*
%TO.P,J4,2,Pin_2*%
%TO.N,/Data14*%
X68400000Y-131510000D03*
%TO.P,J4,3,Pin_3*%
%TO.N,/Data13*%
X68400000Y-128970000D03*
%TO.P,J4,4,Pin_4*%
%TO.N,/Data12*%
X68400000Y-126430000D03*
%TO.P,J4,5,Pin_5*%
%TO.N,/Data11*%
X68400000Y-123890000D03*
%TO.P,J4,6,Pin_6*%
%TO.N,/Data10*%
X68400000Y-121350000D03*
%TO.P,J4,7,Pin_7*%
%TO.N,/Data9*%
X68400000Y-118810000D03*
%TO.P,J4,8,Pin_8*%
%TO.N,/Data8*%
X68400000Y-116270000D03*
%TO.P,J4,9,Pin_9*%
%TO.N,/Data7*%
X68400000Y-113730000D03*
%TO.P,J4,10,Pin_10*%
%TO.N,/Data6*%
X68400000Y-111190000D03*
%TO.P,J4,11,Pin_11*%
%TO.N,/Data5*%
X68400000Y-108650000D03*
%TO.P,J4,12,Pin_12*%
%TO.N,/Data4*%
X68400000Y-106110000D03*
%TO.P,J4,13,Pin_13*%
%TO.N,/Data3*%
X68400000Y-103570000D03*
%TO.P,J4,14,Pin_14*%
%TO.N,/Data2*%
X68400000Y-101030000D03*
%TO.P,J4,15,Pin_15*%
%TO.N,/Data1*%
X68400000Y-98490000D03*
%TO.P,J4,16,Pin_16*%
%TO.N,/Data0*%
X68400000Y-95950000D03*
%TD*%
D12*
%TO.P,R3,1*%
%TO.N,/RE_RAM*%
X118000000Y-46200000D03*
D11*
%TO.P,R3,2*%
%TO.N,Net-(D3-Pad2)*%
X120540000Y-46200000D03*
%TD*%
D13*
%TO.P,D2,1,K*%
%TO.N,GND*%
X114000000Y-38200000D03*
D14*
%TO.P,D2,2,A*%
%TO.N,Net-(D2-Pad2)*%
X111460000Y-38200000D03*
%TD*%
D17*
%TO.P,C1,1*%
%TO.N,+5V*%
X43000000Y-55700000D03*
%TO.P,C1,2*%
%TO.N,GND*%
X43000000Y-50700000D03*
%TD*%
D15*
%TO.P,J3,1,Pin_1*%
%TO.N,/Addr0*%
X148620000Y-91090000D03*
D16*
%TO.P,J3,2,Pin_2*%
%TO.N,/Addr1*%
X148620000Y-88550000D03*
%TO.P,J3,3,Pin_3*%
%TO.N,/Addr2*%
X148620000Y-86010000D03*
%TO.P,J3,4,Pin_4*%
%TO.N,/Addr3*%
X148620000Y-83470000D03*
%TO.P,J3,5,Pin_5*%
%TO.N,/Addr4*%
X148620000Y-80930000D03*
%TO.P,J3,6,Pin_6*%
%TO.N,/Addr5*%
X148620000Y-78390000D03*
%TO.P,J3,7,Pin_7*%
%TO.N,/Addr6*%
X148620000Y-75850000D03*
%TO.P,J3,8,Pin_8*%
%TO.N,/Addr7*%
X148620000Y-73310000D03*
%TO.P,J3,9,Pin_9*%
%TO.N,/Addr8*%
X148620000Y-70770000D03*
%TO.P,J3,10,Pin_10*%
%TO.N,/Addr9*%
X148620000Y-68230000D03*
%TO.P,J3,11,Pin_11*%
%TO.N,/Addr10*%
X148620000Y-65690000D03*
%TO.P,J3,12,Pin_12*%
%TO.N,/Addr11*%
X148620000Y-63150000D03*
%TO.P,J3,13,Pin_13*%
%TO.N,/Addr12*%
X148620000Y-60610000D03*
%TO.P,J3,14,Pin_14*%
%TO.N,/Addr13*%
X148620000Y-58070000D03*
%TO.P,J3,15,Pin_15*%
%TO.N,/Addr14*%
X148620000Y-55530000D03*
%TO.P,J3,16,Pin_16*%
%TO.N,/Addr15*%
X148620000Y-52990000D03*
%TD*%
D10*
%TO.P,U2,1*%
%TO.N,Net-(U1-Pad3)*%
X96200000Y-67375000D03*
D11*
%TO.P,U2,2*%
%TO.N,/WE_F*%
X96200000Y-69915000D03*
%TO.P,U2,3*%
%TO.N,/WE_RAM*%
X96200000Y-72455000D03*
%TO.P,U2,4*%
%TO.N,/RE*%
X96200000Y-74995000D03*
%TO.P,U2,5*%
%TO.N,Net-(U1-Pad3)*%
X96200000Y-77535000D03*
%TO.P,U2,6*%
%TO.N,/RE_RAM*%
X96200000Y-80075000D03*
%TO.P,U2,7,GND*%
%TO.N,+5V*%
X96200000Y-82615000D03*
%TO.P,U2,8*%
%TO.N,/RE_ROM*%
X103820000Y-82615000D03*
%TO.P,U2,9*%
%TO.N,/RE*%
X103820000Y-80075000D03*
%TO.P,U2,10*%
%TO.N,Net-(U1-Pad6)*%
X103820000Y-77535000D03*
%TO.P,U2,11*%
%TO.N,Net-(U2-Pad11)*%
X103820000Y-74995000D03*
%TO.P,U2,12*%
%TO.N,Net-(U1-Pad3)*%
X103820000Y-72455000D03*
%TO.P,U2,13*%
%TO.N,/WE*%
X103820000Y-69915000D03*
%TO.P,U2,14,VCC*%
%TO.N,GND*%
X103820000Y-67375000D03*
%TD*%
D10*
%TO.P,U12,1,A14*%
%TO.N,GND*%
X157525000Y-119275000D03*
D11*
%TO.P,U12,2,A12*%
%TO.N,/Addr12*%
X154985000Y-119275000D03*
%TO.P,U12,3,A7*%
%TO.N,/Addr7*%
X152445000Y-119275000D03*
%TO.P,U12,4,A6*%
%TO.N,/Addr6*%
X149905000Y-119275000D03*
%TO.P,U12,5,A5*%
%TO.N,/Addr5*%
X147365000Y-119275000D03*
%TO.P,U12,6,A4*%
%TO.N,/Addr4*%
X144825000Y-119275000D03*
%TO.P,U12,7,A3*%
%TO.N,/Addr3*%
X142285000Y-119275000D03*
%TO.P,U12,8,A2*%
%TO.N,/Addr2*%
X139745000Y-119275000D03*
%TO.P,U12,9,A1*%
%TO.N,/Addr1*%
X137205000Y-119275000D03*
%TO.P,U12,10,A0*%
%TO.N,/Addr0*%
X134665000Y-119275000D03*
%TO.P,U12,11,DQ0*%
%TO.N,/Data8*%
X132125000Y-119275000D03*
%TO.P,U12,12,DQ1*%
%TO.N,/Data9*%
X129585000Y-119275000D03*
%TO.P,U12,13,DQ2*%
%TO.N,/Data10*%
X127045000Y-119275000D03*
%TO.P,U12,14,Vss*%
%TO.N,GND*%
X124505000Y-119275000D03*
%TO.P,U12,15,DQ3*%
%TO.N,/Data11*%
X124505000Y-134515000D03*
%TO.P,U12,16,DQ4*%
%TO.N,/Data12*%
X127045000Y-134515000D03*
%TO.P,U12,17,DQ5*%
%TO.N,/Data13*%
X129585000Y-134515000D03*
%TO.P,U12,18,DQ6*%
%TO.N,/Data14*%
X132125000Y-134515000D03*
%TO.P,U12,19,DQ7*%
%TO.N,/Data15*%
X134665000Y-134515000D03*
%TO.P,U12,20,~{CE}*%
%TO.N,GND*%
X137205000Y-134515000D03*
%TO.P,U12,21,A10*%
%TO.N,/Addr10*%
X139745000Y-134515000D03*
%TO.P,U12,22,~{OE}*%
%TO.N,/RE_RAM*%
X142285000Y-134515000D03*
%TO.P,U12,23,A11*%
%TO.N,/Addr11*%
X144825000Y-134515000D03*
%TO.P,U12,24,A9*%
%TO.N,/Addr9*%
X147365000Y-134515000D03*
%TO.P,U12,25,A8*%
%TO.N,/Addr8*%
X149905000Y-134515000D03*
%TO.P,U12,26,A13*%
%TO.N,/Addr13*%
X152445000Y-134515000D03*
%TO.P,U12,27,~{WE}*%
%TO.N,/WE_RAM*%
X154985000Y-134515000D03*
%TO.P,U12,28,Vcc*%
%TO.N,+5V*%
X157525000Y-134515000D03*
%TD*%
D15*
%TO.P,J2,1,Pin_1*%
%TO.N,/WE*%
X76530000Y-50770000D03*
D16*
%TO.P,J2,2,Pin_2*%
%TO.N,/RE*%
X76530000Y-53310000D03*
%TD*%
D17*
%TO.P,C2,1*%
%TO.N,+5V*%
X140500000Y-142800000D03*
%TO.P,C2,2*%
%TO.N,GND*%
X145500000Y-142800000D03*
%TD*%
%TO.P,C3,1*%
%TO.N,+5V*%
X131100000Y-88000000D03*
%TO.P,C3,2*%
%TO.N,GND*%
X136100000Y-88000000D03*
%TD*%
D15*
%TO.P,J1,1,GND*%
%TO.N,GND*%
X25000000Y-20000000D03*
D16*
%TO.P,J1,2,Vcc*%
%TO.N,+5V*%
X25000000Y-22540000D03*
%TO.P,J1,3,CLK_R*%
%TO.N,/CLK_R*%
X25000000Y-25080000D03*
%TO.P,J1,4,CLK_F*%
%TO.N,unconnected-(J1-Pad4)*%
X25000000Y-27620000D03*
%TO.P,J1,5,BUS1:0*%
%TO.N,/Bus_D0*%
X25000000Y-30160000D03*
%TO.P,J1,6,BUS1:1*%
%TO.N,/Bus_D1*%
X25000000Y-32700000D03*
%TO.P,J1,7,BUS1:2*%
%TO.N,/Bus_D2*%
X25000000Y-35240000D03*
%TO.P,J1,8,BUS1:3*%
%TO.N,/Bus_D3*%
X25000000Y-37780000D03*
%TO.P,J1,9,BUS1:4*%
%TO.N,/Bus_D4*%
X25000000Y-40320000D03*
%TO.P,J1,10,BUS1:5*%
%TO.N,/Bus_D5*%
X25000000Y-42860000D03*
%TO.P,J1,11,BUS1:6*%
%TO.N,/Bus_D6*%
X25000000Y-45400000D03*
%TO.P,J1,12,BUS1:7*%
%TO.N,/Bus_D7*%
X25000000Y-47940000D03*
%TO.P,J1,13,BUS1:8*%
%TO.N,/Bus_D8*%
X25000000Y-50480000D03*
%TO.P,J1,14,BUS1:9*%
%TO.N,/Bus_D9*%
X25000000Y-53020000D03*
%TO.P,J1,15,BUS1:A*%
%TO.N,/Bus_D10*%
X25000000Y-55560000D03*
%TO.P,J1,16,BUS1:B*%
%TO.N,/Bus_D11*%
X25000000Y-58100000D03*
%TO.P,J1,17,BUS1:C*%
%TO.N,/Bus_D12*%
X25000000Y-60640000D03*
%TO.P,J1,18,BUS1:D*%
%TO.N,/Bus_D13*%
X25000000Y-63180000D03*
%TO.P,J1,19,BUS1:E*%
%TO.N,/Bus_D14*%
X25000000Y-65720000D03*
%TO.P,J1,20,BUS1:F*%
%TO.N,/Bus_D15*%
X25000000Y-68260000D03*
%TO.P,J1,21,BUS2:0*%
%TO.N,/Addr0*%
X25000000Y-70800000D03*
%TO.P,J1,22,BUS2:1*%
%TO.N,/Addr1*%
X25000000Y-73340000D03*
%TO.P,J1,23,BUS2:2*%
%TO.N,/Addr2*%
X25000000Y-75880000D03*
%TO.P,J1,24,BUS2:3*%
%TO.N,/Addr3*%
X25000000Y-78420000D03*
%TO.P,J1,25,BUS2:4*%
%TO.N,/Addr4*%
X25000000Y-80960000D03*
%TO.P,J1,26,BUS2:5*%
%TO.N,/Addr5*%
X25000000Y-83500000D03*
%TO.P,J1,27,BUS2:6*%
%TO.N,/Addr6*%
X25000000Y-86040000D03*
%TO.P,J1,28,BUS2:7*%
%TO.N,/Addr7*%
X25000000Y-88580000D03*
%TO.P,J1,29,BUS2:8*%
%TO.N,/Addr8*%
X25000000Y-91120000D03*
%TO.P,J1,30,BUS2:9*%
%TO.N,/Addr9*%
X25000000Y-93660000D03*
%TO.P,J1,31,BUS2:A*%
%TO.N,/Addr10*%
X25000000Y-96200000D03*
%TO.P,J1,32,BUS2:B*%
%TO.N,/Addr11*%
X25000000Y-98740000D03*
%TO.P,J1,33,BUS2:C*%
%TO.N,/Addr12*%
X25000000Y-101280000D03*
%TO.P,J1,34,BUS2:D*%
%TO.N,/Addr13*%
X25000000Y-103820000D03*
%TO.P,J1,35,BUS2:E*%
%TO.N,/Addr14*%
X25000000Y-106360000D03*
%TO.P,J1,36,BUS2:F*%
%TO.N,/Addr15*%
X25000000Y-108900000D03*
%TO.P,J1,37*%
%TO.N,N/C*%
X25000000Y-111440000D03*
%TO.P,J1,38*%
X25000000Y-113980000D03*
%TO.P,J1,39*%
X25000000Y-116520000D03*
%TO.P,J1,40*%
X25000000Y-119060000D03*
%TO.P,J1,41*%
X25000000Y-121600000D03*
%TO.P,J1,42*%
X25000000Y-124140000D03*
%TO.P,J1,43*%
X25000000Y-126680000D03*
%TO.P,J1,44*%
X25000000Y-129220000D03*
%TO.P,J1,45*%
X25000000Y-131760000D03*
%TO.P,J1,46*%
X25000000Y-134300000D03*
%TO.P,J1,47*%
X25000000Y-136840000D03*
%TO.P,J1,48*%
X25000000Y-139380000D03*
%TO.P,J1,49*%
X25000000Y-141920000D03*
%TO.P,J1,50*%
X25000000Y-144460000D03*
%TO.P,J1,51*%
X25000000Y-147000000D03*
%TO.P,J1,52*%
X25000000Y-149540000D03*
%TO.P,J1,53*%
X25000000Y-152080000D03*
%TO.P,J1,54*%
X25000000Y-154620000D03*
%TO.P,J1,55*%
X25000000Y-157160000D03*
%TO.P,J1,56*%
X25000000Y-159700000D03*
%TO.P,J1,57*%
X25000000Y-162240000D03*
%TO.P,J1,58*%
X25000000Y-164780000D03*
%TO.P,J1,59*%
X25000000Y-167320000D03*
%TO.P,J1,60*%
X25000000Y-169860000D03*
%TO.P,J1,61*%
X25000000Y-172400000D03*
%TO.P,J1,62*%
X25000000Y-174940000D03*
%TO.P,J1,63*%
X25000000Y-177480000D03*
%TO.P,J1,64*%
X25000000Y-180020000D03*
%TO.P,J1,65,Sup*%
%TO.N,/SUP*%
X25000000Y-182560000D03*
%TO.P,J1,66,Set_Sup*%
%TO.N,unconnected-(J1-Pad66)*%
X25000000Y-185100000D03*
%TO.P,J1,67,Reset_Sup*%
%TO.N,unconnected-(J1-Pad67)*%
X25000000Y-187640000D03*
%TO.P,J1,68*%
%TO.N,N/C*%
X25000000Y-190180000D03*
%TO.P,J1,69*%
X25000000Y-192720000D03*
%TO.P,J1,70*%
X25000000Y-195260000D03*
%TO.P,J1,71*%
X25000000Y-197800000D03*
%TO.P,J1,72*%
X25000000Y-200340000D03*
%TO.P,J1,73*%
X25000000Y-202880000D03*
%TO.P,J1,74*%
X25000000Y-205420000D03*
%TO.P,J1,75*%
X25000000Y-207960000D03*
%TO.P,J1,76*%
X25000000Y-210500000D03*
%TO.P,J1,77*%
X25000000Y-213040000D03*
%TO.P,J1,78*%
X25000000Y-215580000D03*
%TD*%
D10*
%TO.P,U1,1*%
%TO.N,Net-(U1-Pad1)*%
X112200000Y-67375000D03*
D11*
%TO.P,U1,2*%
X112200000Y-69915000D03*
%TO.P,U1,3*%
%TO.N,Net-(U1-Pad3)*%
X112200000Y-72455000D03*
%TO.P,U1,4*%
%TO.N,Net-(U1-Pad4)*%
X112200000Y-74995000D03*
%TO.P,U1,5*%
X112200000Y-77535000D03*
%TO.P,U1,6*%
%TO.N,Net-(U1-Pad6)*%
X112200000Y-80075000D03*
%TO.P,U1,7,GND*%
%TO.N,GND*%
X112200000Y-82615000D03*
%TO.P,U1,8*%
%TO.N,/~{WE}*%
X119820000Y-82615000D03*
%TO.P,U1,9*%
%TO.N,/WE*%
X119820000Y-80075000D03*
%TO.P,U1,10*%
X119820000Y-77535000D03*
%TO.P,U1,11*%
%TO.N,Net-(U1-Pad11)*%
X119820000Y-74995000D03*
%TO.P,U1,12*%
%TO.N,/SUP*%
X119820000Y-72455000D03*
%TO.P,U1,13*%
X119820000Y-69915000D03*
%TO.P,U1,14,VCC*%
%TO.N,+5V*%
X119820000Y-67375000D03*
%TD*%
D10*
%TO.P,U11,1,A14*%
%TO.N,GND*%
X118525000Y-119375000D03*
D11*
%TO.P,U11,2,A12*%
%TO.N,/Addr12*%
X115985000Y-119375000D03*
%TO.P,U11,3,A7*%
%TO.N,/Addr7*%
X113445000Y-119375000D03*
%TO.P,U11,4,A6*%
%TO.N,/Addr6*%
X110905000Y-119375000D03*
%TO.P,U11,5,A5*%
%TO.N,/Addr5*%
X108365000Y-119375000D03*
%TO.P,U11,6,A4*%
%TO.N,/Addr4*%
X105825000Y-119375000D03*
%TO.P,U11,7,A3*%
%TO.N,/Addr3*%
X103285000Y-119375000D03*
%TO.P,U11,8,A2*%
%TO.N,/Addr2*%
X100745000Y-119375000D03*
%TO.P,U11,9,A1*%
%TO.N,/Addr1*%
X98205000Y-119375000D03*
%TO.P,U11,10,A0*%
%TO.N,/Addr0*%
X95665000Y-119375000D03*
%TO.P,U11,11,D0*%
%TO.N,/Data8*%
X93125000Y-119375000D03*
%TO.P,U11,12,D1*%
%TO.N,/Data9*%
X90585000Y-119375000D03*
%TO.P,U11,13,D2*%
%TO.N,/Data10*%
X88045000Y-119375000D03*
%TO.P,U11,14,GND*%
%TO.N,GND*%
X85505000Y-119375000D03*
%TO.P,U11,15,D3*%
%TO.N,/Data11*%
X85505000Y-134615000D03*
%TO.P,U11,16,D4*%
%TO.N,/Data12*%
X88045000Y-134615000D03*
%TO.P,U11,17,D5*%
%TO.N,/Data13*%
X90585000Y-134615000D03*
%TO.P,U11,18,D6*%
%TO.N,/Data14*%
X93125000Y-134615000D03*
%TO.P,U11,19,D7*%
%TO.N,/Data15*%
X95665000Y-134615000D03*
%TO.P,U11,20,~{CS}*%
%TO.N,GND*%
X98205000Y-134615000D03*
%TO.P,U11,21,A10*%
%TO.N,/Addr10*%
X100745000Y-134615000D03*
%TO.P,U11,22,~{OE}*%
%TO.N,/RE_ROM*%
X103285000Y-134615000D03*
%TO.P,U11,23,A11*%
%TO.N,/Addr11*%
X105825000Y-134615000D03*
%TO.P,U11,24,A9*%
%TO.N,/Addr9*%
X108365000Y-134615000D03*
%TO.P,U11,25,A8*%
%TO.N,/Addr8*%
X110905000Y-134615000D03*
%TO.P,U11,26,A13*%
%TO.N,/Addr13*%
X113445000Y-134615000D03*
%TO.P,U11,27,~{WE}*%
%TO.N,+5V*%
X115985000Y-134615000D03*
%TO.P,U11,28,VCC*%
X118525000Y-134615000D03*
%TD*%
D10*
%TO.P,U5,1,~{OE}*%
%TO.N,/~{WE}*%
X30200000Y-22560000D03*
D11*
%TO.P,U5,2,1D*%
%TO.N,/Bus_D0*%
X30200000Y-25100000D03*
%TO.P,U5,3,2D*%
%TO.N,/Bus_D1*%
X30200000Y-27640000D03*
%TO.P,U5,4,3D*%
%TO.N,/Bus_D2*%
X30200000Y-30180000D03*
%TO.P,U5,5,4D*%
%TO.N,/Bus_D3*%
X30200000Y-32720000D03*
%TO.P,U5,6,5D*%
%TO.N,/Bus_D4*%
X30200000Y-35260000D03*
%TO.P,U5,7,6D*%
%TO.N,/Bus_D5*%
X30200000Y-37800000D03*
%TO.P,U5,8,7D*%
%TO.N,/Bus_D6*%
X30200000Y-40340000D03*
%TO.P,U5,9,8D*%
%TO.N,/Bus_D7*%
X30200000Y-42880000D03*
%TO.P,U5,10,GND*%
%TO.N,GND*%
X30200000Y-45420000D03*
%TO.P,U5,11,LE*%
%TO.N,/CLK_R*%
X37820000Y-45420000D03*
%TO.P,U5,12,8Q*%
%TO.N,/Data7*%
X37820000Y-42880000D03*
%TO.P,U5,13,7Q*%
%TO.N,/Data6*%
X37820000Y-40340000D03*
%TO.P,U5,14,6Q*%
%TO.N,/Data5*%
X37820000Y-37800000D03*
%TO.P,U5,15,5Q*%
%TO.N,/Data4*%
X37820000Y-35260000D03*
%TO.P,U5,16,4Q*%
%TO.N,/Data3*%
X37820000Y-32720000D03*
%TO.P,U5,17,3Q*%
%TO.N,/Data2*%
X37820000Y-30180000D03*
%TO.P,U5,18,2Q*%
%TO.N,/Data1*%
X37820000Y-27640000D03*
%TO.P,U5,19,1Q*%
%TO.N,/Data0*%
X37820000Y-25100000D03*
%TO.P,U5,20,VCC*%
%TO.N,+5V*%
X37820000Y-22560000D03*
%TD*%
D10*
%TO.P,U6,1,~{OE}*%
%TO.N,/~{WE}*%
X30200000Y-51575000D03*
D11*
%TO.P,U6,2,1D*%
%TO.N,/Bus_D8*%
X30200000Y-54115000D03*
%TO.P,U6,3,2D*%
%TO.N,/Bus_D9*%
X30200000Y-56655000D03*
%TO.P,U6,4,3D*%
%TO.N,/Bus_D10*%
X30200000Y-59195000D03*
%TO.P,U6,5,4D*%
%TO.N,/Bus_D11*%
X30200000Y-61735000D03*
%TO.P,U6,6,5D*%
%TO.N,/Bus_D12*%
X30200000Y-64275000D03*
%TO.P,U6,7,6D*%
%TO.N,/Bus_D13*%
X30200000Y-66815000D03*
%TO.P,U6,8,7D*%
%TO.N,/Bus_D14*%
X30200000Y-69355000D03*
%TO.P,U6,9,8D*%
%TO.N,/Bus_D15*%
X30200000Y-71895000D03*
%TO.P,U6,10,GND*%
%TO.N,GND*%
X30200000Y-74435000D03*
%TO.P,U6,11,LE*%
%TO.N,/CLK_R*%
X37820000Y-74435000D03*
%TO.P,U6,12,8Q*%
%TO.N,/Data15*%
X37820000Y-71895000D03*
%TO.P,U6,13,7Q*%
%TO.N,/Data14*%
X37820000Y-69355000D03*
%TO.P,U6,14,6Q*%
%TO.N,/Data13*%
X37820000Y-66815000D03*
%TO.P,U6,15,5Q*%
%TO.N,/Data12*%
X37820000Y-64275000D03*
%TO.P,U6,16,4Q*%
%TO.N,/Data11*%
X37820000Y-61735000D03*
%TO.P,U6,17,3Q*%
%TO.N,/Data10*%
X37820000Y-59195000D03*
%TO.P,U6,18,2Q*%
%TO.N,/Data9*%
X37820000Y-56655000D03*
%TO.P,U6,19,1Q*%
%TO.N,/Data8*%
X37820000Y-54115000D03*
%TO.P,U6,20,VCC*%
%TO.N,+5V*%
X37820000Y-51575000D03*
%TD*%
D15*
%TO.P,U4,1*%
%TO.N,N/C*%
X63500000Y-30000000D03*
D16*
%TO.P,U4,2*%
X63500000Y-32540000D03*
%TO.P,U4,3*%
X63500000Y-35080000D03*
%TO.P,U4,4*%
X63500000Y-37620000D03*
%TO.P,U4,5*%
X63500000Y-40160000D03*
%TO.P,U4,6*%
X63500000Y-42700000D03*
%TO.P,U4,7,WE_R*%
%TO.N,unconnected-(U4-Pad7)*%
X63500000Y-45240000D03*
%TO.P,U4,8,WE_F*%
%TO.N,/WE_F*%
X63500000Y-47780000D03*
%TO.P,U4,9,WE*%
%TO.N,/WE*%
X63500000Y-50320000D03*
%TO.P,U4,10,RE*%
%TO.N,/RE*%
X63500000Y-52860000D03*
%TO.P,U4,11*%
%TO.N,N/C*%
X63500000Y-55400000D03*
%TO.P,U4,12*%
X63500000Y-57940000D03*
%TO.P,U4,13*%
X63500000Y-60480000D03*
%TO.P,U4,14*%
X63500000Y-63020000D03*
%TO.P,U4,15*%
X63500000Y-65560000D03*
%TO.P,U4,16*%
X63500000Y-68100000D03*
%TO.P,U4,17*%
X63500000Y-70640000D03*
%TO.P,U4,18*%
X63500000Y-73180000D03*
%TO.P,U4,19*%
X63500000Y-75720000D03*
%TO.P,U4,20*%
X63500000Y-78260000D03*
%TO.P,U4,21*%
X63500000Y-80800000D03*
%TO.P,U4,22*%
X63500000Y-83340000D03*
%TO.P,U4,23*%
X63500000Y-85880000D03*
%TO.P,U4,24*%
X63500000Y-88420000D03*
%TO.P,U4,25*%
X63500000Y-90960000D03*
%TO.P,U4,26*%
X63500000Y-93500000D03*
%TO.P,U4,27,to_Bus0*%
%TO.N,/Data0*%
X63500000Y-96040000D03*
%TO.P,U4,28,to_Bus1*%
%TO.N,/Data1*%
X63500000Y-98580000D03*
%TO.P,U4,29,to_Bus2*%
%TO.N,/Data2*%
X63500000Y-101120000D03*
%TO.P,U4,30,to_Bus3*%
%TO.N,/Data3*%
X63500000Y-103660000D03*
%TO.P,U4,31,to_Bus4*%
%TO.N,/Data4*%
X63500000Y-106200000D03*
%TO.P,U4,32,to_Bus5*%
%TO.N,/Data5*%
X63500000Y-108740000D03*
%TO.P,U4,33,to_Bus6*%
%TO.N,/Data6*%
X63500000Y-111280000D03*
%TO.P,U4,34,to_Bus7*%
%TO.N,/Data7*%
X63500000Y-113820000D03*
%TO.P,U4,35,to_Bus8*%
%TO.N,/Data8*%
X63500000Y-116360000D03*
%TO.P,U4,36,to_Bus9*%
%TO.N,/Data9*%
X63500000Y-118900000D03*
%TO.P,U4,37,to_Bus10*%
%TO.N,/Data10*%
X63500000Y-121440000D03*
%TO.P,U4,38,to_Bus11*%
%TO.N,/Data11*%
X63500000Y-123980000D03*
%TO.P,U4,39,to_Bus12*%
%TO.N,/Data12*%
X63500000Y-126520000D03*
%TO.P,U4,40,to_Bus13*%
%TO.N,/Data13*%
X63500000Y-129060000D03*
%TO.P,U4,41,to_Bus14*%
%TO.N,/Data14*%
X63500000Y-131600000D03*
%TO.P,U4,42,to_Bus15*%
%TO.N,/Data15*%
X63500000Y-134140000D03*
%TD*%
D18*
%TO.N,GND*%
X79530000Y-46350000D03*
X38000000Y-49200000D03*
X43050000Y-21870000D03*
X79530000Y-42930978D03*
X79630000Y-49580000D03*
X94991101Y-128730500D03*
X79770000Y-52010000D03*
X108680000Y-78590000D03*
X108710000Y-76630000D03*
X32650000Y-43220000D03*
X93270000Y-127060000D03*
X80400000Y-39200000D03*
%TO.N,+5V*%
X134611175Y-112213597D03*
X122600000Y-61550000D03*
X98490000Y-64090000D03*
X121410000Y-119770000D03*
X130650000Y-116160000D03*
%TO.N,/CLK_R*%
X35000000Y-42000000D03*
%TO.N,unconnected-(J1-Pad4)*%
X34147096Y-21809551D03*
%TO.N,/Addr0*%
X96266547Y-127320351D03*
X168340500Y-105265318D03*
X95597464Y-103912536D03*
X134760000Y-104020000D03*
X161048967Y-105261314D03*
X134280000Y-126840000D03*
X166070000Y-83320000D03*
%TO.N,/Addr1*%
X137190000Y-103070500D03*
X137036166Y-126600500D03*
X164719952Y-81963565D03*
X98681148Y-125601648D03*
X161123694Y-104064141D03*
X167640989Y-104218332D03*
X98230000Y-102970500D03*
%TO.N,/Addr2*%
X100769307Y-125349500D03*
X139511860Y-125770500D03*
X158890000Y-102680500D03*
X162754542Y-80985458D03*
X100710000Y-102160500D03*
X166941478Y-103159032D03*
X139679916Y-102020500D03*
%TO.N,/Addr3*%
X103085636Y-124259500D03*
X142380000Y-124920500D03*
X160910000Y-79990000D03*
X103340000Y-101070000D03*
X166140500Y-102239216D03*
X142560578Y-101250500D03*
X160020000Y-102100000D03*
%TO.N,/Addr4*%
X165431035Y-101272021D03*
X144898972Y-124110500D03*
X160890000Y-101160000D03*
X105682290Y-123558752D03*
X158350000Y-78410000D03*
X105920000Y-100250000D03*
X144669848Y-100450500D03*
%TO.N,/Addr5*%
X108438540Y-122704257D03*
X147480000Y-123410500D03*
X164696340Y-100323849D03*
X108380000Y-99320000D03*
X147312332Y-99600500D03*
X155540656Y-76739344D03*
X160624795Y-99990183D03*
%TO.N,/Addr6*%
X110790000Y-121882945D03*
X149880000Y-122710989D03*
X152981027Y-75168973D03*
X163768609Y-99424668D03*
X160268951Y-98844678D03*
X149910000Y-99130000D03*
X110880000Y-98545500D03*
%TO.N,/Addr7*%
X159422946Y-97994336D03*
X113490000Y-97270000D03*
X113191885Y-120825319D03*
X152360000Y-98150000D03*
X162970598Y-98110000D03*
X152510000Y-121660000D03*
%TO.N,/Addr8*%
X149860000Y-130430500D03*
X169961478Y-107566122D03*
X160877828Y-107653820D03*
X149790000Y-106710000D03*
X110820000Y-106750000D03*
X111030000Y-130200000D03*
X159383271Y-69179500D03*
%TO.N,/Addr9*%
X160673602Y-68196398D03*
X147300000Y-131380000D03*
X170431971Y-108685448D03*
X108370000Y-107616476D03*
X108330000Y-131310000D03*
X159420000Y-107740000D03*
X147335356Y-107540989D03*
%TO.N,/Addr10*%
X159950000Y-110100000D03*
X171553846Y-111293357D03*
X159143973Y-64226027D03*
%TO.N,/Addr11*%
X84624103Y-132244603D03*
X105780000Y-108300000D03*
X105920000Y-132259500D03*
X144876163Y-132215989D03*
X156490000Y-62670000D03*
X171153601Y-109643601D03*
X143834711Y-108083680D03*
X161097511Y-109652955D03*
X82704746Y-133912950D03*
%TO.N,/Addr12*%
X150500000Y-75020000D03*
X151040000Y-72910000D03*
X83520000Y-134840000D03*
%TO.N,/Addr13*%
X160984849Y-106459101D03*
X113550000Y-105640000D03*
X169060500Y-106273284D03*
X152534239Y-105760500D03*
X152419483Y-129449500D03*
X113650000Y-129360000D03*
%TO.N,/Addr14*%
X92750000Y-139799500D03*
%TO.N,/Addr15*%
X93176642Y-140945829D03*
%TO.N,/WE*%
X99199001Y-60590000D03*
%TO.N,/Data14*%
X90121500Y-138328521D03*
X94005119Y-138358521D03*
%TO.N,/Data13*%
X87853932Y-137759010D03*
X95004849Y-137613522D03*
%TO.N,/Data12*%
X95980118Y-136914011D03*
X86049126Y-136501922D03*
%TO.N,/Data11*%
X97100000Y-136130000D03*
%TO.N,/Data9*%
X92860000Y-117510000D03*
X89254101Y-117728695D03*
%TO.N,/Data6*%
X91840000Y-114670500D03*
X94470224Y-114390500D03*
%TO.N,/Data5*%
X95880000Y-113980000D03*
X88060000Y-114110000D03*
%TO.N,/Data4*%
X96870000Y-113280000D03*
X85230000Y-113430000D03*
%TO.N,/Data3*%
X97930000Y-112630000D03*
%TO.N,/Data2*%
X120070000Y-93860000D03*
X116810000Y-93600000D03*
X92010000Y-93380000D03*
%TO.N,/Data1*%
X88535978Y-93325978D03*
X91662290Y-92062000D03*
X120048094Y-92660697D03*
X117097836Y-92435544D03*
%TO.N,/Data0*%
X117058159Y-91236698D03*
X119562682Y-91563800D03*
%TO.N,/~{WE}*%
X34000000Y-23000000D03*
%TO.N,Net-(U1-Pad11)*%
X125000000Y-71000000D03*
X123000000Y-73000000D03*
%TO.N,/SUP*%
X38000000Y-109500000D03*
X107957301Y-64484602D03*
%TO.N,/WE_RAM*%
X121650000Y-111240000D03*
X121910000Y-96450000D03*
X92850500Y-72184253D03*
X123240000Y-113310000D03*
X154030000Y-113740000D03*
X121780000Y-108430000D03*
%TO.N,/RE_RAM*%
X153500000Y-117000000D03*
X160500000Y-117000000D03*
X96600000Y-57200000D03*
X161500000Y-94500000D03*
X99200000Y-57000000D03*
X102000000Y-55000000D03*
X157500000Y-128500000D03*
X104800000Y-55000000D03*
X93800000Y-60800000D03*
X161500000Y-92000000D03*
X146183423Y-91091711D03*
X150000000Y-113500000D03*
X146000000Y-128500000D03*
%TO.N,/RE_ROM*%
X110559374Y-64386201D03*
X104790000Y-129680000D03*
X88580000Y-128160000D03*
X83530000Y-91290000D03*
X108400000Y-66600000D03*
X81880000Y-121400000D03*
%TO.N,Net-(U2-Pad11)*%
X99800000Y-58400000D03*
%TD*%
D19*
%TO.N,GND*%
X80400000Y-39200000D02*
X80400000Y-42060978D01*
X32840000Y-43030000D02*
X32840000Y-22200978D01*
X93270000Y-127060000D02*
X94940500Y-128730500D01*
X94940500Y-128730500D02*
X94991101Y-128730500D01*
X32650000Y-43220000D02*
X32840000Y-43030000D01*
X108680000Y-76660000D02*
X108710000Y-76630000D01*
X108680000Y-78590000D02*
X108680000Y-76660000D01*
X103820000Y-67375000D02*
X88455000Y-52010000D01*
X80400000Y-42060978D02*
X79530000Y-42930978D01*
X32840000Y-22200978D02*
X30639022Y-20000000D01*
X30639022Y-20000000D02*
X25000000Y-20000000D01*
X30639022Y-20000000D02*
X41180000Y-20000000D01*
X88455000Y-52010000D02*
X79770000Y-52010000D01*
X38000000Y-49200000D02*
X41500000Y-49200000D01*
X41180000Y-20000000D02*
X43050000Y-21870000D01*
X41500000Y-49200000D02*
X43000000Y-50700000D01*
X79530000Y-49480000D02*
X79630000Y-49580000D01*
X79530000Y-46350000D02*
X79530000Y-49480000D01*
%TO.N,+5V*%
X144544571Y-114599501D02*
X150455429Y-114599501D01*
X155790490Y-112349510D02*
X157525000Y-110615000D01*
X120249501Y-112339501D02*
X122105429Y-112339501D01*
X98490000Y-80325000D02*
X98490000Y-64090000D01*
X122308050Y-112136880D02*
X142081950Y-112136880D01*
X122105429Y-112339501D02*
X122308050Y-112136880D01*
X96200000Y-82615000D02*
X98490000Y-80325000D01*
X118525000Y-110615000D02*
X120249501Y-112339501D01*
X125020000Y-116160000D02*
X130650000Y-116160000D01*
X115985000Y-110615000D02*
X118525000Y-110615000D01*
X121410000Y-119770000D02*
X125020000Y-116160000D01*
X119820000Y-64330000D02*
X122600000Y-61550000D01*
X152705420Y-112349510D02*
X155790490Y-112349510D01*
X142081950Y-112136880D02*
X144544571Y-114599501D01*
X150455429Y-114599501D02*
X152705420Y-112349510D01*
X119820000Y-67375000D02*
X119820000Y-64330000D01*
D20*
%TO.N,/CLK_R*%
X35000000Y-42000000D02*
X35000000Y-42600000D01*
X37820000Y-74435000D02*
X36340000Y-72955000D01*
X36340000Y-46900000D02*
X37820000Y-45420000D01*
X36340000Y-72955000D02*
X36340000Y-46900000D01*
X35000000Y-42600000D02*
X37820000Y-45420000D01*
%TO.N,/Addr0*%
X168070978Y-107478107D02*
X168070979Y-105534839D01*
X160856292Y-105261314D02*
X161048967Y-105261314D01*
X146520978Y-70520978D02*
X146520978Y-88990978D01*
X167801473Y-107747611D02*
X167801473Y-107747607D01*
X168070979Y-105534839D02*
X168340500Y-105265318D01*
X133373602Y-127746398D02*
X96692594Y-127746398D01*
X168590489Y-85840489D02*
X168590489Y-104899511D01*
X139750489Y-63750489D02*
X146520978Y-70520978D01*
X36414058Y-101712881D02*
X36370818Y-101777740D01*
X160166988Y-104572010D02*
X160856292Y-105261314D01*
X168340500Y-105149500D02*
X168340500Y-105265318D01*
X167801469Y-107747615D02*
X167801473Y-107747611D01*
X36370818Y-82514316D02*
X36370818Y-101496674D01*
X167730979Y-119961248D02*
X167730980Y-107880504D01*
X25000000Y-70800000D02*
X25000000Y-71143498D01*
X63249748Y-136219748D02*
X68974997Y-136219748D01*
X36370818Y-101777740D02*
X36370818Y-109340817D01*
X168590489Y-104899511D02*
X168340500Y-105149500D01*
X129200000Y-70180000D02*
X135629511Y-63750489D01*
X167730980Y-107880504D02*
X167801469Y-107810015D01*
X134990000Y-127550000D02*
X160142227Y-127550000D01*
X166070000Y-83320000D02*
X168590489Y-85840489D01*
X134718998Y-103978998D02*
X95663926Y-103978998D01*
X94260000Y-120780000D02*
X95665000Y-119375000D01*
X96692594Y-127746398D02*
X96266547Y-127320351D01*
X134280000Y-126840000D02*
X133373602Y-127746398D01*
X134760000Y-104020000D02*
X134718998Y-103978998D01*
X36370818Y-109340817D02*
X63249748Y-136219748D01*
X167801469Y-107810015D02*
X167801469Y-107747615D01*
X68974997Y-136219748D02*
X84414745Y-120780000D01*
X167801473Y-107747607D02*
X168070978Y-107478107D01*
X135312010Y-104572010D02*
X160166988Y-104572010D01*
X160142227Y-127550000D02*
X167730979Y-119961248D01*
X95663926Y-103978998D02*
X95597464Y-103912536D01*
X134280000Y-126840000D02*
X134990000Y-127550000D01*
X146520978Y-88990978D02*
X148620000Y-91090000D01*
X134760000Y-104020000D02*
X135312010Y-104572010D01*
X36370818Y-101496674D02*
X36414058Y-101712881D01*
X25000000Y-71143498D02*
X36370818Y-82514316D01*
X135629511Y-63750489D02*
X139750489Y-63750489D01*
X84414745Y-120780000D02*
X94260000Y-120780000D01*
%TO.N,/Addr1*%
X167890979Y-86453777D02*
X165706703Y-84269501D01*
X137036166Y-126600500D02*
X136303741Y-125868075D01*
X137190000Y-103070500D02*
X137290500Y-102970000D01*
X160689553Y-103630000D02*
X161123694Y-104064141D01*
X165676703Y-84269501D02*
X165120499Y-83713297D01*
X95346693Y-121479520D02*
X96156885Y-120669328D01*
X137290500Y-102970000D02*
X147680000Y-102970000D01*
X106453359Y-126109001D02*
X101352604Y-126109001D01*
X167101966Y-107457852D02*
X167371467Y-107188356D01*
X35584836Y-102353101D02*
X35584836Y-109544093D01*
X167640989Y-104218332D02*
X167890979Y-103968342D01*
X167101962Y-107520264D02*
X167101962Y-107457861D01*
X147680000Y-102970000D02*
X148340000Y-103630000D01*
X133789022Y-63050978D02*
X140040237Y-63050979D01*
X101352604Y-126109001D02*
X101162604Y-126299001D01*
X137155666Y-126720000D02*
X159982969Y-126720000D01*
X134366703Y-103070499D02*
X137190000Y-103070500D01*
X96156885Y-120669328D02*
X96523707Y-120424782D01*
X167890979Y-103968342D02*
X167890979Y-86453777D01*
X165706703Y-84269501D02*
X165676703Y-84269501D01*
X167101962Y-107457861D02*
X167101966Y-107457857D01*
X35628068Y-83968068D02*
X35628068Y-102288253D01*
X25000000Y-73340000D02*
X35628068Y-83968068D01*
X147220489Y-87150489D02*
X148620000Y-88550000D01*
X84783296Y-121479520D02*
X95346693Y-121479520D01*
X137036166Y-126600500D02*
X137155666Y-126720000D01*
X69343557Y-136919259D02*
X84783296Y-121479520D01*
X167371467Y-107188356D02*
X167371469Y-104487852D01*
X97573489Y-119375000D02*
X98205000Y-119375000D01*
X167031470Y-107590756D02*
X167101962Y-107520264D01*
X106694285Y-125868075D02*
X106453359Y-126109001D01*
X99378501Y-126299001D02*
X98681148Y-125601648D01*
X35584836Y-109544093D02*
X62960002Y-136919259D01*
X101162604Y-126299001D02*
X99378501Y-126299001D01*
X165120499Y-83713297D02*
X165120499Y-82364112D01*
X140040237Y-63050979D02*
X147220489Y-70231231D01*
X129200000Y-67640000D02*
X133789022Y-63050978D01*
X147220489Y-70231231D02*
X147220489Y-87150489D01*
X98369500Y-103110000D02*
X134327202Y-103110000D01*
X148340000Y-103630000D02*
X160689553Y-103630000D01*
X167371469Y-104487852D02*
X167640989Y-104218332D01*
X96523707Y-120424782D02*
X97573489Y-119375000D01*
X134327202Y-103110000D02*
X134366703Y-103070499D01*
X62960002Y-136919259D02*
X69343557Y-136919259D01*
X159982969Y-126720000D02*
X167031468Y-119671501D01*
X167101966Y-107457857D02*
X167101966Y-107457852D01*
X136303741Y-125868075D02*
X106694285Y-125868075D01*
X98230000Y-102970500D02*
X98369500Y-103110000D01*
X35628068Y-102288253D02*
X35584836Y-102353101D01*
X165120499Y-82364112D02*
X164719952Y-81963565D01*
X167031468Y-119671501D02*
X167031470Y-107590756D01*
%TO.N,/Addr2*%
X159843711Y-125870000D02*
X166331957Y-119381754D01*
X164081202Y-83561445D02*
X164081200Y-83561442D01*
X167100000Y-103000510D02*
X167100000Y-86652056D01*
X95841962Y-122051747D02*
X95714678Y-122179031D01*
X96252469Y-121641230D02*
X96058564Y-121791065D01*
X163603553Y-82188007D02*
X162754542Y-81338996D01*
X136897202Y-102020500D02*
X139679916Y-102020500D01*
X96969352Y-120968394D02*
X96785986Y-121090637D01*
X96770705Y-121167041D02*
X96534129Y-121403617D01*
X139859416Y-102200000D02*
X139679916Y-102020500D01*
X95841962Y-122051744D02*
X95841962Y-122051747D01*
X138909923Y-125168563D02*
X106404534Y-125168563D01*
X163792681Y-82377135D02*
X163603565Y-82188007D01*
X148100000Y-102200000D02*
X139859416Y-102200000D01*
X164013419Y-83468035D02*
X164013391Y-83468007D01*
X166941478Y-103159032D02*
X167100000Y-103000510D01*
X76190672Y-131140216D02*
X76190672Y-131170158D01*
X97125315Y-120812431D02*
X96969352Y-120968394D01*
X76159169Y-131201661D02*
X76159168Y-131359347D01*
X69758524Y-137759991D02*
X62811475Y-137759990D01*
X150450000Y-102780000D02*
X150380000Y-102850000D01*
X165416957Y-84969012D02*
X165386955Y-84969011D01*
X166671956Y-106898605D02*
X166671956Y-103844567D01*
X96469677Y-121424022D02*
X96252469Y-121641230D01*
X164013337Y-83467873D02*
X164013337Y-83467835D01*
X139511860Y-125770500D02*
X138909923Y-125168563D01*
X164013317Y-82597785D02*
X164013306Y-82597774D01*
X164013306Y-82597760D02*
X163792681Y-82377135D01*
X158790500Y-102780000D02*
X150450000Y-102780000D01*
X34851380Y-109799895D02*
X34851380Y-85731380D01*
X34851380Y-85731380D02*
X25000000Y-75880000D01*
X164013337Y-83467835D02*
X164013310Y-83467808D01*
X139611360Y-125870000D02*
X159843711Y-125870000D01*
X99307570Y-120812430D02*
X97125315Y-120812431D01*
X96469687Y-121424022D02*
X96469677Y-121424022D01*
X164013391Y-83468007D02*
X164013391Y-83467967D01*
X96490092Y-121403617D02*
X96469687Y-121424022D01*
X164068475Y-83650531D02*
X164081202Y-83561445D01*
X165386955Y-84969011D02*
X164068475Y-83650531D01*
X164081200Y-83561442D02*
X164081200Y-83561439D01*
X158890000Y-102680500D02*
X158790500Y-102780000D01*
X166331957Y-107301015D02*
X166402459Y-107230513D01*
X100710000Y-102160500D02*
X136757202Y-102160500D01*
X106404534Y-125168563D02*
X106223597Y-125349500D01*
X166781960Y-103318550D02*
X166941478Y-103159032D01*
X164013308Y-82902710D02*
X164013317Y-82597785D01*
X150380000Y-102850000D02*
X148750000Y-102850000D01*
X139511860Y-125770500D02*
X139611360Y-125870000D01*
X96052082Y-121841624D02*
X95841962Y-122051744D01*
X164081200Y-83561439D02*
X164013419Y-83471064D01*
X164013391Y-83467967D02*
X164013363Y-83467939D01*
X96058564Y-121791065D02*
X96052082Y-121841624D01*
X136757202Y-102160500D02*
X136897202Y-102020500D01*
X166402459Y-107168097D02*
X166671956Y-106898605D01*
X164013308Y-82987769D02*
X164013308Y-82902710D01*
X164013363Y-83467939D02*
X164013363Y-83467899D01*
X62811475Y-137759990D02*
X34851380Y-109799895D01*
X162754542Y-81338996D02*
X162754542Y-80985458D01*
X76190672Y-131170158D02*
X76159169Y-131201661D01*
X76159168Y-131359347D02*
X69758524Y-137759991D01*
X85151857Y-122179031D02*
X76190672Y-131140216D01*
X164013310Y-83467808D02*
X164013310Y-82987771D01*
X164013363Y-83467899D02*
X164013337Y-83467873D01*
X166781960Y-103734563D02*
X166781960Y-103318550D01*
X163603565Y-82188007D02*
X163603553Y-82188007D01*
X100745000Y-119375000D02*
X99307570Y-120812430D01*
X148750000Y-102850000D02*
X148100000Y-102200000D01*
X96534129Y-121403617D02*
X96490092Y-121403617D01*
X164013419Y-83471064D02*
X164013419Y-83468035D01*
X166671956Y-103844567D02*
X166781960Y-103734563D01*
X164013310Y-82987771D02*
X164013308Y-82987769D01*
X95714678Y-122179031D02*
X85151857Y-122179031D01*
X96785986Y-121090637D02*
X96770705Y-121167041D01*
X167100000Y-86652056D02*
X165416957Y-84969012D01*
X166402459Y-107230513D02*
X166402459Y-107168097D01*
X106223597Y-125349500D02*
X100769307Y-125349500D01*
X166331957Y-119381754D02*
X166331957Y-107301015D01*
X164013306Y-82597774D02*
X164013306Y-82597760D01*
%TO.N,/Addr3*%
X166082450Y-102675262D02*
X166082450Y-102297266D01*
X163313796Y-83647513D02*
X163313799Y-83647516D01*
X97415063Y-121511941D02*
X100491028Y-121511941D01*
X34142567Y-87562567D02*
X34142567Y-110080340D01*
X96823877Y-122103127D02*
X97415063Y-121511941D01*
X25000000Y-78420000D02*
X34142567Y-87562567D01*
X80283217Y-128066876D02*
X80375303Y-128066875D01*
X163347745Y-83749352D02*
X163322596Y-83925393D01*
X165632450Y-119092003D02*
X165632450Y-107011260D01*
X163313795Y-82917507D02*
X163313796Y-83277511D01*
X165972447Y-106608864D02*
X165972447Y-102785265D01*
X165702938Y-106878373D02*
X165972447Y-106608864D01*
X159382797Y-101830499D02*
X159283297Y-101730999D01*
X103334389Y-124508253D02*
X103085636Y-124259500D01*
X159750499Y-101830499D02*
X159382797Y-101830499D01*
X85563637Y-122878541D02*
X96004426Y-122878541D01*
X163313796Y-82887508D02*
X163313795Y-82917507D01*
X139286619Y-101070999D02*
X142381077Y-101070999D01*
X165632450Y-107011260D02*
X165702938Y-106940772D01*
X78060545Y-130289553D02*
X80283217Y-128066876D01*
X139117618Y-101240000D02*
X139286619Y-101070999D01*
X163313798Y-83277513D02*
X163313796Y-83647513D01*
X103510000Y-101240000D02*
X139117618Y-101240000D01*
X166390489Y-86949747D02*
X166390489Y-101989227D01*
X166390489Y-101989227D02*
X166140500Y-102239216D01*
X148890499Y-101830499D02*
X148460000Y-101400000D01*
X34142567Y-110080340D02*
X62521728Y-138459501D01*
X163313799Y-83704091D02*
X163347745Y-83749352D01*
X77741005Y-130609093D02*
X78060545Y-130289553D01*
X158397203Y-101830499D02*
X148890499Y-101830499D01*
X76858677Y-131649096D02*
X76858678Y-131491411D01*
X106075587Y-124508253D02*
X103334389Y-124508253D01*
X142380000Y-124920500D02*
X141928553Y-124469053D01*
X158496703Y-101730999D02*
X158397203Y-101830499D01*
X76858678Y-131491411D02*
X77741005Y-130609093D01*
X103340000Y-101070000D02*
X103510000Y-101240000D01*
X165972447Y-102785265D02*
X166082450Y-102675262D01*
X80375303Y-128066875D02*
X85563637Y-122878541D01*
X62521728Y-138459501D02*
X70048272Y-138459501D01*
X148460000Y-101400000D02*
X142710078Y-101400000D01*
X142519500Y-125060000D02*
X159664453Y-125060000D01*
X142710078Y-101400000D02*
X142560578Y-101250500D01*
X160910000Y-79990000D02*
X160910000Y-80483712D01*
X101491012Y-120511958D02*
X102148042Y-120511958D01*
X165065723Y-85668521D02*
X165109263Y-85668521D01*
X163313799Y-83647516D02*
X163313799Y-83704091D01*
X160910000Y-80483712D02*
X163313796Y-82887508D01*
X159283297Y-101730999D02*
X158496703Y-101730999D01*
X96779840Y-122103127D02*
X96823877Y-122103127D01*
X102148042Y-120511958D02*
X103285000Y-119375000D01*
X96004426Y-122878541D02*
X96779840Y-122103127D01*
X70048272Y-138459501D02*
X76858677Y-131649096D01*
X160020000Y-102100000D02*
X159750499Y-101830499D01*
X142380000Y-124920500D02*
X142519500Y-125060000D01*
X106114787Y-124469053D02*
X106075587Y-124508253D01*
X165109263Y-85668521D02*
X166390489Y-86949747D01*
X165702938Y-106940772D02*
X165702938Y-106878373D01*
X141928553Y-124469053D02*
X106114787Y-124469053D01*
X159664453Y-125060000D02*
X165632450Y-119092003D01*
X163322596Y-83925393D02*
X165065723Y-85668521D01*
X142381077Y-101070999D02*
X142560578Y-101250500D01*
X163313796Y-83277511D02*
X163313798Y-83277513D01*
X166082450Y-102297266D02*
X166140500Y-102239216D01*
X100491028Y-121511941D02*
X101491012Y-120511958D01*
%TO.N,/Addr4*%
X103370758Y-121211469D02*
X101780758Y-121211469D01*
X33443055Y-89403055D02*
X25000000Y-80960000D01*
X149089257Y-101040000D02*
X148599257Y-100550000D01*
X164932935Y-107724600D02*
X164846458Y-107594885D01*
X165250999Y-101452057D02*
X165431035Y-101272021D01*
X165431035Y-101038965D02*
X165431035Y-101272021D01*
X164932935Y-118802257D02*
X164932935Y-107724600D01*
X100780760Y-122211467D02*
X98012116Y-122211466D01*
X144442230Y-123653758D02*
X105777296Y-123653758D01*
X33443055Y-110440749D02*
X33443055Y-89403055D01*
X85781442Y-123650000D02*
X80665056Y-128766386D01*
X77558187Y-131781161D02*
X77558186Y-131945549D01*
X164932935Y-106721517D02*
X165043179Y-106611273D01*
X96222225Y-123650000D02*
X85781442Y-123650000D01*
X97093226Y-122823043D02*
X97049183Y-122823043D01*
X158206955Y-101031489D02*
X158198445Y-101040000D01*
X160890000Y-101160000D02*
X160770000Y-101040000D01*
X105970999Y-100300999D02*
X144520347Y-100300999D01*
X144898972Y-124110500D02*
X144442230Y-123653758D01*
X80572964Y-128766386D02*
X78440516Y-130898839D01*
X162614285Y-83177254D02*
X162614285Y-83937258D01*
X148599257Y-100550000D02*
X144769348Y-100550000D01*
X144769348Y-100550000D02*
X144669848Y-100450500D01*
X70322757Y-139180978D02*
X62183284Y-139180978D01*
X165250999Y-101785919D02*
X165250999Y-101452057D01*
X105777296Y-123653758D02*
X105682290Y-123558752D01*
X97295046Y-122621223D02*
X97093226Y-122823043D01*
X144898972Y-124110500D02*
X145148472Y-124360000D01*
X159375192Y-124360000D02*
X164932935Y-118802257D01*
X80665056Y-128766386D02*
X80572964Y-128766386D01*
X164846458Y-107594885D02*
X164846459Y-107594882D01*
X159581556Y-101040000D02*
X159573043Y-101031488D01*
X162614288Y-83937262D02*
X162614288Y-84047300D01*
X78440516Y-130898839D02*
X77558187Y-131781161D01*
X164846457Y-107594880D02*
X164932935Y-107162491D01*
X162614285Y-83937258D02*
X162614288Y-83937262D01*
X162614328Y-84206383D02*
X165690978Y-87283033D01*
X162614315Y-84047367D02*
X162614343Y-84047395D01*
X158350000Y-78410000D02*
X158350000Y-78912969D01*
X144520347Y-100300999D02*
X144669848Y-100450500D01*
X97295046Y-122621215D02*
X97295046Y-122621223D01*
X158198445Y-101040000D02*
X149089257Y-101040000D01*
X164846459Y-107594882D02*
X164846457Y-107594880D01*
X97704820Y-122211459D02*
X97704812Y-122211467D01*
X165190999Y-101845919D02*
X165250999Y-101785919D01*
X105825000Y-119375000D02*
X105207227Y-119375000D01*
X165690978Y-87283033D02*
X165690978Y-100779022D01*
X165190999Y-106341155D02*
X165190999Y-101845919D01*
X165043179Y-106611273D02*
X165073753Y-106458401D01*
X97704812Y-122211467D02*
X97704802Y-122211467D01*
X105207227Y-119375000D02*
X103370758Y-121211469D01*
X101780758Y-121211469D02*
X100780760Y-122211467D01*
X162614288Y-84047300D02*
X162614315Y-84047327D01*
X98012116Y-122211466D02*
X97704820Y-122211459D01*
X97049183Y-122823043D02*
X96222225Y-123650000D01*
X162614343Y-84047395D02*
X162614328Y-84206383D01*
X97463611Y-122452657D02*
X97295046Y-122621215D01*
X162204519Y-82767490D02*
X162614285Y-83177254D01*
X164932935Y-107162491D02*
X164932935Y-106721517D01*
X145148472Y-124360000D02*
X159375192Y-124360000D01*
X162614315Y-84047327D02*
X162614315Y-84047367D01*
X160770000Y-101040000D02*
X159581556Y-101040000D01*
X159573043Y-101031488D02*
X158206955Y-101031489D01*
X105920000Y-100250000D02*
X105970999Y-100300999D01*
X158350000Y-78912969D02*
X162204519Y-82767490D01*
X97704802Y-122211467D02*
X97463611Y-122452657D01*
X77558186Y-131945549D02*
X70322757Y-139180978D01*
X165073753Y-106458401D02*
X165190999Y-106341155D01*
X62183284Y-139180978D02*
X33443055Y-110440749D01*
X165690978Y-100779022D02*
X165431035Y-101038965D01*
%TO.N,/Addr5*%
X164091218Y-107648557D02*
X164146947Y-107481371D01*
X160404978Y-100210000D02*
X160624795Y-99990183D01*
X164474877Y-106016946D02*
X164474878Y-106016943D01*
X164481534Y-100538655D02*
X164696340Y-100323849D01*
X161914775Y-84227006D02*
X161914774Y-83467001D01*
X164233425Y-106431775D02*
X164233430Y-106431770D01*
X147729989Y-123660489D02*
X159003064Y-123660489D01*
X78926442Y-131402170D02*
X80862712Y-129465897D01*
X164303837Y-106300208D02*
X164405595Y-106232369D01*
X164146947Y-107806682D02*
X164103707Y-107741822D01*
X147480000Y-123410500D02*
X146901945Y-122832445D01*
X164233430Y-106431764D02*
X164288550Y-106376644D01*
X164233425Y-106652267D02*
X164233425Y-106431775D01*
X81124846Y-129465896D02*
X86200238Y-124390504D01*
X107733499Y-119375000D02*
X108365000Y-119375000D01*
X32587064Y-91087064D02*
X32587064Y-110670032D01*
X106383985Y-120724511D02*
X107733499Y-119375000D01*
X161914805Y-84337075D02*
X161914777Y-84337047D01*
X159343297Y-123280334D02*
X159343299Y-123280333D01*
X108380000Y-99320000D02*
X108560999Y-99500999D01*
X78257696Y-132070910D02*
X78926442Y-131402170D01*
X164202066Y-107250013D02*
X164233425Y-107093220D01*
X164481534Y-106012508D02*
X164481534Y-100538655D01*
X155540656Y-77092882D02*
X155540656Y-76739344D01*
X164233430Y-106431770D02*
X164233430Y-106431764D01*
X32587064Y-110670032D02*
X61797521Y-139880489D01*
X159343299Y-123280331D02*
X159710199Y-123035731D01*
X161914777Y-84227008D02*
X161914775Y-84227006D01*
X80862712Y-129465897D02*
X81124846Y-129465896D01*
X164103708Y-107741816D02*
X164103706Y-107741813D01*
X159343297Y-123320256D02*
X159343297Y-123280334D01*
X161914777Y-84337047D02*
X161914777Y-84227008D01*
X164233425Y-107971106D02*
X164146947Y-107884628D01*
X96515022Y-124390504D02*
X97994550Y-122910977D01*
X164405595Y-106232369D02*
X164444649Y-106037098D01*
X78257695Y-132235297D02*
X78257696Y-132070910D01*
X86200238Y-124390504D02*
X96515022Y-124390504D01*
X164146947Y-107884628D02*
X164146947Y-107806682D01*
X148710500Y-99600500D02*
X149320000Y-100210000D01*
X164233425Y-106933306D02*
X164190188Y-106868451D01*
X147480000Y-123410500D02*
X147729989Y-123660489D01*
X149320000Y-100210000D02*
X160404978Y-100210000D01*
X159343299Y-123280333D02*
X159343299Y-123280331D01*
X25000000Y-83500000D02*
X32587064Y-91087064D01*
X97994550Y-122910977D02*
X101070508Y-122910977D01*
X164103706Y-107741813D02*
X164113460Y-107693042D01*
X101070508Y-122910977D02*
X102070507Y-121910979D01*
X164146947Y-107481371D02*
X164146947Y-107305132D01*
X61797521Y-139880489D02*
X70612503Y-139880489D01*
X147312332Y-99600500D02*
X148710500Y-99600500D01*
X159003064Y-123660489D02*
X159343297Y-123320256D01*
X164444649Y-106037098D02*
X164474877Y-106016946D01*
X164718109Y-87299423D02*
X161914790Y-84496104D01*
X161914790Y-84496104D02*
X161914805Y-84337075D01*
X164474878Y-106016943D02*
X164481534Y-106012508D01*
X161914774Y-83467001D02*
X161505010Y-83057238D01*
X164696340Y-100323849D02*
X164718109Y-100302080D01*
X104886232Y-120724511D02*
X106383985Y-120724511D01*
X164233424Y-118512506D02*
X164233425Y-107971106D01*
X164103707Y-107741822D02*
X164103708Y-107741816D01*
X164190188Y-106868451D02*
X164233425Y-106652267D01*
X164288550Y-106376644D02*
X164303837Y-106300208D01*
X159710199Y-123035731D02*
X164233424Y-118512506D01*
X147212831Y-99500999D02*
X147312332Y-99600500D01*
X164146947Y-107305132D02*
X164202066Y-107250013D01*
X103699763Y-121910979D02*
X104886232Y-120724511D01*
X164113460Y-107693042D02*
X164091218Y-107648557D01*
X108566728Y-122832445D02*
X108438540Y-122704257D01*
X102070507Y-121910979D02*
X103699763Y-121910979D01*
X164233425Y-107093220D02*
X164233425Y-106933306D01*
X108560999Y-99500999D02*
X147212831Y-99500999D01*
X161505010Y-83057238D02*
X155540656Y-77092882D01*
X146901945Y-122832445D02*
X108566728Y-122832445D01*
X70612503Y-139880489D02*
X78257695Y-132235297D01*
X164718109Y-100302080D02*
X164718109Y-87299423D01*
%TO.N,/Addr6*%
X81152459Y-130165407D02*
X80742696Y-130575172D01*
X159983629Y-99130000D02*
X160268951Y-98844678D01*
X163533920Y-106142016D02*
X163644159Y-106031778D01*
X163447436Y-108026525D02*
X163366080Y-107912627D01*
X149910000Y-99130000D02*
X159983629Y-99130000D01*
X163533914Y-108260853D02*
X163447436Y-108174374D01*
X149910000Y-99130000D02*
X149431000Y-98651000D01*
X163447436Y-107367856D02*
X163447437Y-107015384D01*
X163746839Y-99930552D02*
X163773458Y-99903933D01*
X61507774Y-140580000D02*
X31887553Y-110959779D01*
X107347264Y-120750490D02*
X106673731Y-121424022D01*
X163920098Y-99273179D02*
X163920098Y-87490689D01*
X163447436Y-108174374D02*
X163447436Y-108026525D01*
X163368238Y-107899679D02*
X163360957Y-107888758D01*
X152981027Y-75522511D02*
X152981027Y-75168973D01*
X122882793Y-98798525D02*
X111133025Y-98798525D01*
X110555742Y-119375000D02*
X109180252Y-120750490D01*
X163335978Y-107702224D02*
X163389486Y-107541706D01*
X163746839Y-105830834D02*
X163746839Y-99930552D01*
X123030319Y-98650999D02*
X122882793Y-98798525D01*
X161215264Y-83756749D02*
X152981027Y-75522511D01*
X159264520Y-122492143D02*
X163533913Y-118222750D01*
X163644159Y-106031778D02*
X163674734Y-105878904D01*
X163335978Y-107702228D02*
X163335979Y-107702226D01*
X163447437Y-107015384D02*
X163533914Y-106583000D01*
X163360955Y-107888750D02*
X163380465Y-107791200D01*
X109180252Y-120750490D02*
X107347264Y-120750490D01*
X110790000Y-121882945D02*
X111039989Y-122132934D01*
X81414593Y-130165407D02*
X81152459Y-130165407D01*
X111039989Y-122132934D02*
X149301945Y-122132934D01*
X110905000Y-119375000D02*
X110555742Y-119375000D01*
X163360958Y-107888752D02*
X163360955Y-107888750D01*
X163533914Y-106583000D02*
X163533915Y-106142027D01*
X105175978Y-121424022D02*
X103989509Y-122610490D01*
X149431000Y-98651000D02*
X123030319Y-98650999D01*
X163533919Y-106142023D02*
X163533920Y-106142016D01*
X158917832Y-122710989D02*
X159136678Y-122492143D01*
X78957204Y-132525086D02*
X70902290Y-140580000D01*
X70902290Y-140580000D02*
X61507774Y-140580000D01*
X163335979Y-107702226D02*
X163335978Y-107702224D01*
X106673731Y-121424022D02*
X105175978Y-121424022D01*
X149301945Y-122132934D02*
X149880000Y-122710989D01*
X149880000Y-122710989D02*
X158917832Y-122710989D01*
X31887553Y-92927553D02*
X25000000Y-86040000D01*
X163380465Y-107791200D02*
X163335978Y-107702228D01*
X163389486Y-107541706D02*
X163447436Y-107367856D01*
X86480000Y-125100000D02*
X81414593Y-130165407D01*
X78957205Y-132360661D02*
X78957204Y-132525086D01*
X31887553Y-110959779D02*
X31887553Y-92927553D01*
X163768609Y-99424668D02*
X163920098Y-99273179D01*
X163533915Y-106142027D02*
X163533919Y-106142023D01*
X96794784Y-125100000D02*
X86480000Y-125100000D01*
X163360957Y-107888758D02*
X163360958Y-107888752D01*
X159136678Y-122492143D02*
X159264520Y-122492143D01*
X103989509Y-122610490D02*
X102360253Y-122610490D01*
X163920098Y-87490689D02*
X161215264Y-84785855D01*
X79366970Y-131950900D02*
X78957205Y-132360661D01*
X163773458Y-99429517D02*
X163768609Y-99424668D01*
X163366080Y-107912627D02*
X163368238Y-107899679D01*
X101360254Y-123610488D02*
X98284296Y-123610488D01*
X163674734Y-105878904D02*
X163746839Y-105830834D01*
X98284296Y-123610488D02*
X96794784Y-125100000D01*
X163773458Y-99903933D02*
X163773458Y-99429517D01*
X102360253Y-122610490D02*
X101360254Y-123610488D01*
X161215264Y-84785855D02*
X161215264Y-83756749D01*
X80742696Y-130575172D02*
X79366970Y-131950900D01*
X163533913Y-118222750D02*
X163533914Y-108260853D01*
X111133025Y-98798525D02*
X110880000Y-98545500D01*
%TO.N,/Addr7*%
X97060000Y-125830000D02*
X86746866Y-125830000D01*
X31188042Y-111249526D02*
X31188042Y-94768042D01*
X99350000Y-124320000D02*
X98564042Y-124320000D01*
X162874414Y-105812262D02*
X162882415Y-105756256D01*
X162580738Y-107755908D02*
X162580740Y-107755902D01*
X162882415Y-105756256D02*
X162975855Y-105686176D01*
X106963479Y-122123533D02*
X105476467Y-122123533D01*
X162803046Y-106670517D02*
X162834403Y-106513734D01*
X80066480Y-132240647D02*
X79656714Y-132650411D01*
X152360000Y-98150000D02*
X159267282Y-98150000D01*
X162747925Y-107227176D02*
X162704686Y-107162317D01*
X162731853Y-108310056D02*
X162709113Y-108196357D01*
X109470000Y-121450000D02*
X107637014Y-121450000D01*
X102660000Y-123310000D02*
X101660000Y-124310000D01*
X162819108Y-99031371D02*
X162975855Y-98874624D01*
X31188042Y-94768042D02*
X25000000Y-88580000D01*
X162975855Y-98874624D02*
X162975855Y-98115257D01*
X162625487Y-108046623D02*
X162618210Y-108035709D01*
X162819108Y-99817965D02*
X162819108Y-99031371D01*
X114319011Y-98099011D02*
X122593045Y-98099011D01*
X81711948Y-130864918D02*
X81442207Y-130864918D01*
X71151548Y-141320000D02*
X61258516Y-141320000D01*
X162834403Y-106375186D02*
X162800462Y-106329931D01*
X160515754Y-84046497D02*
X160515754Y-95655156D01*
X162747925Y-107254335D02*
X162747925Y-107227176D01*
X112095489Y-120724511D02*
X110195489Y-120724511D01*
X162834405Y-105852279D02*
X162834411Y-105852273D01*
X61258516Y-141320000D02*
X31188042Y-111249526D01*
X79656714Y-132650411D02*
X79656713Y-132814835D01*
X152161489Y-97951489D02*
X152360000Y-98150000D01*
X162834403Y-106513734D02*
X162834403Y-106375186D01*
X162975855Y-105686176D02*
X162975855Y-99974712D01*
X162800462Y-106329931D02*
X162834404Y-106092333D01*
X150682299Y-73859501D02*
X151449501Y-74626703D01*
X101660000Y-124310000D02*
X99350000Y-124320000D01*
X162618210Y-108035709D02*
X162618212Y-108035697D01*
X162630709Y-108069894D02*
X162623330Y-108059563D01*
X162975855Y-99974712D02*
X162819108Y-99817965D01*
X113445000Y-119375000D02*
X112095489Y-120724511D01*
X162747925Y-108320771D02*
X162731853Y-108310056D01*
X110195489Y-120724511D02*
X109470000Y-121450000D01*
X162834404Y-106092333D02*
X162834405Y-105852279D01*
X162688085Y-107433860D02*
X162747925Y-107254335D01*
X152510000Y-121660000D02*
X152283423Y-121433423D01*
X122740566Y-97951489D02*
X152161489Y-97951489D01*
X152510000Y-121660000D02*
X159107399Y-121660000D01*
X162623330Y-108059563D02*
X162625487Y-108046623D01*
X86746866Y-125830000D02*
X81711948Y-130864918D01*
X160515754Y-95655156D02*
X162970598Y-98110000D01*
X152283423Y-121433423D02*
X113799989Y-121433423D01*
X162618212Y-108035697D02*
X162618204Y-108035684D01*
X113799989Y-121433423D02*
X113191885Y-120825319D01*
X105476467Y-122123533D02*
X104290000Y-123310000D01*
X113490000Y-97270000D02*
X114319011Y-98099011D01*
X162704686Y-107162317D02*
X162747926Y-106946117D01*
X98598514Y-124310000D02*
X98598510Y-124310003D01*
X148620000Y-73310000D02*
X149169501Y-73859501D01*
X162834411Y-105852265D02*
X162874414Y-105812262D01*
X162580738Y-107648554D02*
X162688085Y-107433860D01*
X159107399Y-121660000D02*
X162834402Y-117932997D01*
X162747926Y-106946117D02*
X162747927Y-106725636D01*
X162628453Y-108083432D02*
X162630709Y-108069894D01*
X162747925Y-108464118D02*
X162747925Y-108320771D01*
X162580738Y-107755898D02*
X162580740Y-107755893D01*
X107637014Y-121450000D02*
X106963479Y-122123533D01*
X122593045Y-98099011D02*
X122740566Y-97951489D01*
X98564042Y-124320000D02*
X97150000Y-125734042D01*
X162747927Y-106725636D02*
X162803046Y-106670517D01*
X151449501Y-74980243D02*
X160515754Y-84046497D01*
X162580737Y-107755888D02*
X162598627Y-107702220D01*
X97150000Y-125734042D02*
X97150000Y-125740000D01*
X162709113Y-108196357D02*
X162628453Y-108083432D01*
X151449501Y-74626703D02*
X151449501Y-74980243D01*
X97150000Y-125740000D02*
X97060000Y-125830000D01*
X162834402Y-117932997D02*
X162834403Y-108550598D01*
X104290000Y-123310000D02*
X102660000Y-123310000D01*
X159267282Y-98150000D02*
X159422946Y-97994336D01*
X162618204Y-108035684D02*
X162647468Y-107889364D01*
X162647468Y-107889364D02*
X162580738Y-107755908D01*
X162580740Y-107755902D02*
X162580738Y-107755898D01*
X162834403Y-108550598D02*
X162747925Y-108464118D01*
X79656713Y-132814835D02*
X71151548Y-141320000D01*
X162580740Y-107755893D02*
X162580737Y-107755888D01*
X81442207Y-130864918D02*
X80066480Y-132240647D01*
X162598627Y-107702220D02*
X162580738Y-107648554D01*
X149169501Y-73859501D02*
X150682299Y-73859501D01*
X162834411Y-105852273D02*
X162834411Y-105852265D01*
X162975855Y-98115257D02*
X162970598Y-98110000D01*
%TO.N,/Addr8*%
X160676618Y-107653820D02*
X160877828Y-107653820D01*
X25000000Y-91120000D02*
X30488532Y-96608532D01*
X169200489Y-108327111D02*
X169961478Y-107566122D01*
X149790000Y-106710000D02*
X159732798Y-106710000D01*
X123722529Y-105971957D02*
X149051957Y-105971957D01*
X81731955Y-131564428D02*
X82024870Y-131564428D01*
X104356703Y-130589501D02*
X104396703Y-130629501D01*
X80356224Y-132940159D02*
X81731955Y-131564428D01*
X80356223Y-133233075D02*
X80356224Y-132940159D01*
X30488532Y-111539274D02*
X60999258Y-142050000D01*
X111030000Y-130200000D02*
X111139501Y-130309501D01*
X169182440Y-112979723D02*
X169182440Y-111164535D01*
X30488532Y-96608532D02*
X30488532Y-111539274D01*
X159732798Y-106710000D02*
X160676618Y-107653820D01*
X118429432Y-106750000D02*
X119797459Y-105381973D01*
X169182446Y-112979734D02*
X169182443Y-112979731D01*
X149051957Y-105971957D02*
X149790000Y-106710000D01*
X170010000Y-78242798D02*
X170010000Y-107517600D01*
X159240242Y-130430500D02*
X169182445Y-120488297D01*
X105183297Y-130629501D02*
X105612798Y-130200000D01*
X111139501Y-130309501D02*
X149739001Y-130309501D01*
X169182443Y-112979731D02*
X169182443Y-112979726D01*
X104396703Y-130629501D02*
X105183297Y-130629501D01*
X160946702Y-69179500D02*
X170010000Y-78242798D01*
X105612798Y-130200000D02*
X111030000Y-130200000D01*
X169181486Y-110847201D02*
X169181486Y-110847189D01*
X159383271Y-69179500D02*
X160946702Y-69179500D01*
X149739001Y-130309501D02*
X149860000Y-130430500D01*
X149860000Y-130430500D02*
X159240242Y-130430500D01*
X110820000Y-106750000D02*
X118429432Y-106750000D01*
X169181478Y-111163573D02*
X169181478Y-110847209D01*
X169182445Y-120488297D02*
X169182446Y-112979734D01*
X71539298Y-142050000D02*
X80356223Y-133233075D01*
X170010000Y-107517600D02*
X169961478Y-107566122D01*
X82024870Y-131564428D02*
X82999797Y-130589501D01*
X60999258Y-142050000D02*
X71539298Y-142050000D01*
X123132545Y-105381973D02*
X123722529Y-105971957D01*
X119797459Y-105381973D02*
X123132545Y-105381973D01*
X169182443Y-112979726D02*
X169182440Y-112979723D01*
X169200489Y-110828187D02*
X169200489Y-108327111D01*
X169181478Y-110847209D02*
X169181486Y-110847201D01*
X82999797Y-130589501D02*
X104356703Y-130589501D01*
X169182440Y-111164535D02*
X169181478Y-111163573D01*
X169181486Y-110847189D02*
X169200489Y-110828187D01*
%TO.N,/Addr9*%
X103986955Y-131359011D02*
X103923046Y-131295102D01*
X169881959Y-111531010D02*
X169881962Y-111531007D01*
X147300000Y-131380000D02*
X159280000Y-131380000D01*
X170850980Y-105739496D02*
X170910978Y-105799493D01*
X108370000Y-107616476D02*
X108453025Y-107699501D01*
X108453025Y-107699501D02*
X118469187Y-107699501D01*
X146465835Y-106671468D02*
X147335356Y-107540989D01*
X147186488Y-131266488D02*
X147300000Y-131380000D01*
X103923046Y-131295102D02*
X83283454Y-131295102D01*
X29789021Y-98449021D02*
X25000000Y-93660000D01*
X60730236Y-142780978D02*
X29789021Y-111839763D01*
X82021702Y-132263939D02*
X81055734Y-133229907D01*
X169900000Y-111512965D02*
X169900000Y-109217419D01*
X160673602Y-68196398D02*
X161027140Y-68196398D01*
X169881953Y-112689983D02*
X169881958Y-112110496D01*
X170850980Y-78020238D02*
X170850980Y-105739496D01*
X118469187Y-107699501D02*
X120087209Y-106081479D01*
X147564367Y-107770000D02*
X147335356Y-107540989D01*
X81055733Y-133522823D02*
X71797578Y-142780978D01*
X108330000Y-131310000D02*
X108373512Y-131266488D01*
X83283454Y-131295102D02*
X82314616Y-132263939D01*
X105353043Y-131359012D02*
X103986955Y-131359011D01*
X159420000Y-107740000D02*
X159390000Y-107770000D01*
X108373512Y-131266488D02*
X147186488Y-131266488D01*
X161027140Y-68196398D02*
X170850980Y-78020238D01*
X123432782Y-106671468D02*
X146465835Y-106671468D01*
X122842793Y-106081479D02*
X123432782Y-106671468D01*
X169881962Y-111531007D02*
X169881963Y-111531001D01*
X170910978Y-105799493D02*
X170910978Y-108206441D01*
X105402055Y-131310000D02*
X105353043Y-131359012D01*
X169881957Y-112689987D02*
X169881953Y-112689983D01*
X170910978Y-108206441D02*
X170431971Y-108685448D01*
X169881963Y-111531001D02*
X169900000Y-111512965D01*
X82314616Y-132263939D02*
X82021702Y-132263939D01*
X29789021Y-111839763D02*
X29789021Y-98449021D01*
X169881956Y-120778044D02*
X169881957Y-112689987D01*
X159280000Y-131380000D02*
X169881956Y-120778044D01*
X108330000Y-131310000D02*
X105402055Y-131310000D01*
X169881958Y-112110496D02*
X169881959Y-111531010D01*
X169900000Y-109217419D02*
X170431971Y-108685448D01*
X159390000Y-107770000D02*
X147564367Y-107770000D01*
X71797578Y-142780978D02*
X60730236Y-142780978D01*
X81055734Y-133229907D02*
X81055733Y-133522823D01*
X120087209Y-106081479D02*
X122842793Y-106081479D01*
%TO.N,/Addr10*%
X171280980Y-112110504D02*
X171330978Y-112060507D01*
X81755245Y-133812568D02*
X81755245Y-133519653D01*
X106313297Y-133209001D02*
X102150999Y-133209001D01*
X102150999Y-133209001D02*
X100745000Y-134615000D01*
X159276027Y-64226027D02*
X159143973Y-64226027D01*
X171330978Y-111516225D02*
X171553846Y-111293357D01*
X29089511Y-100289511D02*
X29089511Y-112129511D01*
X172310000Y-110537203D02*
X172310000Y-77260000D01*
X138395489Y-133165489D02*
X159544511Y-133165489D01*
X102094511Y-109265489D02*
X100745000Y-110615000D01*
X171553846Y-111293357D02*
X172310000Y-110537203D01*
X102150000Y-133210000D02*
X102150999Y-133209001D01*
X137200490Y-108070490D02*
X122763288Y-108070490D01*
X83344594Y-133210000D02*
X102150000Y-133210000D01*
X138395489Y-133165489D02*
X106356809Y-133165489D01*
X158083987Y-109265489D02*
X158918498Y-110100000D01*
X60440489Y-143480489D02*
X72087324Y-143480489D01*
X139745000Y-110615000D02*
X137200490Y-108070490D01*
X120666703Y-107480499D02*
X118881713Y-109265489D01*
X171280978Y-121429022D02*
X171280980Y-112110504D01*
X171330978Y-112060507D02*
X171330978Y-111516225D01*
X139745000Y-110615000D02*
X141094511Y-109265489D01*
X122173297Y-107480499D02*
X120666703Y-107480499D01*
X141094511Y-109265489D02*
X158083987Y-109265489D01*
X118881713Y-109265489D02*
X102094511Y-109265489D01*
X25000000Y-96200000D02*
X29089511Y-100289511D01*
X72087324Y-143480489D02*
X81755245Y-133812568D01*
X81755245Y-133519653D02*
X82311449Y-132963449D01*
X122763288Y-108070490D02*
X122173297Y-107480499D01*
X29089511Y-112129511D02*
X60440489Y-143480489D01*
X106356809Y-133165489D02*
X106313297Y-133209001D01*
X139745000Y-134515000D02*
X138395489Y-133165489D01*
X159544511Y-133165489D02*
X171280978Y-121429022D01*
X82311449Y-132963449D02*
X83098043Y-132963449D01*
X172310000Y-77260000D02*
X159276027Y-64226027D01*
X83098043Y-132963449D02*
X83344594Y-133210000D01*
X158918498Y-110100000D02*
X159950000Y-110100000D01*
%TO.N,/Addr11*%
X144876163Y-132215989D02*
X144802152Y-132290000D01*
X60150000Y-144180000D02*
X72540000Y-144180000D01*
X170581469Y-112400247D02*
X170581467Y-112400245D01*
X144241520Y-108490489D02*
X143834711Y-108083680D01*
X170601467Y-110195735D02*
X171153601Y-109643601D01*
X156490000Y-62670000D02*
X156490000Y-62914852D01*
X105780000Y-108300000D02*
X106045978Y-108565978D01*
X28390000Y-102130000D02*
X28390000Y-112420000D01*
X82704746Y-134015254D02*
X82704746Y-133912950D01*
X170581467Y-112400245D02*
X170581469Y-112215276D01*
X84689500Y-132310000D02*
X84624103Y-132244603D01*
X161097511Y-109652955D02*
X160595055Y-109150499D01*
X105950500Y-132290000D02*
X105920000Y-132259500D01*
X170581473Y-111820749D02*
X170601467Y-111800755D01*
X171610489Y-109186713D02*
X171153601Y-109643601D01*
X118591966Y-108565978D02*
X120376955Y-106780989D01*
X159234022Y-132465978D02*
X170581467Y-121118533D01*
X122553045Y-106780989D02*
X123143035Y-107370979D01*
X145126152Y-132465978D02*
X159234022Y-132465978D01*
X170601467Y-111800755D02*
X170601467Y-110195735D01*
X144802152Y-132290000D02*
X105950500Y-132290000D01*
X25000000Y-98740000D02*
X28390000Y-102130000D01*
X158995528Y-65175528D02*
X171610489Y-77790489D01*
X143122010Y-107370979D02*
X143834711Y-108083680D01*
X170581469Y-111820758D02*
X170581473Y-111820754D01*
X105920000Y-132259500D02*
X105869500Y-132310000D01*
X158750676Y-65175528D02*
X158995528Y-65175528D01*
X160595055Y-109150499D02*
X159486703Y-109150499D01*
X170581469Y-112215276D02*
X170581469Y-111820758D01*
X72540000Y-144180000D02*
X82704746Y-134015254D01*
X120376955Y-106780989D02*
X122553045Y-106780989D01*
X170581473Y-111820754D02*
X170581473Y-111820749D01*
X158826693Y-108490489D02*
X144241520Y-108490489D01*
X123143035Y-107370979D02*
X143122010Y-107370979D01*
X105869500Y-132310000D02*
X84689500Y-132310000D01*
X171610489Y-77790489D02*
X171610489Y-109186713D01*
X159486703Y-109150499D02*
X158826693Y-108490489D01*
X170581467Y-121118533D02*
X170581469Y-112400247D01*
X144876163Y-132215989D02*
X145126152Y-132465978D01*
X156490000Y-62914852D02*
X158750676Y-65175528D01*
X28390000Y-112420000D02*
X60150000Y-144180000D01*
X106045978Y-108565978D02*
X118591966Y-108565978D01*
%TO.N,/Addr12*%
X122502299Y-97200499D02*
X153159501Y-97200499D01*
X161961935Y-107309250D02*
X161978114Y-107228358D01*
X161887951Y-108216830D02*
X161880583Y-108206514D01*
X151040000Y-72910000D02*
X151040000Y-63030000D01*
X161825501Y-107809586D02*
X161825498Y-107809580D01*
X161825498Y-107594880D02*
X161965579Y-107314716D01*
X162070200Y-104505427D02*
X162070200Y-104460433D01*
X122303297Y-97399501D02*
X122502299Y-97200499D01*
X82910000Y-134840000D02*
X83520000Y-134840000D01*
X161893083Y-108240693D02*
X161885700Y-108230356D01*
X162069234Y-104518246D02*
X162069415Y-104518065D01*
X162069415Y-104513522D02*
X162069716Y-104513221D01*
X161825499Y-107594884D02*
X161825498Y-107594880D01*
X161908717Y-107995460D02*
X161831838Y-107867328D01*
X161890826Y-108254235D02*
X161893083Y-108240693D01*
X162060000Y-103657649D02*
X162060000Y-99288592D01*
X161880583Y-108206514D02*
X161882737Y-108193592D01*
X159067642Y-120710499D02*
X162069234Y-117708908D01*
X25000000Y-101280000D02*
X27679511Y-103959511D01*
X118009501Y-97399501D02*
X122303297Y-97399501D01*
X159816243Y-97044835D02*
X159816243Y-84336243D01*
X159029649Y-97044835D02*
X158873985Y-97200499D01*
X161875469Y-108182692D02*
X161875477Y-108182654D01*
X161878353Y-108168120D02*
X161870605Y-108155531D01*
X158873985Y-97200499D02*
X153159501Y-97200499D01*
X161875477Y-108182654D02*
X161875453Y-108182618D01*
X162048415Y-106876850D02*
X162048417Y-106435888D01*
X162069234Y-117708908D02*
X162069234Y-108774684D01*
X153549501Y-120710499D02*
X159067642Y-120710499D01*
X161825498Y-107809580D02*
X161825500Y-107809575D01*
X161825501Y-107809562D02*
X161825496Y-107809552D01*
X152116703Y-120710499D02*
X153549501Y-120710499D01*
X72860000Y-144890000D02*
X82910000Y-134840000D01*
X162048414Y-108753864D02*
X162048414Y-108753860D01*
X161870605Y-108155531D02*
X161908717Y-107995460D01*
X161890832Y-108254243D02*
X161890826Y-108254235D01*
X161839348Y-107837288D02*
X161825499Y-107809591D01*
X161833017Y-107786988D02*
X161823649Y-107765128D01*
X162070014Y-104508424D02*
X162070014Y-104508268D01*
X162048414Y-108753860D02*
X162048411Y-108753857D01*
X162073195Y-104457438D02*
X162073195Y-103670844D01*
X162048417Y-106435888D02*
X162069234Y-106415070D01*
X115985000Y-119375000D02*
X117334511Y-120724511D01*
X159816243Y-84336243D02*
X150500000Y-75020000D01*
X162070014Y-104508268D02*
X162070024Y-104508258D01*
X162069234Y-106415070D02*
X162069234Y-104518246D01*
X161965579Y-107314716D02*
X161961935Y-107309250D01*
X162073195Y-103670844D02*
X162060000Y-103657649D01*
X161890830Y-108254255D02*
X161890832Y-108254243D01*
X115985000Y-95375000D02*
X118009501Y-97399501D01*
X161825498Y-107594886D02*
X161825499Y-107594884D01*
X162069836Y-104509791D02*
X162069935Y-104509692D01*
X162070024Y-104505603D02*
X162070200Y-104505427D01*
X161825500Y-107809575D02*
X161825498Y-107809572D01*
X162069716Y-104513221D02*
X162069716Y-104511412D01*
X152102691Y-120724511D02*
X152116703Y-120710499D01*
X162070200Y-104460433D02*
X162073195Y-104457438D01*
X161823649Y-107765128D02*
X161855611Y-107685224D01*
X161882737Y-108193592D02*
X161875469Y-108182692D01*
X162069935Y-104509692D02*
X162069935Y-104508503D01*
X151040000Y-63030000D02*
X148620000Y-60610000D01*
X161885698Y-108230349D02*
X161887951Y-108216830D01*
X161825496Y-107809552D02*
X161833017Y-107786988D01*
X162070024Y-104508258D02*
X162070024Y-104505603D01*
X162069836Y-104511292D02*
X162069836Y-104509791D01*
X27679511Y-112789511D02*
X59780000Y-144890000D01*
X162048411Y-108753857D02*
X162048414Y-108474861D01*
X161978114Y-107228358D02*
X162048415Y-106876850D01*
X161875453Y-108182618D02*
X161878353Y-108168120D01*
X161885701Y-108230353D02*
X161885698Y-108230349D01*
X153549501Y-120710499D02*
X154985000Y-119275000D01*
X117334511Y-120724511D02*
X152102691Y-120724511D01*
X161825499Y-107809591D02*
X161825501Y-107809586D01*
X162069935Y-104508503D02*
X162070014Y-104508424D01*
X162069716Y-104511412D02*
X162069836Y-104511292D01*
X162069415Y-104518065D02*
X162069415Y-104513522D01*
X161825498Y-107809572D02*
X161825501Y-107809562D01*
X159816243Y-97044835D02*
X159029649Y-97044835D01*
X153159501Y-97200499D02*
X154985000Y-95375000D01*
X27679511Y-103959511D02*
X27679511Y-112789511D01*
X161885700Y-108230356D02*
X161885701Y-108230353D01*
X162060000Y-99288592D02*
X159816243Y-97044835D01*
X162048414Y-108474861D02*
X161890830Y-108254255D01*
X161831838Y-107867328D02*
X161839348Y-107837288D01*
X162069234Y-108774684D02*
X162048414Y-108753864D01*
X59780000Y-144890000D02*
X72860000Y-144890000D01*
X161855611Y-107685224D02*
X161825498Y-107594886D01*
%TO.N,/Addr13*%
X169290000Y-106043784D02*
X169060500Y-106273284D01*
X90397863Y-139278022D02*
X90514797Y-139278022D01*
X169060500Y-106273284D02*
X168770489Y-106563295D01*
X94398416Y-139308022D02*
X94508492Y-139197946D01*
X113739500Y-129449500D02*
X152419483Y-129449500D01*
X168430490Y-108170252D02*
X168430490Y-120250995D01*
X113550000Y-105640000D02*
X114507545Y-104682455D01*
X108862054Y-139197946D02*
X113445000Y-134615000D01*
X159231984Y-129449501D02*
X152419483Y-129449500D01*
X160491156Y-106459101D02*
X160984849Y-106459101D01*
X168770489Y-107767855D02*
X168500979Y-108037364D01*
X94508492Y-139197946D02*
X108862054Y-139197946D01*
X152046195Y-105272456D02*
X152534239Y-105760500D01*
X93153800Y-138850000D02*
X93611822Y-139308022D01*
X168770489Y-106563295D02*
X168770489Y-107767855D01*
X158433770Y-67883770D02*
X158433770Y-69572797D01*
X152534239Y-105760500D02*
X159792555Y-105760500D01*
X159792555Y-105760500D02*
X160491156Y-106459101D01*
X168500978Y-108099764D02*
X168430490Y-108170252D01*
X90514797Y-139278022D02*
X90942819Y-138850000D01*
X148620000Y-58070000D02*
X158433770Y-67883770D01*
X84085885Y-145590000D02*
X90397863Y-139278022D01*
X26980000Y-113130000D02*
X59440000Y-145590000D01*
X168430490Y-120250995D02*
X159231984Y-129449501D01*
X124012285Y-105272456D02*
X152046195Y-105272456D01*
X93611822Y-139308022D02*
X94398416Y-139308022D01*
X25000000Y-103820000D02*
X26980000Y-105800000D01*
X114507545Y-104682455D02*
X123422284Y-104682455D01*
X26980000Y-105800000D02*
X26980000Y-113130000D01*
X169290000Y-80429027D02*
X169290000Y-106043784D01*
X168500979Y-108037364D02*
X168500978Y-108099764D01*
X123422284Y-104682455D02*
X124012285Y-105272456D01*
X113650000Y-129360000D02*
X113739500Y-129449500D01*
X90942819Y-138850000D02*
X93153800Y-138850000D01*
X59440000Y-145590000D02*
X84085885Y-145590000D01*
X158433770Y-69572797D02*
X169290000Y-80429027D01*
%TO.N,/Addr14*%
X173020489Y-111200253D02*
X172060489Y-112160253D01*
X151790742Y-55530000D02*
X173020489Y-76759747D01*
X171980489Y-122079511D02*
X154162544Y-139897456D01*
X154162544Y-139897456D02*
X94798240Y-139897456D01*
X93211998Y-139897456D02*
X92847956Y-139897456D01*
X94798240Y-139897456D02*
X94688162Y-140007533D01*
X148620000Y-55530000D02*
X151790742Y-55530000D01*
X173020489Y-76759747D02*
X173020489Y-111200253D01*
X94688162Y-140007533D02*
X93322074Y-140007532D01*
X171980490Y-112400252D02*
X171980489Y-122079511D01*
X172060489Y-112320253D02*
X171980490Y-112400252D01*
X93322074Y-140007532D02*
X93211998Y-139897456D01*
X172060489Y-112160253D02*
X172060489Y-112320253D01*
X92847956Y-139897456D02*
X92750000Y-139799500D01*
%TO.N,/Addr15*%
X154632957Y-140707043D02*
X93415428Y-140707043D01*
X93415428Y-140707043D02*
X93176642Y-140945829D01*
X173910000Y-80260000D02*
X173720000Y-80450000D01*
X150240000Y-52990000D02*
X173910000Y-76660000D01*
X173720000Y-121620000D02*
X154632957Y-140707043D01*
X148620000Y-52990000D02*
X150240000Y-52990000D01*
X173910000Y-76660000D02*
X173910000Y-80260000D01*
X173720000Y-80450000D02*
X173720000Y-121620000D01*
%TO.N,/WE*%
X76530000Y-50770000D02*
X88827202Y-50770000D01*
X88827202Y-50770000D02*
X98647202Y-60590000D01*
X98647202Y-60590000D02*
X99199001Y-60590000D01*
%TO.N,/Data14*%
X94005119Y-138358521D02*
X93755140Y-138108542D01*
X90341479Y-138108542D02*
X90121500Y-138328521D01*
X93755140Y-138108542D02*
X90341479Y-138108542D01*
%TO.N,/Data13*%
X94770348Y-137379021D02*
X88589495Y-137379021D01*
X88209506Y-137759010D02*
X87853932Y-137759010D01*
X95004849Y-137613522D02*
X94770348Y-137379021D01*
X88589495Y-137379021D02*
X88209506Y-137759010D01*
%TO.N,/Data12*%
X86211226Y-136664022D02*
X86049126Y-136501922D01*
X95980118Y-136914011D02*
X95730129Y-136664022D01*
X95730129Y-136664022D02*
X86211226Y-136664022D01*
%TO.N,/Data11*%
X96934511Y-135964511D02*
X86854511Y-135964511D01*
X97100000Y-136130000D02*
X96934511Y-135964511D01*
X86854511Y-135964511D02*
X85505000Y-134615000D01*
%TO.N,/Data10*%
X131599501Y-116553297D02*
X131043297Y-117109501D01*
X131043297Y-115210499D02*
X131599501Y-115766703D01*
X129210499Y-117109501D02*
X127045000Y-119275000D01*
X88045000Y-119375000D02*
X88045000Y-117595000D01*
X123569099Y-116409511D02*
X124768111Y-115210499D01*
X131599501Y-115766703D02*
X131599501Y-116553297D01*
X89230489Y-116409511D02*
X123569099Y-116409511D01*
X131043297Y-117109501D02*
X129210499Y-117109501D01*
X88045000Y-117595000D02*
X89230489Y-116409511D01*
X124768111Y-115210499D02*
X131043297Y-115210499D01*
%TO.N,/Data9*%
X89832796Y-117150000D02*
X89254101Y-117728695D01*
X92860000Y-117510000D02*
X92500000Y-117150000D01*
X92500000Y-117150000D02*
X89832796Y-117150000D01*
%TO.N,/Data6*%
X92120000Y-114390500D02*
X91840000Y-114670500D01*
X94470224Y-114390500D02*
X92120000Y-114390500D01*
%TO.N,/Data5*%
X93986927Y-113530999D02*
X94076927Y-113440999D01*
X88639001Y-113530999D02*
X93986927Y-113530999D01*
X88060000Y-114110000D02*
X88639001Y-113530999D01*
X95340999Y-113440999D02*
X95880000Y-113980000D01*
X94076927Y-113440999D02*
X95340999Y-113440999D01*
%TO.N,/Data4*%
X85828512Y-112831488D02*
X85230000Y-113430000D01*
X93787179Y-112741489D02*
X93697180Y-112831488D01*
X96870000Y-113280000D02*
X96331489Y-112741489D01*
X93697180Y-112831488D02*
X85828512Y-112831488D01*
X96331489Y-112741489D02*
X93787179Y-112741489D01*
%TO.N,/Data3*%
X86931978Y-112041978D02*
X97341978Y-112041978D01*
X85505000Y-110615000D02*
X86931978Y-112041978D01*
X97341978Y-112041978D02*
X97930000Y-112630000D01*
%TO.N,/Data2*%
X91920000Y-93470000D02*
X92010000Y-93380000D01*
X119810000Y-93600000D02*
X120070000Y-93860000D01*
X116810000Y-93600000D02*
X119810000Y-93600000D01*
X89950000Y-93470000D02*
X91920000Y-93470000D01*
X88045000Y-95375000D02*
X89950000Y-93470000D01*
%TO.N,/Data1*%
X89799956Y-92062000D02*
X91662290Y-92062000D01*
X88535978Y-93325978D02*
X89799956Y-92062000D01*
X117097836Y-92435544D02*
X117322989Y-92660697D01*
X117322989Y-92660697D02*
X120048094Y-92660697D01*
%TO.N,/Data0*%
X119235580Y-91236698D02*
X119562682Y-91563800D01*
X117058159Y-91236698D02*
X119235580Y-91236698D01*
%TO.N,Net-(U1-Pad3)*%
X96200000Y-67375000D02*
X94850489Y-68724511D01*
X94850489Y-68724511D02*
X94850489Y-75553987D01*
X94850489Y-75553987D02*
X96200000Y-76903498D01*
X96200000Y-76903498D02*
X96200000Y-77535000D01*
%TO.N,Net-(U1-Pad4)*%
X112200000Y-77535000D02*
X120465490Y-85800490D01*
X125000000Y-86000000D02*
X127000000Y-84000000D01*
X127000000Y-74920000D02*
X129200000Y-72720000D01*
X120465490Y-85800490D02*
X121289748Y-85800490D01*
X127000000Y-84000000D02*
X127000000Y-74920000D01*
X121289748Y-85800490D02*
X121489258Y-86000000D01*
X121489258Y-86000000D02*
X125000000Y-86000000D01*
%TO.N,/~{WE}*%
X43837202Y-24000000D02*
X68843796Y-24000000D01*
X113549511Y-66025489D02*
X118470489Y-70946467D01*
X35471502Y-23000000D02*
X37261013Y-21210489D01*
X41047691Y-21210489D02*
X43837202Y-24000000D01*
X109800000Y-64956204D02*
X109800000Y-65000000D01*
X109800000Y-65000000D02*
X110825489Y-66025489D01*
X31549511Y-50225489D02*
X30200000Y-51575000D01*
X31549511Y-23909511D02*
X31549511Y-50225489D01*
X34000000Y-23000000D02*
X35471502Y-23000000D01*
X68843796Y-24000000D02*
X109800000Y-64956204D01*
X31549511Y-50225489D02*
X33000000Y-51675978D01*
X110825489Y-66025489D02*
X113549511Y-66025489D01*
X118470489Y-81265489D02*
X119820000Y-82615000D01*
X37261013Y-21210489D02*
X41047691Y-21210489D01*
X30200000Y-22560000D02*
X31549511Y-23909511D01*
X118470489Y-70946467D02*
X118470489Y-81265489D01*
X33000000Y-51675978D02*
X33000000Y-75000000D01*
%TO.N,Net-(U1-Pad11)*%
X125000000Y-69300000D02*
X129200000Y-65100000D01*
X125000000Y-71000000D02*
X125000000Y-69300000D01*
X121005000Y-74995000D02*
X123000000Y-73000000D01*
X119820000Y-74995000D02*
X121005000Y-74995000D01*
%TO.N,/SUP*%
X49500000Y-92500000D02*
X49500000Y-30000000D01*
X49500000Y-30000000D02*
X52000000Y-27500000D01*
X71042798Y-27500000D02*
X107957301Y-64414503D01*
X107957301Y-64414503D02*
X107957301Y-64484602D01*
X38000000Y-109500000D02*
X39000000Y-108500000D01*
X39000000Y-103000000D02*
X49500000Y-92500000D01*
X52000000Y-27500000D02*
X71042798Y-27500000D01*
X39000000Y-108500000D02*
X39000000Y-103000000D01*
%TO.N,/WE_RAM*%
X140907220Y-113310000D02*
X123240000Y-113310000D01*
X121650000Y-111240000D02*
X121650000Y-108560000D01*
X121910000Y-96450000D02*
X121910000Y-90850000D01*
X121910000Y-90850000D02*
X119930000Y-88870000D01*
X121650000Y-108560000D02*
X121780000Y-108430000D01*
X92900489Y-72234242D02*
X92850500Y-72184253D01*
X119930000Y-88870000D02*
X94960000Y-88870000D01*
X92900489Y-86810489D02*
X92900489Y-72234242D01*
X143046231Y-115449011D02*
X140907220Y-113310000D01*
X94960000Y-88870000D02*
X92900489Y-86810489D01*
X154030000Y-113740000D02*
X152320989Y-115449011D01*
X152320989Y-115449011D02*
X143046231Y-115449011D01*
%TO.N,/RE_RAM*%
X157500000Y-128500000D02*
X146000000Y-128500000D01*
X125500000Y-91000000D02*
X146091712Y-91000000D01*
X94500000Y-81900000D02*
X94500000Y-84500000D01*
X145170000Y-113500000D02*
X150000000Y-113500000D01*
X96800000Y-57000000D02*
X96600000Y-57200000D01*
X121000000Y-86500000D02*
X125500000Y-91000000D01*
X146091712Y-91000000D02*
X146183423Y-91091711D01*
X94500000Y-84500000D02*
X96500000Y-86500000D01*
X153500000Y-117000000D02*
X160500000Y-117000000D01*
X93800000Y-81200000D02*
X93800000Y-60800000D01*
X104800000Y-55000000D02*
X102000000Y-55000000D01*
X161500000Y-94500000D02*
X161500000Y-92000000D01*
X142285000Y-110615000D02*
X145170000Y-113500000D01*
X94500000Y-81775000D02*
X96200000Y-80075000D01*
X96500000Y-86500000D02*
X121000000Y-86500000D01*
X94500000Y-81900000D02*
X93800000Y-81200000D01*
X94500000Y-81900000D02*
X94500000Y-81775000D01*
X99200000Y-57000000D02*
X96800000Y-57000000D01*
%TO.N,/RE_ROM*%
X106200000Y-80235000D02*
X103820000Y-82615000D01*
X108400000Y-66600000D02*
X106200000Y-68800000D01*
X106200000Y-68800000D02*
X106200000Y-80235000D01*
X103285000Y-110615000D02*
X98190000Y-115710000D01*
X112199999Y-46999999D02*
X112199999Y-62745576D01*
X81700000Y-121220000D02*
X81880000Y-121400000D01*
X84310000Y-115710000D02*
X84290000Y-115710000D01*
X111400000Y-46200000D02*
X112199999Y-46999999D01*
X81765000Y-118235000D02*
X81765000Y-93055000D01*
X81765000Y-93055000D02*
X83530000Y-91290000D01*
X81700000Y-118300000D02*
X81700000Y-121220000D01*
X81765000Y-118235000D02*
X81700000Y-118300000D01*
X112199999Y-62745576D02*
X110559374Y-64386201D01*
X98190000Y-115710000D02*
X84310000Y-115710000D01*
X88580000Y-128160000D02*
X88590000Y-128160000D01*
X84290000Y-115710000D02*
X81765000Y-118235000D01*
X88590000Y-128160000D02*
X90110000Y-129680000D01*
X90110000Y-129680000D02*
X104790000Y-129680000D01*
%TO.N,Net-(U2-Pad11)*%
X105169511Y-73645489D02*
X105169511Y-63769511D01*
X105169511Y-63769511D02*
X99800000Y-58400000D01*
X103820000Y-74995000D02*
X105169511Y-73645489D01*
%TD*%
M02*
