%TF.GenerationSoftware,KiCad,Pcbnew,6.0.1-79c1e3a40b~116~ubuntu21.10.1*%
%TF.CreationDate,2022-02-14T17:54:14+01:00*%
%TF.ProjectId,memory,6d656d6f-7279-42e6-9b69-6361645f7063,v.3*%
%TF.SameCoordinates,Original*%
%TF.FileFunction,Copper,L1,Top*%
%TF.FilePolarity,Positive*%
%FSLAX46Y46*%
G04 Gerber Fmt 4.6, Leading zero omitted, Abs format (unit mm)*
G04 Created by KiCad (PCBNEW 6.0.1-79c1e3a40b~116~ubuntu21.10.1) date 2022-02-14 17:54:14*
%MOMM*%
%LPD*%
G01*
G04 APERTURE LIST*
%TA.AperFunction,ComponentPad*%
%ADD10R,1.600000X1.600000*%
%TD*%
%TA.AperFunction,ComponentPad*%
%ADD11O,1.600000X1.600000*%
%TD*%
%TA.AperFunction,ComponentPad*%
%ADD12C,1.600000*%
%TD*%
%TA.AperFunction,ComponentPad*%
%ADD13R,1.800000X1.800000*%
%TD*%
%TA.AperFunction,ComponentPad*%
%ADD14C,1.800000*%
%TD*%
%TA.AperFunction,ComponentPad*%
%ADD15R,1.700000X1.700000*%
%TD*%
%TA.AperFunction,ComponentPad*%
%ADD16O,1.700000X1.700000*%
%TD*%
%TA.AperFunction,ComponentPad*%
%ADD17C,2.000000*%
%TD*%
%TA.AperFunction,ViaPad*%
%ADD18C,0.800000*%
%TD*%
%TA.AperFunction,Conductor*%
%ADD19C,0.600000*%
%TD*%
%TA.AperFunction,Conductor*%
%ADD20C,0.300000*%
%TD*%
%TA.AperFunction,Conductor*%
%ADD21C,0.250000*%
%TD*%
G04 APERTURE END LIST*
D10*
%TO.P,U9,1,A14*%
%TO.N,GND*%
X118525000Y-95375000D03*
D11*
%TO.P,U9,2,A12*%
%TO.N,/Addr12*%
X115985000Y-95375000D03*
%TO.P,U9,3,A7*%
%TO.N,/Addr7*%
X113445000Y-95375000D03*
%TO.P,U9,4,A6*%
%TO.N,/Addr6*%
X110905000Y-95375000D03*
%TO.P,U9,5,A5*%
%TO.N,/Addr5*%
X108365000Y-95375000D03*
%TO.P,U9,6,A4*%
%TO.N,/Addr4*%
X105825000Y-95375000D03*
%TO.P,U9,7,A3*%
%TO.N,/Addr3*%
X103285000Y-95375000D03*
%TO.P,U9,8,A2*%
%TO.N,/Addr2*%
X100745000Y-95375000D03*
%TO.P,U9,9,A1*%
%TO.N,/Addr1*%
X98205000Y-95375000D03*
%TO.P,U9,10,A0*%
%TO.N,/Addr0*%
X95665000Y-95375000D03*
%TO.P,U9,11,D0*%
%TO.N,/Data0*%
X93125000Y-95375000D03*
%TO.P,U9,12,D1*%
%TO.N,/Data1*%
X90585000Y-95375000D03*
%TO.P,U9,13,D2*%
%TO.N,/Data2*%
X88045000Y-95375000D03*
%TO.P,U9,14,GND*%
%TO.N,GND*%
X85505000Y-95375000D03*
%TO.P,U9,15,D3*%
%TO.N,/Data3*%
X85505000Y-110615000D03*
%TO.P,U9,16,D4*%
%TO.N,/Data4*%
X88045000Y-110615000D03*
%TO.P,U9,17,D5*%
%TO.N,/Data5*%
X90585000Y-110615000D03*
%TO.P,U9,18,D6*%
%TO.N,/Data6*%
X93125000Y-110615000D03*
%TO.P,U9,19,D7*%
%TO.N,/Data7*%
X95665000Y-110615000D03*
%TO.P,U9,20,~{CS}*%
%TO.N,GND*%
X98205000Y-110615000D03*
%TO.P,U9,21,A10*%
%TO.N,/Addr10*%
X100745000Y-110615000D03*
%TO.P,U9,22,~{OE}*%
%TO.N,/RE_ROM*%
X103285000Y-110615000D03*
%TO.P,U9,23,A11*%
%TO.N,/Addr11*%
X105825000Y-110615000D03*
%TO.P,U9,24,A9*%
%TO.N,/Addr9*%
X108365000Y-110615000D03*
%TO.P,U9,25,A8*%
%TO.N,/Addr8*%
X110905000Y-110615000D03*
%TO.P,U9,26,A13*%
%TO.N,/Addr13*%
X113445000Y-110615000D03*
%TO.P,U9,27,~{WE}*%
%TO.N,+5V*%
X115985000Y-110615000D03*
%TO.P,U9,28,VCC*%
X118525000Y-110615000D03*
%TD*%
D10*
%TO.P,U10,1,A14*%
%TO.N,GND*%
X157525000Y-95375000D03*
D11*
%TO.P,U10,2,A12*%
%TO.N,/Addr12*%
X154985000Y-95375000D03*
%TO.P,U10,3,A7*%
%TO.N,/Addr7*%
X152445000Y-95375000D03*
%TO.P,U10,4,A6*%
%TO.N,/Addr6*%
X149905000Y-95375000D03*
%TO.P,U10,5,A5*%
%TO.N,/Addr5*%
X147365000Y-95375000D03*
%TO.P,U10,6,A4*%
%TO.N,/Addr4*%
X144825000Y-95375000D03*
%TO.P,U10,7,A3*%
%TO.N,/Addr3*%
X142285000Y-95375000D03*
%TO.P,U10,8,A2*%
%TO.N,/Addr2*%
X139745000Y-95375000D03*
%TO.P,U10,9,A1*%
%TO.N,/Addr1*%
X137205000Y-95375000D03*
%TO.P,U10,10,A0*%
%TO.N,/Addr0*%
X134665000Y-95375000D03*
%TO.P,U10,11,DQ0*%
%TO.N,/Data0*%
X132125000Y-95375000D03*
%TO.P,U10,12,DQ1*%
%TO.N,/Data1*%
X129585000Y-95375000D03*
%TO.P,U10,13,DQ2*%
%TO.N,/Data2*%
X127045000Y-95375000D03*
%TO.P,U10,14,Vss*%
%TO.N,GND*%
X124505000Y-95375000D03*
%TO.P,U10,15,DQ3*%
%TO.N,/Data3*%
X124505000Y-110615000D03*
%TO.P,U10,16,DQ4*%
%TO.N,/Data4*%
X127045000Y-110615000D03*
%TO.P,U10,17,DQ5*%
%TO.N,/Data5*%
X129585000Y-110615000D03*
%TO.P,U10,18,DQ6*%
%TO.N,/Data6*%
X132125000Y-110615000D03*
%TO.P,U10,19,DQ7*%
%TO.N,/Data7*%
X134665000Y-110615000D03*
%TO.P,U10,20,~{CE}*%
%TO.N,GND*%
X137205000Y-110615000D03*
%TO.P,U10,21,A10*%
%TO.N,/Addr10*%
X139745000Y-110615000D03*
%TO.P,U10,22,~{OE}*%
%TO.N,/RE_RAM*%
X142285000Y-110615000D03*
%TO.P,U10,23,A11*%
%TO.N,/Addr11*%
X144825000Y-110615000D03*
%TO.P,U10,24,A9*%
%TO.N,/Addr9*%
X147365000Y-110615000D03*
%TO.P,U10,25,A8*%
%TO.N,/Addr8*%
X149905000Y-110615000D03*
%TO.P,U10,26,A13*%
%TO.N,/Addr13*%
X152445000Y-110615000D03*
%TO.P,U10,27,~{WE}*%
%TO.N,/WE_RAM*%
X154985000Y-110615000D03*
%TO.P,U10,28,Vcc*%
%TO.N,+5V*%
X157525000Y-110615000D03*
%TD*%
D12*
%TO.P,R2,1*%
%TO.N,/RE_ROM*%
X111400000Y-46200000D03*
D11*
%TO.P,R2,2*%
%TO.N,Net-(D2-Pad2)*%
X113940000Y-46200000D03*
%TD*%
D10*
%TO.P,U3,1,E*%
%TO.N,Net-(U1-Pad11)*%
X129200000Y-65100000D03*
D11*
%TO.P,U3,2,A0*%
%TO.N,/Addr1*%
X129200000Y-67640000D03*
%TO.P,U3,3,A1*%
%TO.N,/Addr0*%
X129200000Y-70180000D03*
%TO.P,U3,4,O0*%
%TO.N,Net-(U1-Pad4)*%
X129200000Y-72720000D03*
%TO.P,U3,5,O1*%
%TO.N,Net-(U1-Pad1)*%
X129200000Y-75260000D03*
%TO.P,U3,6,O2*%
%TO.N,unconnected-(U3-Pad6)*%
X129200000Y-77800000D03*
%TO.P,U3,7,O3*%
%TO.N,unconnected-(U3-Pad7)*%
X129200000Y-80340000D03*
%TO.P,U3,8,GND*%
%TO.N,GND*%
X129200000Y-82880000D03*
%TO.P,U3,9*%
%TO.N,N/C*%
X136820000Y-82880000D03*
%TO.P,U3,10*%
X136820000Y-80340000D03*
%TO.P,U3,11*%
X136820000Y-77800000D03*
%TO.P,U3,12*%
X136820000Y-75260000D03*
%TO.P,U3,13*%
X136820000Y-72720000D03*
%TO.P,U3,14*%
X136820000Y-70180000D03*
%TO.P,U3,15*%
X136820000Y-67640000D03*
%TO.P,U3,16,VCC*%
%TO.N,+5V*%
X136820000Y-65100000D03*
%TD*%
D13*
%TO.P,D1,1,K*%
%TO.N,GND*%
X107275000Y-38200000D03*
D14*
%TO.P,D1,2,A*%
%TO.N,Net-(D1-Pad2)*%
X104735000Y-38200000D03*
%TD*%
D12*
%TO.P,R1,1*%
%TO.N,Net-(U2-Pad11)*%
X104600000Y-46200000D03*
D11*
%TO.P,R1,2*%
%TO.N,Net-(D1-Pad2)*%
X107140000Y-46200000D03*
%TD*%
D13*
%TO.P,D3,1,K*%
%TO.N,GND*%
X120750000Y-38200000D03*
D14*
%TO.P,D3,2,A*%
%TO.N,Net-(D3-Pad2)*%
X118210000Y-38200000D03*
%TD*%
D15*
%TO.P,J4,1,Pin_1*%
%TO.N,/Data15*%
X68400000Y-134050000D03*
D16*
%TO.P,J4,2,Pin_2*%
%TO.N,/Data14*%
X68400000Y-131510000D03*
%TO.P,J4,3,Pin_3*%
%TO.N,/Data13*%
X68400000Y-128970000D03*
%TO.P,J4,4,Pin_4*%
%TO.N,/Data12*%
X68400000Y-126430000D03*
%TO.P,J4,5,Pin_5*%
%TO.N,/Data11*%
X68400000Y-123890000D03*
%TO.P,J4,6,Pin_6*%
%TO.N,/Data10*%
X68400000Y-121350000D03*
%TO.P,J4,7,Pin_7*%
%TO.N,/Data9*%
X68400000Y-118810000D03*
%TO.P,J4,8,Pin_8*%
%TO.N,/Data8*%
X68400000Y-116270000D03*
%TO.P,J4,9,Pin_9*%
%TO.N,/Data7*%
X68400000Y-113730000D03*
%TO.P,J4,10,Pin_10*%
%TO.N,/Data6*%
X68400000Y-111190000D03*
%TO.P,J4,11,Pin_11*%
%TO.N,/Data5*%
X68400000Y-108650000D03*
%TO.P,J4,12,Pin_12*%
%TO.N,/Data4*%
X68400000Y-106110000D03*
%TO.P,J4,13,Pin_13*%
%TO.N,/Data3*%
X68400000Y-103570000D03*
%TO.P,J4,14,Pin_14*%
%TO.N,/Data2*%
X68400000Y-101030000D03*
%TO.P,J4,15,Pin_15*%
%TO.N,/Data1*%
X68400000Y-98490000D03*
%TO.P,J4,16,Pin_16*%
%TO.N,/Data0*%
X68400000Y-95950000D03*
%TD*%
D12*
%TO.P,R3,1*%
%TO.N,/RE_RAM*%
X118000000Y-46200000D03*
D11*
%TO.P,R3,2*%
%TO.N,Net-(D3-Pad2)*%
X120540000Y-46200000D03*
%TD*%
D13*
%TO.P,D2,1,K*%
%TO.N,GND*%
X114000000Y-38200000D03*
D14*
%TO.P,D2,2,A*%
%TO.N,Net-(D2-Pad2)*%
X111460000Y-38200000D03*
%TD*%
D17*
%TO.P,C1,1*%
%TO.N,+5V*%
X43000000Y-55700000D03*
%TO.P,C1,2*%
%TO.N,GND*%
X43000000Y-50700000D03*
%TD*%
D15*
%TO.P,J3,1,Pin_1*%
%TO.N,/Addr0*%
X148620000Y-91090000D03*
D16*
%TO.P,J3,2,Pin_2*%
%TO.N,/Addr1*%
X148620000Y-88550000D03*
%TO.P,J3,3,Pin_3*%
%TO.N,/Addr2*%
X148620000Y-86010000D03*
%TO.P,J3,4,Pin_4*%
%TO.N,/Addr3*%
X148620000Y-83470000D03*
%TO.P,J3,5,Pin_5*%
%TO.N,/Addr4*%
X148620000Y-80930000D03*
%TO.P,J3,6,Pin_6*%
%TO.N,/Addr5*%
X148620000Y-78390000D03*
%TO.P,J3,7,Pin_7*%
%TO.N,/Addr6*%
X148620000Y-75850000D03*
%TO.P,J3,8,Pin_8*%
%TO.N,/Addr7*%
X148620000Y-73310000D03*
%TO.P,J3,9,Pin_9*%
%TO.N,/Addr8*%
X148620000Y-70770000D03*
%TO.P,J3,10,Pin_10*%
%TO.N,/Addr9*%
X148620000Y-68230000D03*
%TO.P,J3,11,Pin_11*%
%TO.N,/Addr10*%
X148620000Y-65690000D03*
%TO.P,J3,12,Pin_12*%
%TO.N,/Addr11*%
X148620000Y-63150000D03*
%TO.P,J3,13,Pin_13*%
%TO.N,/Addr12*%
X148620000Y-60610000D03*
%TO.P,J3,14,Pin_14*%
%TO.N,/Addr13*%
X148620000Y-58070000D03*
%TO.P,J3,15,Pin_15*%
%TO.N,/Addr14*%
X148620000Y-55530000D03*
%TO.P,J3,16,Pin_16*%
%TO.N,/Addr15*%
X148620000Y-52990000D03*
%TD*%
D10*
%TO.P,U2,1*%
%TO.N,Net-(U1-Pad3)*%
X96200000Y-67375000D03*
D11*
%TO.P,U2,2*%
%TO.N,/WE_F*%
X96200000Y-69915000D03*
%TO.P,U2,3*%
%TO.N,/WE_RAM*%
X96200000Y-72455000D03*
%TO.P,U2,4*%
%TO.N,/RE*%
X96200000Y-74995000D03*
%TO.P,U2,5*%
%TO.N,Net-(U1-Pad3)*%
X96200000Y-77535000D03*
%TO.P,U2,6*%
%TO.N,/RE_RAM*%
X96200000Y-80075000D03*
%TO.P,U2,7,GND*%
%TO.N,+5V*%
X96200000Y-82615000D03*
%TO.P,U2,8*%
%TO.N,/RE_ROM*%
X103820000Y-82615000D03*
%TO.P,U2,9*%
%TO.N,/RE*%
X103820000Y-80075000D03*
%TO.P,U2,10*%
%TO.N,Net-(U1-Pad6)*%
X103820000Y-77535000D03*
%TO.P,U2,11*%
%TO.N,Net-(U2-Pad11)*%
X103820000Y-74995000D03*
%TO.P,U2,12*%
%TO.N,Net-(U1-Pad3)*%
X103820000Y-72455000D03*
%TO.P,U2,13*%
%TO.N,/WE*%
X103820000Y-69915000D03*
%TO.P,U2,14,VCC*%
%TO.N,GND*%
X103820000Y-67375000D03*
%TD*%
D10*
%TO.P,U12,1,A14*%
%TO.N,GND*%
X157525000Y-119275000D03*
D11*
%TO.P,U12,2,A12*%
%TO.N,/Addr12*%
X154985000Y-119275000D03*
%TO.P,U12,3,A7*%
%TO.N,/Addr7*%
X152445000Y-119275000D03*
%TO.P,U12,4,A6*%
%TO.N,/Addr6*%
X149905000Y-119275000D03*
%TO.P,U12,5,A5*%
%TO.N,/Addr5*%
X147365000Y-119275000D03*
%TO.P,U12,6,A4*%
%TO.N,/Addr4*%
X144825000Y-119275000D03*
%TO.P,U12,7,A3*%
%TO.N,/Addr3*%
X142285000Y-119275000D03*
%TO.P,U12,8,A2*%
%TO.N,/Addr2*%
X139745000Y-119275000D03*
%TO.P,U12,9,A1*%
%TO.N,/Addr1*%
X137205000Y-119275000D03*
%TO.P,U12,10,A0*%
%TO.N,/Addr0*%
X134665000Y-119275000D03*
%TO.P,U12,11,DQ0*%
%TO.N,/Data8*%
X132125000Y-119275000D03*
%TO.P,U12,12,DQ1*%
%TO.N,/Data9*%
X129585000Y-119275000D03*
%TO.P,U12,13,DQ2*%
%TO.N,/Data10*%
X127045000Y-119275000D03*
%TO.P,U12,14,Vss*%
%TO.N,GND*%
X124505000Y-119275000D03*
%TO.P,U12,15,DQ3*%
%TO.N,/Data11*%
X124505000Y-134515000D03*
%TO.P,U12,16,DQ4*%
%TO.N,/Data12*%
X127045000Y-134515000D03*
%TO.P,U12,17,DQ5*%
%TO.N,/Data13*%
X129585000Y-134515000D03*
%TO.P,U12,18,DQ6*%
%TO.N,/Data14*%
X132125000Y-134515000D03*
%TO.P,U12,19,DQ7*%
%TO.N,/Data15*%
X134665000Y-134515000D03*
%TO.P,U12,20,~{CE}*%
%TO.N,GND*%
X137205000Y-134515000D03*
%TO.P,U12,21,A10*%
%TO.N,/Addr10*%
X139745000Y-134515000D03*
%TO.P,U12,22,~{OE}*%
%TO.N,/RE_RAM*%
X142285000Y-134515000D03*
%TO.P,U12,23,A11*%
%TO.N,/Addr11*%
X144825000Y-134515000D03*
%TO.P,U12,24,A9*%
%TO.N,/Addr9*%
X147365000Y-134515000D03*
%TO.P,U12,25,A8*%
%TO.N,/Addr8*%
X149905000Y-134515000D03*
%TO.P,U12,26,A13*%
%TO.N,/Addr13*%
X152445000Y-134515000D03*
%TO.P,U12,27,~{WE}*%
%TO.N,/WE_RAM*%
X154985000Y-134515000D03*
%TO.P,U12,28,Vcc*%
%TO.N,+5V*%
X157525000Y-134515000D03*
%TD*%
D15*
%TO.P,J2,1,Pin_1*%
%TO.N,/WE*%
X76530000Y-50770000D03*
D16*
%TO.P,J2,2,Pin_2*%
%TO.N,/RE*%
X76530000Y-53310000D03*
%TD*%
D17*
%TO.P,C2,1*%
%TO.N,+5V*%
X140500000Y-142800000D03*
%TO.P,C2,2*%
%TO.N,GND*%
X145500000Y-142800000D03*
%TD*%
%TO.P,C3,1*%
%TO.N,+5V*%
X131100000Y-88000000D03*
%TO.P,C3,2*%
%TO.N,GND*%
X136100000Y-88000000D03*
%TD*%
D15*
%TO.P,J1,1,GND*%
%TO.N,GND*%
X25000000Y-20000000D03*
D16*
%TO.P,J1,2,Vcc*%
%TO.N,+5V*%
X25000000Y-22540000D03*
%TO.P,J1,3,CLK_R*%
%TO.N,/CLK_R*%
X25000000Y-25080000D03*
%TO.P,J1,4,CLK_F*%
%TO.N,unconnected-(J1-Pad4)*%
X25000000Y-27620000D03*
%TO.P,J1,5,BUS1:0*%
%TO.N,/Bus_D0*%
X25000000Y-30160000D03*
%TO.P,J1,6,BUS1:1*%
%TO.N,/Bus_D1*%
X25000000Y-32700000D03*
%TO.P,J1,7,BUS1:2*%
%TO.N,/Bus_D2*%
X25000000Y-35240000D03*
%TO.P,J1,8,BUS1:3*%
%TO.N,/Bus_D3*%
X25000000Y-37780000D03*
%TO.P,J1,9,BUS1:4*%
%TO.N,/Bus_D4*%
X25000000Y-40320000D03*
%TO.P,J1,10,BUS1:5*%
%TO.N,/Bus_D5*%
X25000000Y-42860000D03*
%TO.P,J1,11,BUS1:6*%
%TO.N,/Bus_D6*%
X25000000Y-45400000D03*
%TO.P,J1,12,BUS1:7*%
%TO.N,/Bus_D7*%
X25000000Y-47940000D03*
%TO.P,J1,13,BUS1:8*%
%TO.N,/Bus_D8*%
X25000000Y-50480000D03*
%TO.P,J1,14,BUS1:9*%
%TO.N,/Bus_D9*%
X25000000Y-53020000D03*
%TO.P,J1,15,BUS1:A*%
%TO.N,/Bus_D10*%
X25000000Y-55560000D03*
%TO.P,J1,16,BUS1:B*%
%TO.N,/Bus_D11*%
X25000000Y-58100000D03*
%TO.P,J1,17,BUS1:C*%
%TO.N,/Bus_D12*%
X25000000Y-60640000D03*
%TO.P,J1,18,BUS1:D*%
%TO.N,/Bus_D13*%
X25000000Y-63180000D03*
%TO.P,J1,19,BUS1:E*%
%TO.N,/Bus_D14*%
X25000000Y-65720000D03*
%TO.P,J1,20,BUS1:F*%
%TO.N,/Bus_D15*%
X25000000Y-68260000D03*
%TO.P,J1,21,BUS2:0*%
%TO.N,/Addr0*%
X25000000Y-70800000D03*
%TO.P,J1,22,BUS2:1*%
%TO.N,/Addr1*%
X25000000Y-73340000D03*
%TO.P,J1,23,BUS2:2*%
%TO.N,/Addr2*%
X25000000Y-75880000D03*
%TO.P,J1,24,BUS2:3*%
%TO.N,/Addr3*%
X25000000Y-78420000D03*
%TO.P,J1,25,BUS2:4*%
%TO.N,/Addr4*%
X25000000Y-80960000D03*
%TO.P,J1,26,BUS2:5*%
%TO.N,/Addr5*%
X25000000Y-83500000D03*
%TO.P,J1,27,BUS2:6*%
%TO.N,/Addr6*%
X25000000Y-86040000D03*
%TO.P,J1,28,BUS2:7*%
%TO.N,/Addr7*%
X25000000Y-88580000D03*
%TO.P,J1,29,BUS2:8*%
%TO.N,/Addr8*%
X25000000Y-91120000D03*
%TO.P,J1,30,BUS2:9*%
%TO.N,/Addr9*%
X25000000Y-93660000D03*
%TO.P,J1,31,BUS2:A*%
%TO.N,/Addr10*%
X25000000Y-96200000D03*
%TO.P,J1,32,BUS2:B*%
%TO.N,/Addr11*%
X25000000Y-98740000D03*
%TO.P,J1,33,BUS2:C*%
%TO.N,/Addr12*%
X25000000Y-101280000D03*
%TO.P,J1,34,BUS2:D*%
%TO.N,/Addr13*%
X25000000Y-103820000D03*
%TO.P,J1,35,BUS2:E*%
%TO.N,/Addr14*%
X25000000Y-106360000D03*
%TO.P,J1,36,BUS2:F*%
%TO.N,/Addr15*%
X25000000Y-108900000D03*
%TO.P,J1,37*%
%TO.N,N/C*%
X25000000Y-111440000D03*
%TO.P,J1,38*%
X25000000Y-113980000D03*
%TO.P,J1,39*%
X25000000Y-116520000D03*
%TO.P,J1,40*%
X25000000Y-119060000D03*
%TO.P,J1,41*%
X25000000Y-121600000D03*
%TO.P,J1,42*%
X25000000Y-124140000D03*
%TO.P,J1,43*%
X25000000Y-126680000D03*
%TO.P,J1,44*%
X25000000Y-129220000D03*
%TO.P,J1,45*%
X25000000Y-131760000D03*
%TO.P,J1,46*%
X25000000Y-134300000D03*
%TO.P,J1,47*%
X25000000Y-136840000D03*
%TO.P,J1,48*%
X25000000Y-139380000D03*
%TO.P,J1,49*%
X25000000Y-141920000D03*
%TO.P,J1,50*%
X25000000Y-144460000D03*
%TO.P,J1,51*%
X25000000Y-147000000D03*
%TO.P,J1,52*%
X25000000Y-149540000D03*
%TO.P,J1,53*%
X25000000Y-152080000D03*
%TO.P,J1,54*%
X25000000Y-154620000D03*
%TO.P,J1,55*%
X25000000Y-157160000D03*
%TO.P,J1,56*%
X25000000Y-159700000D03*
%TO.P,J1,57*%
X25000000Y-162240000D03*
%TO.P,J1,58*%
X25000000Y-164780000D03*
%TO.P,J1,59*%
X25000000Y-167320000D03*
%TO.P,J1,60*%
X25000000Y-169860000D03*
%TO.P,J1,61*%
X25000000Y-172400000D03*
%TO.P,J1,62*%
X25000000Y-174940000D03*
%TO.P,J1,63*%
X25000000Y-177480000D03*
%TO.P,J1,64*%
X25000000Y-180020000D03*
%TO.P,J1,65,Sup*%
%TO.N,/SUP*%
X25000000Y-182560000D03*
%TO.P,J1,66,Set_Sup*%
%TO.N,unconnected-(J1-Pad66)*%
X25000000Y-185100000D03*
%TO.P,J1,67,Reset_Sup*%
%TO.N,unconnected-(J1-Pad67)*%
X25000000Y-187640000D03*
%TO.P,J1,68*%
%TO.N,N/C*%
X25000000Y-190180000D03*
%TO.P,J1,69*%
X25000000Y-192720000D03*
%TO.P,J1,70*%
X25000000Y-195260000D03*
%TO.P,J1,71*%
X25000000Y-197800000D03*
%TO.P,J1,72*%
X25000000Y-200340000D03*
%TO.P,J1,73*%
X25000000Y-202880000D03*
%TO.P,J1,74*%
X25000000Y-205420000D03*
%TO.P,J1,75*%
X25000000Y-207960000D03*
%TO.P,J1,76*%
X25000000Y-210500000D03*
%TO.P,J1,77*%
X25000000Y-213040000D03*
%TO.P,J1,78*%
X25000000Y-215580000D03*
%TD*%
D10*
%TO.P,U1,1*%
%TO.N,Net-(U1-Pad1)*%
X112200000Y-67375000D03*
D11*
%TO.P,U1,2*%
X112200000Y-69915000D03*
%TO.P,U1,3*%
%TO.N,Net-(U1-Pad3)*%
X112200000Y-72455000D03*
%TO.P,U1,4*%
%TO.N,Net-(U1-Pad4)*%
X112200000Y-74995000D03*
%TO.P,U1,5*%
X112200000Y-77535000D03*
%TO.P,U1,6*%
%TO.N,Net-(U1-Pad6)*%
X112200000Y-80075000D03*
%TO.P,U1,7,GND*%
%TO.N,GND*%
X112200000Y-82615000D03*
%TO.P,U1,8*%
%TO.N,/~{WE}*%
X119820000Y-82615000D03*
%TO.P,U1,9*%
%TO.N,/WE*%
X119820000Y-80075000D03*
%TO.P,U1,10*%
X119820000Y-77535000D03*
%TO.P,U1,11*%
%TO.N,Net-(U1-Pad11)*%
X119820000Y-74995000D03*
%TO.P,U1,12*%
%TO.N,/SUP*%
X119820000Y-72455000D03*
%TO.P,U1,13*%
X119820000Y-69915000D03*
%TO.P,U1,14,VCC*%
%TO.N,+5V*%
X119820000Y-67375000D03*
%TD*%
D10*
%TO.P,U11,1,A14*%
%TO.N,GND*%
X118525000Y-119375000D03*
D11*
%TO.P,U11,2,A12*%
%TO.N,/Addr12*%
X115985000Y-119375000D03*
%TO.P,U11,3,A7*%
%TO.N,/Addr7*%
X113445000Y-119375000D03*
%TO.P,U11,4,A6*%
%TO.N,/Addr6*%
X110905000Y-119375000D03*
%TO.P,U11,5,A5*%
%TO.N,/Addr5*%
X108365000Y-119375000D03*
%TO.P,U11,6,A4*%
%TO.N,/Addr4*%
X105825000Y-119375000D03*
%TO.P,U11,7,A3*%
%TO.N,/Addr3*%
X103285000Y-119375000D03*
%TO.P,U11,8,A2*%
%TO.N,/Addr2*%
X100745000Y-119375000D03*
%TO.P,U11,9,A1*%
%TO.N,/Addr1*%
X98205000Y-119375000D03*
%TO.P,U11,10,A0*%
%TO.N,/Addr0*%
X95665000Y-119375000D03*
%TO.P,U11,11,D0*%
%TO.N,/Data8*%
X93125000Y-119375000D03*
%TO.P,U11,12,D1*%
%TO.N,/Data9*%
X90585000Y-119375000D03*
%TO.P,U11,13,D2*%
%TO.N,/Data10*%
X88045000Y-119375000D03*
%TO.P,U11,14,GND*%
%TO.N,GND*%
X85505000Y-119375000D03*
%TO.P,U11,15,D3*%
%TO.N,/Data11*%
X85505000Y-134615000D03*
%TO.P,U11,16,D4*%
%TO.N,/Data12*%
X88045000Y-134615000D03*
%TO.P,U11,17,D5*%
%TO.N,/Data13*%
X90585000Y-134615000D03*
%TO.P,U11,18,D6*%
%TO.N,/Data14*%
X93125000Y-134615000D03*
%TO.P,U11,19,D7*%
%TO.N,/Data15*%
X95665000Y-134615000D03*
%TO.P,U11,20,~{CS}*%
%TO.N,GND*%
X98205000Y-134615000D03*
%TO.P,U11,21,A10*%
%TO.N,/Addr10*%
X100745000Y-134615000D03*
%TO.P,U11,22,~{OE}*%
%TO.N,/RE_ROM*%
X103285000Y-134615000D03*
%TO.P,U11,23,A11*%
%TO.N,/Addr11*%
X105825000Y-134615000D03*
%TO.P,U11,24,A9*%
%TO.N,/Addr9*%
X108365000Y-134615000D03*
%TO.P,U11,25,A8*%
%TO.N,/Addr8*%
X110905000Y-134615000D03*
%TO.P,U11,26,A13*%
%TO.N,/Addr13*%
X113445000Y-134615000D03*
%TO.P,U11,27,~{WE}*%
%TO.N,+5V*%
X115985000Y-134615000D03*
%TO.P,U11,28,VCC*%
X118525000Y-134615000D03*
%TD*%
D10*
%TO.P,U5,1,~{OE}*%
%TO.N,/~{WE}*%
X30200000Y-22560000D03*
D11*
%TO.P,U5,2,1D*%
%TO.N,/Bus_D0*%
X30200000Y-25100000D03*
%TO.P,U5,3,2D*%
%TO.N,/Bus_D1*%
X30200000Y-27640000D03*
%TO.P,U5,4,3D*%
%TO.N,/Bus_D2*%
X30200000Y-30180000D03*
%TO.P,U5,5,4D*%
%TO.N,/Bus_D3*%
X30200000Y-32720000D03*
%TO.P,U5,6,5D*%
%TO.N,/Bus_D4*%
X30200000Y-35260000D03*
%TO.P,U5,7,6D*%
%TO.N,/Bus_D5*%
X30200000Y-37800000D03*
%TO.P,U5,8,7D*%
%TO.N,/Bus_D6*%
X30200000Y-40340000D03*
%TO.P,U5,9,8D*%
%TO.N,/Bus_D7*%
X30200000Y-42880000D03*
%TO.P,U5,10,GND*%
%TO.N,GND*%
X30200000Y-45420000D03*
%TO.P,U5,11,LE*%
%TO.N,/CLK_R*%
X37820000Y-45420000D03*
%TO.P,U5,12,8Q*%
%TO.N,/Data7*%
X37820000Y-42880000D03*
%TO.P,U5,13,7Q*%
%TO.N,/Data6*%
X37820000Y-40340000D03*
%TO.P,U5,14,6Q*%
%TO.N,/Data5*%
X37820000Y-37800000D03*
%TO.P,U5,15,5Q*%
%TO.N,/Data4*%
X37820000Y-35260000D03*
%TO.P,U5,16,4Q*%
%TO.N,/Data3*%
X37820000Y-32720000D03*
%TO.P,U5,17,3Q*%
%TO.N,/Data2*%
X37820000Y-30180000D03*
%TO.P,U5,18,2Q*%
%TO.N,/Data1*%
X37820000Y-27640000D03*
%TO.P,U5,19,1Q*%
%TO.N,/Data0*%
X37820000Y-25100000D03*
%TO.P,U5,20,VCC*%
%TO.N,+5V*%
X37820000Y-22560000D03*
%TD*%
D10*
%TO.P,U6,1,~{OE}*%
%TO.N,/~{WE}*%
X30200000Y-51575000D03*
D11*
%TO.P,U6,2,1D*%
%TO.N,/Bus_D8*%
X30200000Y-54115000D03*
%TO.P,U6,3,2D*%
%TO.N,/Bus_D9*%
X30200000Y-56655000D03*
%TO.P,U6,4,3D*%
%TO.N,/Bus_D10*%
X30200000Y-59195000D03*
%TO.P,U6,5,4D*%
%TO.N,/Bus_D11*%
X30200000Y-61735000D03*
%TO.P,U6,6,5D*%
%TO.N,/Bus_D12*%
X30200000Y-64275000D03*
%TO.P,U6,7,6D*%
%TO.N,/Bus_D13*%
X30200000Y-66815000D03*
%TO.P,U6,8,7D*%
%TO.N,/Bus_D14*%
X30200000Y-69355000D03*
%TO.P,U6,9,8D*%
%TO.N,/Bus_D15*%
X30200000Y-71895000D03*
%TO.P,U6,10,GND*%
%TO.N,GND*%
X30200000Y-74435000D03*
%TO.P,U6,11,LE*%
%TO.N,/CLK_R*%
X37820000Y-74435000D03*
%TO.P,U6,12,8Q*%
%TO.N,/Data15*%
X37820000Y-71895000D03*
%TO.P,U6,13,7Q*%
%TO.N,/Data14*%
X37820000Y-69355000D03*
%TO.P,U6,14,6Q*%
%TO.N,/Data13*%
X37820000Y-66815000D03*
%TO.P,U6,15,5Q*%
%TO.N,/Data12*%
X37820000Y-64275000D03*
%TO.P,U6,16,4Q*%
%TO.N,/Data11*%
X37820000Y-61735000D03*
%TO.P,U6,17,3Q*%
%TO.N,/Data10*%
X37820000Y-59195000D03*
%TO.P,U6,18,2Q*%
%TO.N,/Data9*%
X37820000Y-56655000D03*
%TO.P,U6,19,1Q*%
%TO.N,/Data8*%
X37820000Y-54115000D03*
%TO.P,U6,20,VCC*%
%TO.N,+5V*%
X37820000Y-51575000D03*
%TD*%
D15*
%TO.P,U4,1*%
%TO.N,N/C*%
X63500000Y-30000000D03*
D16*
%TO.P,U4,2*%
X63500000Y-32540000D03*
%TO.P,U4,3*%
X63500000Y-35080000D03*
%TO.P,U4,4*%
X63500000Y-37620000D03*
%TO.P,U4,5*%
X63500000Y-40160000D03*
%TO.P,U4,6*%
X63500000Y-42700000D03*
%TO.P,U4,7,WE_R*%
%TO.N,unconnected-(U4-Pad7)*%
X63500000Y-45240000D03*
%TO.P,U4,8,WE_F*%
%TO.N,/WE_F*%
X63500000Y-47780000D03*
%TO.P,U4,9,WE*%
%TO.N,/WE*%
X63500000Y-50320000D03*
%TO.P,U4,10,RE*%
%TO.N,/RE*%
X63500000Y-52860000D03*
%TO.P,U4,11*%
%TO.N,N/C*%
X63500000Y-55400000D03*
%TO.P,U4,12*%
X63500000Y-57940000D03*
%TO.P,U4,13*%
X63500000Y-60480000D03*
%TO.P,U4,14*%
X63500000Y-63020000D03*
%TO.P,U4,15*%
X63500000Y-65560000D03*
%TO.P,U4,16*%
X63500000Y-68100000D03*
%TO.P,U4,17*%
X63500000Y-70640000D03*
%TO.P,U4,18*%
X63500000Y-73180000D03*
%TO.P,U4,19*%
X63500000Y-75720000D03*
%TO.P,U4,20*%
X63500000Y-78260000D03*
%TO.P,U4,21*%
X63500000Y-80800000D03*
%TO.P,U4,22*%
X63500000Y-83340000D03*
%TO.P,U4,23*%
X63500000Y-85880000D03*
%TO.P,U4,24*%
X63500000Y-88420000D03*
%TO.P,U4,25*%
X63500000Y-90960000D03*
%TO.P,U4,26*%
X63500000Y-93500000D03*
%TO.P,U4,27,to_Bus0*%
%TO.N,/Data0*%
X63500000Y-96040000D03*
%TO.P,U4,28,to_Bus1*%
%TO.N,/Data1*%
X63500000Y-98580000D03*
%TO.P,U4,29,to_Bus2*%
%TO.N,/Data2*%
X63500000Y-101120000D03*
%TO.P,U4,30,to_Bus3*%
%TO.N,/Data3*%
X63500000Y-103660000D03*
%TO.P,U4,31,to_Bus4*%
%TO.N,/Data4*%
X63500000Y-106200000D03*
%TO.P,U4,32,to_Bus5*%
%TO.N,/Data5*%
X63500000Y-108740000D03*
%TO.P,U4,33,to_Bus6*%
%TO.N,/Data6*%
X63500000Y-111280000D03*
%TO.P,U4,34,to_Bus7*%
%TO.N,/Data7*%
X63500000Y-113820000D03*
%TO.P,U4,35,to_Bus8*%
%TO.N,/Data8*%
X63500000Y-116360000D03*
%TO.P,U4,36,to_Bus9*%
%TO.N,/Data9*%
X63500000Y-118900000D03*
%TO.P,U4,37,to_Bus10*%
%TO.N,/Data10*%
X63500000Y-121440000D03*
%TO.P,U4,38,to_Bus11*%
%TO.N,/Data11*%
X63500000Y-123980000D03*
%TO.P,U4,39,to_Bus12*%
%TO.N,/Data12*%
X63500000Y-126520000D03*
%TO.P,U4,40,to_Bus13*%
%TO.N,/Data13*%
X63500000Y-129060000D03*
%TO.P,U4,41,to_Bus14*%
%TO.N,/Data14*%
X63500000Y-131600000D03*
%TO.P,U4,42,to_Bus15*%
%TO.N,/Data15*%
X63500000Y-134140000D03*
%TD*%
D18*
%TO.N,GND*%
X79530000Y-46350000D03*
X38000000Y-49200000D03*
X43050000Y-21870000D03*
X79530000Y-42930978D03*
X79630000Y-49580000D03*
X94991101Y-128730500D03*
X79770000Y-52010000D03*
X108680000Y-78590000D03*
X108710000Y-76630000D03*
X32650000Y-43220000D03*
X93270000Y-127060000D03*
X80400000Y-39200000D03*
%TO.N,+5V*%
X134611175Y-112213597D03*
X122600000Y-61550000D03*
X98490000Y-64090000D03*
X121410000Y-119770000D03*
X130650000Y-116160000D03*
%TO.N,/CLK_R*%
X35000000Y-42000000D03*
%TO.N,unconnected-(J1-Pad4)*%
X34147096Y-21809551D03*
%TO.N,/Addr0*%
X96266547Y-127320351D03*
X168340500Y-105265318D03*
X95597464Y-103912536D03*
X134760000Y-104020000D03*
X161048967Y-105261314D03*
X134280000Y-126840000D03*
X166070000Y-83320000D03*
%TO.N,/Addr1*%
X137190000Y-103070500D03*
X137036166Y-126600500D03*
X164719952Y-81963565D03*
X98681148Y-125601648D03*
X161123694Y-104064141D03*
X167640989Y-104218332D03*
X98230000Y-102970500D03*
%TO.N,/Addr2*%
X100769307Y-125349500D03*
X139511860Y-125770500D03*
X158890000Y-102680500D03*
X162754542Y-80985458D03*
X100710000Y-102160500D03*
X166941478Y-103159032D03*
X139679916Y-102020500D03*
%TO.N,/Addr3*%
X103085636Y-124259500D03*
X142380000Y-124920500D03*
X160910000Y-79990000D03*
X103340000Y-101070000D03*
X166140500Y-102239216D03*
X142560578Y-101250500D03*
X160020000Y-102100000D03*
%TO.N,/Addr4*%
X165431035Y-101272021D03*
X144898972Y-124110500D03*
X160890000Y-101160000D03*
X105682290Y-123558752D03*
X158350000Y-78410000D03*
X105920000Y-100250000D03*
X144669848Y-100450500D03*
%TO.N,/Addr5*%
X108438540Y-122704257D03*
X147480000Y-123410500D03*
X164696340Y-100323849D03*
X108380000Y-99320000D03*
X147312332Y-99600500D03*
X155540656Y-76739344D03*
X160624795Y-99990183D03*
%TO.N,/Addr6*%
X110790000Y-121882945D03*
X149880000Y-122710989D03*
X152981027Y-75168973D03*
X163768609Y-99424668D03*
X160268951Y-98844678D03*
X149910000Y-99130000D03*
X110880000Y-98545500D03*
%TO.N,/Addr7*%
X159422946Y-97994336D03*
X113490000Y-97270000D03*
X113191885Y-120825319D03*
X152360000Y-98150000D03*
X162970598Y-98110000D03*
X152510000Y-121660000D03*
%TO.N,/Addr8*%
X149860000Y-130430500D03*
X169961478Y-107566122D03*
X160877828Y-107653820D03*
X149790000Y-106710000D03*
X110820000Y-106750000D03*
X111030000Y-130200000D03*
X159383271Y-69179500D03*
%TO.N,/Addr9*%
X160673602Y-68196398D03*
X147300000Y-131380000D03*
X170431971Y-108685448D03*
X108370000Y-107616476D03*
X108330000Y-131310000D03*
X159420000Y-107740000D03*
X147335356Y-107540989D03*
%TO.N,/Addr10*%
X159950000Y-110100000D03*
X171553846Y-111293357D03*
X159143973Y-64226027D03*
%TO.N,/Addr11*%
X84624103Y-132244603D03*
X105780000Y-108300000D03*
X105920000Y-132259500D03*
X144876163Y-132215989D03*
X156490000Y-62670000D03*
X171153601Y-109643601D03*
X143834711Y-108083680D03*
X161097511Y-109652955D03*
X82704746Y-133912950D03*
%TO.N,/Addr12*%
X150500000Y-75020000D03*
X151040000Y-72910000D03*
X83520000Y-134840000D03*
%TO.N,/Addr13*%
X160984849Y-106459101D03*
X113550000Y-105640000D03*
X169060500Y-106273284D03*
X152534239Y-105760500D03*
X152419483Y-129449500D03*
X113650000Y-129360000D03*
%TO.N,/Addr14*%
X92750000Y-139799500D03*
%TO.N,/Addr15*%
X93176642Y-140945829D03*
%TO.N,/WE*%
X99199001Y-60590000D03*
%TO.N,/Data14*%
X90121500Y-138328521D03*
X94005119Y-138358521D03*
%TO.N,/Data13*%
X87853932Y-137759010D03*
X95004849Y-137613522D03*
%TO.N,/Data12*%
X95980118Y-136914011D03*
X86049126Y-136501922D03*
%TO.N,/Data11*%
X97100000Y-136130000D03*
%TO.N,/Data9*%
X92860000Y-117510000D03*
X89254101Y-117728695D03*
%TO.N,/Data6*%
X91840000Y-114670500D03*
X94470224Y-114390500D03*
%TO.N,/Data5*%
X95880000Y-113980000D03*
X88060000Y-114110000D03*
%TO.N,/Data4*%
X96870000Y-113280000D03*
X85230000Y-113430000D03*
%TO.N,/Data3*%
X97930000Y-112630000D03*
%TO.N,/Data2*%
X120070000Y-93860000D03*
X116810000Y-93600000D03*
X92010000Y-93380000D03*
%TO.N,/Data1*%
X88535978Y-93325978D03*
X91662290Y-92062000D03*
X120048094Y-92660697D03*
X117097836Y-92435544D03*
%TO.N,/Data0*%
X117058159Y-91236698D03*
X119562682Y-91563800D03*
%TO.N,/~{WE}*%
X34000000Y-23000000D03*
%TO.N,Net-(U1-Pad11)*%
X125000000Y-71000000D03*
X123000000Y-73000000D03*
%TO.N,/SUP*%
X38000000Y-109500000D03*
X107957301Y-64484602D03*
%TO.N,/WE_RAM*%
X121650000Y-111240000D03*
X121910000Y-96450000D03*
X92850500Y-72184253D03*
X123240000Y-113310000D03*
X154030000Y-113740000D03*
X121780000Y-108430000D03*
%TO.N,/RE_RAM*%
X153500000Y-117000000D03*
X160500000Y-117000000D03*
X96600000Y-57200000D03*
X161500000Y-94500000D03*
X99200000Y-57000000D03*
X102000000Y-55000000D03*
X157500000Y-128500000D03*
X104800000Y-55000000D03*
X93800000Y-60800000D03*
X161500000Y-92000000D03*
X146183423Y-91091711D03*
X150000000Y-113500000D03*
X146000000Y-128500000D03*
%TO.N,/RE_ROM*%
X110559374Y-64386201D03*
X104790000Y-129680000D03*
X88580000Y-128160000D03*
X83530000Y-91290000D03*
X108400000Y-66600000D03*
X81880000Y-121400000D03*
%TO.N,Net-(U2-Pad11)*%
X99800000Y-58400000D03*
%TD*%
D19*
%TO.N,GND*%
X118463181Y-89001819D02*
X118525000Y-88940000D01*
X112400489Y-36600489D02*
X119150489Y-36600489D01*
X122525429Y-95290499D02*
X121504571Y-95290499D01*
X107275000Y-38200000D02*
X108874511Y-36600489D01*
X119424999Y-118475001D02*
X118525000Y-119375000D01*
X30200000Y-74435000D02*
X31699511Y-72935489D01*
X137205000Y-107995000D02*
X137205000Y-110615000D01*
X123705001Y-118475001D02*
X119424999Y-118475001D01*
X103490000Y-105290000D02*
X95420000Y-105290000D01*
X108520000Y-105270000D02*
X103550000Y-105270000D01*
X144980000Y-126740000D02*
X151280000Y-126740000D01*
X32650000Y-43850000D02*
X38000000Y-49200000D01*
X126010000Y-107130000D02*
X124505000Y-105625000D01*
X31699511Y-44170489D02*
X32650000Y-43220000D01*
X118525000Y-120775000D02*
X118525000Y-119375000D01*
X110759501Y-128540499D02*
X118525000Y-120775000D01*
X31699511Y-72935489D02*
X31699511Y-46919511D01*
X104234571Y-128540499D02*
X110759501Y-128540499D01*
X95740601Y-129480000D02*
X94991101Y-128730500D01*
X118525000Y-99645000D02*
X114145000Y-99645000D01*
X112200000Y-82615000D02*
X108680000Y-79095000D01*
X108710000Y-72265000D02*
X103820000Y-67375000D01*
X124505000Y-121815000D02*
X137205000Y-134515000D01*
X43050000Y-21870000D02*
X58469022Y-21870000D01*
X108874511Y-36600489D02*
X112400489Y-36600489D01*
X124505000Y-97270070D02*
X122525429Y-95290499D01*
X82999511Y-36600489D02*
X80400000Y-39200000D01*
X85505000Y-119375000D02*
X93190000Y-127060000D01*
X149249511Y-103650489D02*
X141979511Y-103650489D01*
X31699511Y-46919511D02*
X31699511Y-44170489D01*
X118463181Y-95313181D02*
X118463181Y-89001819D01*
X118525000Y-88940000D02*
X124585000Y-82880000D01*
X118525000Y-88940000D02*
X112200000Y-82615000D01*
X150364511Y-112114511D02*
X157525000Y-119275000D01*
X93190000Y-127060000D02*
X93270000Y-127060000D01*
X79770000Y-49720000D02*
X79630000Y-49580000D01*
X137205000Y-134515000D02*
X144980000Y-126740000D01*
X95420000Y-105290000D02*
X85505000Y-95375000D01*
X31699511Y-46919511D02*
X30200000Y-45420000D01*
X124505000Y-105625000D02*
X124505000Y-97270070D01*
X140096527Y-144800000D02*
X143500000Y-144800000D01*
X151280000Y-126740000D02*
X157525000Y-120495000D01*
X157525000Y-95375000D02*
X149249511Y-103650489D01*
X141979511Y-103650489D02*
X138500000Y-107130000D01*
X58469022Y-21870000D02*
X79530000Y-42930978D01*
X138500000Y-107130000D02*
X126010000Y-107130000D01*
X118525000Y-98270070D02*
X118525000Y-99645000D01*
X32650000Y-43220000D02*
X32650000Y-43850000D01*
X137205000Y-141908473D02*
X140096527Y-144800000D01*
X103340000Y-129480000D02*
X95740601Y-129480000D01*
X124505000Y-119275000D02*
X124505000Y-121815000D01*
X79770000Y-52010000D02*
X79770000Y-49720000D01*
X124505000Y-119275000D02*
X123705001Y-118475001D01*
X79530000Y-42930978D02*
X79530000Y-46350000D01*
X119150489Y-36600489D02*
X120750000Y-38200000D01*
X103570499Y-129249501D02*
X103570499Y-129204571D01*
X108680000Y-79095000D02*
X108680000Y-78590000D01*
X143500000Y-144800000D02*
X145500000Y-142800000D01*
X136100000Y-88000000D02*
X134320000Y-88000000D01*
X138070000Y-107130000D02*
X137205000Y-107995000D01*
X124505000Y-105625000D02*
X124505000Y-95375000D01*
X112400489Y-36600489D02*
X114000000Y-38200000D01*
X121504571Y-95290499D02*
X118525000Y-98270070D01*
X108874511Y-36600489D02*
X82999511Y-36600489D01*
X103340000Y-129480000D02*
X103570499Y-129249501D01*
X114145000Y-99645000D02*
X108520000Y-105270000D01*
X98205000Y-134615000D02*
X103340000Y-129480000D01*
X103385000Y-105435000D02*
X98205000Y-110615000D01*
X134320000Y-88000000D02*
X129200000Y-82880000D01*
X118525000Y-95375000D02*
X118463181Y-95313181D01*
X137205000Y-110615000D02*
X138704511Y-112114511D01*
X108710000Y-76630000D02*
X108710000Y-72265000D01*
X103570499Y-129204571D02*
X104234571Y-128540499D01*
X103550000Y-105270000D02*
X103385000Y-105435000D01*
X118525000Y-99645000D02*
X118525000Y-95375000D01*
X138500000Y-107130000D02*
X138070000Y-107130000D01*
X137205000Y-134515000D02*
X137205000Y-141908473D01*
X157525000Y-120495000D02*
X157525000Y-119275000D01*
X124585000Y-82880000D02*
X129200000Y-82880000D01*
X138704511Y-112114511D02*
X150364511Y-112114511D01*
%TO.N,+5V*%
X133270000Y-61550000D02*
X136820000Y-65100000D01*
X38255429Y-47900499D02*
X39099501Y-48744571D01*
X131100000Y-88000000D02*
X134560411Y-91460411D01*
X36320489Y-46041119D02*
X38179869Y-47900499D01*
X100447500Y-62132500D02*
X114577500Y-62132500D01*
X156025489Y-136014511D02*
X147285489Y-136014511D01*
X118525000Y-134615000D02*
X118525000Y-122655000D01*
X34543201Y-19661469D02*
X36320489Y-21438757D01*
X171930000Y-112640000D02*
X171930000Y-120110000D01*
X28147885Y-19661469D02*
X34543201Y-19661469D01*
X99037570Y-62132500D02*
X114577500Y-62132500D01*
X115985000Y-134615000D02*
X118525000Y-134615000D01*
X114577500Y-62132500D02*
X119820000Y-67375000D01*
X38179869Y-47900499D02*
X38255429Y-47900499D01*
X25269354Y-22540000D02*
X28147885Y-19661469D01*
X172950000Y-111620000D02*
X172950000Y-103260000D01*
X25000000Y-22540000D02*
X25269354Y-22540000D01*
X134560411Y-91460411D02*
X144490000Y-91460411D01*
X146618611Y-93589022D02*
X144490000Y-91460411D01*
X122600000Y-61550000D02*
X133270000Y-61550000D01*
X157525000Y-134515000D02*
X156025489Y-136014511D01*
X39099501Y-50295499D02*
X37820000Y-51575000D01*
X36320489Y-24059511D02*
X36320489Y-46041119D01*
X171930000Y-120110000D02*
X157525000Y-134515000D01*
X41945000Y-55700000D02*
X43000000Y-55700000D01*
X34543201Y-19661469D02*
X59306539Y-19661469D01*
X144490000Y-91460411D02*
X144490000Y-72770000D01*
X150860900Y-93349511D02*
X150621389Y-93589022D01*
X36320489Y-21438757D02*
X36320489Y-24059511D01*
X147285489Y-136014511D02*
X140500000Y-142800000D01*
X98099501Y-61194431D02*
X99037570Y-62132500D01*
X171930000Y-112640000D02*
X172950000Y-111620000D01*
X39099501Y-48744571D02*
X39099501Y-50295499D01*
X159550000Y-112640000D02*
X171930000Y-112640000D01*
X172950000Y-103260000D02*
X163039511Y-93349511D01*
X98099501Y-54834431D02*
X98099501Y-61194431D01*
X118525000Y-122655000D02*
X121410000Y-119770000D01*
X150621389Y-93589022D02*
X146618611Y-93589022D01*
X37820000Y-22560000D02*
X36320489Y-24059511D01*
X37820000Y-51575000D02*
X41945000Y-55700000D01*
X130650000Y-116160000D02*
X130664772Y-116160000D01*
X79944571Y-40299501D02*
X83564571Y-40299501D01*
X157525000Y-110615000D02*
X159550000Y-112640000D01*
X163039511Y-93349511D02*
X150860900Y-93349511D01*
X130664772Y-116160000D02*
X134611175Y-112213597D01*
X98490000Y-64090000D02*
X100447500Y-62132500D01*
X59306539Y-19661469D02*
X79944571Y-40299501D01*
X144490000Y-72770000D02*
X136820000Y-65100000D01*
X83564571Y-40299501D02*
X98099501Y-54834431D01*
D20*
%TO.N,/CLK_R*%
X35096597Y-21416254D02*
X35096597Y-41903403D01*
X35096597Y-41903403D02*
X35000000Y-42000000D01*
X34191321Y-20510978D02*
X35096597Y-21416254D01*
X28560743Y-20510978D02*
X34191321Y-20510978D01*
X27300490Y-21771230D02*
X28560743Y-20510978D01*
X27300489Y-22779511D02*
X27300490Y-21771230D01*
X25000000Y-25080000D02*
X27300489Y-22779511D01*
%TO.N,unconnected-(J1-Pad4)*%
X25000000Y-27620000D02*
X28000000Y-24620000D01*
X33548034Y-21210489D02*
X34147096Y-21809551D01*
X28850489Y-21210489D02*
X33548034Y-21210489D01*
X28000000Y-24620000D02*
X28000000Y-22060978D01*
X28000000Y-22060978D02*
X28850489Y-21210489D01*
%TO.N,/Bus_D0*%
X25000000Y-30160000D02*
X30060000Y-25100000D01*
X30060000Y-25100000D02*
X30200000Y-25100000D01*
%TO.N,/Bus_D1*%
X30060000Y-27640000D02*
X30200000Y-27640000D01*
X25000000Y-32700000D02*
X30060000Y-27640000D01*
%TO.N,/Bus_D2*%
X30060000Y-30180000D02*
X30200000Y-30180000D01*
X25000000Y-35240000D02*
X30060000Y-30180000D01*
%TO.N,/Bus_D3*%
X25000000Y-37780000D02*
X30060000Y-32720000D01*
X30060000Y-32720000D02*
X30200000Y-32720000D01*
%TO.N,/Bus_D4*%
X25000000Y-40320000D02*
X30060000Y-35260000D01*
X30060000Y-35260000D02*
X30200000Y-35260000D01*
%TO.N,/Bus_D5*%
X25000000Y-42860000D02*
X30060000Y-37800000D01*
X30060000Y-37800000D02*
X30200000Y-37800000D01*
%TO.N,/Bus_D6*%
X30060000Y-40340000D02*
X30200000Y-40340000D01*
X25000000Y-45400000D02*
X30060000Y-40340000D01*
%TO.N,/Bus_D7*%
X25000000Y-47940000D02*
X30060000Y-42880000D01*
X30060000Y-42880000D02*
X30200000Y-42880000D01*
%TO.N,/Bus_D8*%
X30200000Y-54115000D02*
X28635000Y-54115000D01*
X28635000Y-54115000D02*
X25000000Y-50480000D01*
D21*
X25165000Y-50315000D02*
X25000000Y-50480000D01*
D20*
%TO.N,/Bus_D9*%
X30200000Y-56655000D02*
X28635000Y-56655000D01*
D21*
X25165000Y-52855000D02*
X25000000Y-53020000D01*
D20*
X28635000Y-56655000D02*
X25000000Y-53020000D01*
%TO.N,/Bus_D10*%
X28635000Y-59195000D02*
X25000000Y-55560000D01*
X30200000Y-59195000D02*
X28635000Y-59195000D01*
D21*
X25165000Y-55395000D02*
X25000000Y-55560000D01*
D20*
%TO.N,/Bus_D11*%
X30200000Y-61735000D02*
X28635000Y-61735000D01*
X28635000Y-61735000D02*
X25000000Y-58100000D01*
%TO.N,/Bus_D12*%
X28635000Y-64275000D02*
X25000000Y-60640000D01*
X30200000Y-64275000D02*
X28635000Y-64275000D01*
D21*
X25165000Y-60475000D02*
X25000000Y-60640000D01*
D20*
%TO.N,/Bus_D13*%
X28635000Y-66815000D02*
X25000000Y-63180000D01*
X30200000Y-66815000D02*
X28635000Y-66815000D01*
%TO.N,/Bus_D14*%
X25000000Y-65720000D02*
X28680000Y-69400000D01*
X30155000Y-69400000D02*
X30200000Y-69355000D01*
X28680000Y-69400000D02*
X30155000Y-69400000D01*
%TO.N,/Bus_D15*%
X28635000Y-71895000D02*
X30200000Y-71895000D01*
X25000000Y-68260000D02*
X28635000Y-71895000D01*
%TO.N,/Addr0*%
X168340500Y-105265318D02*
X168175818Y-105430000D01*
X134665000Y-103925000D02*
X134665000Y-95375000D01*
X95665000Y-95375000D02*
X95665000Y-103845000D01*
X95665000Y-119375000D02*
X95665000Y-126718804D01*
X158300000Y-91090000D02*
X148620000Y-91090000D01*
X166070000Y-83320000D02*
X158300000Y-91090000D01*
X95665000Y-126718804D02*
X96266547Y-127320351D01*
X168175818Y-105430000D02*
X161217653Y-105430000D01*
X134665000Y-126455000D02*
X134280000Y-126840000D01*
X134665000Y-119275000D02*
X134665000Y-126455000D01*
X134760000Y-104020000D02*
X134665000Y-103925000D01*
X161217653Y-105430000D02*
X161048967Y-105261314D01*
X95665000Y-103845000D02*
X95597464Y-103912536D01*
%TO.N,/Addr1*%
X137205000Y-95375000D02*
X137205000Y-103055500D01*
X137205000Y-119275000D02*
X137205000Y-126431666D01*
X98205000Y-102945500D02*
X98230000Y-102970500D01*
X167640989Y-104218332D02*
X167612657Y-104190000D01*
X167612657Y-104190000D02*
X161249553Y-104190000D01*
X161249553Y-104190000D02*
X161123694Y-104064141D01*
X98205000Y-125125500D02*
X98681148Y-125601648D01*
X148620000Y-88550000D02*
X158133517Y-88550000D01*
X158133517Y-88550000D02*
X164719952Y-81963565D01*
X137205000Y-126431666D02*
X137036166Y-126600500D01*
X98205000Y-119375000D02*
X98205000Y-125125500D01*
X98205000Y-95375000D02*
X98205000Y-102945500D01*
X137205000Y-103055500D02*
X137190000Y-103070500D01*
%TO.N,/Addr2*%
X159375126Y-103165626D02*
X160679411Y-103165626D01*
X100745000Y-95375000D02*
X100745000Y-102125500D01*
X139745000Y-119275000D02*
X139745000Y-125537360D01*
X160679411Y-103165626D02*
X160730397Y-103114640D01*
X158890000Y-102680500D02*
X159375126Y-103165626D01*
X139745000Y-101955416D02*
X139679916Y-102020500D01*
X161602351Y-103200000D02*
X166900510Y-103200000D01*
X148620000Y-86010000D02*
X157730000Y-86010000D01*
X166900510Y-103200000D02*
X166941478Y-103159032D01*
X139745000Y-95375000D02*
X139745000Y-101955416D01*
X160730397Y-103114640D02*
X161516991Y-103114640D01*
X100745000Y-119375000D02*
X100745000Y-125325193D01*
X100745000Y-102125500D02*
X100710000Y-102160500D01*
X139745000Y-125537360D02*
X139511860Y-125770500D01*
X161516991Y-103114640D02*
X161602351Y-103200000D01*
X100745000Y-125325193D02*
X100769307Y-125349500D01*
X157730000Y-86010000D02*
X162754542Y-80985458D01*
%TO.N,/Addr3*%
X103285000Y-95375000D02*
X103285000Y-101015000D01*
X103285000Y-101015000D02*
X103340000Y-101070000D01*
X160170000Y-102250000D02*
X166129716Y-102250000D01*
X160020000Y-102100000D02*
X160170000Y-102250000D01*
X103285000Y-124060136D02*
X103085636Y-124259500D01*
X160910000Y-79990000D02*
X152100000Y-79990000D01*
X142285000Y-100974922D02*
X142560578Y-101250500D01*
X103285000Y-119375000D02*
X103285000Y-124060136D01*
X142285000Y-95375000D02*
X142285000Y-100974922D01*
X142285000Y-124825500D02*
X142380000Y-124920500D01*
X152100000Y-79990000D02*
X148620000Y-83470000D01*
X142285000Y-119275000D02*
X142285000Y-124825500D01*
X166129716Y-102250000D02*
X166140500Y-102239216D01*
%TO.N,/Addr4*%
X105825000Y-119375000D02*
X105825000Y-123416042D01*
X158350000Y-78410000D02*
X151140000Y-78410000D01*
X105825000Y-100155000D02*
X105920000Y-100250000D01*
X144825000Y-119275000D02*
X144825000Y-124036528D01*
X144825000Y-124036528D02*
X144898972Y-124110500D01*
X160890000Y-101160000D02*
X161270000Y-101540000D01*
X161270000Y-101540000D02*
X165163056Y-101540000D01*
X105825000Y-95375000D02*
X105825000Y-100155000D01*
X144825000Y-95375000D02*
X144825000Y-100295348D01*
X151140000Y-78410000D02*
X148620000Y-80930000D01*
X144825000Y-100295348D02*
X144669848Y-100450500D01*
X105825000Y-123416042D02*
X105682290Y-123558752D01*
X165163056Y-101540000D02*
X165431035Y-101272021D01*
%TO.N,/Addr5*%
X108365000Y-95375000D02*
X108365000Y-99305000D01*
X160624795Y-99990183D02*
X160845111Y-100210499D01*
X147365000Y-99547832D02*
X147312332Y-99600500D01*
X148620000Y-78390000D02*
X150270656Y-76739344D01*
X164570189Y-100450000D02*
X164696340Y-100323849D01*
X147365000Y-95375000D02*
X147365000Y-99547832D01*
X160845111Y-100210499D02*
X161293297Y-100210499D01*
X108365000Y-119375000D02*
X108365000Y-122630717D01*
X108365000Y-122630717D02*
X108438540Y-122704257D01*
X108365000Y-99305000D02*
X108380000Y-99320000D01*
X147365000Y-123295500D02*
X147480000Y-123410500D01*
X161293297Y-100210499D02*
X161532798Y-100450000D01*
X161532798Y-100450000D02*
X164570189Y-100450000D01*
X147365000Y-119275000D02*
X147365000Y-123295500D01*
X150270656Y-76739344D02*
X155540656Y-76739344D01*
%TO.N,/Addr6*%
X110905000Y-98520500D02*
X110880000Y-98545500D01*
X161018092Y-99040682D02*
X161078791Y-99101381D01*
X110905000Y-95375000D02*
X110905000Y-98520500D01*
X148620000Y-75850000D02*
X148739501Y-75969501D01*
X149905000Y-119275000D02*
X149905000Y-122685989D01*
X160268951Y-98844678D02*
X160464955Y-99040682D01*
X149905000Y-99125000D02*
X149905000Y-95375000D01*
X148739501Y-75969501D02*
X152180499Y-75969501D01*
X110905000Y-121767945D02*
X110790000Y-121882945D01*
X149910000Y-99130000D02*
X149905000Y-99125000D01*
X110905000Y-119375000D02*
X110905000Y-121767945D01*
X160464955Y-99040682D02*
X161018092Y-99040682D01*
X161078791Y-99101381D02*
X163445322Y-99101381D01*
X149905000Y-122685989D02*
X149880000Y-122710989D01*
X152180499Y-75969501D02*
X152981027Y-75168973D01*
X163445322Y-99101381D02*
X163768609Y-99424668D01*
%TO.N,/Addr7*%
X113445000Y-119375000D02*
X113445000Y-120572204D01*
X152445000Y-119275000D02*
X152445000Y-121595000D01*
X159422946Y-97994336D02*
X159538610Y-98110000D01*
X152360000Y-95460000D02*
X152445000Y-95375000D01*
X159538610Y-98110000D02*
X159660831Y-98110000D01*
X160877071Y-98110000D02*
X162970598Y-98110000D01*
X113445000Y-95375000D02*
X113445000Y-97225000D01*
X159875654Y-97895177D02*
X160662248Y-97895177D01*
X113445000Y-97225000D02*
X113490000Y-97270000D01*
X152360000Y-98150000D02*
X152360000Y-95460000D01*
X159660831Y-98110000D02*
X159875654Y-97895177D01*
X152445000Y-121595000D02*
X152510000Y-121660000D01*
X160662248Y-97895177D02*
X160877071Y-98110000D01*
X113445000Y-120572204D02*
X113191885Y-120825319D01*
%TO.N,/Addr8*%
X157792771Y-70770000D02*
X159383271Y-69179500D01*
X149905000Y-130475500D02*
X149860000Y-130430500D01*
X149905000Y-106825000D02*
X149905000Y-110615000D01*
X149790000Y-106710000D02*
X149905000Y-106825000D01*
X149905000Y-134515000D02*
X149905000Y-130475500D01*
X111030000Y-130200000D02*
X110905000Y-130325000D01*
X160984008Y-107760000D02*
X169767600Y-107760000D01*
X160877828Y-107653820D02*
X160984008Y-107760000D01*
X169767600Y-107760000D02*
X169961478Y-107566122D01*
X110905000Y-106835000D02*
X110820000Y-106750000D01*
X110905000Y-110615000D02*
X110905000Y-106835000D01*
X148620000Y-70770000D02*
X157792771Y-70770000D01*
X110905000Y-130325000D02*
X110905000Y-134615000D01*
%TO.N,/Addr9*%
X108365000Y-131345000D02*
X108330000Y-131310000D01*
X159420000Y-107740000D02*
X160383454Y-108703454D01*
X147365000Y-131445000D02*
X147365000Y-134515000D01*
X108365000Y-110615000D02*
X108365000Y-107621476D01*
X170413965Y-108703454D02*
X170431971Y-108685448D01*
X147300000Y-131380000D02*
X147365000Y-131445000D01*
X108365000Y-107621476D02*
X108370000Y-107616476D01*
X160383454Y-108703454D02*
X170413965Y-108703454D01*
X148620000Y-68230000D02*
X160640000Y-68230000D01*
X108365000Y-134615000D02*
X108365000Y-131345000D01*
X160640000Y-68230000D02*
X160673602Y-68196398D01*
X147365000Y-110615000D02*
X147365000Y-107570633D01*
X147365000Y-107570633D02*
X147335356Y-107540989D01*
%TO.N,/Addr10*%
X161150000Y-111300000D02*
X171547203Y-111300000D01*
X148620000Y-65690000D02*
X157680000Y-65690000D01*
X157680000Y-65690000D02*
X159143973Y-64226027D01*
X171547203Y-111300000D02*
X171553846Y-111293357D01*
X159950000Y-110100000D02*
X161150000Y-111300000D01*
%TO.N,/Addr11*%
X105825000Y-134615000D02*
X105825000Y-132354500D01*
X105825000Y-108345000D02*
X105780000Y-108300000D01*
X144825000Y-134515000D02*
X144825000Y-132267152D01*
X144825000Y-110615000D02*
X144825000Y-109073969D01*
X161204556Y-109760000D02*
X171037202Y-109760000D01*
X161097511Y-109652955D02*
X161204556Y-109760000D01*
X82704746Y-133912950D02*
X82955756Y-133912950D01*
X105825000Y-132354500D02*
X105920000Y-132259500D01*
X144825000Y-109073969D02*
X143834711Y-108083680D01*
X82955756Y-133912950D02*
X84624103Y-132244603D01*
X156010000Y-63150000D02*
X156490000Y-62670000D01*
X144825000Y-132267152D02*
X144876163Y-132215989D01*
X105825000Y-110615000D02*
X105825000Y-108345000D01*
X171037202Y-109760000D02*
X171153601Y-109643601D01*
X148620000Y-63150000D02*
X156010000Y-63150000D01*
%TO.N,/Addr12*%
X103293680Y-128280000D02*
X104122692Y-127450988D01*
X94597804Y-127780999D02*
X95384398Y-127780999D01*
X83520000Y-134691502D02*
X90191404Y-128020098D01*
X90191404Y-128020098D02*
X94358705Y-128020098D01*
X83520000Y-134840000D02*
X83520000Y-134691502D01*
X95384398Y-127780999D02*
X95883399Y-128280000D01*
X107909012Y-127450988D02*
X115985000Y-119375000D01*
X150500000Y-73450000D02*
X151040000Y-72910000D01*
X104122692Y-127450988D02*
X107909012Y-127450988D01*
X94358705Y-128020098D02*
X94597804Y-127780999D01*
X150500000Y-75020000D02*
X150500000Y-73450000D01*
X95883399Y-128280000D02*
X103293680Y-128280000D01*
%TO.N,/Addr13*%
X113445000Y-129565000D02*
X113650000Y-129360000D01*
X152445000Y-134515000D02*
X152445000Y-129475017D01*
X161035748Y-106510000D02*
X160984849Y-106459101D01*
X113445000Y-105745000D02*
X113445000Y-110615000D01*
X152445000Y-129475017D02*
X152419483Y-129449500D01*
X169060500Y-106273284D02*
X168823784Y-106510000D01*
X152445000Y-105849739D02*
X152534239Y-105760500D01*
X152445000Y-110615000D02*
X152445000Y-105849739D01*
X168823784Y-106510000D02*
X161035748Y-106510000D01*
X113550000Y-105640000D02*
X113445000Y-105745000D01*
X113445000Y-134615000D02*
X113445000Y-129565000D01*
%TO.N,/Addr14*%
X39649012Y-108816957D02*
X39649012Y-112670497D01*
X92441967Y-140107533D02*
X92750000Y-139799500D01*
X67086048Y-140107533D02*
X92441967Y-140107533D01*
X37192055Y-106360000D02*
X39649012Y-108816957D01*
X39649012Y-112670497D02*
X67086048Y-140107533D01*
X25000000Y-106360000D02*
X37192055Y-106360000D01*
%TO.N,/Addr15*%
X25000000Y-108900000D02*
X25850000Y-108050000D01*
X37892798Y-108050000D02*
X38949501Y-109106703D01*
X38949501Y-109106703D02*
X38949501Y-112960243D01*
X38949501Y-112960243D02*
X66935087Y-140945829D01*
X25850000Y-108050000D02*
X37892798Y-108050000D01*
X66935087Y-140945829D02*
X93176642Y-140945829D01*
%TO.N,Net-(D1-Pad2)*%
X104735000Y-38200000D02*
X104735000Y-43795000D01*
X104735000Y-43795000D02*
X107140000Y-46200000D01*
%TO.N,/WE*%
X121419511Y-66712460D02*
X115297051Y-60590000D01*
X119820000Y-77535000D02*
X119820000Y-80075000D01*
X115297051Y-60590000D02*
X99199001Y-60590000D01*
X76530000Y-50770000D02*
X63950000Y-50770000D01*
X63950000Y-50770000D02*
X63500000Y-50320000D01*
X119820000Y-77535000D02*
X121419511Y-75935489D01*
X121419511Y-75935489D02*
X121419511Y-66712460D01*
%TO.N,/RE*%
X76530000Y-53310000D02*
X76530000Y-58162812D01*
X103820000Y-80075000D02*
X101280000Y-80075000D01*
X101280000Y-80075000D02*
X96200000Y-74995000D01*
X93362188Y-74995000D02*
X96200000Y-74995000D01*
X63500000Y-52860000D02*
X76080000Y-52860000D01*
X76530000Y-58162812D02*
X93362188Y-74995000D01*
X76080000Y-52860000D02*
X76530000Y-53310000D01*
%TO.N,/Data15*%
X91677545Y-138759501D02*
X93063301Y-138759501D01*
X129871978Y-139308022D02*
X134665000Y-134515000D01*
X93063301Y-138759501D02*
X93611822Y-139308022D01*
X91599022Y-138680978D02*
X95665000Y-134615000D01*
X41200000Y-75275000D02*
X41200000Y-111840000D01*
X63500000Y-134140000D02*
X68310000Y-134140000D01*
X73758021Y-139408021D02*
X90871979Y-139408021D01*
X93611822Y-139308022D02*
X129871978Y-139308022D01*
X37820000Y-71895000D02*
X41200000Y-75275000D01*
X90871979Y-139408021D02*
X91599022Y-138680978D01*
X68310000Y-134140000D02*
X68400000Y-134050000D01*
X91599022Y-138680978D02*
X91677545Y-138759501D01*
X41200000Y-111840000D02*
X63500000Y-134140000D01*
X68400000Y-134050000D02*
X73758021Y-139408021D01*
%TO.N,/Data14*%
X75598511Y-138708511D02*
X89741510Y-138708511D01*
X68400000Y-131510000D02*
X63590000Y-131510000D01*
X128076977Y-138563023D02*
X94605411Y-138563023D01*
X94605411Y-138563023D02*
X94590911Y-138548523D01*
X63590000Y-131510000D02*
X63500000Y-131600000D01*
X94195121Y-138548523D02*
X94005119Y-138358521D01*
X41899510Y-73434510D02*
X41899511Y-109999511D01*
X89741510Y-138708511D02*
X90121500Y-138328521D01*
X37820000Y-69355000D02*
X41899510Y-73434510D01*
X90121500Y-137618500D02*
X90121500Y-138328521D01*
X41899511Y-109999511D02*
X63500000Y-131600000D01*
X132125000Y-134515000D02*
X128076977Y-138563023D01*
X94590911Y-138548523D02*
X94195121Y-138548523D01*
X93125000Y-134615000D02*
X90121500Y-137618500D01*
X68400000Y-131510000D02*
X75598511Y-138708511D01*
%TO.N,/Data13*%
X126236488Y-137863512D02*
X95586821Y-137863512D01*
X42599022Y-108159022D02*
X63500000Y-129060000D01*
X68310000Y-129060000D02*
X68400000Y-128970000D01*
X95240338Y-137849011D02*
X95004849Y-137613522D01*
X68400000Y-128970000D02*
X77189010Y-137759010D01*
X63500000Y-129060000D02*
X68310000Y-129060000D01*
X95586821Y-137863512D02*
X95572320Y-137849011D01*
X37820000Y-66815000D02*
X42599021Y-71594021D01*
X129585000Y-134515000D02*
X126236488Y-137863512D01*
X87853932Y-137346068D02*
X87853932Y-137759010D01*
X77189010Y-137759010D02*
X87853932Y-137759010D01*
X95572320Y-137849011D02*
X95240338Y-137849011D01*
X42599021Y-71594021D02*
X42599022Y-108159022D01*
X90585000Y-134615000D02*
X87853932Y-137346068D01*
%TO.N,/Data12*%
X124480499Y-137079501D02*
X96145608Y-137079501D01*
X43298533Y-106318533D02*
X43298533Y-69753533D01*
X78552445Y-136582445D02*
X86077555Y-136582445D01*
X127045000Y-134515000D02*
X124480499Y-137079501D01*
X68400000Y-126430000D02*
X78552445Y-136582445D01*
X96145608Y-137079501D02*
X95980118Y-136914011D01*
X86077555Y-136582445D02*
X88045000Y-134615000D01*
X63500000Y-126520000D02*
X43298533Y-106318533D01*
X68310000Y-126520000D02*
X68400000Y-126430000D01*
X43298533Y-69753533D02*
X37820000Y-64275000D01*
X63500000Y-126520000D02*
X68310000Y-126520000D01*
%TO.N,/Data11*%
X43998044Y-104478044D02*
X63500000Y-123980000D01*
X122890000Y-136130000D02*
X97100000Y-136130000D01*
X124505000Y-134515000D02*
X122890000Y-136130000D01*
X68400000Y-123890000D02*
X80392935Y-135882935D01*
X80392935Y-135882935D02*
X84237066Y-135882934D01*
X68310000Y-123980000D02*
X68400000Y-123890000D01*
X37820000Y-61735000D02*
X43998044Y-67913044D01*
X63500000Y-123980000D02*
X68310000Y-123980000D01*
X84237066Y-135882934D02*
X85505000Y-134615000D01*
X43998044Y-67913044D02*
X43998044Y-104478044D01*
%TO.N,/Data10*%
X44697554Y-66072554D02*
X44697555Y-102637555D01*
X88045000Y-119375000D02*
X86695489Y-118025489D01*
X63500000Y-121440000D02*
X68310000Y-121440000D01*
X68310000Y-121440000D02*
X68400000Y-121350000D01*
X37820000Y-59195000D02*
X44697554Y-66072554D01*
X44697555Y-102637555D02*
X63500000Y-121440000D01*
X86695489Y-118025489D02*
X71724511Y-118025489D01*
X71724511Y-118025489D02*
X68400000Y-121350000D01*
%TO.N,/Data9*%
X63500000Y-118900000D02*
X68310000Y-118900000D01*
X88535978Y-117325978D02*
X69884022Y-117325978D01*
X88535978Y-117325978D02*
X88938695Y-117728695D01*
X44520489Y-63355489D02*
X44520489Y-64859746D01*
X37820000Y-56655000D02*
X44520489Y-63355489D01*
X68310000Y-118900000D02*
X68400000Y-118810000D01*
X44520489Y-64859746D02*
X45397066Y-65736323D01*
X127820000Y-117510000D02*
X129585000Y-119275000D01*
X92860000Y-117510000D02*
X127820000Y-117510000D01*
X90585000Y-119375000D02*
X88535978Y-117325978D01*
X69884022Y-117325978D02*
X68400000Y-118810000D01*
X45397066Y-65736323D02*
X45397066Y-100797066D01*
X45397066Y-100797066D02*
X63500000Y-118900000D01*
X88938695Y-117728695D02*
X89254101Y-117728695D01*
%TO.N,/Data8*%
X46190000Y-99050000D02*
X63500000Y-116360000D01*
X63590000Y-116270000D02*
X63500000Y-116360000D01*
X37820000Y-54115000D02*
X46190000Y-62485000D01*
X68400000Y-116270000D02*
X63590000Y-116270000D01*
X90269012Y-116519012D02*
X129369012Y-116519012D01*
X90268532Y-116518532D02*
X93125000Y-119375000D01*
X90268044Y-116519020D02*
X90268532Y-116518532D01*
X68400000Y-116270000D02*
X68649020Y-116519020D01*
X129369012Y-116519012D02*
X132125000Y-119275000D01*
X46190000Y-62485000D02*
X46190000Y-99050000D01*
X90268532Y-116518532D02*
X90269012Y-116519012D01*
X68649020Y-116519020D02*
X90268044Y-116519020D01*
%TO.N,/Data7*%
X90460979Y-115819021D02*
X90461459Y-115819501D01*
X63500000Y-113820000D02*
X68310000Y-113820000D01*
X93520723Y-114532075D02*
X93520723Y-112759277D01*
X89540237Y-115819021D02*
X90460979Y-115819021D01*
X68400000Y-113730000D02*
X70489510Y-115819510D01*
X46889511Y-51949511D02*
X46889511Y-97209511D01*
X89539748Y-115819510D02*
X89540237Y-115819021D01*
X92233297Y-115819501D02*
X93520723Y-114532075D01*
X90461459Y-115819501D02*
X92233297Y-115819501D01*
X37820000Y-42880000D02*
X46889511Y-51949511D01*
X90461459Y-115819501D02*
X129460499Y-115819501D01*
X93520723Y-112759277D02*
X95665000Y-110615000D01*
X46889511Y-97209511D02*
X63500000Y-113820000D01*
X129460499Y-115819501D02*
X134665000Y-110615000D01*
X70489510Y-115819510D02*
X89539748Y-115819510D01*
X68310000Y-113820000D02*
X68400000Y-113730000D01*
%TO.N,/Data6*%
X91390990Y-115119510D02*
X91840000Y-114670500D01*
X62910000Y-110690000D02*
X63500000Y-111280000D01*
X37820000Y-40340000D02*
X47589022Y-50109022D01*
X132125000Y-110615000D02*
X127620989Y-115119011D01*
X63410000Y-111190000D02*
X62910000Y-110690000D01*
X95198735Y-115119011D02*
X94470224Y-114390500D01*
X88620490Y-115119510D02*
X72329510Y-115119510D01*
X72329510Y-115119510D02*
X68400000Y-111190000D01*
X127620989Y-115119011D02*
X95198735Y-115119011D01*
X47589022Y-50109022D02*
X47589022Y-95369022D01*
X88620490Y-115119510D02*
X91390990Y-115119510D01*
X47589022Y-95369022D02*
X62910000Y-110690000D01*
X93125000Y-110615000D02*
X88620490Y-115119510D01*
X68400000Y-111190000D02*
X63410000Y-111190000D01*
%TO.N,/Data5*%
X74000000Y-114420000D02*
X68400000Y-108820000D01*
X96319501Y-114419501D02*
X125780499Y-114419501D01*
X63500000Y-108740000D02*
X68310000Y-108740000D01*
X86780000Y-114420000D02*
X87090000Y-114110000D01*
X68400000Y-108820000D02*
X68400000Y-108650000D01*
X95880000Y-113980000D02*
X96319501Y-114419501D01*
X90585000Y-110615000D02*
X86780000Y-114420000D01*
X86780000Y-114420000D02*
X74000000Y-114420000D01*
X68310000Y-108740000D02*
X68400000Y-108650000D01*
X48288533Y-48268533D02*
X48288533Y-93528533D01*
X125780499Y-114419501D02*
X129585000Y-110615000D01*
X37820000Y-37800000D02*
X48288533Y-48268533D01*
X48288533Y-93528533D02*
X63500000Y-108740000D01*
X87090000Y-114110000D02*
X88060000Y-114110000D01*
%TO.N,/Data4*%
X68310000Y-106200000D02*
X68400000Y-106110000D01*
X48988044Y-46428044D02*
X48988044Y-91688044D01*
X120620499Y-111570244D02*
X118491242Y-113699501D01*
X118491242Y-113699501D02*
X97289501Y-113699501D01*
X37820000Y-35260000D02*
X48988044Y-46428044D01*
X63500000Y-106200000D02*
X68310000Y-106200000D01*
X120620500Y-110786702D02*
X120620499Y-111570244D01*
X127045000Y-110615000D02*
X125519510Y-112140490D01*
X122001810Y-110249012D02*
X121158191Y-110249011D01*
X84950000Y-113710000D02*
X76000000Y-113710000D01*
X76000000Y-113710000D02*
X68400000Y-106110000D01*
X48988044Y-91688044D02*
X63500000Y-106200000D01*
X123893288Y-112140490D02*
X122001810Y-110249012D01*
X125519510Y-112140490D02*
X123893288Y-112140490D01*
X121158191Y-110249011D02*
X120620500Y-110786702D01*
X97289501Y-113699501D02*
X96870000Y-113280000D01*
X88045000Y-110615000D02*
X84950000Y-113710000D01*
%TO.N,/Data3*%
X120868443Y-109549501D02*
X123439501Y-109549501D01*
X83120000Y-113000000D02*
X77830000Y-113000000D01*
X77830000Y-113000000D02*
X68400000Y-103570000D01*
X63500000Y-103660000D02*
X68310000Y-103660000D01*
X118571485Y-112630000D02*
X119920989Y-111280496D01*
X123439501Y-109549501D02*
X124505000Y-110615000D01*
X49687555Y-44587555D02*
X49687555Y-89847555D01*
X37820000Y-32720000D02*
X49687555Y-44587555D01*
X97930000Y-112630000D02*
X118571485Y-112630000D01*
X119920989Y-111280496D02*
X119920989Y-110496955D01*
X119920989Y-110496955D02*
X120868443Y-109549501D01*
X49687555Y-89847555D02*
X63500000Y-103660000D01*
X85505000Y-110615000D02*
X83120000Y-113000000D01*
X68310000Y-103660000D02*
X68400000Y-103570000D01*
%TO.N,/Data2*%
X68400000Y-101030000D02*
X75404511Y-94025489D01*
X86695489Y-94025489D02*
X88045000Y-95375000D01*
X50387066Y-42747066D02*
X50387066Y-88007066D01*
X125530000Y-93860000D02*
X127045000Y-95375000D01*
X120070000Y-93860000D02*
X125530000Y-93860000D01*
X92010000Y-93380000D02*
X92230000Y-93600000D01*
X68310000Y-101120000D02*
X68400000Y-101030000D01*
X63500000Y-101120000D02*
X68310000Y-101120000D01*
X37820000Y-30180000D02*
X50387066Y-42747066D01*
X50387066Y-88007066D02*
X63500000Y-101120000D01*
X75404511Y-94025489D02*
X86695489Y-94025489D01*
X92230000Y-93600000D02*
X116810000Y-93600000D01*
%TO.N,/Data1*%
X126870697Y-92660697D02*
X120048094Y-92660697D01*
X51086577Y-40906577D02*
X51086577Y-86166577D01*
X129585000Y-95375000D02*
X126870697Y-92660697D01*
X68310000Y-98580000D02*
X68400000Y-98490000D01*
X51086577Y-86166577D02*
X63500000Y-98580000D01*
X90585000Y-95375000D02*
X88535978Y-93325978D01*
X91662290Y-92062000D02*
X116294382Y-92062000D01*
X37820000Y-27640000D02*
X51086577Y-40906577D01*
X63500000Y-98580000D02*
X68310000Y-98580000D01*
X116667926Y-92435544D02*
X117097836Y-92435544D01*
X88535978Y-93325978D02*
X73564022Y-93325978D01*
X73564022Y-93325978D02*
X68400000Y-98490000D01*
X116294382Y-92062000D02*
X116667926Y-92435544D01*
%TO.N,/Data0*%
X71973523Y-92376477D02*
X88929275Y-92376477D01*
X51786088Y-84326088D02*
X63500000Y-96040000D01*
X128313800Y-91563800D02*
X119562682Y-91563800D01*
X90123542Y-92626458D02*
X90123542Y-92836340D01*
X90123542Y-92836340D02*
X92662202Y-95375000D01*
X90123542Y-92257950D02*
X91268993Y-91112499D01*
X37820000Y-25100000D02*
X51786088Y-39066088D01*
X116933960Y-91112499D02*
X117058159Y-91236698D01*
X90123542Y-92626458D02*
X90123542Y-92257950D01*
X63500000Y-96040000D02*
X68310000Y-96040000D01*
X88929275Y-92376477D02*
X89179256Y-92626458D01*
X68400000Y-95950000D02*
X71973523Y-92376477D01*
X51786088Y-39066088D02*
X51786088Y-84326088D01*
X89179256Y-92626458D02*
X90123542Y-92626458D01*
X92662202Y-95375000D02*
X93125000Y-95375000D01*
X68310000Y-96040000D02*
X68400000Y-95950000D01*
X132125000Y-95375000D02*
X128313800Y-91563800D01*
X91268993Y-91112499D02*
X116933960Y-91112499D01*
%TO.N,Net-(U1-Pad1)*%
X112200000Y-69915000D02*
X115000000Y-72715000D01*
X112200000Y-69915000D02*
X112200000Y-67375000D01*
X121000000Y-85000000D02*
X121000000Y-83460000D01*
X117000000Y-85000000D02*
X121000000Y-85000000D01*
X115000000Y-83000000D02*
X117000000Y-85000000D01*
X121000000Y-83460000D02*
X129200000Y-75260000D01*
X115000000Y-72715000D02*
X115000000Y-83000000D01*
%TO.N,Net-(U1-Pad3)*%
X97575000Y-66000000D02*
X96200000Y-67375000D01*
X105745000Y-66000000D02*
X97575000Y-66000000D01*
X112200000Y-72455000D02*
X105745000Y-66000000D01*
%TO.N,Net-(U1-Pad4)*%
X112200000Y-77535000D02*
X112200000Y-74995000D01*
%TO.N,Net-(U1-Pad6)*%
X103820000Y-77535000D02*
X103864501Y-77579501D01*
X103864501Y-77579501D02*
X109704501Y-77579501D01*
X109704501Y-77579501D02*
X112200000Y-80075000D01*
%TO.N,/~{WE}*%
X30200000Y-22560000D02*
X33560000Y-22560000D01*
X33560000Y-22560000D02*
X34000000Y-23000000D01*
%TO.N,Net-(U1-Pad11)*%
X123000000Y-73000000D02*
X125000000Y-71000000D01*
%TO.N,/SUP*%
X113341700Y-63436700D02*
X109005203Y-63436700D01*
X26500000Y-142500000D02*
X26500000Y-121000000D01*
X109005203Y-63436700D02*
X107957301Y-64484602D01*
X26500000Y-181060000D02*
X26500000Y-142500000D01*
X119820000Y-69915000D02*
X113341700Y-63436700D01*
X25000000Y-182560000D02*
X26500000Y-181060000D01*
X119820000Y-69915000D02*
X119820000Y-72455000D01*
X26500000Y-121000000D02*
X38000000Y-109500000D01*
%TO.N,/WE_F*%
X89560988Y-47780000D02*
X63500000Y-47780000D01*
X89560988Y-63275988D02*
X89560988Y-47780000D01*
X96200000Y-69915000D02*
X89560988Y-63275988D01*
%TO.N,/WE_RAM*%
X123240000Y-112830000D02*
X121650000Y-111240000D01*
X154985000Y-110615000D02*
X154985000Y-112785000D01*
X154985000Y-112785000D02*
X154030000Y-113740000D01*
X96200000Y-72455000D02*
X93121247Y-72455000D01*
X154030000Y-113740000D02*
X154689022Y-113740000D01*
X154689022Y-113740000D02*
X158874511Y-117925489D01*
X158874511Y-117925489D02*
X158874511Y-126136231D01*
X123240000Y-113310000D02*
X123240000Y-112830000D01*
X121910000Y-108300000D02*
X121910000Y-96450000D01*
X157106703Y-127550499D02*
X154985000Y-129672202D01*
X93121247Y-72455000D02*
X92850500Y-72184253D01*
X121780000Y-108430000D02*
X121910000Y-108300000D01*
X158874511Y-126136231D02*
X157460243Y-127550499D01*
X154985000Y-129672202D02*
X154985000Y-134515000D01*
X157460243Y-127550499D02*
X157106703Y-127550499D01*
%TO.N,/RE_RAM*%
X157500000Y-101000000D02*
X157500000Y-99500000D01*
X150000000Y-113500000D02*
X153500000Y-117000000D01*
X142331965Y-108269029D02*
X142331965Y-107482427D01*
X145314392Y-104500000D02*
X154000000Y-104500000D01*
X150269511Y-92489511D02*
X150269511Y-92739511D01*
X160500000Y-125500000D02*
X157500000Y-128500000D01*
X161010489Y-92489511D02*
X150269511Y-92489511D01*
X142285000Y-132215000D02*
X142285000Y-134515000D01*
X118000000Y-46200000D02*
X109200000Y-55000000D01*
X99200000Y-57000000D02*
X101200000Y-55000000D01*
X93800000Y-60800000D02*
X93800000Y-58800000D01*
X93800000Y-58800000D02*
X95400000Y-57200000D01*
X101200000Y-55000000D02*
X102000000Y-55000000D01*
X146000000Y-128500000D02*
X142285000Y-132215000D01*
X143241717Y-108825239D02*
X142888175Y-108825239D01*
X157500000Y-98500000D02*
X161500000Y-94500000D01*
X142285000Y-110215000D02*
X143458239Y-109041761D01*
X150269511Y-92739511D02*
X146970489Y-92739511D01*
X143458239Y-109041761D02*
X143241717Y-108825239D01*
X154000000Y-104500000D02*
X157500000Y-101000000D01*
X146970489Y-91878777D02*
X146183423Y-91091711D01*
X142331965Y-107482427D02*
X145314392Y-104500000D01*
X95400000Y-57200000D02*
X96600000Y-57200000D01*
X109200000Y-55000000D02*
X104800000Y-55000000D01*
X142285000Y-110615000D02*
X142285000Y-110215000D01*
X146970489Y-92739511D02*
X146970489Y-91878777D01*
X157500000Y-99500000D02*
X157500000Y-98500000D01*
X160500000Y-117000000D02*
X160500000Y-125500000D01*
X142888175Y-108825239D02*
X142331965Y-108269029D01*
X161500000Y-92000000D02*
X161010489Y-92489511D01*
%TO.N,/RE_ROM*%
X108400000Y-66600000D02*
X109800000Y-65200000D01*
X103285000Y-131185000D02*
X104790000Y-129680000D01*
X98108498Y-82615000D02*
X103820000Y-82615000D01*
X83530000Y-91290000D02*
X89433498Y-91290000D01*
X109800000Y-65200000D02*
X109800000Y-65145575D01*
X109800000Y-65145575D02*
X110559374Y-64386201D01*
X89433498Y-91290000D02*
X98108498Y-82615000D01*
X88580000Y-128100000D02*
X88580000Y-128160000D01*
X103285000Y-134615000D02*
X103285000Y-131185000D01*
X81880000Y-121400000D02*
X88580000Y-128100000D01*
%TO.N,Net-(D2-Pad2)*%
X111460000Y-38200000D02*
X111460000Y-43720000D01*
X111460000Y-43720000D02*
X113940000Y-46200000D01*
%TO.N,Net-(D3-Pad2)*%
X118210000Y-43870000D02*
X118210000Y-38200000D01*
X120540000Y-46200000D02*
X118210000Y-43870000D01*
%TO.N,Net-(U2-Pad11)*%
X99942798Y-58400000D02*
X104600000Y-53742798D01*
X99800000Y-58400000D02*
X99942798Y-58400000D01*
X104600000Y-53742798D02*
X104600000Y-46200000D01*
%TD*%
M02*
