M48
; DRILL file {KiCad 6.0.1-79c1e3a40b~116~ubuntu21.10.1} date Mo 14 Feb 2022 17:54:17 CET
; FORMAT={-:-/ absolute / metric / decimal}
; #@! TF.CreationDate,2022-02-14T17:54:17+01:00
; #@! TF.GenerationSoftware,Kicad,Pcbnew,6.0.1-79c1e3a40b~116~ubuntu21.10.1
; #@! TF.FileFunction,Plated,1,2,PTH
FMAT,2
METRIC
; #@! TA.AperFunction,Plated,PTH,ViaDrill
T1C0.400
; #@! TA.AperFunction,Plated,PTH,ComponentDrill
T2C0.800
; #@! TA.AperFunction,Plated,PTH,ComponentDrill
T3C0.900
; #@! TA.AperFunction,Plated,PTH,ComponentDrill
T4C1.000
%
G90
G05
T1
X32.65Y-43.22
X34.0Y-23.0
X34.147Y-21.81
X35.0Y-42.0
X38.0Y-49.2
X38.0Y-109.5
X43.05Y-21.87
X79.53Y-42.931
X79.53Y-46.35
X79.63Y-49.58
X79.77Y-52.01
X80.4Y-39.2
X81.88Y-121.4
X82.705Y-133.913
X83.52Y-134.84
X83.53Y-91.29
X84.624Y-132.245
X85.23Y-113.43
X86.049Y-136.502
X87.854Y-137.759
X88.06Y-114.11
X88.536Y-93.326
X88.58Y-128.16
X89.254Y-117.729
X90.121Y-138.329
X91.662Y-92.062
X91.84Y-114.67
X92.01Y-93.38
X92.75Y-139.799
X92.85Y-72.184
X92.86Y-117.51
X93.177Y-140.946
X93.27Y-127.06
X93.8Y-60.8
X94.005Y-138.359
X94.47Y-114.39
X94.991Y-128.731
X95.005Y-137.614
X95.597Y-103.913
X95.88Y-113.98
X95.98Y-136.914
X96.267Y-127.32
X96.6Y-57.2
X96.87Y-113.28
X97.1Y-136.13
X97.93Y-112.63
X98.23Y-102.971
X98.49Y-64.09
X98.681Y-125.602
X99.199Y-60.59
X99.2Y-57.0
X99.8Y-58.4
X100.71Y-102.16
X100.769Y-125.349
X102.0Y-55.0
X103.086Y-124.259
X103.34Y-101.07
X104.79Y-129.68
X104.8Y-55.0
X105.682Y-123.559
X105.78Y-108.3
X105.92Y-100.25
X105.92Y-132.26
X107.957Y-64.485
X108.33Y-131.31
X108.37Y-107.616
X108.38Y-99.32
X108.4Y-66.6
X108.439Y-122.704
X108.68Y-78.59
X108.71Y-76.63
X110.559Y-64.386
X110.79Y-121.883
X110.82Y-106.75
X110.88Y-98.545
X111.03Y-130.2
X113.192Y-120.825
X113.49Y-97.27
X113.55Y-105.64
X113.65Y-129.36
X116.81Y-93.6
X117.058Y-91.237
X117.098Y-92.436
X119.563Y-91.564
X120.048Y-92.661
X120.07Y-93.86
X121.41Y-119.77
X121.65Y-111.24
X121.78Y-108.43
X121.91Y-96.45
X122.6Y-61.55
X123.0Y-73.0
X123.24Y-113.31
X125.0Y-71.0
X130.65Y-116.16
X134.28Y-126.84
X134.611Y-112.214
X134.76Y-104.02
X137.036Y-126.6
X137.19Y-103.07
X139.512Y-125.77
X139.68Y-102.02
X142.38Y-124.92
X142.561Y-101.251
X143.835Y-108.084
X144.67Y-100.45
X144.876Y-132.216
X144.899Y-124.11
X146.0Y-128.5
X146.183Y-91.092
X147.3Y-131.38
X147.312Y-99.6
X147.335Y-107.541
X147.48Y-123.41
X149.79Y-106.71
X149.86Y-130.43
X149.88Y-122.711
X149.91Y-99.13
X150.0Y-113.5
X150.5Y-75.02
X151.04Y-72.91
X152.36Y-98.15
X152.419Y-129.45
X152.51Y-121.66
X152.534Y-105.76
X152.981Y-75.169
X153.5Y-117.0
X154.03Y-113.74
X155.541Y-76.739
X156.49Y-62.67
X157.5Y-128.5
X158.35Y-78.41
X158.89Y-102.68
X159.144Y-64.226
X159.383Y-69.179
X159.42Y-107.74
X159.423Y-97.994
X159.95Y-110.1
X160.02Y-102.1
X160.269Y-98.845
X160.5Y-117.0
X160.625Y-99.99
X160.674Y-68.196
X160.878Y-107.654
X160.89Y-101.16
X160.91Y-79.99
X160.985Y-106.459
X161.049Y-105.261
X161.098Y-109.653
X161.124Y-104.064
X161.5Y-92.0
X161.5Y-94.5
X162.755Y-80.985
X162.971Y-98.11
X163.769Y-99.425
X164.696Y-100.324
X164.72Y-81.964
X165.431Y-101.272
X166.07Y-83.32
X166.141Y-102.239
X166.941Y-103.159
X167.641Y-104.218
X168.34Y-105.265
X169.06Y-106.273
X169.961Y-107.566
X170.432Y-108.685
X171.154Y-109.644
X171.554Y-111.293
T2
X30.2Y-22.56
X30.2Y-25.1
X30.2Y-27.64
X30.2Y-30.18
X30.2Y-32.72
X30.2Y-35.26
X30.2Y-37.8
X30.2Y-40.34
X30.2Y-42.88
X30.2Y-45.42
X30.2Y-51.575
X30.2Y-54.115
X30.2Y-56.655
X30.2Y-59.195
X30.2Y-61.735
X30.2Y-64.275
X30.2Y-66.815
X30.2Y-69.355
X30.2Y-71.895
X30.2Y-74.435
X37.82Y-22.56
X37.82Y-25.1
X37.82Y-27.64
X37.82Y-30.18
X37.82Y-32.72
X37.82Y-35.26
X37.82Y-37.8
X37.82Y-40.34
X37.82Y-42.88
X37.82Y-45.42
X37.82Y-51.575
X37.82Y-54.115
X37.82Y-56.655
X37.82Y-59.195
X37.82Y-61.735
X37.82Y-64.275
X37.82Y-66.815
X37.82Y-69.355
X37.82Y-71.895
X37.82Y-74.435
X85.505Y-95.375
X85.505Y-110.615
X85.505Y-119.375
X85.505Y-134.615
X88.045Y-95.375
X88.045Y-110.615
X88.045Y-119.375
X88.045Y-134.615
X90.585Y-95.375
X90.585Y-110.615
X90.585Y-119.375
X90.585Y-134.615
X93.125Y-95.375
X93.125Y-110.615
X93.125Y-119.375
X93.125Y-134.615
X95.665Y-95.375
X95.665Y-110.615
X95.665Y-119.375
X95.665Y-134.615
X96.2Y-67.375
X96.2Y-69.915
X96.2Y-72.455
X96.2Y-74.995
X96.2Y-77.535
X96.2Y-80.075
X96.2Y-82.615
X98.205Y-95.375
X98.205Y-110.615
X98.205Y-119.375
X98.205Y-134.615
X100.745Y-95.375
X100.745Y-110.615
X100.745Y-119.375
X100.745Y-134.615
X103.285Y-95.375
X103.285Y-110.615
X103.285Y-119.375
X103.285Y-134.615
X103.82Y-67.375
X103.82Y-69.915
X103.82Y-72.455
X103.82Y-74.995
X103.82Y-77.535
X103.82Y-80.075
X103.82Y-82.615
X104.6Y-46.2
X105.825Y-95.375
X105.825Y-110.615
X105.825Y-119.375
X105.825Y-134.615
X107.14Y-46.2
X108.365Y-95.375
X108.365Y-110.615
X108.365Y-119.375
X108.365Y-134.615
X110.905Y-95.375
X110.905Y-110.615
X110.905Y-119.375
X110.905Y-134.615
X111.4Y-46.2
X112.2Y-67.375
X112.2Y-69.915
X112.2Y-72.455
X112.2Y-74.995
X112.2Y-77.535
X112.2Y-80.075
X112.2Y-82.615
X113.445Y-95.375
X113.445Y-110.615
X113.445Y-119.375
X113.445Y-134.615
X113.94Y-46.2
X115.985Y-95.375
X115.985Y-110.615
X115.985Y-119.375
X115.985Y-134.615
X118.0Y-46.2
X118.525Y-95.375
X118.525Y-110.615
X118.525Y-119.375
X118.525Y-134.615
X119.82Y-67.375
X119.82Y-69.915
X119.82Y-72.455
X119.82Y-74.995
X119.82Y-77.535
X119.82Y-80.075
X119.82Y-82.615
X120.54Y-46.2
X124.505Y-95.375
X124.505Y-110.615
X124.505Y-119.275
X124.505Y-134.515
X127.045Y-95.375
X127.045Y-110.615
X127.045Y-119.275
X127.045Y-134.515
X129.2Y-65.1
X129.2Y-67.64
X129.2Y-70.18
X129.2Y-72.72
X129.2Y-75.26
X129.2Y-77.8
X129.2Y-80.34
X129.2Y-82.88
X129.585Y-95.375
X129.585Y-110.615
X129.585Y-119.275
X129.585Y-134.515
X132.125Y-95.375
X132.125Y-110.615
X132.125Y-119.275
X132.125Y-134.515
X134.665Y-95.375
X134.665Y-110.615
X134.665Y-119.275
X134.665Y-134.515
X136.82Y-65.1
X136.82Y-67.64
X136.82Y-70.18
X136.82Y-72.72
X136.82Y-75.26
X136.82Y-77.8
X136.82Y-80.34
X136.82Y-82.88
X137.205Y-95.375
X137.205Y-110.615
X137.205Y-119.275
X137.205Y-134.515
X139.745Y-95.375
X139.745Y-110.615
X139.745Y-119.275
X139.745Y-134.515
X142.285Y-95.375
X142.285Y-110.615
X142.285Y-119.275
X142.285Y-134.515
X144.825Y-95.375
X144.825Y-110.615
X144.825Y-119.275
X144.825Y-134.515
X147.365Y-95.375
X147.365Y-110.615
X147.365Y-119.275
X147.365Y-134.515
X149.905Y-95.375
X149.905Y-110.615
X149.905Y-119.275
X149.905Y-134.515
X152.445Y-95.375
X152.445Y-110.615
X152.445Y-119.275
X152.445Y-134.515
X154.985Y-95.375
X154.985Y-110.615
X154.985Y-119.275
X154.985Y-134.515
X157.525Y-95.375
X157.525Y-110.615
X157.525Y-119.275
X157.525Y-134.515
T3
X104.735Y-38.2
X107.275Y-38.2
X111.46Y-38.2
X114.0Y-38.2
X118.21Y-38.2
X120.75Y-38.2
T4
X25.0Y-20.0
X25.0Y-22.54
X25.0Y-25.08
X25.0Y-27.62
X25.0Y-30.16
X25.0Y-32.7
X25.0Y-35.24
X25.0Y-37.78
X25.0Y-40.32
X25.0Y-42.86
X25.0Y-45.4
X25.0Y-47.94
X25.0Y-50.48
X25.0Y-53.02
X25.0Y-55.56
X25.0Y-58.1
X25.0Y-60.64
X25.0Y-63.18
X25.0Y-65.72
X25.0Y-68.26
X25.0Y-70.8
X25.0Y-73.34
X25.0Y-75.88
X25.0Y-78.42
X25.0Y-80.96
X25.0Y-83.5
X25.0Y-86.04
X25.0Y-88.58
X25.0Y-91.12
X25.0Y-93.66
X25.0Y-96.2
X25.0Y-98.74
X25.0Y-101.28
X25.0Y-103.82
X25.0Y-106.36
X25.0Y-108.9
X25.0Y-111.44
X25.0Y-113.98
X25.0Y-116.52
X25.0Y-119.06
X25.0Y-121.6
X25.0Y-124.14
X25.0Y-126.68
X25.0Y-129.22
X25.0Y-131.76
X25.0Y-134.3
X25.0Y-136.84
X25.0Y-139.38
X25.0Y-141.92
X25.0Y-144.46
X25.0Y-147.0
X25.0Y-149.54
X25.0Y-152.08
X25.0Y-154.62
X25.0Y-157.16
X25.0Y-159.7
X25.0Y-162.24
X25.0Y-164.78
X25.0Y-167.32
X25.0Y-169.86
X25.0Y-172.4
X25.0Y-174.94
X25.0Y-177.48
X25.0Y-180.02
X25.0Y-182.56
X25.0Y-185.1
X25.0Y-187.64
X25.0Y-190.18
X25.0Y-192.72
X25.0Y-195.26
X25.0Y-197.8
X25.0Y-200.34
X25.0Y-202.88
X25.0Y-205.42
X25.0Y-207.96
X25.0Y-210.5
X25.0Y-213.04
X25.0Y-215.58
X43.0Y-50.7
X43.0Y-55.7
X63.5Y-30.0
X63.5Y-32.54
X63.5Y-35.08
X63.5Y-37.62
X63.5Y-40.16
X63.5Y-42.7
X63.5Y-45.24
X63.5Y-47.78
X63.5Y-50.32
X63.5Y-52.86
X63.5Y-55.4
X63.5Y-57.94
X63.5Y-60.48
X63.5Y-63.02
X63.5Y-65.56
X63.5Y-68.1
X63.5Y-70.64
X63.5Y-73.18
X63.5Y-75.72
X63.5Y-78.26
X63.5Y-80.8
X63.5Y-83.34
X63.5Y-85.88
X63.5Y-88.42
X63.5Y-90.96
X63.5Y-93.5
X63.5Y-96.04
X63.5Y-98.58
X63.5Y-101.12
X63.5Y-103.66
X63.5Y-106.2
X63.5Y-108.74
X63.5Y-111.28
X63.5Y-113.82
X63.5Y-116.36
X63.5Y-118.9
X63.5Y-121.44
X63.5Y-123.98
X63.5Y-126.52
X63.5Y-129.06
X63.5Y-131.6
X63.5Y-134.14
X68.4Y-95.95
X68.4Y-98.49
X68.4Y-101.03
X68.4Y-103.57
X68.4Y-106.11
X68.4Y-108.65
X68.4Y-111.19
X68.4Y-113.73
X68.4Y-116.27
X68.4Y-118.81
X68.4Y-121.35
X68.4Y-123.89
X68.4Y-126.43
X68.4Y-128.97
X68.4Y-131.51
X68.4Y-134.05
X76.53Y-50.77
X76.53Y-53.31
X131.1Y-88.0
X136.1Y-88.0
X140.5Y-142.8
X145.5Y-142.8
X148.62Y-52.99
X148.62Y-55.53
X148.62Y-58.07
X148.62Y-60.61
X148.62Y-63.15
X148.62Y-65.69
X148.62Y-68.23
X148.62Y-70.77
X148.62Y-73.31
X148.62Y-75.85
X148.62Y-78.39
X148.62Y-80.93
X148.62Y-83.47
X148.62Y-86.01
X148.62Y-88.55
X148.62Y-91.09
T0
M30
