%TF.GenerationSoftware,KiCad,Pcbnew,6.0.1-79c1e3a40b~116~ubuntu21.10.1*%
%TF.CreationDate,2022-02-14T17:27:14+01:00*%
%TF.ProjectId,memory,6d656d6f-7279-42e6-9b69-6361645f7063,v.1*%
%TF.SameCoordinates,Original*%
%TF.FileFunction,Legend,Top*%
%TF.FilePolarity,Positive*%
%FSLAX46Y46*%
G04 Gerber Fmt 4.6, Leading zero omitted, Abs format (unit mm)*
G04 Created by KiCad (PCBNEW 6.0.1-79c1e3a40b~116~ubuntu21.10.1) date 2022-02-14 17:27:14*
%MOMM*%
%LPD*%
G01*
G04 APERTURE LIST*
%ADD10C,0.300000*%
%ADD11C,0.150000*%
%ADD12C,0.120000*%
G04 APERTURE END LIST*
D10*
X115878571Y-33978571D02*
X115164285Y-34478571D01*
X115878571Y-34835714D02*
X114378571Y-34835714D01*
X114378571Y-34264285D01*
X114450000Y-34121428D01*
X114521428Y-34049999D01*
X114664285Y-33978571D01*
X114878571Y-33978571D01*
X115021428Y-34049999D01*
X115092857Y-34121428D01*
X115164285Y-34264285D01*
X115164285Y-34835714D01*
X115092857Y-33335714D02*
X115092857Y-32835714D01*
X115878571Y-32621428D02*
X115878571Y-33335714D01*
X114378571Y-33335714D01*
X114378571Y-32621428D01*
X116021428Y-32335714D02*
X116021428Y-31192857D01*
X115878571Y-29978571D02*
X115164285Y-30478571D01*
X115878571Y-30835714D02*
X114378571Y-30835714D01*
X114378571Y-30264285D01*
X114450000Y-30121428D01*
X114521428Y-30050000D01*
X114664285Y-29978571D01*
X114878571Y-29978571D01*
X115021428Y-30050000D01*
X115092857Y-30121428D01*
X115164285Y-30264285D01*
X115164285Y-30835714D01*
X114378571Y-29050000D02*
X114378571Y-28764285D01*
X114450000Y-28621428D01*
X114592857Y-28478571D01*
X114878571Y-28407142D01*
X115378571Y-28407142D01*
X115664285Y-28478571D01*
X115807142Y-28621428D01*
X115878571Y-28764285D01*
X115878571Y-29050000D01*
X115807142Y-29192857D01*
X115664285Y-29335714D01*
X115378571Y-29407142D01*
X114878571Y-29407142D01*
X114592857Y-29335714D01*
X114450000Y-29192857D01*
X114378571Y-29050000D01*
X115878571Y-27764285D02*
X114378571Y-27764285D01*
X115450000Y-27264285D01*
X114378571Y-26764285D01*
X115878571Y-26764285D01*
X122678571Y-33635714D02*
X121964285Y-34135714D01*
X122678571Y-34492857D02*
X121178571Y-34492857D01*
X121178571Y-33921428D01*
X121250000Y-33778571D01*
X121321428Y-33707142D01*
X121464285Y-33635714D01*
X121678571Y-33635714D01*
X121821428Y-33707142D01*
X121892857Y-33778571D01*
X121964285Y-33921428D01*
X121964285Y-34492857D01*
X121892857Y-32992857D02*
X121892857Y-32492857D01*
X122678571Y-32278571D02*
X122678571Y-32992857D01*
X121178571Y-32992857D01*
X121178571Y-32278571D01*
X122821428Y-31992857D02*
X122821428Y-30850000D01*
X122678571Y-29635714D02*
X121964285Y-30135714D01*
X122678571Y-30492857D02*
X121178571Y-30492857D01*
X121178571Y-29921428D01*
X121250000Y-29778571D01*
X121321428Y-29707142D01*
X121464285Y-29635714D01*
X121678571Y-29635714D01*
X121821428Y-29707142D01*
X121892857Y-29778571D01*
X121964285Y-29921428D01*
X121964285Y-30492857D01*
X122250000Y-29064285D02*
X122250000Y-28350000D01*
X122678571Y-29207142D02*
X121178571Y-28707142D01*
X122678571Y-28207142D01*
X122678571Y-27707142D02*
X121178571Y-27707142D01*
X122250000Y-27207142D01*
X121178571Y-26707142D01*
X122678571Y-26707142D01*
X107378571Y-34742857D02*
X108878571Y-34385714D01*
X107807142Y-34100000D01*
X108878571Y-33814285D01*
X107378571Y-33457142D01*
X108092857Y-32885714D02*
X108092857Y-32385714D01*
X108878571Y-32171428D02*
X108878571Y-32885714D01*
X107378571Y-32885714D01*
X107378571Y-32171428D01*
X108878571Y-29528571D02*
X108164285Y-30028571D01*
X108878571Y-30385714D02*
X107378571Y-30385714D01*
X107378571Y-29814285D01*
X107450000Y-29671428D01*
X107521428Y-29600000D01*
X107664285Y-29528571D01*
X107878571Y-29528571D01*
X108021428Y-29600000D01*
X108092857Y-29671428D01*
X108164285Y-29814285D01*
X108164285Y-30385714D01*
X108450000Y-28957142D02*
X108450000Y-28242857D01*
X108878571Y-29100000D02*
X107378571Y-28600000D01*
X108878571Y-28100000D01*
X108878571Y-27600000D02*
X107378571Y-27600000D01*
X108450000Y-27100000D01*
X107378571Y-26600000D01*
X108878571Y-26600000D01*
D11*
%TO.C,U9*%
X120307380Y-103756904D02*
X121116904Y-103756904D01*
X121212142Y-103709285D01*
X121259761Y-103661666D01*
X121307380Y-103566428D01*
X121307380Y-103375952D01*
X121259761Y-103280714D01*
X121212142Y-103233095D01*
X121116904Y-103185476D01*
X120307380Y-103185476D01*
X121307380Y-102661666D02*
X121307380Y-102471190D01*
X121259761Y-102375952D01*
X121212142Y-102328333D01*
X121069285Y-102233095D01*
X120878809Y-102185476D01*
X120497857Y-102185476D01*
X120402619Y-102233095D01*
X120355000Y-102280714D01*
X120307380Y-102375952D01*
X120307380Y-102566428D01*
X120355000Y-102661666D01*
X120402619Y-102709285D01*
X120497857Y-102756904D01*
X120735952Y-102756904D01*
X120831190Y-102709285D01*
X120878809Y-102661666D01*
X120926428Y-102566428D01*
X120926428Y-102375952D01*
X120878809Y-102280714D01*
X120831190Y-102233095D01*
X120735952Y-102185476D01*
%TO.C,U10*%
X159307380Y-104233095D02*
X160116904Y-104233095D01*
X160212142Y-104185476D01*
X160259761Y-104137857D01*
X160307380Y-104042619D01*
X160307380Y-103852142D01*
X160259761Y-103756904D01*
X160212142Y-103709285D01*
X160116904Y-103661666D01*
X159307380Y-103661666D01*
X160307380Y-102661666D02*
X160307380Y-103233095D01*
X160307380Y-102947380D02*
X159307380Y-102947380D01*
X159450238Y-103042619D01*
X159545476Y-103137857D01*
X159593095Y-103233095D01*
X159307380Y-102042619D02*
X159307380Y-101947380D01*
X159355000Y-101852142D01*
X159402619Y-101804523D01*
X159497857Y-101756904D01*
X159688333Y-101709285D01*
X159926428Y-101709285D01*
X160116904Y-101756904D01*
X160212142Y-101804523D01*
X160259761Y-101852142D01*
X160307380Y-101947380D01*
X160307380Y-102042619D01*
X160259761Y-102137857D01*
X160212142Y-102185476D01*
X160116904Y-102233095D01*
X159926428Y-102280714D01*
X159688333Y-102280714D01*
X159497857Y-102233095D01*
X159402619Y-102185476D01*
X159355000Y-102137857D01*
X159307380Y-102042619D01*
%TO.C,R2*%
X112503333Y-43932380D02*
X112170000Y-43456190D01*
X111931904Y-43932380D02*
X111931904Y-42932380D01*
X112312857Y-42932380D01*
X112408095Y-42980000D01*
X112455714Y-43027619D01*
X112503333Y-43122857D01*
X112503333Y-43265714D01*
X112455714Y-43360952D01*
X112408095Y-43408571D01*
X112312857Y-43456190D01*
X111931904Y-43456190D01*
X112884285Y-43027619D02*
X112931904Y-42980000D01*
X113027142Y-42932380D01*
X113265238Y-42932380D01*
X113360476Y-42980000D01*
X113408095Y-43027619D01*
X113455714Y-43122857D01*
X113455714Y-43218095D01*
X113408095Y-43360952D01*
X112836666Y-43932380D01*
X113455714Y-43932380D01*
%TO.C,U3*%
X132248095Y-62222380D02*
X132248095Y-63031904D01*
X132295714Y-63127142D01*
X132343333Y-63174761D01*
X132438571Y-63222380D01*
X132629047Y-63222380D01*
X132724285Y-63174761D01*
X132771904Y-63127142D01*
X132819523Y-63031904D01*
X132819523Y-62222380D01*
X133200476Y-62222380D02*
X133819523Y-62222380D01*
X133486190Y-62603333D01*
X133629047Y-62603333D01*
X133724285Y-62650952D01*
X133771904Y-62698571D01*
X133819523Y-62793809D01*
X133819523Y-63031904D01*
X133771904Y-63127142D01*
X133724285Y-63174761D01*
X133629047Y-63222380D01*
X133343333Y-63222380D01*
X133248095Y-63174761D01*
X133200476Y-63127142D01*
%TO.C,D1*%
X105266904Y-42612380D02*
X105266904Y-41612380D01*
X105505000Y-41612380D01*
X105647857Y-41660000D01*
X105743095Y-41755238D01*
X105790714Y-41850476D01*
X105838333Y-42040952D01*
X105838333Y-42183809D01*
X105790714Y-42374285D01*
X105743095Y-42469523D01*
X105647857Y-42564761D01*
X105505000Y-42612380D01*
X105266904Y-42612380D01*
X106790714Y-42612380D02*
X106219285Y-42612380D01*
X106505000Y-42612380D02*
X106505000Y-41612380D01*
X106409761Y-41755238D01*
X106314523Y-41850476D01*
X106219285Y-41898095D01*
%TO.C,R1*%
X105703333Y-43932380D02*
X105370000Y-43456190D01*
X105131904Y-43932380D02*
X105131904Y-42932380D01*
X105512857Y-42932380D01*
X105608095Y-42980000D01*
X105655714Y-43027619D01*
X105703333Y-43122857D01*
X105703333Y-43265714D01*
X105655714Y-43360952D01*
X105608095Y-43408571D01*
X105512857Y-43456190D01*
X105131904Y-43456190D01*
X106655714Y-43932380D02*
X106084285Y-43932380D01*
X106370000Y-43932380D02*
X106370000Y-42932380D01*
X106274761Y-43075238D01*
X106179523Y-43170476D01*
X106084285Y-43218095D01*
%TO.C,D3*%
X118741904Y-42612380D02*
X118741904Y-41612380D01*
X118980000Y-41612380D01*
X119122857Y-41660000D01*
X119218095Y-41755238D01*
X119265714Y-41850476D01*
X119313333Y-42040952D01*
X119313333Y-42183809D01*
X119265714Y-42374285D01*
X119218095Y-42469523D01*
X119122857Y-42564761D01*
X118980000Y-42612380D01*
X118741904Y-42612380D01*
X119646666Y-41612380D02*
X120265714Y-41612380D01*
X119932380Y-41993333D01*
X120075238Y-41993333D01*
X120170476Y-42040952D01*
X120218095Y-42088571D01*
X120265714Y-42183809D01*
X120265714Y-42421904D01*
X120218095Y-42517142D01*
X120170476Y-42564761D01*
X120075238Y-42612380D01*
X119789523Y-42612380D01*
X119694285Y-42564761D01*
X119646666Y-42517142D01*
%TO.C,J4*%
X72446666Y-136272380D02*
X72446666Y-136986666D01*
X72399047Y-137129523D01*
X72303809Y-137224761D01*
X72160952Y-137272380D01*
X72065714Y-137272380D01*
X73351428Y-136605714D02*
X73351428Y-137272380D01*
X73113333Y-136224761D02*
X72875238Y-136939047D01*
X73494285Y-136939047D01*
%TO.C,R3*%
X119103333Y-43932380D02*
X118770000Y-43456190D01*
X118531904Y-43932380D02*
X118531904Y-42932380D01*
X118912857Y-42932380D01*
X119008095Y-42980000D01*
X119055714Y-43027619D01*
X119103333Y-43122857D01*
X119103333Y-43265714D01*
X119055714Y-43360952D01*
X119008095Y-43408571D01*
X118912857Y-43456190D01*
X118531904Y-43456190D01*
X119436666Y-42932380D02*
X120055714Y-42932380D01*
X119722380Y-43313333D01*
X119865238Y-43313333D01*
X119960476Y-43360952D01*
X120008095Y-43408571D01*
X120055714Y-43503809D01*
X120055714Y-43741904D01*
X120008095Y-43837142D01*
X119960476Y-43884761D01*
X119865238Y-43932380D01*
X119579523Y-43932380D01*
X119484285Y-43884761D01*
X119436666Y-43837142D01*
%TO.C,D2*%
X111991904Y-42612380D02*
X111991904Y-41612380D01*
X112230000Y-41612380D01*
X112372857Y-41660000D01*
X112468095Y-41755238D01*
X112515714Y-41850476D01*
X112563333Y-42040952D01*
X112563333Y-42183809D01*
X112515714Y-42374285D01*
X112468095Y-42469523D01*
X112372857Y-42564761D01*
X112230000Y-42612380D01*
X111991904Y-42612380D01*
X112944285Y-41707619D02*
X112991904Y-41660000D01*
X113087142Y-41612380D01*
X113325238Y-41612380D01*
X113420476Y-41660000D01*
X113468095Y-41707619D01*
X113515714Y-41802857D01*
X113515714Y-41898095D01*
X113468095Y-42040952D01*
X112896666Y-42612380D01*
X113515714Y-42612380D01*
%TO.C,C1*%
X41157142Y-47966666D02*
X41204761Y-48014285D01*
X41252380Y-48157142D01*
X41252380Y-48252380D01*
X41204761Y-48395238D01*
X41109523Y-48490476D01*
X41014285Y-48538095D01*
X40823809Y-48585714D01*
X40680952Y-48585714D01*
X40490476Y-48538095D01*
X40395238Y-48490476D01*
X40300000Y-48395238D01*
X40252380Y-48252380D01*
X40252380Y-48157142D01*
X40300000Y-48014285D01*
X40347619Y-47966666D01*
X41252380Y-47014285D02*
X41252380Y-47585714D01*
X41252380Y-47300000D02*
X40252380Y-47300000D01*
X40395238Y-47395238D01*
X40490476Y-47490476D01*
X40538095Y-47585714D01*
%TO.C,J3*%
X152666666Y-93312380D02*
X152666666Y-94026666D01*
X152619047Y-94169523D01*
X152523809Y-94264761D01*
X152380952Y-94312380D01*
X152285714Y-94312380D01*
X153047619Y-93312380D02*
X153666666Y-93312380D01*
X153333333Y-93693333D01*
X153476190Y-93693333D01*
X153571428Y-93740952D01*
X153619047Y-93788571D01*
X153666666Y-93883809D01*
X153666666Y-94121904D01*
X153619047Y-94217142D01*
X153571428Y-94264761D01*
X153476190Y-94312380D01*
X153190476Y-94312380D01*
X153095238Y-94264761D01*
X153047619Y-94217142D01*
%TO.C,U2*%
X99248095Y-64497380D02*
X99248095Y-65306904D01*
X99295714Y-65402142D01*
X99343333Y-65449761D01*
X99438571Y-65497380D01*
X99629047Y-65497380D01*
X99724285Y-65449761D01*
X99771904Y-65402142D01*
X99819523Y-65306904D01*
X99819523Y-64497380D01*
X100248095Y-64592619D02*
X100295714Y-64545000D01*
X100390952Y-64497380D01*
X100629047Y-64497380D01*
X100724285Y-64545000D01*
X100771904Y-64592619D01*
X100819523Y-64687857D01*
X100819523Y-64783095D01*
X100771904Y-64925952D01*
X100200476Y-65497380D01*
X100819523Y-65497380D01*
%TO.C,U12*%
X159307380Y-128133095D02*
X160116904Y-128133095D01*
X160212142Y-128085476D01*
X160259761Y-128037857D01*
X160307380Y-127942619D01*
X160307380Y-127752142D01*
X160259761Y-127656904D01*
X160212142Y-127609285D01*
X160116904Y-127561666D01*
X159307380Y-127561666D01*
X160307380Y-126561666D02*
X160307380Y-127133095D01*
X160307380Y-126847380D02*
X159307380Y-126847380D01*
X159450238Y-126942619D01*
X159545476Y-127037857D01*
X159593095Y-127133095D01*
X159402619Y-126180714D02*
X159355000Y-126133095D01*
X159307380Y-126037857D01*
X159307380Y-125799761D01*
X159355000Y-125704523D01*
X159402619Y-125656904D01*
X159497857Y-125609285D01*
X159593095Y-125609285D01*
X159735952Y-125656904D01*
X160307380Y-126228333D01*
X160307380Y-125609285D01*
%TO.C,J2*%
X71816666Y-47452380D02*
X71816666Y-48166666D01*
X71769047Y-48309523D01*
X71673809Y-48404761D01*
X71530952Y-48452380D01*
X71435714Y-48452380D01*
X72245238Y-47547619D02*
X72292857Y-47500000D01*
X72388095Y-47452380D01*
X72626190Y-47452380D01*
X72721428Y-47500000D01*
X72769047Y-47547619D01*
X72816666Y-47642857D01*
X72816666Y-47738095D01*
X72769047Y-47880952D01*
X72197619Y-48452380D01*
X72816666Y-48452380D01*
%TO.C,C2*%
X142833333Y-139407142D02*
X142785714Y-139454761D01*
X142642857Y-139502380D01*
X142547619Y-139502380D01*
X142404761Y-139454761D01*
X142309523Y-139359523D01*
X142261904Y-139264285D01*
X142214285Y-139073809D01*
X142214285Y-138930952D01*
X142261904Y-138740476D01*
X142309523Y-138645238D01*
X142404761Y-138550000D01*
X142547619Y-138502380D01*
X142642857Y-138502380D01*
X142785714Y-138550000D01*
X142833333Y-138597619D01*
X143214285Y-138597619D02*
X143261904Y-138550000D01*
X143357142Y-138502380D01*
X143595238Y-138502380D01*
X143690476Y-138550000D01*
X143738095Y-138597619D01*
X143785714Y-138692857D01*
X143785714Y-138788095D01*
X143738095Y-138930952D01*
X143166666Y-139502380D01*
X143785714Y-139502380D01*
%TO.C,C3*%
X139233333Y-87157142D02*
X139185714Y-87204761D01*
X139042857Y-87252380D01*
X138947619Y-87252380D01*
X138804761Y-87204761D01*
X138709523Y-87109523D01*
X138661904Y-87014285D01*
X138614285Y-86823809D01*
X138614285Y-86680952D01*
X138661904Y-86490476D01*
X138709523Y-86395238D01*
X138804761Y-86300000D01*
X138947619Y-86252380D01*
X139042857Y-86252380D01*
X139185714Y-86300000D01*
X139233333Y-86347619D01*
X139566666Y-86252380D02*
X140185714Y-86252380D01*
X139852380Y-86633333D01*
X139995238Y-86633333D01*
X140090476Y-86680952D01*
X140138095Y-86728571D01*
X140185714Y-86823809D01*
X140185714Y-87061904D01*
X140138095Y-87157142D01*
X140090476Y-87204761D01*
X139995238Y-87252380D01*
X139709523Y-87252380D01*
X139614285Y-87204761D01*
X139566666Y-87157142D01*
%TO.C,J1*%
X27726666Y-48442380D02*
X27726666Y-49156666D01*
X27679047Y-49299523D01*
X27583809Y-49394761D01*
X27440952Y-49442380D01*
X27345714Y-49442380D01*
X28726666Y-49442380D02*
X28155238Y-49442380D01*
X28440952Y-49442380D02*
X28440952Y-48442380D01*
X28345714Y-48585238D01*
X28250476Y-48680476D01*
X28155238Y-48728095D01*
X28366666Y-19262380D02*
X28033333Y-18786190D01*
X27795238Y-19262380D02*
X27795238Y-18262380D01*
X28176190Y-18262380D01*
X28271428Y-18310000D01*
X28319047Y-18357619D01*
X28366666Y-18452857D01*
X28366666Y-18595714D01*
X28319047Y-18690952D01*
X28271428Y-18738571D01*
X28176190Y-18786190D01*
X27795238Y-18786190D01*
X28795238Y-18738571D02*
X29128571Y-18738571D01*
X29271428Y-19262380D02*
X28795238Y-19262380D01*
X28795238Y-18262380D01*
X29271428Y-18262380D01*
X30033333Y-18738571D02*
X29700000Y-18738571D01*
X29700000Y-19262380D02*
X29700000Y-18262380D01*
X30176190Y-18262380D01*
X30700000Y-18262380D02*
X30700000Y-18500476D01*
X30461904Y-18405238D02*
X30700000Y-18500476D01*
X30938095Y-18405238D01*
X30557142Y-18690952D02*
X30700000Y-18500476D01*
X30842857Y-18690952D01*
X31461904Y-18262380D02*
X31461904Y-18500476D01*
X31223809Y-18405238D02*
X31461904Y-18500476D01*
X31700000Y-18405238D01*
X31319047Y-18690952D02*
X31461904Y-18500476D01*
X31604761Y-18690952D01*
%TO.C,U1*%
X115248095Y-64497380D02*
X115248095Y-65306904D01*
X115295714Y-65402142D01*
X115343333Y-65449761D01*
X115438571Y-65497380D01*
X115629047Y-65497380D01*
X115724285Y-65449761D01*
X115771904Y-65402142D01*
X115819523Y-65306904D01*
X115819523Y-64497380D01*
X116819523Y-65497380D02*
X116248095Y-65497380D01*
X116533809Y-65497380D02*
X116533809Y-64497380D01*
X116438571Y-64640238D01*
X116343333Y-64735476D01*
X116248095Y-64783095D01*
%TO.C,U11*%
X120307380Y-128233095D02*
X121116904Y-128233095D01*
X121212142Y-128185476D01*
X121259761Y-128137857D01*
X121307380Y-128042619D01*
X121307380Y-127852142D01*
X121259761Y-127756904D01*
X121212142Y-127709285D01*
X121116904Y-127661666D01*
X120307380Y-127661666D01*
X121307380Y-126661666D02*
X121307380Y-127233095D01*
X121307380Y-126947380D02*
X120307380Y-126947380D01*
X120450238Y-127042619D01*
X120545476Y-127137857D01*
X120593095Y-127233095D01*
X121307380Y-125709285D02*
X121307380Y-126280714D01*
X121307380Y-125995000D02*
X120307380Y-125995000D01*
X120450238Y-126090238D01*
X120545476Y-126185476D01*
X120593095Y-126280714D01*
%TO.C,U5*%
X33248095Y-19682380D02*
X33248095Y-20491904D01*
X33295714Y-20587142D01*
X33343333Y-20634761D01*
X33438571Y-20682380D01*
X33629047Y-20682380D01*
X33724285Y-20634761D01*
X33771904Y-20587142D01*
X33819523Y-20491904D01*
X33819523Y-19682380D01*
X34771904Y-19682380D02*
X34295714Y-19682380D01*
X34248095Y-20158571D01*
X34295714Y-20110952D01*
X34390952Y-20063333D01*
X34629047Y-20063333D01*
X34724285Y-20110952D01*
X34771904Y-20158571D01*
X34819523Y-20253809D01*
X34819523Y-20491904D01*
X34771904Y-20587142D01*
X34724285Y-20634761D01*
X34629047Y-20682380D01*
X34390952Y-20682380D01*
X34295714Y-20634761D01*
X34248095Y-20587142D01*
%TO.C,U6*%
X33248095Y-48697380D02*
X33248095Y-49506904D01*
X33295714Y-49602142D01*
X33343333Y-49649761D01*
X33438571Y-49697380D01*
X33629047Y-49697380D01*
X33724285Y-49649761D01*
X33771904Y-49602142D01*
X33819523Y-49506904D01*
X33819523Y-48697380D01*
X34724285Y-48697380D02*
X34533809Y-48697380D01*
X34438571Y-48745000D01*
X34390952Y-48792619D01*
X34295714Y-48935476D01*
X34248095Y-49125952D01*
X34248095Y-49506904D01*
X34295714Y-49602142D01*
X34343333Y-49649761D01*
X34438571Y-49697380D01*
X34629047Y-49697380D01*
X34724285Y-49649761D01*
X34771904Y-49602142D01*
X34819523Y-49506904D01*
X34819523Y-49268809D01*
X34771904Y-49173571D01*
X34724285Y-49125952D01*
X34629047Y-49078333D01*
X34438571Y-49078333D01*
X34343333Y-49125952D01*
X34295714Y-49173571D01*
X34248095Y-49268809D01*
D12*
%TO.C,U9*%
X119915000Y-94045000D02*
X84115000Y-94045000D01*
X119855000Y-96535000D02*
X84175000Y-96535000D01*
X119855000Y-101995000D02*
X119855000Y-96535000D01*
X84115000Y-111945000D02*
X119915000Y-111945000D01*
X84175000Y-109455000D02*
X119855000Y-109455000D01*
X119855000Y-109455000D02*
X119855000Y-103995000D01*
X119915000Y-111945000D02*
X119915000Y-94045000D01*
X84175000Y-96535000D02*
X84175000Y-109455000D01*
X84115000Y-94045000D02*
X84115000Y-111945000D01*
X119855000Y-101995000D02*
G75*
G03*
X119855000Y-103995000I0J-1000000D01*
G01*
%TO.C,U10*%
X158855000Y-96535000D02*
X123175000Y-96535000D01*
X158855000Y-109455000D02*
X158855000Y-103995000D01*
X158915000Y-94045000D02*
X123115000Y-94045000D01*
X158915000Y-111945000D02*
X158915000Y-94045000D01*
X123115000Y-94045000D02*
X123115000Y-111945000D01*
X123175000Y-109455000D02*
X158855000Y-109455000D01*
X158855000Y-101995000D02*
X158855000Y-96535000D01*
X123175000Y-96535000D02*
X123175000Y-109455000D01*
X123115000Y-111945000D02*
X158915000Y-111945000D01*
X158855000Y-101995000D02*
G75*
G03*
X158855000Y-103995000I0J-1000000D01*
G01*
%TO.C,R2*%
X112853272Y-45400000D02*
G75*
G03*
X112744775Y-47171380I-1453272J-800000D01*
G01*
%TO.C,U3*%
X130360000Y-84210000D02*
X135660000Y-84210000D01*
X138150000Y-63710000D02*
X127870000Y-63710000D01*
X135660000Y-63770000D02*
X134010000Y-63770000D01*
X132010000Y-63770000D02*
X130360000Y-63770000D01*
X135660000Y-84210000D02*
X135660000Y-63770000D01*
X138150000Y-84270000D02*
X138150000Y-63710000D01*
X130360000Y-63770000D02*
X130360000Y-84210000D01*
X127870000Y-84270000D02*
X138150000Y-84270000D01*
X127870000Y-63710000D02*
X127870000Y-84270000D01*
X132010000Y-63770000D02*
G75*
G03*
X134010000Y-63770000I1000000J0D01*
G01*
%TO.C,D1*%
X108565000Y-39745000D02*
X108565000Y-36655000D01*
X108565000Y-36655170D02*
G75*
G03*
X103015000Y-38200462I-2560000J-1544830D01*
G01*
X103015000Y-38199538D02*
G75*
G03*
X108565000Y-39744830I2990000J-462D01*
G01*
X108505000Y-38200000D02*
G75*
G03*
X108505000Y-38200000I-2500000J0D01*
G01*
%TO.C,R1*%
X106053272Y-45400000D02*
G75*
G03*
X105944775Y-47171380I-1453272J-800000D01*
G01*
%TO.C,D3*%
X122040000Y-39745000D02*
X122040000Y-36655000D01*
X122040000Y-36655170D02*
G75*
G03*
X116490000Y-38200462I-2560000J-1544830D01*
G01*
X116490000Y-38199538D02*
G75*
G03*
X122040000Y-39744830I2990000J-462D01*
G01*
X121980000Y-38200000D02*
G75*
G03*
X121980000Y-38200000I-2500000J0D01*
G01*
%TO.C,J4*%
X78490000Y-127700000D02*
X69860000Y-127700000D01*
X78490000Y-133606670D02*
X69860000Y-133606670D01*
X78490000Y-134905715D02*
X69860000Y-134905715D01*
X78490000Y-135141905D02*
X69860000Y-135141905D01*
X69860000Y-106470000D02*
X69450000Y-106470000D01*
X78490000Y-132898100D02*
X69860000Y-132898100D01*
X78490000Y-135023810D02*
X69860000Y-135023810D01*
X69860000Y-115910000D02*
X69450000Y-115910000D01*
X78490000Y-134669525D02*
X69860000Y-134669525D01*
X69860000Y-131870000D02*
X69450000Y-131870000D01*
X69860000Y-134410000D02*
X69510000Y-134410000D01*
X69860000Y-108290000D02*
X69450000Y-108290000D01*
X69860000Y-128610000D02*
X69450000Y-128610000D01*
X78490000Y-109920000D02*
X69860000Y-109920000D01*
X69860000Y-126790000D02*
X69450000Y-126790000D01*
X69860000Y-113370000D02*
X69450000Y-113370000D01*
X78490000Y-133016195D02*
X69860000Y-133016195D01*
X69860000Y-131150000D02*
X69450000Y-131150000D01*
X78490000Y-94620000D02*
X69860000Y-94620000D01*
X69860000Y-135380000D02*
X69860000Y-94620000D01*
X78490000Y-99760000D02*
X69860000Y-99760000D01*
X69860000Y-100670000D02*
X69450000Y-100670000D01*
X69860000Y-118450000D02*
X69450000Y-118450000D01*
X69860000Y-121710000D02*
X69450000Y-121710000D01*
X78490000Y-104840000D02*
X69860000Y-104840000D01*
X69860000Y-119170000D02*
X69450000Y-119170000D01*
X69860000Y-116630000D02*
X69450000Y-116630000D01*
X69860000Y-103210000D02*
X69450000Y-103210000D01*
X69860000Y-110830000D02*
X69450000Y-110830000D01*
X69860000Y-98130000D02*
X69450000Y-98130000D01*
X69860000Y-98850000D02*
X69450000Y-98850000D01*
X67290000Y-135380000D02*
X67290000Y-134050000D01*
X78490000Y-132780000D02*
X69860000Y-132780000D01*
X69860000Y-133690000D02*
X69510000Y-133690000D01*
X69860000Y-129330000D02*
X69450000Y-129330000D01*
X69860000Y-111550000D02*
X69450000Y-111550000D01*
X69860000Y-126070000D02*
X69450000Y-126070000D01*
X78490000Y-134079050D02*
X69860000Y-134079050D01*
X68400000Y-135380000D02*
X67290000Y-135380000D01*
X69860000Y-105750000D02*
X69450000Y-105750000D01*
X78490000Y-135380000D02*
X69860000Y-135380000D01*
X78490000Y-117540000D02*
X69860000Y-117540000D01*
X69860000Y-103930000D02*
X69450000Y-103930000D01*
X78490000Y-133842860D02*
X69860000Y-133842860D01*
X69860000Y-109010000D02*
X69450000Y-109010000D01*
X78490000Y-130240000D02*
X69860000Y-130240000D01*
X78490000Y-125160000D02*
X69860000Y-125160000D01*
X78490000Y-134197145D02*
X69860000Y-134197145D01*
X78490000Y-102300000D02*
X69860000Y-102300000D01*
X78490000Y-135260000D02*
X69860000Y-135260000D01*
X78490000Y-133252385D02*
X69860000Y-133252385D01*
X69860000Y-101390000D02*
X69450000Y-101390000D01*
X78490000Y-120080000D02*
X69860000Y-120080000D01*
X78490000Y-135380000D02*
X78490000Y-94620000D01*
X78490000Y-134315240D02*
X69860000Y-134315240D01*
X69860000Y-123530000D02*
X69450000Y-123530000D01*
X78490000Y-134433335D02*
X69860000Y-134433335D01*
X69860000Y-124250000D02*
X69450000Y-124250000D01*
X69860000Y-120990000D02*
X69450000Y-120990000D01*
X78490000Y-115000000D02*
X69860000Y-115000000D01*
X78490000Y-133724765D02*
X69860000Y-133724765D01*
X78490000Y-122620000D02*
X69860000Y-122620000D01*
X69860000Y-114090000D02*
X69450000Y-114090000D01*
X78490000Y-133960955D02*
X69860000Y-133960955D01*
X78490000Y-134787620D02*
X69860000Y-134787620D01*
X78490000Y-97220000D02*
X69860000Y-97220000D01*
X78490000Y-133370480D02*
X69860000Y-133370480D01*
X69860000Y-96310000D02*
X69450000Y-96310000D01*
X78490000Y-133134290D02*
X69860000Y-133134290D01*
X78490000Y-133488575D02*
X69860000Y-133488575D01*
X78490000Y-134551430D02*
X69860000Y-134551430D01*
X78490000Y-107380000D02*
X69860000Y-107380000D01*
X69860000Y-95590000D02*
X69450000Y-95590000D01*
X78490000Y-112460000D02*
X69860000Y-112460000D01*
%TO.C,R3*%
X119453272Y-45400000D02*
G75*
G03*
X119344775Y-47171380I-1453272J-800000D01*
G01*
%TO.C,D2*%
X115290000Y-39745000D02*
X115290000Y-36655000D01*
X109740000Y-38199538D02*
G75*
G03*
X115290000Y-39744830I2990000J-462D01*
G01*
X115290000Y-36655170D02*
G75*
G03*
X109740000Y-38200462I-2560000J-1544830D01*
G01*
X115230000Y-38200000D02*
G75*
G03*
X115230000Y-38200000I-2500000J0D01*
G01*
%TO.C,C1*%
X40380000Y-57320000D02*
X45620000Y-57320000D01*
X40380000Y-57320000D02*
X40380000Y-49080000D01*
X45620000Y-57320000D02*
X45620000Y-49080000D01*
X40380000Y-49080000D02*
X45620000Y-49080000D01*
%TO.C,J3*%
X150080000Y-57710000D02*
X149670000Y-57710000D01*
X150080000Y-66050000D02*
X149670000Y-66050000D01*
X150080000Y-68590000D02*
X149670000Y-68590000D01*
X150080000Y-78030000D02*
X149670000Y-78030000D01*
X158710000Y-61880000D02*
X150080000Y-61880000D01*
X150080000Y-55170000D02*
X149670000Y-55170000D01*
X150080000Y-78750000D02*
X149670000Y-78750000D01*
X150080000Y-65330000D02*
X149670000Y-65330000D01*
X150080000Y-85650000D02*
X149670000Y-85650000D01*
X150080000Y-76210000D02*
X149670000Y-76210000D01*
X150080000Y-88190000D02*
X149670000Y-88190000D01*
X150080000Y-88910000D02*
X149670000Y-88910000D01*
X158710000Y-89938100D02*
X150080000Y-89938100D01*
X150080000Y-70410000D02*
X149670000Y-70410000D01*
X150080000Y-72950000D02*
X149670000Y-72950000D01*
X158710000Y-91000955D02*
X150080000Y-91000955D01*
X158710000Y-56800000D02*
X150080000Y-56800000D01*
X158710000Y-91355240D02*
X150080000Y-91355240D01*
X150080000Y-91450000D02*
X149730000Y-91450000D01*
X150080000Y-52630000D02*
X149670000Y-52630000D01*
X158710000Y-91945715D02*
X150080000Y-91945715D01*
X158710000Y-90292385D02*
X150080000Y-90292385D01*
X150080000Y-71130000D02*
X149670000Y-71130000D01*
X158710000Y-91591430D02*
X150080000Y-91591430D01*
X150080000Y-86370000D02*
X149670000Y-86370000D01*
X158710000Y-72040000D02*
X150080000Y-72040000D01*
X158710000Y-74580000D02*
X150080000Y-74580000D01*
X158710000Y-91709525D02*
X150080000Y-91709525D01*
X158710000Y-90056195D02*
X150080000Y-90056195D01*
X158710000Y-91473335D02*
X150080000Y-91473335D01*
X150080000Y-83110000D02*
X149670000Y-83110000D01*
X158710000Y-54260000D02*
X150080000Y-54260000D01*
X158710000Y-92181905D02*
X150080000Y-92181905D01*
X158710000Y-92300000D02*
X150080000Y-92300000D01*
X158710000Y-90646670D02*
X150080000Y-90646670D01*
X158710000Y-92420000D02*
X150080000Y-92420000D01*
X158710000Y-59340000D02*
X150080000Y-59340000D01*
X158710000Y-84740000D02*
X150080000Y-84740000D01*
X158710000Y-82200000D02*
X150080000Y-82200000D01*
X150080000Y-55890000D02*
X149670000Y-55890000D01*
X150080000Y-80570000D02*
X149670000Y-80570000D01*
X150080000Y-73670000D02*
X149670000Y-73670000D01*
X158710000Y-89820000D02*
X150080000Y-89820000D01*
X150080000Y-60250000D02*
X149670000Y-60250000D01*
X158710000Y-87280000D02*
X150080000Y-87280000D01*
X150080000Y-53350000D02*
X149670000Y-53350000D01*
X147510000Y-92420000D02*
X147510000Y-91090000D01*
X158710000Y-92420000D02*
X158710000Y-51660000D01*
X150080000Y-62790000D02*
X149670000Y-62790000D01*
X150080000Y-63510000D02*
X149670000Y-63510000D01*
X158710000Y-90410480D02*
X150080000Y-90410480D01*
X158710000Y-90174290D02*
X150080000Y-90174290D01*
X150080000Y-75490000D02*
X149670000Y-75490000D01*
X150080000Y-92420000D02*
X150080000Y-51660000D01*
X150080000Y-58430000D02*
X149670000Y-58430000D01*
X148620000Y-92420000D02*
X147510000Y-92420000D01*
X150080000Y-81290000D02*
X149670000Y-81290000D01*
X150080000Y-90730000D02*
X149730000Y-90730000D01*
X158710000Y-92063810D02*
X150080000Y-92063810D01*
X158710000Y-69500000D02*
X150080000Y-69500000D01*
X158710000Y-79660000D02*
X150080000Y-79660000D01*
X158710000Y-91237145D02*
X150080000Y-91237145D01*
X158710000Y-90528575D02*
X150080000Y-90528575D01*
X158710000Y-91827620D02*
X150080000Y-91827620D01*
X150080000Y-60970000D02*
X149670000Y-60970000D01*
X158710000Y-90882860D02*
X150080000Y-90882860D01*
X150080000Y-67870000D02*
X149670000Y-67870000D01*
X158710000Y-77120000D02*
X150080000Y-77120000D01*
X158710000Y-51660000D02*
X150080000Y-51660000D01*
X158710000Y-90764765D02*
X150080000Y-90764765D01*
X150080000Y-83830000D02*
X149670000Y-83830000D01*
X158710000Y-64420000D02*
X150080000Y-64420000D01*
X158710000Y-91119050D02*
X150080000Y-91119050D01*
X158710000Y-66960000D02*
X150080000Y-66960000D01*
%TO.C,U2*%
X94870000Y-84005000D02*
X105150000Y-84005000D01*
X102660000Y-83945000D02*
X102660000Y-66045000D01*
X99010000Y-66045000D02*
X97360000Y-66045000D01*
X97360000Y-83945000D02*
X102660000Y-83945000D01*
X105150000Y-65985000D02*
X94870000Y-65985000D01*
X102660000Y-66045000D02*
X101010000Y-66045000D01*
X94870000Y-65985000D02*
X94870000Y-84005000D01*
X97360000Y-66045000D02*
X97360000Y-83945000D01*
X105150000Y-84005000D02*
X105150000Y-65985000D01*
X99010000Y-66045000D02*
G75*
G03*
X101010000Y-66045000I1000000J0D01*
G01*
%TO.C,U12*%
X158855000Y-133355000D02*
X158855000Y-127895000D01*
X123175000Y-133355000D02*
X158855000Y-133355000D01*
X123115000Y-117945000D02*
X123115000Y-135845000D01*
X158915000Y-135845000D02*
X158915000Y-117945000D01*
X158855000Y-120435000D02*
X123175000Y-120435000D01*
X123115000Y-135845000D02*
X158915000Y-135845000D01*
X158855000Y-125895000D02*
X158855000Y-120435000D01*
X123175000Y-120435000D02*
X123175000Y-133355000D01*
X158915000Y-117945000D02*
X123115000Y-117945000D01*
X158855000Y-125895000D02*
G75*
G03*
X158855000Y-127895000I0J-1000000D01*
G01*
%TO.C,J2*%
X66440000Y-49440000D02*
X66440000Y-54640000D01*
X66440000Y-51095235D02*
X75070000Y-51095235D01*
X66440000Y-51685710D02*
X75070000Y-51685710D01*
X75070000Y-51130000D02*
X75420000Y-51130000D01*
X66440000Y-51449520D02*
X75070000Y-51449520D01*
X66440000Y-50977140D02*
X75070000Y-50977140D01*
X66440000Y-49440000D02*
X75070000Y-49440000D01*
X66440000Y-49796190D02*
X75070000Y-49796190D01*
X77640000Y-49440000D02*
X77640000Y-50770000D01*
X75070000Y-52950000D02*
X75480000Y-52950000D01*
X66440000Y-50740950D02*
X75070000Y-50740950D01*
X66440000Y-50032380D02*
X75070000Y-50032380D01*
X66440000Y-50268570D02*
X75070000Y-50268570D01*
X66440000Y-51803805D02*
X75070000Y-51803805D01*
X66440000Y-51921900D02*
X75070000Y-51921900D01*
X76530000Y-49440000D02*
X77640000Y-49440000D01*
X66440000Y-51567615D02*
X75070000Y-51567615D01*
X66440000Y-52040000D02*
X75070000Y-52040000D01*
X66440000Y-50622855D02*
X75070000Y-50622855D01*
X66440000Y-51331425D02*
X75070000Y-51331425D01*
X66440000Y-49678095D02*
X75070000Y-49678095D01*
X66440000Y-49560000D02*
X75070000Y-49560000D01*
X66440000Y-50504760D02*
X75070000Y-50504760D01*
X75070000Y-53670000D02*
X75480000Y-53670000D01*
X66440000Y-50150475D02*
X75070000Y-50150475D01*
X75070000Y-49440000D02*
X75070000Y-54640000D01*
X66440000Y-50859045D02*
X75070000Y-50859045D01*
X66440000Y-51213330D02*
X75070000Y-51213330D01*
X66440000Y-49914285D02*
X75070000Y-49914285D01*
X75070000Y-50410000D02*
X75420000Y-50410000D01*
X66440000Y-54640000D02*
X75070000Y-54640000D01*
X66440000Y-50386665D02*
X75070000Y-50386665D01*
%TO.C,C2*%
X147120000Y-140180000D02*
X147120000Y-145420000D01*
X138880000Y-140180000D02*
X147120000Y-140180000D01*
X138880000Y-145420000D02*
X147120000Y-145420000D01*
X138880000Y-140180000D02*
X138880000Y-145420000D01*
%TO.C,C3*%
X129480000Y-90620000D02*
X137720000Y-90620000D01*
X129480000Y-85380000D02*
X129480000Y-90620000D01*
X129480000Y-85380000D02*
X137720000Y-85380000D01*
X137720000Y-85380000D02*
X137720000Y-90620000D01*
%TO.C,J1*%
X23730000Y-20000000D02*
X23730000Y-18730000D01*
X23730000Y-18730000D02*
X25000000Y-18730000D01*
%TO.C,U1*%
X118660000Y-83945000D02*
X118660000Y-66045000D01*
X118660000Y-66045000D02*
X117010000Y-66045000D01*
X115010000Y-66045000D02*
X113360000Y-66045000D01*
X121150000Y-84005000D02*
X121150000Y-65985000D01*
X121150000Y-65985000D02*
X110870000Y-65985000D01*
X110870000Y-84005000D02*
X121150000Y-84005000D01*
X113360000Y-66045000D02*
X113360000Y-83945000D01*
X113360000Y-83945000D02*
X118660000Y-83945000D01*
X110870000Y-65985000D02*
X110870000Y-84005000D01*
X115010000Y-66045000D02*
G75*
G03*
X117010000Y-66045000I1000000J0D01*
G01*
%TO.C,U11*%
X119915000Y-135945000D02*
X119915000Y-118045000D01*
X84115000Y-135945000D02*
X119915000Y-135945000D01*
X119915000Y-118045000D02*
X84115000Y-118045000D01*
X84175000Y-133455000D02*
X119855000Y-133455000D01*
X84175000Y-120535000D02*
X84175000Y-133455000D01*
X84115000Y-118045000D02*
X84115000Y-135945000D01*
X119855000Y-133455000D02*
X119855000Y-127995000D01*
X119855000Y-125995000D02*
X119855000Y-120535000D01*
X119855000Y-120535000D02*
X84175000Y-120535000D01*
X119855000Y-125995000D02*
G75*
G03*
X119855000Y-127995000I0J-1000000D01*
G01*
%TO.C,U5*%
X31360000Y-21230000D02*
X31360000Y-46750000D01*
X31360000Y-46750000D02*
X36660000Y-46750000D01*
X28870000Y-46810000D02*
X39150000Y-46810000D01*
X36660000Y-46750000D02*
X36660000Y-21230000D01*
X28870000Y-21170000D02*
X28870000Y-46810000D01*
X39150000Y-46810000D02*
X39150000Y-21170000D01*
X39150000Y-21170000D02*
X28870000Y-21170000D01*
X33010000Y-21230000D02*
X31360000Y-21230000D01*
X36660000Y-21230000D02*
X35010000Y-21230000D01*
X33010000Y-21230000D02*
G75*
G03*
X35010000Y-21230000I1000000J0D01*
G01*
%TO.C,U6*%
X39150000Y-50185000D02*
X28870000Y-50185000D01*
X28870000Y-50185000D02*
X28870000Y-75825000D01*
X31360000Y-75765000D02*
X36660000Y-75765000D01*
X36660000Y-50245000D02*
X35010000Y-50245000D01*
X36660000Y-75765000D02*
X36660000Y-50245000D01*
X33010000Y-50245000D02*
X31360000Y-50245000D01*
X31360000Y-50245000D02*
X31360000Y-75765000D01*
X39150000Y-75825000D02*
X39150000Y-50185000D01*
X28870000Y-75825000D02*
X39150000Y-75825000D01*
X33010000Y-50245000D02*
G75*
G03*
X35010000Y-50245000I1000000J0D01*
G01*
%TD*%
M02*
