%TF.GenerationSoftware,KiCad,Pcbnew,6.0.1-79c1e3a40b~116~ubuntu21.10.1*%
%TF.CreationDate,2022-02-14T17:54:15+01:00*%
%TF.ProjectId,memory,6d656d6f-7279-42e6-9b69-6361645f7063,v.3*%
%TF.SameCoordinates,Original*%
%TF.FileFunction,Legend,Bot*%
%TF.FilePolarity,Positive*%
%FSLAX46Y46*%
G04 Gerber Fmt 4.6, Leading zero omitted, Abs format (unit mm)*
G04 Created by KiCad (PCBNEW 6.0.1-79c1e3a40b~116~ubuntu21.10.1) date 2022-02-14 17:54:15*
%MOMM*%
%LPD*%
G01*
G04 APERTURE LIST*
%ADD10C,0.150000*%
%ADD11C,0.120000*%
G04 APERTURE END LIST*
D10*
%TO.C,U4*%
X59876904Y-27182380D02*
X59876904Y-27991904D01*
X59829285Y-28087142D01*
X59781666Y-28134761D01*
X59686428Y-28182380D01*
X59495952Y-28182380D01*
X59400714Y-28134761D01*
X59353095Y-28087142D01*
X59305476Y-27991904D01*
X59305476Y-27182380D01*
X58400714Y-27515714D02*
X58400714Y-28182380D01*
X58638809Y-27134761D02*
X58876904Y-27849047D01*
X58257857Y-27849047D01*
D11*
X62457071Y-114200000D02*
X62060000Y-114200000D01*
X53400000Y-76100000D02*
X59400000Y-76100000D01*
X62457071Y-62640000D02*
X62060000Y-62640000D01*
X53400000Y-65180000D02*
X53400000Y-65940000D01*
X59400000Y-49940000D02*
X53400000Y-49940000D01*
X59400000Y-98200000D02*
X53400000Y-98200000D01*
X62060000Y-125250000D02*
X59400000Y-125250000D01*
X59400000Y-85500000D02*
X53400000Y-85500000D01*
X62457071Y-49940000D02*
X62060000Y-49940000D01*
X62457071Y-80420000D02*
X62060000Y-80420000D01*
X59400000Y-123600000D02*
X53400000Y-123600000D01*
X53400000Y-49940000D02*
X53400000Y-50700000D01*
X53400000Y-90580000D02*
X53400000Y-91340000D01*
X53400000Y-93880000D02*
X59400000Y-93880000D01*
X59400000Y-108360000D02*
X53400000Y-108360000D01*
X53400000Y-126900000D02*
X59400000Y-126900000D01*
X59400000Y-128680000D02*
X53400000Y-128680000D01*
X62457071Y-98200000D02*
X62060000Y-98200000D01*
X53400000Y-32920000D02*
X59400000Y-32920000D01*
X53400000Y-34700000D02*
X53400000Y-35460000D01*
X62457071Y-88040000D02*
X62060000Y-88040000D01*
X62457071Y-57560000D02*
X62060000Y-57560000D01*
X62457071Y-105820000D02*
X62060000Y-105820000D01*
X62457071Y-32160000D02*
X62060000Y-32160000D01*
X59400000Y-100740000D02*
X53400000Y-100740000D01*
X62060000Y-41430000D02*
X59400000Y-41430000D01*
X62457071Y-52480000D02*
X62060000Y-52480000D01*
X53400000Y-81180000D02*
X59400000Y-81180000D01*
X53400000Y-124360000D02*
X59400000Y-124360000D01*
X62457071Y-68480000D02*
X62060000Y-68480000D01*
X62457071Y-32920000D02*
X62060000Y-32920000D01*
X53400000Y-37240000D02*
X53400000Y-38000000D01*
X53400000Y-30380000D02*
X59400000Y-30380000D01*
X62457071Y-65940000D02*
X62060000Y-65940000D01*
X59400000Y-103280000D02*
X53400000Y-103280000D01*
X53400000Y-110900000D02*
X53400000Y-111660000D01*
X53400000Y-93120000D02*
X53400000Y-93880000D01*
X62457071Y-96420000D02*
X62060000Y-96420000D01*
X62060000Y-117630000D02*
X59400000Y-117630000D01*
X62457071Y-75340000D02*
X62060000Y-75340000D01*
X59400000Y-29920000D02*
X53400000Y-29920000D01*
X62457071Y-39780000D02*
X62060000Y-39780000D01*
X53400000Y-55020000D02*
X53400000Y-55780000D01*
X53400000Y-113440000D02*
X53400000Y-114200000D01*
X62457071Y-104040000D02*
X62060000Y-104040000D01*
X53400000Y-88040000D02*
X53400000Y-88800000D01*
X62457071Y-116740000D02*
X62060000Y-116740000D01*
X62457071Y-86260000D02*
X62060000Y-86260000D01*
X62390000Y-29620000D02*
X62060000Y-29620000D01*
X62457071Y-134586040D02*
X62060000Y-134586040D01*
X53400000Y-65940000D02*
X59400000Y-65940000D01*
X62060000Y-51590000D02*
X59400000Y-51590000D01*
X62060000Y-97310000D02*
X59400000Y-97310000D01*
X53400000Y-40540000D02*
X59400000Y-40540000D01*
X59400000Y-135476040D02*
X59400000Y-28670000D01*
X62457071Y-132046040D02*
X62060000Y-132046040D01*
X53400000Y-85500000D02*
X53400000Y-86260000D01*
X62060000Y-31270000D02*
X59400000Y-31270000D01*
X53400000Y-108360000D02*
X53400000Y-109120000D01*
X62060000Y-130396040D02*
X59400000Y-130396040D01*
X53400000Y-115980000D02*
X53400000Y-116740000D01*
X62457071Y-100740000D02*
X62060000Y-100740000D01*
X62060000Y-104930000D02*
X59400000Y-104930000D01*
X53400000Y-55780000D02*
X59400000Y-55780000D01*
X59400000Y-113440000D02*
X53400000Y-113440000D01*
X62060000Y-112550000D02*
X59400000Y-112550000D01*
X62060000Y-33810000D02*
X59400000Y-33810000D01*
X62060000Y-64290000D02*
X59400000Y-64290000D01*
X62457071Y-67720000D02*
X62060000Y-67720000D01*
X53400000Y-60100000D02*
X53400000Y-60860000D01*
X59400000Y-55020000D02*
X53400000Y-55020000D01*
X59400000Y-131286040D02*
X53400000Y-131286040D01*
X62457071Y-55020000D02*
X62060000Y-55020000D01*
X62060000Y-99850000D02*
X59400000Y-99850000D01*
X53400000Y-133826040D02*
X53400000Y-134586040D01*
X53400000Y-118520000D02*
X53400000Y-119280000D01*
X62457071Y-82960000D02*
X62060000Y-82960000D01*
X53400000Y-35460000D02*
X59400000Y-35460000D01*
X53400000Y-86260000D02*
X59400000Y-86260000D01*
X59400000Y-42320000D02*
X53400000Y-42320000D01*
X53400000Y-101500000D02*
X59400000Y-101500000D01*
X53400000Y-128680000D02*
X53400000Y-129440000D01*
X62457071Y-44860000D02*
X62060000Y-44860000D01*
X53400000Y-91340000D02*
X59400000Y-91340000D01*
X59400000Y-30040000D02*
X53400000Y-30040000D01*
X62060000Y-38890000D02*
X59400000Y-38890000D01*
X53400000Y-82960000D02*
X53400000Y-83720000D01*
X59400000Y-80420000D02*
X53400000Y-80420000D01*
X62457071Y-110900000D02*
X62060000Y-110900000D01*
X59400000Y-29620000D02*
X53400000Y-29620000D01*
X53400000Y-38000000D02*
X59400000Y-38000000D01*
X62457071Y-37240000D02*
X62060000Y-37240000D01*
X62457071Y-55780000D02*
X62060000Y-55780000D01*
X62457071Y-48160000D02*
X62060000Y-48160000D01*
X62457071Y-109120000D02*
X62060000Y-109120000D01*
X62060000Y-69370000D02*
X59400000Y-69370000D01*
X53400000Y-29620000D02*
X53400000Y-30380000D01*
X53400000Y-119280000D02*
X59400000Y-119280000D01*
X59400000Y-39780000D02*
X53400000Y-39780000D01*
X62060000Y-66830000D02*
X59400000Y-66830000D01*
X53400000Y-98960000D02*
X59400000Y-98960000D01*
X53400000Y-80420000D02*
X53400000Y-81180000D01*
X62457071Y-121820000D02*
X62060000Y-121820000D01*
X53400000Y-48160000D02*
X59400000Y-48160000D01*
X53400000Y-58320000D02*
X59400000Y-58320000D01*
X64770000Y-30000000D02*
X64770000Y-28730000D01*
X53400000Y-57560000D02*
X53400000Y-58320000D01*
X62457071Y-124360000D02*
X62060000Y-124360000D01*
X62457071Y-91340000D02*
X62060000Y-91340000D01*
X62060000Y-120170000D02*
X59400000Y-120170000D01*
X59400000Y-133826040D02*
X53400000Y-133826040D01*
X53400000Y-116740000D02*
X59400000Y-116740000D01*
X62457071Y-128680000D02*
X62060000Y-128680000D01*
X53400000Y-100740000D02*
X53400000Y-101500000D01*
X62457071Y-133826040D02*
X62060000Y-133826040D01*
X62390000Y-30380000D02*
X62060000Y-30380000D01*
X53400000Y-103280000D02*
X53400000Y-104040000D01*
X62060000Y-102390000D02*
X59400000Y-102390000D01*
X53400000Y-95660000D02*
X53400000Y-96420000D01*
X59400000Y-29680000D02*
X53400000Y-29680000D01*
X62060000Y-89690000D02*
X59400000Y-89690000D01*
X62457071Y-88800000D02*
X62060000Y-88800000D01*
X53400000Y-75340000D02*
X53400000Y-76100000D01*
X53400000Y-47400000D02*
X53400000Y-48160000D01*
X62060000Y-79530000D02*
X59400000Y-79530000D01*
X53400000Y-43080000D02*
X59400000Y-43080000D01*
X53400000Y-52480000D02*
X53400000Y-53240000D01*
X62060000Y-122710000D02*
X59400000Y-122710000D01*
X53400000Y-88800000D02*
X59400000Y-88800000D01*
X53400000Y-68480000D02*
X59400000Y-68480000D01*
X53400000Y-72800000D02*
X53400000Y-73560000D01*
X53400000Y-44860000D02*
X53400000Y-45620000D01*
X62060000Y-61750000D02*
X59400000Y-61750000D01*
X62060000Y-36350000D02*
X59400000Y-36350000D01*
X62457071Y-58320000D02*
X62060000Y-58320000D01*
X59400000Y-110900000D02*
X53400000Y-110900000D01*
X62457071Y-38000000D02*
X62060000Y-38000000D01*
X53400000Y-106580000D02*
X59400000Y-106580000D01*
X53400000Y-62640000D02*
X53400000Y-63400000D01*
X53400000Y-53240000D02*
X59400000Y-53240000D01*
X62060000Y-54130000D02*
X59400000Y-54130000D01*
X62457071Y-121060000D02*
X62060000Y-121060000D01*
X62060000Y-132936040D02*
X59400000Y-132936040D01*
X59400000Y-70260000D02*
X53400000Y-70260000D01*
X53400000Y-45620000D02*
X59400000Y-45620000D01*
X59400000Y-62640000D02*
X53400000Y-62640000D01*
X62457071Y-126140000D02*
X62060000Y-126140000D01*
X62457071Y-77880000D02*
X62060000Y-77880000D01*
X62457071Y-47400000D02*
X62060000Y-47400000D01*
X62457071Y-78640000D02*
X62060000Y-78640000D01*
X53400000Y-32160000D02*
X53400000Y-32920000D01*
X62060000Y-49050000D02*
X59400000Y-49050000D01*
X53400000Y-109120000D02*
X59400000Y-109120000D01*
X59400000Y-105820000D02*
X53400000Y-105820000D01*
X62457071Y-50700000D02*
X62060000Y-50700000D01*
X59400000Y-32160000D02*
X53400000Y-32160000D01*
X62457071Y-103280000D02*
X62060000Y-103280000D01*
X62060000Y-107470000D02*
X59400000Y-107470000D01*
X62060000Y-84610000D02*
X59400000Y-84610000D01*
X59400000Y-30160000D02*
X53400000Y-30160000D01*
X53400000Y-73560000D02*
X59400000Y-73560000D01*
X59400000Y-52480000D02*
X53400000Y-52480000D01*
X62060000Y-43970000D02*
X59400000Y-43970000D01*
X59400000Y-34700000D02*
X53400000Y-34700000D01*
X53400000Y-134586040D02*
X59400000Y-134586040D01*
X62457071Y-42320000D02*
X62060000Y-42320000D01*
X62457071Y-93880000D02*
X62060000Y-93880000D01*
X62060000Y-94770000D02*
X59400000Y-94770000D01*
X62457071Y-131286040D02*
X62060000Y-131286040D01*
X59400000Y-82960000D02*
X53400000Y-82960000D01*
X53400000Y-50700000D02*
X59400000Y-50700000D01*
X59400000Y-30280000D02*
X53400000Y-30280000D01*
X62060000Y-92230000D02*
X59400000Y-92230000D01*
X59400000Y-37240000D02*
X53400000Y-37240000D01*
X59400000Y-65180000D02*
X53400000Y-65180000D01*
X62457071Y-115980000D02*
X62060000Y-115980000D01*
X62457071Y-118520000D02*
X62060000Y-118520000D01*
X53400000Y-131286040D02*
X53400000Y-132046040D01*
X62457071Y-35460000D02*
X62060000Y-35460000D01*
X62060000Y-82070000D02*
X59400000Y-82070000D01*
X62457071Y-45620000D02*
X62060000Y-45620000D01*
X62457071Y-71020000D02*
X62060000Y-71020000D01*
X62457071Y-111660000D02*
X62060000Y-111660000D01*
X59400000Y-44860000D02*
X53400000Y-44860000D01*
X53400000Y-70260000D02*
X53400000Y-71020000D01*
X62457071Y-76100000D02*
X62060000Y-76100000D01*
X59400000Y-93120000D02*
X53400000Y-93120000D01*
X59400000Y-126140000D02*
X53400000Y-126140000D01*
X53400000Y-111660000D02*
X59400000Y-111660000D01*
X53400000Y-98200000D02*
X53400000Y-98960000D01*
X59400000Y-95660000D02*
X53400000Y-95660000D01*
X62457071Y-73560000D02*
X62060000Y-73560000D01*
X59400000Y-121060000D02*
X53400000Y-121060000D01*
X53400000Y-67720000D02*
X53400000Y-68480000D01*
X62457071Y-90580000D02*
X62060000Y-90580000D01*
X53400000Y-121060000D02*
X53400000Y-121820000D01*
X62060000Y-28670000D02*
X62060000Y-135476040D01*
X62457071Y-83720000D02*
X62060000Y-83720000D01*
X62457071Y-98960000D02*
X62060000Y-98960000D01*
X62060000Y-127790000D02*
X59400000Y-127790000D01*
X62060000Y-74450000D02*
X59400000Y-74450000D01*
X64770000Y-28730000D02*
X63500000Y-28730000D01*
X62060000Y-115090000D02*
X59400000Y-115090000D01*
X62060000Y-59210000D02*
X59400000Y-59210000D01*
X59400000Y-88040000D02*
X53400000Y-88040000D01*
X59400000Y-28670000D02*
X62060000Y-28670000D01*
X53400000Y-42320000D02*
X53400000Y-43080000D01*
X59400000Y-72800000D02*
X53400000Y-72800000D01*
X62457071Y-85500000D02*
X62060000Y-85500000D01*
X62457071Y-60860000D02*
X62060000Y-60860000D01*
X53400000Y-71020000D02*
X59400000Y-71020000D01*
X59400000Y-67720000D02*
X53400000Y-67720000D01*
X59400000Y-47400000D02*
X53400000Y-47400000D01*
X53400000Y-78640000D02*
X59400000Y-78640000D01*
X62457071Y-119280000D02*
X62060000Y-119280000D01*
X59400000Y-115980000D02*
X53400000Y-115980000D01*
X62457071Y-34700000D02*
X62060000Y-34700000D01*
X59400000Y-57560000D02*
X53400000Y-57560000D01*
X62457071Y-108360000D02*
X62060000Y-108360000D01*
X53400000Y-60860000D02*
X59400000Y-60860000D01*
X62457071Y-126900000D02*
X62060000Y-126900000D01*
X62060000Y-46510000D02*
X59400000Y-46510000D01*
X53400000Y-83720000D02*
X59400000Y-83720000D01*
X53400000Y-123600000D02*
X53400000Y-124360000D01*
X53400000Y-114200000D02*
X59400000Y-114200000D01*
X59400000Y-75340000D02*
X53400000Y-75340000D01*
X62457071Y-60100000D02*
X62060000Y-60100000D01*
X62060000Y-71910000D02*
X59400000Y-71910000D01*
X62457071Y-53240000D02*
X62060000Y-53240000D01*
X53400000Y-39780000D02*
X53400000Y-40540000D01*
X59400000Y-29800000D02*
X53400000Y-29800000D01*
X62060000Y-110010000D02*
X59400000Y-110010000D01*
X62457071Y-101500000D02*
X62060000Y-101500000D01*
X59400000Y-77880000D02*
X53400000Y-77880000D01*
X53400000Y-96420000D02*
X59400000Y-96420000D01*
X53400000Y-129440000D02*
X59400000Y-129440000D01*
X53400000Y-105820000D02*
X53400000Y-106580000D01*
X53400000Y-104040000D02*
X59400000Y-104040000D01*
X59400000Y-118520000D02*
X53400000Y-118520000D01*
X62457071Y-72800000D02*
X62060000Y-72800000D01*
X62457071Y-40540000D02*
X62060000Y-40540000D01*
X53400000Y-121820000D02*
X59400000Y-121820000D01*
X62457071Y-65180000D02*
X62060000Y-65180000D01*
X53400000Y-63400000D02*
X59400000Y-63400000D01*
X62457071Y-81180000D02*
X62060000Y-81180000D01*
X62457071Y-70260000D02*
X62060000Y-70260000D01*
X62457071Y-123600000D02*
X62060000Y-123600000D01*
X62060000Y-87150000D02*
X59400000Y-87150000D01*
X62457071Y-113440000D02*
X62060000Y-113440000D01*
X62060000Y-135476040D02*
X59400000Y-135476040D01*
X62457071Y-95660000D02*
X62060000Y-95660000D01*
X59400000Y-60100000D02*
X53400000Y-60100000D01*
X62457071Y-106580000D02*
X62060000Y-106580000D01*
X62060000Y-56670000D02*
X59400000Y-56670000D01*
X62060000Y-76990000D02*
X59400000Y-76990000D01*
X59400000Y-90580000D02*
X53400000Y-90580000D01*
X53400000Y-77880000D02*
X53400000Y-78640000D01*
X53400000Y-132046040D02*
X59400000Y-132046040D01*
X62457071Y-129440000D02*
X62060000Y-129440000D01*
X62457071Y-43080000D02*
X62060000Y-43080000D01*
X62457071Y-93120000D02*
X62060000Y-93120000D01*
X53400000Y-126140000D02*
X53400000Y-126900000D01*
X62457071Y-63400000D02*
X62060000Y-63400000D01*
%TD*%
M02*
