%TF.GenerationSoftware,KiCad,Pcbnew,6.0.1-79c1e3a40b~116~ubuntu21.10.1*%
%TF.CreationDate,2022-01-27T16:20:25+01:00*%
%TF.ProjectId,dual_register,6475616c-5f72-4656-9769-737465722e6b,rev?*%
%TF.SameCoordinates,Original*%
%TF.FileFunction,Copper,L1,Top*%
%TF.FilePolarity,Positive*%
%FSLAX46Y46*%
G04 Gerber Fmt 4.6, Leading zero omitted, Abs format (unit mm)*
G04 Created by KiCad (PCBNEW 6.0.1-79c1e3a40b~116~ubuntu21.10.1) date 2022-01-27 16:20:25*
%MOMM*%
%LPD*%
G01*
G04 APERTURE LIST*
%ADD10C,1.000000*%
%TA.AperFunction,NonConductor*%
%ADD11C,1.000000*%
%TD*%
%TA.AperFunction,ComponentPad*%
%ADD12C,2.000000*%
%TD*%
%TA.AperFunction,ComponentPad*%
%ADD13R,1.800000X1.800000*%
%TD*%
%TA.AperFunction,ComponentPad*%
%ADD14C,1.800000*%
%TD*%
%TA.AperFunction,ComponentPad*%
%ADD15R,1.700000X1.700000*%
%TD*%
%TA.AperFunction,ComponentPad*%
%ADD16O,1.700000X1.700000*%
%TD*%
%TA.AperFunction,ComponentPad*%
%ADD17C,1.600000*%
%TD*%
%TA.AperFunction,ComponentPad*%
%ADD18O,1.600000X1.600000*%
%TD*%
%TA.AperFunction,ComponentPad*%
%ADD19R,1.600000X1.600000*%
%TD*%
%TA.AperFunction,ComponentPad*%
%ADD20R,1.350000X1.350000*%
%TD*%
%TA.AperFunction,ComponentPad*%
%ADD21O,1.350000X1.350000*%
%TD*%
%TA.AperFunction,ViaPad*%
%ADD22C,1.500000*%
%TD*%
%TA.AperFunction,Conductor*%
%ADD23C,0.600000*%
%TD*%
%TA.AperFunction,Conductor*%
%ADD24C,1.000000*%
%TD*%
G04 APERTURE END LIST*
D10*
D11*
X38638095Y-42414285D02*
X43638095Y-42414285D01*
X43638095Y-43604761D01*
X43400000Y-44319047D01*
X42923809Y-44795238D01*
X42447619Y-45033333D01*
X41495238Y-45271428D01*
X40780952Y-45271428D01*
X39828571Y-45033333D01*
X39352380Y-44795238D01*
X38876190Y-44319047D01*
X38638095Y-43604761D01*
X38638095Y-42414285D01*
X41971428Y-49557142D02*
X38638095Y-49557142D01*
X41971428Y-47414285D02*
X39352380Y-47414285D01*
X38876190Y-47652380D01*
X38638095Y-48128571D01*
X38638095Y-48842857D01*
X38876190Y-49319047D01*
X39114285Y-49557142D01*
X38638095Y-54080952D02*
X41257142Y-54080952D01*
X41733333Y-53842857D01*
X41971428Y-53366666D01*
X41971428Y-52414285D01*
X41733333Y-51938095D01*
X38876190Y-54080952D02*
X38638095Y-53604761D01*
X38638095Y-52414285D01*
X38876190Y-51938095D01*
X39352380Y-51700000D01*
X39828571Y-51700000D01*
X40304761Y-51938095D01*
X40542857Y-52414285D01*
X40542857Y-53604761D01*
X40780952Y-54080952D01*
X38638095Y-57176190D02*
X38876190Y-56700000D01*
X39352380Y-56461904D01*
X43638095Y-56461904D01*
X38638095Y-65747619D02*
X41019047Y-64080952D01*
X38638095Y-62890476D02*
X43638095Y-62890476D01*
X43638095Y-64795238D01*
X43400000Y-65271428D01*
X43161904Y-65509523D01*
X42685714Y-65747619D01*
X41971428Y-65747619D01*
X41495238Y-65509523D01*
X41257142Y-65271428D01*
X41019047Y-64795238D01*
X41019047Y-62890476D01*
X38876190Y-69795238D02*
X38638095Y-69319047D01*
X38638095Y-68366666D01*
X38876190Y-67890476D01*
X39352380Y-67652380D01*
X41257142Y-67652380D01*
X41733333Y-67890476D01*
X41971428Y-68366666D01*
X41971428Y-69319047D01*
X41733333Y-69795238D01*
X41257142Y-70033333D01*
X40780952Y-70033333D01*
X40304761Y-67652380D01*
X41971428Y-74319047D02*
X37923809Y-74319047D01*
X37447619Y-74080952D01*
X37209523Y-73842857D01*
X36971428Y-73366666D01*
X36971428Y-72652380D01*
X37209523Y-72176190D01*
X38876190Y-74319047D02*
X38638095Y-73842857D01*
X38638095Y-72890476D01*
X38876190Y-72414285D01*
X39114285Y-72176190D01*
X39590476Y-71938095D01*
X41019047Y-71938095D01*
X41495238Y-72176190D01*
X41733333Y-72414285D01*
X41971428Y-72890476D01*
X41971428Y-73842857D01*
X41733333Y-74319047D01*
X38638095Y-76700000D02*
X41971428Y-76700000D01*
X43638095Y-76700000D02*
X43400000Y-76461904D01*
X43161904Y-76700000D01*
X43400000Y-76938095D01*
X43638095Y-76700000D01*
X43161904Y-76700000D01*
X38876190Y-78842857D02*
X38638095Y-79319047D01*
X38638095Y-80271428D01*
X38876190Y-80747619D01*
X39352380Y-80985714D01*
X39590476Y-80985714D01*
X40066666Y-80747619D01*
X40304761Y-80271428D01*
X40304761Y-79557142D01*
X40542857Y-79080952D01*
X41019047Y-78842857D01*
X41257142Y-78842857D01*
X41733333Y-79080952D01*
X41971428Y-79557142D01*
X41971428Y-80271428D01*
X41733333Y-80747619D01*
X41971428Y-82414285D02*
X41971428Y-84319047D01*
X43638095Y-83128571D02*
X39352380Y-83128571D01*
X38876190Y-83366666D01*
X38638095Y-83842857D01*
X38638095Y-84319047D01*
X38876190Y-87890476D02*
X38638095Y-87414285D01*
X38638095Y-86461904D01*
X38876190Y-85985714D01*
X39352380Y-85747619D01*
X41257142Y-85747619D01*
X41733333Y-85985714D01*
X41971428Y-86461904D01*
X41971428Y-87414285D01*
X41733333Y-87890476D01*
X41257142Y-88128571D01*
X40780952Y-88128571D01*
X40304761Y-85747619D01*
X38638095Y-90271428D02*
X41971428Y-90271428D01*
X41019047Y-90271428D02*
X41495238Y-90509523D01*
X41733333Y-90747619D01*
X41971428Y-91223809D01*
X41971428Y-91700000D01*
X30588095Y-58723809D02*
X32969047Y-57057142D01*
X30588095Y-55866666D02*
X35588095Y-55866666D01*
X35588095Y-57771428D01*
X35350000Y-58247619D01*
X35111904Y-58485714D01*
X34635714Y-58723809D01*
X33921428Y-58723809D01*
X33445238Y-58485714D01*
X33207142Y-58247619D01*
X32969047Y-57771428D01*
X32969047Y-55866666D01*
X30826190Y-62771428D02*
X30588095Y-62295238D01*
X30588095Y-61342857D01*
X30826190Y-60866666D01*
X31302380Y-60628571D01*
X33207142Y-60628571D01*
X33683333Y-60866666D01*
X33921428Y-61342857D01*
X33921428Y-62295238D01*
X33683333Y-62771428D01*
X33207142Y-63009523D01*
X32730952Y-63009523D01*
X32254761Y-60628571D01*
X33921428Y-64676190D02*
X30588095Y-65866666D01*
X33921428Y-67057142D01*
X31064285Y-68961904D02*
X30826190Y-69200000D01*
X30588095Y-68961904D01*
X30826190Y-68723809D01*
X31064285Y-68961904D01*
X30588095Y-68961904D01*
X35588095Y-77533333D02*
X35588095Y-75152380D01*
X33207142Y-74914285D01*
X33445238Y-75152380D01*
X33683333Y-75628571D01*
X33683333Y-76819047D01*
X33445238Y-77295238D01*
X33207142Y-77533333D01*
X32730952Y-77771428D01*
X31540476Y-77771428D01*
X31064285Y-77533333D01*
X30826190Y-77295238D01*
X30588095Y-76819047D01*
X30588095Y-75628571D01*
X30826190Y-75152380D01*
X31064285Y-74914285D01*
D12*
%TO.P,C5,1*%
%TO.N,GND*%
X220710000Y-78705000D03*
%TO.P,C5,2*%
%TO.N,+5V*%
X220710000Y-83705000D03*
%TD*%
D13*
%TO.P,D1,1,K*%
%TO.N,Net-(D1-Pad1)*%
X92710000Y-48430000D03*
D14*
%TO.P,D1,2,A*%
%TO.N,Net-(D1-Pad2)*%
X92710000Y-50970000D03*
%TD*%
D15*
%TO.P,U1,1,Mode_R0*%
%TO.N,unconnected-(U1-Pad1)*%
X209672000Y-42040500D03*
D16*
%TO.P,U1,2,Mode_R1*%
%TO.N,unconnected-(U1-Pad2)*%
X207132000Y-42040500D03*
%TO.P,U1,3,Mode_R2*%
%TO.N,unconnected-(U1-Pad3)*%
X204592000Y-42040500D03*
%TO.P,U1,4,Mode_W0*%
%TO.N,Net-(D2-Pad2)*%
X202052000Y-42040500D03*
%TO.P,U1,5,Mode_W1*%
%TO.N,unconnected-(U1-Pad5)*%
X199512000Y-42040500D03*
%TO.P,U1,6,Mode_W2*%
%TO.N,unconnected-(U1-Pad6)*%
X196972000Y-42040500D03*
%TO.P,U1,7,WE_R*%
%TO.N,unconnected-(U1-Pad7)*%
X194432000Y-42040500D03*
%TO.P,U1,8,WE_F*%
%TO.N,Net-(U1-Pad8)*%
X191892000Y-42040500D03*
%TO.P,U1,9,WE*%
%TO.N,unconnected-(U1-Pad9)*%
X189352000Y-42040500D03*
%TO.P,U1,10*%
%TO.N,N/C*%
X186812000Y-42040500D03*
%TO.P,U1,11,from_Bus0*%
%TO.N,Net-(U1-Pad11)*%
X184272000Y-42040500D03*
%TO.P,U1,12,from_Bus1*%
%TO.N,Net-(U1-Pad12)*%
X181732000Y-42040500D03*
%TO.P,U1,13,from_Bus2*%
%TO.N,Net-(U1-Pad13)*%
X179192000Y-42040500D03*
%TO.P,U1,14,from_Bus3*%
%TO.N,Net-(U1-Pad14)*%
X176652000Y-42040500D03*
%TO.P,U1,15,from_Bus4*%
%TO.N,Net-(U1-Pad15)*%
X174112000Y-42040500D03*
%TO.P,U1,16,from_Bus5*%
%TO.N,Net-(U1-Pad16)*%
X171572000Y-42040500D03*
%TO.P,U1,17,from_Bus6*%
%TO.N,Net-(U1-Pad17)*%
X169032000Y-42040500D03*
%TO.P,U1,18,from_Bus7*%
%TO.N,Net-(U1-Pad18)*%
X166492000Y-42040500D03*
%TO.P,U1,19,from_Bus8*%
%TO.N,Net-(U1-Pad19)*%
X163952000Y-42040500D03*
%TO.P,U1,20,from_Bus9*%
%TO.N,Net-(U1-Pad20)*%
X161412000Y-42040500D03*
%TO.P,U1,21,from_Bus10*%
%TO.N,Net-(U1-Pad21)*%
X158872000Y-42040500D03*
%TO.P,U1,22,from_Bus11*%
%TO.N,Net-(U1-Pad22)*%
X156332000Y-42040500D03*
%TO.P,U1,23,from_Bus12*%
%TO.N,Net-(U1-Pad23)*%
X153792000Y-42040500D03*
%TO.P,U1,24,from_Bus13*%
%TO.N,Net-(U1-Pad24)*%
X151252000Y-42040500D03*
%TO.P,U1,25,from_Bus14*%
%TO.N,Net-(U1-Pad25)*%
X148712000Y-42040500D03*
%TO.P,U1,26,from_Bus15*%
%TO.N,Net-(U1-Pad26)*%
X146172000Y-42040500D03*
%TO.P,U1,27*%
%TO.N,N/C*%
X143632000Y-42040500D03*
%TO.P,U1,28*%
X141092000Y-42040500D03*
%TO.P,U1,29*%
X138552000Y-42040500D03*
%TO.P,U1,30*%
X136012000Y-42040500D03*
%TO.P,U1,31*%
X133472000Y-42040500D03*
%TO.P,U1,32*%
X130932000Y-42040500D03*
%TO.P,U1,33*%
X128392000Y-42040500D03*
%TO.P,U1,34*%
X125852000Y-42040500D03*
%TO.P,U1,35*%
X123312000Y-42040500D03*
%TO.P,U1,36*%
X120772000Y-42040500D03*
%TO.P,U1,37*%
X118232000Y-42040500D03*
%TO.P,U1,38*%
X115692000Y-42040500D03*
%TO.P,U1,39*%
X113152000Y-42040500D03*
%TO.P,U1,40*%
X110612000Y-42040500D03*
%TO.P,U1,41*%
X108072000Y-42040500D03*
%TO.P,U1,42*%
X105532000Y-42040500D03*
%TD*%
D12*
%TO.P,C1,1*%
%TO.N,GND*%
X220710000Y-44455000D03*
%TO.P,C1,2*%
%TO.N,+5V*%
X215710000Y-44455000D03*
%TD*%
%TO.P,C2,1*%
%TO.N,GND*%
X73960000Y-92705000D03*
%TO.P,C2,2*%
%TO.N,+5V*%
X73960000Y-97705000D03*
%TD*%
D17*
%TO.P,R1,1*%
%TO.N,Net-(D1-Pad1)*%
X86960000Y-48560000D03*
D18*
%TO.P,R1,2*%
%TO.N,GND*%
X86960000Y-51100000D03*
%TD*%
D19*
%TO.P,U5,1,~{OE}*%
%TO.N,GND*%
X159575000Y-77375000D03*
D18*
%TO.P,U5,2,1D*%
%TO.N,Net-(U3-Pad19)*%
X157035000Y-77375000D03*
%TO.P,U5,3,2D*%
%TO.N,Net-(U3-Pad18)*%
X154495000Y-77375000D03*
%TO.P,U5,4,3D*%
%TO.N,Net-(U3-Pad17)*%
X151955000Y-77375000D03*
%TO.P,U5,5,4D*%
%TO.N,Net-(U3-Pad16)*%
X149415000Y-77375000D03*
%TO.P,U5,6,5D*%
%TO.N,Net-(U3-Pad15)*%
X146875000Y-77375000D03*
%TO.P,U5,7,6D*%
%TO.N,Net-(U3-Pad14)*%
X144335000Y-77375000D03*
%TO.P,U5,8,7D*%
%TO.N,Net-(U3-Pad13)*%
X141795000Y-77375000D03*
%TO.P,U5,9,8D*%
%TO.N,Net-(U3-Pad12)*%
X139255000Y-77375000D03*
%TO.P,U5,10,GND*%
%TO.N,GND*%
X136715000Y-77375000D03*
%TO.P,U5,11,LE*%
%TO.N,Net-(U4-Pad11)*%
X136715000Y-84995000D03*
%TO.P,U5,12,8Q*%
%TO.N,Net-(J2-Pad16)*%
X139255000Y-84995000D03*
%TO.P,U5,13,7Q*%
%TO.N,Net-(J2-Pad15)*%
X141795000Y-84995000D03*
%TO.P,U5,14,6Q*%
%TO.N,Net-(J2-Pad14)*%
X144335000Y-84995000D03*
%TO.P,U5,15,5Q*%
%TO.N,Net-(J2-Pad13)*%
X146875000Y-84995000D03*
%TO.P,U5,16,4Q*%
%TO.N,Net-(J2-Pad12)*%
X149415000Y-84995000D03*
%TO.P,U5,17,3Q*%
%TO.N,Net-(J2-Pad11)*%
X151955000Y-84995000D03*
%TO.P,U5,18,2Q*%
%TO.N,Net-(J2-Pad10)*%
X154495000Y-84995000D03*
%TO.P,U5,19,1Q*%
%TO.N,Net-(J2-Pad9)*%
X157035000Y-84995000D03*
%TO.P,U5,20,VCC*%
%TO.N,+5V*%
X159575000Y-84995000D03*
%TD*%
D13*
%TO.P,D2,1,K*%
%TO.N,Net-(D2-Pad1)*%
X92710000Y-55455000D03*
D14*
%TO.P,D2,2,A*%
%TO.N,Net-(D2-Pad2)*%
X92710000Y-57995000D03*
%TD*%
D12*
%TO.P,C6,1*%
%TO.N,GND*%
X102710000Y-78205000D03*
%TO.P,C6,2*%
%TO.N,+5V*%
X102710000Y-83205000D03*
%TD*%
D19*
%TO.P,U2,1,~{OE}*%
%TO.N,GND*%
X186691000Y-54405000D03*
D18*
%TO.P,U2,2,1D*%
%TO.N,Net-(U1-Pad11)*%
X184151000Y-54405000D03*
%TO.P,U2,3,2D*%
%TO.N,Net-(U1-Pad12)*%
X181611000Y-54405000D03*
%TO.P,U2,4,3D*%
%TO.N,Net-(U1-Pad13)*%
X179071000Y-54405000D03*
%TO.P,U2,5,4D*%
%TO.N,Net-(U1-Pad14)*%
X176531000Y-54405000D03*
%TO.P,U2,6,5D*%
%TO.N,Net-(U1-Pad15)*%
X173991000Y-54405000D03*
%TO.P,U2,7,6D*%
%TO.N,Net-(U1-Pad16)*%
X171451000Y-54405000D03*
%TO.P,U2,8,7D*%
%TO.N,Net-(U1-Pad17)*%
X168911000Y-54405000D03*
%TO.P,U2,9,8D*%
%TO.N,Net-(U1-Pad18)*%
X166371000Y-54405000D03*
%TO.P,U2,10,GND*%
%TO.N,GND*%
X163831000Y-54405000D03*
%TO.P,U2,11,LE*%
%TO.N,Net-(J1-Pad3)*%
X163831000Y-62025000D03*
%TO.P,U2,12,8Q*%
%TO.N,Net-(U2-Pad12)*%
X166371000Y-62025000D03*
%TO.P,U2,13,7Q*%
%TO.N,Net-(U2-Pad13)*%
X168911000Y-62025000D03*
%TO.P,U2,14,6Q*%
%TO.N,Net-(U2-Pad14)*%
X171451000Y-62025000D03*
%TO.P,U2,15,5Q*%
%TO.N,Net-(U2-Pad15)*%
X173991000Y-62025000D03*
%TO.P,U2,16,4Q*%
%TO.N,Net-(U2-Pad16)*%
X176531000Y-62025000D03*
%TO.P,U2,17,3Q*%
%TO.N,Net-(U2-Pad17)*%
X179071000Y-62025000D03*
%TO.P,U2,18,2Q*%
%TO.N,Net-(U2-Pad18)*%
X181611000Y-62025000D03*
%TO.P,U2,19,1Q*%
%TO.N,Net-(U2-Pad19)*%
X184151000Y-62025000D03*
%TO.P,U2,20,VCC*%
%TO.N,+5V*%
X186691000Y-62025000D03*
%TD*%
D19*
%TO.P,U6,1,~{OE}*%
%TO.N,GND*%
X215985000Y-77355000D03*
D18*
%TO.P,U6,2,1D*%
%TO.N,Net-(U2-Pad19)*%
X213445000Y-77355000D03*
%TO.P,U6,3,2D*%
%TO.N,Net-(U2-Pad18)*%
X210905000Y-77355000D03*
%TO.P,U6,4,3D*%
%TO.N,Net-(U2-Pad17)*%
X208365000Y-77355000D03*
%TO.P,U6,5,4D*%
%TO.N,Net-(U2-Pad16)*%
X205825000Y-77355000D03*
%TO.P,U6,6,5D*%
%TO.N,Net-(U2-Pad15)*%
X203285000Y-77355000D03*
%TO.P,U6,7,6D*%
%TO.N,Net-(U2-Pad14)*%
X200745000Y-77355000D03*
%TO.P,U6,8,7D*%
%TO.N,Net-(U2-Pad13)*%
X198205000Y-77355000D03*
%TO.P,U6,9,8D*%
%TO.N,Net-(U2-Pad12)*%
X195665000Y-77355000D03*
%TO.P,U6,10,GND*%
%TO.N,GND*%
X193125000Y-77355000D03*
%TO.P,U6,11,LE*%
%TO.N,Net-(U6-Pad11)*%
X193125000Y-84975000D03*
%TO.P,U6,12,8Q*%
%TO.N,Net-(J3-Pad8)*%
X195665000Y-84975000D03*
%TO.P,U6,13,7Q*%
%TO.N,Net-(J3-Pad7)*%
X198205000Y-84975000D03*
%TO.P,U6,14,6Q*%
%TO.N,Net-(J3-Pad6)*%
X200745000Y-84975000D03*
%TO.P,U6,15,5Q*%
%TO.N,Net-(J3-Pad5)*%
X203285000Y-84975000D03*
%TO.P,U6,16,4Q*%
%TO.N,Net-(J3-Pad4)*%
X205825000Y-84975000D03*
%TO.P,U6,17,3Q*%
%TO.N,Net-(J3-Pad3)*%
X208365000Y-84975000D03*
%TO.P,U6,18,2Q*%
%TO.N,Net-(J3-Pad2)*%
X210905000Y-84975000D03*
%TO.P,U6,19,1Q*%
%TO.N,Net-(J3-Pad1)*%
X213445000Y-84975000D03*
%TO.P,U6,20,VCC*%
%TO.N,+5V*%
X215985000Y-84975000D03*
%TD*%
D12*
%TO.P,C4,1*%
%TO.N,GND*%
X64460000Y-92705000D03*
%TO.P,C4,2*%
%TO.N,+5V*%
X64460000Y-97705000D03*
%TD*%
D15*
%TO.P,J1,1,GND*%
%TO.N,GND*%
X220710000Y-19705000D03*
D16*
%TO.P,J1,2,Vcc*%
%TO.N,+5V*%
X218170000Y-19705000D03*
%TO.P,J1,3,CLK_R*%
%TO.N,Net-(J1-Pad3)*%
X215630000Y-19705000D03*
%TO.P,J1,4,CLK_F*%
%TO.N,unconnected-(J1-Pad4)*%
X213090000Y-19705000D03*
%TO.P,J1,5*%
%TO.N,N/C*%
X210550000Y-19705000D03*
%TO.P,J1,6*%
X208010000Y-19705000D03*
%TO.P,J1,7*%
X205470000Y-19705000D03*
%TO.P,J1,8*%
X202930000Y-19705000D03*
%TO.P,J1,9*%
X200390000Y-19705000D03*
%TO.P,J1,10*%
X197850000Y-19705000D03*
%TO.P,J1,11*%
X195310000Y-19705000D03*
%TO.P,J1,12*%
X192770000Y-19705000D03*
%TO.P,J1,13*%
X190230000Y-19705000D03*
%TO.P,J1,14*%
X187690000Y-19705000D03*
%TO.P,J1,15*%
X185150000Y-19705000D03*
%TO.P,J1,16*%
X182610000Y-19705000D03*
%TO.P,J1,17*%
X180070000Y-19705000D03*
%TO.P,J1,18*%
X177530000Y-19705000D03*
%TO.P,J1,19*%
X174990000Y-19705000D03*
%TO.P,J1,20*%
X172450000Y-19705000D03*
%TO.P,J1,21*%
X169910000Y-19705000D03*
%TO.P,J1,22*%
X167370000Y-19705000D03*
%TO.P,J1,23*%
X164830000Y-19705000D03*
%TO.P,J1,24*%
X162290000Y-19705000D03*
%TO.P,J1,25*%
X159750000Y-19705000D03*
%TO.P,J1,26*%
X157210000Y-19705000D03*
%TO.P,J1,27*%
X154670000Y-19705000D03*
%TO.P,J1,28*%
X152130000Y-19705000D03*
%TO.P,J1,29*%
X149590000Y-19705000D03*
%TO.P,J1,30*%
X147050000Y-19705000D03*
%TO.P,J1,31*%
X144510000Y-19705000D03*
%TO.P,J1,32*%
X141970000Y-19705000D03*
%TO.P,J1,33*%
X139430000Y-19705000D03*
%TO.P,J1,34*%
X136890000Y-19705000D03*
%TO.P,J1,35*%
X134350000Y-19705000D03*
%TO.P,J1,36*%
X131810000Y-19705000D03*
%TO.P,J1,37*%
X129270000Y-19705000D03*
%TO.P,J1,38*%
X126730000Y-19705000D03*
%TO.P,J1,39*%
X124190000Y-19705000D03*
%TO.P,J1,40*%
X121650000Y-19705000D03*
%TO.P,J1,41*%
X119110000Y-19705000D03*
%TO.P,J1,42*%
X116570000Y-19705000D03*
%TO.P,J1,43*%
X114030000Y-19705000D03*
%TO.P,J1,44*%
X111490000Y-19705000D03*
%TO.P,J1,45*%
X108950000Y-19705000D03*
%TO.P,J1,46*%
X106410000Y-19705000D03*
%TO.P,J1,47*%
X103870000Y-19705000D03*
%TO.P,J1,48*%
X101330000Y-19705000D03*
%TO.P,J1,49*%
X98790000Y-19705000D03*
%TO.P,J1,50*%
X96250000Y-19705000D03*
%TO.P,J1,51*%
X93710000Y-19705000D03*
%TO.P,J1,52*%
X91170000Y-19705000D03*
%TO.P,J1,53*%
X88630000Y-19705000D03*
%TO.P,J1,54*%
X86090000Y-19705000D03*
%TO.P,J1,55*%
X83550000Y-19705000D03*
%TO.P,J1,56*%
X81010000Y-19705000D03*
%TO.P,J1,57*%
X78470000Y-19705000D03*
%TO.P,J1,58*%
X75930000Y-19705000D03*
%TO.P,J1,59*%
X73390000Y-19705000D03*
%TO.P,J1,60*%
X70850000Y-19705000D03*
%TO.P,J1,61*%
X68310000Y-19705000D03*
%TO.P,J1,62*%
X65770000Y-19705000D03*
%TO.P,J1,63*%
X63230000Y-19705000D03*
%TO.P,J1,64*%
X60690000Y-19705000D03*
%TO.P,J1,65,Sup*%
%TO.N,Net-(J1-Pad65)*%
X58150000Y-19705000D03*
%TO.P,J1,66,Set_Sup*%
%TO.N,unconnected-(J1-Pad66)*%
X55610000Y-19705000D03*
%TO.P,J1,67,Reset_Sup*%
%TO.N,unconnected-(J1-Pad67)*%
X53070000Y-19705000D03*
%TO.P,J1,68*%
%TO.N,N/C*%
X50530000Y-19705000D03*
%TO.P,J1,69*%
X47990000Y-19705000D03*
%TO.P,J1,70*%
X45450000Y-19705000D03*
%TO.P,J1,71*%
X42910000Y-19705000D03*
%TO.P,J1,72*%
X40370000Y-19705000D03*
%TO.P,J1,73*%
X37830000Y-19705000D03*
%TO.P,J1,74*%
X35290000Y-19705000D03*
%TO.P,J1,75*%
X32750000Y-19705000D03*
%TO.P,J1,76*%
X30210000Y-19705000D03*
%TO.P,J1,77*%
X27670000Y-19705000D03*
%TO.P,J1,78*%
X25130000Y-19705000D03*
%TD*%
D17*
%TO.P,R2,1*%
%TO.N,Net-(D2-Pad1)*%
X86960000Y-55585000D03*
D18*
%TO.P,R2,2*%
%TO.N,GND*%
X86960000Y-58125000D03*
%TD*%
D20*
%TO.P,J4,1,Pin_1*%
%TO.N,Net-(J1-Pad65)*%
X81210000Y-95205000D03*
D21*
%TO.P,J4,2,Pin_2*%
%TO.N,Net-(J4-Pad2)*%
X83210000Y-95205000D03*
%TO.P,J4,3,Pin_3*%
%TO.N,+5V*%
X85210000Y-95205000D03*
%TD*%
D19*
%TO.P,U4,1,~{OE}*%
%TO.N,GND*%
X186685000Y-77305000D03*
D18*
%TO.P,U4,2,1D*%
%TO.N,Net-(U2-Pad19)*%
X184145000Y-77305000D03*
%TO.P,U4,3,2D*%
%TO.N,Net-(U2-Pad18)*%
X181605000Y-77305000D03*
%TO.P,U4,4,3D*%
%TO.N,Net-(U2-Pad17)*%
X179065000Y-77305000D03*
%TO.P,U4,5,4D*%
%TO.N,Net-(U2-Pad16)*%
X176525000Y-77305000D03*
%TO.P,U4,6,5D*%
%TO.N,Net-(U2-Pad15)*%
X173985000Y-77305000D03*
%TO.P,U4,7,6D*%
%TO.N,Net-(U2-Pad14)*%
X171445000Y-77305000D03*
%TO.P,U4,8,7D*%
%TO.N,Net-(U2-Pad13)*%
X168905000Y-77305000D03*
%TO.P,U4,9,8D*%
%TO.N,Net-(U2-Pad12)*%
X166365000Y-77305000D03*
%TO.P,U4,10,GND*%
%TO.N,GND*%
X163825000Y-77305000D03*
%TO.P,U4,11,LE*%
%TO.N,Net-(U4-Pad11)*%
X163825000Y-84925000D03*
%TO.P,U4,12,8Q*%
%TO.N,Net-(J2-Pad8)*%
X166365000Y-84925000D03*
%TO.P,U4,13,7Q*%
%TO.N,Net-(J2-Pad7)*%
X168905000Y-84925000D03*
%TO.P,U4,14,6Q*%
%TO.N,Net-(J2-Pad6)*%
X171445000Y-84925000D03*
%TO.P,U4,15,5Q*%
%TO.N,Net-(J2-Pad5)*%
X173985000Y-84925000D03*
%TO.P,U4,16,4Q*%
%TO.N,Net-(J2-Pad4)*%
X176525000Y-84925000D03*
%TO.P,U4,17,3Q*%
%TO.N,Net-(J2-Pad3)*%
X179065000Y-84925000D03*
%TO.P,U4,18,2Q*%
%TO.N,Net-(J2-Pad2)*%
X181605000Y-84925000D03*
%TO.P,U4,19,1Q*%
%TO.N,Net-(J2-Pad1)*%
X184145000Y-84925000D03*
%TO.P,U4,20,VCC*%
%TO.N,+5V*%
X186685000Y-84925000D03*
%TD*%
D20*
%TO.P,J3,1,Pin_1*%
%TO.N,Net-(J3-Pad1)*%
X168710000Y-109205000D03*
D21*
%TO.P,J3,2,Pin_2*%
%TO.N,Net-(J3-Pad2)*%
X166710000Y-109205000D03*
%TO.P,J3,3,Pin_3*%
%TO.N,Net-(J3-Pad3)*%
X164710000Y-109205000D03*
%TO.P,J3,4,Pin_4*%
%TO.N,Net-(J3-Pad4)*%
X162710000Y-109205000D03*
%TO.P,J3,5,Pin_5*%
%TO.N,Net-(J3-Pad5)*%
X160710000Y-109205000D03*
%TO.P,J3,6,Pin_6*%
%TO.N,Net-(J3-Pad6)*%
X158710000Y-109205000D03*
%TO.P,J3,7,Pin_7*%
%TO.N,Net-(J3-Pad7)*%
X156710000Y-109205000D03*
%TO.P,J3,8,Pin_8*%
%TO.N,Net-(J3-Pad8)*%
X154710000Y-109205000D03*
%TO.P,J3,9,Pin_9*%
%TO.N,Net-(J3-Pad9)*%
X152710000Y-109205000D03*
%TO.P,J3,10,Pin_10*%
%TO.N,Net-(J3-Pad10)*%
X150710000Y-109205000D03*
%TO.P,J3,11,Pin_11*%
%TO.N,Net-(J3-Pad11)*%
X148710000Y-109205000D03*
%TO.P,J3,12,Pin_12*%
%TO.N,Net-(J3-Pad12)*%
X146710000Y-109205000D03*
%TO.P,J3,13,Pin_13*%
%TO.N,Net-(J3-Pad13)*%
X144710000Y-109205000D03*
%TO.P,J3,14,Pin_14*%
%TO.N,Net-(J3-Pad14)*%
X142710000Y-109205000D03*
%TO.P,J3,15,Pin_15*%
%TO.N,Net-(J3-Pad15)*%
X140710000Y-109205000D03*
%TO.P,J3,16,Pin_16*%
%TO.N,Net-(J3-Pad16)*%
X138710000Y-109205000D03*
%TD*%
D20*
%TO.P,J2,1,Pin_1*%
%TO.N,Net-(J2-Pad1)*%
X169210000Y-97705000D03*
D21*
%TO.P,J2,2,Pin_2*%
%TO.N,Net-(J2-Pad2)*%
X167210000Y-97705000D03*
%TO.P,J2,3,Pin_3*%
%TO.N,Net-(J2-Pad3)*%
X165210000Y-97705000D03*
%TO.P,J2,4,Pin_4*%
%TO.N,Net-(J2-Pad4)*%
X163210000Y-97705000D03*
%TO.P,J2,5,Pin_5*%
%TO.N,Net-(J2-Pad5)*%
X161210000Y-97705000D03*
%TO.P,J2,6,Pin_6*%
%TO.N,Net-(J2-Pad6)*%
X159210000Y-97705000D03*
%TO.P,J2,7,Pin_7*%
%TO.N,Net-(J2-Pad7)*%
X157210000Y-97705000D03*
%TO.P,J2,8,Pin_8*%
%TO.N,Net-(J2-Pad8)*%
X155210000Y-97705000D03*
%TO.P,J2,9,Pin_9*%
%TO.N,Net-(J2-Pad9)*%
X153210000Y-97705000D03*
%TO.P,J2,10,Pin_10*%
%TO.N,Net-(J2-Pad10)*%
X151210000Y-97705000D03*
%TO.P,J2,11,Pin_11*%
%TO.N,Net-(J2-Pad11)*%
X149210000Y-97705000D03*
%TO.P,J2,12,Pin_12*%
%TO.N,Net-(J2-Pad12)*%
X147210000Y-97705000D03*
%TO.P,J2,13,Pin_13*%
%TO.N,Net-(J2-Pad13)*%
X145210000Y-97705000D03*
%TO.P,J2,14,Pin_14*%
%TO.N,Net-(J2-Pad14)*%
X143210000Y-97705000D03*
%TO.P,J2,15,Pin_15*%
%TO.N,Net-(J2-Pad15)*%
X141210000Y-97705000D03*
%TO.P,J2,16,Pin_16*%
%TO.N,Net-(J2-Pad16)*%
X139210000Y-97705000D03*
%TD*%
D19*
%TO.P,U9,1*%
%TO.N,N/C*%
X95710000Y-66205000D03*
D18*
%TO.P,U9,2*%
X93170000Y-66205000D03*
%TO.P,U9,3*%
X90630000Y-66205000D03*
%TO.P,U9,4*%
X88090000Y-66205000D03*
%TO.P,U9,5*%
X85550000Y-66205000D03*
%TO.P,U9,6*%
X83010000Y-66205000D03*
%TO.P,U9,7,GND*%
%TO.N,GND*%
X80470000Y-66205000D03*
%TO.P,U9,8*%
%TO.N,Net-(D1-Pad2)*%
X80470000Y-73825000D03*
%TO.P,U9,9*%
%TO.N,Net-(D2-Pad2)*%
X83010000Y-73825000D03*
%TO.P,U9,10*%
X85550000Y-73825000D03*
%TO.P,U9,11*%
%TO.N,N/C*%
X88090000Y-73825000D03*
%TO.P,U9,12*%
X90630000Y-73825000D03*
%TO.P,U9,13*%
X93170000Y-73825000D03*
%TO.P,U9,14,VCC*%
%TO.N,+5V*%
X95710000Y-73825000D03*
%TD*%
D19*
%TO.P,U7,1,~{OE}*%
%TO.N,GND*%
X130525000Y-77395000D03*
D18*
%TO.P,U7,2,1D*%
%TO.N,Net-(U3-Pad19)*%
X127985000Y-77395000D03*
%TO.P,U7,3,2D*%
%TO.N,Net-(U3-Pad18)*%
X125445000Y-77395000D03*
%TO.P,U7,4,3D*%
%TO.N,Net-(U3-Pad17)*%
X122905000Y-77395000D03*
%TO.P,U7,5,4D*%
%TO.N,Net-(U3-Pad16)*%
X120365000Y-77395000D03*
%TO.P,U7,6,5D*%
%TO.N,Net-(U3-Pad15)*%
X117825000Y-77395000D03*
%TO.P,U7,7,6D*%
%TO.N,Net-(U3-Pad14)*%
X115285000Y-77395000D03*
%TO.P,U7,8,7D*%
%TO.N,Net-(U3-Pad13)*%
X112745000Y-77395000D03*
%TO.P,U7,9,8D*%
%TO.N,Net-(U3-Pad12)*%
X110205000Y-77395000D03*
%TO.P,U7,10,GND*%
%TO.N,GND*%
X107665000Y-77395000D03*
%TO.P,U7,11,LE*%
%TO.N,Net-(U6-Pad11)*%
X107665000Y-85015000D03*
%TO.P,U7,12,8Q*%
%TO.N,Net-(J3-Pad16)*%
X110205000Y-85015000D03*
%TO.P,U7,13,7Q*%
%TO.N,Net-(J3-Pad15)*%
X112745000Y-85015000D03*
%TO.P,U7,14,6Q*%
%TO.N,Net-(J3-Pad14)*%
X115285000Y-85015000D03*
%TO.P,U7,15,5Q*%
%TO.N,Net-(J3-Pad13)*%
X117825000Y-85015000D03*
%TO.P,U7,16,4Q*%
%TO.N,Net-(J3-Pad12)*%
X120365000Y-85015000D03*
%TO.P,U7,17,3Q*%
%TO.N,Net-(J3-Pad11)*%
X122905000Y-85015000D03*
%TO.P,U7,18,2Q*%
%TO.N,Net-(J3-Pad10)*%
X125445000Y-85015000D03*
%TO.P,U7,19,1Q*%
%TO.N,Net-(J3-Pad9)*%
X127985000Y-85015000D03*
%TO.P,U7,20,VCC*%
%TO.N,+5V*%
X130525000Y-85015000D03*
%TD*%
D19*
%TO.P,U3,1,~{OE}*%
%TO.N,GND*%
X159635000Y-54405000D03*
D18*
%TO.P,U3,2,1D*%
%TO.N,Net-(U1-Pad19)*%
X157095000Y-54405000D03*
%TO.P,U3,3,2D*%
%TO.N,Net-(U1-Pad20)*%
X154555000Y-54405000D03*
%TO.P,U3,4,3D*%
%TO.N,Net-(U1-Pad21)*%
X152015000Y-54405000D03*
%TO.P,U3,5,4D*%
%TO.N,Net-(U1-Pad22)*%
X149475000Y-54405000D03*
%TO.P,U3,6,5D*%
%TO.N,Net-(U1-Pad23)*%
X146935000Y-54405000D03*
%TO.P,U3,7,6D*%
%TO.N,Net-(U1-Pad24)*%
X144395000Y-54405000D03*
%TO.P,U3,8,7D*%
%TO.N,Net-(U1-Pad25)*%
X141855000Y-54405000D03*
%TO.P,U3,9,8D*%
%TO.N,Net-(U1-Pad26)*%
X139315000Y-54405000D03*
%TO.P,U3,10,GND*%
%TO.N,GND*%
X136775000Y-54405000D03*
%TO.P,U3,11,LE*%
%TO.N,Net-(J1-Pad3)*%
X136775000Y-62025000D03*
%TO.P,U3,12,8Q*%
%TO.N,Net-(U3-Pad12)*%
X139315000Y-62025000D03*
%TO.P,U3,13,7Q*%
%TO.N,Net-(U3-Pad13)*%
X141855000Y-62025000D03*
%TO.P,U3,14,6Q*%
%TO.N,Net-(U3-Pad14)*%
X144395000Y-62025000D03*
%TO.P,U3,15,5Q*%
%TO.N,Net-(U3-Pad15)*%
X146935000Y-62025000D03*
%TO.P,U3,16,4Q*%
%TO.N,Net-(U3-Pad16)*%
X149475000Y-62025000D03*
%TO.P,U3,17,3Q*%
%TO.N,Net-(U3-Pad17)*%
X152015000Y-62025000D03*
%TO.P,U3,18,2Q*%
%TO.N,Net-(U3-Pad18)*%
X154555000Y-62025000D03*
%TO.P,U3,19,1Q*%
%TO.N,Net-(U3-Pad19)*%
X157095000Y-62025000D03*
%TO.P,U3,20,VCC*%
%TO.N,+5V*%
X159635000Y-62025000D03*
%TD*%
D19*
%TO.P,U8,1*%
%TO.N,Net-(U8-Pad1)*%
X95710000Y-82405000D03*
D18*
%TO.P,U8,2*%
%TO.N,Net-(D2-Pad2)*%
X93170000Y-82405000D03*
%TO.P,U8,3*%
%TO.N,Net-(U6-Pad11)*%
X90630000Y-82405000D03*
%TO.P,U8,4*%
%TO.N,Net-(D1-Pad2)*%
X88090000Y-82405000D03*
%TO.P,U8,5*%
%TO.N,Net-(U8-Pad1)*%
X85550000Y-82405000D03*
%TO.P,U8,6*%
%TO.N,Net-(U4-Pad11)*%
X83010000Y-82405000D03*
%TO.P,U8,7,GND*%
%TO.N,GND*%
X80470000Y-82405000D03*
%TO.P,U8,8*%
%TO.N,Net-(U8-Pad1)*%
X80470000Y-90025000D03*
%TO.P,U8,9*%
%TO.N,Net-(J4-Pad2)*%
X83010000Y-90025000D03*
%TO.P,U8,10*%
%TO.N,Net-(U1-Pad8)*%
X85550000Y-90025000D03*
%TO.P,U8,11*%
%TO.N,N/C*%
X88090000Y-90025000D03*
%TO.P,U8,12*%
X90630000Y-90025000D03*
%TO.P,U8,13*%
X93170000Y-90025000D03*
%TO.P,U8,14,VCC*%
%TO.N,+5V*%
X95710000Y-90025000D03*
%TD*%
D12*
%TO.P,C3,1*%
%TO.N,GND*%
X220710000Y-34955000D03*
%TO.P,C3,2*%
%TO.N,+5V*%
X215710000Y-34955000D03*
%TD*%
D22*
%TO.N,Net-(J1-Pad3)*%
X163710000Y-64955000D03*
X133210000Y-61955000D03*
%TO.N,+5V*%
X189710000Y-77205000D03*
X190080489Y-83075489D03*
%TO.N,GND*%
X212960000Y-56205000D03*
X220710000Y-56205000D03*
%TO.N,Net-(U1-Pad8)*%
X89710000Y-93205000D03*
X86710000Y-61205000D03*
%TO.N,Net-(U2-Pad19)*%
X184460000Y-75055000D03*
X213390000Y-75055000D03*
%TO.N,Net-(U2-Pad18)*%
X181460000Y-73555000D03*
X211016927Y-73288605D03*
%TO.N,Net-(U2-Pad17)*%
X179095857Y-72555000D03*
X208325745Y-71705990D03*
%TO.N,Net-(U2-Pad16)*%
X176460000Y-71055000D03*
X205770000Y-70255999D03*
%TO.N,Net-(U2-Pad15)*%
X203233655Y-68905500D03*
X174003692Y-69555000D03*
%TO.N,Net-(U2-Pad14)*%
X200690000Y-67405500D03*
X171460000Y-68055000D03*
%TO.N,Net-(U2-Pad13)*%
X198150000Y-65905500D03*
X168920000Y-66624500D03*
%TO.N,Net-(U2-Pad12)*%
X166380000Y-64975000D03*
X195610000Y-64595500D03*
%TO.N,Net-(U3-Pad19)*%
X127880000Y-75594500D03*
X157110000Y-75215000D03*
%TO.N,Net-(U3-Pad18)*%
X154570000Y-73565500D03*
X125340000Y-74284500D03*
%TO.N,Net-(U3-Pad17)*%
X122800000Y-72784500D03*
X152030000Y-72135000D03*
%TO.N,Net-(U3-Pad16)*%
X149486308Y-70635000D03*
X120256345Y-71284500D03*
%TO.N,Net-(U3-Pad15)*%
X117720000Y-69934001D03*
X147030000Y-69135000D03*
%TO.N,Net-(U3-Pad14)*%
X115164255Y-68484010D03*
X144394143Y-67635000D03*
%TO.N,Net-(U3-Pad13)*%
X112473073Y-66901395D03*
X142030000Y-66635000D03*
%TO.N,Net-(U3-Pad12)*%
X139030000Y-65374011D03*
X110100000Y-65135000D03*
%TO.N,Net-(U4-Pad11)*%
X81460000Y-78955000D03*
X136710000Y-90205000D03*
%TO.N,Net-(U6-Pad11)*%
X107710000Y-88205000D03*
X190210000Y-85205000D03*
X110210000Y-88205000D03*
X87210000Y-78205000D03*
%TO.N,Net-(D1-Pad2)*%
X80280000Y-76635000D03*
X76460000Y-76705000D03*
%TO.N,Net-(D2-Pad2)*%
X99710000Y-66455000D03*
X99710000Y-57955000D03*
%TD*%
D23*
%TO.N,Net-(J1-Pad65)*%
X59710000Y-95205000D02*
X58150000Y-93645000D01*
X81210000Y-95205000D02*
X59710000Y-95205000D01*
X58150000Y-93645000D02*
X58150000Y-19705000D01*
%TO.N,Net-(J1-Pad3)*%
X213710000Y-58205000D02*
X138460000Y-58205000D01*
X136710000Y-59955000D02*
X136775000Y-60020000D01*
X212960000Y-33705000D02*
X212960000Y-48205000D01*
X215630000Y-19705000D02*
X215630000Y-31035000D01*
X215210000Y-56705000D02*
X213710000Y-58205000D01*
X163710000Y-64955000D02*
X163831000Y-64834000D01*
X212960000Y-48205000D02*
X215210000Y-50455000D01*
X135280000Y-62025000D02*
X133280000Y-62025000D01*
X215210000Y-50455000D02*
X215210000Y-56705000D01*
X215630000Y-31035000D02*
X212960000Y-33705000D01*
X136775000Y-62025000D02*
X135280000Y-62025000D01*
X133210000Y-61955000D02*
X133280000Y-62025000D01*
X136775000Y-60020000D02*
X136775000Y-62025000D01*
X138460000Y-58205000D02*
X136710000Y-59955000D01*
X163831000Y-62025000D02*
X163831000Y-64834000D01*
D24*
%TO.N,+5V*%
X218170000Y-32665000D02*
X218170000Y-58245000D01*
X161534511Y-60125489D02*
X159635000Y-62025000D01*
X189710000Y-72205000D02*
X189710000Y-77205000D01*
X97609511Y-88125489D02*
X97609511Y-93305489D01*
X161544511Y-83025489D02*
X131889511Y-83025489D01*
X97609511Y-93305489D02*
X95710000Y-95205000D01*
X215216859Y-83075489D02*
X190080489Y-83075489D01*
X95710000Y-95205000D02*
X85210000Y-95205000D01*
X218170000Y-58245000D02*
X216210000Y-60205000D01*
X218719022Y-83705000D02*
X220710000Y-83705000D01*
X215985000Y-84975000D02*
X215985000Y-83843630D01*
X188484511Y-83025489D02*
X161544511Y-83025489D01*
X215710000Y-34955000D02*
X215710000Y-44455000D01*
X188534511Y-83075489D02*
X186685000Y-84925000D01*
X95710000Y-90025000D02*
X97609511Y-88125489D01*
X186002370Y-60205000D02*
X185922859Y-60125489D01*
X215216859Y-83075489D02*
X218089511Y-83075489D01*
X64460000Y-97705000D02*
X73960000Y-97705000D01*
X97609511Y-82805489D02*
X97609511Y-75724511D01*
X215985000Y-83843630D02*
X215216859Y-83075489D01*
X97609511Y-75724511D02*
X95710000Y-73825000D01*
X190080489Y-83075489D02*
X188534511Y-83075489D01*
X161544511Y-83025489D02*
X159575000Y-84995000D01*
X131889511Y-83025489D02*
X130525000Y-84390000D01*
X218170000Y-19705000D02*
X218170000Y-32665000D01*
X93210000Y-97705000D02*
X95710000Y-95205000D01*
X97609511Y-88125489D02*
X97609511Y-82805489D01*
X185922859Y-60125489D02*
X161534511Y-60125489D01*
X186691000Y-62025000D02*
X186691000Y-60893630D01*
X188534511Y-83075489D02*
X188484511Y-83025489D01*
X73960000Y-97705000D02*
X93210000Y-97705000D01*
X186691000Y-69186000D02*
X189710000Y-72205000D01*
X97829511Y-83025489D02*
X97609511Y-82805489D01*
X186691000Y-60893630D02*
X185922859Y-60125489D01*
X218170000Y-32665000D02*
X218000000Y-32665000D01*
X130525000Y-84390000D02*
X130525000Y-85015000D01*
X218000000Y-32665000D02*
X215710000Y-34955000D01*
X218089511Y-83075489D02*
X218719022Y-83705000D01*
X216210000Y-60205000D02*
X186002370Y-60205000D01*
X131889511Y-83025489D02*
X97829511Y-83025489D01*
X186691000Y-62025000D02*
X186691000Y-69186000D01*
%TO.N,GND*%
X136710000Y-78205000D02*
X136710000Y-77380000D01*
X163825000Y-78436370D02*
X163825000Y-77305000D01*
X160210000Y-56705000D02*
X159635000Y-56130000D01*
X84815000Y-51100000D02*
X83710000Y-52205000D01*
X215985000Y-77355000D02*
X215985000Y-79155000D01*
X188259511Y-79254511D02*
X164643141Y-79254511D01*
X130529511Y-79274511D02*
X130525000Y-79270000D01*
X220710000Y-56205000D02*
X220710000Y-76955000D01*
X104299511Y-79294511D02*
X102710000Y-77705000D01*
X78430499Y-80365499D02*
X78430499Y-68244501D01*
X83710000Y-52205000D02*
X83710000Y-59455000D01*
X219160489Y-79254511D02*
X214660489Y-79254511D01*
X164643141Y-79254511D02*
X163825000Y-78436370D01*
X215985000Y-79155000D02*
X215885489Y-79254511D01*
X147779511Y-79274511D02*
X137779511Y-79274511D01*
X102710000Y-65205000D02*
X100710000Y-63205000D01*
X160739511Y-79274511D02*
X147779511Y-79274511D01*
X159635000Y-56130000D02*
X159635000Y-54405000D01*
X136775000Y-55536370D02*
X136775000Y-54405000D01*
X188259511Y-79254511D02*
X186685000Y-77680000D01*
X133279511Y-79274511D02*
X131279511Y-79274511D01*
X78570489Y-68104511D02*
X80470000Y-66205000D01*
X79710000Y-63205000D02*
X78570489Y-64344511D01*
X130525000Y-78520000D02*
X130525000Y-77395000D01*
X214660489Y-79254511D02*
X193893141Y-79254511D01*
X193125000Y-78486370D02*
X193125000Y-77355000D01*
X160759511Y-79254511D02*
X159575000Y-78070000D01*
X220710000Y-76955000D02*
X220710000Y-77705000D01*
X100710000Y-63205000D02*
X83710000Y-63205000D01*
X136710000Y-77380000D02*
X136715000Y-77375000D01*
X137943630Y-56705000D02*
X136775000Y-55536370D01*
X186191000Y-56705000D02*
X164999630Y-56705000D01*
X164999630Y-56705000D02*
X163831000Y-55536370D01*
X164643141Y-79254511D02*
X160759511Y-79254511D01*
X83710000Y-63205000D02*
X79710000Y-63205000D01*
X160759511Y-79254511D02*
X160739511Y-79274511D01*
X83710000Y-59455000D02*
X83710000Y-63205000D01*
X132460000Y-56705000D02*
X137943630Y-56705000D01*
X159575000Y-78070000D02*
X159575000Y-77375000D01*
X78430499Y-91234501D02*
X76960000Y-92705000D01*
X137779511Y-79274511D02*
X133279511Y-79274511D01*
X108433141Y-79294511D02*
X104299511Y-79294511D01*
X78430499Y-80365499D02*
X78430499Y-91234501D01*
X220710000Y-78705000D02*
X220710000Y-76955000D01*
X147779511Y-79274511D02*
X147710000Y-79205000D01*
X220710000Y-77705000D02*
X219160489Y-79254511D01*
X186691000Y-56205000D02*
X186191000Y-56705000D01*
X186691000Y-56205000D02*
X212960000Y-56205000D01*
X193893141Y-79254511D02*
X188259511Y-79254511D01*
X133279511Y-79274511D02*
X130529511Y-79274511D01*
X160210000Y-56705000D02*
X137943630Y-56705000D01*
X163831000Y-55536370D02*
X163831000Y-54405000D01*
X193893141Y-79254511D02*
X193125000Y-78486370D01*
X186685000Y-77680000D02*
X186685000Y-77305000D01*
X215885489Y-79254511D02*
X214660489Y-79254511D01*
X131279511Y-79274511D02*
X131259511Y-79294511D01*
X102710000Y-77705000D02*
X102710000Y-65205000D01*
X186691000Y-54405000D02*
X186691000Y-56205000D01*
X78430499Y-68244501D02*
X78570489Y-68104511D01*
X130525000Y-79270000D02*
X130525000Y-58640000D01*
X76960000Y-92705000D02*
X73960000Y-92705000D01*
X64460000Y-92705000D02*
X73960000Y-92705000D01*
X86960000Y-58125000D02*
X85040000Y-58125000D01*
X137779511Y-79274511D02*
X136710000Y-78205000D01*
X86960000Y-51100000D02*
X84815000Y-51100000D01*
X80470000Y-82405000D02*
X78430499Y-80365499D01*
X85040000Y-58125000D02*
X83710000Y-59455000D01*
X131279511Y-79274511D02*
X130525000Y-78520000D01*
X131259511Y-79294511D02*
X108433141Y-79294511D01*
X220710000Y-19705000D02*
X220710000Y-56205000D01*
X108433141Y-79294511D02*
X107665000Y-78526370D01*
X78570489Y-64344511D02*
X78570489Y-68104511D01*
X130525000Y-58640000D02*
X132460000Y-56705000D01*
X107665000Y-78526370D02*
X107665000Y-77395000D01*
X164999630Y-56705000D02*
X160210000Y-56705000D01*
D23*
%TO.N,Net-(J2-Pad16)*%
X139255000Y-84995000D02*
X139255000Y-97660000D01*
%TO.N,Net-(J2-Pad15)*%
X141210000Y-85580000D02*
X141210000Y-97705000D01*
X141795000Y-84995000D02*
X141210000Y-85580000D01*
%TO.N,Net-(J2-Pad14)*%
X143210000Y-86120000D02*
X144335000Y-84995000D01*
X143210000Y-97705000D02*
X143210000Y-86120000D01*
%TO.N,Net-(J2-Pad13)*%
X146875000Y-84995000D02*
X145210000Y-86660000D01*
X145210000Y-86660000D02*
X145210000Y-97705000D01*
%TO.N,Net-(J2-Pad12)*%
X149415000Y-84995000D02*
X147210000Y-87200000D01*
X147210000Y-87200000D02*
X147210000Y-97705000D01*
%TO.N,Net-(J2-Pad11)*%
X151955000Y-84995000D02*
X149210000Y-87740000D01*
X149210000Y-87740000D02*
X149210000Y-97705000D01*
%TO.N,Net-(J2-Pad10)*%
X154495000Y-84995000D02*
X151210000Y-88280000D01*
X151210000Y-88280000D02*
X151210000Y-97705000D01*
%TO.N,Net-(J2-Pad9)*%
X153210000Y-88820000D02*
X153210000Y-97705000D01*
X157035000Y-84995000D02*
X153210000Y-88820000D01*
%TO.N,Net-(J2-Pad8)*%
X157207556Y-86707444D02*
X155210000Y-88705000D01*
X166365000Y-84925000D02*
X164582556Y-86707444D01*
X155210000Y-88705000D02*
X155210000Y-97705000D01*
X164582556Y-86707444D02*
X157207556Y-86707444D01*
%TO.N,Net-(J2-Pad7)*%
X157210000Y-97705000D02*
X157210000Y-89205000D01*
X158508044Y-87906956D02*
X165923044Y-87906956D01*
X165923044Y-87906956D02*
X168905000Y-84925000D01*
X157210000Y-89205000D02*
X158508044Y-87906956D01*
%TO.N,Net-(J2-Pad6)*%
X167263532Y-89106468D02*
X171445000Y-84925000D01*
X159210000Y-97705000D02*
X159210000Y-90705000D01*
X160808532Y-89106468D02*
X167263532Y-89106468D01*
X159210000Y-90705000D02*
X160808532Y-89106468D01*
%TO.N,Net-(J2-Pad5)*%
X162609022Y-90305978D02*
X168604022Y-90305978D01*
X161210000Y-97705000D02*
X161210000Y-91705000D01*
X161210000Y-91705000D02*
X162609022Y-90305978D01*
X168604022Y-90305978D02*
X173985000Y-84925000D01*
%TO.N,Net-(J2-Pad4)*%
X163210000Y-97705000D02*
X163210000Y-92705000D01*
X164409511Y-91505489D02*
X169944511Y-91505489D01*
X169944511Y-91505489D02*
X176525000Y-84925000D01*
X163210000Y-92705000D02*
X164409511Y-91505489D01*
%TO.N,Net-(J2-Pad3)*%
X165210000Y-97705000D02*
X165210000Y-93705000D01*
X171285000Y-92705000D02*
X179065000Y-84925000D01*
X166210000Y-92705000D02*
X171285000Y-92705000D01*
X165210000Y-93705000D02*
X166210000Y-92705000D01*
%TO.N,Net-(J2-Pad2)*%
X168409511Y-94005489D02*
X172524511Y-94005489D01*
X172524511Y-94005489D02*
X181605000Y-84925000D01*
X167210000Y-97705000D02*
X167210000Y-95205000D01*
X167210000Y-95205000D02*
X168409511Y-94005489D01*
%TO.N,Net-(J2-Pad1)*%
X173865000Y-95205000D02*
X184145000Y-84925000D01*
X170210000Y-95205000D02*
X173865000Y-95205000D01*
X169210000Y-96205000D02*
X170210000Y-95205000D01*
X169210000Y-97705000D02*
X169210000Y-96205000D01*
%TO.N,Net-(J3-Pad16)*%
X132895000Y-107705000D02*
X110205000Y-85015000D01*
X138710000Y-109205000D02*
X137210000Y-107705000D01*
X137210000Y-107705000D02*
X132895000Y-107705000D01*
%TO.N,Net-(J3-Pad15)*%
X140710000Y-109205000D02*
X140710000Y-107705000D01*
X133499761Y-106476581D02*
X112745000Y-85721820D01*
X139481581Y-106476581D02*
X133499761Y-106476581D01*
X140710000Y-107705000D02*
X139481581Y-106476581D01*
X112745000Y-85721820D02*
X112745000Y-85015000D01*
%TO.N,Net-(J3-Pad14)*%
X142710000Y-107205000D02*
X140782074Y-105277074D01*
X140782074Y-105277074D02*
X133996615Y-105277071D01*
X115285000Y-86565456D02*
X115285000Y-85015000D01*
X142710000Y-109205000D02*
X142710000Y-107205000D01*
X133996615Y-105277071D02*
X115285000Y-86565456D01*
%TO.N,Net-(J3-Pad13)*%
X142582564Y-104077564D02*
X134493469Y-104077561D01*
X144710000Y-106205000D02*
X142582564Y-104077564D01*
X117825000Y-87409092D02*
X117825000Y-85015000D01*
X144710000Y-109205000D02*
X144710000Y-106205000D01*
X134493469Y-104077561D02*
X117825000Y-87409092D01*
%TO.N,Net-(J3-Pad12)*%
X146710000Y-109205000D02*
X146710000Y-105205000D01*
X134990323Y-102878051D02*
X120365000Y-88252728D01*
X120365000Y-88252728D02*
X120365000Y-85015000D01*
X146710000Y-105205000D02*
X144383053Y-102878053D01*
X144383053Y-102878053D02*
X134990323Y-102878051D01*
%TO.N,Net-(J3-Pad11)*%
X146183542Y-101678542D02*
X135487177Y-101678541D01*
X135487177Y-101678541D02*
X122905000Y-89096364D01*
X122905000Y-89096364D02*
X122905000Y-85015000D01*
X148710000Y-109205000D02*
X148710000Y-104205000D01*
X148710000Y-104205000D02*
X146183542Y-101678542D01*
%TO.N,Net-(J3-Pad10)*%
X150710000Y-102205000D02*
X148984031Y-100479031D01*
X148984031Y-100479031D02*
X135984031Y-100479031D01*
X135984031Y-100479031D02*
X125445000Y-89940000D01*
X150710000Y-109205000D02*
X150710000Y-102205000D01*
X125445000Y-89940000D02*
X125445000Y-85015000D01*
%TO.N,Net-(J3-Pad9)*%
X127985000Y-90480000D02*
X127985000Y-85015000D01*
X150135489Y-99279511D02*
X136784511Y-99279511D01*
X152710000Y-109205000D02*
X152710000Y-101705000D01*
X136784511Y-99279511D02*
X127985000Y-90480000D01*
X150210000Y-99205000D02*
X150135489Y-99279511D01*
X152710000Y-101705000D02*
X150210000Y-99205000D01*
%TO.N,Net-(J3-Pad8)*%
X166457344Y-99279503D02*
X166457359Y-99279488D01*
X157135489Y-99279511D02*
X164135489Y-99279511D01*
X166457312Y-99279511D02*
X166457320Y-99279503D01*
X166457359Y-99279488D02*
X166457386Y-99279488D01*
X166557815Y-99279511D02*
X167862185Y-99279511D01*
X166457320Y-99279503D02*
X166457344Y-99279503D01*
X166457386Y-99279488D02*
X166457406Y-99279468D01*
X166457406Y-99279468D02*
X166557776Y-99279472D01*
X154710000Y-101705000D02*
X157135489Y-99279511D01*
X154710000Y-109205000D02*
X154710000Y-101705000D01*
X167862185Y-99279511D02*
X167862189Y-99279507D01*
X181360493Y-99279507D02*
X195665000Y-84975000D01*
X167862189Y-99279507D02*
X181360493Y-99279507D01*
X166557776Y-99279472D02*
X166557815Y-99279511D01*
X164135489Y-99279511D02*
X166457312Y-99279511D01*
%TO.N,Net-(J3-Pad7)*%
X156710000Y-109205000D02*
X156710000Y-103205000D01*
X182700980Y-100479020D02*
X198205000Y-84975000D01*
X156710000Y-103205000D02*
X159435980Y-100479020D01*
X159435980Y-100479020D02*
X182700980Y-100479020D01*
%TO.N,Net-(J3-Pad6)*%
X158710000Y-109205000D02*
X158710000Y-104205000D01*
X158710000Y-104205000D02*
X161236469Y-101678531D01*
X184041469Y-101678531D02*
X200745000Y-84975000D01*
X161236469Y-101678531D02*
X184041469Y-101678531D01*
%TO.N,Net-(J3-Pad5)*%
X160710000Y-105205000D02*
X163036958Y-102878042D01*
X163036958Y-102878042D02*
X185381958Y-102878042D01*
X160710000Y-109205000D02*
X160710000Y-105205000D01*
X185381958Y-102878042D02*
X203285000Y-84975000D01*
%TO.N,Net-(J3-Pad4)*%
X165337447Y-104077553D02*
X186722447Y-104077553D01*
X162710000Y-109205000D02*
X162710000Y-106705000D01*
X186722447Y-104077553D02*
X205825000Y-84975000D01*
X162710000Y-106705000D02*
X165337447Y-104077553D01*
%TO.N,Net-(J3-Pad3)*%
X188062936Y-105277064D02*
X208365000Y-84975000D01*
X167137936Y-105277064D02*
X188062936Y-105277064D01*
X164710000Y-109205000D02*
X164710000Y-107705000D01*
X164710000Y-107705000D02*
X167137936Y-105277064D01*
%TO.N,Net-(J3-Pad2)*%
X189403425Y-106476575D02*
X210905000Y-84975000D01*
X168438425Y-106476575D02*
X189403425Y-106476575D01*
X166710000Y-109205000D02*
X166710000Y-108205000D01*
X166710000Y-108205000D02*
X168438425Y-106476575D01*
%TO.N,Net-(J3-Pad1)*%
X168710000Y-108705000D02*
X169710000Y-107705000D01*
X190715000Y-107705000D02*
X213445000Y-84975000D01*
X168710000Y-109205000D02*
X168710000Y-108705000D01*
X169710000Y-107705000D02*
X190715000Y-107705000D01*
%TO.N,Net-(J4-Pad2)*%
X83010000Y-90025000D02*
X83010000Y-95005000D01*
X83010000Y-95005000D02*
X83210000Y-95205000D01*
%TO.N,Net-(U1-Pad26)*%
X146172000Y-47548000D02*
X139315000Y-54405000D01*
X146172000Y-42040500D02*
X146172000Y-47548000D01*
%TO.N,Net-(U1-Pad25)*%
X141855000Y-54060000D02*
X141855000Y-54405000D01*
X148712000Y-42040500D02*
X148712000Y-47203000D01*
X148712000Y-47203000D02*
X141855000Y-54060000D01*
%TO.N,Net-(U1-Pad24)*%
X151252000Y-47548000D02*
X144395000Y-54405000D01*
X151252000Y-42040500D02*
X151252000Y-47548000D01*
%TO.N,Net-(U1-Pad23)*%
X153792000Y-42040500D02*
X153792000Y-47548000D01*
X153792000Y-47548000D02*
X146935000Y-54405000D01*
%TO.N,Net-(U1-Pad22)*%
X156332000Y-42040500D02*
X156332000Y-47548000D01*
X156332000Y-47548000D02*
X149475000Y-54405000D01*
%TO.N,Net-(U1-Pad21)*%
X158872000Y-42040500D02*
X158872000Y-47548000D01*
X158872000Y-47548000D02*
X152015000Y-54405000D01*
%TO.N,Net-(U1-Pad20)*%
X161412000Y-46704364D02*
X154555000Y-53561364D01*
X154555000Y-53561364D02*
X154555000Y-54405000D01*
X161412000Y-42040500D02*
X161412000Y-46704364D01*
%TO.N,Net-(U1-Pad19)*%
X157095000Y-52717728D02*
X157095000Y-54405000D01*
X163952000Y-42040500D02*
X163952000Y-45860728D01*
X163952000Y-45860728D02*
X157095000Y-52717728D01*
%TO.N,Net-(U1-Pad18)*%
X166492000Y-54174000D02*
X166371000Y-54295000D01*
X166492000Y-42040500D02*
X166492000Y-54174000D01*
%TO.N,Net-(U1-Pad17)*%
X169032000Y-54174000D02*
X168911000Y-54295000D01*
X169032000Y-42040500D02*
X169032000Y-54174000D01*
%TO.N,Net-(U1-Pad16)*%
X171572000Y-42040500D02*
X171572000Y-54174000D01*
X171572000Y-54174000D02*
X171451000Y-54295000D01*
%TO.N,Net-(U1-Pad15)*%
X174112000Y-42040500D02*
X174112000Y-54174000D01*
X174112000Y-54174000D02*
X173991000Y-54295000D01*
%TO.N,Net-(U1-Pad14)*%
X176652000Y-54174000D02*
X176531000Y-54295000D01*
X176652000Y-42040500D02*
X176652000Y-54174000D01*
%TO.N,Net-(U1-Pad13)*%
X179192000Y-42040500D02*
X179192000Y-54174000D01*
X179192000Y-54174000D02*
X179071000Y-54295000D01*
%TO.N,Net-(U1-Pad12)*%
X181732000Y-54174000D02*
X181611000Y-54295000D01*
X181732000Y-42040500D02*
X181732000Y-54174000D01*
%TO.N,Net-(U1-Pad11)*%
X184151000Y-54295000D02*
X184151000Y-42161500D01*
X184151000Y-42161500D02*
X184272000Y-42040500D01*
%TO.N,Net-(U1-Pad8)*%
X86960000Y-92955000D02*
X87210000Y-93205000D01*
X191892000Y-39887000D02*
X190210000Y-38205000D01*
X102710000Y-40705000D02*
X102710000Y-59705000D01*
X101210000Y-61205000D02*
X86710000Y-61205000D01*
X190210000Y-38205000D02*
X105210000Y-38205000D01*
X105210000Y-38205000D02*
X102710000Y-40705000D01*
X87210000Y-93205000D02*
X89710000Y-93205000D01*
X85550000Y-90025000D02*
X85550000Y-91545000D01*
X85550000Y-91545000D02*
X86960000Y-92955000D01*
X102710000Y-59705000D02*
X101210000Y-61205000D01*
X191892000Y-42040500D02*
X191892000Y-39887000D01*
%TO.N,Net-(U2-Pad19)*%
X184160000Y-74755000D02*
X184460000Y-75055000D01*
X184160000Y-77205000D02*
X184160000Y-75355000D01*
X184160000Y-75355000D02*
X184460000Y-75055000D01*
X213390000Y-75055000D02*
X213390000Y-77205000D01*
X184160000Y-62055000D02*
X184160000Y-74755000D01*
%TO.N,Net-(U2-Pad18)*%
X181620000Y-73715000D02*
X181460000Y-73555000D01*
X181620000Y-62055000D02*
X181620000Y-73395000D01*
X210850000Y-73455532D02*
X211016927Y-73288605D01*
X181620000Y-77205000D02*
X181620000Y-73715000D01*
X210850000Y-73121678D02*
X211016927Y-73288605D01*
X211016927Y-73288605D02*
X211016927Y-77205000D01*
X181620000Y-73395000D02*
X181460000Y-73555000D01*
%TO.N,Net-(U2-Pad17)*%
X179110000Y-73517643D02*
X179110000Y-77205000D01*
X179080000Y-73487643D02*
X179080000Y-62055000D01*
X208340000Y-71720245D02*
X208325745Y-71705990D01*
X179095857Y-72555000D02*
X179110000Y-73517643D01*
X208310000Y-71690245D02*
X208325745Y-71705990D01*
X179095857Y-72555000D02*
X179080000Y-73487643D01*
X208325745Y-71705990D02*
X208325745Y-77205000D01*
%TO.N,Net-(U2-Pad16)*%
X176540000Y-71834134D02*
X176540000Y-62055000D01*
X176460000Y-71055000D02*
X176540000Y-71834134D01*
X176460000Y-71055000D02*
X176540000Y-71873866D01*
X176540000Y-71873866D02*
X176540000Y-77205000D01*
X205770000Y-70255999D02*
X205770000Y-77205000D01*
%TO.N,Net-(U2-Pad15)*%
X203230000Y-68901845D02*
X203233655Y-68905500D01*
X174010000Y-70210808D02*
X174010000Y-77205000D01*
X203240000Y-68911845D02*
X203233655Y-68905500D01*
X203233655Y-68905500D02*
X203233655Y-77181345D01*
X174003692Y-69555000D02*
X174010000Y-70210808D01*
X174000000Y-70200808D02*
X174000000Y-62055000D01*
X174003692Y-69555000D02*
X174000000Y-70200808D01*
%TO.N,Net-(U2-Pad14)*%
X200690000Y-67405500D02*
X200710000Y-77185000D01*
X171460000Y-62055000D02*
X171460000Y-77205000D01*
%TO.N,Net-(U2-Pad13)*%
X198150000Y-65905500D02*
X198150000Y-77145000D01*
X168920000Y-77205000D02*
X168920000Y-66624500D01*
X168920000Y-62055000D02*
X168920000Y-66624500D01*
%TO.N,Net-(U2-Pad12)*%
X195610000Y-64595500D02*
X195710000Y-77205000D01*
X166380000Y-64975000D02*
X166380000Y-77205000D01*
X166380000Y-62055000D02*
X166380000Y-64975000D01*
%TO.N,Net-(U3-Pad19)*%
X157035000Y-77375000D02*
X157110000Y-75215000D01*
X157110000Y-75215000D02*
X157095000Y-62025000D01*
X127985000Y-77395000D02*
X127880000Y-75594500D01*
%TO.N,Net-(U3-Pad18)*%
X154555000Y-73550500D02*
X154555000Y-62025000D01*
X154570000Y-73565500D02*
X154555000Y-73550500D01*
X125445000Y-77395000D02*
X125382140Y-77332140D01*
X125382140Y-74326640D02*
X125340000Y-74284500D01*
X154495000Y-77375000D02*
X154570000Y-73565500D01*
X125382140Y-77332140D02*
X125382140Y-74326640D01*
%TO.N,Net-(U3-Pad17)*%
X152030000Y-72135000D02*
X152015000Y-72120000D01*
X122840760Y-72825260D02*
X122800000Y-72784500D01*
X122840760Y-77330760D02*
X122840760Y-72825260D01*
X122905000Y-77395000D02*
X122840760Y-77330760D01*
X151955000Y-77375000D02*
X152030000Y-72635000D01*
X152015000Y-72120000D02*
X152015000Y-62025000D01*
%TO.N,Net-(U3-Pad16)*%
X120300007Y-71328162D02*
X120256345Y-71284500D01*
X149486308Y-70635000D02*
X149480000Y-69979192D01*
X120300007Y-77330007D02*
X120300007Y-71328162D01*
X120250000Y-71278155D02*
X120256345Y-71284500D01*
X149490000Y-69989192D02*
X149415000Y-77375000D01*
X149486308Y-70635000D02*
X149475000Y-70623692D01*
X149475000Y-70623692D02*
X149475000Y-62025000D01*
X149486308Y-70635000D02*
X149490000Y-69989192D01*
X120365000Y-77395000D02*
X120300007Y-77330007D01*
%TO.N,Net-(U3-Pad15)*%
X146950000Y-68316134D02*
X146935000Y-68301134D01*
X117710000Y-77280000D02*
X117710000Y-69944001D01*
X117825000Y-77395000D02*
X117710000Y-77280000D01*
X147030000Y-69135000D02*
X146950000Y-68316134D01*
X146935000Y-68301134D02*
X146935000Y-62025000D01*
X147030000Y-69135000D02*
X146950000Y-68355866D01*
X146950000Y-68355866D02*
X146875000Y-77375000D01*
X117710000Y-69944001D02*
X117720000Y-69934001D01*
%TO.N,Net-(U3-Pad14)*%
X115210000Y-77320000D02*
X115210000Y-68529755D01*
X115285000Y-77395000D02*
X115210000Y-77320000D01*
X144410000Y-66702357D02*
X144335000Y-77375000D01*
X144394143Y-67635000D02*
X144394143Y-62025857D01*
X115210000Y-68529755D02*
X115164255Y-68484010D01*
X144394143Y-67635000D02*
X144410000Y-66702357D01*
X144394143Y-62025857D02*
X144395000Y-62025000D01*
X115150000Y-68469755D02*
X115164255Y-68484010D01*
X144394143Y-67635000D02*
X144380000Y-66672357D01*
%TO.N,Net-(U3-Pad13)*%
X142030000Y-62200000D02*
X141855000Y-62025000D01*
X141870000Y-66475000D02*
X142030000Y-66635000D01*
X141870000Y-66795000D02*
X142030000Y-66635000D01*
X112692408Y-77342408D02*
X112692408Y-67120730D01*
X112692408Y-67120730D02*
X112473073Y-66901395D01*
X112640000Y-66734468D02*
X112473073Y-66901395D01*
X112745000Y-77395000D02*
X112692408Y-77342408D01*
X142030000Y-66635000D02*
X142030000Y-62200000D01*
X141795000Y-77375000D02*
X141870000Y-66795000D01*
%TO.N,Net-(U3-Pad12)*%
X139030000Y-65135000D02*
X139030000Y-65374011D01*
X110030000Y-65205000D02*
X110100000Y-65135000D01*
X139330000Y-64835000D02*
X139030000Y-65135000D01*
X139315000Y-62025000D02*
X139315000Y-65089011D01*
X110030000Y-77220000D02*
X110030000Y-65205000D01*
X139255000Y-77375000D02*
X139255000Y-65599011D01*
X139315000Y-65089011D02*
X139030000Y-65374011D01*
X139255000Y-65599011D02*
X139030000Y-65374011D01*
X110205000Y-77395000D02*
X110030000Y-77220000D01*
%TO.N,Net-(U4-Pad11)*%
X136715000Y-86700000D02*
X136715000Y-84995000D01*
X81460000Y-78955000D02*
X81210000Y-78705000D01*
X83010000Y-80505000D02*
X81460000Y-78955000D01*
X83010000Y-82405000D02*
X83010000Y-80505000D01*
X136710000Y-90205000D02*
X136715000Y-86700000D01*
%TO.N,Net-(U6-Pad11)*%
X193125000Y-84975000D02*
X190440000Y-84975000D01*
X107710000Y-88205000D02*
X110210000Y-88205000D01*
X107665000Y-85015000D02*
X107665000Y-88160000D01*
X190440000Y-84975000D02*
X190210000Y-85205000D01*
X90630000Y-82405000D02*
X90630000Y-81625000D01*
X90630000Y-81625000D02*
X87210000Y-78205000D01*
X107665000Y-88160000D02*
X107710000Y-88205000D01*
%TO.N,Net-(U8-Pad1)*%
X95710000Y-82405000D02*
X93170000Y-84945000D01*
X93170000Y-84945000D02*
X85550000Y-84945000D01*
X85550000Y-84945000D02*
X80470000Y-90025000D01*
X85550000Y-82405000D02*
X85550000Y-84945000D01*
%TO.N,Net-(D1-Pad2)*%
X76460000Y-76705000D02*
X76460000Y-47455000D01*
X76460000Y-47455000D02*
X77710000Y-46205000D01*
X77710000Y-46205000D02*
X93710000Y-46205000D01*
X93710000Y-46205000D02*
X95210000Y-47705000D01*
X88090000Y-81445000D02*
X88090000Y-82405000D01*
X95210000Y-49705000D02*
X93945000Y-50970000D01*
X80470000Y-73825000D02*
X83280000Y-76635000D01*
X83280000Y-76635000D02*
X80280000Y-76635000D01*
X93945000Y-50970000D02*
X92710000Y-50970000D01*
X83280000Y-76635000D02*
X88090000Y-81445000D01*
X80210000Y-76705000D02*
X80280000Y-76635000D01*
X95210000Y-47705000D02*
X95210000Y-49705000D01*
%TO.N,Net-(D1-Pad1)*%
X87090000Y-48430000D02*
X86960000Y-48560000D01*
X92710000Y-48430000D02*
X87090000Y-48430000D01*
%TO.N,Net-(D2-Pad2)*%
X99710000Y-57955000D02*
X99710000Y-38205000D01*
X98210000Y-71705000D02*
X87710000Y-71705000D01*
X99710000Y-70205000D02*
X98210000Y-71705000D01*
X202052000Y-37863000D02*
X202052000Y-42040500D01*
X200210000Y-35705000D02*
X202210000Y-37705000D01*
X85590000Y-73825000D02*
X85550000Y-73825000D01*
X87710000Y-71705000D02*
X85590000Y-73825000D01*
X202210000Y-37705000D02*
X202052000Y-37863000D01*
X85550000Y-73825000D02*
X83010000Y-73825000D01*
X99670000Y-57995000D02*
X92710000Y-57995000D01*
X99710000Y-66455000D02*
X99710000Y-70205000D01*
X93170000Y-81445000D02*
X93170000Y-82405000D01*
X102210000Y-35705000D02*
X200210000Y-35705000D01*
X99710000Y-57955000D02*
X99670000Y-57995000D01*
X99710000Y-38205000D02*
X102210000Y-35705000D01*
X85550000Y-73825000D02*
X93170000Y-81445000D01*
%TO.N,Net-(D2-Pad1)*%
X92710000Y-55455000D02*
X87090000Y-55455000D01*
X87090000Y-55455000D02*
X86960000Y-55585000D01*
%TD*%
%TA.AperFunction,NonConductor*%
G36*
X199190995Y-38025713D02*
G01*
X199320190Y-38084714D01*
X199403256Y-38151654D01*
X199599501Y-38347899D01*
X199684617Y-38461600D01*
X199734251Y-38594675D01*
X199744384Y-38736343D01*
X199714193Y-38875128D01*
X199646125Y-38999785D01*
X199545695Y-39100215D01*
X199421038Y-39168283D01*
X199296217Y-39197277D01*
X199065328Y-39220323D01*
X198744145Y-39290352D01*
X198433139Y-39396833D01*
X198424863Y-39400780D01*
X198289111Y-39434675D01*
X198147199Y-39428864D01*
X198061978Y-39405049D01*
X197839316Y-39320912D01*
X197839307Y-39320909D01*
X197825860Y-39315828D01*
X197811916Y-39312326D01*
X197811908Y-39312323D01*
X197520978Y-39239247D01*
X197507036Y-39235745D01*
X197181119Y-39192837D01*
X197166749Y-39192611D01*
X197166745Y-39192611D01*
X196915700Y-39188668D01*
X196852431Y-39187674D01*
X196838126Y-39189102D01*
X196838121Y-39189102D01*
X196539634Y-39218895D01*
X196539633Y-39218895D01*
X196525328Y-39220323D01*
X196204145Y-39290352D01*
X195893139Y-39396833D01*
X195884863Y-39400780D01*
X195749111Y-39434675D01*
X195607199Y-39428864D01*
X195521978Y-39405049D01*
X195299316Y-39320912D01*
X195299307Y-39320909D01*
X195285860Y-39315828D01*
X195271916Y-39312326D01*
X195271908Y-39312323D01*
X194980978Y-39239247D01*
X194967036Y-39235745D01*
X194641119Y-39192837D01*
X194626750Y-39192611D01*
X194626746Y-39192611D01*
X194415443Y-39189292D01*
X194275194Y-39166874D01*
X194146941Y-39105850D01*
X194041076Y-39011166D01*
X193975741Y-38911055D01*
X193888566Y-38734281D01*
X193890449Y-38733352D01*
X193845927Y-38622130D01*
X193832430Y-38480743D01*
X193859313Y-38341280D01*
X193924399Y-38215040D01*
X194022414Y-38112251D01*
X194145417Y-38041239D01*
X194283445Y-38007758D01*
X194330864Y-38005500D01*
X199050410Y-38005500D01*
X199190995Y-38025713D01*
G37*
%TD.AperFunction*%
%TA.AperFunction,NonConductor*%
G36*
X163866883Y-49611780D02*
G01*
X163991540Y-49679848D01*
X164091970Y-49780278D01*
X164160038Y-49904935D01*
X164190229Y-50043720D01*
X164191500Y-50079318D01*
X164191500Y-51104486D01*
X164171287Y-51245071D01*
X164112286Y-51374266D01*
X164019276Y-51481605D01*
X163899792Y-51558392D01*
X163763515Y-51598407D01*
X163721108Y-51602334D01*
X163713528Y-51602215D01*
X163589535Y-51614591D01*
X163406469Y-51632863D01*
X163406467Y-51632863D01*
X163392163Y-51634291D01*
X163076614Y-51703092D01*
X162771064Y-51807705D01*
X162758092Y-51813892D01*
X162758078Y-51813898D01*
X162500071Y-51936961D01*
X162364480Y-51979240D01*
X162222469Y-51981606D01*
X162085545Y-51943867D01*
X161964799Y-51869081D01*
X161870014Y-51763306D01*
X161808868Y-51635111D01*
X161786316Y-51494883D01*
X161804185Y-51353981D01*
X161861026Y-51223821D01*
X161932401Y-51133725D01*
X163339654Y-49726472D01*
X163453355Y-49641356D01*
X163586430Y-49591722D01*
X163728098Y-49581589D01*
X163866883Y-49611780D01*
G37*
%TD.AperFunction*%
%TA.AperFunction,NonConductor*%
G36*
X205941578Y-44647738D02*
G01*
X206054244Y-44679542D01*
X206179694Y-44731506D01*
X206179709Y-44731511D01*
X206192977Y-44737007D01*
X206206793Y-44740942D01*
X206206797Y-44740944D01*
X206495307Y-44823128D01*
X206495312Y-44823129D01*
X206509129Y-44827065D01*
X206720520Y-44861682D01*
X206819344Y-44877865D01*
X206819347Y-44877865D01*
X206833537Y-44880189D01*
X206847896Y-44880866D01*
X206847904Y-44880867D01*
X207147538Y-44894997D01*
X207147543Y-44894997D01*
X207161900Y-44895674D01*
X207389048Y-44880189D01*
X207475539Y-44874293D01*
X207475542Y-44874293D01*
X207489868Y-44873316D01*
X207813092Y-44813410D01*
X207893378Y-44788710D01*
X208033688Y-44766693D01*
X208183076Y-44787573D01*
X208367582Y-44842752D01*
X208367589Y-44842754D01*
X208384490Y-44847808D01*
X208664642Y-44889927D01*
X208678343Y-44890465D01*
X208678350Y-44890466D01*
X208687029Y-44890807D01*
X208687047Y-44890807D01*
X208691950Y-44891000D01*
X210160500Y-44891000D01*
X210301085Y-44911213D01*
X210430280Y-44970214D01*
X210537619Y-45063224D01*
X210614406Y-45182708D01*
X210654421Y-45318985D01*
X210659500Y-45390000D01*
X210659500Y-48113363D01*
X210658432Y-48145997D01*
X210654565Y-48205000D01*
X210659500Y-48280298D01*
X210659500Y-48280310D01*
X210674287Y-48505920D01*
X210719043Y-48730920D01*
X210733120Y-48801691D01*
X210830055Y-49087252D01*
X210837275Y-49101893D01*
X210837278Y-49101900D01*
X210935480Y-49301033D01*
X210963434Y-49357718D01*
X211130974Y-49608461D01*
X211276921Y-49774880D01*
X211329811Y-49835189D01*
X211374285Y-49874191D01*
X211398099Y-49896497D01*
X212763346Y-51261745D01*
X212848462Y-51375446D01*
X212898096Y-51508521D01*
X212909500Y-51614591D01*
X212909500Y-53002214D01*
X212889287Y-53142799D01*
X212830286Y-53271994D01*
X212737276Y-53379333D01*
X212617792Y-53456120D01*
X212497579Y-53493557D01*
X212331534Y-53522984D01*
X212331514Y-53522989D01*
X212316735Y-53525608D01*
X212302371Y-53529986D01*
X212302366Y-53529987D01*
X212013877Y-53617912D01*
X212013874Y-53617913D01*
X211999500Y-53622294D01*
X211912672Y-53660680D01*
X211909938Y-53661889D01*
X211773185Y-53700246D01*
X211708170Y-53704500D01*
X189958630Y-53704500D01*
X189818045Y-53684287D01*
X189688850Y-53625286D01*
X189581511Y-53532276D01*
X189504724Y-53412792D01*
X189465177Y-53279694D01*
X189448308Y-53167490D01*
X189443254Y-53150589D01*
X189443252Y-53150582D01*
X189372189Y-52912962D01*
X189372187Y-52912957D01*
X189367136Y-52896067D01*
X189322400Y-52799026D01*
X189255917Y-52654815D01*
X189255915Y-52654811D01*
X189248529Y-52638790D01*
X189094856Y-52400791D01*
X189025006Y-52320296D01*
X188920743Y-52200145D01*
X188909180Y-52186820D01*
X188839440Y-52126302D01*
X188708545Y-52012716D01*
X188708541Y-52012713D01*
X188695209Y-52001144D01*
X188457210Y-51847471D01*
X188441189Y-51840085D01*
X188441185Y-51840083D01*
X188215951Y-51736248D01*
X188215946Y-51736246D01*
X188199933Y-51728864D01*
X188183043Y-51723813D01*
X188183038Y-51723811D01*
X187945418Y-51652748D01*
X187945411Y-51652746D01*
X187928510Y-51647692D01*
X187648358Y-51605573D01*
X187634657Y-51605035D01*
X187634650Y-51605034D01*
X187625971Y-51604693D01*
X187625953Y-51604693D01*
X187621050Y-51604500D01*
X186950500Y-51604500D01*
X186809915Y-51584287D01*
X186680720Y-51525286D01*
X186573381Y-51432276D01*
X186496594Y-51312792D01*
X186456579Y-51176515D01*
X186451500Y-51105500D01*
X186451500Y-45388429D01*
X186471713Y-45247844D01*
X186530714Y-45118649D01*
X186623724Y-45011310D01*
X186743208Y-44934523D01*
X186879485Y-44894508D01*
X186916557Y-44890585D01*
X187071790Y-44880002D01*
X187155538Y-44874293D01*
X187155540Y-44874293D01*
X187169868Y-44873316D01*
X187337054Y-44842330D01*
X187478953Y-44816031D01*
X187478961Y-44816029D01*
X187493092Y-44813410D01*
X187506836Y-44809182D01*
X187644947Y-44766693D01*
X187807289Y-44716750D01*
X187882712Y-44683642D01*
X188019564Y-44645642D01*
X188161578Y-44647738D01*
X188274244Y-44679542D01*
X188399694Y-44731506D01*
X188399709Y-44731511D01*
X188412977Y-44737007D01*
X188426793Y-44740942D01*
X188426797Y-44740944D01*
X188715307Y-44823128D01*
X188715312Y-44823129D01*
X188729129Y-44827065D01*
X188940520Y-44861682D01*
X189039344Y-44877865D01*
X189039347Y-44877865D01*
X189053537Y-44880189D01*
X189067896Y-44880866D01*
X189067904Y-44880867D01*
X189367538Y-44894997D01*
X189367543Y-44894997D01*
X189381900Y-44895674D01*
X189609048Y-44880189D01*
X189695539Y-44874293D01*
X189695542Y-44874293D01*
X189709868Y-44873316D01*
X189877054Y-44842330D01*
X190018953Y-44816031D01*
X190018961Y-44816029D01*
X190033092Y-44813410D01*
X190046836Y-44809182D01*
X190184947Y-44766693D01*
X190347289Y-44716750D01*
X190422712Y-44683642D01*
X190559564Y-44645642D01*
X190701578Y-44647738D01*
X190814244Y-44679542D01*
X190939694Y-44731506D01*
X190939709Y-44731511D01*
X190952977Y-44737007D01*
X190966793Y-44740942D01*
X190966797Y-44740944D01*
X191255307Y-44823128D01*
X191255312Y-44823129D01*
X191269129Y-44827065D01*
X191480520Y-44861682D01*
X191579344Y-44877865D01*
X191579347Y-44877865D01*
X191593537Y-44880189D01*
X191607896Y-44880866D01*
X191607904Y-44880867D01*
X191907538Y-44894997D01*
X191907543Y-44894997D01*
X191921900Y-44895674D01*
X192149048Y-44880189D01*
X192235539Y-44874293D01*
X192235542Y-44874293D01*
X192249868Y-44873316D01*
X192417054Y-44842330D01*
X192558953Y-44816031D01*
X192558961Y-44816029D01*
X192573092Y-44813410D01*
X192586836Y-44809182D01*
X192724947Y-44766693D01*
X192887289Y-44716750D01*
X192962712Y-44683642D01*
X193099564Y-44645642D01*
X193241578Y-44647738D01*
X193354244Y-44679542D01*
X193479694Y-44731506D01*
X193479709Y-44731511D01*
X193492977Y-44737007D01*
X193506793Y-44740942D01*
X193506797Y-44740944D01*
X193795307Y-44823128D01*
X193795312Y-44823129D01*
X193809129Y-44827065D01*
X194020520Y-44861682D01*
X194119344Y-44877865D01*
X194119347Y-44877865D01*
X194133537Y-44880189D01*
X194147896Y-44880866D01*
X194147904Y-44880867D01*
X194447538Y-44894997D01*
X194447543Y-44894997D01*
X194461900Y-44895674D01*
X194689048Y-44880189D01*
X194775539Y-44874293D01*
X194775542Y-44874293D01*
X194789868Y-44873316D01*
X194957054Y-44842330D01*
X195098953Y-44816031D01*
X195098961Y-44816029D01*
X195113092Y-44813410D01*
X195126836Y-44809182D01*
X195264947Y-44766693D01*
X195427289Y-44716750D01*
X195502712Y-44683642D01*
X195639564Y-44645642D01*
X195781578Y-44647738D01*
X195894244Y-44679542D01*
X196019694Y-44731506D01*
X196019709Y-44731511D01*
X196032977Y-44737007D01*
X196046793Y-44740942D01*
X196046797Y-44740944D01*
X196335307Y-44823128D01*
X196335312Y-44823129D01*
X196349129Y-44827065D01*
X196560520Y-44861682D01*
X196659344Y-44877865D01*
X196659347Y-44877865D01*
X196673537Y-44880189D01*
X196687896Y-44880866D01*
X196687904Y-44880867D01*
X196987538Y-44894997D01*
X196987543Y-44894997D01*
X197001900Y-44895674D01*
X197229048Y-44880189D01*
X197315539Y-44874293D01*
X197315542Y-44874293D01*
X197329868Y-44873316D01*
X197497054Y-44842330D01*
X197638953Y-44816031D01*
X197638961Y-44816029D01*
X197653092Y-44813410D01*
X197666836Y-44809182D01*
X197804947Y-44766693D01*
X197967289Y-44716750D01*
X198042712Y-44683642D01*
X198179564Y-44645642D01*
X198321578Y-44647738D01*
X198434244Y-44679542D01*
X198559694Y-44731506D01*
X198559709Y-44731511D01*
X198572977Y-44737007D01*
X198586793Y-44740942D01*
X198586797Y-44740944D01*
X198875307Y-44823128D01*
X198875312Y-44823129D01*
X198889129Y-44827065D01*
X199100520Y-44861682D01*
X199199344Y-44877865D01*
X199199347Y-44877865D01*
X199213537Y-44880189D01*
X199227896Y-44880866D01*
X199227904Y-44880867D01*
X199527538Y-44894997D01*
X199527543Y-44894997D01*
X199541900Y-44895674D01*
X199769048Y-44880189D01*
X199855539Y-44874293D01*
X199855542Y-44874293D01*
X199869868Y-44873316D01*
X200037054Y-44842330D01*
X200178953Y-44816031D01*
X200178961Y-44816029D01*
X200193092Y-44813410D01*
X200206836Y-44809182D01*
X200344947Y-44766693D01*
X200507289Y-44716750D01*
X200582712Y-44683642D01*
X200719564Y-44645642D01*
X200861578Y-44647738D01*
X200974244Y-44679542D01*
X201099694Y-44731506D01*
X201099709Y-44731511D01*
X201112977Y-44737007D01*
X201126793Y-44740942D01*
X201126797Y-44740944D01*
X201415307Y-44823128D01*
X201415312Y-44823129D01*
X201429129Y-44827065D01*
X201640520Y-44861682D01*
X201739344Y-44877865D01*
X201739347Y-44877865D01*
X201753537Y-44880189D01*
X201767896Y-44880866D01*
X201767904Y-44880867D01*
X202067538Y-44894997D01*
X202067543Y-44894997D01*
X202081900Y-44895674D01*
X202309048Y-44880189D01*
X202395539Y-44874293D01*
X202395542Y-44874293D01*
X202409868Y-44873316D01*
X202577054Y-44842330D01*
X202718953Y-44816031D01*
X202718961Y-44816029D01*
X202733092Y-44813410D01*
X202746836Y-44809182D01*
X202884947Y-44766693D01*
X203047289Y-44716750D01*
X203122712Y-44683642D01*
X203259564Y-44645642D01*
X203401578Y-44647738D01*
X203514244Y-44679542D01*
X203639694Y-44731506D01*
X203639709Y-44731511D01*
X203652977Y-44737007D01*
X203666793Y-44740942D01*
X203666797Y-44740944D01*
X203955307Y-44823128D01*
X203955312Y-44823129D01*
X203969129Y-44827065D01*
X204180520Y-44861682D01*
X204279344Y-44877865D01*
X204279347Y-44877865D01*
X204293537Y-44880189D01*
X204307896Y-44880866D01*
X204307904Y-44880867D01*
X204607538Y-44894997D01*
X204607543Y-44894997D01*
X204621900Y-44895674D01*
X204849048Y-44880189D01*
X204935539Y-44874293D01*
X204935542Y-44874293D01*
X204949868Y-44873316D01*
X205117054Y-44842330D01*
X205258953Y-44816031D01*
X205258961Y-44816029D01*
X205273092Y-44813410D01*
X205286836Y-44809182D01*
X205424947Y-44766693D01*
X205587289Y-44716750D01*
X205662712Y-44683642D01*
X205799564Y-44645642D01*
X205941578Y-44647738D01*
G37*
%TD.AperFunction*%
%TA.AperFunction,NonConductor*%
G36*
X97084883Y-51496052D02*
G01*
X97209540Y-51564120D01*
X97309970Y-51664550D01*
X97378038Y-51789207D01*
X97408229Y-51927992D01*
X97409500Y-51963590D01*
X97409500Y-55195500D01*
X97389287Y-55336085D01*
X97330286Y-55465280D01*
X97237276Y-55572619D01*
X97117792Y-55649406D01*
X96981515Y-55689421D01*
X96910500Y-55694500D01*
X96109500Y-55694500D01*
X95968915Y-55674287D01*
X95839720Y-55615286D01*
X95732381Y-55522276D01*
X95655594Y-55402792D01*
X95615579Y-55266515D01*
X95610500Y-55195500D01*
X95610500Y-54424950D01*
X95609427Y-54397642D01*
X95567308Y-54117490D01*
X95562254Y-54100589D01*
X95562252Y-54100582D01*
X95491189Y-53862962D01*
X95491187Y-53862957D01*
X95486136Y-53846067D01*
X95467984Y-53806691D01*
X95374917Y-53604815D01*
X95374915Y-53604811D01*
X95367529Y-53588790D01*
X95268694Y-53435721D01*
X95209419Y-53306656D01*
X95188905Y-53166115D01*
X95208818Y-53025488D01*
X95267543Y-52896166D01*
X95358889Y-52789882D01*
X95518420Y-52649975D01*
X95518450Y-52649948D01*
X95575189Y-52600189D01*
X95614191Y-52555715D01*
X95636497Y-52531901D01*
X96557654Y-51610744D01*
X96671355Y-51525628D01*
X96804430Y-51475994D01*
X96946098Y-51465861D01*
X97084883Y-51496052D01*
G37*
%TD.AperFunction*%
%TA.AperFunction,NonConductor*%
G36*
X82808673Y-48525713D02*
G01*
X82937868Y-48584714D01*
X83045207Y-48677724D01*
X83121994Y-48797208D01*
X83162009Y-48933485D01*
X83162009Y-49075515D01*
X83121994Y-49211792D01*
X83045207Y-49331276D01*
X83031833Y-49346100D01*
X83024444Y-49353968D01*
X83013545Y-49365214D01*
X81975214Y-50403545D01*
X81963959Y-50414453D01*
X81883610Y-50489906D01*
X81813382Y-50574797D01*
X81803200Y-50586718D01*
X81740687Y-50657625D01*
X81740682Y-50657632D01*
X81730311Y-50669395D01*
X81721499Y-50682362D01*
X81721487Y-50682377D01*
X81721386Y-50682526D01*
X81693167Y-50720111D01*
X81683053Y-50732337D01*
X81638114Y-50803150D01*
X81624010Y-50825374D01*
X81615403Y-50838476D01*
X81588041Y-50878739D01*
X81553459Y-50929625D01*
X81546340Y-50943596D01*
X81546338Y-50943600D01*
X81546257Y-50943760D01*
X81522962Y-50984600D01*
X81514463Y-50997993D01*
X81507786Y-51012181D01*
X81507780Y-51012193D01*
X81467543Y-51097700D01*
X81460650Y-51111771D01*
X81417735Y-51195997D01*
X81417732Y-51196004D01*
X81410617Y-51209968D01*
X81405237Y-51224912D01*
X81387255Y-51268323D01*
X81380497Y-51282685D01*
X81375652Y-51297595D01*
X81375652Y-51297596D01*
X81346433Y-51387521D01*
X81341358Y-51402341D01*
X81304038Y-51506004D01*
X81300621Y-51521294D01*
X81300619Y-51521299D01*
X81300581Y-51521471D01*
X81288168Y-51566843D01*
X81283269Y-51581921D01*
X81280331Y-51597322D01*
X81280329Y-51597330D01*
X81262621Y-51690159D01*
X81259443Y-51705506D01*
X81238823Y-51797756D01*
X81235402Y-51813062D01*
X81233926Y-51828670D01*
X81233926Y-51828673D01*
X81233908Y-51828867D01*
X81227285Y-51875399D01*
X81224312Y-51890985D01*
X81223327Y-51906643D01*
X81217392Y-52000978D01*
X81216166Y-52016573D01*
X81205793Y-52126302D01*
X81208552Y-52214098D01*
X81209254Y-52236442D01*
X81209500Y-52252115D01*
X81209500Y-59313548D01*
X81207286Y-59360506D01*
X81207268Y-59360692D01*
X81207268Y-59360701D01*
X81205793Y-59376302D01*
X81206285Y-59391966D01*
X81206285Y-59391973D01*
X81209254Y-59486442D01*
X81209500Y-59502115D01*
X81209500Y-60205500D01*
X81189287Y-60346085D01*
X81130286Y-60475280D01*
X81037276Y-60582619D01*
X80917792Y-60659406D01*
X80781515Y-60699421D01*
X80710500Y-60704500D01*
X79757115Y-60704500D01*
X79741445Y-60704254D01*
X79631302Y-60700793D01*
X79521573Y-60711166D01*
X79505978Y-60712392D01*
X79427117Y-60717353D01*
X79395985Y-60719312D01*
X79380408Y-60722283D01*
X79380399Y-60722285D01*
X79333870Y-60728908D01*
X79318064Y-60730402D01*
X79317893Y-60728591D01*
X79195547Y-60730339D01*
X79058713Y-60692275D01*
X78938145Y-60617202D01*
X78843611Y-60511203D01*
X78782770Y-60382863D01*
X78760500Y-60235454D01*
X78760500Y-49004500D01*
X78780713Y-48863915D01*
X78839714Y-48734720D01*
X78932724Y-48627381D01*
X79052208Y-48550594D01*
X79188485Y-48510579D01*
X79259500Y-48505500D01*
X82668088Y-48505500D01*
X82808673Y-48525713D01*
G37*
%TD.AperFunction*%
%TA.AperFunction,NonConductor*%
G36*
X84359010Y-68757881D02*
G01*
X84471673Y-68789684D01*
X84614164Y-68848706D01*
X84614170Y-68848708D01*
X84627448Y-68854208D01*
X84641276Y-68858147D01*
X84924229Y-68938749D01*
X84924236Y-68938751D01*
X84938055Y-68942687D01*
X84952236Y-68945009D01*
X84952244Y-68945011D01*
X85242577Y-68992555D01*
X85242586Y-68992556D01*
X85256772Y-68994879D01*
X85271134Y-68995556D01*
X85271141Y-68995557D01*
X85409947Y-69002102D01*
X85579376Y-69010092D01*
X85802533Y-68994879D01*
X85887234Y-68989105D01*
X85887238Y-68989104D01*
X85901591Y-68988126D01*
X85915730Y-68985506D01*
X85915742Y-68985504D01*
X85919678Y-68984774D01*
X85922384Y-68984664D01*
X85929987Y-68983704D01*
X85930069Y-68984353D01*
X86061592Y-68979029D01*
X86199375Y-69013499D01*
X86321867Y-69085391D01*
X86419142Y-69188880D01*
X86483321Y-69315583D01*
X86509204Y-69455235D01*
X86494693Y-69596522D01*
X86440966Y-69727998D01*
X86352373Y-69839011D01*
X86317509Y-69868645D01*
X86306540Y-69875974D01*
X86136553Y-70025048D01*
X86136542Y-70025059D01*
X86079811Y-70074811D01*
X86069039Y-70087094D01*
X86040831Y-70119259D01*
X86018510Y-70143091D01*
X85209751Y-70951850D01*
X85096050Y-71036966D01*
X84963209Y-71086549D01*
X84809662Y-71120028D01*
X84809645Y-71120033D01*
X84795614Y-71123092D01*
X84490064Y-71227705D01*
X84477090Y-71233893D01*
X84465731Y-71238529D01*
X84327932Y-71272936D01*
X84186020Y-71267127D01*
X84100794Y-71243310D01*
X83862336Y-71153204D01*
X83862329Y-71153202D01*
X83848883Y-71148121D01*
X83834942Y-71144619D01*
X83834938Y-71144618D01*
X83676334Y-71104780D01*
X83535651Y-71069443D01*
X83215451Y-71027288D01*
X83201079Y-71027062D01*
X83201076Y-71027062D01*
X82933095Y-71022852D01*
X82892528Y-71022215D01*
X82878223Y-71023643D01*
X82878218Y-71023643D01*
X82585469Y-71052863D01*
X82585467Y-71052863D01*
X82571163Y-71054291D01*
X82255614Y-71123092D01*
X81950064Y-71227705D01*
X81937090Y-71233893D01*
X81925731Y-71238529D01*
X81787932Y-71272936D01*
X81646020Y-71267127D01*
X81560794Y-71243310D01*
X81322336Y-71153204D01*
X81322329Y-71153202D01*
X81308883Y-71148121D01*
X81294937Y-71144618D01*
X81281231Y-71140323D01*
X81282200Y-71137232D01*
X81177263Y-71094305D01*
X81066281Y-71005672D01*
X80984766Y-70889363D01*
X80939322Y-70754799D01*
X80930999Y-70664043D01*
X80930999Y-69486934D01*
X80951212Y-69346349D01*
X81010213Y-69217154D01*
X81077153Y-69134088D01*
X81259430Y-68951811D01*
X81373131Y-68866695D01*
X81436498Y-68837793D01*
X81447830Y-68834307D01*
X81540145Y-68793783D01*
X81676995Y-68755785D01*
X81819010Y-68757881D01*
X81931673Y-68789684D01*
X82074164Y-68848706D01*
X82074170Y-68848708D01*
X82087448Y-68854208D01*
X82101276Y-68858147D01*
X82384229Y-68938749D01*
X82384236Y-68938751D01*
X82398055Y-68942687D01*
X82412236Y-68945009D01*
X82412244Y-68945011D01*
X82702577Y-68992555D01*
X82702586Y-68992556D01*
X82716772Y-68994879D01*
X82731134Y-68995556D01*
X82731141Y-68995557D01*
X82869947Y-69002102D01*
X83039376Y-69010092D01*
X83262533Y-68994879D01*
X83347234Y-68989105D01*
X83347238Y-68989104D01*
X83361591Y-68988126D01*
X83679145Y-68929271D01*
X83987830Y-68834307D01*
X84000991Y-68828530D01*
X84019230Y-68820523D01*
X84080145Y-68793783D01*
X84216995Y-68755785D01*
X84359010Y-68757881D01*
G37*
%TD.AperFunction*%
%TA.AperFunction,NonConductor*%
G36*
X192813629Y-62725713D02*
G01*
X192942824Y-62784714D01*
X193050163Y-62877724D01*
X193126950Y-62997208D01*
X193166965Y-63133485D01*
X193166965Y-63275515D01*
X193126209Y-63413407D01*
X193042700Y-63594551D01*
X192941043Y-63910228D01*
X192938188Y-63924987D01*
X192938187Y-63924989D01*
X192880901Y-64221078D01*
X192880900Y-64221086D01*
X192878047Y-64235832D01*
X192854624Y-64566645D01*
X192855371Y-64581651D01*
X192855371Y-64581657D01*
X192863400Y-64742936D01*
X192871114Y-64897876D01*
X192873657Y-64912676D01*
X192873658Y-64912684D01*
X192913248Y-65143084D01*
X192927277Y-65224727D01*
X192931580Y-65239114D01*
X192931581Y-65239120D01*
X192965796Y-65353526D01*
X193022300Y-65542464D01*
X193154807Y-65846483D01*
X193253850Y-66014961D01*
X193307670Y-66146395D01*
X193322659Y-66263887D01*
X193384478Y-74058959D01*
X193365381Y-74199699D01*
X193307406Y-74329358D01*
X193215250Y-74437432D01*
X193096379Y-74515164D01*
X192960424Y-74556258D01*
X192935059Y-74559448D01*
X192840232Y-74568913D01*
X192759059Y-74577015D01*
X192617162Y-74570864D01*
X192482746Y-74524986D01*
X192366700Y-74443096D01*
X192278425Y-74331830D01*
X192225074Y-74200201D01*
X192210500Y-74080482D01*
X192210500Y-72252138D01*
X192210746Y-72236464D01*
X192213715Y-72141976D01*
X192214208Y-72126302D01*
X192211324Y-72095797D01*
X192203837Y-72016586D01*
X192202607Y-72000959D01*
X192196673Y-71906640D01*
X192196673Y-71906638D01*
X192195688Y-71890985D01*
X192192715Y-71875398D01*
X192186090Y-71828848D01*
X192186073Y-71828670D01*
X192184598Y-71813062D01*
X192174618Y-71768412D01*
X192160557Y-71705506D01*
X192157379Y-71690159D01*
X192139671Y-71597330D01*
X192139669Y-71597322D01*
X192136731Y-71581921D01*
X192131832Y-71566843D01*
X192119419Y-71521471D01*
X192119381Y-71521299D01*
X192119379Y-71521294D01*
X192115962Y-71506004D01*
X192078642Y-71402341D01*
X192073567Y-71387521D01*
X192044348Y-71297596D01*
X192044348Y-71297595D01*
X192039503Y-71282685D01*
X192032745Y-71268323D01*
X192014763Y-71224912D01*
X192009383Y-71209968D01*
X191959322Y-71111717D01*
X191952467Y-71097726D01*
X191905537Y-70997993D01*
X191897042Y-70984606D01*
X191873744Y-70943761D01*
X191866542Y-70929626D01*
X191857733Y-70916664D01*
X191857727Y-70916654D01*
X191804596Y-70838476D01*
X191795986Y-70825369D01*
X191745353Y-70745582D01*
X191745349Y-70745576D01*
X191736947Y-70732337D01*
X191726954Y-70720257D01*
X191726947Y-70720248D01*
X191726833Y-70720111D01*
X191698614Y-70682526D01*
X191698513Y-70682377D01*
X191698501Y-70682362D01*
X191689689Y-70669395D01*
X191679318Y-70657632D01*
X191679313Y-70657625D01*
X191616800Y-70586718D01*
X191606618Y-70574797D01*
X191536390Y-70489906D01*
X191456041Y-70414453D01*
X191444786Y-70403545D01*
X189337654Y-68296413D01*
X189252538Y-68182712D01*
X189202904Y-68049637D01*
X189191500Y-67943567D01*
X189191500Y-63404703D01*
X189211713Y-63264118D01*
X189244708Y-63180493D01*
X189259063Y-63151951D01*
X189259065Y-63151945D01*
X189265527Y-63139098D01*
X189270468Y-63125597D01*
X189270472Y-63125587D01*
X189304350Y-63033012D01*
X189371645Y-62907937D01*
X189471453Y-62806887D01*
X189595686Y-62738050D01*
X189734281Y-62707001D01*
X189772957Y-62705500D01*
X192673044Y-62705500D01*
X192813629Y-62725713D01*
G37*
%TD.AperFunction*%
%TA.AperFunction,NonConductor*%
G36*
X217898168Y-62344510D02*
G01*
X218020830Y-62416111D01*
X218118350Y-62519370D01*
X218182829Y-62645920D01*
X218209042Y-62785511D01*
X218209500Y-62806875D01*
X218209500Y-74229230D01*
X218189287Y-74369815D01*
X218130286Y-74499010D01*
X218037276Y-74606349D01*
X217917792Y-74683136D01*
X217781515Y-74723151D01*
X217639485Y-74723151D01*
X217527390Y-74690020D01*
X217526458Y-74692486D01*
X217509949Y-74686248D01*
X217493933Y-74678864D01*
X217477043Y-74673813D01*
X217477038Y-74673811D01*
X217239418Y-74602748D01*
X217239411Y-74602746D01*
X217222510Y-74597692D01*
X216942358Y-74555573D01*
X216928657Y-74555035D01*
X216928650Y-74555034D01*
X216919971Y-74554693D01*
X216919953Y-74554693D01*
X216915050Y-74554500D01*
X216482229Y-74554500D01*
X216341644Y-74534287D01*
X216212449Y-74475286D01*
X216105110Y-74382276D01*
X216028323Y-74262792D01*
X216005675Y-74203477D01*
X215972098Y-74095343D01*
X215972095Y-74095335D01*
X215967641Y-74080991D01*
X215897919Y-73925489D01*
X215838107Y-73792088D01*
X215838103Y-73792081D01*
X215831958Y-73778375D01*
X215824210Y-73765505D01*
X215824206Y-73765498D01*
X215668656Y-73507131D01*
X215668654Y-73507129D01*
X215660902Y-73494252D01*
X215456951Y-73232737D01*
X215223060Y-72997618D01*
X214962617Y-72792301D01*
X214679393Y-72619760D01*
X214665723Y-72613545D01*
X214665720Y-72613543D01*
X214391174Y-72488714D01*
X214391168Y-72488712D01*
X214377493Y-72482494D01*
X214061288Y-72382491D01*
X214046527Y-72379715D01*
X214046514Y-72379712D01*
X213841216Y-72341106D01*
X213706789Y-72295260D01*
X213590723Y-72213399D01*
X213502422Y-72102154D01*
X213478110Y-72054858D01*
X213458885Y-72011980D01*
X213451137Y-71999110D01*
X213451133Y-71999103D01*
X213295583Y-71740736D01*
X213295581Y-71740734D01*
X213287829Y-71727857D01*
X213083878Y-71466342D01*
X212849987Y-71231223D01*
X212838180Y-71221915D01*
X212601345Y-71035209D01*
X212601343Y-71035208D01*
X212589544Y-71025906D01*
X212306320Y-70853365D01*
X212292650Y-70847150D01*
X212292647Y-70847148D01*
X212018101Y-70722319D01*
X212018095Y-70722317D01*
X212004420Y-70716099D01*
X211688215Y-70616096D01*
X211673458Y-70613321D01*
X211673454Y-70613320D01*
X211377044Y-70557581D01*
X211377041Y-70557581D01*
X211362286Y-70554806D01*
X211267479Y-70548592D01*
X211082213Y-70536449D01*
X210943251Y-70507084D01*
X210818191Y-70439759D01*
X210717165Y-70339928D01*
X210687347Y-70295894D01*
X210604401Y-70158121D01*
X210604399Y-70158119D01*
X210596647Y-70145242D01*
X210392696Y-69883727D01*
X210158805Y-69648608D01*
X209953723Y-69486934D01*
X209910163Y-69452594D01*
X209910161Y-69452593D01*
X209898362Y-69443291D01*
X209615138Y-69270750D01*
X209601468Y-69264535D01*
X209601465Y-69264533D01*
X209326919Y-69139704D01*
X209326913Y-69139702D01*
X209313238Y-69133484D01*
X208997033Y-69033481D01*
X208982276Y-69030706D01*
X208982272Y-69030705D01*
X208685862Y-68974966D01*
X208685859Y-68974966D01*
X208671104Y-68972191D01*
X208448905Y-68957628D01*
X208309946Y-68928264D01*
X208184886Y-68860939D01*
X208083859Y-68761108D01*
X208054041Y-68717074D01*
X208048660Y-68708136D01*
X208048655Y-68708129D01*
X208040902Y-68695251D01*
X207836951Y-68433736D01*
X207603060Y-68198617D01*
X207342617Y-67993300D01*
X207059393Y-67820759D01*
X207045723Y-67814544D01*
X207045720Y-67814542D01*
X206771174Y-67689713D01*
X206771168Y-67689711D01*
X206757493Y-67683493D01*
X206718946Y-67671302D01*
X206455615Y-67588021D01*
X206455614Y-67588021D01*
X206441288Y-67583490D01*
X206426531Y-67580715D01*
X206426527Y-67580714D01*
X206130117Y-67524975D01*
X206130114Y-67524975D01*
X206115359Y-67522200D01*
X205840754Y-67504202D01*
X205701793Y-67474838D01*
X205576733Y-67407513D01*
X205479905Y-67313142D01*
X205380958Y-67186268D01*
X205300606Y-67083237D01*
X205066715Y-66848118D01*
X204806272Y-66642801D01*
X204523048Y-66470260D01*
X204509378Y-66464045D01*
X204509375Y-66464043D01*
X204234829Y-66339214D01*
X204234823Y-66339212D01*
X204221148Y-66332994D01*
X204206815Y-66328461D01*
X203919270Y-66237522D01*
X203919269Y-66237522D01*
X203904943Y-66232991D01*
X203890186Y-66230216D01*
X203890182Y-66230215D01*
X203593772Y-66174476D01*
X203593769Y-66174476D01*
X203579014Y-66171701D01*
X203400747Y-66160017D01*
X203261786Y-66130652D01*
X203136726Y-66063328D01*
X203035700Y-65963497D01*
X203005881Y-65919462D01*
X202968656Y-65857631D01*
X202968654Y-65857629D01*
X202960902Y-65844752D01*
X202756951Y-65583237D01*
X202523060Y-65348118D01*
X202511253Y-65338810D01*
X202274418Y-65152104D01*
X202274416Y-65152103D01*
X202262617Y-65142801D01*
X201979393Y-64970260D01*
X201965723Y-64964045D01*
X201965720Y-64964043D01*
X201691174Y-64839214D01*
X201691168Y-64839212D01*
X201677493Y-64832994D01*
X201601957Y-64809105D01*
X201375615Y-64737522D01*
X201375614Y-64737522D01*
X201361288Y-64732991D01*
X201346531Y-64730216D01*
X201346527Y-64730215D01*
X201050117Y-64674476D01*
X201050114Y-64674476D01*
X201035359Y-64671701D01*
X200982906Y-64668263D01*
X200860896Y-64660266D01*
X200721935Y-64630901D01*
X200596875Y-64563576D01*
X200495849Y-64463745D01*
X200466031Y-64419711D01*
X200428656Y-64357631D01*
X200428654Y-64357629D01*
X200420902Y-64344752D01*
X200216951Y-64083237D01*
X199983060Y-63848118D01*
X199962607Y-63831994D01*
X199734418Y-63652104D01*
X199734416Y-63652103D01*
X199722617Y-63642801D01*
X199702665Y-63630646D01*
X199697976Y-63626777D01*
X199697443Y-63626406D01*
X199697474Y-63626362D01*
X199593123Y-63540243D01*
X199513487Y-63422639D01*
X199470209Y-63287363D01*
X199466796Y-63145374D01*
X199503525Y-63008175D01*
X199577419Y-62886881D01*
X199682492Y-62791318D01*
X199810232Y-62729229D01*
X199962281Y-62705500D01*
X216162885Y-62705500D01*
X216178555Y-62705746D01*
X216288698Y-62709207D01*
X216398427Y-62698834D01*
X216414022Y-62697608D01*
X216492883Y-62692647D01*
X216524015Y-62690688D01*
X216539601Y-62687715D01*
X216586130Y-62681092D01*
X216586217Y-62681084D01*
X216586327Y-62681074D01*
X216586330Y-62681074D01*
X216601938Y-62679598D01*
X216617240Y-62676178D01*
X216617244Y-62676177D01*
X216709494Y-62655557D01*
X216724841Y-62652379D01*
X216817670Y-62634671D01*
X216817678Y-62634669D01*
X216833079Y-62631731D01*
X216848157Y-62626832D01*
X216893529Y-62614419D01*
X216893701Y-62614381D01*
X216893706Y-62614379D01*
X216908996Y-62610962D01*
X217012659Y-62573642D01*
X217027479Y-62568567D01*
X217117404Y-62539348D01*
X217117405Y-62539348D01*
X217132315Y-62534503D01*
X217146677Y-62527745D01*
X217190088Y-62509763D01*
X217205032Y-62504383D01*
X217218996Y-62497268D01*
X217219003Y-62497265D01*
X217303229Y-62454350D01*
X217317300Y-62447457D01*
X217402807Y-62407220D01*
X217402819Y-62407214D01*
X217417007Y-62400537D01*
X217430400Y-62392038D01*
X217471240Y-62368743D01*
X217483964Y-62362260D01*
X217618403Y-62316447D01*
X217760303Y-62310367D01*
X217898168Y-62344510D01*
G37*
%TD.AperFunction*%
%TA.AperFunction,NonConductor*%
G36*
X160604084Y-64739881D02*
G01*
X160734026Y-64797219D01*
X160842551Y-64888844D01*
X160920865Y-65007332D01*
X160962626Y-65143084D01*
X160968039Y-65195619D01*
X160971114Y-65257376D01*
X160973657Y-65272176D01*
X160973658Y-65272184D01*
X161020101Y-65542464D01*
X161027277Y-65584227D01*
X161031580Y-65598614D01*
X161031581Y-65598620D01*
X161059267Y-65691195D01*
X161122300Y-65901964D01*
X161128307Y-65915746D01*
X161230412Y-66150011D01*
X161254807Y-66205983D01*
X161262423Y-66218938D01*
X161390785Y-66437288D01*
X161422879Y-66491882D01*
X161624080Y-66755518D01*
X161855496Y-66993073D01*
X161867188Y-67002491D01*
X161867193Y-67002495D01*
X162102068Y-67191678D01*
X162102074Y-67191682D01*
X162113775Y-67201107D01*
X162395176Y-67376604D01*
X162695623Y-67517024D01*
X163010763Y-67620332D01*
X163336032Y-67685032D01*
X163351009Y-67686171D01*
X163351029Y-67686174D01*
X163618350Y-67706509D01*
X163756996Y-67737327D01*
X163881344Y-67805958D01*
X163981319Y-67906842D01*
X164048822Y-68031806D01*
X164078385Y-68170725D01*
X164079500Y-68204071D01*
X164079500Y-74013414D01*
X164059287Y-74153999D01*
X164000286Y-74283194D01*
X163907276Y-74390533D01*
X163787792Y-74467320D01*
X163651515Y-74507335D01*
X163630060Y-74509947D01*
X163400469Y-74532863D01*
X163400467Y-74532863D01*
X163386163Y-74534291D01*
X163070614Y-74603092D01*
X162765064Y-74707705D01*
X162473562Y-74846744D01*
X162461397Y-74854375D01*
X162461390Y-74854379D01*
X162365598Y-74914470D01*
X162199974Y-75018366D01*
X162199610Y-75017785D01*
X162082749Y-75077891D01*
X161943260Y-75104637D01*
X161801886Y-75091001D01*
X161670080Y-75038088D01*
X161606872Y-74993000D01*
X161606645Y-74993303D01*
X161594240Y-74983989D01*
X161592956Y-74983073D01*
X161579209Y-74971144D01*
X161341210Y-74817471D01*
X161325189Y-74810085D01*
X161325185Y-74810083D01*
X161099951Y-74706248D01*
X161099946Y-74706246D01*
X161083933Y-74698864D01*
X161067043Y-74693813D01*
X161067038Y-74693811D01*
X160829418Y-74622748D01*
X160829411Y-74622746D01*
X160812510Y-74617692D01*
X160532358Y-74575573D01*
X160518657Y-74575035D01*
X160518650Y-74575034D01*
X160509971Y-74574693D01*
X160509953Y-74574693D01*
X160505050Y-74574500D01*
X160157577Y-74574500D01*
X160016992Y-74554287D01*
X159887797Y-74495286D01*
X159780458Y-74402276D01*
X159703671Y-74282792D01*
X159691703Y-74254073D01*
X159687641Y-74240991D01*
X159551958Y-73938375D01*
X159544208Y-73925502D01*
X159544201Y-73925489D01*
X159480120Y-73819050D01*
X159424925Y-73688183D01*
X159408622Y-73562241D01*
X159399243Y-65314874D01*
X159419296Y-65174267D01*
X159478151Y-65045005D01*
X159571039Y-64937560D01*
X159690435Y-64860637D01*
X159826666Y-64820467D01*
X159864302Y-64816463D01*
X159972236Y-64809105D01*
X159972243Y-64809104D01*
X159986591Y-64808126D01*
X160304145Y-64749271D01*
X160317873Y-64745048D01*
X160317884Y-64745045D01*
X160322938Y-64743490D01*
X160326471Y-64742936D01*
X160331848Y-64741615D01*
X160331961Y-64742074D01*
X160463252Y-64721474D01*
X160604084Y-64739881D01*
G37*
%TD.AperFunction*%
%TA.AperFunction,NonConductor*%
G36*
X142441578Y-44647738D02*
G01*
X142554244Y-44679542D01*
X142679694Y-44731506D01*
X142679709Y-44731511D01*
X142692977Y-44737007D01*
X142706793Y-44740942D01*
X142706797Y-44740944D01*
X142995307Y-44823128D01*
X142995312Y-44823129D01*
X143009129Y-44827065D01*
X143220520Y-44861682D01*
X143319344Y-44877865D01*
X143319347Y-44877865D01*
X143333537Y-44880189D01*
X143347896Y-44880866D01*
X143347904Y-44880867D01*
X143396006Y-44883135D01*
X143535483Y-44909948D01*
X143661755Y-44974970D01*
X143764594Y-45072933D01*
X143835667Y-45195901D01*
X143869218Y-45333912D01*
X143871500Y-45381581D01*
X143871500Y-46388410D01*
X143851287Y-46528995D01*
X143792286Y-46658190D01*
X143725346Y-46741256D01*
X138923599Y-51543003D01*
X138809898Y-51628119D01*
X138677057Y-51677702D01*
X138574662Y-51700028D01*
X138574645Y-51700033D01*
X138560614Y-51703092D01*
X138255064Y-51807705D01*
X138242090Y-51813893D01*
X138230731Y-51818529D01*
X138092932Y-51852936D01*
X137951020Y-51847127D01*
X137865794Y-51823310D01*
X137627336Y-51733204D01*
X137627329Y-51733202D01*
X137613883Y-51728121D01*
X137599942Y-51724619D01*
X137599938Y-51724618D01*
X137413155Y-51677702D01*
X137300651Y-51649443D01*
X136980451Y-51607288D01*
X136966079Y-51607062D01*
X136966076Y-51607062D01*
X136698095Y-51602852D01*
X136657528Y-51602215D01*
X136643223Y-51603643D01*
X136643218Y-51603643D01*
X136350469Y-51632863D01*
X136350467Y-51632863D01*
X136336163Y-51634291D01*
X136020614Y-51703092D01*
X135715064Y-51807705D01*
X135423562Y-51946744D01*
X135411397Y-51954375D01*
X135411390Y-51954379D01*
X135318394Y-52012716D01*
X135149974Y-52118366D01*
X135138754Y-52127355D01*
X134909136Y-52311313D01*
X134909131Y-52311318D01*
X134897924Y-52320296D01*
X134887822Y-52330505D01*
X134887818Y-52330508D01*
X134680861Y-52539644D01*
X134680856Y-52539649D01*
X134670754Y-52549858D01*
X134471474Y-52804008D01*
X134302727Y-53079379D01*
X134296673Y-53092422D01*
X134296671Y-53092425D01*
X134172799Y-53359283D01*
X134172796Y-53359292D01*
X134166748Y-53372320D01*
X134132806Y-53474950D01*
X134089858Y-53604815D01*
X134065340Y-53678949D01*
X134062425Y-53693025D01*
X134038886Y-53806691D01*
X133990584Y-53940256D01*
X133906609Y-54054802D01*
X133793765Y-54141050D01*
X133661192Y-54192012D01*
X133550254Y-54204500D01*
X132507115Y-54204500D01*
X132491445Y-54204254D01*
X132381302Y-54200793D01*
X132271573Y-54211166D01*
X132255978Y-54212392D01*
X132177117Y-54217353D01*
X132145985Y-54219312D01*
X132130408Y-54222283D01*
X132130399Y-54222285D01*
X132083870Y-54228908D01*
X132083783Y-54228916D01*
X132083673Y-54228926D01*
X132083670Y-54228926D01*
X132068062Y-54230402D01*
X132052760Y-54233822D01*
X132052756Y-54233823D01*
X131960506Y-54254443D01*
X131945159Y-54257621D01*
X131852330Y-54275329D01*
X131852322Y-54275331D01*
X131836921Y-54278269D01*
X131821843Y-54283168D01*
X131776471Y-54295581D01*
X131776304Y-54295618D01*
X131776301Y-54295619D01*
X131761004Y-54299038D01*
X131657306Y-54336372D01*
X131642505Y-54341439D01*
X131537685Y-54375497D01*
X131523505Y-54382170D01*
X131523499Y-54382172D01*
X131523329Y-54382252D01*
X131479882Y-54400248D01*
X131464968Y-54405618D01*
X131366790Y-54455642D01*
X131352716Y-54462536D01*
X131277283Y-54498033D01*
X131252993Y-54509463D01*
X131239754Y-54517865D01*
X131239741Y-54517872D01*
X131239587Y-54517970D01*
X131198771Y-54541251D01*
X131198607Y-54541334D01*
X131198595Y-54541341D01*
X131184625Y-54548459D01*
X131171659Y-54557271D01*
X131171645Y-54557279D01*
X131093476Y-54610403D01*
X131080374Y-54619010D01*
X130987337Y-54678053D01*
X130975257Y-54688047D01*
X130975255Y-54688048D01*
X130975111Y-54688167D01*
X130937526Y-54716386D01*
X130937377Y-54716487D01*
X130937362Y-54716499D01*
X130924395Y-54725311D01*
X130912632Y-54735682D01*
X130912625Y-54735687D01*
X130841718Y-54798200D01*
X130829797Y-54808382D01*
X130744906Y-54878610D01*
X130734179Y-54890034D01*
X130734177Y-54890035D01*
X130669454Y-54958958D01*
X130658545Y-54970214D01*
X128790214Y-56838545D01*
X128778959Y-56849453D01*
X128698610Y-56924906D01*
X128628382Y-57009797D01*
X128618200Y-57021718D01*
X128555687Y-57092625D01*
X128555682Y-57092632D01*
X128545311Y-57104395D01*
X128536499Y-57117362D01*
X128536487Y-57117377D01*
X128536386Y-57117526D01*
X128508167Y-57155111D01*
X128498053Y-57167337D01*
X128489653Y-57180574D01*
X128439010Y-57260374D01*
X128430403Y-57273476D01*
X128377282Y-57351642D01*
X128368459Y-57364625D01*
X128361340Y-57378596D01*
X128361338Y-57378600D01*
X128361257Y-57378760D01*
X128337962Y-57419600D01*
X128329463Y-57432993D01*
X128322786Y-57447181D01*
X128322780Y-57447193D01*
X128282543Y-57532700D01*
X128275650Y-57546771D01*
X128232735Y-57630997D01*
X128232732Y-57631004D01*
X128225617Y-57644968D01*
X128220237Y-57659912D01*
X128202255Y-57703323D01*
X128195497Y-57717685D01*
X128190652Y-57732595D01*
X128190652Y-57732596D01*
X128161433Y-57822521D01*
X128156358Y-57837341D01*
X128119038Y-57941004D01*
X128115621Y-57956294D01*
X128115619Y-57956299D01*
X128115581Y-57956471D01*
X128103168Y-58001843D01*
X128098269Y-58016921D01*
X128095331Y-58032322D01*
X128095329Y-58032330D01*
X128077621Y-58125159D01*
X128074443Y-58140506D01*
X128050402Y-58248062D01*
X128048926Y-58263670D01*
X128048926Y-58263673D01*
X128048908Y-58263867D01*
X128042285Y-58310399D01*
X128039312Y-58325985D01*
X128038327Y-58341643D01*
X128032392Y-58435978D01*
X128031166Y-58451573D01*
X128020793Y-58561302D01*
X128021286Y-58576981D01*
X128024254Y-58671442D01*
X128024500Y-58687115D01*
X128024500Y-71874013D01*
X128004287Y-72014598D01*
X127945286Y-72143793D01*
X127852276Y-72251132D01*
X127732792Y-72327919D01*
X127596515Y-72367934D01*
X127454485Y-72367934D01*
X127318208Y-72327919D01*
X127193549Y-72246585D01*
X127183664Y-72237778D01*
X127173060Y-72227118D01*
X126912617Y-72021801D01*
X126629393Y-71849260D01*
X126615723Y-71843045D01*
X126615720Y-71843043D01*
X126341174Y-71718214D01*
X126341168Y-71718212D01*
X126327493Y-71711994D01*
X126011288Y-71611991D01*
X125996531Y-71609216D01*
X125996527Y-71609215D01*
X125700117Y-71553476D01*
X125700114Y-71553476D01*
X125685359Y-71550701D01*
X125632906Y-71547263D01*
X125510896Y-71539266D01*
X125371935Y-71509901D01*
X125246875Y-71442576D01*
X125145849Y-71342745D01*
X125116031Y-71298711D01*
X125078656Y-71236631D01*
X125078654Y-71236629D01*
X125070902Y-71223752D01*
X124866951Y-70962237D01*
X124633060Y-70727118D01*
X124621253Y-70717810D01*
X124384418Y-70531104D01*
X124384416Y-70531103D01*
X124372617Y-70521801D01*
X124089393Y-70349260D01*
X124075723Y-70343045D01*
X124075720Y-70343043D01*
X123801174Y-70218214D01*
X123801168Y-70218212D01*
X123787493Y-70211994D01*
X123569625Y-70143091D01*
X123485615Y-70116522D01*
X123485614Y-70116522D01*
X123471288Y-70111991D01*
X123456531Y-70109216D01*
X123456527Y-70109215D01*
X123160117Y-70053476D01*
X123160114Y-70053476D01*
X123145359Y-70050701D01*
X122967092Y-70039017D01*
X122828131Y-70009652D01*
X122703071Y-69942328D01*
X122602045Y-69842497D01*
X122572226Y-69798462D01*
X122535001Y-69736631D01*
X122534999Y-69736629D01*
X122527247Y-69723752D01*
X122323296Y-69462237D01*
X122089405Y-69227118D01*
X122076766Y-69217154D01*
X121840763Y-69031104D01*
X121840761Y-69031103D01*
X121828962Y-69021801D01*
X121545738Y-68849260D01*
X121532068Y-68843045D01*
X121532065Y-68843043D01*
X121257519Y-68718214D01*
X121257513Y-68718212D01*
X121243838Y-68711994D01*
X121221221Y-68704841D01*
X120941960Y-68616522D01*
X120941959Y-68616522D01*
X120927633Y-68611991D01*
X120912876Y-68609216D01*
X120912872Y-68609215D01*
X120616462Y-68553476D01*
X120616459Y-68553476D01*
X120601704Y-68550701D01*
X120327099Y-68532703D01*
X120188138Y-68503339D01*
X120063078Y-68436014D01*
X119966250Y-68341643D01*
X119796194Y-68123590D01*
X119786951Y-68111738D01*
X119553060Y-67876619D01*
X119376369Y-67737327D01*
X119304418Y-67680605D01*
X119304416Y-67680604D01*
X119292617Y-67671302D01*
X119009393Y-67498761D01*
X118995723Y-67492546D01*
X118995720Y-67492544D01*
X118721174Y-67367715D01*
X118721168Y-67367713D01*
X118707493Y-67361495D01*
X118693160Y-67356962D01*
X118405615Y-67266023D01*
X118405614Y-67266023D01*
X118391288Y-67261492D01*
X118376531Y-67258717D01*
X118376527Y-67258716D01*
X118080117Y-67202977D01*
X118080114Y-67202977D01*
X118065359Y-67200202D01*
X117843160Y-67185639D01*
X117704201Y-67156275D01*
X117579141Y-67088950D01*
X117478114Y-66989119D01*
X117448296Y-66945085D01*
X117442915Y-66936147D01*
X117442910Y-66936140D01*
X117435157Y-66923262D01*
X117231206Y-66661747D01*
X116997315Y-66426628D01*
X116886431Y-66339214D01*
X116748673Y-66230614D01*
X116748671Y-66230613D01*
X116736872Y-66221311D01*
X116453648Y-66048770D01*
X116439978Y-66042555D01*
X116439975Y-66042553D01*
X116165429Y-65917724D01*
X116165423Y-65917722D01*
X116151748Y-65911504D01*
X115940681Y-65844752D01*
X115849870Y-65816032D01*
X115849869Y-65816032D01*
X115835543Y-65811501D01*
X115820786Y-65808726D01*
X115820782Y-65808725D01*
X115524372Y-65752986D01*
X115524369Y-65752986D01*
X115509614Y-65750211D01*
X115414807Y-65743997D01*
X115229541Y-65731854D01*
X115090579Y-65702489D01*
X114965519Y-65635164D01*
X114864493Y-65535333D01*
X114834675Y-65491299D01*
X114751729Y-65353526D01*
X114751727Y-65353524D01*
X114743975Y-65340647D01*
X114540024Y-65079132D01*
X114306133Y-64844013D01*
X114294326Y-64834705D01*
X114057491Y-64647999D01*
X114057489Y-64647998D01*
X114045690Y-64638696D01*
X113762466Y-64466155D01*
X113748796Y-64459940D01*
X113748793Y-64459938D01*
X113474247Y-64335109D01*
X113474241Y-64335107D01*
X113460566Y-64328889D01*
X113144361Y-64228886D01*
X113129600Y-64226110D01*
X113129587Y-64226107D01*
X112924289Y-64187501D01*
X112789862Y-64141655D01*
X112673796Y-64059794D01*
X112585495Y-63948549D01*
X112561183Y-63901253D01*
X112548105Y-63872085D01*
X112541958Y-63858375D01*
X112534210Y-63845505D01*
X112534206Y-63845498D01*
X112378656Y-63587131D01*
X112378654Y-63587129D01*
X112370902Y-63574252D01*
X112166951Y-63312737D01*
X111933060Y-63077618D01*
X111908855Y-63058536D01*
X111684418Y-62881604D01*
X111684416Y-62881603D01*
X111672617Y-62872301D01*
X111389393Y-62699760D01*
X111375723Y-62693545D01*
X111375720Y-62693543D01*
X111101174Y-62568714D01*
X111101168Y-62568712D01*
X111087493Y-62562494D01*
X111055241Y-62552294D01*
X110785615Y-62467022D01*
X110785614Y-62467022D01*
X110771288Y-62462491D01*
X110756531Y-62459716D01*
X110756527Y-62459715D01*
X110460117Y-62403976D01*
X110460114Y-62403976D01*
X110445359Y-62401201D01*
X110370436Y-62396290D01*
X110129416Y-62380493D01*
X110129410Y-62380493D01*
X110114428Y-62379511D01*
X109783288Y-62397735D01*
X109456735Y-62455608D01*
X109442371Y-62459986D01*
X109442366Y-62459987D01*
X109153877Y-62547912D01*
X109153874Y-62547913D01*
X109139500Y-62552294D01*
X109018809Y-62605651D01*
X108859283Y-62676177D01*
X108836179Y-62686391D01*
X108823271Y-62694070D01*
X108823266Y-62694073D01*
X108669573Y-62785511D01*
X108551164Y-62855957D01*
X108288585Y-63058536D01*
X108052244Y-63291193D01*
X108042878Y-63302947D01*
X108042875Y-63302950D01*
X107884273Y-63501984D01*
X107845566Y-63550558D01*
X107671545Y-63832874D01*
X107532700Y-64134051D01*
X107464848Y-64344752D01*
X107449135Y-64393548D01*
X107431043Y-64449728D01*
X107428188Y-64464487D01*
X107428187Y-64464489D01*
X107370901Y-64760578D01*
X107370900Y-64760586D01*
X107368047Y-64775332D01*
X107344624Y-65106145D01*
X107345371Y-65121151D01*
X107345371Y-65121157D01*
X107351891Y-65252115D01*
X107361114Y-65437376D01*
X107363657Y-65452176D01*
X107363658Y-65452184D01*
X107414700Y-65749229D01*
X107417277Y-65764227D01*
X107421580Y-65778614D01*
X107421581Y-65778620D01*
X107445747Y-65859426D01*
X107512300Y-66081964D01*
X107644807Y-66385983D01*
X107660674Y-66412973D01*
X107714495Y-66544411D01*
X107729500Y-66665859D01*
X107729500Y-74122378D01*
X107709287Y-74262963D01*
X107650286Y-74392158D01*
X107557276Y-74499497D01*
X107437792Y-74576284D01*
X107301515Y-74616299D01*
X107280064Y-74618910D01*
X107240481Y-74622861D01*
X107240466Y-74622863D01*
X107226163Y-74624291D01*
X106910614Y-74693092D01*
X106605064Y-74797705D01*
X106313562Y-74936744D01*
X106301397Y-74944375D01*
X106301390Y-74944379D01*
X106192113Y-75012929D01*
X106039974Y-75108366D01*
X106028753Y-75117356D01*
X106028747Y-75117360D01*
X106021500Y-75123166D01*
X105899147Y-75195292D01*
X105761429Y-75230026D01*
X105619504Y-75224552D01*
X105484870Y-75179316D01*
X105368435Y-75097981D01*
X105279630Y-74987138D01*
X105225651Y-74855765D01*
X105210500Y-74733735D01*
X105210500Y-65252115D01*
X105210746Y-65236442D01*
X105213396Y-65152104D01*
X105214207Y-65126302D01*
X105203834Y-65016573D01*
X105202608Y-65000978D01*
X105196673Y-64906643D01*
X105195688Y-64890985D01*
X105192715Y-64875399D01*
X105186092Y-64828867D01*
X105186074Y-64828673D01*
X105186074Y-64828670D01*
X105184598Y-64813062D01*
X105179515Y-64790322D01*
X105160557Y-64705506D01*
X105157379Y-64690159D01*
X105139671Y-64597330D01*
X105139669Y-64597322D01*
X105136731Y-64581921D01*
X105131832Y-64566843D01*
X105119419Y-64521471D01*
X105119382Y-64521304D01*
X105119381Y-64521301D01*
X105115962Y-64506004D01*
X105078628Y-64402306D01*
X105073559Y-64387499D01*
X105059982Y-64345713D01*
X105039503Y-64282685D01*
X105032748Y-64268329D01*
X105014751Y-64224881D01*
X105009382Y-64209968D01*
X104959357Y-64111787D01*
X104952464Y-64097716D01*
X104912217Y-64012189D01*
X104905537Y-63997993D01*
X104897135Y-63984754D01*
X104897128Y-63984741D01*
X104897030Y-63984587D01*
X104873749Y-63943771D01*
X104873666Y-63943607D01*
X104873659Y-63943595D01*
X104866541Y-63929625D01*
X104857729Y-63916659D01*
X104857721Y-63916645D01*
X104804597Y-63838476D01*
X104795990Y-63825374D01*
X104745347Y-63745574D01*
X104736947Y-63732337D01*
X104726833Y-63720111D01*
X104698614Y-63682526D01*
X104698513Y-63682377D01*
X104698501Y-63682362D01*
X104689689Y-63669395D01*
X104679318Y-63657632D01*
X104679313Y-63657625D01*
X104616800Y-63586718D01*
X104606618Y-63574797D01*
X104606167Y-63574252D01*
X104536390Y-63489906D01*
X104456041Y-63414453D01*
X104444786Y-63403545D01*
X103707666Y-62666425D01*
X103622550Y-62552724D01*
X103572916Y-62419649D01*
X103562783Y-62277981D01*
X103592974Y-62139196D01*
X103661042Y-62014539D01*
X103707661Y-61960738D01*
X104271916Y-61396482D01*
X104295715Y-61374191D01*
X104340189Y-61335189D01*
X104403755Y-61262707D01*
X104539025Y-61108461D01*
X104706566Y-60857718D01*
X104735504Y-60799038D01*
X104832722Y-60601900D01*
X104832725Y-60601893D01*
X104839945Y-60587252D01*
X104936880Y-60301691D01*
X104950056Y-60235454D01*
X104951941Y-60225975D01*
X104992527Y-60021938D01*
X104992527Y-60021935D01*
X104995713Y-60005920D01*
X105010500Y-59780310D01*
X105010500Y-59780298D01*
X105015435Y-59705000D01*
X105011568Y-59645997D01*
X105010500Y-59613363D01*
X105010500Y-45392757D01*
X105030713Y-45252172D01*
X105089714Y-45122977D01*
X105182724Y-45015638D01*
X105302208Y-44938851D01*
X105438485Y-44898836D01*
X105533005Y-44894311D01*
X105561900Y-44895674D01*
X105789048Y-44880189D01*
X105875539Y-44874293D01*
X105875542Y-44874293D01*
X105889868Y-44873316D01*
X106057054Y-44842330D01*
X106198953Y-44816031D01*
X106198961Y-44816029D01*
X106213092Y-44813410D01*
X106226836Y-44809182D01*
X106364947Y-44766693D01*
X106527289Y-44716750D01*
X106602712Y-44683642D01*
X106739564Y-44645642D01*
X106881578Y-44647738D01*
X106994244Y-44679542D01*
X107119694Y-44731506D01*
X107119709Y-44731511D01*
X107132977Y-44737007D01*
X107146793Y-44740942D01*
X107146797Y-44740944D01*
X107435307Y-44823128D01*
X107435312Y-44823129D01*
X107449129Y-44827065D01*
X107660520Y-44861682D01*
X107759344Y-44877865D01*
X107759347Y-44877865D01*
X107773537Y-44880189D01*
X107787896Y-44880866D01*
X107787904Y-44880867D01*
X108087538Y-44894997D01*
X108087543Y-44894997D01*
X108101900Y-44895674D01*
X108329048Y-44880189D01*
X108415539Y-44874293D01*
X108415542Y-44874293D01*
X108429868Y-44873316D01*
X108597054Y-44842330D01*
X108738953Y-44816031D01*
X108738961Y-44816029D01*
X108753092Y-44813410D01*
X108766836Y-44809182D01*
X108904947Y-44766693D01*
X109067289Y-44716750D01*
X109142712Y-44683642D01*
X109279564Y-44645642D01*
X109421578Y-44647738D01*
X109534244Y-44679542D01*
X109659694Y-44731506D01*
X109659709Y-44731511D01*
X109672977Y-44737007D01*
X109686793Y-44740942D01*
X109686797Y-44740944D01*
X109975307Y-44823128D01*
X109975312Y-44823129D01*
X109989129Y-44827065D01*
X110200520Y-44861682D01*
X110299344Y-44877865D01*
X110299347Y-44877865D01*
X110313537Y-44880189D01*
X110327896Y-44880866D01*
X110327904Y-44880867D01*
X110627538Y-44894997D01*
X110627543Y-44894997D01*
X110641900Y-44895674D01*
X110869048Y-44880189D01*
X110955539Y-44874293D01*
X110955542Y-44874293D01*
X110969868Y-44873316D01*
X111137054Y-44842330D01*
X111278953Y-44816031D01*
X111278961Y-44816029D01*
X111293092Y-44813410D01*
X111306836Y-44809182D01*
X111444947Y-44766693D01*
X111607289Y-44716750D01*
X111682712Y-44683642D01*
X111819564Y-44645642D01*
X111961578Y-44647738D01*
X112074244Y-44679542D01*
X112199694Y-44731506D01*
X112199709Y-44731511D01*
X112212977Y-44737007D01*
X112226793Y-44740942D01*
X112226797Y-44740944D01*
X112515307Y-44823128D01*
X112515312Y-44823129D01*
X112529129Y-44827065D01*
X112740520Y-44861682D01*
X112839344Y-44877865D01*
X112839347Y-44877865D01*
X112853537Y-44880189D01*
X112867896Y-44880866D01*
X112867904Y-44880867D01*
X113167538Y-44894997D01*
X113167543Y-44894997D01*
X113181900Y-44895674D01*
X113409048Y-44880189D01*
X113495539Y-44874293D01*
X113495542Y-44874293D01*
X113509868Y-44873316D01*
X113677054Y-44842330D01*
X113818953Y-44816031D01*
X113818961Y-44816029D01*
X113833092Y-44813410D01*
X113846836Y-44809182D01*
X113984947Y-44766693D01*
X114147289Y-44716750D01*
X114222712Y-44683642D01*
X114359564Y-44645642D01*
X114501578Y-44647738D01*
X114614244Y-44679542D01*
X114739694Y-44731506D01*
X114739709Y-44731511D01*
X114752977Y-44737007D01*
X114766793Y-44740942D01*
X114766797Y-44740944D01*
X115055307Y-44823128D01*
X115055312Y-44823129D01*
X115069129Y-44827065D01*
X115280520Y-44861682D01*
X115379344Y-44877865D01*
X115379347Y-44877865D01*
X115393537Y-44880189D01*
X115407896Y-44880866D01*
X115407904Y-44880867D01*
X115707538Y-44894997D01*
X115707543Y-44894997D01*
X115721900Y-44895674D01*
X115949048Y-44880189D01*
X116035539Y-44874293D01*
X116035542Y-44874293D01*
X116049868Y-44873316D01*
X116217054Y-44842330D01*
X116358953Y-44816031D01*
X116358961Y-44816029D01*
X116373092Y-44813410D01*
X116386836Y-44809182D01*
X116524947Y-44766693D01*
X116687289Y-44716750D01*
X116762712Y-44683642D01*
X116899564Y-44645642D01*
X117041578Y-44647738D01*
X117154244Y-44679542D01*
X117279694Y-44731506D01*
X117279709Y-44731511D01*
X117292977Y-44737007D01*
X117306793Y-44740942D01*
X117306797Y-44740944D01*
X117595307Y-44823128D01*
X117595312Y-44823129D01*
X117609129Y-44827065D01*
X117820520Y-44861682D01*
X117919344Y-44877865D01*
X117919347Y-44877865D01*
X117933537Y-44880189D01*
X117947896Y-44880866D01*
X117947904Y-44880867D01*
X118247538Y-44894997D01*
X118247543Y-44894997D01*
X118261900Y-44895674D01*
X118489048Y-44880189D01*
X118575539Y-44874293D01*
X118575542Y-44874293D01*
X118589868Y-44873316D01*
X118757054Y-44842330D01*
X118898953Y-44816031D01*
X118898961Y-44816029D01*
X118913092Y-44813410D01*
X118926836Y-44809182D01*
X119064947Y-44766693D01*
X119227289Y-44716750D01*
X119302712Y-44683642D01*
X119439564Y-44645642D01*
X119581578Y-44647738D01*
X119694244Y-44679542D01*
X119819694Y-44731506D01*
X119819709Y-44731511D01*
X119832977Y-44737007D01*
X119846793Y-44740942D01*
X119846797Y-44740944D01*
X120135307Y-44823128D01*
X120135312Y-44823129D01*
X120149129Y-44827065D01*
X120360520Y-44861682D01*
X120459344Y-44877865D01*
X120459347Y-44877865D01*
X120473537Y-44880189D01*
X120487896Y-44880866D01*
X120487904Y-44880867D01*
X120787538Y-44894997D01*
X120787543Y-44894997D01*
X120801900Y-44895674D01*
X121029048Y-44880189D01*
X121115539Y-44874293D01*
X121115542Y-44874293D01*
X121129868Y-44873316D01*
X121297054Y-44842330D01*
X121438953Y-44816031D01*
X121438961Y-44816029D01*
X121453092Y-44813410D01*
X121466836Y-44809182D01*
X121604947Y-44766693D01*
X121767289Y-44716750D01*
X121842712Y-44683642D01*
X121979564Y-44645642D01*
X122121578Y-44647738D01*
X122234244Y-44679542D01*
X122359694Y-44731506D01*
X122359709Y-44731511D01*
X122372977Y-44737007D01*
X122386793Y-44740942D01*
X122386797Y-44740944D01*
X122675307Y-44823128D01*
X122675312Y-44823129D01*
X122689129Y-44827065D01*
X122900520Y-44861682D01*
X122999344Y-44877865D01*
X122999347Y-44877865D01*
X123013537Y-44880189D01*
X123027896Y-44880866D01*
X123027904Y-44880867D01*
X123327538Y-44894997D01*
X123327543Y-44894997D01*
X123341900Y-44895674D01*
X123569048Y-44880189D01*
X123655539Y-44874293D01*
X123655542Y-44874293D01*
X123669868Y-44873316D01*
X123837054Y-44842330D01*
X123978953Y-44816031D01*
X123978961Y-44816029D01*
X123993092Y-44813410D01*
X124006836Y-44809182D01*
X124144947Y-44766693D01*
X124307289Y-44716750D01*
X124382712Y-44683642D01*
X124519564Y-44645642D01*
X124661578Y-44647738D01*
X124774244Y-44679542D01*
X124899694Y-44731506D01*
X124899709Y-44731511D01*
X124912977Y-44737007D01*
X124926793Y-44740942D01*
X124926797Y-44740944D01*
X125215307Y-44823128D01*
X125215312Y-44823129D01*
X125229129Y-44827065D01*
X125440520Y-44861682D01*
X125539344Y-44877865D01*
X125539347Y-44877865D01*
X125553537Y-44880189D01*
X125567896Y-44880866D01*
X125567904Y-44880867D01*
X125867538Y-44894997D01*
X125867543Y-44894997D01*
X125881900Y-44895674D01*
X126109048Y-44880189D01*
X126195539Y-44874293D01*
X126195542Y-44874293D01*
X126209868Y-44873316D01*
X126377054Y-44842330D01*
X126518953Y-44816031D01*
X126518961Y-44816029D01*
X126533092Y-44813410D01*
X126546836Y-44809182D01*
X126684947Y-44766693D01*
X126847289Y-44716750D01*
X126922712Y-44683642D01*
X127059564Y-44645642D01*
X127201578Y-44647738D01*
X127314244Y-44679542D01*
X127439694Y-44731506D01*
X127439709Y-44731511D01*
X127452977Y-44737007D01*
X127466793Y-44740942D01*
X127466797Y-44740944D01*
X127755307Y-44823128D01*
X127755312Y-44823129D01*
X127769129Y-44827065D01*
X127980520Y-44861682D01*
X128079344Y-44877865D01*
X128079347Y-44877865D01*
X128093537Y-44880189D01*
X128107896Y-44880866D01*
X128107904Y-44880867D01*
X128407538Y-44894997D01*
X128407543Y-44894997D01*
X128421900Y-44895674D01*
X128649048Y-44880189D01*
X128735539Y-44874293D01*
X128735542Y-44874293D01*
X128749868Y-44873316D01*
X128917054Y-44842330D01*
X129058953Y-44816031D01*
X129058961Y-44816029D01*
X129073092Y-44813410D01*
X129086836Y-44809182D01*
X129224947Y-44766693D01*
X129387289Y-44716750D01*
X129462712Y-44683642D01*
X129599564Y-44645642D01*
X129741578Y-44647738D01*
X129854244Y-44679542D01*
X129979694Y-44731506D01*
X129979709Y-44731511D01*
X129992977Y-44737007D01*
X130006793Y-44740942D01*
X130006797Y-44740944D01*
X130295307Y-44823128D01*
X130295312Y-44823129D01*
X130309129Y-44827065D01*
X130520520Y-44861682D01*
X130619344Y-44877865D01*
X130619347Y-44877865D01*
X130633537Y-44880189D01*
X130647896Y-44880866D01*
X130647904Y-44880867D01*
X130947538Y-44894997D01*
X130947543Y-44894997D01*
X130961900Y-44895674D01*
X131189048Y-44880189D01*
X131275539Y-44874293D01*
X131275542Y-44874293D01*
X131289868Y-44873316D01*
X131457054Y-44842330D01*
X131598953Y-44816031D01*
X131598961Y-44816029D01*
X131613092Y-44813410D01*
X131626836Y-44809182D01*
X131764947Y-44766693D01*
X131927289Y-44716750D01*
X132002712Y-44683642D01*
X132139564Y-44645642D01*
X132281578Y-44647738D01*
X132394244Y-44679542D01*
X132519694Y-44731506D01*
X132519709Y-44731511D01*
X132532977Y-44737007D01*
X132546793Y-44740942D01*
X132546797Y-44740944D01*
X132835307Y-44823128D01*
X132835312Y-44823129D01*
X132849129Y-44827065D01*
X133060520Y-44861682D01*
X133159344Y-44877865D01*
X133159347Y-44877865D01*
X133173537Y-44880189D01*
X133187896Y-44880866D01*
X133187904Y-44880867D01*
X133487538Y-44894997D01*
X133487543Y-44894997D01*
X133501900Y-44895674D01*
X133729048Y-44880189D01*
X133815539Y-44874293D01*
X133815542Y-44874293D01*
X133829868Y-44873316D01*
X133997054Y-44842330D01*
X134138953Y-44816031D01*
X134138961Y-44816029D01*
X134153092Y-44813410D01*
X134166836Y-44809182D01*
X134304947Y-44766693D01*
X134467289Y-44716750D01*
X134542712Y-44683642D01*
X134679564Y-44645642D01*
X134821578Y-44647738D01*
X134934244Y-44679542D01*
X135059694Y-44731506D01*
X135059709Y-44731511D01*
X135072977Y-44737007D01*
X135086793Y-44740942D01*
X135086797Y-44740944D01*
X135375307Y-44823128D01*
X135375312Y-44823129D01*
X135389129Y-44827065D01*
X135600520Y-44861682D01*
X135699344Y-44877865D01*
X135699347Y-44877865D01*
X135713537Y-44880189D01*
X135727896Y-44880866D01*
X135727904Y-44880867D01*
X136027538Y-44894997D01*
X136027543Y-44894997D01*
X136041900Y-44895674D01*
X136269048Y-44880189D01*
X136355539Y-44874293D01*
X136355542Y-44874293D01*
X136369868Y-44873316D01*
X136537054Y-44842330D01*
X136678953Y-44816031D01*
X136678961Y-44816029D01*
X136693092Y-44813410D01*
X136706836Y-44809182D01*
X136844947Y-44766693D01*
X137007289Y-44716750D01*
X137082712Y-44683642D01*
X137219564Y-44645642D01*
X137361578Y-44647738D01*
X137474244Y-44679542D01*
X137599694Y-44731506D01*
X137599709Y-44731511D01*
X137612977Y-44737007D01*
X137626793Y-44740942D01*
X137626797Y-44740944D01*
X137915307Y-44823128D01*
X137915312Y-44823129D01*
X137929129Y-44827065D01*
X138140520Y-44861682D01*
X138239344Y-44877865D01*
X138239347Y-44877865D01*
X138253537Y-44880189D01*
X138267896Y-44880866D01*
X138267904Y-44880867D01*
X138567538Y-44894997D01*
X138567543Y-44894997D01*
X138581900Y-44895674D01*
X138809048Y-44880189D01*
X138895539Y-44874293D01*
X138895542Y-44874293D01*
X138909868Y-44873316D01*
X139077054Y-44842330D01*
X139218953Y-44816031D01*
X139218961Y-44816029D01*
X139233092Y-44813410D01*
X139246836Y-44809182D01*
X139384947Y-44766693D01*
X139547289Y-44716750D01*
X139622712Y-44683642D01*
X139759564Y-44645642D01*
X139901578Y-44647738D01*
X140014244Y-44679542D01*
X140139694Y-44731506D01*
X140139709Y-44731511D01*
X140152977Y-44737007D01*
X140166793Y-44740942D01*
X140166797Y-44740944D01*
X140455307Y-44823128D01*
X140455312Y-44823129D01*
X140469129Y-44827065D01*
X140680520Y-44861682D01*
X140779344Y-44877865D01*
X140779347Y-44877865D01*
X140793537Y-44880189D01*
X140807896Y-44880866D01*
X140807904Y-44880867D01*
X141107538Y-44894997D01*
X141107543Y-44894997D01*
X141121900Y-44895674D01*
X141349048Y-44880189D01*
X141435539Y-44874293D01*
X141435542Y-44874293D01*
X141449868Y-44873316D01*
X141617054Y-44842330D01*
X141758953Y-44816031D01*
X141758961Y-44816029D01*
X141773092Y-44813410D01*
X141786836Y-44809182D01*
X141924947Y-44766693D01*
X142087289Y-44716750D01*
X142162712Y-44683642D01*
X142299564Y-44645642D01*
X142441578Y-44647738D01*
G37*
%TD.AperFunction*%
%TA.AperFunction,NonConductor*%
G36*
X135161803Y-64345713D02*
G01*
X135270962Y-64395187D01*
X135271874Y-64393548D01*
X135541518Y-64543630D01*
X135541523Y-64543632D01*
X135554070Y-64550616D01*
X135593258Y-64566848D01*
X135839164Y-64668706D01*
X135839170Y-64668708D01*
X135852448Y-64674208D01*
X135866277Y-64678147D01*
X135866279Y-64678148D01*
X135923183Y-64694358D01*
X136052851Y-64752313D01*
X136160938Y-64844452D01*
X136238689Y-64963310D01*
X136279805Y-65099259D01*
X136284228Y-65209508D01*
X136280839Y-65257376D01*
X136274624Y-65345156D01*
X136275371Y-65360162D01*
X136275371Y-65360168D01*
X136283730Y-65528064D01*
X136291114Y-65676387D01*
X136293657Y-65691187D01*
X136293658Y-65691195D01*
X136329875Y-65901964D01*
X136347277Y-66003238D01*
X136351580Y-66017625D01*
X136351581Y-66017631D01*
X136384850Y-66128875D01*
X136442300Y-66320975D01*
X136464630Y-66372208D01*
X136533426Y-66530050D01*
X136574807Y-66624994D01*
X136742879Y-66910893D01*
X136802580Y-66989119D01*
X136852177Y-67054107D01*
X136921399Y-67178126D01*
X136952877Y-67316624D01*
X136954500Y-67356842D01*
X136954500Y-74084911D01*
X136934287Y-74225496D01*
X136875286Y-74354691D01*
X136782276Y-74462030D01*
X136662792Y-74538817D01*
X136526515Y-74578832D01*
X136505061Y-74581444D01*
X136290468Y-74602863D01*
X136290465Y-74602864D01*
X136276163Y-74604291D01*
X135960614Y-74673092D01*
X135655064Y-74777705D01*
X135363562Y-74916744D01*
X135351397Y-74924375D01*
X135351390Y-74924379D01*
X135202489Y-75017785D01*
X135089974Y-75088366D01*
X135065010Y-75108366D01*
X134849136Y-75281313D01*
X134849131Y-75281318D01*
X134837924Y-75290296D01*
X134827822Y-75300505D01*
X134827818Y-75300508D01*
X134620861Y-75509644D01*
X134620856Y-75509649D01*
X134610754Y-75519858D01*
X134411474Y-75774008D01*
X134242727Y-76049379D01*
X134192777Y-76156988D01*
X134115254Y-76275990D01*
X134007342Y-76368335D01*
X133877784Y-76426536D01*
X133737077Y-76445879D01*
X133596620Y-76424797D01*
X133467792Y-76364998D01*
X133361030Y-76271326D01*
X133284983Y-76151370D01*
X133262084Y-76089864D01*
X133206189Y-75902962D01*
X133206187Y-75902957D01*
X133201136Y-75886067D01*
X133082529Y-75628790D01*
X133082962Y-75628591D01*
X133037207Y-75506973D01*
X133025500Y-75399519D01*
X133025500Y-65193489D01*
X133045713Y-65052904D01*
X133104714Y-64923709D01*
X133197724Y-64816370D01*
X133317208Y-64739583D01*
X133453485Y-64699568D01*
X133472341Y-64697222D01*
X133483007Y-64696101D01*
X133498031Y-64695432D01*
X133512861Y-64692964D01*
X133512867Y-64692963D01*
X133810345Y-64643449D01*
X133810347Y-64643449D01*
X133825172Y-64640981D01*
X134143401Y-64547622D01*
X134448111Y-64416709D01*
X134488919Y-64393006D01*
X134620628Y-64339876D01*
X134739544Y-64325500D01*
X135021218Y-64325500D01*
X135161803Y-64345713D01*
G37*
%TD.AperFunction*%
%TA.AperFunction,NonConductor*%
G36*
X94519010Y-76377881D02*
G01*
X94631673Y-76409684D01*
X94756382Y-76461340D01*
X94878530Y-76533814D01*
X94918269Y-76569510D01*
X94962857Y-76614098D01*
X95047973Y-76727799D01*
X95097607Y-76860874D01*
X95109011Y-76966944D01*
X95109011Y-78925921D01*
X95088798Y-79066506D01*
X95029797Y-79195701D01*
X94936787Y-79303040D01*
X94817303Y-79379827D01*
X94681026Y-79419842D01*
X94538996Y-79419842D01*
X94402719Y-79379827D01*
X94283235Y-79303040D01*
X94257165Y-79278767D01*
X92437639Y-77459241D01*
X92352523Y-77345540D01*
X92302889Y-77212465D01*
X92292756Y-77070797D01*
X92322947Y-76932012D01*
X92391015Y-76807355D01*
X92491445Y-76706925D01*
X92616102Y-76638857D01*
X92754887Y-76608666D01*
X92848096Y-76612909D01*
X92848291Y-76611053D01*
X92862579Y-76612555D01*
X92876772Y-76614879D01*
X92891134Y-76615556D01*
X92891141Y-76615557D01*
X93029947Y-76622102D01*
X93199376Y-76630092D01*
X93422533Y-76614879D01*
X93507234Y-76609105D01*
X93507238Y-76609104D01*
X93521591Y-76608126D01*
X93839145Y-76549271D01*
X94147830Y-76454307D01*
X94167030Y-76445879D01*
X94215055Y-76424797D01*
X94240145Y-76413783D01*
X94376995Y-76375785D01*
X94519010Y-76377881D01*
G37*
%TD.AperFunction*%
%TA.AperFunction,NonConductor*%
G36*
X211899578Y-22312238D02*
G01*
X212012244Y-22344042D01*
X212137694Y-22396006D01*
X212137709Y-22396011D01*
X212150977Y-22401507D01*
X212164793Y-22405442D01*
X212164797Y-22405444D01*
X212453307Y-22487628D01*
X212453312Y-22487629D01*
X212467129Y-22491565D01*
X212678520Y-22526182D01*
X212777344Y-22542365D01*
X212777347Y-22542365D01*
X212791537Y-22544689D01*
X212805896Y-22545366D01*
X212805904Y-22545367D01*
X212854006Y-22547635D01*
X212993483Y-22574448D01*
X213119755Y-22639470D01*
X213222594Y-22737433D01*
X213293667Y-22860401D01*
X213327218Y-22998412D01*
X213329500Y-23046081D01*
X213329500Y-29875410D01*
X213309287Y-30015995D01*
X213250286Y-30145190D01*
X213183346Y-30228256D01*
X211398099Y-32013503D01*
X211374285Y-32035809D01*
X211329811Y-32074811D01*
X211280052Y-32131550D01*
X211280049Y-32131553D01*
X211130974Y-32301539D01*
X211121900Y-32315120D01*
X211002421Y-32493934D01*
X210972510Y-32538698D01*
X210972506Y-32538704D01*
X210963434Y-32552282D01*
X210896745Y-32687515D01*
X210837278Y-32808100D01*
X210837275Y-32808107D01*
X210830055Y-32822748D01*
X210733120Y-33108309D01*
X210674287Y-33404080D01*
X210659500Y-33629690D01*
X210659500Y-33629702D01*
X210654565Y-33705000D01*
X210655633Y-33721295D01*
X210655633Y-33721296D01*
X210658432Y-33764003D01*
X210659500Y-33796637D01*
X210659500Y-38691000D01*
X210639287Y-38831585D01*
X210580286Y-38960780D01*
X210487276Y-39068119D01*
X210367792Y-39144906D01*
X210231515Y-39184921D01*
X210160500Y-39190000D01*
X208691950Y-39190000D01*
X208687047Y-39190193D01*
X208687029Y-39190193D01*
X208678350Y-39190534D01*
X208678343Y-39190535D01*
X208664642Y-39191073D01*
X208384490Y-39233192D01*
X208367586Y-39238247D01*
X208367583Y-39238248D01*
X208364243Y-39239247D01*
X208183794Y-39293212D01*
X208043314Y-39314127D01*
X207919262Y-39299100D01*
X207667036Y-39235745D01*
X207341119Y-39192837D01*
X207326749Y-39192611D01*
X207326745Y-39192611D01*
X207075700Y-39188668D01*
X207012431Y-39187674D01*
X206998126Y-39189102D01*
X206998121Y-39189102D01*
X206699634Y-39218895D01*
X206699633Y-39218895D01*
X206685328Y-39220323D01*
X206364145Y-39290352D01*
X206053139Y-39396833D01*
X206044863Y-39400780D01*
X205909111Y-39434675D01*
X205767199Y-39428864D01*
X205681978Y-39405049D01*
X205459316Y-39320912D01*
X205459307Y-39320909D01*
X205445860Y-39315828D01*
X205431916Y-39312326D01*
X205431908Y-39312323D01*
X205140978Y-39239247D01*
X205127036Y-39235745D01*
X205033161Y-39223386D01*
X204815379Y-39194714D01*
X204815373Y-39194714D01*
X204801119Y-39192837D01*
X204801272Y-39191678D01*
X204676238Y-39164232D01*
X204551709Y-39095929D01*
X204451468Y-38995310D01*
X204383635Y-38870525D01*
X204353705Y-38731684D01*
X204352500Y-38697023D01*
X204352500Y-38632652D01*
X204372713Y-38492067D01*
X204378982Y-38472254D01*
X204431630Y-38317157D01*
X204436880Y-38301691D01*
X204495713Y-38005919D01*
X204499763Y-37944120D01*
X204515436Y-37705000D01*
X204495713Y-37404081D01*
X204436880Y-37108309D01*
X204339945Y-36822748D01*
X204332725Y-36808107D01*
X204332722Y-36808100D01*
X204213787Y-36566925D01*
X204206566Y-36552282D01*
X204039026Y-36301539D01*
X204028263Y-36289266D01*
X204028259Y-36289261D01*
X203850956Y-36087086D01*
X203850954Y-36087084D01*
X203840190Y-36074810D01*
X203795719Y-36035810D01*
X203771886Y-36013488D01*
X201901497Y-34143099D01*
X201879191Y-34119285D01*
X201840189Y-34074811D01*
X201763418Y-34007484D01*
X201613461Y-33875974D01*
X201362718Y-33708434D01*
X201306033Y-33680480D01*
X201106900Y-33582278D01*
X201106893Y-33582275D01*
X201092252Y-33575055D01*
X200806691Y-33478120D01*
X200790673Y-33474934D01*
X200790670Y-33474933D01*
X200611154Y-33439225D01*
X200526938Y-33422473D01*
X200526935Y-33422473D01*
X200510920Y-33419287D01*
X200458910Y-33415878D01*
X200285331Y-33404501D01*
X200285315Y-33404500D01*
X200285307Y-33404500D01*
X200285284Y-33404499D01*
X200226296Y-33400633D01*
X200226295Y-33400633D01*
X200210000Y-33399565D01*
X200193705Y-33400633D01*
X200193704Y-33400633D01*
X200150997Y-33403432D01*
X200118363Y-33404500D01*
X102301637Y-33404500D01*
X102269003Y-33403432D01*
X102226296Y-33400633D01*
X102226295Y-33400633D01*
X102210000Y-33399565D01*
X102193705Y-33400633D01*
X102193704Y-33400633D01*
X102134716Y-33404499D01*
X102134693Y-33404500D01*
X102134685Y-33404500D01*
X102134669Y-33404501D01*
X101961090Y-33415878D01*
X101909080Y-33419287D01*
X101893065Y-33422473D01*
X101893062Y-33422473D01*
X101808846Y-33439225D01*
X101629330Y-33474933D01*
X101629327Y-33474934D01*
X101613309Y-33478120D01*
X101327748Y-33575055D01*
X101313107Y-33582275D01*
X101313100Y-33582278D01*
X101113967Y-33680480D01*
X101057282Y-33708434D01*
X100806539Y-33875974D01*
X100656582Y-34007484D01*
X100579811Y-34074811D01*
X100540809Y-34119285D01*
X100518503Y-34143099D01*
X98148108Y-36513494D01*
X98124278Y-36535814D01*
X98079811Y-36574811D01*
X98030052Y-36631550D01*
X98030049Y-36631553D01*
X97880974Y-36801539D01*
X97713434Y-37052282D01*
X97685805Y-37108309D01*
X97587278Y-37308100D01*
X97587275Y-37308107D01*
X97580055Y-37322748D01*
X97483120Y-37608309D01*
X97479934Y-37624327D01*
X97479933Y-37624330D01*
X97460646Y-37721294D01*
X97424287Y-37904080D01*
X97409500Y-38129690D01*
X97409500Y-38129702D01*
X97404565Y-38205000D01*
X97405633Y-38221295D01*
X97405633Y-38221296D01*
X97408432Y-38264003D01*
X97409500Y-38296637D01*
X97409500Y-45446410D01*
X97389287Y-45586995D01*
X97330286Y-45716190D01*
X97237276Y-45823529D01*
X97117792Y-45900316D01*
X96981515Y-45940331D01*
X96839485Y-45940331D01*
X96703208Y-45900316D01*
X96583724Y-45823529D01*
X96557654Y-45799256D01*
X95401497Y-44643099D01*
X95379191Y-44619285D01*
X95340189Y-44574811D01*
X95283447Y-44525049D01*
X95113461Y-44375974D01*
X94862718Y-44208434D01*
X94806033Y-44180480D01*
X94606900Y-44082278D01*
X94606893Y-44082275D01*
X94592252Y-44075055D01*
X94306691Y-43978120D01*
X94290673Y-43974934D01*
X94290670Y-43974933D01*
X94261581Y-43969147D01*
X94026938Y-43922473D01*
X94026935Y-43922473D01*
X94010920Y-43919287D01*
X93958910Y-43915878D01*
X93785331Y-43904501D01*
X93785315Y-43904500D01*
X93785307Y-43904500D01*
X93785284Y-43904499D01*
X93726296Y-43900633D01*
X93726295Y-43900633D01*
X93710000Y-43899565D01*
X93693705Y-43900633D01*
X93693704Y-43900633D01*
X93650997Y-43903432D01*
X93618363Y-43904500D01*
X77801637Y-43904500D01*
X77769003Y-43903432D01*
X77726296Y-43900633D01*
X77726295Y-43900633D01*
X77710000Y-43899565D01*
X77693705Y-43900633D01*
X77693704Y-43900633D01*
X77634716Y-43904499D01*
X77634693Y-43904500D01*
X77634685Y-43904500D01*
X77634669Y-43904501D01*
X77461090Y-43915878D01*
X77409080Y-43919287D01*
X77393065Y-43922473D01*
X77393062Y-43922473D01*
X77158419Y-43969147D01*
X77129330Y-43974933D01*
X77129327Y-43974934D01*
X77113309Y-43978120D01*
X76827748Y-44075055D01*
X76813107Y-44082275D01*
X76813100Y-44082278D01*
X76613967Y-44180480D01*
X76557282Y-44208434D01*
X76543702Y-44217508D01*
X76320127Y-44366895D01*
X76306539Y-44375974D01*
X76136553Y-44525049D01*
X76079811Y-44574811D01*
X76040809Y-44619285D01*
X76018503Y-44643099D01*
X74898099Y-45763503D01*
X74874285Y-45785809D01*
X74829811Y-45824811D01*
X74780052Y-45881550D01*
X74780049Y-45881553D01*
X74630974Y-46051539D01*
X74526141Y-46208434D01*
X74463434Y-46302282D01*
X74456215Y-46316921D01*
X74456212Y-46316926D01*
X74337278Y-46558100D01*
X74337275Y-46558107D01*
X74330055Y-46572748D01*
X74233120Y-46858309D01*
X74229934Y-46874327D01*
X74229933Y-46874330D01*
X74199436Y-47027650D01*
X74174287Y-47154080D01*
X74159500Y-47379690D01*
X74159500Y-47379702D01*
X74154565Y-47455000D01*
X74155633Y-47471295D01*
X74155633Y-47471296D01*
X74158432Y-47514003D01*
X74159500Y-47546637D01*
X74159500Y-75053854D01*
X74139287Y-75194439D01*
X74085283Y-75315694D01*
X74050702Y-75371796D01*
X74031545Y-75402874D01*
X74025256Y-75416516D01*
X73920011Y-75644810D01*
X73892700Y-75704051D01*
X73791043Y-76019728D01*
X73788188Y-76034487D01*
X73788187Y-76034489D01*
X73730901Y-76330578D01*
X73730900Y-76330586D01*
X73728047Y-76345332D01*
X73704624Y-76676145D01*
X73705371Y-76691151D01*
X73705371Y-76691157D01*
X73708811Y-76760252D01*
X73721114Y-77007376D01*
X73723657Y-77022176D01*
X73723658Y-77022184D01*
X73774733Y-77319422D01*
X73777277Y-77334227D01*
X73872300Y-77651964D01*
X74004807Y-77955983D01*
X74172879Y-78241882D01*
X74374080Y-78505518D01*
X74605496Y-78743073D01*
X74617188Y-78752491D01*
X74617193Y-78752495D01*
X74852068Y-78941678D01*
X74852074Y-78941682D01*
X74863775Y-78951107D01*
X75145176Y-79126604D01*
X75445623Y-79267024D01*
X75586440Y-79313186D01*
X75713733Y-79376186D01*
X75818121Y-79472497D01*
X75891146Y-79594316D01*
X75926894Y-79731774D01*
X75929999Y-79787358D01*
X75929999Y-80318384D01*
X75929753Y-80334054D01*
X75926292Y-80444197D01*
X75927767Y-80459798D01*
X75927767Y-80459807D01*
X75927785Y-80459993D01*
X75929999Y-80506951D01*
X75929999Y-89525984D01*
X75909786Y-89666569D01*
X75850785Y-89795764D01*
X75757775Y-89903103D01*
X75638291Y-89979890D01*
X75502014Y-90019905D01*
X75359984Y-90019905D01*
X75223707Y-89979890D01*
X75202135Y-89969405D01*
X75182482Y-89959261D01*
X75033863Y-89903103D01*
X74872249Y-89842034D01*
X74872240Y-89842031D01*
X74858793Y-89836950D01*
X74844849Y-89833447D01*
X74844841Y-89833445D01*
X74693929Y-89795539D01*
X74523190Y-89752652D01*
X74270224Y-89719349D01*
X74194375Y-89709363D01*
X74194372Y-89709363D01*
X74180124Y-89707487D01*
X74165752Y-89707261D01*
X74165749Y-89707261D01*
X73848523Y-89702277D01*
X73834139Y-89702051D01*
X73819834Y-89703479D01*
X73819831Y-89703479D01*
X73504117Y-89734992D01*
X73504113Y-89734993D01*
X73489823Y-89736419D01*
X73151739Y-89810133D01*
X73138153Y-89814784D01*
X73138144Y-89814787D01*
X72837963Y-89917562D01*
X72824367Y-89922217D01*
X72811398Y-89928403D01*
X72619561Y-90019905D01*
X72512048Y-90071186D01*
X72447988Y-90111371D01*
X72421136Y-90128215D01*
X72291302Y-90185798D01*
X72155969Y-90204500D01*
X66270824Y-90204500D01*
X66130239Y-90184287D01*
X66015853Y-90130623D01*
X66014269Y-90133301D01*
X66001906Y-90125989D01*
X65989967Y-90117967D01*
X65722450Y-89979890D01*
X65695258Y-89965855D01*
X65695254Y-89965853D01*
X65682482Y-89959261D01*
X65533863Y-89903103D01*
X65372249Y-89842034D01*
X65372240Y-89842031D01*
X65358793Y-89836950D01*
X65344849Y-89833447D01*
X65344841Y-89833445D01*
X65193929Y-89795539D01*
X65023190Y-89752652D01*
X64770224Y-89719349D01*
X64694375Y-89709363D01*
X64694372Y-89709363D01*
X64680124Y-89707487D01*
X64665752Y-89707261D01*
X64665749Y-89707261D01*
X64348523Y-89702277D01*
X64334139Y-89702051D01*
X64319834Y-89703479D01*
X64319831Y-89703479D01*
X64004117Y-89734992D01*
X64004113Y-89734993D01*
X63989823Y-89736419D01*
X63651739Y-89810133D01*
X63638153Y-89814784D01*
X63638144Y-89814787D01*
X63337963Y-89917562D01*
X63324367Y-89922217D01*
X63311398Y-89928403D01*
X63119561Y-90019905D01*
X63012048Y-90071186D01*
X62999876Y-90078821D01*
X62999875Y-90078822D01*
X62820798Y-90191157D01*
X62718921Y-90255064D01*
X62707711Y-90264045D01*
X62707708Y-90264047D01*
X62460083Y-90462432D01*
X62460078Y-90462436D01*
X62448871Y-90471415D01*
X62438768Y-90481624D01*
X62438765Y-90481627D01*
X62412980Y-90507684D01*
X62205477Y-90717371D01*
X62166544Y-90767024D01*
X62026655Y-90945432D01*
X61991966Y-90989672D01*
X61811168Y-91284709D01*
X61665478Y-91598570D01*
X61660967Y-91612210D01*
X61660965Y-91612215D01*
X61618082Y-91741882D01*
X61556828Y-91927097D01*
X61486658Y-92265935D01*
X61485380Y-92280256D01*
X61470243Y-92449859D01*
X61437613Y-92588090D01*
X61367360Y-92711529D01*
X61265177Y-92810175D01*
X61139340Y-92876037D01*
X61000046Y-92903778D01*
X60973219Y-92904500D01*
X60949500Y-92904500D01*
X60808915Y-92884287D01*
X60679720Y-92825286D01*
X60572381Y-92732276D01*
X60495594Y-92612792D01*
X60455579Y-92476515D01*
X60450500Y-92405500D01*
X60450500Y-23044681D01*
X60470713Y-22904096D01*
X60529714Y-22774901D01*
X60622724Y-22667562D01*
X60742208Y-22590775D01*
X60878485Y-22550760D01*
X60915560Y-22546837D01*
X61033522Y-22538795D01*
X61033539Y-22538793D01*
X61047868Y-22537816D01*
X61215054Y-22506830D01*
X61356953Y-22480531D01*
X61356961Y-22480529D01*
X61371092Y-22477910D01*
X61685289Y-22381250D01*
X61760712Y-22348142D01*
X61897564Y-22310142D01*
X62039578Y-22312238D01*
X62152244Y-22344042D01*
X62277694Y-22396006D01*
X62277709Y-22396011D01*
X62290977Y-22401507D01*
X62304793Y-22405442D01*
X62304797Y-22405444D01*
X62593307Y-22487628D01*
X62593312Y-22487629D01*
X62607129Y-22491565D01*
X62818520Y-22526182D01*
X62917344Y-22542365D01*
X62917347Y-22542365D01*
X62931537Y-22544689D01*
X62945896Y-22545366D01*
X62945904Y-22545367D01*
X63245538Y-22559497D01*
X63245543Y-22559497D01*
X63259900Y-22560174D01*
X63487048Y-22544689D01*
X63573539Y-22538793D01*
X63573542Y-22538793D01*
X63587868Y-22537816D01*
X63755054Y-22506830D01*
X63896953Y-22480531D01*
X63896961Y-22480529D01*
X63911092Y-22477910D01*
X64225289Y-22381250D01*
X64300712Y-22348142D01*
X64437564Y-22310142D01*
X64579578Y-22312238D01*
X64692244Y-22344042D01*
X64817694Y-22396006D01*
X64817709Y-22396011D01*
X64830977Y-22401507D01*
X64844793Y-22405442D01*
X64844797Y-22405444D01*
X65133307Y-22487628D01*
X65133312Y-22487629D01*
X65147129Y-22491565D01*
X65358520Y-22526182D01*
X65457344Y-22542365D01*
X65457347Y-22542365D01*
X65471537Y-22544689D01*
X65485896Y-22545366D01*
X65485904Y-22545367D01*
X65785538Y-22559497D01*
X65785543Y-22559497D01*
X65799900Y-22560174D01*
X66027048Y-22544689D01*
X66113539Y-22538793D01*
X66113542Y-22538793D01*
X66127868Y-22537816D01*
X66295054Y-22506830D01*
X66436953Y-22480531D01*
X66436961Y-22480529D01*
X66451092Y-22477910D01*
X66765289Y-22381250D01*
X66840712Y-22348142D01*
X66977564Y-22310142D01*
X67119578Y-22312238D01*
X67232244Y-22344042D01*
X67357694Y-22396006D01*
X67357709Y-22396011D01*
X67370977Y-22401507D01*
X67384793Y-22405442D01*
X67384797Y-22405444D01*
X67673307Y-22487628D01*
X67673312Y-22487629D01*
X67687129Y-22491565D01*
X67898520Y-22526182D01*
X67997344Y-22542365D01*
X67997347Y-22542365D01*
X68011537Y-22544689D01*
X68025896Y-22545366D01*
X68025904Y-22545367D01*
X68325538Y-22559497D01*
X68325543Y-22559497D01*
X68339900Y-22560174D01*
X68567048Y-22544689D01*
X68653539Y-22538793D01*
X68653542Y-22538793D01*
X68667868Y-22537816D01*
X68835054Y-22506830D01*
X68976953Y-22480531D01*
X68976961Y-22480529D01*
X68991092Y-22477910D01*
X69305289Y-22381250D01*
X69380712Y-22348142D01*
X69517564Y-22310142D01*
X69659578Y-22312238D01*
X69772244Y-22344042D01*
X69897694Y-22396006D01*
X69897709Y-22396011D01*
X69910977Y-22401507D01*
X69924793Y-22405442D01*
X69924797Y-22405444D01*
X70213307Y-22487628D01*
X70213312Y-22487629D01*
X70227129Y-22491565D01*
X70438520Y-22526182D01*
X70537344Y-22542365D01*
X70537347Y-22542365D01*
X70551537Y-22544689D01*
X70565896Y-22545366D01*
X70565904Y-22545367D01*
X70865538Y-22559497D01*
X70865543Y-22559497D01*
X70879900Y-22560174D01*
X71107048Y-22544689D01*
X71193539Y-22538793D01*
X71193542Y-22538793D01*
X71207868Y-22537816D01*
X71375054Y-22506830D01*
X71516953Y-22480531D01*
X71516961Y-22480529D01*
X71531092Y-22477910D01*
X71845289Y-22381250D01*
X71920712Y-22348142D01*
X72057564Y-22310142D01*
X72199578Y-22312238D01*
X72312244Y-22344042D01*
X72437694Y-22396006D01*
X72437709Y-22396011D01*
X72450977Y-22401507D01*
X72464793Y-22405442D01*
X72464797Y-22405444D01*
X72753307Y-22487628D01*
X72753312Y-22487629D01*
X72767129Y-22491565D01*
X72978520Y-22526182D01*
X73077344Y-22542365D01*
X73077347Y-22542365D01*
X73091537Y-22544689D01*
X73105896Y-22545366D01*
X73105904Y-22545367D01*
X73405538Y-22559497D01*
X73405543Y-22559497D01*
X73419900Y-22560174D01*
X73647048Y-22544689D01*
X73733539Y-22538793D01*
X73733542Y-22538793D01*
X73747868Y-22537816D01*
X73915054Y-22506830D01*
X74056953Y-22480531D01*
X74056961Y-22480529D01*
X74071092Y-22477910D01*
X74385289Y-22381250D01*
X74460712Y-22348142D01*
X74597564Y-22310142D01*
X74739578Y-22312238D01*
X74852244Y-22344042D01*
X74977694Y-22396006D01*
X74977709Y-22396011D01*
X74990977Y-22401507D01*
X75004793Y-22405442D01*
X75004797Y-22405444D01*
X75293307Y-22487628D01*
X75293312Y-22487629D01*
X75307129Y-22491565D01*
X75518520Y-22526182D01*
X75617344Y-22542365D01*
X75617347Y-22542365D01*
X75631537Y-22544689D01*
X75645896Y-22545366D01*
X75645904Y-22545367D01*
X75945538Y-22559497D01*
X75945543Y-22559497D01*
X75959900Y-22560174D01*
X76187048Y-22544689D01*
X76273539Y-22538793D01*
X76273542Y-22538793D01*
X76287868Y-22537816D01*
X76455054Y-22506830D01*
X76596953Y-22480531D01*
X76596961Y-22480529D01*
X76611092Y-22477910D01*
X76925289Y-22381250D01*
X77000712Y-22348142D01*
X77137564Y-22310142D01*
X77279578Y-22312238D01*
X77392244Y-22344042D01*
X77517694Y-22396006D01*
X77517709Y-22396011D01*
X77530977Y-22401507D01*
X77544793Y-22405442D01*
X77544797Y-22405444D01*
X77833307Y-22487628D01*
X77833312Y-22487629D01*
X77847129Y-22491565D01*
X78058520Y-22526182D01*
X78157344Y-22542365D01*
X78157347Y-22542365D01*
X78171537Y-22544689D01*
X78185896Y-22545366D01*
X78185904Y-22545367D01*
X78485538Y-22559497D01*
X78485543Y-22559497D01*
X78499900Y-22560174D01*
X78727048Y-22544689D01*
X78813539Y-22538793D01*
X78813542Y-22538793D01*
X78827868Y-22537816D01*
X78995054Y-22506830D01*
X79136953Y-22480531D01*
X79136961Y-22480529D01*
X79151092Y-22477910D01*
X79465289Y-22381250D01*
X79540712Y-22348142D01*
X79677564Y-22310142D01*
X79819578Y-22312238D01*
X79932244Y-22344042D01*
X80057694Y-22396006D01*
X80057709Y-22396011D01*
X80070977Y-22401507D01*
X80084793Y-22405442D01*
X80084797Y-22405444D01*
X80373307Y-22487628D01*
X80373312Y-22487629D01*
X80387129Y-22491565D01*
X80598520Y-22526182D01*
X80697344Y-22542365D01*
X80697347Y-22542365D01*
X80711537Y-22544689D01*
X80725896Y-22545366D01*
X80725904Y-22545367D01*
X81025538Y-22559497D01*
X81025543Y-22559497D01*
X81039900Y-22560174D01*
X81267048Y-22544689D01*
X81353539Y-22538793D01*
X81353542Y-22538793D01*
X81367868Y-22537816D01*
X81535054Y-22506830D01*
X81676953Y-22480531D01*
X81676961Y-22480529D01*
X81691092Y-22477910D01*
X82005289Y-22381250D01*
X82080712Y-22348142D01*
X82217564Y-22310142D01*
X82359578Y-22312238D01*
X82472244Y-22344042D01*
X82597694Y-22396006D01*
X82597709Y-22396011D01*
X82610977Y-22401507D01*
X82624793Y-22405442D01*
X82624797Y-22405444D01*
X82913307Y-22487628D01*
X82913312Y-22487629D01*
X82927129Y-22491565D01*
X83138520Y-22526182D01*
X83237344Y-22542365D01*
X83237347Y-22542365D01*
X83251537Y-22544689D01*
X83265896Y-22545366D01*
X83265904Y-22545367D01*
X83565538Y-22559497D01*
X83565543Y-22559497D01*
X83579900Y-22560174D01*
X83807048Y-22544689D01*
X83893539Y-22538793D01*
X83893542Y-22538793D01*
X83907868Y-22537816D01*
X84075054Y-22506830D01*
X84216953Y-22480531D01*
X84216961Y-22480529D01*
X84231092Y-22477910D01*
X84545289Y-22381250D01*
X84620712Y-22348142D01*
X84757564Y-22310142D01*
X84899578Y-22312238D01*
X85012244Y-22344042D01*
X85137694Y-22396006D01*
X85137709Y-22396011D01*
X85150977Y-22401507D01*
X85164793Y-22405442D01*
X85164797Y-22405444D01*
X85453307Y-22487628D01*
X85453312Y-22487629D01*
X85467129Y-22491565D01*
X85678520Y-22526182D01*
X85777344Y-22542365D01*
X85777347Y-22542365D01*
X85791537Y-22544689D01*
X85805896Y-22545366D01*
X85805904Y-22545367D01*
X86105538Y-22559497D01*
X86105543Y-22559497D01*
X86119900Y-22560174D01*
X86347048Y-22544689D01*
X86433539Y-22538793D01*
X86433542Y-22538793D01*
X86447868Y-22537816D01*
X86615054Y-22506830D01*
X86756953Y-22480531D01*
X86756961Y-22480529D01*
X86771092Y-22477910D01*
X87085289Y-22381250D01*
X87160712Y-22348142D01*
X87297564Y-22310142D01*
X87439578Y-22312238D01*
X87552244Y-22344042D01*
X87677694Y-22396006D01*
X87677709Y-22396011D01*
X87690977Y-22401507D01*
X87704793Y-22405442D01*
X87704797Y-22405444D01*
X87993307Y-22487628D01*
X87993312Y-22487629D01*
X88007129Y-22491565D01*
X88218520Y-22526182D01*
X88317344Y-22542365D01*
X88317347Y-22542365D01*
X88331537Y-22544689D01*
X88345896Y-22545366D01*
X88345904Y-22545367D01*
X88645538Y-22559497D01*
X88645543Y-22559497D01*
X88659900Y-22560174D01*
X88887048Y-22544689D01*
X88973539Y-22538793D01*
X88973542Y-22538793D01*
X88987868Y-22537816D01*
X89155054Y-22506830D01*
X89296953Y-22480531D01*
X89296961Y-22480529D01*
X89311092Y-22477910D01*
X89625289Y-22381250D01*
X89700712Y-22348142D01*
X89837564Y-22310142D01*
X89979578Y-22312238D01*
X90092244Y-22344042D01*
X90217694Y-22396006D01*
X90217709Y-22396011D01*
X90230977Y-22401507D01*
X90244793Y-22405442D01*
X90244797Y-22405444D01*
X90533307Y-22487628D01*
X90533312Y-22487629D01*
X90547129Y-22491565D01*
X90758520Y-22526182D01*
X90857344Y-22542365D01*
X90857347Y-22542365D01*
X90871537Y-22544689D01*
X90885896Y-22545366D01*
X90885904Y-22545367D01*
X91185538Y-22559497D01*
X91185543Y-22559497D01*
X91199900Y-22560174D01*
X91427048Y-22544689D01*
X91513539Y-22538793D01*
X91513542Y-22538793D01*
X91527868Y-22537816D01*
X91695054Y-22506830D01*
X91836953Y-22480531D01*
X91836961Y-22480529D01*
X91851092Y-22477910D01*
X92165289Y-22381250D01*
X92240712Y-22348142D01*
X92377564Y-22310142D01*
X92519578Y-22312238D01*
X92632244Y-22344042D01*
X92757694Y-22396006D01*
X92757709Y-22396011D01*
X92770977Y-22401507D01*
X92784793Y-22405442D01*
X92784797Y-22405444D01*
X93073307Y-22487628D01*
X93073312Y-22487629D01*
X93087129Y-22491565D01*
X93298520Y-22526182D01*
X93397344Y-22542365D01*
X93397347Y-22542365D01*
X93411537Y-22544689D01*
X93425896Y-22545366D01*
X93425904Y-22545367D01*
X93725538Y-22559497D01*
X93725543Y-22559497D01*
X93739900Y-22560174D01*
X93967048Y-22544689D01*
X94053539Y-22538793D01*
X94053542Y-22538793D01*
X94067868Y-22537816D01*
X94235054Y-22506830D01*
X94376953Y-22480531D01*
X94376961Y-22480529D01*
X94391092Y-22477910D01*
X94705289Y-22381250D01*
X94780712Y-22348142D01*
X94917564Y-22310142D01*
X95059578Y-22312238D01*
X95172244Y-22344042D01*
X95297694Y-22396006D01*
X95297709Y-22396011D01*
X95310977Y-22401507D01*
X95324793Y-22405442D01*
X95324797Y-22405444D01*
X95613307Y-22487628D01*
X95613312Y-22487629D01*
X95627129Y-22491565D01*
X95838520Y-22526182D01*
X95937344Y-22542365D01*
X95937347Y-22542365D01*
X95951537Y-22544689D01*
X95965896Y-22545366D01*
X95965904Y-22545367D01*
X96265538Y-22559497D01*
X96265543Y-22559497D01*
X96279900Y-22560174D01*
X96507048Y-22544689D01*
X96593539Y-22538793D01*
X96593542Y-22538793D01*
X96607868Y-22537816D01*
X96775054Y-22506830D01*
X96916953Y-22480531D01*
X96916961Y-22480529D01*
X96931092Y-22477910D01*
X97245289Y-22381250D01*
X97320712Y-22348142D01*
X97457564Y-22310142D01*
X97599578Y-22312238D01*
X97712244Y-22344042D01*
X97837694Y-22396006D01*
X97837709Y-22396011D01*
X97850977Y-22401507D01*
X97864793Y-22405442D01*
X97864797Y-22405444D01*
X98153307Y-22487628D01*
X98153312Y-22487629D01*
X98167129Y-22491565D01*
X98378520Y-22526182D01*
X98477344Y-22542365D01*
X98477347Y-22542365D01*
X98491537Y-22544689D01*
X98505896Y-22545366D01*
X98505904Y-22545367D01*
X98805538Y-22559497D01*
X98805543Y-22559497D01*
X98819900Y-22560174D01*
X99047048Y-22544689D01*
X99133539Y-22538793D01*
X99133542Y-22538793D01*
X99147868Y-22537816D01*
X99315054Y-22506830D01*
X99456953Y-22480531D01*
X99456961Y-22480529D01*
X99471092Y-22477910D01*
X99785289Y-22381250D01*
X99860712Y-22348142D01*
X99997564Y-22310142D01*
X100139578Y-22312238D01*
X100252244Y-22344042D01*
X100377694Y-22396006D01*
X100377709Y-22396011D01*
X100390977Y-22401507D01*
X100404793Y-22405442D01*
X100404797Y-22405444D01*
X100693307Y-22487628D01*
X100693312Y-22487629D01*
X100707129Y-22491565D01*
X100918520Y-22526182D01*
X101017344Y-22542365D01*
X101017347Y-22542365D01*
X101031537Y-22544689D01*
X101045896Y-22545366D01*
X101045904Y-22545367D01*
X101345538Y-22559497D01*
X101345543Y-22559497D01*
X101359900Y-22560174D01*
X101587048Y-22544689D01*
X101673539Y-22538793D01*
X101673542Y-22538793D01*
X101687868Y-22537816D01*
X101855054Y-22506830D01*
X101996953Y-22480531D01*
X101996961Y-22480529D01*
X102011092Y-22477910D01*
X102325289Y-22381250D01*
X102400712Y-22348142D01*
X102537564Y-22310142D01*
X102679578Y-22312238D01*
X102792244Y-22344042D01*
X102917694Y-22396006D01*
X102917709Y-22396011D01*
X102930977Y-22401507D01*
X102944793Y-22405442D01*
X102944797Y-22405444D01*
X103233307Y-22487628D01*
X103233312Y-22487629D01*
X103247129Y-22491565D01*
X103458520Y-22526182D01*
X103557344Y-22542365D01*
X103557347Y-22542365D01*
X103571537Y-22544689D01*
X103585896Y-22545366D01*
X103585904Y-22545367D01*
X103885538Y-22559497D01*
X103885543Y-22559497D01*
X103899900Y-22560174D01*
X104127048Y-22544689D01*
X104213539Y-22538793D01*
X104213542Y-22538793D01*
X104227868Y-22537816D01*
X104395054Y-22506830D01*
X104536953Y-22480531D01*
X104536961Y-22480529D01*
X104551092Y-22477910D01*
X104865289Y-22381250D01*
X104940712Y-22348142D01*
X105077564Y-22310142D01*
X105219578Y-22312238D01*
X105332244Y-22344042D01*
X105457694Y-22396006D01*
X105457709Y-22396011D01*
X105470977Y-22401507D01*
X105484793Y-22405442D01*
X105484797Y-22405444D01*
X105773307Y-22487628D01*
X105773312Y-22487629D01*
X105787129Y-22491565D01*
X105998520Y-22526182D01*
X106097344Y-22542365D01*
X106097347Y-22542365D01*
X106111537Y-22544689D01*
X106125896Y-22545366D01*
X106125904Y-22545367D01*
X106425538Y-22559497D01*
X106425543Y-22559497D01*
X106439900Y-22560174D01*
X106667048Y-22544689D01*
X106753539Y-22538793D01*
X106753542Y-22538793D01*
X106767868Y-22537816D01*
X106935054Y-22506830D01*
X107076953Y-22480531D01*
X107076961Y-22480529D01*
X107091092Y-22477910D01*
X107405289Y-22381250D01*
X107480712Y-22348142D01*
X107617564Y-22310142D01*
X107759578Y-22312238D01*
X107872244Y-22344042D01*
X107997694Y-22396006D01*
X107997709Y-22396011D01*
X108010977Y-22401507D01*
X108024793Y-22405442D01*
X108024797Y-22405444D01*
X108313307Y-22487628D01*
X108313312Y-22487629D01*
X108327129Y-22491565D01*
X108538520Y-22526182D01*
X108637344Y-22542365D01*
X108637347Y-22542365D01*
X108651537Y-22544689D01*
X108665896Y-22545366D01*
X108665904Y-22545367D01*
X108965538Y-22559497D01*
X108965543Y-22559497D01*
X108979900Y-22560174D01*
X109207048Y-22544689D01*
X109293539Y-22538793D01*
X109293542Y-22538793D01*
X109307868Y-22537816D01*
X109475054Y-22506830D01*
X109616953Y-22480531D01*
X109616961Y-22480529D01*
X109631092Y-22477910D01*
X109945289Y-22381250D01*
X110020712Y-22348142D01*
X110157564Y-22310142D01*
X110299578Y-22312238D01*
X110412244Y-22344042D01*
X110537694Y-22396006D01*
X110537709Y-22396011D01*
X110550977Y-22401507D01*
X110564793Y-22405442D01*
X110564797Y-22405444D01*
X110853307Y-22487628D01*
X110853312Y-22487629D01*
X110867129Y-22491565D01*
X111078520Y-22526182D01*
X111177344Y-22542365D01*
X111177347Y-22542365D01*
X111191537Y-22544689D01*
X111205896Y-22545366D01*
X111205904Y-22545367D01*
X111505538Y-22559497D01*
X111505543Y-22559497D01*
X111519900Y-22560174D01*
X111747048Y-22544689D01*
X111833539Y-22538793D01*
X111833542Y-22538793D01*
X111847868Y-22537816D01*
X112015054Y-22506830D01*
X112156953Y-22480531D01*
X112156961Y-22480529D01*
X112171092Y-22477910D01*
X112485289Y-22381250D01*
X112560712Y-22348142D01*
X112697564Y-22310142D01*
X112839578Y-22312238D01*
X112952244Y-22344042D01*
X113077694Y-22396006D01*
X113077709Y-22396011D01*
X113090977Y-22401507D01*
X113104793Y-22405442D01*
X113104797Y-22405444D01*
X113393307Y-22487628D01*
X113393312Y-22487629D01*
X113407129Y-22491565D01*
X113618520Y-22526182D01*
X113717344Y-22542365D01*
X113717347Y-22542365D01*
X113731537Y-22544689D01*
X113745896Y-22545366D01*
X113745904Y-22545367D01*
X114045538Y-22559497D01*
X114045543Y-22559497D01*
X114059900Y-22560174D01*
X114287048Y-22544689D01*
X114373539Y-22538793D01*
X114373542Y-22538793D01*
X114387868Y-22537816D01*
X114555054Y-22506830D01*
X114696953Y-22480531D01*
X114696961Y-22480529D01*
X114711092Y-22477910D01*
X115025289Y-22381250D01*
X115100712Y-22348142D01*
X115237564Y-22310142D01*
X115379578Y-22312238D01*
X115492244Y-22344042D01*
X115617694Y-22396006D01*
X115617709Y-22396011D01*
X115630977Y-22401507D01*
X115644793Y-22405442D01*
X115644797Y-22405444D01*
X115933307Y-22487628D01*
X115933312Y-22487629D01*
X115947129Y-22491565D01*
X116158520Y-22526182D01*
X116257344Y-22542365D01*
X116257347Y-22542365D01*
X116271537Y-22544689D01*
X116285896Y-22545366D01*
X116285904Y-22545367D01*
X116585538Y-22559497D01*
X116585543Y-22559497D01*
X116599900Y-22560174D01*
X116827048Y-22544689D01*
X116913539Y-22538793D01*
X116913542Y-22538793D01*
X116927868Y-22537816D01*
X117095054Y-22506830D01*
X117236953Y-22480531D01*
X117236961Y-22480529D01*
X117251092Y-22477910D01*
X117565289Y-22381250D01*
X117640712Y-22348142D01*
X117777564Y-22310142D01*
X117919578Y-22312238D01*
X118032244Y-22344042D01*
X118157694Y-22396006D01*
X118157709Y-22396011D01*
X118170977Y-22401507D01*
X118184793Y-22405442D01*
X118184797Y-22405444D01*
X118473307Y-22487628D01*
X118473312Y-22487629D01*
X118487129Y-22491565D01*
X118698520Y-22526182D01*
X118797344Y-22542365D01*
X118797347Y-22542365D01*
X118811537Y-22544689D01*
X118825896Y-22545366D01*
X118825904Y-22545367D01*
X119125538Y-22559497D01*
X119125543Y-22559497D01*
X119139900Y-22560174D01*
X119367048Y-22544689D01*
X119453539Y-22538793D01*
X119453542Y-22538793D01*
X119467868Y-22537816D01*
X119635054Y-22506830D01*
X119776953Y-22480531D01*
X119776961Y-22480529D01*
X119791092Y-22477910D01*
X120105289Y-22381250D01*
X120180712Y-22348142D01*
X120317564Y-22310142D01*
X120459578Y-22312238D01*
X120572244Y-22344042D01*
X120697694Y-22396006D01*
X120697709Y-22396011D01*
X120710977Y-22401507D01*
X120724793Y-22405442D01*
X120724797Y-22405444D01*
X121013307Y-22487628D01*
X121013312Y-22487629D01*
X121027129Y-22491565D01*
X121238520Y-22526182D01*
X121337344Y-22542365D01*
X121337347Y-22542365D01*
X121351537Y-22544689D01*
X121365896Y-22545366D01*
X121365904Y-22545367D01*
X121665538Y-22559497D01*
X121665543Y-22559497D01*
X121679900Y-22560174D01*
X121907048Y-22544689D01*
X121993539Y-22538793D01*
X121993542Y-22538793D01*
X122007868Y-22537816D01*
X122175054Y-22506830D01*
X122316953Y-22480531D01*
X122316961Y-22480529D01*
X122331092Y-22477910D01*
X122645289Y-22381250D01*
X122720712Y-22348142D01*
X122857564Y-22310142D01*
X122999578Y-22312238D01*
X123112244Y-22344042D01*
X123237694Y-22396006D01*
X123237709Y-22396011D01*
X123250977Y-22401507D01*
X123264793Y-22405442D01*
X123264797Y-22405444D01*
X123553307Y-22487628D01*
X123553312Y-22487629D01*
X123567129Y-22491565D01*
X123778520Y-22526182D01*
X123877344Y-22542365D01*
X123877347Y-22542365D01*
X123891537Y-22544689D01*
X123905896Y-22545366D01*
X123905904Y-22545367D01*
X124205538Y-22559497D01*
X124205543Y-22559497D01*
X124219900Y-22560174D01*
X124447048Y-22544689D01*
X124533539Y-22538793D01*
X124533542Y-22538793D01*
X124547868Y-22537816D01*
X124715054Y-22506830D01*
X124856953Y-22480531D01*
X124856961Y-22480529D01*
X124871092Y-22477910D01*
X125185289Y-22381250D01*
X125260712Y-22348142D01*
X125397564Y-22310142D01*
X125539578Y-22312238D01*
X125652244Y-22344042D01*
X125777694Y-22396006D01*
X125777709Y-22396011D01*
X125790977Y-22401507D01*
X125804793Y-22405442D01*
X125804797Y-22405444D01*
X126093307Y-22487628D01*
X126093312Y-22487629D01*
X126107129Y-22491565D01*
X126318520Y-22526182D01*
X126417344Y-22542365D01*
X126417347Y-22542365D01*
X126431537Y-22544689D01*
X126445896Y-22545366D01*
X126445904Y-22545367D01*
X126745538Y-22559497D01*
X126745543Y-22559497D01*
X126759900Y-22560174D01*
X126987048Y-22544689D01*
X127073539Y-22538793D01*
X127073542Y-22538793D01*
X127087868Y-22537816D01*
X127255054Y-22506830D01*
X127396953Y-22480531D01*
X127396961Y-22480529D01*
X127411092Y-22477910D01*
X127725289Y-22381250D01*
X127800712Y-22348142D01*
X127937564Y-22310142D01*
X128079578Y-22312238D01*
X128192244Y-22344042D01*
X128317694Y-22396006D01*
X128317709Y-22396011D01*
X128330977Y-22401507D01*
X128344793Y-22405442D01*
X128344797Y-22405444D01*
X128633307Y-22487628D01*
X128633312Y-22487629D01*
X128647129Y-22491565D01*
X128858520Y-22526182D01*
X128957344Y-22542365D01*
X128957347Y-22542365D01*
X128971537Y-22544689D01*
X128985896Y-22545366D01*
X128985904Y-22545367D01*
X129285538Y-22559497D01*
X129285543Y-22559497D01*
X129299900Y-22560174D01*
X129527048Y-22544689D01*
X129613539Y-22538793D01*
X129613542Y-22538793D01*
X129627868Y-22537816D01*
X129795054Y-22506830D01*
X129936953Y-22480531D01*
X129936961Y-22480529D01*
X129951092Y-22477910D01*
X130265289Y-22381250D01*
X130340712Y-22348142D01*
X130477564Y-22310142D01*
X130619578Y-22312238D01*
X130732244Y-22344042D01*
X130857694Y-22396006D01*
X130857709Y-22396011D01*
X130870977Y-22401507D01*
X130884793Y-22405442D01*
X130884797Y-22405444D01*
X131173307Y-22487628D01*
X131173312Y-22487629D01*
X131187129Y-22491565D01*
X131398520Y-22526182D01*
X131497344Y-22542365D01*
X131497347Y-22542365D01*
X131511537Y-22544689D01*
X131525896Y-22545366D01*
X131525904Y-22545367D01*
X131825538Y-22559497D01*
X131825543Y-22559497D01*
X131839900Y-22560174D01*
X132067048Y-22544689D01*
X132153539Y-22538793D01*
X132153542Y-22538793D01*
X132167868Y-22537816D01*
X132335054Y-22506830D01*
X132476953Y-22480531D01*
X132476961Y-22480529D01*
X132491092Y-22477910D01*
X132805289Y-22381250D01*
X132880712Y-22348142D01*
X133017564Y-22310142D01*
X133159578Y-22312238D01*
X133272244Y-22344042D01*
X133397694Y-22396006D01*
X133397709Y-22396011D01*
X133410977Y-22401507D01*
X133424793Y-22405442D01*
X133424797Y-22405444D01*
X133713307Y-22487628D01*
X133713312Y-22487629D01*
X133727129Y-22491565D01*
X133938520Y-22526182D01*
X134037344Y-22542365D01*
X134037347Y-22542365D01*
X134051537Y-22544689D01*
X134065896Y-22545366D01*
X134065904Y-22545367D01*
X134365538Y-22559497D01*
X134365543Y-22559497D01*
X134379900Y-22560174D01*
X134607048Y-22544689D01*
X134693539Y-22538793D01*
X134693542Y-22538793D01*
X134707868Y-22537816D01*
X134875054Y-22506830D01*
X135016953Y-22480531D01*
X135016961Y-22480529D01*
X135031092Y-22477910D01*
X135345289Y-22381250D01*
X135420712Y-22348142D01*
X135557564Y-22310142D01*
X135699578Y-22312238D01*
X135812244Y-22344042D01*
X135937694Y-22396006D01*
X135937709Y-22396011D01*
X135950977Y-22401507D01*
X135964793Y-22405442D01*
X135964797Y-22405444D01*
X136253307Y-22487628D01*
X136253312Y-22487629D01*
X136267129Y-22491565D01*
X136478520Y-22526182D01*
X136577344Y-22542365D01*
X136577347Y-22542365D01*
X136591537Y-22544689D01*
X136605896Y-22545366D01*
X136605904Y-22545367D01*
X136905538Y-22559497D01*
X136905543Y-22559497D01*
X136919900Y-22560174D01*
X137147048Y-22544689D01*
X137233539Y-22538793D01*
X137233542Y-22538793D01*
X137247868Y-22537816D01*
X137415054Y-22506830D01*
X137556953Y-22480531D01*
X137556961Y-22480529D01*
X137571092Y-22477910D01*
X137885289Y-22381250D01*
X137960712Y-22348142D01*
X138097564Y-22310142D01*
X138239578Y-22312238D01*
X138352244Y-22344042D01*
X138477694Y-22396006D01*
X138477709Y-22396011D01*
X138490977Y-22401507D01*
X138504793Y-22405442D01*
X138504797Y-22405444D01*
X138793307Y-22487628D01*
X138793312Y-22487629D01*
X138807129Y-22491565D01*
X139018520Y-22526182D01*
X139117344Y-22542365D01*
X139117347Y-22542365D01*
X139131537Y-22544689D01*
X139145896Y-22545366D01*
X139145904Y-22545367D01*
X139445538Y-22559497D01*
X139445543Y-22559497D01*
X139459900Y-22560174D01*
X139687048Y-22544689D01*
X139773539Y-22538793D01*
X139773542Y-22538793D01*
X139787868Y-22537816D01*
X139955054Y-22506830D01*
X140096953Y-22480531D01*
X140096961Y-22480529D01*
X140111092Y-22477910D01*
X140425289Y-22381250D01*
X140500712Y-22348142D01*
X140637564Y-22310142D01*
X140779578Y-22312238D01*
X140892244Y-22344042D01*
X141017694Y-22396006D01*
X141017709Y-22396011D01*
X141030977Y-22401507D01*
X141044793Y-22405442D01*
X141044797Y-22405444D01*
X141333307Y-22487628D01*
X141333312Y-22487629D01*
X141347129Y-22491565D01*
X141558520Y-22526182D01*
X141657344Y-22542365D01*
X141657347Y-22542365D01*
X141671537Y-22544689D01*
X141685896Y-22545366D01*
X141685904Y-22545367D01*
X141985538Y-22559497D01*
X141985543Y-22559497D01*
X141999900Y-22560174D01*
X142227048Y-22544689D01*
X142313539Y-22538793D01*
X142313542Y-22538793D01*
X142327868Y-22537816D01*
X142495054Y-22506830D01*
X142636953Y-22480531D01*
X142636961Y-22480529D01*
X142651092Y-22477910D01*
X142965289Y-22381250D01*
X143040712Y-22348142D01*
X143177564Y-22310142D01*
X143319578Y-22312238D01*
X143432244Y-22344042D01*
X143557694Y-22396006D01*
X143557709Y-22396011D01*
X143570977Y-22401507D01*
X143584793Y-22405442D01*
X143584797Y-22405444D01*
X143873307Y-22487628D01*
X143873312Y-22487629D01*
X143887129Y-22491565D01*
X144098520Y-22526182D01*
X144197344Y-22542365D01*
X144197347Y-22542365D01*
X144211537Y-22544689D01*
X144225896Y-22545366D01*
X144225904Y-22545367D01*
X144525538Y-22559497D01*
X144525543Y-22559497D01*
X144539900Y-22560174D01*
X144767048Y-22544689D01*
X144853539Y-22538793D01*
X144853542Y-22538793D01*
X144867868Y-22537816D01*
X145035054Y-22506830D01*
X145176953Y-22480531D01*
X145176961Y-22480529D01*
X145191092Y-22477910D01*
X145505289Y-22381250D01*
X145580712Y-22348142D01*
X145717564Y-22310142D01*
X145859578Y-22312238D01*
X145972244Y-22344042D01*
X146097694Y-22396006D01*
X146097709Y-22396011D01*
X146110977Y-22401507D01*
X146124793Y-22405442D01*
X146124797Y-22405444D01*
X146413307Y-22487628D01*
X146413312Y-22487629D01*
X146427129Y-22491565D01*
X146638520Y-22526182D01*
X146737344Y-22542365D01*
X146737347Y-22542365D01*
X146751537Y-22544689D01*
X146765896Y-22545366D01*
X146765904Y-22545367D01*
X147065538Y-22559497D01*
X147065543Y-22559497D01*
X147079900Y-22560174D01*
X147307048Y-22544689D01*
X147393539Y-22538793D01*
X147393542Y-22538793D01*
X147407868Y-22537816D01*
X147575054Y-22506830D01*
X147716953Y-22480531D01*
X147716961Y-22480529D01*
X147731092Y-22477910D01*
X148045289Y-22381250D01*
X148120712Y-22348142D01*
X148257564Y-22310142D01*
X148399578Y-22312238D01*
X148512244Y-22344042D01*
X148637694Y-22396006D01*
X148637709Y-22396011D01*
X148650977Y-22401507D01*
X148664793Y-22405442D01*
X148664797Y-22405444D01*
X148953307Y-22487628D01*
X148953312Y-22487629D01*
X148967129Y-22491565D01*
X149178520Y-22526182D01*
X149277344Y-22542365D01*
X149277347Y-22542365D01*
X149291537Y-22544689D01*
X149305896Y-22545366D01*
X149305904Y-22545367D01*
X149605538Y-22559497D01*
X149605543Y-22559497D01*
X149619900Y-22560174D01*
X149847048Y-22544689D01*
X149933539Y-22538793D01*
X149933542Y-22538793D01*
X149947868Y-22537816D01*
X150115054Y-22506830D01*
X150256953Y-22480531D01*
X150256961Y-22480529D01*
X150271092Y-22477910D01*
X150585289Y-22381250D01*
X150660712Y-22348142D01*
X150797564Y-22310142D01*
X150939578Y-22312238D01*
X151052244Y-22344042D01*
X151177694Y-22396006D01*
X151177709Y-22396011D01*
X151190977Y-22401507D01*
X151204793Y-22405442D01*
X151204797Y-22405444D01*
X151493307Y-22487628D01*
X151493312Y-22487629D01*
X151507129Y-22491565D01*
X151718520Y-22526182D01*
X151817344Y-22542365D01*
X151817347Y-22542365D01*
X151831537Y-22544689D01*
X151845896Y-22545366D01*
X151845904Y-22545367D01*
X152145538Y-22559497D01*
X152145543Y-22559497D01*
X152159900Y-22560174D01*
X152387048Y-22544689D01*
X152473539Y-22538793D01*
X152473542Y-22538793D01*
X152487868Y-22537816D01*
X152655054Y-22506830D01*
X152796953Y-22480531D01*
X152796961Y-22480529D01*
X152811092Y-22477910D01*
X153125289Y-22381250D01*
X153200712Y-22348142D01*
X153337564Y-22310142D01*
X153479578Y-22312238D01*
X153592244Y-22344042D01*
X153717694Y-22396006D01*
X153717709Y-22396011D01*
X153730977Y-22401507D01*
X153744793Y-22405442D01*
X153744797Y-22405444D01*
X154033307Y-22487628D01*
X154033312Y-22487629D01*
X154047129Y-22491565D01*
X154258520Y-22526182D01*
X154357344Y-22542365D01*
X154357347Y-22542365D01*
X154371537Y-22544689D01*
X154385896Y-22545366D01*
X154385904Y-22545367D01*
X154685538Y-22559497D01*
X154685543Y-22559497D01*
X154699900Y-22560174D01*
X154927048Y-22544689D01*
X155013539Y-22538793D01*
X155013542Y-22538793D01*
X155027868Y-22537816D01*
X155195054Y-22506830D01*
X155336953Y-22480531D01*
X155336961Y-22480529D01*
X155351092Y-22477910D01*
X155665289Y-22381250D01*
X155740712Y-22348142D01*
X155877564Y-22310142D01*
X156019578Y-22312238D01*
X156132244Y-22344042D01*
X156257694Y-22396006D01*
X156257709Y-22396011D01*
X156270977Y-22401507D01*
X156284793Y-22405442D01*
X156284797Y-22405444D01*
X156573307Y-22487628D01*
X156573312Y-22487629D01*
X156587129Y-22491565D01*
X156798520Y-22526182D01*
X156897344Y-22542365D01*
X156897347Y-22542365D01*
X156911537Y-22544689D01*
X156925896Y-22545366D01*
X156925904Y-22545367D01*
X157225538Y-22559497D01*
X157225543Y-22559497D01*
X157239900Y-22560174D01*
X157467048Y-22544689D01*
X157553539Y-22538793D01*
X157553542Y-22538793D01*
X157567868Y-22537816D01*
X157735054Y-22506830D01*
X157876953Y-22480531D01*
X157876961Y-22480529D01*
X157891092Y-22477910D01*
X158205289Y-22381250D01*
X158280712Y-22348142D01*
X158417564Y-22310142D01*
X158559578Y-22312238D01*
X158672244Y-22344042D01*
X158797694Y-22396006D01*
X158797709Y-22396011D01*
X158810977Y-22401507D01*
X158824793Y-22405442D01*
X158824797Y-22405444D01*
X159113307Y-22487628D01*
X159113312Y-22487629D01*
X159127129Y-22491565D01*
X159338520Y-22526182D01*
X159437344Y-22542365D01*
X159437347Y-22542365D01*
X159451537Y-22544689D01*
X159465896Y-22545366D01*
X159465904Y-22545367D01*
X159765538Y-22559497D01*
X159765543Y-22559497D01*
X159779900Y-22560174D01*
X160007048Y-22544689D01*
X160093539Y-22538793D01*
X160093542Y-22538793D01*
X160107868Y-22537816D01*
X160275054Y-22506830D01*
X160416953Y-22480531D01*
X160416961Y-22480529D01*
X160431092Y-22477910D01*
X160745289Y-22381250D01*
X160820712Y-22348142D01*
X160957564Y-22310142D01*
X161099578Y-22312238D01*
X161212244Y-22344042D01*
X161337694Y-22396006D01*
X161337709Y-22396011D01*
X161350977Y-22401507D01*
X161364793Y-22405442D01*
X161364797Y-22405444D01*
X161653307Y-22487628D01*
X161653312Y-22487629D01*
X161667129Y-22491565D01*
X161878520Y-22526182D01*
X161977344Y-22542365D01*
X161977347Y-22542365D01*
X161991537Y-22544689D01*
X162005896Y-22545366D01*
X162005904Y-22545367D01*
X162305538Y-22559497D01*
X162305543Y-22559497D01*
X162319900Y-22560174D01*
X162547048Y-22544689D01*
X162633539Y-22538793D01*
X162633542Y-22538793D01*
X162647868Y-22537816D01*
X162815054Y-22506830D01*
X162956953Y-22480531D01*
X162956961Y-22480529D01*
X162971092Y-22477910D01*
X163285289Y-22381250D01*
X163360712Y-22348142D01*
X163497564Y-22310142D01*
X163639578Y-22312238D01*
X163752244Y-22344042D01*
X163877694Y-22396006D01*
X163877709Y-22396011D01*
X163890977Y-22401507D01*
X163904793Y-22405442D01*
X163904797Y-22405444D01*
X164193307Y-22487628D01*
X164193312Y-22487629D01*
X164207129Y-22491565D01*
X164418520Y-22526182D01*
X164517344Y-22542365D01*
X164517347Y-22542365D01*
X164531537Y-22544689D01*
X164545896Y-22545366D01*
X164545904Y-22545367D01*
X164845538Y-22559497D01*
X164845543Y-22559497D01*
X164859900Y-22560174D01*
X165087048Y-22544689D01*
X165173539Y-22538793D01*
X165173542Y-22538793D01*
X165187868Y-22537816D01*
X165355054Y-22506830D01*
X165496953Y-22480531D01*
X165496961Y-22480529D01*
X165511092Y-22477910D01*
X165825289Y-22381250D01*
X165900712Y-22348142D01*
X166037564Y-22310142D01*
X166179578Y-22312238D01*
X166292244Y-22344042D01*
X166417694Y-22396006D01*
X166417709Y-22396011D01*
X166430977Y-22401507D01*
X166444793Y-22405442D01*
X166444797Y-22405444D01*
X166733307Y-22487628D01*
X166733312Y-22487629D01*
X166747129Y-22491565D01*
X166958520Y-22526182D01*
X167057344Y-22542365D01*
X167057347Y-22542365D01*
X167071537Y-22544689D01*
X167085896Y-22545366D01*
X167085904Y-22545367D01*
X167385538Y-22559497D01*
X167385543Y-22559497D01*
X167399900Y-22560174D01*
X167627048Y-22544689D01*
X167713539Y-22538793D01*
X167713542Y-22538793D01*
X167727868Y-22537816D01*
X167895054Y-22506830D01*
X168036953Y-22480531D01*
X168036961Y-22480529D01*
X168051092Y-22477910D01*
X168365289Y-22381250D01*
X168440712Y-22348142D01*
X168577564Y-22310142D01*
X168719578Y-22312238D01*
X168832244Y-22344042D01*
X168957694Y-22396006D01*
X168957709Y-22396011D01*
X168970977Y-22401507D01*
X168984793Y-22405442D01*
X168984797Y-22405444D01*
X169273307Y-22487628D01*
X169273312Y-22487629D01*
X169287129Y-22491565D01*
X169498520Y-22526182D01*
X169597344Y-22542365D01*
X169597347Y-22542365D01*
X169611537Y-22544689D01*
X169625896Y-22545366D01*
X169625904Y-22545367D01*
X169925538Y-22559497D01*
X169925543Y-22559497D01*
X169939900Y-22560174D01*
X170167048Y-22544689D01*
X170253539Y-22538793D01*
X170253542Y-22538793D01*
X170267868Y-22537816D01*
X170435054Y-22506830D01*
X170576953Y-22480531D01*
X170576961Y-22480529D01*
X170591092Y-22477910D01*
X170905289Y-22381250D01*
X170980712Y-22348142D01*
X171117564Y-22310142D01*
X171259578Y-22312238D01*
X171372244Y-22344042D01*
X171497694Y-22396006D01*
X171497709Y-22396011D01*
X171510977Y-22401507D01*
X171524793Y-22405442D01*
X171524797Y-22405444D01*
X171813307Y-22487628D01*
X171813312Y-22487629D01*
X171827129Y-22491565D01*
X172038520Y-22526182D01*
X172137344Y-22542365D01*
X172137347Y-22542365D01*
X172151537Y-22544689D01*
X172165896Y-22545366D01*
X172165904Y-22545367D01*
X172465538Y-22559497D01*
X172465543Y-22559497D01*
X172479900Y-22560174D01*
X172707048Y-22544689D01*
X172793539Y-22538793D01*
X172793542Y-22538793D01*
X172807868Y-22537816D01*
X172975054Y-22506830D01*
X173116953Y-22480531D01*
X173116961Y-22480529D01*
X173131092Y-22477910D01*
X173445289Y-22381250D01*
X173520712Y-22348142D01*
X173657564Y-22310142D01*
X173799578Y-22312238D01*
X173912244Y-22344042D01*
X174037694Y-22396006D01*
X174037709Y-22396011D01*
X174050977Y-22401507D01*
X174064793Y-22405442D01*
X174064797Y-22405444D01*
X174353307Y-22487628D01*
X174353312Y-22487629D01*
X174367129Y-22491565D01*
X174578520Y-22526182D01*
X174677344Y-22542365D01*
X174677347Y-22542365D01*
X174691537Y-22544689D01*
X174705896Y-22545366D01*
X174705904Y-22545367D01*
X175005538Y-22559497D01*
X175005543Y-22559497D01*
X175019900Y-22560174D01*
X175247048Y-22544689D01*
X175333539Y-22538793D01*
X175333542Y-22538793D01*
X175347868Y-22537816D01*
X175515054Y-22506830D01*
X175656953Y-22480531D01*
X175656961Y-22480529D01*
X175671092Y-22477910D01*
X175985289Y-22381250D01*
X176060712Y-22348142D01*
X176197564Y-22310142D01*
X176339578Y-22312238D01*
X176452244Y-22344042D01*
X176577694Y-22396006D01*
X176577709Y-22396011D01*
X176590977Y-22401507D01*
X176604793Y-22405442D01*
X176604797Y-22405444D01*
X176893307Y-22487628D01*
X176893312Y-22487629D01*
X176907129Y-22491565D01*
X177118520Y-22526182D01*
X177217344Y-22542365D01*
X177217347Y-22542365D01*
X177231537Y-22544689D01*
X177245896Y-22545366D01*
X177245904Y-22545367D01*
X177545538Y-22559497D01*
X177545543Y-22559497D01*
X177559900Y-22560174D01*
X177787048Y-22544689D01*
X177873539Y-22538793D01*
X177873542Y-22538793D01*
X177887868Y-22537816D01*
X178055054Y-22506830D01*
X178196953Y-22480531D01*
X178196961Y-22480529D01*
X178211092Y-22477910D01*
X178525289Y-22381250D01*
X178600712Y-22348142D01*
X178737564Y-22310142D01*
X178879578Y-22312238D01*
X178992244Y-22344042D01*
X179117694Y-22396006D01*
X179117709Y-22396011D01*
X179130977Y-22401507D01*
X179144793Y-22405442D01*
X179144797Y-22405444D01*
X179433307Y-22487628D01*
X179433312Y-22487629D01*
X179447129Y-22491565D01*
X179658520Y-22526182D01*
X179757344Y-22542365D01*
X179757347Y-22542365D01*
X179771537Y-22544689D01*
X179785896Y-22545366D01*
X179785904Y-22545367D01*
X180085538Y-22559497D01*
X180085543Y-22559497D01*
X180099900Y-22560174D01*
X180327048Y-22544689D01*
X180413539Y-22538793D01*
X180413542Y-22538793D01*
X180427868Y-22537816D01*
X180595054Y-22506830D01*
X180736953Y-22480531D01*
X180736961Y-22480529D01*
X180751092Y-22477910D01*
X181065289Y-22381250D01*
X181140712Y-22348142D01*
X181277564Y-22310142D01*
X181419578Y-22312238D01*
X181532244Y-22344042D01*
X181657694Y-22396006D01*
X181657709Y-22396011D01*
X181670977Y-22401507D01*
X181684793Y-22405442D01*
X181684797Y-22405444D01*
X181973307Y-22487628D01*
X181973312Y-22487629D01*
X181987129Y-22491565D01*
X182198520Y-22526182D01*
X182297344Y-22542365D01*
X182297347Y-22542365D01*
X182311537Y-22544689D01*
X182325896Y-22545366D01*
X182325904Y-22545367D01*
X182625538Y-22559497D01*
X182625543Y-22559497D01*
X182639900Y-22560174D01*
X182867048Y-22544689D01*
X182953539Y-22538793D01*
X182953542Y-22538793D01*
X182967868Y-22537816D01*
X183135054Y-22506830D01*
X183276953Y-22480531D01*
X183276961Y-22480529D01*
X183291092Y-22477910D01*
X183605289Y-22381250D01*
X183680712Y-22348142D01*
X183817564Y-22310142D01*
X183959578Y-22312238D01*
X184072244Y-22344042D01*
X184197694Y-22396006D01*
X184197709Y-22396011D01*
X184210977Y-22401507D01*
X184224793Y-22405442D01*
X184224797Y-22405444D01*
X184513307Y-22487628D01*
X184513312Y-22487629D01*
X184527129Y-22491565D01*
X184738520Y-22526182D01*
X184837344Y-22542365D01*
X184837347Y-22542365D01*
X184851537Y-22544689D01*
X184865896Y-22545366D01*
X184865904Y-22545367D01*
X185165538Y-22559497D01*
X185165543Y-22559497D01*
X185179900Y-22560174D01*
X185407048Y-22544689D01*
X185493539Y-22538793D01*
X185493542Y-22538793D01*
X185507868Y-22537816D01*
X185675054Y-22506830D01*
X185816953Y-22480531D01*
X185816961Y-22480529D01*
X185831092Y-22477910D01*
X186145289Y-22381250D01*
X186220712Y-22348142D01*
X186357564Y-22310142D01*
X186499578Y-22312238D01*
X186612244Y-22344042D01*
X186737694Y-22396006D01*
X186737709Y-22396011D01*
X186750977Y-22401507D01*
X186764793Y-22405442D01*
X186764797Y-22405444D01*
X187053307Y-22487628D01*
X187053312Y-22487629D01*
X187067129Y-22491565D01*
X187278520Y-22526182D01*
X187377344Y-22542365D01*
X187377347Y-22542365D01*
X187391537Y-22544689D01*
X187405896Y-22545366D01*
X187405904Y-22545367D01*
X187705538Y-22559497D01*
X187705543Y-22559497D01*
X187719900Y-22560174D01*
X187947048Y-22544689D01*
X188033539Y-22538793D01*
X188033542Y-22538793D01*
X188047868Y-22537816D01*
X188215054Y-22506830D01*
X188356953Y-22480531D01*
X188356961Y-22480529D01*
X188371092Y-22477910D01*
X188685289Y-22381250D01*
X188760712Y-22348142D01*
X188897564Y-22310142D01*
X189039578Y-22312238D01*
X189152244Y-22344042D01*
X189277694Y-22396006D01*
X189277709Y-22396011D01*
X189290977Y-22401507D01*
X189304793Y-22405442D01*
X189304797Y-22405444D01*
X189593307Y-22487628D01*
X189593312Y-22487629D01*
X189607129Y-22491565D01*
X189818520Y-22526182D01*
X189917344Y-22542365D01*
X189917347Y-22542365D01*
X189931537Y-22544689D01*
X189945896Y-22545366D01*
X189945904Y-22545367D01*
X190245538Y-22559497D01*
X190245543Y-22559497D01*
X190259900Y-22560174D01*
X190487048Y-22544689D01*
X190573539Y-22538793D01*
X190573542Y-22538793D01*
X190587868Y-22537816D01*
X190755054Y-22506830D01*
X190896953Y-22480531D01*
X190896961Y-22480529D01*
X190911092Y-22477910D01*
X191225289Y-22381250D01*
X191300712Y-22348142D01*
X191437564Y-22310142D01*
X191579578Y-22312238D01*
X191692244Y-22344042D01*
X191817694Y-22396006D01*
X191817709Y-22396011D01*
X191830977Y-22401507D01*
X191844793Y-22405442D01*
X191844797Y-22405444D01*
X192133307Y-22487628D01*
X192133312Y-22487629D01*
X192147129Y-22491565D01*
X192358520Y-22526182D01*
X192457344Y-22542365D01*
X192457347Y-22542365D01*
X192471537Y-22544689D01*
X192485896Y-22545366D01*
X192485904Y-22545367D01*
X192785538Y-22559497D01*
X192785543Y-22559497D01*
X192799900Y-22560174D01*
X193027048Y-22544689D01*
X193113539Y-22538793D01*
X193113542Y-22538793D01*
X193127868Y-22537816D01*
X193295054Y-22506830D01*
X193436953Y-22480531D01*
X193436961Y-22480529D01*
X193451092Y-22477910D01*
X193765289Y-22381250D01*
X193840712Y-22348142D01*
X193977564Y-22310142D01*
X194119578Y-22312238D01*
X194232244Y-22344042D01*
X194357694Y-22396006D01*
X194357709Y-22396011D01*
X194370977Y-22401507D01*
X194384793Y-22405442D01*
X194384797Y-22405444D01*
X194673307Y-22487628D01*
X194673312Y-22487629D01*
X194687129Y-22491565D01*
X194898520Y-22526182D01*
X194997344Y-22542365D01*
X194997347Y-22542365D01*
X195011537Y-22544689D01*
X195025896Y-22545366D01*
X195025904Y-22545367D01*
X195325538Y-22559497D01*
X195325543Y-22559497D01*
X195339900Y-22560174D01*
X195567048Y-22544689D01*
X195653539Y-22538793D01*
X195653542Y-22538793D01*
X195667868Y-22537816D01*
X195835054Y-22506830D01*
X195976953Y-22480531D01*
X195976961Y-22480529D01*
X195991092Y-22477910D01*
X196305289Y-22381250D01*
X196380712Y-22348142D01*
X196517564Y-22310142D01*
X196659578Y-22312238D01*
X196772244Y-22344042D01*
X196897694Y-22396006D01*
X196897709Y-22396011D01*
X196910977Y-22401507D01*
X196924793Y-22405442D01*
X196924797Y-22405444D01*
X197213307Y-22487628D01*
X197213312Y-22487629D01*
X197227129Y-22491565D01*
X197438520Y-22526182D01*
X197537344Y-22542365D01*
X197537347Y-22542365D01*
X197551537Y-22544689D01*
X197565896Y-22545366D01*
X197565904Y-22545367D01*
X197865538Y-22559497D01*
X197865543Y-22559497D01*
X197879900Y-22560174D01*
X198107048Y-22544689D01*
X198193539Y-22538793D01*
X198193542Y-22538793D01*
X198207868Y-22537816D01*
X198375054Y-22506830D01*
X198516953Y-22480531D01*
X198516961Y-22480529D01*
X198531092Y-22477910D01*
X198845289Y-22381250D01*
X198920712Y-22348142D01*
X199057564Y-22310142D01*
X199199578Y-22312238D01*
X199312244Y-22344042D01*
X199437694Y-22396006D01*
X199437709Y-22396011D01*
X199450977Y-22401507D01*
X199464793Y-22405442D01*
X199464797Y-22405444D01*
X199753307Y-22487628D01*
X199753312Y-22487629D01*
X199767129Y-22491565D01*
X199978520Y-22526182D01*
X200077344Y-22542365D01*
X200077347Y-22542365D01*
X200091537Y-22544689D01*
X200105896Y-22545366D01*
X200105904Y-22545367D01*
X200405538Y-22559497D01*
X200405543Y-22559497D01*
X200419900Y-22560174D01*
X200647048Y-22544689D01*
X200733539Y-22538793D01*
X200733542Y-22538793D01*
X200747868Y-22537816D01*
X200915054Y-22506830D01*
X201056953Y-22480531D01*
X201056961Y-22480529D01*
X201071092Y-22477910D01*
X201385289Y-22381250D01*
X201460712Y-22348142D01*
X201597564Y-22310142D01*
X201739578Y-22312238D01*
X201852244Y-22344042D01*
X201977694Y-22396006D01*
X201977709Y-22396011D01*
X201990977Y-22401507D01*
X202004793Y-22405442D01*
X202004797Y-22405444D01*
X202293307Y-22487628D01*
X202293312Y-22487629D01*
X202307129Y-22491565D01*
X202518520Y-22526182D01*
X202617344Y-22542365D01*
X202617347Y-22542365D01*
X202631537Y-22544689D01*
X202645896Y-22545366D01*
X202645904Y-22545367D01*
X202945538Y-22559497D01*
X202945543Y-22559497D01*
X202959900Y-22560174D01*
X203187048Y-22544689D01*
X203273539Y-22538793D01*
X203273542Y-22538793D01*
X203287868Y-22537816D01*
X203455054Y-22506830D01*
X203596953Y-22480531D01*
X203596961Y-22480529D01*
X203611092Y-22477910D01*
X203925289Y-22381250D01*
X204000712Y-22348142D01*
X204137564Y-22310142D01*
X204279578Y-22312238D01*
X204392244Y-22344042D01*
X204517694Y-22396006D01*
X204517709Y-22396011D01*
X204530977Y-22401507D01*
X204544793Y-22405442D01*
X204544797Y-22405444D01*
X204833307Y-22487628D01*
X204833312Y-22487629D01*
X204847129Y-22491565D01*
X205058520Y-22526182D01*
X205157344Y-22542365D01*
X205157347Y-22542365D01*
X205171537Y-22544689D01*
X205185896Y-22545366D01*
X205185904Y-22545367D01*
X205485538Y-22559497D01*
X205485543Y-22559497D01*
X205499900Y-22560174D01*
X205727048Y-22544689D01*
X205813539Y-22538793D01*
X205813542Y-22538793D01*
X205827868Y-22537816D01*
X205995054Y-22506830D01*
X206136953Y-22480531D01*
X206136961Y-22480529D01*
X206151092Y-22477910D01*
X206465289Y-22381250D01*
X206540712Y-22348142D01*
X206677564Y-22310142D01*
X206819578Y-22312238D01*
X206932244Y-22344042D01*
X207057694Y-22396006D01*
X207057709Y-22396011D01*
X207070977Y-22401507D01*
X207084793Y-22405442D01*
X207084797Y-22405444D01*
X207373307Y-22487628D01*
X207373312Y-22487629D01*
X207387129Y-22491565D01*
X207598520Y-22526182D01*
X207697344Y-22542365D01*
X207697347Y-22542365D01*
X207711537Y-22544689D01*
X207725896Y-22545366D01*
X207725904Y-22545367D01*
X208025538Y-22559497D01*
X208025543Y-22559497D01*
X208039900Y-22560174D01*
X208267048Y-22544689D01*
X208353539Y-22538793D01*
X208353542Y-22538793D01*
X208367868Y-22537816D01*
X208535054Y-22506830D01*
X208676953Y-22480531D01*
X208676961Y-22480529D01*
X208691092Y-22477910D01*
X209005289Y-22381250D01*
X209080712Y-22348142D01*
X209217564Y-22310142D01*
X209359578Y-22312238D01*
X209472244Y-22344042D01*
X209597694Y-22396006D01*
X209597709Y-22396011D01*
X209610977Y-22401507D01*
X209624793Y-22405442D01*
X209624797Y-22405444D01*
X209913307Y-22487628D01*
X209913312Y-22487629D01*
X209927129Y-22491565D01*
X210138520Y-22526182D01*
X210237344Y-22542365D01*
X210237347Y-22542365D01*
X210251537Y-22544689D01*
X210265896Y-22545366D01*
X210265904Y-22545367D01*
X210565538Y-22559497D01*
X210565543Y-22559497D01*
X210579900Y-22560174D01*
X210807048Y-22544689D01*
X210893539Y-22538793D01*
X210893542Y-22538793D01*
X210907868Y-22537816D01*
X211075054Y-22506830D01*
X211216953Y-22480531D01*
X211216961Y-22480529D01*
X211231092Y-22477910D01*
X211545289Y-22381250D01*
X211620712Y-22348142D01*
X211757564Y-22310142D01*
X211899578Y-22312238D01*
G37*
%TD.AperFunction*%
%TA.AperFunction,NonConductor*%
G36*
X133726568Y-85661011D02*
G01*
X133859947Y-85709822D01*
X133974173Y-85794233D01*
X134059990Y-85907405D01*
X134088423Y-85967979D01*
X134164369Y-86162770D01*
X134171093Y-86175469D01*
X134171096Y-86175476D01*
X134215525Y-86259387D01*
X134315493Y-86448193D01*
X134323633Y-86460037D01*
X134323635Y-86460040D01*
X134326665Y-86464448D01*
X134328270Y-86467693D01*
X134331082Y-86472336D01*
X134330686Y-86472576D01*
X134389637Y-86591755D01*
X134414192Y-86731646D01*
X134414430Y-86747784D01*
X134413059Y-87708749D01*
X134411857Y-88550741D01*
X134391444Y-88691297D01*
X134337642Y-88811867D01*
X134281545Y-88902874D01*
X134275255Y-88916519D01*
X134275254Y-88916520D01*
X134166713Y-89151964D01*
X134142700Y-89204051D01*
X134041043Y-89519728D01*
X134038188Y-89534487D01*
X134038187Y-89534489D01*
X133980901Y-89830578D01*
X133980900Y-89830586D01*
X133978047Y-89845332D01*
X133954624Y-90176145D01*
X133955371Y-90191151D01*
X133955371Y-90191157D01*
X133957956Y-90243073D01*
X133971114Y-90507376D01*
X133973657Y-90522176D01*
X133973658Y-90522184D01*
X134012403Y-90747667D01*
X134027277Y-90834227D01*
X134031580Y-90848614D01*
X134031581Y-90848620D01*
X134044250Y-90890981D01*
X134122300Y-91151964D01*
X134254807Y-91455983D01*
X134262423Y-91468938D01*
X134330971Y-91585541D01*
X134422879Y-91741882D01*
X134624080Y-92005518D01*
X134855496Y-92243073D01*
X134867188Y-92252491D01*
X134867193Y-92252495D01*
X135102068Y-92441678D01*
X135102074Y-92441682D01*
X135113775Y-92451107D01*
X135126525Y-92459059D01*
X135126527Y-92459060D01*
X135198266Y-92503800D01*
X135395176Y-92626604D01*
X135695623Y-92767024D01*
X136010763Y-92870332D01*
X136336032Y-92935032D01*
X136351012Y-92936171D01*
X136351030Y-92936174D01*
X136493349Y-92947000D01*
X136631996Y-92977818D01*
X136756343Y-93046449D01*
X136856319Y-93147332D01*
X136923822Y-93272296D01*
X136953385Y-93411215D01*
X136954500Y-93444562D01*
X136954500Y-94991409D01*
X136934287Y-95131994D01*
X136875286Y-95261189D01*
X136782276Y-95368528D01*
X136662792Y-95445315D01*
X136526515Y-95485330D01*
X136384485Y-95485330D01*
X136248208Y-95445315D01*
X136128724Y-95368528D01*
X136102654Y-95344255D01*
X130431654Y-89673256D01*
X130346538Y-89559555D01*
X130296904Y-89426480D01*
X130285500Y-89320410D01*
X130285500Y-88304562D01*
X130305713Y-88163977D01*
X130364714Y-88034782D01*
X130457724Y-87927443D01*
X130577208Y-87850656D01*
X130713485Y-87810641D01*
X130750560Y-87806718D01*
X130862235Y-87799105D01*
X130862241Y-87799104D01*
X130876591Y-87798126D01*
X131194145Y-87739271D01*
X131502830Y-87644307D01*
X131798555Y-87514492D01*
X131810949Y-87507250D01*
X131810956Y-87507246D01*
X132064984Y-87358804D01*
X132064987Y-87358802D01*
X132077399Y-87351549D01*
X132335668Y-87157636D01*
X132569936Y-86935323D01*
X132777101Y-86687557D01*
X132792554Y-86664033D01*
X132946519Y-86429642D01*
X132954414Y-86417623D01*
X133099527Y-86129098D01*
X133104463Y-86115610D01*
X133104469Y-86115596D01*
X133154908Y-85977766D01*
X133222203Y-85852690D01*
X133322011Y-85751641D01*
X133446245Y-85682803D01*
X133584840Y-85651755D01*
X133726568Y-85661011D01*
G37*
%TD.AperFunction*%
%TA.AperFunction,NonConductor*%
G36*
X188434695Y-87345733D02*
G01*
X188561276Y-87410153D01*
X188586973Y-87429519D01*
X188602069Y-87441679D01*
X188602077Y-87441685D01*
X188613775Y-87451107D01*
X188626525Y-87459059D01*
X188626527Y-87459060D01*
X188895042Y-87626521D01*
X189003633Y-87718067D01*
X189082035Y-87836497D01*
X189123894Y-87972219D01*
X189125821Y-88114236D01*
X189087659Y-88251044D01*
X189012499Y-88371558D01*
X188983828Y-88402774D01*
X180553749Y-96832853D01*
X180440048Y-96917969D01*
X180306973Y-96967603D01*
X180200903Y-96979007D01*
X176549083Y-96979007D01*
X176408498Y-96958794D01*
X176279303Y-96899793D01*
X176171964Y-96806783D01*
X176095177Y-96687299D01*
X176055162Y-96551022D01*
X176055162Y-96408992D01*
X176095177Y-96272715D01*
X176171964Y-96153231D01*
X176196237Y-96127161D01*
X184532710Y-87790688D01*
X184646411Y-87705572D01*
X184779486Y-87655938D01*
X184794614Y-87652891D01*
X184795997Y-87652635D01*
X184814145Y-87649271D01*
X185122830Y-87554307D01*
X185215145Y-87513783D01*
X185351995Y-87475785D01*
X185494010Y-87477881D01*
X185606673Y-87509684D01*
X185749164Y-87568706D01*
X185749170Y-87568708D01*
X185762448Y-87574208D01*
X185776276Y-87578147D01*
X186059229Y-87658749D01*
X186059236Y-87658751D01*
X186073055Y-87662687D01*
X186087236Y-87665009D01*
X186087244Y-87665011D01*
X186377577Y-87712555D01*
X186377586Y-87712556D01*
X186391772Y-87714879D01*
X186406134Y-87715556D01*
X186406141Y-87715557D01*
X186544947Y-87722102D01*
X186714376Y-87730092D01*
X186927587Y-87715557D01*
X187022234Y-87709105D01*
X187022238Y-87709104D01*
X187036591Y-87708126D01*
X187354145Y-87649271D01*
X187662830Y-87554307D01*
X187958555Y-87424492D01*
X187970949Y-87417250D01*
X187970956Y-87417246D01*
X188022200Y-87387301D01*
X188153779Y-87333824D01*
X188295093Y-87319584D01*
X188434695Y-87345733D01*
G37*
%TD.AperFunction*%
%TA.AperFunction,NonConductor*%
G36*
X54419578Y-22312238D02*
G01*
X54532244Y-22344042D01*
X54657694Y-22396006D01*
X54657709Y-22396011D01*
X54670977Y-22401507D01*
X54684793Y-22405442D01*
X54684797Y-22405444D01*
X54973307Y-22487628D01*
X54973312Y-22487629D01*
X54987129Y-22491565D01*
X55198520Y-22526182D01*
X55297344Y-22542365D01*
X55297347Y-22542365D01*
X55311537Y-22544689D01*
X55325896Y-22545366D01*
X55325904Y-22545367D01*
X55374006Y-22547635D01*
X55513483Y-22574448D01*
X55639755Y-22639470D01*
X55742594Y-22737433D01*
X55813667Y-22860401D01*
X55847218Y-22998412D01*
X55849500Y-23046081D01*
X55849500Y-93553363D01*
X55848432Y-93585997D01*
X55844565Y-93645000D01*
X55849500Y-93720298D01*
X55849500Y-93720310D01*
X55864287Y-93945920D01*
X55867473Y-93961936D01*
X55867474Y-93961945D01*
X55896618Y-94108458D01*
X55896619Y-94108461D01*
X55923120Y-94241691D01*
X56020055Y-94527252D01*
X56027275Y-94541893D01*
X56027278Y-94541900D01*
X56091443Y-94672013D01*
X56153434Y-94797718D01*
X56320974Y-95048461D01*
X56331748Y-95060747D01*
X56331754Y-95060754D01*
X56458694Y-95205500D01*
X56509036Y-95262904D01*
X56509046Y-95262914D01*
X56519811Y-95275189D01*
X56564285Y-95314191D01*
X56588099Y-95336497D01*
X58018494Y-96766892D01*
X58040814Y-96790722D01*
X58079811Y-96835189D01*
X58136550Y-96884948D01*
X58136553Y-96884951D01*
X58306539Y-97034026D01*
X58479394Y-97149523D01*
X58557282Y-97201566D01*
X58571921Y-97208785D01*
X58571926Y-97208788D01*
X58813100Y-97327722D01*
X58813107Y-97327725D01*
X58827748Y-97334945D01*
X59113309Y-97431880D01*
X59129327Y-97435066D01*
X59129330Y-97435067D01*
X59393062Y-97487527D01*
X59393065Y-97487527D01*
X59409080Y-97490713D01*
X59461090Y-97494122D01*
X59634669Y-97505499D01*
X59634685Y-97505500D01*
X59634692Y-97505500D01*
X59634716Y-97505501D01*
X59693704Y-97509367D01*
X59693705Y-97509367D01*
X59710000Y-97510435D01*
X59726295Y-97509367D01*
X59726296Y-97509367D01*
X59769003Y-97506568D01*
X59801637Y-97505500D01*
X60969061Y-97505500D01*
X61109646Y-97525713D01*
X61238841Y-97584714D01*
X61346180Y-97677724D01*
X61422967Y-97797208D01*
X61462982Y-97933485D01*
X61464763Y-97949143D01*
X61464956Y-97956501D01*
X61513712Y-98299076D01*
X61601519Y-98633777D01*
X61727214Y-98956167D01*
X61889130Y-99261974D01*
X61897271Y-99273819D01*
X62074295Y-99531390D01*
X62085122Y-99547144D01*
X62094569Y-99557974D01*
X62094575Y-99557981D01*
X62297842Y-99790990D01*
X62312592Y-99807898D01*
X62323227Y-99817575D01*
X62557893Y-100031105D01*
X62557898Y-100031109D01*
X62568524Y-100040778D01*
X62580191Y-100049162D01*
X62580194Y-100049164D01*
X62614262Y-100073644D01*
X62849527Y-100242699D01*
X62862068Y-100249679D01*
X62862077Y-100249685D01*
X63062968Y-100361499D01*
X63151876Y-100410985D01*
X63165157Y-100416486D01*
X63458274Y-100537899D01*
X63458281Y-100537901D01*
X63471563Y-100543403D01*
X63485387Y-100547341D01*
X63485393Y-100547343D01*
X63790527Y-100634263D01*
X63790530Y-100634264D01*
X63804352Y-100638201D01*
X64145831Y-100694120D01*
X64160176Y-100694796D01*
X64160181Y-100694797D01*
X64284556Y-100700662D01*
X64491474Y-100710420D01*
X64730573Y-100694120D01*
X64822343Y-100687864D01*
X64822347Y-100687863D01*
X64836700Y-100686885D01*
X65176933Y-100623827D01*
X65507663Y-100522081D01*
X65748215Y-100416486D01*
X65811345Y-100388774D01*
X65811349Y-100388772D01*
X65824507Y-100382996D01*
X66011603Y-100273666D01*
X66143181Y-100220189D01*
X66263362Y-100205500D01*
X72153178Y-100205500D01*
X72293763Y-100225713D01*
X72395860Y-100268488D01*
X72639317Y-100403995D01*
X72639321Y-100403997D01*
X72651876Y-100410985D01*
X72665157Y-100416486D01*
X72958274Y-100537899D01*
X72958281Y-100537901D01*
X72971563Y-100543403D01*
X72985387Y-100547341D01*
X72985393Y-100547343D01*
X73290527Y-100634263D01*
X73290530Y-100634264D01*
X73304352Y-100638201D01*
X73645831Y-100694120D01*
X73660176Y-100694796D01*
X73660181Y-100694797D01*
X73784556Y-100700662D01*
X73991474Y-100710420D01*
X74230573Y-100694120D01*
X74322343Y-100687864D01*
X74322347Y-100687863D01*
X74336700Y-100686885D01*
X74676933Y-100623827D01*
X75007663Y-100522081D01*
X75248215Y-100416486D01*
X75311345Y-100388774D01*
X75311349Y-100388772D01*
X75324507Y-100382996D01*
X75511603Y-100273666D01*
X75643181Y-100220189D01*
X75763362Y-100205500D01*
X93162885Y-100205500D01*
X93178555Y-100205746D01*
X93288698Y-100209207D01*
X93398427Y-100198834D01*
X93414022Y-100197608D01*
X93492883Y-100192647D01*
X93524015Y-100190688D01*
X93539601Y-100187715D01*
X93586130Y-100181092D01*
X93586217Y-100181084D01*
X93586327Y-100181074D01*
X93586330Y-100181074D01*
X93601938Y-100179598D01*
X93617240Y-100176178D01*
X93617244Y-100176177D01*
X93709494Y-100155557D01*
X93724841Y-100152379D01*
X93817670Y-100134671D01*
X93817678Y-100134669D01*
X93833079Y-100131731D01*
X93848157Y-100126832D01*
X93893529Y-100114419D01*
X93893701Y-100114381D01*
X93893706Y-100114379D01*
X93908996Y-100110962D01*
X94012659Y-100073642D01*
X94027479Y-100068567D01*
X94117404Y-100039348D01*
X94117405Y-100039348D01*
X94132315Y-100034503D01*
X94146677Y-100027745D01*
X94190088Y-100009763D01*
X94205032Y-100004383D01*
X94218996Y-99997268D01*
X94219003Y-99997265D01*
X94303229Y-99954350D01*
X94317300Y-99947457D01*
X94402807Y-99907220D01*
X94402819Y-99907214D01*
X94417007Y-99900537D01*
X94430400Y-99892038D01*
X94471240Y-99868743D01*
X94471400Y-99868662D01*
X94471404Y-99868660D01*
X94485375Y-99861541D01*
X94498358Y-99852718D01*
X94576524Y-99799597D01*
X94589626Y-99790990D01*
X94611850Y-99776886D01*
X94682663Y-99731947D01*
X94694889Y-99721833D01*
X94732474Y-99693614D01*
X94732623Y-99693513D01*
X94732638Y-99693501D01*
X94745605Y-99684689D01*
X94757368Y-99674318D01*
X94757375Y-99674313D01*
X94828282Y-99611800D01*
X94840203Y-99601618D01*
X94925094Y-99531390D01*
X95000547Y-99451041D01*
X95011455Y-99439786D01*
X97378096Y-97073145D01*
X97412865Y-97041507D01*
X97413014Y-97041384D01*
X97413018Y-97041380D01*
X97425094Y-97031390D01*
X97500547Y-96951041D01*
X97511455Y-96939786D01*
X99344297Y-95106944D01*
X99355553Y-95096035D01*
X99424476Y-95031312D01*
X99424477Y-95031310D01*
X99435901Y-95020583D01*
X99506129Y-94935692D01*
X99516311Y-94923771D01*
X99578824Y-94852864D01*
X99578829Y-94852857D01*
X99589200Y-94841094D01*
X99598012Y-94828127D01*
X99598024Y-94828112D01*
X99598125Y-94827963D01*
X99626344Y-94790378D01*
X99626463Y-94790234D01*
X99626464Y-94790232D01*
X99636458Y-94778152D01*
X99695501Y-94685115D01*
X99704108Y-94672013D01*
X99757232Y-94593844D01*
X99757240Y-94593830D01*
X99766052Y-94580864D01*
X99773170Y-94566894D01*
X99773177Y-94566882D01*
X99773260Y-94566718D01*
X99796541Y-94525902D01*
X99796639Y-94525748D01*
X99796646Y-94525735D01*
X99805048Y-94512496D01*
X99816478Y-94488206D01*
X99851975Y-94412773D01*
X99858869Y-94398699D01*
X99908893Y-94300521D01*
X99914263Y-94285607D01*
X99932259Y-94242160D01*
X99932339Y-94241990D01*
X99932341Y-94241984D01*
X99939014Y-94227804D01*
X99973072Y-94122984D01*
X99978148Y-94108157D01*
X100015473Y-94004485D01*
X100018931Y-93989016D01*
X100031344Y-93943641D01*
X100031395Y-93943484D01*
X100036242Y-93928568D01*
X100039180Y-93913167D01*
X100039182Y-93913159D01*
X100056890Y-93820330D01*
X100060068Y-93804983D01*
X100080688Y-93712733D01*
X100080689Y-93712729D01*
X100084109Y-93697427D01*
X100085603Y-93681619D01*
X100092226Y-93635090D01*
X100092259Y-93634915D01*
X100095199Y-93619504D01*
X100102119Y-93509511D01*
X100103345Y-93493916D01*
X100113718Y-93384187D01*
X100110257Y-93274044D01*
X100110011Y-93258374D01*
X100110011Y-88266941D01*
X100112225Y-88219983D01*
X100112243Y-88219797D01*
X100112243Y-88219788D01*
X100113718Y-88204187D01*
X100112455Y-88163977D01*
X100110257Y-88094047D01*
X100110011Y-88078374D01*
X100110011Y-86024989D01*
X100130224Y-85884404D01*
X100189225Y-85755209D01*
X100282235Y-85647870D01*
X100401719Y-85571083D01*
X100537996Y-85531068D01*
X100609011Y-85525989D01*
X100637251Y-85525989D01*
X100777836Y-85546202D01*
X100907031Y-85605203D01*
X100928434Y-85619756D01*
X101099527Y-85742699D01*
X101112068Y-85749679D01*
X101112077Y-85749685D01*
X101248838Y-85825805D01*
X101401876Y-85910985D01*
X101415157Y-85916486D01*
X101708274Y-86037899D01*
X101708281Y-86037901D01*
X101721563Y-86043403D01*
X101735387Y-86047341D01*
X101735393Y-86047343D01*
X102040527Y-86134263D01*
X102040530Y-86134264D01*
X102054352Y-86138201D01*
X102395831Y-86194120D01*
X102410176Y-86194796D01*
X102410181Y-86194797D01*
X102534556Y-86200662D01*
X102741474Y-86210420D01*
X102980573Y-86194120D01*
X103072343Y-86187864D01*
X103072347Y-86187863D01*
X103086700Y-86186885D01*
X103426933Y-86123827D01*
X103757663Y-86022081D01*
X103998215Y-85916486D01*
X104061345Y-85888774D01*
X104061349Y-85888772D01*
X104074507Y-85882996D01*
X104321791Y-85738495D01*
X104453364Y-85685021D01*
X104594679Y-85670780D01*
X104734281Y-85696929D01*
X104860861Y-85761349D01*
X104964165Y-85858821D01*
X105038459Y-85988069D01*
X105114369Y-86182770D01*
X105121093Y-86195469D01*
X105121096Y-86195476D01*
X105265493Y-86468193D01*
X105262613Y-86469718D01*
X105306955Y-86573891D01*
X105323511Y-86714953D01*
X105299654Y-86854966D01*
X105277844Y-86910903D01*
X105142700Y-87204051D01*
X105092865Y-87358804D01*
X105047198Y-87500616D01*
X105041043Y-87519728D01*
X105038188Y-87534487D01*
X105038187Y-87534489D01*
X104980901Y-87830578D01*
X104980900Y-87830586D01*
X104978047Y-87845332D01*
X104954624Y-88176145D01*
X104971114Y-88507376D01*
X105027277Y-88834227D01*
X105031580Y-88848614D01*
X105031581Y-88848620D01*
X105051888Y-88916520D01*
X105122300Y-89151964D01*
X105254807Y-89455983D01*
X105262423Y-89468938D01*
X105382536Y-89673256D01*
X105422879Y-89741882D01*
X105624080Y-90005518D01*
X105855496Y-90243073D01*
X105867188Y-90252491D01*
X105867193Y-90252495D01*
X106102068Y-90441678D01*
X106102074Y-90441682D01*
X106113775Y-90451107D01*
X106126525Y-90459059D01*
X106126527Y-90459060D01*
X106131934Y-90462432D01*
X106395176Y-90626604D01*
X106695623Y-90767024D01*
X107010763Y-90870332D01*
X107336032Y-90935032D01*
X107351009Y-90936171D01*
X107351014Y-90936172D01*
X107524094Y-90949338D01*
X107666718Y-90960187D01*
X107681718Y-90959519D01*
X107681720Y-90959519D01*
X107745023Y-90956700D01*
X107998031Y-90945432D01*
X108012850Y-90942965D01*
X108012854Y-90942965D01*
X108310345Y-90893449D01*
X108310347Y-90893449D01*
X108325172Y-90890981D01*
X108643401Y-90797622D01*
X108744751Y-90754079D01*
X108759676Y-90747667D01*
X108896823Y-90710744D01*
X109038816Y-90713956D01*
X109167926Y-90754079D01*
X109195623Y-90767024D01*
X109510763Y-90870332D01*
X109836032Y-90935032D01*
X109851009Y-90936171D01*
X109851014Y-90936172D01*
X110024094Y-90949338D01*
X110166718Y-90960187D01*
X110181718Y-90959519D01*
X110181720Y-90959519D01*
X110245023Y-90956700D01*
X110498031Y-90945432D01*
X110512850Y-90942965D01*
X110512854Y-90942965D01*
X110810345Y-90893449D01*
X110810347Y-90893449D01*
X110825172Y-90890981D01*
X111143401Y-90797622D01*
X111259675Y-90747667D01*
X111434293Y-90672646D01*
X111434298Y-90672644D01*
X111448111Y-90666709D01*
X111734885Y-90500137D01*
X111788316Y-90459801D01*
X111912693Y-90391230D01*
X112051354Y-90360478D01*
X112193062Y-90370036D01*
X112326337Y-90419131D01*
X112441814Y-90505212D01*
X130789755Y-108853154D01*
X130874871Y-108966855D01*
X130924505Y-109099930D01*
X130934638Y-109241598D01*
X130904447Y-109380383D01*
X130836379Y-109505040D01*
X130735949Y-109605470D01*
X130611292Y-109673538D01*
X130472507Y-109703729D01*
X130436909Y-109705000D01*
X24209000Y-109705000D01*
X24068415Y-109684787D01*
X23939220Y-109625786D01*
X23831881Y-109532776D01*
X23755094Y-109413292D01*
X23715079Y-109277015D01*
X23710000Y-109206000D01*
X23710000Y-94826191D01*
X25175000Y-94826191D01*
X48575000Y-94826191D01*
X48575000Y-38573810D01*
X25175000Y-38573810D01*
X25175000Y-94826191D01*
X23710000Y-94826191D01*
X23710000Y-22925491D01*
X23730213Y-22784906D01*
X23789214Y-22655711D01*
X23882224Y-22548372D01*
X24001708Y-22471585D01*
X24137985Y-22431570D01*
X24280015Y-22431570D01*
X24345698Y-22445580D01*
X24507129Y-22491565D01*
X24718520Y-22526182D01*
X24817344Y-22542365D01*
X24817347Y-22542365D01*
X24831537Y-22544689D01*
X24845896Y-22545366D01*
X24845904Y-22545367D01*
X25145538Y-22559497D01*
X25145543Y-22559497D01*
X25159900Y-22560174D01*
X25387048Y-22544689D01*
X25473539Y-22538793D01*
X25473542Y-22538793D01*
X25487868Y-22537816D01*
X25655054Y-22506830D01*
X25796953Y-22480531D01*
X25796961Y-22480529D01*
X25811092Y-22477910D01*
X26125289Y-22381250D01*
X26200712Y-22348142D01*
X26337564Y-22310142D01*
X26479578Y-22312238D01*
X26592244Y-22344042D01*
X26717694Y-22396006D01*
X26717709Y-22396011D01*
X26730977Y-22401507D01*
X26744793Y-22405442D01*
X26744797Y-22405444D01*
X27033307Y-22487628D01*
X27033312Y-22487629D01*
X27047129Y-22491565D01*
X27258520Y-22526182D01*
X27357344Y-22542365D01*
X27357347Y-22542365D01*
X27371537Y-22544689D01*
X27385896Y-22545366D01*
X27385904Y-22545367D01*
X27685538Y-22559497D01*
X27685543Y-22559497D01*
X27699900Y-22560174D01*
X27927048Y-22544689D01*
X28013539Y-22538793D01*
X28013542Y-22538793D01*
X28027868Y-22537816D01*
X28195054Y-22506830D01*
X28336953Y-22480531D01*
X28336961Y-22480529D01*
X28351092Y-22477910D01*
X28665289Y-22381250D01*
X28740712Y-22348142D01*
X28877564Y-22310142D01*
X29019578Y-22312238D01*
X29132244Y-22344042D01*
X29257694Y-22396006D01*
X29257709Y-22396011D01*
X29270977Y-22401507D01*
X29284793Y-22405442D01*
X29284797Y-22405444D01*
X29573307Y-22487628D01*
X29573312Y-22487629D01*
X29587129Y-22491565D01*
X29798520Y-22526182D01*
X29897344Y-22542365D01*
X29897347Y-22542365D01*
X29911537Y-22544689D01*
X29925896Y-22545366D01*
X29925904Y-22545367D01*
X30225538Y-22559497D01*
X30225543Y-22559497D01*
X30239900Y-22560174D01*
X30467048Y-22544689D01*
X30553539Y-22538793D01*
X30553542Y-22538793D01*
X30567868Y-22537816D01*
X30735054Y-22506830D01*
X30876953Y-22480531D01*
X30876961Y-22480529D01*
X30891092Y-22477910D01*
X31205289Y-22381250D01*
X31280712Y-22348142D01*
X31417564Y-22310142D01*
X31559578Y-22312238D01*
X31672244Y-22344042D01*
X31797694Y-22396006D01*
X31797709Y-22396011D01*
X31810977Y-22401507D01*
X31824793Y-22405442D01*
X31824797Y-22405444D01*
X32113307Y-22487628D01*
X32113312Y-22487629D01*
X32127129Y-22491565D01*
X32338520Y-22526182D01*
X32437344Y-22542365D01*
X32437347Y-22542365D01*
X32451537Y-22544689D01*
X32465896Y-22545366D01*
X32465904Y-22545367D01*
X32765538Y-22559497D01*
X32765543Y-22559497D01*
X32779900Y-22560174D01*
X33007048Y-22544689D01*
X33093539Y-22538793D01*
X33093542Y-22538793D01*
X33107868Y-22537816D01*
X33275054Y-22506830D01*
X33416953Y-22480531D01*
X33416961Y-22480529D01*
X33431092Y-22477910D01*
X33745289Y-22381250D01*
X33820712Y-22348142D01*
X33957564Y-22310142D01*
X34099578Y-22312238D01*
X34212244Y-22344042D01*
X34337694Y-22396006D01*
X34337709Y-22396011D01*
X34350977Y-22401507D01*
X34364793Y-22405442D01*
X34364797Y-22405444D01*
X34653307Y-22487628D01*
X34653312Y-22487629D01*
X34667129Y-22491565D01*
X34878520Y-22526182D01*
X34977344Y-22542365D01*
X34977347Y-22542365D01*
X34991537Y-22544689D01*
X35005896Y-22545366D01*
X35005904Y-22545367D01*
X35305538Y-22559497D01*
X35305543Y-22559497D01*
X35319900Y-22560174D01*
X35547048Y-22544689D01*
X35633539Y-22538793D01*
X35633542Y-22538793D01*
X35647868Y-22537816D01*
X35815054Y-22506830D01*
X35956953Y-22480531D01*
X35956961Y-22480529D01*
X35971092Y-22477910D01*
X36285289Y-22381250D01*
X36360712Y-22348142D01*
X36497564Y-22310142D01*
X36639578Y-22312238D01*
X36752244Y-22344042D01*
X36877694Y-22396006D01*
X36877709Y-22396011D01*
X36890977Y-22401507D01*
X36904793Y-22405442D01*
X36904797Y-22405444D01*
X37193307Y-22487628D01*
X37193312Y-22487629D01*
X37207129Y-22491565D01*
X37418520Y-22526182D01*
X37517344Y-22542365D01*
X37517347Y-22542365D01*
X37531537Y-22544689D01*
X37545896Y-22545366D01*
X37545904Y-22545367D01*
X37845538Y-22559497D01*
X37845543Y-22559497D01*
X37859900Y-22560174D01*
X38087048Y-22544689D01*
X38173539Y-22538793D01*
X38173542Y-22538793D01*
X38187868Y-22537816D01*
X38355054Y-22506830D01*
X38496953Y-22480531D01*
X38496961Y-22480529D01*
X38511092Y-22477910D01*
X38825289Y-22381250D01*
X38900712Y-22348142D01*
X39037564Y-22310142D01*
X39179578Y-22312238D01*
X39292244Y-22344042D01*
X39417694Y-22396006D01*
X39417709Y-22396011D01*
X39430977Y-22401507D01*
X39444793Y-22405442D01*
X39444797Y-22405444D01*
X39733307Y-22487628D01*
X39733312Y-22487629D01*
X39747129Y-22491565D01*
X39958520Y-22526182D01*
X40057344Y-22542365D01*
X40057347Y-22542365D01*
X40071537Y-22544689D01*
X40085896Y-22545366D01*
X40085904Y-22545367D01*
X40385538Y-22559497D01*
X40385543Y-22559497D01*
X40399900Y-22560174D01*
X40627048Y-22544689D01*
X40713539Y-22538793D01*
X40713542Y-22538793D01*
X40727868Y-22537816D01*
X40895054Y-22506830D01*
X41036953Y-22480531D01*
X41036961Y-22480529D01*
X41051092Y-22477910D01*
X41365289Y-22381250D01*
X41440712Y-22348142D01*
X41577564Y-22310142D01*
X41719578Y-22312238D01*
X41832244Y-22344042D01*
X41957694Y-22396006D01*
X41957709Y-22396011D01*
X41970977Y-22401507D01*
X41984793Y-22405442D01*
X41984797Y-22405444D01*
X42273307Y-22487628D01*
X42273312Y-22487629D01*
X42287129Y-22491565D01*
X42498520Y-22526182D01*
X42597344Y-22542365D01*
X42597347Y-22542365D01*
X42611537Y-22544689D01*
X42625896Y-22545366D01*
X42625904Y-22545367D01*
X42925538Y-22559497D01*
X42925543Y-22559497D01*
X42939900Y-22560174D01*
X43167048Y-22544689D01*
X43253539Y-22538793D01*
X43253542Y-22538793D01*
X43267868Y-22537816D01*
X43435054Y-22506830D01*
X43576953Y-22480531D01*
X43576961Y-22480529D01*
X43591092Y-22477910D01*
X43905289Y-22381250D01*
X43980712Y-22348142D01*
X44117564Y-22310142D01*
X44259578Y-22312238D01*
X44372244Y-22344042D01*
X44497694Y-22396006D01*
X44497709Y-22396011D01*
X44510977Y-22401507D01*
X44524793Y-22405442D01*
X44524797Y-22405444D01*
X44813307Y-22487628D01*
X44813312Y-22487629D01*
X44827129Y-22491565D01*
X45038520Y-22526182D01*
X45137344Y-22542365D01*
X45137347Y-22542365D01*
X45151537Y-22544689D01*
X45165896Y-22545366D01*
X45165904Y-22545367D01*
X45465538Y-22559497D01*
X45465543Y-22559497D01*
X45479900Y-22560174D01*
X45707048Y-22544689D01*
X45793539Y-22538793D01*
X45793542Y-22538793D01*
X45807868Y-22537816D01*
X45975054Y-22506830D01*
X46116953Y-22480531D01*
X46116961Y-22480529D01*
X46131092Y-22477910D01*
X46445289Y-22381250D01*
X46520712Y-22348142D01*
X46657564Y-22310142D01*
X46799578Y-22312238D01*
X46912244Y-22344042D01*
X47037694Y-22396006D01*
X47037709Y-22396011D01*
X47050977Y-22401507D01*
X47064793Y-22405442D01*
X47064797Y-22405444D01*
X47353307Y-22487628D01*
X47353312Y-22487629D01*
X47367129Y-22491565D01*
X47578520Y-22526182D01*
X47677344Y-22542365D01*
X47677347Y-22542365D01*
X47691537Y-22544689D01*
X47705896Y-22545366D01*
X47705904Y-22545367D01*
X48005538Y-22559497D01*
X48005543Y-22559497D01*
X48019900Y-22560174D01*
X48247048Y-22544689D01*
X48333539Y-22538793D01*
X48333542Y-22538793D01*
X48347868Y-22537816D01*
X48515054Y-22506830D01*
X48656953Y-22480531D01*
X48656961Y-22480529D01*
X48671092Y-22477910D01*
X48985289Y-22381250D01*
X49060712Y-22348142D01*
X49197564Y-22310142D01*
X49339578Y-22312238D01*
X49452244Y-22344042D01*
X49577694Y-22396006D01*
X49577709Y-22396011D01*
X49590977Y-22401507D01*
X49604793Y-22405442D01*
X49604797Y-22405444D01*
X49893307Y-22487628D01*
X49893312Y-22487629D01*
X49907129Y-22491565D01*
X50118520Y-22526182D01*
X50217344Y-22542365D01*
X50217347Y-22542365D01*
X50231537Y-22544689D01*
X50245896Y-22545366D01*
X50245904Y-22545367D01*
X50545538Y-22559497D01*
X50545543Y-22559497D01*
X50559900Y-22560174D01*
X50787048Y-22544689D01*
X50873539Y-22538793D01*
X50873542Y-22538793D01*
X50887868Y-22537816D01*
X51055054Y-22506830D01*
X51196953Y-22480531D01*
X51196961Y-22480529D01*
X51211092Y-22477910D01*
X51525289Y-22381250D01*
X51600712Y-22348142D01*
X51737564Y-22310142D01*
X51879578Y-22312238D01*
X51992244Y-22344042D01*
X52117694Y-22396006D01*
X52117709Y-22396011D01*
X52130977Y-22401507D01*
X52144793Y-22405442D01*
X52144797Y-22405444D01*
X52433307Y-22487628D01*
X52433312Y-22487629D01*
X52447129Y-22491565D01*
X52658520Y-22526182D01*
X52757344Y-22542365D01*
X52757347Y-22542365D01*
X52771537Y-22544689D01*
X52785896Y-22545366D01*
X52785904Y-22545367D01*
X53085538Y-22559497D01*
X53085543Y-22559497D01*
X53099900Y-22560174D01*
X53327048Y-22544689D01*
X53413539Y-22538793D01*
X53413542Y-22538793D01*
X53427868Y-22537816D01*
X53595054Y-22506830D01*
X53736953Y-22480531D01*
X53736961Y-22480529D01*
X53751092Y-22477910D01*
X54065289Y-22381250D01*
X54140712Y-22348142D01*
X54277564Y-22310142D01*
X54419578Y-22312238D01*
G37*
%TD.AperFunction*%
%TA.AperFunction,NonConductor*%
G36*
X219043763Y-86225713D02*
G01*
X219145860Y-86268488D01*
X219389317Y-86403995D01*
X219389321Y-86403997D01*
X219401876Y-86410985D01*
X219415157Y-86416486D01*
X219708274Y-86537899D01*
X219708281Y-86537901D01*
X219721563Y-86543403D01*
X219735387Y-86547341D01*
X219735393Y-86547343D01*
X220040527Y-86634263D01*
X220040530Y-86634264D01*
X220054352Y-86638201D01*
X220395831Y-86694120D01*
X220410178Y-86694797D01*
X220410182Y-86694797D01*
X220537760Y-86700813D01*
X220734507Y-86710091D01*
X220873982Y-86736904D01*
X221000254Y-86801925D01*
X221103093Y-86899888D01*
X221174167Y-87022856D01*
X221207718Y-87160867D01*
X221210000Y-87208537D01*
X221210000Y-109206000D01*
X221189787Y-109346585D01*
X221130786Y-109475780D01*
X221037776Y-109583119D01*
X220918292Y-109659906D01*
X220782015Y-109699921D01*
X220711000Y-109705000D01*
X193173090Y-109705000D01*
X193032505Y-109684787D01*
X192903310Y-109625786D01*
X192795971Y-109532776D01*
X192719184Y-109413292D01*
X192679169Y-109277015D01*
X192679169Y-109134985D01*
X192719184Y-108998708D01*
X192795971Y-108879224D01*
X192820244Y-108853154D01*
X213832710Y-87840688D01*
X213946411Y-87755572D01*
X214079486Y-87705938D01*
X214094614Y-87702891D01*
X214095997Y-87702635D01*
X214114145Y-87699271D01*
X214422830Y-87604307D01*
X214515145Y-87563783D01*
X214651995Y-87525785D01*
X214794010Y-87527881D01*
X214906673Y-87559684D01*
X215049164Y-87618706D01*
X215049170Y-87618708D01*
X215062448Y-87624208D01*
X215076276Y-87628147D01*
X215359229Y-87708749D01*
X215359236Y-87708751D01*
X215373055Y-87712687D01*
X215387236Y-87715009D01*
X215387244Y-87715011D01*
X215677577Y-87762555D01*
X215677586Y-87762556D01*
X215691772Y-87764879D01*
X215706134Y-87765556D01*
X215706141Y-87765557D01*
X215844947Y-87772102D01*
X216014376Y-87780092D01*
X216237533Y-87764879D01*
X216322234Y-87759105D01*
X216322238Y-87759104D01*
X216336591Y-87758126D01*
X216654145Y-87699271D01*
X216962830Y-87604307D01*
X217258555Y-87474492D01*
X217270949Y-87467250D01*
X217270956Y-87467246D01*
X217524984Y-87318804D01*
X217524987Y-87318802D01*
X217537399Y-87311549D01*
X217795668Y-87117636D01*
X218029936Y-86895323D01*
X218237101Y-86647557D01*
X218379657Y-86430536D01*
X218473732Y-86324134D01*
X218593977Y-86248545D01*
X218730647Y-86209894D01*
X218796723Y-86205500D01*
X218903178Y-86205500D01*
X219043763Y-86225713D01*
G37*
%TD.AperFunction*%
M02*
