%TF.GenerationSoftware,KiCad,Pcbnew,6.0.1-79c1e3a40b~116~ubuntu21.10.1*%
%TF.CreationDate,2022-02-14T17:50:43+01:00*%
%TF.ProjectId,Activation_Module,41637469-7661-4746-996f-6e5f4d6f6475,v0.3*%
%TF.SameCoordinates,Original*%
%TF.FileFunction,Copper,L2,Bot*%
%TF.FilePolarity,Positive*%
%FSLAX46Y46*%
G04 Gerber Fmt 4.6, Leading zero omitted, Abs format (unit mm)*
G04 Created by KiCad (PCBNEW 6.0.1-79c1e3a40b~116~ubuntu21.10.1) date 2022-02-14 17:50:43*
%MOMM*%
%LPD*%
G01*
G04 APERTURE LIST*
%TA.AperFunction,ComponentPad*%
%ADD10R,1.600000X1.600000*%
%TD*%
%TA.AperFunction,ComponentPad*%
%ADD11O,1.600000X1.600000*%
%TD*%
%TA.AperFunction,ComponentPad*%
%ADD12R,1.800000X1.800000*%
%TD*%
%TA.AperFunction,ComponentPad*%
%ADD13C,1.800000*%
%TD*%
%TA.AperFunction,ComponentPad*%
%ADD14C,1.600000*%
%TD*%
%TA.AperFunction,ComponentPad*%
%ADD15R,1.700000X1.700000*%
%TD*%
%TA.AperFunction,ComponentPad*%
%ADD16O,1.700000X1.700000*%
%TD*%
%TA.AperFunction,ComponentPad*%
%ADD17R,1.350000X1.350000*%
%TD*%
%TA.AperFunction,ComponentPad*%
%ADD18O,1.350000X1.350000*%
%TD*%
%TA.AperFunction,ViaPad*%
%ADD19C,0.800000*%
%TD*%
%TA.AperFunction,Conductor*%
%ADD20C,0.300000*%
%TD*%
%TA.AperFunction,Conductor*%
%ADD21C,0.600000*%
%TD*%
G04 APERTURE END LIST*
D10*
%TO.P,U19,1*%
%TO.N,Net-(U18-Pad3)*%
X60380000Y-40295000D03*
D11*
%TO.P,U19,2*%
%TO.N,Net-(J1-Pad4)*%
X60380000Y-42835000D03*
%TO.P,U19,3*%
%TO.N,/WE_F*%
X60380000Y-45375000D03*
%TO.P,U19,4*%
%TO.N,Net-(U18-Pad3)*%
X60380000Y-47915000D03*
%TO.P,U19,5*%
%TO.N,Net-(J1-Pad3)*%
X60380000Y-50455000D03*
%TO.P,U19,6*%
%TO.N,/WE_R*%
X60380000Y-52995000D03*
%TO.P,U19,7,GND*%
%TO.N,+5V*%
X60380000Y-55535000D03*
%TO.P,U19,8*%
%TO.N,N/C*%
X68000000Y-55535000D03*
%TO.P,U19,9*%
X68000000Y-52995000D03*
%TO.P,U19,10*%
X68000000Y-50455000D03*
%TO.P,U19,11*%
X68000000Y-47915000D03*
%TO.P,U19,12*%
X68000000Y-45375000D03*
%TO.P,U19,13*%
X68000000Y-42835000D03*
%TO.P,U19,14,VCC*%
%TO.N,GND*%
X68000000Y-40295000D03*
%TD*%
D10*
%TO.P,U6,1*%
%TO.N,Net-(U4-Pad3)*%
X163980000Y-68545000D03*
D11*
%TO.P,U6,2*%
%TO.N,Net-(U4-Pad6)*%
X163980000Y-66005000D03*
%TO.P,U6,3*%
%TO.N,Net-(U6-Pad3)*%
X163980000Y-63465000D03*
%TO.P,U6,4*%
%TO.N,Net-(U5-Pad8)*%
X163980000Y-60925000D03*
%TO.P,U6,5*%
%TO.N,Net-(U5-Pad11)*%
X163980000Y-58385000D03*
%TO.P,U6,6*%
%TO.N,Net-(U6-Pad10)*%
X163980000Y-55845000D03*
%TO.P,U6,7,GND*%
%TO.N,GND*%
X163980000Y-53305000D03*
%TO.P,U6,8*%
%TO.N,Net-(U22-Pad1)*%
X156360000Y-53305000D03*
%TO.P,U6,9*%
%TO.N,Net-(U6-Pad9)*%
X156360000Y-55845000D03*
%TO.P,U6,10*%
%TO.N,Net-(U6-Pad10)*%
X156360000Y-58385000D03*
%TO.P,U6,11*%
%TO.N,Net-(U18-Pad1)*%
X156360000Y-60925000D03*
%TO.P,U6,12*%
%TO.N,/~{WE1}*%
X156360000Y-63465000D03*
%TO.P,U6,13*%
%TO.N,/~{WE2}*%
X156360000Y-66005000D03*
%TO.P,U6,14,VCC*%
%TO.N,+5V*%
X156360000Y-68545000D03*
%TD*%
D12*
%TO.P,D3,1,K*%
%TO.N,/~{RE1}*%
X95720000Y-50745000D03*
D13*
%TO.P,D3,2,A*%
%TO.N,Net-(D3-Pad2)*%
X95720000Y-53285000D03*
%TD*%
D10*
%TO.P,U5,1*%
%TO.N,Net-(R1-Pad2)*%
X174580000Y-79920000D03*
D11*
%TO.P,U5,2*%
%TO.N,/WE2:3*%
X174580000Y-82460000D03*
%TO.P,U5,3*%
%TO.N,Net-(U5-Pad3)*%
X174580000Y-85000000D03*
%TO.P,U5,4*%
%TO.N,Net-(R2-Pad2)*%
X174580000Y-87540000D03*
%TO.P,U5,5*%
%TO.N,/WE2:4*%
X174580000Y-90080000D03*
%TO.P,U5,6*%
%TO.N,Net-(U5-Pad6)*%
X174580000Y-92620000D03*
%TO.P,U5,7,GND*%
%TO.N,GND*%
X174580000Y-95160000D03*
%TO.P,U5,8*%
%TO.N,Net-(U5-Pad8)*%
X182200000Y-95160000D03*
%TO.P,U5,9*%
%TO.N,Net-(R3-Pad2)*%
X182200000Y-92620000D03*
%TO.P,U5,10*%
%TO.N,/WE2:5*%
X182200000Y-90080000D03*
%TO.P,U5,11*%
%TO.N,Net-(U5-Pad11)*%
X182200000Y-87540000D03*
%TO.P,U5,12*%
%TO.N,Net-(R4-Pad2)*%
X182200000Y-85000000D03*
%TO.P,U5,13*%
%TO.N,/WE2:6*%
X182200000Y-82460000D03*
%TO.P,U5,14,VCC*%
%TO.N,+5V*%
X182200000Y-79920000D03*
%TD*%
D10*
%TO.P,U7,1*%
%TO.N,Net-(U5-Pad3)*%
X189980000Y-68545000D03*
D11*
%TO.P,U7,2*%
%TO.N,Net-(U5-Pad6)*%
X189980000Y-66005000D03*
%TO.P,U7,3*%
%TO.N,Net-(U6-Pad9)*%
X189980000Y-63465000D03*
%TO.P,U7,4*%
%TO.N,Net-(U6-Pad3)*%
X189980000Y-60925000D03*
%TO.P,U7,5*%
%TO.N,Net-(U7-Pad5)*%
X189980000Y-58385000D03*
%TO.P,U7,6*%
%TO.N,Net-(U22-Pad4)*%
X189980000Y-55845000D03*
%TO.P,U7,7,GND*%
%TO.N,GND*%
X189980000Y-53305000D03*
%TO.P,U7,8*%
%TO.N,Net-(U7-Pad5)*%
X182360000Y-53305000D03*
%TO.P,U7,9*%
%TO.N,Net-(U4-Pad8)*%
X182360000Y-55845000D03*
%TO.P,U7,10*%
%TO.N,Net-(U4-Pad11)*%
X182360000Y-58385000D03*
%TO.P,U7,11*%
%TO.N,Net-(U18-Pad10)*%
X182360000Y-60925000D03*
%TO.P,U7,12*%
%TO.N,/~{RE1}*%
X182360000Y-63465000D03*
%TO.P,U7,13*%
%TO.N,/~{RE2}*%
X182360000Y-66005000D03*
%TO.P,U7,14,VCC*%
%TO.N,+5V*%
X182360000Y-68545000D03*
%TD*%
D14*
%TO.P,R9,1*%
%TO.N,GND*%
X192680000Y-124937628D03*
D11*
%TO.P,R9,2*%
%TO.N,Net-(R9-Pad2)*%
X192680000Y-122397628D03*
%TD*%
D14*
%TO.P,R10,1*%
%TO.N,GND*%
X195680000Y-124937628D03*
D11*
%TO.P,R10,2*%
%TO.N,Net-(R10-Pad2)*%
X195680000Y-122397628D03*
%TD*%
D14*
%TO.P,R1,1*%
%TO.N,GND*%
X195180000Y-81352628D03*
D11*
%TO.P,R1,2*%
%TO.N,Net-(R1-Pad2)*%
X195180000Y-83892628D03*
%TD*%
D10*
%TO.P,U4,1*%
%TO.N,Net-(R1-Pad2)*%
X157380000Y-79920000D03*
D11*
%TO.P,U4,2*%
%TO.N,/WE1:3*%
X157380000Y-82460000D03*
%TO.P,U4,3*%
%TO.N,Net-(U4-Pad3)*%
X157380000Y-85000000D03*
%TO.P,U4,4*%
%TO.N,Net-(R2-Pad2)*%
X157380000Y-87540000D03*
%TO.P,U4,5*%
%TO.N,/WE1:4*%
X157380000Y-90080000D03*
%TO.P,U4,6*%
%TO.N,Net-(U4-Pad6)*%
X157380000Y-92620000D03*
%TO.P,U4,7,GND*%
%TO.N,GND*%
X157380000Y-95160000D03*
%TO.P,U4,8*%
%TO.N,Net-(U4-Pad8)*%
X165000000Y-95160000D03*
%TO.P,U4,9*%
%TO.N,Net-(R3-Pad2)*%
X165000000Y-92620000D03*
%TO.P,U4,10*%
%TO.N,/WE1:5*%
X165000000Y-90080000D03*
%TO.P,U4,11*%
%TO.N,Net-(U4-Pad11)*%
X165000000Y-87540000D03*
%TO.P,U4,12*%
%TO.N,Net-(R4-Pad2)*%
X165000000Y-85000000D03*
%TO.P,U4,13*%
%TO.N,/WE1:6*%
X165000000Y-82460000D03*
%TO.P,U4,14,VCC*%
%TO.N,+5V*%
X165000000Y-79920000D03*
%TD*%
D14*
%TO.P,C5,1*%
%TO.N,GND*%
X149380000Y-111580000D03*
%TO.P,C5,2*%
%TO.N,+5V*%
X144380000Y-111580000D03*
%TD*%
%TO.P,R3,1*%
%TO.N,GND*%
X189180000Y-81352628D03*
D11*
%TO.P,R3,2*%
%TO.N,Net-(R3-Pad2)*%
X189180000Y-83892628D03*
%TD*%
D14*
%TO.P,R6,1*%
%TO.N,+5V*%
X87180000Y-42920000D03*
D11*
%TO.P,R6,2*%
%TO.N,Net-(D2-Pad2)*%
X89720000Y-42920000D03*
%TD*%
D15*
%TO.P,J1,1,GND*%
%TO.N,GND*%
X30950954Y-129120000D03*
D16*
%TO.P,J1,2,Vcc*%
%TO.N,+5V*%
X33490954Y-129120000D03*
%TO.P,J1,3,CLK_R*%
%TO.N,Net-(J1-Pad3)*%
X36030954Y-129120000D03*
%TO.P,J1,4,CLK_F*%
%TO.N,Net-(J1-Pad4)*%
X38570954Y-129120000D03*
%TO.P,J1,5,BUS1:0*%
%TO.N,Net-(J1-Pad5)*%
X41110954Y-129120000D03*
%TO.P,J1,6,BUS1:1*%
%TO.N,Net-(J1-Pad6)*%
X43650954Y-129120000D03*
%TO.P,J1,7,BUS1:2*%
%TO.N,Net-(J1-Pad7)*%
X46190954Y-129120000D03*
%TO.P,J1,8,BUS1:3*%
%TO.N,Net-(J1-Pad8)*%
X48730954Y-129120000D03*
%TO.P,J1,9,BUS1:4*%
%TO.N,Net-(J1-Pad9)*%
X51270954Y-129120000D03*
%TO.P,J1,10,BUS1:5*%
%TO.N,Net-(J1-Pad10)*%
X53810954Y-129120000D03*
%TO.P,J1,11,BUS1:6*%
%TO.N,Net-(J1-Pad11)*%
X56350954Y-129120000D03*
%TO.P,J1,12,BUS1:7*%
%TO.N,Net-(J1-Pad12)*%
X58890954Y-129120000D03*
%TO.P,J1,13,BUS1:8*%
%TO.N,Net-(J1-Pad13)*%
X61430954Y-129120000D03*
%TO.P,J1,14,BUS1:9*%
%TO.N,Net-(J1-Pad14)*%
X63970954Y-129120000D03*
%TO.P,J1,15,BUS1:A*%
%TO.N,Net-(J1-Pad15)*%
X66510954Y-129120000D03*
%TO.P,J1,16,BUS1:B*%
%TO.N,Net-(J1-Pad16)*%
X69050954Y-129120000D03*
%TO.P,J1,17,BUS1:C*%
%TO.N,Net-(J1-Pad17)*%
X71590954Y-129120000D03*
%TO.P,J1,18,BUS1:D*%
%TO.N,Net-(J1-Pad18)*%
X74130954Y-129120000D03*
%TO.P,J1,19,BUS1:E*%
%TO.N,Net-(J1-Pad19)*%
X76670954Y-129120000D03*
%TO.P,J1,20,BUS1:F*%
%TO.N,Net-(J1-Pad20)*%
X79210954Y-129120000D03*
%TO.P,J1,21,BUS2:0*%
%TO.N,Net-(J1-Pad21)*%
X81750954Y-129120000D03*
%TO.P,J1,22,BUS2:1*%
%TO.N,Net-(J1-Pad22)*%
X84290954Y-129120000D03*
%TO.P,J1,23,BUS2:2*%
%TO.N,Net-(J1-Pad23)*%
X86830954Y-129120000D03*
%TO.P,J1,24,BUS2:3*%
%TO.N,Net-(J1-Pad24)*%
X89370954Y-129120000D03*
%TO.P,J1,25,BUS2:4*%
%TO.N,Net-(J1-Pad25)*%
X91910954Y-129120000D03*
%TO.P,J1,26,BUS2:5*%
%TO.N,Net-(J1-Pad26)*%
X94450954Y-129120000D03*
%TO.P,J1,27,BUS2:6*%
%TO.N,Net-(J1-Pad27)*%
X96990954Y-129120000D03*
%TO.P,J1,28,BUS2:7*%
%TO.N,Net-(J1-Pad28)*%
X99530954Y-129120000D03*
%TO.P,J1,29,BUS2:8*%
%TO.N,Net-(J1-Pad29)*%
X102070954Y-129120000D03*
%TO.P,J1,30,BUS2:9*%
%TO.N,Net-(J1-Pad30)*%
X104610954Y-129120000D03*
%TO.P,J1,31,BUS2:A*%
%TO.N,Net-(J1-Pad31)*%
X107150954Y-129120000D03*
%TO.P,J1,32,BUS2:B*%
%TO.N,Net-(J1-Pad32)*%
X109690954Y-129120000D03*
%TO.P,J1,33,BUS2:C*%
%TO.N,Net-(J1-Pad33)*%
X112230954Y-129120000D03*
%TO.P,J1,34,BUS2:D*%
%TO.N,Net-(J1-Pad34)*%
X114770954Y-129120000D03*
%TO.P,J1,35,BUS2:E*%
%TO.N,Net-(J1-Pad35)*%
X117310954Y-129120000D03*
%TO.P,J1,36,BUS2:F*%
%TO.N,Net-(J1-Pad36)*%
X119850954Y-129120000D03*
%TO.P,J1,37,WE1:0*%
%TO.N,/WE1:0*%
X122390954Y-129120000D03*
%TO.P,J1,38,WE1:1*%
%TO.N,/WE1:1*%
X124930954Y-129120000D03*
%TO.P,J1,39,WE1:2*%
%TO.N,/WE1:2*%
X127470954Y-129120000D03*
%TO.P,J1,40,WE1:3*%
%TO.N,/WE1:3*%
X130010954Y-129120000D03*
%TO.P,J1,41,WE1:4*%
%TO.N,/WE1:4*%
X132550954Y-129120000D03*
%TO.P,J1,42,WE1:5*%
%TO.N,/WE1:5*%
X135090954Y-129120000D03*
%TO.P,J1,43,WE1:6*%
%TO.N,/WE1:6*%
X137630954Y-129120000D03*
%TO.P,J1,44,WE2:0*%
%TO.N,/WE2:0*%
X140170954Y-129120000D03*
%TO.P,J1,45,WE2:1*%
%TO.N,/WE2:1*%
X142710954Y-129120000D03*
%TO.P,J1,46,WE2:2*%
%TO.N,/WE2:2*%
X145250954Y-129120000D03*
%TO.P,J1,47,WE2:3*%
%TO.N,/WE2:3*%
X147790954Y-129120000D03*
%TO.P,J1,48,WE2:4*%
%TO.N,/WE2:4*%
X150330954Y-129120000D03*
%TO.P,J1,49,WE2:5*%
%TO.N,/WE2:5*%
X152870954Y-129120000D03*
%TO.P,J1,50,WE2:6*%
%TO.N,/WE2:6*%
X155410954Y-129120000D03*
%TO.P,J1,51,RE1:0*%
%TO.N,/RE1:0*%
X157950954Y-129120000D03*
%TO.P,J1,52,RE1:1*%
%TO.N,/RE1:1*%
X160490954Y-129120000D03*
%TO.P,J1,53,RE1:2*%
%TO.N,/RE1:2*%
X163030954Y-129120000D03*
%TO.P,J1,54,RE1:3*%
%TO.N,/RE1:3*%
X165570954Y-129120000D03*
%TO.P,J1,55,RE1:4*%
%TO.N,/RE1:4*%
X168110954Y-129120000D03*
%TO.P,J1,56,RE1:5*%
%TO.N,/RE1:5*%
X170650954Y-129120000D03*
%TO.P,J1,57,RE1:6*%
%TO.N,/RE1:6*%
X173190954Y-129120000D03*
%TO.P,J1,58,RE2:0*%
%TO.N,/RE2:0*%
X175730954Y-129120000D03*
%TO.P,J1,59,RE2:1*%
%TO.N,/RE2:1*%
X178270954Y-129120000D03*
%TO.P,J1,60,RE2:2*%
%TO.N,/RE2:2*%
X180810954Y-129120000D03*
%TO.P,J1,61,RE2:3*%
%TO.N,/RE2:3*%
X183350954Y-129120000D03*
%TO.P,J1,62,RE2:4*%
%TO.N,/RE2:4*%
X185890954Y-129120000D03*
%TO.P,J1,63,RE2:5*%
%TO.N,/RE2:5*%
X188430954Y-129120000D03*
%TO.P,J1,64,RE2:6*%
%TO.N,/RE2:6*%
X190970954Y-129120000D03*
%TO.P,J1,65,Sup*%
%TO.N,Net-(J1-Pad65)*%
X193510954Y-129120000D03*
%TO.P,J1,66,Set_Sup*%
%TO.N,unconnected-(J1-Pad66)*%
X196050954Y-129120000D03*
%TO.P,J1,67,Reset_Sup*%
%TO.N,unconnected-(J1-Pad67)*%
X198590954Y-129120000D03*
%TO.P,J1,68*%
%TO.N,N/C*%
X201130954Y-129120000D03*
%TO.P,J1,69*%
X203670954Y-129120000D03*
%TO.P,J1,70*%
X206210954Y-129120000D03*
%TO.P,J1,71*%
X208750954Y-129120000D03*
%TO.P,J1,72*%
X211290954Y-129120000D03*
%TO.P,J1,73*%
X213830954Y-129120000D03*
%TO.P,J1,74*%
X216370954Y-129120000D03*
%TO.P,J1,75*%
X218910954Y-129120000D03*
%TO.P,J1,76*%
X221450954Y-129120000D03*
%TO.P,J1,77*%
X223990954Y-129120000D03*
%TO.P,J1,78*%
X226530954Y-129120000D03*
%TD*%
D12*
%TO.P,D4,1,K*%
%TO.N,/~{RE2}*%
X95730000Y-45260000D03*
D13*
%TO.P,D4,2,A*%
%TO.N,Net-(D4-Pad2)*%
X95730000Y-47800000D03*
%TD*%
D10*
%TO.P,U20,1,A/B*%
%TO.N,/~{RE1}*%
X131380000Y-44220000D03*
D11*
%TO.P,U20,2,I0a*%
%TO.N,/RE1:0*%
X131380000Y-46760000D03*
%TO.P,U20,3,I1a*%
%TO.N,/RE2:0*%
X131380000Y-49300000D03*
%TO.P,U20,4,Qa*%
%TO.N,Net-(U2-Pad1)*%
X131380000Y-51840000D03*
%TO.P,U20,5,I0b*%
%TO.N,/RE1:1*%
X131380000Y-54380000D03*
%TO.P,U20,6,I1b*%
%TO.N,/RE2:1*%
X131380000Y-56920000D03*
%TO.P,U20,7,Qb*%
%TO.N,Net-(U2-Pad2)*%
X131380000Y-59460000D03*
%TO.P,U20,8,GND*%
%TO.N,GND*%
X131380000Y-62000000D03*
%TO.P,U20,9,Qd*%
%TO.N,unconnected-(U20-Pad9)*%
X139000000Y-62000000D03*
%TO.P,U20,10,I1d*%
%TO.N,unconnected-(U20-Pad10)*%
X139000000Y-59460000D03*
%TO.P,U20,11,I0d*%
%TO.N,unconnected-(U20-Pad11)*%
X139000000Y-56920000D03*
%TO.P,U20,12,Qc*%
%TO.N,Net-(U2-Pad3)*%
X139000000Y-54380000D03*
%TO.P,U20,13,I1c*%
%TO.N,/RE2:2*%
X139000000Y-51840000D03*
%TO.P,U20,14,I0c*%
%TO.N,/RE1:2*%
X139000000Y-49300000D03*
%TO.P,U20,15,~{EN}*%
%TO.N,GND*%
X139000000Y-46760000D03*
%TO.P,U20,16,VCC*%
%TO.N,+5V*%
X139000000Y-44220000D03*
%TD*%
D14*
%TO.P,R12,1*%
%TO.N,+5V*%
X87180000Y-47920000D03*
D11*
%TO.P,R12,2*%
%TO.N,Net-(D4-Pad2)*%
X89720000Y-47920000D03*
%TD*%
D14*
%TO.P,R5,1*%
%TO.N,+5V*%
X87105000Y-57450000D03*
D11*
%TO.P,R5,2*%
%TO.N,Net-(D1-Pad2)*%
X89645000Y-57450000D03*
%TD*%
D17*
%TO.P,U2,1,Mode_R0*%
%TO.N,Net-(U2-Pad1)*%
X38950954Y-90620000D03*
D18*
%TO.P,U2,2,Mode_R1*%
%TO.N,Net-(U2-Pad2)*%
X40950954Y-90620000D03*
%TO.P,U2,3,Mode_R2*%
%TO.N,Net-(U2-Pad3)*%
X42950954Y-90620000D03*
%TO.P,U2,4,Mode_W0*%
%TO.N,Net-(U2-Pad4)*%
X44950954Y-90620000D03*
%TO.P,U2,5,Mode_W1*%
%TO.N,Net-(U2-Pad5)*%
X46950954Y-90620000D03*
%TO.P,U2,6,Mode_W2*%
%TO.N,Net-(U2-Pad6)*%
X48950954Y-90620000D03*
%TO.P,U2,7,WE_R*%
%TO.N,/WE_R*%
X50950954Y-90620000D03*
%TO.P,U2,8,WE_F*%
%TO.N,/WE_F*%
X52950954Y-90620000D03*
%TO.P,U2,9,WE*%
%TO.N,Net-(U18-Pad3)*%
X54950954Y-90620000D03*
%TO.P,U2,10,RE*%
%TO.N,Net-(U18-Pad8)*%
X56950954Y-90620000D03*
%TO.P,U2,11,from_Bus0*%
%TO.N,Net-(U14-Pad18)*%
X58950954Y-90620000D03*
%TO.P,U2,12,from_Bus1*%
%TO.N,Net-(U14-Pad17)*%
X60950954Y-90620000D03*
%TO.P,U2,13,from_Bus2*%
%TO.N,Net-(U14-Pad16)*%
X62950954Y-90620000D03*
%TO.P,U2,14,from_Bus3*%
%TO.N,Net-(U14-Pad15)*%
X64950954Y-90620000D03*
%TO.P,U2,15,from_Bus4*%
%TO.N,Net-(U14-Pad14)*%
X66950954Y-90620000D03*
%TO.P,U2,16,from_Bus5*%
%TO.N,Net-(U14-Pad13)*%
X68950954Y-90620000D03*
%TO.P,U2,17,from_Bus6*%
%TO.N,Net-(U14-Pad12)*%
X70950954Y-90620000D03*
%TO.P,U2,18,from_Bus7*%
%TO.N,Net-(U14-Pad11)*%
X72950954Y-90620000D03*
%TO.P,U2,19,from_Bus8*%
%TO.N,Net-(U17-Pad18)*%
X74950954Y-90620000D03*
%TO.P,U2,20,from_Bus9*%
%TO.N,Net-(U17-Pad17)*%
X76950954Y-90620000D03*
%TO.P,U2,21,from_Bus10*%
%TO.N,Net-(U17-Pad16)*%
X78950954Y-90620000D03*
%TO.P,U2,22,from_Bus11*%
%TO.N,Net-(U17-Pad15)*%
X80950954Y-90620000D03*
%TO.P,U2,23,from_Bus12*%
%TO.N,Net-(U17-Pad14)*%
X82950954Y-90620000D03*
%TO.P,U2,24,from_Bus13*%
%TO.N,Net-(U17-Pad13)*%
X84950954Y-90620000D03*
%TO.P,U2,25,from_Bus14*%
%TO.N,Net-(U17-Pad12)*%
X86950954Y-90620000D03*
%TO.P,U2,26,from_Bus15*%
%TO.N,Net-(U17-Pad11)*%
X88950954Y-90620000D03*
%TO.P,U2,27,to_Bus0*%
%TO.N,Net-(U1-Pad2)*%
X90950954Y-90620000D03*
%TO.P,U2,28,to_Bus1*%
%TO.N,Net-(U1-Pad3)*%
X92950954Y-90620000D03*
%TO.P,U2,29,to_Bus2*%
%TO.N,Net-(U1-Pad4)*%
X94950954Y-90620000D03*
%TO.P,U2,30,to_Bus3*%
%TO.N,Net-(U1-Pad5)*%
X96950954Y-90620000D03*
%TO.P,U2,31,to_Bus4*%
%TO.N,Net-(U1-Pad6)*%
X98950954Y-90620000D03*
%TO.P,U2,32,to_Bus5*%
%TO.N,Net-(U1-Pad7)*%
X100950954Y-90620000D03*
%TO.P,U2,33,to_Bus6*%
%TO.N,Net-(U1-Pad8)*%
X102950954Y-90620000D03*
%TO.P,U2,34,to_Bus7*%
%TO.N,Net-(U1-Pad9)*%
X104950954Y-90620000D03*
%TO.P,U2,35,to_Bus8*%
%TO.N,Net-(U11-Pad2)*%
X106950954Y-90620000D03*
%TO.P,U2,36,to_Bus9*%
%TO.N,Net-(U11-Pad3)*%
X108950954Y-90620000D03*
%TO.P,U2,37,to_Bus10*%
%TO.N,Net-(U11-Pad4)*%
X110950954Y-90620000D03*
%TO.P,U2,38,to_Bus11*%
%TO.N,Net-(U11-Pad5)*%
X112950954Y-90620000D03*
%TO.P,U2,39,to_Bus12*%
%TO.N,Net-(U11-Pad6)*%
X114950954Y-90620000D03*
%TO.P,U2,40,to_Bus13*%
%TO.N,Net-(U11-Pad7)*%
X116950954Y-90620000D03*
%TO.P,U2,41,to_Bus14*%
%TO.N,Net-(U11-Pad8)*%
X119010954Y-90620000D03*
%TO.P,U2,42,to_Bus15*%
%TO.N,Net-(U11-Pad9)*%
X121010954Y-90620000D03*
%TD*%
D10*
%TO.P,U16,1*%
%TO.N,Net-(U13-Pad3)*%
X176980000Y-68545000D03*
D11*
%TO.P,U16,2*%
%TO.N,Net-(U13-Pad6)*%
X176980000Y-66005000D03*
%TO.P,U16,3*%
%TO.N,Net-(U15-Pad9)*%
X176980000Y-63465000D03*
%TO.P,U16,4*%
%TO.N,Net-(U15-Pad3)*%
X176980000Y-60925000D03*
%TO.P,U16,5*%
%TO.N,Net-(U16-Pad5)*%
X176980000Y-58385000D03*
%TO.P,U16,6*%
%TO.N,Net-(U16-Pad6)*%
X176980000Y-55845000D03*
%TO.P,U16,7,GND*%
%TO.N,GND*%
X176980000Y-53305000D03*
%TO.P,U16,8*%
%TO.N,Net-(U16-Pad5)*%
X169360000Y-53305000D03*
%TO.P,U16,9*%
%TO.N,Net-(U12-Pad8)*%
X169360000Y-55845000D03*
%TO.P,U16,10*%
%TO.N,Net-(U12-Pad11)*%
X169360000Y-58385000D03*
%TO.P,U16,11*%
%TO.N,N/C*%
X169360000Y-60925000D03*
%TO.P,U16,12*%
X169360000Y-63465000D03*
%TO.P,U16,13*%
X169360000Y-66005000D03*
%TO.P,U16,14,VCC*%
%TO.N,+5V*%
X169360000Y-68545000D03*
%TD*%
D10*
%TO.P,U13,1*%
%TO.N,Net-(R7-Pad2)*%
X174380000Y-105295000D03*
D11*
%TO.P,U13,2*%
%TO.N,/RE2:3*%
X174380000Y-107835000D03*
%TO.P,U13,3*%
%TO.N,Net-(U13-Pad3)*%
X174380000Y-110375000D03*
%TO.P,U13,4*%
%TO.N,Net-(R8-Pad2)*%
X174380000Y-112915000D03*
%TO.P,U13,5*%
%TO.N,/RE2:4*%
X174380000Y-115455000D03*
%TO.P,U13,6*%
%TO.N,Net-(U13-Pad6)*%
X174380000Y-117995000D03*
%TO.P,U13,7,GND*%
%TO.N,GND*%
X174380000Y-120535000D03*
%TO.P,U13,8*%
%TO.N,Net-(U13-Pad8)*%
X182000000Y-120535000D03*
%TO.P,U13,9*%
%TO.N,Net-(R9-Pad2)*%
X182000000Y-117995000D03*
%TO.P,U13,10*%
%TO.N,/RE2:5*%
X182000000Y-115455000D03*
%TO.P,U13,11*%
%TO.N,Net-(U13-Pad11)*%
X182000000Y-112915000D03*
%TO.P,U13,12*%
%TO.N,Net-(R10-Pad2)*%
X182000000Y-110375000D03*
%TO.P,U13,13*%
%TO.N,/RE2:6*%
X182000000Y-107835000D03*
%TO.P,U13,14,VCC*%
%TO.N,+5V*%
X182000000Y-105295000D03*
%TD*%
D14*
%TO.P,R2,1*%
%TO.N,GND*%
X192180000Y-81352628D03*
D11*
%TO.P,R2,2*%
%TO.N,Net-(R2-Pad2)*%
X192180000Y-83892628D03*
%TD*%
D17*
%TO.P,J2,1,Pin_1*%
%TO.N,Net-(J2-Pad1)*%
X170880000Y-34146000D03*
D18*
%TO.P,J2,2,Pin_2*%
%TO.N,/~{SUP}*%
X168880000Y-34146000D03*
%TO.P,J2,3,Pin_3*%
%TO.N,GND*%
X166880000Y-34146000D03*
%TD*%
D12*
%TO.P,D1,1,K*%
%TO.N,/~{WE1}*%
X95710000Y-56200000D03*
D13*
%TO.P,D1,2,A*%
%TO.N,Net-(D1-Pad2)*%
X95710000Y-58740000D03*
%TD*%
D10*
%TO.P,SW2,1*%
%TO.N,+5V*%
X195447500Y-115197628D03*
D11*
%TO.P,SW2,2*%
X195447500Y-112657628D03*
%TO.P,SW2,3*%
X195447500Y-110117628D03*
%TO.P,SW2,4*%
X195447500Y-107577628D03*
%TO.P,SW2,5*%
%TO.N,Net-(R10-Pad2)*%
X187827500Y-107577628D03*
%TO.P,SW2,6*%
%TO.N,Net-(R9-Pad2)*%
X187827500Y-110117628D03*
%TO.P,SW2,7*%
%TO.N,Net-(R8-Pad2)*%
X187827500Y-112657628D03*
%TO.P,SW2,8*%
%TO.N,Net-(R7-Pad2)*%
X187827500Y-115197628D03*
%TD*%
D10*
%TO.P,U22,1*%
%TO.N,Net-(U22-Pad1)*%
X179555000Y-39720000D03*
D11*
%TO.P,U22,2*%
%TO.N,/~{SUP}*%
X182095000Y-39720000D03*
%TO.P,U22,3*%
%TO.N,/~{WE2}*%
X184635000Y-39720000D03*
%TO.P,U22,4*%
%TO.N,Net-(U22-Pad4)*%
X187175000Y-39720000D03*
%TO.P,U22,5*%
%TO.N,/~{SUP}*%
X189715000Y-39720000D03*
%TO.P,U22,6*%
%TO.N,/~{WE1}*%
X192255000Y-39720000D03*
%TO.P,U22,7,GND*%
%TO.N,GND*%
X194795000Y-39720000D03*
%TO.P,U22,8*%
%TO.N,/~{RE2}*%
X194795000Y-32100000D03*
%TO.P,U22,9*%
%TO.N,Net-(U15-Pad8)*%
X192255000Y-32100000D03*
%TO.P,U22,10*%
%TO.N,/~{SUP}*%
X189715000Y-32100000D03*
%TO.P,U22,11*%
%TO.N,/~{RE1}*%
X187175000Y-32100000D03*
%TO.P,U22,12*%
%TO.N,Net-(U16-Pad6)*%
X184635000Y-32100000D03*
%TO.P,U22,13*%
%TO.N,/~{SUP}*%
X182095000Y-32100000D03*
%TO.P,U22,14,VCC*%
%TO.N,+5V*%
X179555000Y-32100000D03*
%TD*%
D10*
%TO.P,U18,1*%
%TO.N,Net-(U18-Pad1)*%
X75380000Y-40295000D03*
D11*
%TO.P,U18,2*%
X75380000Y-42835000D03*
%TO.P,U18,3*%
%TO.N,Net-(U18-Pad3)*%
X75380000Y-45375000D03*
%TO.P,U18,4*%
%TO.N,Net-(J1-Pad65)*%
X75380000Y-47915000D03*
%TO.P,U18,5*%
X75380000Y-50455000D03*
%TO.P,U18,6*%
%TO.N,Net-(J2-Pad1)*%
X75380000Y-52995000D03*
%TO.P,U18,7,GND*%
%TO.N,GND*%
X75380000Y-55535000D03*
%TO.P,U18,8*%
%TO.N,Net-(U18-Pad8)*%
X83000000Y-55535000D03*
%TO.P,U18,9*%
%TO.N,Net-(U18-Pad10)*%
X83000000Y-52995000D03*
%TO.P,U18,10*%
X83000000Y-50455000D03*
%TO.P,U18,11*%
%TO.N,N/C*%
X83000000Y-47915000D03*
%TO.P,U18,12*%
X83000000Y-45375000D03*
%TO.P,U18,13*%
X83000000Y-42835000D03*
%TO.P,U18,14,VCC*%
%TO.N,+5V*%
X83000000Y-40295000D03*
%TD*%
D14*
%TO.P,R8,1*%
%TO.N,GND*%
X189680000Y-124937628D03*
D11*
%TO.P,R8,2*%
%TO.N,Net-(R8-Pad2)*%
X189680000Y-122397628D03*
%TD*%
D14*
%TO.P,C2,1*%
%TO.N,+5V*%
X144280000Y-119730000D03*
%TO.P,C2,2*%
%TO.N,GND*%
X149280000Y-119730000D03*
%TD*%
%TO.P,C1,1*%
%TO.N,+5V*%
X76450000Y-34490000D03*
%TO.P,C1,2*%
%TO.N,GND*%
X71450000Y-34490000D03*
%TD*%
D10*
%TO.P,U12,1*%
%TO.N,Net-(R7-Pad2)*%
X157380000Y-105295000D03*
D11*
%TO.P,U12,2*%
%TO.N,/RE1:3*%
X157380000Y-107835000D03*
%TO.P,U12,3*%
%TO.N,Net-(U12-Pad3)*%
X157380000Y-110375000D03*
%TO.P,U12,4*%
%TO.N,Net-(R8-Pad2)*%
X157380000Y-112915000D03*
%TO.P,U12,5*%
%TO.N,/RE1:4*%
X157380000Y-115455000D03*
%TO.P,U12,6*%
%TO.N,Net-(U12-Pad6)*%
X157380000Y-117995000D03*
%TO.P,U12,7,GND*%
%TO.N,GND*%
X157380000Y-120535000D03*
%TO.P,U12,8*%
%TO.N,Net-(U12-Pad8)*%
X165000000Y-120535000D03*
%TO.P,U12,9*%
%TO.N,Net-(R9-Pad2)*%
X165000000Y-117995000D03*
%TO.P,U12,10*%
%TO.N,/RE1:5*%
X165000000Y-115455000D03*
%TO.P,U12,11*%
%TO.N,Net-(U12-Pad11)*%
X165000000Y-112915000D03*
%TO.P,U12,12*%
%TO.N,Net-(R10-Pad2)*%
X165000000Y-110375000D03*
%TO.P,U12,13*%
%TO.N,/RE1:6*%
X165000000Y-107835000D03*
%TO.P,U12,14,VCC*%
%TO.N,+5V*%
X165000000Y-105295000D03*
%TD*%
D14*
%TO.P,C7,1*%
%TO.N,GND*%
X35710000Y-64620000D03*
%TO.P,C7,2*%
%TO.N,+5V*%
X35710000Y-59620000D03*
%TD*%
%TO.P,C4,1*%
%TO.N,GND*%
X201500000Y-42470000D03*
%TO.P,C4,2*%
%TO.N,+5V*%
X201500000Y-37470000D03*
%TD*%
%TO.P,C3,1*%
%TO.N,+5V*%
X42540000Y-59770000D03*
%TO.P,C3,2*%
%TO.N,GND*%
X42540000Y-64770000D03*
%TD*%
D12*
%TO.P,D2,1,K*%
%TO.N,/~{WE2}*%
X95720000Y-39770000D03*
D13*
%TO.P,D2,2,A*%
%TO.N,Net-(D2-Pad2)*%
X95720000Y-42310000D03*
%TD*%
D10*
%TO.P,SW1,1*%
%TO.N,+5V*%
X195447500Y-99197628D03*
D11*
%TO.P,SW1,2*%
X195447500Y-96657628D03*
%TO.P,SW1,3*%
X195447500Y-94117628D03*
%TO.P,SW1,4*%
X195447500Y-91577628D03*
%TO.P,SW1,5*%
%TO.N,Net-(R4-Pad2)*%
X187827500Y-91577628D03*
%TO.P,SW1,6*%
%TO.N,Net-(R3-Pad2)*%
X187827500Y-94117628D03*
%TO.P,SW1,7*%
%TO.N,Net-(R2-Pad2)*%
X187827500Y-96657628D03*
%TO.P,SW1,8*%
%TO.N,Net-(R1-Pad2)*%
X187827500Y-99197628D03*
%TD*%
D14*
%TO.P,C8,1*%
%TO.N,GND*%
X60830000Y-34600000D03*
%TO.P,C8,2*%
%TO.N,+5V*%
X65830000Y-34600000D03*
%TD*%
D10*
%TO.P,U21,1,A/B*%
%TO.N,/~{WE1}*%
X115180000Y-44120000D03*
D11*
%TO.P,U21,2,I0a*%
%TO.N,/WE1:0*%
X115180000Y-46660000D03*
%TO.P,U21,3,I1a*%
%TO.N,/WE2:0*%
X115180000Y-49200000D03*
%TO.P,U21,4,Qa*%
%TO.N,Net-(U2-Pad4)*%
X115180000Y-51740000D03*
%TO.P,U21,5,I0b*%
%TO.N,/WE1:1*%
X115180000Y-54280000D03*
%TO.P,U21,6,I1b*%
%TO.N,/WE2:1*%
X115180000Y-56820000D03*
%TO.P,U21,7,Qb*%
%TO.N,Net-(U2-Pad5)*%
X115180000Y-59360000D03*
%TO.P,U21,8,GND*%
%TO.N,GND*%
X115180000Y-61900000D03*
%TO.P,U21,9,Qd*%
%TO.N,unconnected-(U21-Pad9)*%
X122800000Y-61900000D03*
%TO.P,U21,10,I1d*%
%TO.N,unconnected-(U21-Pad10)*%
X122800000Y-59360000D03*
%TO.P,U21,11,I0d*%
%TO.N,unconnected-(U21-Pad11)*%
X122800000Y-56820000D03*
%TO.P,U21,12,Qc*%
%TO.N,Net-(U2-Pad6)*%
X122800000Y-54280000D03*
%TO.P,U21,13,I1c*%
%TO.N,/WE2:2*%
X122800000Y-51740000D03*
%TO.P,U21,14,I0c*%
%TO.N,/WE1:2*%
X122800000Y-49200000D03*
%TO.P,U21,15,~{EN}*%
%TO.N,GND*%
X122800000Y-46660000D03*
%TO.P,U21,16,VCC*%
%TO.N,+5V*%
X122800000Y-44120000D03*
%TD*%
D14*
%TO.P,R11,1*%
%TO.N,+5V*%
X87180000Y-52920000D03*
D11*
%TO.P,R11,2*%
%TO.N,Net-(D3-Pad2)*%
X89720000Y-52920000D03*
%TD*%
D14*
%TO.P,R7,1*%
%TO.N,GND*%
X186680000Y-124937628D03*
D11*
%TO.P,R7,2*%
%TO.N,Net-(R7-Pad2)*%
X186680000Y-122397628D03*
%TD*%
D10*
%TO.P,U15,1*%
%TO.N,Net-(U12-Pad3)*%
X202980000Y-68545000D03*
D11*
%TO.P,U15,2*%
%TO.N,Net-(U12-Pad6)*%
X202980000Y-66005000D03*
%TO.P,U15,3*%
%TO.N,Net-(U15-Pad3)*%
X202980000Y-63465000D03*
%TO.P,U15,4*%
%TO.N,Net-(U13-Pad8)*%
X202980000Y-60925000D03*
%TO.P,U15,5*%
%TO.N,Net-(U13-Pad11)*%
X202980000Y-58385000D03*
%TO.P,U15,6*%
%TO.N,Net-(U15-Pad10)*%
X202980000Y-55845000D03*
%TO.P,U15,7,GND*%
%TO.N,GND*%
X202980000Y-53305000D03*
%TO.P,U15,8*%
%TO.N,Net-(U15-Pad8)*%
X195360000Y-53305000D03*
%TO.P,U15,9*%
%TO.N,Net-(U15-Pad9)*%
X195360000Y-55845000D03*
%TO.P,U15,10*%
%TO.N,Net-(U15-Pad10)*%
X195360000Y-58385000D03*
%TO.P,U15,11*%
%TO.N,N/C*%
X195360000Y-60925000D03*
%TO.P,U15,12*%
X195360000Y-63465000D03*
%TO.P,U15,13*%
X195360000Y-66005000D03*
%TO.P,U15,14,VCC*%
%TO.N,+5V*%
X195360000Y-68545000D03*
%TD*%
D14*
%TO.P,R4,1*%
%TO.N,GND*%
X186180000Y-81357628D03*
D11*
%TO.P,R4,2*%
%TO.N,Net-(R4-Pad2)*%
X186180000Y-83897628D03*
%TD*%
D14*
%TO.P,C6,1*%
%TO.N,GND*%
X193780000Y-74990000D03*
%TO.P,C6,2*%
%TO.N,+5V*%
X188780000Y-74990000D03*
%TD*%
D19*
%TO.N,GND*%
X126555954Y-76195000D03*
X87000954Y-104019500D03*
X119715954Y-85695000D03*
X127180000Y-61920000D03*
X182594964Y-98780036D03*
X163681477Y-48418523D03*
X64180000Y-66946545D03*
X125180000Y-68920000D03*
X180180000Y-52920000D03*
X125180000Y-62920000D03*
X41285954Y-109695000D03*
X62080500Y-75945000D03*
X75555954Y-76195000D03*
X179980000Y-99770000D03*
X102715954Y-85695000D03*
X75555954Y-76195000D03*
X136615965Y-85695000D03*
X86778273Y-109632681D03*
X160180000Y-52920000D03*
X195475796Y-48622593D03*
X160180000Y-49920000D03*
X109500954Y-76120000D03*
X73184755Y-76628801D03*
X92555954Y-76195000D03*
X85535954Y-78910000D03*
X184480000Y-101120000D03*
X39681196Y-75945000D03*
X203180000Y-79920000D03*
%TO.N,+5V*%
X145258000Y-39988000D03*
X124724571Y-39920488D03*
X110180000Y-39920000D03*
X167159040Y-94771499D03*
X110180000Y-42920000D03*
X37576443Y-79503295D03*
X185180000Y-70920000D03*
X164180000Y-76920000D03*
X148180000Y-43920000D03*
X124180000Y-37268522D03*
X38180000Y-102920000D03*
X167180000Y-70920000D03*
X62754501Y-77345499D03*
X66180000Y-66920000D03*
X145258000Y-36686000D03*
X159180000Y-72920000D03*
X160560000Y-102020000D03*
X165180000Y-70920000D03*
X78180000Y-54920000D03*
X174180000Y-97920000D03*
X31991127Y-115760652D03*
X167169815Y-96970500D03*
X65462536Y-40787464D03*
X151620000Y-104240000D03*
X122180000Y-37268522D03*
X177008602Y-97748602D03*
%TO.N,Net-(J1-Pad3)*%
X56280000Y-54130000D03*
X33180000Y-116920000D03*
%TO.N,Net-(J1-Pad4)*%
X57240000Y-42750000D03*
X31279031Y-112920000D03*
%TO.N,Net-(J1-Pad5)*%
X42555954Y-110974022D03*
%TO.N,Net-(J1-Pad6)*%
X43580000Y-111720000D03*
%TO.N,Net-(J1-Pad7)*%
X45180000Y-112320000D03*
%TO.N,Net-(J1-Pad8)*%
X46180000Y-113120000D03*
%TO.N,Net-(J1-Pad9)*%
X47580000Y-113720000D03*
%TO.N,Net-(J1-Pad10)*%
X49252454Y-114040000D03*
%TO.N,Net-(J1-Pad11)*%
X50268454Y-114964323D03*
%TO.N,Net-(J1-Pad12)*%
X51538454Y-115945000D03*
%TO.N,Net-(J1-Pad13)*%
X76555954Y-109695000D03*
X110825954Y-76195000D03*
%TO.N,Net-(J1-Pad14)*%
X112095954Y-76195000D03*
X77961875Y-109559079D03*
%TO.N,Net-(J1-Pad15)*%
X79152854Y-109701820D03*
X113365954Y-76195000D03*
%TO.N,Net-(J1-Pad16)*%
X114635954Y-76195000D03*
X80365954Y-109695000D03*
%TO.N,Net-(J1-Pad17)*%
X81672352Y-109658602D03*
X71879511Y-122420489D03*
X115905954Y-76195000D03*
%TO.N,Net-(J1-Pad18)*%
X82978750Y-109622204D03*
X74180000Y-124120000D03*
X117175954Y-76195000D03*
%TO.N,Net-(J1-Pad19)*%
X118445954Y-76195000D03*
X84212352Y-109658602D03*
X76580000Y-125120000D03*
%TO.N,Net-(J1-Pad20)*%
X79308602Y-125791398D03*
X119780000Y-76120000D03*
X85471875Y-109669079D03*
%TO.N,Net-(J1-Pad21)*%
X59224305Y-111214098D03*
X93801451Y-74945000D03*
X70000954Y-118596478D03*
X69020570Y-111362974D03*
%TO.N,Net-(J1-Pad22)*%
X95000954Y-74945000D03*
X71005990Y-117941719D03*
X70572676Y-111572283D03*
X59723460Y-112844437D03*
%TO.N,Net-(J1-Pad23)*%
X96000954Y-73945000D03*
X72200457Y-111945000D03*
X72205488Y-117945014D03*
X61000892Y-112944926D03*
%TO.N,Net-(J1-Pad24)*%
X73000954Y-112945000D03*
X61783654Y-113853818D03*
X74000954Y-117945000D03*
X96989094Y-72956573D03*
%TO.N,Net-(J1-Pad25)*%
X61630715Y-115043531D03*
X76000954Y-117945000D03*
X74000954Y-113945000D03*
X97847588Y-72118841D03*
%TO.N,Net-(J1-Pad26)*%
X78000954Y-117945000D03*
X76000954Y-114945000D03*
X63157284Y-115165926D03*
X98641138Y-71219350D03*
%TO.N,Net-(J1-Pad27)*%
X78000954Y-115945000D03*
X64038502Y-115979720D03*
X79808342Y-117794816D03*
X99624617Y-70532637D03*
%TO.N,Net-(J1-Pad28)*%
X100185506Y-69472349D03*
X65000954Y-116945000D03*
%TO.N,Net-(J1-Pad29)*%
X96605490Y-123745490D03*
%TO.N,Net-(J1-Pad30)*%
X97799075Y-122959551D03*
%TO.N,Net-(J1-Pad31)*%
X98251399Y-121848601D03*
%TO.N,Net-(J1-Pad32)*%
X98877977Y-120822023D03*
%TO.N,Net-(J1-Pad33)*%
X98849376Y-119450624D03*
%TO.N,Net-(J1-Pad34)*%
X99905954Y-118445954D03*
%TO.N,Net-(J1-Pad35)*%
X106180000Y-119120000D03*
%TO.N,Net-(J1-Pad36)*%
X107380000Y-118120000D03*
%TO.N,/WE_F*%
X60180000Y-65920000D03*
X53000954Y-79545000D03*
%TO.N,/WE_R*%
X58980497Y-65920000D03*
X51000954Y-79545000D03*
%TO.N,Net-(R3-Pad2)*%
X169180000Y-76920000D03*
X168780994Y-78920000D03*
%TO.N,Net-(R4-Pad2)*%
X168180000Y-75920000D03*
X168180000Y-80920000D03*
%TO.N,Net-(R7-Pad2)*%
X184180000Y-106920000D03*
X174180000Y-101920000D03*
X184180001Y-104019500D03*
%TO.N,Net-(U4-Pad6)*%
X153980497Y-75920000D03*
%TO.N,Net-(U4-Pad11)*%
X162180000Y-74019500D03*
X162180000Y-75920000D03*
X162180000Y-79920000D03*
%TO.N,Net-(U4-Pad3)*%
X156379503Y-75920000D03*
%TO.N,Net-(U4-Pad8)*%
X160180000Y-75920000D03*
X160180000Y-74019500D03*
X160180000Y-79920000D03*
X163180000Y-92920000D03*
%TO.N,Net-(U5-Pad6)*%
X176730540Y-74772664D03*
X176061341Y-81706605D03*
X176616326Y-72847659D03*
%TO.N,Net-(U5-Pad3)*%
X177915062Y-75036210D03*
X177780357Y-73137209D03*
%TO.N,Net-(U6-Pad10)*%
X159180000Y-56920000D03*
%TO.N,Net-(U6-Pad3)*%
X150180000Y-42920000D03*
X188180000Y-47885570D03*
X188129500Y-51183592D03*
X188180000Y-43920000D03*
X155180000Y-70920000D03*
X153180000Y-47920000D03*
X154180000Y-39921500D03*
X149967859Y-40176938D03*
%TO.N,Net-(U11-Pad3)*%
X124172352Y-97116398D03*
%TO.N,Net-(U11-Pad8)*%
X134000954Y-89945000D03*
%TO.N,Net-(U11-Pad9)*%
X135180000Y-87920000D03*
%TO.N,Net-(U11-Pad4)*%
X126172352Y-96116398D03*
%TO.N,Net-(U11-Pad5)*%
X128172352Y-95116398D03*
%TO.N,Net-(U11-Pad6)*%
X130172352Y-94116398D03*
%TO.N,Net-(U15-Pad3)*%
X172980497Y-52920000D03*
X172055359Y-45920000D03*
X172016313Y-50217533D03*
%TO.N,Net-(U15-Pad8)*%
X200122000Y-48878000D03*
X200630000Y-54720000D03*
X200122000Y-51672000D03*
%TO.N,Net-(U16-Pad6)*%
X199106000Y-58022000D03*
X199106000Y-66658000D03*
X183104000Y-34466498D03*
X198090000Y-49894000D03*
X181154175Y-34409378D03*
X193518000Y-47100000D03*
%TO.N,Net-(U17-Pad13)*%
X84072120Y-98970500D03*
%TO.N,Net-(U17-Pad12)*%
X85809868Y-98803154D03*
%TO.N,Net-(U17-Pad11)*%
X87000954Y-98945000D03*
%TO.N,Net-(U18-Pad3)*%
X62180000Y-58920000D03*
X55000954Y-79545000D03*
X62008602Y-65748602D03*
%TO.N,/~{WE1}*%
X107180000Y-53770000D03*
X123180000Y-84920000D03*
X108521185Y-40220489D03*
X107180000Y-78920000D03*
X42555954Y-95544046D03*
X120180000Y-99920000D03*
X76385456Y-100920000D03*
X109503915Y-38021488D03*
X105150000Y-53670000D03*
X159180000Y-48820500D03*
X124204395Y-81960340D03*
X157704000Y-36432000D03*
X104350000Y-56060000D03*
%TO.N,/~{WE2}*%
X152878000Y-38972000D03*
X119180000Y-98920000D03*
X155926000Y-38718000D03*
X123180000Y-82920000D03*
X152180000Y-42920000D03*
X93555954Y-100195000D03*
X105980497Y-78920000D03*
X161006000Y-38210000D03*
X158180000Y-52920000D03*
X121982539Y-84989950D03*
X106129501Y-40970499D03*
X59385456Y-99920000D03*
%TO.N,/~{RE1}*%
X180579022Y-47319022D03*
X108180000Y-85920000D03*
X179180000Y-33920000D03*
X183180000Y-49920000D03*
X107180000Y-82920000D03*
X103180000Y-78920000D03*
X104180000Y-75920000D03*
%TO.N,/~{RE2}*%
X104180000Y-49950000D03*
X112180000Y-39920000D03*
X177060041Y-37452750D03*
X91285954Y-85695000D03*
X123180000Y-77920002D03*
X112180000Y-49120000D03*
X181970000Y-46710000D03*
X121180000Y-75920000D03*
X105100000Y-51730000D03*
X185180000Y-49920000D03*
X112180000Y-42920000D03*
X99180000Y-83920000D03*
X109040000Y-49910000D03*
%TO.N,/WE1:0*%
X128180000Y-65920000D03*
X118380000Y-119120000D03*
X120180000Y-65920000D03*
X142180000Y-70920000D03*
%TO.N,/WE1:1*%
X127180000Y-64920000D03*
X119229259Y-118095371D03*
X143180000Y-69920000D03*
%TO.N,/WE1:2*%
X127180000Y-68920000D03*
X120329500Y-116791398D03*
%TO.N,/WE1:3*%
X123580000Y-119320000D03*
X116540826Y-118080826D03*
%TO.N,/WE2:2*%
X130777712Y-109254483D03*
%TO.N,/RE1:2*%
X148180000Y-52920000D03*
X148180000Y-50920000D03*
X148351398Y-65748602D03*
X148180000Y-62920000D03*
%TO.N,/WE2:3*%
X170030997Y-92920000D03*
%TO.N,/WE2:4*%
X179379503Y-95920000D03*
%TO.N,Net-(J1-Pad65)*%
X161829011Y-123053972D03*
X58580000Y-126520000D03*
X127790590Y-122987794D03*
X69580000Y-126720000D03*
X190980000Y-127120000D03*
X71100000Y-55720000D03*
X139243883Y-121878833D03*
%TO.N,/WE2:1*%
X129580000Y-109320000D03*
%TO.N,/WE1:6*%
X127408565Y-111502861D03*
X161180000Y-91920000D03*
%TO.N,/WE2:6*%
X151180000Y-102920000D03*
X167180000Y-74920000D03*
X134128522Y-108898602D03*
%TO.N,/RE2:6*%
X178180000Y-117920000D03*
%TO.N,/RE2:0*%
X136056159Y-63970500D03*
X135180000Y-61920000D03*
%TO.N,/WE1:5*%
X126380000Y-112120000D03*
X160180000Y-94920000D03*
%TO.N,/RE1:6*%
X161180000Y-117920000D03*
X161180000Y-113920000D03*
%TO.N,/RE1:0*%
X146351398Y-66748602D03*
X146180000Y-52920000D03*
X146180000Y-62920000D03*
X146180000Y-49920000D03*
X146180000Y-52920000D03*
%TO.N,/WE2:5*%
X185180000Y-90920000D03*
X184993136Y-97746339D03*
%TO.N,/WE2:0*%
X132851398Y-124048602D03*
X118180000Y-67920000D03*
%TO.N,/RE1:1*%
X133063696Y-58761375D03*
%TO.N,/~{SUP}*%
X182095000Y-35924000D03*
%TO.N,Net-(R10-Pad2)*%
X168180000Y-121970500D03*
%TO.N,Net-(U2-Pad1)*%
X129180000Y-36920000D03*
X39091476Y-79543191D03*
X128075344Y-41928603D03*
%TO.N,Net-(U2-Pad2)*%
X126880745Y-41820249D03*
X126180000Y-36920000D03*
X41000954Y-79445000D03*
%TO.N,Net-(U2-Pad3)*%
X134180000Y-43920000D03*
X43200954Y-79545000D03*
X125221605Y-41012167D03*
X102180000Y-45920000D03*
%TO.N,Net-(U2-Pad4)*%
X105180000Y-65920000D03*
X108180000Y-66920000D03*
X45000954Y-79545000D03*
%TO.N,Net-(U2-Pad5)*%
X47000954Y-79545000D03*
X108180000Y-68119503D03*
X105006339Y-67106864D03*
%TO.N,Net-(U2-Pad6)*%
X64180000Y-65047544D03*
X70180000Y-63820500D03*
X48800954Y-79445000D03*
X117180000Y-40104057D03*
X117180000Y-37270990D03*
%TO.N,Net-(U18-Pad8)*%
X57000954Y-79545000D03*
X68180000Y-67019500D03*
%TO.N,Net-(U14-Pad17)*%
X46244004Y-94188050D03*
%TO.N,Net-(U14-Pad16)*%
X47605617Y-94169235D03*
%TO.N,Net-(U14-Pad15)*%
X48154705Y-95235682D03*
X64635954Y-93310000D03*
%TO.N,Net-(U14-Pad14)*%
X50000954Y-94945000D03*
X65905954Y-93850000D03*
%TO.N,Net-(U14-Pad13)*%
X51000954Y-95945000D03*
X67175954Y-95120000D03*
%TO.N,Net-(U14-Pad12)*%
X68445954Y-96390000D03*
X52000954Y-96945000D03*
%TO.N,Net-(U14-Pad11)*%
X69715954Y-98230000D03*
X53000954Y-97945000D03*
%TO.N,Net-(U17-Pad17)*%
X78812778Y-98946734D03*
%TO.N,Net-(U17-Pad16)*%
X80012230Y-98935681D03*
%TO.N,Net-(U17-Pad15)*%
X81674005Y-98931095D03*
%TO.N,Net-(U17-Pad14)*%
X82873491Y-98924737D03*
%TO.N,Net-(U11-Pad7)*%
X131924299Y-92843647D03*
%TO.N,Net-(U11-Pad2)*%
X122000954Y-97945000D03*
%TO.N,Net-(U5-Pad8)*%
X179119027Y-74897209D03*
X177008602Y-83748602D03*
%TO.N,Net-(U5-Pad11)*%
X181326000Y-77326000D03*
X179294000Y-70976000D03*
X179080500Y-85920000D03*
%TO.N,Net-(U22-Pad1)*%
X158008602Y-41091398D03*
X157180000Y-42920000D03*
X163180000Y-39920000D03*
X155990000Y-46500000D03*
%TO.N,Net-(U6-Pad9)*%
X192080500Y-47920000D03*
X155440000Y-48650000D03*
X192180000Y-50705989D03*
X193180000Y-53920000D03*
X159180000Y-44920000D03*
X189979405Y-44904201D03*
%TO.N,Net-(U18-Pad1)*%
X131008602Y-37091398D03*
X142180000Y-47920000D03*
X143180000Y-43920000D03*
X148180000Y-56920000D03*
X129274810Y-41919262D03*
X131180000Y-41920000D03*
X141180000Y-44920000D03*
X150180000Y-59920000D03*
%TO.N,Net-(U18-Pad10)*%
X187180000Y-51920000D03*
X184180000Y-46920000D03*
X86180000Y-32920000D03*
X186180000Y-59920000D03*
X151180000Y-36920000D03*
X180180000Y-42969500D03*
%TO.N,Net-(U22-Pad4)*%
X197908398Y-57954501D03*
X192180000Y-68920000D03*
X192180000Y-58920000D03*
X198156500Y-51805648D03*
X194780927Y-46404500D03*
%TO.N,Net-(U12-Pad6)*%
X153180000Y-77920000D03*
%TO.N,Net-(U12-Pad11)*%
X169908850Y-98848353D03*
X172180000Y-72920000D03*
X172080500Y-70920000D03*
X172071137Y-67820500D03*
X170980497Y-93920000D03*
X170980497Y-90920000D03*
X170180000Y-72920000D03*
X169980497Y-78920000D03*
X166980497Y-103920000D03*
%TO.N,Net-(U12-Pad3)*%
X155180000Y-75920000D03*
X154180000Y-90920000D03*
X155180000Y-73920000D03*
X155180000Y-85920000D03*
X153179998Y-71920000D03*
%TO.N,Net-(U12-Pad8)*%
X171180000Y-78920000D03*
X172180000Y-93920000D03*
X172180000Y-90920000D03*
X170880997Y-70920000D03*
X171180000Y-98920000D03*
X167180000Y-113920000D03*
X168180000Y-103920000D03*
%TO.N,Net-(U13-Pad6)*%
X186180000Y-97920000D03*
X182180000Y-101920000D03*
X182342000Y-74278000D03*
X180008602Y-104091398D03*
%TO.N,Net-(U13-Pad11)*%
X190180000Y-118920000D03*
X192180000Y-111920000D03*
X197180000Y-76920000D03*
X184180000Y-113920000D03*
X185180000Y-118920000D03*
%TO.N,Net-(U13-Pad3)*%
X177180000Y-93920000D03*
X180310000Y-75040000D03*
X172180000Y-103920000D03*
X178180000Y-95920000D03*
X173180000Y-98920000D03*
X177180000Y-87920000D03*
%TO.N,Net-(U13-Pad8)*%
X191180000Y-119920000D03*
X198180000Y-75920000D03*
X192180000Y-116920000D03*
X185180000Y-120119503D03*
%TO.N,Net-(U15-Pad9)*%
X180180000Y-48920000D03*
X174180000Y-58920000D03*
X174180000Y-52920000D03*
X174180000Y-49967544D03*
X186180000Y-50920000D03*
%TO.N,Net-(U1-Pad2)*%
X91675657Y-83962499D03*
X75897120Y-83922975D03*
%TO.N,Net-(U1-Pad3)*%
X90912088Y-83037421D03*
X78000954Y-82945000D03*
%TO.N,Net-(U1-Pad4)*%
X79000954Y-81945000D03*
X91007122Y-81841689D03*
%TO.N,Net-(U1-Pad5)*%
X80000954Y-80945000D03*
X91996347Y-80892189D03*
%TO.N,Net-(U1-Pad6)*%
X81000954Y-80009500D03*
X91000954Y-79942688D03*
%TO.N,Net-(U1-Pad7)*%
X99847487Y-88894500D03*
X81801451Y-86945000D03*
%TO.N,Net-(U1-Pad8)*%
X101138454Y-88807500D03*
X83000954Y-86945000D03*
%TO.N,Net-(U1-Pad9)*%
X84777603Y-87214098D03*
X102638454Y-88307500D03*
%TD*%
D20*
%TO.N,Net-(U2-Pad1)*%
X129180000Y-36920000D02*
X127879511Y-35619511D01*
X127879511Y-35619511D02*
X107480489Y-35619511D01*
X107480489Y-35619511D02*
X100180000Y-42920000D01*
X100180000Y-42920000D02*
X100180000Y-60120000D01*
X100180000Y-60120000D02*
X99150000Y-61150000D01*
X99150000Y-61150000D02*
X57350000Y-61150000D01*
X57350000Y-61150000D02*
X39091476Y-79408524D01*
X39091476Y-79408524D02*
X39091476Y-79543191D01*
D21*
%TO.N,GND*%
X191080499Y-100195479D02*
X191179511Y-100096467D01*
X90545525Y-78843187D02*
X90484084Y-78904628D01*
X191179511Y-100096467D02*
X191179511Y-100095489D01*
X195680000Y-124937628D02*
X186680000Y-124937628D01*
X122800000Y-46741390D02*
X127180000Y-51121390D01*
X136615965Y-80560011D02*
X136615965Y-85695000D01*
X91456383Y-78843187D02*
X90545525Y-78843187D01*
X115180000Y-61900000D02*
X115180000Y-63031370D01*
X62080500Y-75945000D02*
X62080500Y-69046045D01*
X109500954Y-78910000D02*
X109500954Y-76120000D01*
X125535954Y-78910000D02*
X126555954Y-77890000D01*
X202980000Y-53305000D02*
X204479511Y-54804511D01*
X42540000Y-64770000D02*
X42540000Y-73086196D01*
X204479511Y-78620489D02*
X203180000Y-79920000D01*
X190680489Y-81352628D02*
X192180000Y-81352628D01*
X109500954Y-78910000D02*
X102715954Y-85695000D01*
X42540000Y-73086196D02*
X39681196Y-75945000D01*
X86715954Y-104304500D02*
X87000954Y-104019500D01*
X41285954Y-109695000D02*
X35279501Y-115701453D01*
X177365000Y-52920000D02*
X176980000Y-53305000D01*
X194179511Y-120474441D02*
X191080499Y-117375429D01*
X62080500Y-69046045D02*
X64180000Y-66946545D01*
X125535954Y-78910000D02*
X134965954Y-78910000D01*
X204479511Y-54804511D02*
X204479511Y-78620489D01*
X146020000Y-46760000D02*
X139000000Y-46760000D01*
X124279501Y-80166453D02*
X124279501Y-80375429D01*
X93465954Y-78910000D02*
X93460582Y-78904628D01*
X160180000Y-49920000D02*
X149180000Y-49920000D01*
X86715954Y-109570362D02*
X86715954Y-104304500D01*
X195180000Y-81352628D02*
X186185000Y-81352628D01*
X190680489Y-100595489D02*
X191179511Y-100096467D01*
X191080499Y-117375429D02*
X191080499Y-100195479D01*
X119715954Y-84345000D02*
X119715954Y-85695000D01*
X166880000Y-34146000D02*
X165832000Y-35194000D01*
X90484084Y-78904628D02*
X85541326Y-78904628D01*
X60830000Y-33468630D02*
X61198132Y-33100498D01*
X75500954Y-77945000D02*
X75500954Y-76250000D01*
X35279501Y-115701453D02*
X35279501Y-124791453D01*
X196180000Y-47918389D02*
X195475796Y-48622593D01*
X131300000Y-61920000D02*
X131380000Y-62000000D01*
X75500954Y-76250000D02*
X75555954Y-76195000D01*
X109500954Y-68710416D02*
X109500954Y-76120000D01*
X93465954Y-78910000D02*
X92500954Y-77945000D01*
X94575455Y-80019501D02*
X93465954Y-78910000D01*
X190680489Y-99596467D02*
X190680489Y-81352628D01*
X125535954Y-78910000D02*
X124279501Y-80166453D01*
X190680489Y-100644511D02*
X190680489Y-100595489D01*
X189280000Y-102045000D02*
X190680489Y-100644511D01*
X86778273Y-109632681D02*
X86715954Y-109570362D01*
X196180000Y-41105000D02*
X196180000Y-47918389D01*
X181605000Y-99770000D02*
X182594964Y-98780036D01*
X91517824Y-78904628D02*
X91456383Y-78843187D01*
X131380000Y-62000000D02*
X137500489Y-55879511D01*
X194179511Y-123018747D02*
X194179511Y-120474441D01*
X85541326Y-78904628D02*
X85535954Y-78910000D01*
X75555954Y-76195000D02*
X73618556Y-76195000D01*
X179980000Y-99770000D02*
X181605000Y-99770000D01*
X109610457Y-79019503D02*
X125426451Y-79019503D01*
X126555954Y-77890000D02*
X126555954Y-76195000D01*
X73618556Y-76195000D02*
X73184755Y-76628801D01*
X115180000Y-63031370D02*
X109500954Y-68710416D01*
X85535954Y-78910000D02*
X76465954Y-78910000D01*
X192260630Y-124937628D02*
X194179511Y-123018747D01*
X108391453Y-80019501D02*
X94575455Y-80019501D01*
X137500489Y-55879511D02*
X137500489Y-48259511D01*
X60830000Y-34600000D02*
X60830000Y-33468630D01*
X127180000Y-61920000D02*
X131300000Y-61920000D01*
X92500954Y-77945000D02*
X92500954Y-76250000D01*
X180180000Y-52920000D02*
X177365000Y-52920000D01*
X191179511Y-100095489D02*
X190680489Y-99596467D01*
X109500954Y-78910000D02*
X109610457Y-79019503D01*
X93460582Y-78904628D02*
X91517824Y-78904628D01*
X123635429Y-81019501D02*
X123041453Y-81019501D01*
X163980000Y-53305000D02*
X160565000Y-53305000D01*
X184480000Y-101120000D02*
X185405000Y-102045000D01*
X125180000Y-68920000D02*
X125180000Y-62920000D01*
X127180000Y-51121390D02*
X127180000Y-61920000D01*
X35279501Y-124791453D02*
X30950954Y-129120000D01*
X122800000Y-46660000D02*
X122800000Y-46741390D01*
X185405000Y-102045000D02*
X189280000Y-102045000D01*
X165832000Y-46268000D02*
X163681477Y-48418523D01*
X76465954Y-78910000D02*
X75500954Y-77945000D01*
X125426451Y-79019503D02*
X125535954Y-78910000D01*
X194795000Y-39720000D02*
X196180000Y-41105000D01*
X124279501Y-80375429D02*
X123635429Y-81019501D01*
X123041453Y-81019501D02*
X119715954Y-84345000D01*
X186185000Y-81352628D02*
X186180000Y-81357628D01*
X189680000Y-124937628D02*
X192260630Y-124937628D01*
X61198132Y-33100498D02*
X70060498Y-33100498D01*
X92500954Y-76250000D02*
X92555954Y-76195000D01*
X165832000Y-35194000D02*
X165832000Y-46268000D01*
X70060498Y-33100498D02*
X71450000Y-34490000D01*
X134965954Y-78910000D02*
X136615965Y-80560011D01*
X137500489Y-48259511D02*
X139000000Y-46760000D01*
X149180000Y-49920000D02*
X146020000Y-46760000D01*
X160565000Y-53305000D02*
X160180000Y-52920000D01*
X109500954Y-78910000D02*
X108391453Y-80019501D01*
%TO.N,+5V*%
X148180000Y-43920000D02*
X147293000Y-43033000D01*
X78180000Y-45115000D02*
X78180000Y-54920000D01*
X164180000Y-73920000D02*
X163180000Y-72920000D01*
X176837204Y-97920000D02*
X177008602Y-97748602D01*
X63180000Y-69920000D02*
X66180000Y-66920000D01*
X195360000Y-68545000D02*
X193860489Y-70044511D01*
X147293000Y-43033000D02*
X147080499Y-42820499D01*
X140180000Y-43920000D02*
X136080499Y-39820499D01*
X183859511Y-70044511D02*
X184304511Y-70044511D01*
X37576443Y-61486443D02*
X35710000Y-59620000D01*
X38180000Y-109571779D02*
X31991127Y-115760652D01*
X184304511Y-70044511D02*
X185180000Y-70920000D01*
X62754501Y-77345499D02*
X63180000Y-76920000D01*
X136080499Y-39820499D02*
X124824560Y-39820499D01*
X124824560Y-39820499D02*
X124724571Y-39920488D01*
X164180000Y-71920000D02*
X163180000Y-72920000D01*
X83000000Y-40295000D02*
X78180000Y-45115000D01*
X141279501Y-42820499D02*
X140180000Y-43920000D01*
X145258000Y-39988000D02*
X145258000Y-40998000D01*
X37576443Y-79503295D02*
X37576443Y-61486443D01*
X174180000Y-97920000D02*
X176837204Y-97920000D01*
X169360000Y-68740000D02*
X167180000Y-70920000D01*
X153840000Y-102020000D02*
X160560000Y-102020000D01*
X80710000Y-57450000D02*
X78180000Y-54920000D01*
X167169815Y-96970500D02*
X167169815Y-94782274D01*
X87105000Y-42995000D02*
X87180000Y-42920000D01*
X167180000Y-94792459D02*
X167159040Y-94771499D01*
X87105000Y-57450000D02*
X80710000Y-57450000D01*
X164180000Y-76920000D02*
X164180000Y-73920000D01*
X61879511Y-57034511D02*
X76065489Y-57034511D01*
X151620000Y-104240000D02*
X153840000Y-102020000D01*
X147080499Y-42820499D02*
X141279501Y-42820499D01*
X139300000Y-43920000D02*
X139000000Y-44220000D01*
X169360000Y-68545000D02*
X169360000Y-68740000D01*
X179555000Y-32100000D02*
X149844000Y-32100000D01*
X60380000Y-55535000D02*
X65462536Y-50452464D01*
X76065489Y-57034511D02*
X78180000Y-54920000D01*
X193860489Y-70044511D02*
X183859511Y-70044511D01*
X183859511Y-70044511D02*
X182360000Y-68545000D01*
X38180000Y-102920000D02*
X38180000Y-109571779D01*
X122800000Y-44120000D02*
X122800000Y-41845059D01*
X140180000Y-43920000D02*
X139300000Y-43920000D01*
X167169815Y-94782274D02*
X167159040Y-94771499D01*
X60380000Y-55535000D02*
X61879511Y-57034511D01*
X163180000Y-72920000D02*
X159180000Y-72920000D01*
X165180000Y-70920000D02*
X164180000Y-71920000D01*
X122800000Y-41845059D02*
X124724571Y-39920488D01*
X110180000Y-42920000D02*
X110180000Y-39920000D01*
X145258000Y-40998000D02*
X147293000Y-43033000D01*
X65462536Y-50452464D02*
X65462536Y-40787464D01*
X122180000Y-37268522D02*
X124180000Y-37268522D01*
X63180000Y-71920000D02*
X63180000Y-69920000D01*
X63180000Y-76920000D02*
X63180000Y-71920000D01*
X149844000Y-32100000D02*
X145258000Y-36686000D01*
X167180000Y-95920000D02*
X167180000Y-94792459D01*
X87105000Y-57450000D02*
X87105000Y-42995000D01*
D20*
%TO.N,Net-(J1-Pad3)*%
X30180000Y-115320893D02*
X30180000Y-62080000D01*
X30180000Y-62080000D02*
X38130000Y-54130000D01*
X33180000Y-116920000D02*
X31779107Y-116920000D01*
X38130000Y-54130000D02*
X56280000Y-54130000D01*
X31779107Y-116920000D02*
X30180000Y-115320893D01*
%TO.N,Net-(J1-Pad4)*%
X56673297Y-55079501D02*
X57229501Y-54523297D01*
X57229501Y-42760499D02*
X57240000Y-42750000D01*
X31279031Y-112920000D02*
X31279031Y-62123767D01*
X38323297Y-55079501D02*
X56673297Y-55079501D01*
X31279031Y-62123767D02*
X38323297Y-55079501D01*
X57229501Y-54523297D02*
X57229501Y-42760499D01*
%TO.N,Net-(J1-Pad5)*%
X41180000Y-112327954D02*
X41180000Y-129050954D01*
X42533932Y-110974022D02*
X41180000Y-112327954D01*
X41180000Y-129050954D02*
X41110954Y-129120000D01*
X42555954Y-110974022D02*
X42533932Y-110974022D01*
%TO.N,Net-(J1-Pad6)*%
X43580000Y-111720000D02*
X43650954Y-111790954D01*
X43650954Y-111790954D02*
X43650954Y-129120000D01*
%TO.N,Net-(J1-Pad7)*%
X45180000Y-128109046D02*
X46190954Y-129120000D01*
X45180000Y-112320000D02*
X45180000Y-128109046D01*
%TO.N,Net-(J1-Pad8)*%
X46180000Y-126569046D02*
X48730954Y-129120000D01*
X46180000Y-113120000D02*
X46180000Y-126569046D01*
%TO.N,Net-(J1-Pad9)*%
X47407954Y-113720000D02*
X47580000Y-113720000D01*
X47580000Y-113720000D02*
X47580000Y-125429046D01*
X47580000Y-125429046D02*
X51270954Y-129120000D01*
%TO.N,Net-(J1-Pad10)*%
X49252454Y-124561500D02*
X53810954Y-129120000D01*
X49252454Y-114040000D02*
X49252454Y-124561500D01*
%TO.N,Net-(J1-Pad11)*%
X50268454Y-123037500D02*
X56350954Y-129120000D01*
X50268454Y-114964323D02*
X50268454Y-123037500D01*
%TO.N,Net-(J1-Pad12)*%
X51538454Y-115945000D02*
X51549954Y-115945000D01*
X51538454Y-121767500D02*
X51538454Y-115945000D01*
X58890954Y-129120000D02*
X51538454Y-121767500D01*
%TO.N,Net-(J1-Pad13)*%
X116701453Y-69869501D02*
X137929501Y-69869501D01*
X119307208Y-114271478D02*
X118907209Y-114271478D01*
X83780954Y-116920000D02*
X76555954Y-109695000D01*
X117431478Y-115747208D02*
X117431478Y-116200916D01*
X142580000Y-74520000D02*
X142580000Y-90998686D01*
X110825954Y-75745000D02*
X116701453Y-69869501D01*
X117431478Y-116200916D02*
X116712394Y-116920000D01*
X116712394Y-116920000D02*
X83780954Y-116920000D01*
X142580000Y-90998686D02*
X119307208Y-114271478D01*
X137929501Y-69869501D02*
X142580000Y-74520000D01*
X118907209Y-114271478D02*
X117431478Y-115747208D01*
X110825954Y-76195000D02*
X110825954Y-75745000D01*
%TO.N,Net-(J1-Pad14)*%
X84169258Y-116120000D02*
X77961875Y-109912617D01*
X116731968Y-115857461D02*
X116469429Y-116120000D01*
X112095954Y-76195000D02*
X112095954Y-75745000D01*
X112095954Y-75745000D02*
X117271943Y-70569011D01*
X141880489Y-90708940D02*
X119017462Y-113571967D01*
X141880489Y-74809747D02*
X141880489Y-90708940D01*
X117271943Y-70569011D02*
X137639753Y-70569011D01*
X116731967Y-115457462D02*
X116731968Y-115857461D01*
X137639753Y-70569011D02*
X141880489Y-74809747D01*
X77961875Y-109912617D02*
X77961875Y-109559079D01*
X118207698Y-113981732D02*
X116731967Y-115457462D01*
X119017462Y-113571967D02*
X118617461Y-113571968D01*
X118617461Y-113571968D02*
X118207698Y-113981732D01*
X116469429Y-116120000D02*
X84169258Y-116120000D01*
%TO.N,Net-(J1-Pad15)*%
X117842432Y-71268522D02*
X137350006Y-71268522D01*
X116032455Y-115320000D02*
X84358516Y-115320000D01*
X141180978Y-90419172D02*
X118727693Y-112872457D01*
X79152854Y-110114338D02*
X79152854Y-109701820D01*
X84358516Y-115320000D02*
X79152854Y-110114338D01*
X137350006Y-71268522D02*
X141180978Y-75099494D01*
X116032455Y-115167718D02*
X116032455Y-115320000D01*
X113365954Y-76195000D02*
X113365954Y-75745000D01*
X118327712Y-112872458D02*
X117917949Y-113282224D01*
X118727693Y-112872457D02*
X118327712Y-112872458D01*
X113365954Y-75745000D02*
X117842432Y-71268522D01*
X141180978Y-75099494D02*
X141180978Y-90419172D01*
X117917949Y-113282224D02*
X116032455Y-115167718D01*
%TO.N,Net-(J1-Pad16)*%
X115842706Y-114368209D02*
X115842703Y-114368209D01*
X115842703Y-114368209D02*
X115690915Y-114520000D01*
X140481467Y-90088848D02*
X118397368Y-112172947D01*
X118397368Y-112172947D02*
X118037962Y-112172949D01*
X85190954Y-114520000D02*
X80365954Y-109695000D01*
X118037962Y-112172949D02*
X117218437Y-112992479D01*
X117218437Y-112992479D02*
X115842706Y-114368209D01*
X115690915Y-114520000D02*
X85190954Y-114520000D01*
X118412920Y-71968034D02*
X137060260Y-71968034D01*
X140481467Y-75389241D02*
X140481467Y-90088848D01*
X114635954Y-75745000D02*
X118412920Y-71968034D01*
X137060260Y-71968034D02*
X140481467Y-75389241D01*
X114635954Y-76195000D02*
X114635954Y-75745000D01*
%TO.N,Net-(J1-Pad17)*%
X115905954Y-76195000D02*
X115905954Y-75745000D01*
X139781956Y-75678988D02*
X139781956Y-89732546D01*
X85733750Y-113720000D02*
X81672352Y-109658602D01*
X136770513Y-72667545D02*
X139781956Y-75678988D01*
X117487391Y-111473438D02*
X116518926Y-112441903D01*
X116518926Y-112441903D02*
X116518926Y-112702724D01*
X139781956Y-89732546D02*
X118041064Y-111473438D01*
X71590954Y-129120000D02*
X71590954Y-122709046D01*
X116518926Y-112702724D02*
X115501651Y-113720000D01*
X71590954Y-122709046D02*
X71879511Y-122420489D01*
X115501651Y-113720000D02*
X85733750Y-113720000D01*
X118041064Y-111473438D02*
X117487391Y-111473438D01*
X115905954Y-75745000D02*
X118983409Y-72667545D01*
X118983409Y-72667545D02*
X136770513Y-72667545D01*
%TO.N,Net-(J1-Pad18)*%
X136534199Y-73420489D02*
X139082445Y-75968735D01*
X117197643Y-110773928D02*
X115051571Y-112920000D01*
X119219723Y-73420489D02*
X136534199Y-73420489D01*
X86130954Y-112920000D02*
X82978750Y-109767796D01*
X115051571Y-112920000D02*
X86130954Y-112920000D01*
X139082445Y-89028298D02*
X117336816Y-110773927D01*
X139082445Y-75968735D02*
X139082445Y-89028298D01*
X117175954Y-75464258D02*
X119219723Y-73420489D01*
X117336816Y-110773927D02*
X117197643Y-110773928D01*
X82978750Y-109767796D02*
X82978750Y-109622204D01*
X117175954Y-76195000D02*
X117175954Y-75464258D01*
X74180000Y-124120000D02*
X74130954Y-124169046D01*
X74130954Y-124169046D02*
X74130954Y-129120000D01*
%TO.N,Net-(J1-Pad19)*%
X76670954Y-125210954D02*
X76580000Y-125120000D01*
X116907892Y-110074419D02*
X114761822Y-112220489D01*
X114761822Y-112220489D02*
X86420701Y-112220489D01*
X138382934Y-88717066D02*
X117025582Y-110074418D01*
X136244452Y-74120000D02*
X138382934Y-76258482D01*
X119509470Y-74120000D02*
X136244452Y-74120000D01*
X76670954Y-129120000D02*
X76670954Y-125210954D01*
X86420701Y-112220489D02*
X84212352Y-110012140D01*
X84212352Y-110012140D02*
X84212352Y-109658602D01*
X118445954Y-75183516D02*
X119509470Y-74120000D01*
X138382934Y-76258482D02*
X138382934Y-88717066D01*
X118445954Y-76195000D02*
X118445954Y-75183516D01*
X117025582Y-110074418D02*
X116907892Y-110074419D01*
%TO.N,Net-(J1-Pad20)*%
X119780000Y-76120000D02*
X119780000Y-75120000D01*
X119780000Y-75120000D02*
X119980000Y-74920000D01*
X79210954Y-125889046D02*
X79308602Y-125791398D01*
X119980000Y-74920000D02*
X136055194Y-74920000D01*
X114472078Y-111520978D02*
X87323775Y-111520979D01*
X137680489Y-76545295D02*
X137680489Y-88430253D01*
X116735833Y-109374909D02*
X116618147Y-109374909D01*
X136055194Y-74920000D02*
X137680489Y-76545295D01*
X79210954Y-129120000D02*
X79210954Y-125889046D01*
X137680489Y-88430253D02*
X116735833Y-109374909D01*
X116618147Y-109374909D02*
X114472078Y-111520978D01*
X87323775Y-111520979D02*
X85471875Y-109669079D01*
%TO.N,Net-(J1-Pad21)*%
X81750954Y-129120000D02*
X81750954Y-126890954D01*
X78778044Y-123918044D02*
X75322520Y-123918044D01*
X42234206Y-88841577D02*
X59629183Y-88841574D01*
X81750954Y-126890954D02*
X78778044Y-123918044D01*
X59224305Y-111721649D02*
X55702409Y-111721649D01*
X69000954Y-110945000D02*
X69000954Y-111343358D01*
X60000954Y-110945000D02*
X69000954Y-110945000D01*
X69000954Y-111343358D02*
X69020570Y-111362974D01*
X55702409Y-111721649D02*
X37498509Y-93517749D01*
X59629183Y-88841574D02*
X73525760Y-74945000D01*
X59224305Y-111214098D02*
X59224305Y-111721649D01*
X37498509Y-93517749D02*
X37498509Y-89861509D01*
X73525760Y-74945000D02*
X93801451Y-74945000D01*
X38518441Y-88841577D02*
X42234206Y-88841577D01*
X37498509Y-89861509D02*
X38518441Y-88841577D01*
X75322520Y-123918044D02*
X70000954Y-118596478D01*
X59224305Y-111721649D02*
X60000954Y-110945000D01*
%TO.N,Net-(J1-Pad22)*%
X79591567Y-123218532D02*
X75612265Y-123218532D01*
X36798999Y-89571761D02*
X36798998Y-93807496D01*
X60622897Y-111945000D02*
X66658156Y-111945000D01*
X95000954Y-73945000D02*
X73536502Y-73945000D01*
X67025631Y-112312475D02*
X69832484Y-112312475D01*
X73536502Y-73945000D02*
X59339435Y-88142064D01*
X75612265Y-123218532D02*
X71005990Y-118612257D01*
X84290954Y-129120000D02*
X84290954Y-127917919D01*
X36798998Y-93807496D02*
X55835939Y-112844437D01*
X59339435Y-88142064D02*
X38228694Y-88142066D01*
X69832484Y-112312475D02*
X70572676Y-111572283D01*
X38228694Y-88142066D02*
X36798999Y-89571761D01*
X59723460Y-112844437D02*
X60622897Y-111945000D01*
X55835939Y-112844437D02*
X59723460Y-112844437D01*
X66658156Y-111945000D02*
X67025631Y-112312475D01*
X71005990Y-118612257D02*
X71005990Y-117941719D01*
X95000954Y-74945000D02*
X95000954Y-73945000D01*
X84290954Y-127917919D02*
X79591567Y-123218532D01*
%TO.N,Net-(J1-Pad23)*%
X60065212Y-113880606D02*
X61000892Y-112944926D01*
X71051945Y-113093512D02*
X66817410Y-113093512D01*
X55882850Y-113880606D02*
X60065212Y-113880606D01*
X61301307Y-112644511D02*
X61000892Y-112944926D01*
X76580474Y-122320000D02*
X80030954Y-122320000D01*
X53335788Y-87442554D02*
X37938947Y-87442555D01*
X59049689Y-87442553D02*
X53335788Y-87442554D01*
X94498510Y-72442556D02*
X74049688Y-72442556D01*
X37938947Y-87442555D02*
X36099488Y-89282014D01*
X80030954Y-122320000D02*
X86830954Y-129120000D01*
X36099488Y-94097243D02*
X55882850Y-113880606D01*
X74049688Y-72442556D02*
X59049689Y-87442553D01*
X66368409Y-112644511D02*
X61301307Y-112644511D01*
X72200457Y-111945000D02*
X71051945Y-113093512D01*
X72205488Y-117945014D02*
X76580474Y-122320000D01*
X36099488Y-89282014D02*
X36099488Y-94097243D01*
X66817410Y-113093512D02*
X66368409Y-112644511D01*
X96000954Y-73945000D02*
X94498510Y-72442556D01*
%TO.N,Net-(J1-Pad24)*%
X61477632Y-113853818D02*
X61783654Y-113853818D01*
X35399977Y-94386990D02*
X55606996Y-114594009D01*
X77676444Y-121620490D02*
X81619414Y-121620490D01*
X55606996Y-114594009D02*
X60737441Y-114594009D01*
X95775566Y-71743045D02*
X73759941Y-71743045D01*
X68973743Y-114293523D02*
X67028161Y-114293522D01*
X89118924Y-129120000D02*
X89370954Y-129120000D01*
X58759943Y-86743042D02*
X37649200Y-86743044D01*
X66328653Y-113594012D02*
X64671450Y-113594011D01*
X72152932Y-113793022D02*
X69474245Y-113793022D01*
X96989094Y-72956573D02*
X95775566Y-71743045D01*
X64671450Y-113594011D02*
X64421461Y-113344022D01*
X74000954Y-117945000D02*
X77676444Y-121620490D01*
X37649200Y-86743044D02*
X35399977Y-88992267D01*
X67028161Y-114293522D02*
X66328653Y-113594012D01*
X69474245Y-113793022D02*
X68973743Y-114293523D01*
X62293450Y-113344022D02*
X61783654Y-113853818D01*
X64421461Y-113344022D02*
X62293450Y-113344022D01*
X81619414Y-121620490D02*
X89118924Y-129120000D01*
X35399977Y-88992267D02*
X35399977Y-94386990D01*
X73759941Y-71743045D02*
X58759943Y-86743042D01*
X60737441Y-114594009D02*
X61477632Y-113853818D01*
X73000954Y-112945000D02*
X72152932Y-113793022D01*
%TO.N,Net-(J1-Pad25)*%
X77375954Y-119320000D02*
X78976932Y-120920978D01*
X68683995Y-114993033D02*
X66738412Y-114993032D01*
X61380726Y-115293520D02*
X61630715Y-115043531D01*
X81909160Y-120920978D02*
X88006714Y-127018532D01*
X69263489Y-114993034D02*
X68683995Y-114993033D01*
X64381702Y-114293521D02*
X64131714Y-114043533D01*
X34700466Y-88702520D02*
X34700466Y-94676737D01*
X64131714Y-114043533D02*
X62936849Y-114043533D01*
X73470194Y-71043534D02*
X58470197Y-86043531D01*
X69763992Y-114492532D02*
X69263489Y-114993034D01*
X96772281Y-71043534D02*
X73470194Y-71043534D01*
X66038905Y-114293523D02*
X64381702Y-114293521D01*
X62936849Y-114043533D02*
X61936851Y-115043531D01*
X58470197Y-86043531D02*
X52756296Y-86043532D01*
X97847588Y-72118841D02*
X96772281Y-71043534D01*
X52756296Y-86043532D02*
X37359453Y-86043533D01*
X74000954Y-113945000D02*
X73453422Y-114492532D01*
X77380000Y-119320000D02*
X77375954Y-119320000D01*
X37359453Y-86043533D02*
X34700466Y-88702520D01*
X77375954Y-119320000D02*
X76000954Y-117945000D01*
X61936851Y-115043531D02*
X61630715Y-115043531D01*
X34700466Y-94676737D02*
X55317249Y-115293520D01*
X88006714Y-127018532D02*
X89809486Y-127018532D01*
X89809486Y-127018532D02*
X91910954Y-129120000D01*
X73453422Y-114492532D02*
X69763992Y-114492532D01*
X66738412Y-114993032D02*
X66038905Y-114293523D01*
X78976932Y-120920978D02*
X81909160Y-120920978D01*
X55317249Y-115293520D02*
X61380726Y-115293520D01*
%TO.N,Net-(J1-Pad26)*%
X70053738Y-115192043D02*
X69553234Y-115692545D01*
X73180447Y-70344023D02*
X97765811Y-70344023D01*
X69553234Y-115692545D02*
X66448663Y-115692542D01*
X63330176Y-114993034D02*
X63157284Y-115165926D01*
X97765811Y-70344023D02*
X98641138Y-71219350D01*
X88296460Y-126319021D02*
X81697439Y-119720000D01*
X55027503Y-115993031D02*
X34000954Y-94966484D01*
X81697439Y-119720000D02*
X79775954Y-119720000D01*
X34000954Y-94966484D02*
X34000954Y-88412774D01*
X94450954Y-129120000D02*
X91649976Y-126319022D01*
X78000954Y-117945000D02*
X79775954Y-119720000D01*
X65749158Y-114993034D02*
X63330176Y-114993034D01*
X79775954Y-119720000D02*
X79780000Y-119720000D01*
X66448663Y-115692542D02*
X65749158Y-114993034D01*
X58999976Y-84524492D02*
X73180447Y-70344023D01*
X62330179Y-115993031D02*
X55027503Y-115993031D01*
X91649976Y-126319022D02*
X88296460Y-126319021D01*
X34000954Y-88412774D02*
X37069706Y-85344022D01*
X76000954Y-114945000D02*
X75753911Y-115192043D01*
X37069706Y-85344022D02*
X58180451Y-85344020D01*
X58180451Y-85344020D02*
X58999976Y-84524492D01*
X75753911Y-115192043D02*
X70053738Y-115192043D01*
X63157284Y-115165926D02*
X62330179Y-115993031D01*
%TO.N,Net-(J1-Pad27)*%
X54737754Y-116692542D02*
X33000954Y-94955742D01*
X93490465Y-125619511D02*
X96990954Y-129120000D01*
X58300465Y-84234746D02*
X72890701Y-69644511D01*
X80761513Y-117794816D02*
X88586208Y-125619511D01*
X72890701Y-69644511D02*
X98736491Y-69644511D01*
X88586208Y-125619511D02*
X93490465Y-125619511D01*
X78000954Y-115945000D02*
X70290038Y-115945000D01*
X33000954Y-88423516D02*
X36779959Y-84644511D01*
X69842986Y-116392052D02*
X66158914Y-116392052D01*
X63325680Y-116692542D02*
X54737754Y-116692542D01*
X98736491Y-69644511D02*
X99624617Y-70532637D01*
X79808342Y-117794816D02*
X80761513Y-117794816D01*
X70290038Y-115945000D02*
X69842986Y-116392052D01*
X65746582Y-115979720D02*
X64038502Y-115979720D01*
X36779959Y-84644511D02*
X57890702Y-84644510D01*
X57890702Y-84644510D02*
X58300465Y-84234746D01*
X33000954Y-94955742D02*
X33000954Y-88423516D01*
X66158914Y-116392052D02*
X65746582Y-115979720D01*
X64038502Y-115979720D02*
X63325680Y-116692542D01*
%TO.N,Net-(J1-Pad28)*%
X36490212Y-83945000D02*
X57600954Y-83945000D01*
X79315360Y-116945000D02*
X70279294Y-116945000D01*
X57600954Y-83945000D02*
X72600954Y-68945000D01*
X70132726Y-117091567D02*
X65147521Y-117091567D01*
X32000954Y-94945000D02*
X32000954Y-88434258D01*
X64553901Y-117392053D02*
X54448007Y-117392053D01*
X88875954Y-124920000D02*
X80801269Y-116845315D01*
X99530954Y-129120000D02*
X99380000Y-129120000D01*
X99658157Y-68945000D02*
X100185506Y-69472349D01*
X32000954Y-88434258D02*
X36490212Y-83945000D01*
X79415045Y-116845315D02*
X79315360Y-116945000D01*
X70279294Y-116945000D02*
X70132726Y-117091567D01*
X65147521Y-117091567D02*
X65000954Y-116945000D01*
X65000954Y-116945000D02*
X64553901Y-117392053D01*
X72600954Y-68945000D02*
X99658157Y-68945000D01*
X54448007Y-117392053D02*
X32000954Y-94945000D01*
X95180000Y-124920000D02*
X88875954Y-124920000D01*
X99380000Y-129120000D02*
X95180000Y-124920000D01*
X80801269Y-116845315D02*
X79415045Y-116845315D01*
%TO.N,Net-(J1-Pad29)*%
X102070954Y-129120000D02*
X96696444Y-123745490D01*
X96696444Y-123745490D02*
X96605490Y-123745490D01*
%TO.N,Net-(J1-Pad30)*%
X104610954Y-129120000D02*
X98450505Y-122959551D01*
X98450505Y-122959551D02*
X97799075Y-122959551D01*
%TO.N,Net-(J1-Pad31)*%
X99879555Y-121848601D02*
X98251399Y-121848601D01*
X106950954Y-129120000D02*
X106950954Y-128995000D01*
X107150954Y-129120000D02*
X99879555Y-121848601D01*
%TO.N,Net-(J1-Pad32)*%
X101392977Y-120822023D02*
X98877977Y-120822023D01*
X109690954Y-129120000D02*
X101392977Y-120822023D01*
%TO.N,Net-(J1-Pad33)*%
X102561578Y-119450624D02*
X98849376Y-119450624D01*
X112230954Y-129120000D02*
X102561578Y-119450624D01*
%TO.N,Net-(J1-Pad34)*%
X104096908Y-118445954D02*
X99905954Y-118445954D01*
X114770954Y-129120000D02*
X104096908Y-118445954D01*
%TO.N,Net-(J1-Pad35)*%
X107310954Y-119120000D02*
X106180000Y-119120000D01*
X117310954Y-129120000D02*
X107310954Y-119120000D01*
%TO.N,Net-(J1-Pad36)*%
X108850954Y-118120000D02*
X107380000Y-118120000D01*
X119850954Y-129120000D02*
X108850954Y-118120000D01*
%TO.N,/WE_F*%
X53000954Y-79545000D02*
X53000954Y-74946416D01*
X60180000Y-66920000D02*
X60180000Y-65920000D01*
X53000954Y-74946416D02*
X53000954Y-74099046D01*
X53000954Y-74099046D02*
X60180000Y-66920000D01*
%TO.N,/WE_R*%
X51000954Y-73899543D02*
X58980497Y-65920000D01*
X51000954Y-79545000D02*
X51000954Y-73899543D01*
%TO.N,Net-(R1-Pad2)*%
X174580000Y-79920000D02*
X172580000Y-77920000D01*
X172580000Y-77920000D02*
X159180000Y-77920000D01*
X159180000Y-77920000D02*
X157380000Y-79720000D01*
X157380000Y-79720000D02*
X157380000Y-79920000D01*
%TO.N,Net-(R2-Pad2)*%
X169688199Y-91920000D02*
X173180000Y-91920000D01*
X177736204Y-94970499D02*
X179772800Y-94970499D01*
X184494406Y-96920000D02*
X184756778Y-96657628D01*
X169081496Y-92526703D02*
X169688199Y-91920000D01*
X169081496Y-97318993D02*
X169081496Y-92526703D01*
X168180000Y-98220489D02*
X169081496Y-97318993D01*
X179772800Y-94970499D02*
X181722301Y-96920000D01*
X165469747Y-98220489D02*
X168180000Y-98220489D01*
X174580000Y-87540000D02*
X173180000Y-88940000D01*
X181722301Y-96920000D02*
X184494406Y-96920000D01*
X176049075Y-96657628D02*
X177736204Y-94970499D01*
X173180000Y-88940000D02*
X173180000Y-95668498D01*
X161695000Y-87540000D02*
X162180000Y-88025000D01*
X162180000Y-94930742D02*
X165469747Y-98220489D01*
X184756778Y-96657628D02*
X187827500Y-96657628D01*
X157380000Y-87540000D02*
X161695000Y-87540000D01*
X162180000Y-88025000D02*
X162180000Y-94930742D01*
X174169130Y-96657628D02*
X176049075Y-96657628D01*
X173180000Y-95668498D02*
X174169130Y-96657628D01*
%TO.N,Net-(R3-Pad2)*%
X169180000Y-88440000D02*
X169180000Y-79462301D01*
X178829011Y-89249011D02*
X178829011Y-87011309D01*
X178130999Y-79860257D02*
X175190742Y-76920000D01*
X182200000Y-92620000D02*
X178829011Y-89249011D01*
X165000000Y-92620000D02*
X169180000Y-88440000D01*
X183697628Y-94117628D02*
X182200000Y-92620000D01*
X175190742Y-76920000D02*
X169180000Y-76920000D01*
X168780994Y-79063295D02*
X168780994Y-78920000D01*
X187827500Y-94117628D02*
X183697628Y-94117628D01*
X169180000Y-79462301D02*
X168780994Y-79063295D01*
X178829011Y-87011309D02*
X178130999Y-86313297D01*
X178130999Y-86313297D02*
X178130999Y-79860257D01*
%TO.N,Net-(R4-Pad2)*%
X179180000Y-79920000D02*
X175180000Y-75920000D01*
X186180000Y-83897628D02*
X183302372Y-83897628D01*
X168180000Y-81820000D02*
X168180000Y-80920000D01*
X179180000Y-81587944D02*
X179180000Y-79920000D01*
X182200000Y-84607944D02*
X179180000Y-81587944D01*
X165000000Y-85000000D02*
X168180000Y-81820000D01*
X182200000Y-85000000D02*
X182200000Y-84607944D01*
X175180000Y-75920000D02*
X168180000Y-75920000D01*
X183302372Y-83897628D02*
X182200000Y-85000000D01*
%TO.N,Net-(R7-Pad2)*%
X180180000Y-101920000D02*
X181505979Y-103245979D01*
X183406480Y-103245979D02*
X184180001Y-104019500D01*
X184180000Y-111920000D02*
X184180000Y-106920000D01*
X174180000Y-101920000D02*
X180180000Y-101920000D01*
X187827500Y-115197628D02*
X187457628Y-115197628D01*
X157380000Y-105295000D02*
X158627798Y-105295000D01*
X162002798Y-101920000D02*
X174180000Y-101920000D01*
X158627798Y-105295000D02*
X162002798Y-101920000D01*
X187457628Y-115197628D02*
X184180000Y-111920000D01*
X181505979Y-103245979D02*
X183406480Y-103245979D01*
%TO.N,Net-(R8-Pad2)*%
X174180000Y-102920000D02*
X178180000Y-102920000D01*
X181216231Y-103945489D02*
X182558987Y-103945489D01*
X163309974Y-102869501D02*
X174129501Y-102869501D01*
X157380000Y-112915000D02*
X163309974Y-106985026D01*
X174129501Y-102869501D02*
X174180000Y-102920000D01*
X178180000Y-102920000D02*
X176480489Y-104619511D01*
X163309974Y-106985026D02*
X163309974Y-102869501D01*
X185129501Y-106516003D02*
X185129501Y-109959629D01*
X178180000Y-102920000D02*
X180190742Y-102920000D01*
X182558987Y-103945489D02*
X185129501Y-106516003D01*
X176480489Y-104619511D02*
X176480489Y-110814511D01*
X180190742Y-102920000D02*
X181216231Y-103945489D01*
X176480489Y-110814511D02*
X174380000Y-112915000D01*
X185129501Y-109959629D02*
X187827500Y-112657628D01*
%TO.N,Net-(U4-Pad6)*%
X162429258Y-66005000D02*
X163980000Y-66005000D01*
X153980497Y-73776705D02*
X157163181Y-70594021D01*
X153980497Y-75920000D02*
X153980497Y-73776705D01*
X157163181Y-70594021D02*
X157840237Y-70594021D01*
X157840237Y-70594021D02*
X162429258Y-66005000D01*
%TO.N,Net-(U4-Pad11)*%
X165000000Y-87540000D02*
X162180000Y-84720000D01*
X162180000Y-84720000D02*
X162180000Y-79920000D01*
X162180000Y-75920000D02*
X162180000Y-74019500D01*
%TO.N,Net-(U4-Pad3)*%
X156379503Y-75920000D02*
X156379503Y-73920000D01*
X156379503Y-73920000D02*
X161754503Y-68545000D01*
X161754503Y-68545000D02*
X163980000Y-68545000D01*
%TO.N,Net-(U4-Pad8)*%
X160180000Y-75920000D02*
X160180000Y-74019500D01*
X163180000Y-87920000D02*
X162180000Y-86920000D01*
X163180000Y-92920000D02*
X163180000Y-87920000D01*
X162180000Y-86920000D02*
X160180000Y-84920000D01*
X160180000Y-84920000D02*
X160180000Y-79920000D01*
%TO.N,Net-(U5-Pad6)*%
X174580000Y-92620000D02*
X176059101Y-91140899D01*
X176730540Y-72961873D02*
X176730540Y-74772664D01*
X176059101Y-81708845D02*
X176061341Y-81706605D01*
X176059101Y-91140899D02*
X176059101Y-81708845D01*
X176616326Y-72847659D02*
X176730540Y-72961873D01*
%TO.N,Net-(U5-Pad3)*%
X177780357Y-73137209D02*
X177915062Y-73271914D01*
X177915062Y-73271914D02*
X177915062Y-75036210D01*
%TO.N,Net-(U6-Pad10)*%
X163980000Y-55845000D02*
X161255000Y-55845000D01*
X160180000Y-56920000D02*
X159180000Y-56920000D01*
X161255000Y-55845000D02*
X160180000Y-56920000D01*
%TO.N,Net-(U6-Pad3)*%
X189980000Y-60925000D02*
X188129501Y-59074501D01*
X188129501Y-51526703D02*
X188082574Y-51479776D01*
X188180000Y-43920000D02*
X188180000Y-47885570D01*
X188129501Y-59074501D02*
X188129501Y-51526703D01*
X163980000Y-63465000D02*
X157550489Y-69894511D01*
X188082574Y-51230518D02*
X188129500Y-51183592D01*
X188082574Y-51479776D02*
X188082574Y-51230518D01*
X156205489Y-69894511D02*
X155180000Y-70920000D01*
X157550489Y-69894511D02*
X156205489Y-69894511D01*
X154175990Y-39925510D02*
X150219287Y-39925510D01*
X150180000Y-44920000D02*
X150180000Y-42920000D01*
X150219287Y-39925510D02*
X149967859Y-40176938D01*
X153180000Y-47920000D02*
X150180000Y-44920000D01*
X154180000Y-39921500D02*
X154175990Y-39925510D01*
%TO.N,Net-(U11-Pad3)*%
X124000954Y-96945000D02*
X124172352Y-97116398D01*
X115275954Y-96945000D02*
X124000954Y-96945000D01*
X108950954Y-90620000D02*
X115275954Y-96945000D01*
%TO.N,Net-(U11-Pad8)*%
X134000954Y-90945000D02*
X134000954Y-89945000D01*
X120235465Y-91844511D02*
X133101443Y-91844511D01*
X133101443Y-91844511D02*
X134000954Y-90945000D01*
X119010954Y-90620000D02*
X120235465Y-91844511D01*
%TO.N,Net-(U11-Pad9)*%
X123710954Y-87920000D02*
X121010954Y-90620000D01*
X135180000Y-87920000D02*
X123710954Y-87920000D01*
%TO.N,Net-(U11-Pad4)*%
X116275954Y-95945000D02*
X126000954Y-95945000D01*
X110950954Y-90620000D02*
X116275954Y-95945000D01*
X126000954Y-95945000D02*
X126172352Y-96116398D01*
%TO.N,Net-(U11-Pad5)*%
X117275954Y-94945000D02*
X128000954Y-94945000D01*
X128000954Y-94945000D02*
X128172352Y-95116398D01*
X112950954Y-90620000D02*
X117275954Y-94945000D01*
%TO.N,Net-(U11-Pad6)*%
X118275954Y-93945000D02*
X130000954Y-93945000D01*
X130000954Y-93945000D02*
X130172352Y-94116398D01*
X114950954Y-90620000D02*
X118275954Y-93945000D01*
%TO.N,Net-(U15-Pad3)*%
X174185000Y-60925000D02*
X172980497Y-59720497D01*
X172980497Y-59720497D02*
X172980497Y-52920000D01*
X172180000Y-46044641D02*
X172180000Y-50053846D01*
X176980000Y-60925000D02*
X174185000Y-60925000D01*
X172055359Y-45920000D02*
X172180000Y-46044641D01*
X172180000Y-50053846D02*
X172016313Y-50217533D01*
%TO.N,Net-(U15-Pad8)*%
X200630000Y-52180000D02*
X200122000Y-51672000D01*
X200122000Y-48878000D02*
X200122000Y-46338000D01*
X197328000Y-37173000D02*
X192255000Y-32100000D01*
X200122000Y-46338000D02*
X197328000Y-43544000D01*
X197328000Y-43544000D02*
X197328000Y-37173000D01*
X200630000Y-54720000D02*
X200630000Y-52180000D01*
%TO.N,Net-(U16-Pad6)*%
X199106000Y-58022000D02*
X199106000Y-50910000D01*
X199106000Y-50910000D02*
X198090000Y-49894000D01*
X180180000Y-68306000D02*
X183743501Y-71869501D01*
X178024000Y-41004000D02*
X178024000Y-37702000D01*
X178024000Y-37702000D02*
X181154175Y-34571825D01*
X196942499Y-71869501D02*
X199106000Y-69706000D01*
X188438000Y-42020000D02*
X179040000Y-42020000D01*
X199106000Y-69706000D02*
X199106000Y-66658000D01*
X184635000Y-32100000D02*
X183104000Y-33631000D01*
X180180000Y-59045000D02*
X180180000Y-68306000D01*
X193518000Y-47100000D02*
X188438000Y-42020000D01*
X176980000Y-55845000D02*
X180180000Y-59045000D01*
X183743501Y-71869501D02*
X196942499Y-71869501D01*
X181154175Y-34571825D02*
X181154175Y-34409378D01*
X179040000Y-42020000D02*
X178024000Y-41004000D01*
X183104000Y-33631000D02*
X183104000Y-34466498D01*
%TO.N,Net-(U17-Pad13)*%
X84950954Y-90620000D02*
X84072120Y-91498834D01*
X84072120Y-91498834D02*
X84072120Y-98970500D01*
%TO.N,Net-(U17-Pad12)*%
X86950954Y-90620000D02*
X85809868Y-91761086D01*
X85809868Y-91761086D02*
X85809868Y-98803154D01*
%TO.N,Net-(U17-Pad11)*%
X87000954Y-98945000D02*
X87000954Y-92570000D01*
X87000954Y-92570000D02*
X88950954Y-90620000D01*
%TO.N,Net-(U18-Pad3)*%
X58189501Y-50105499D02*
X58189501Y-42485499D01*
X65818987Y-37680489D02*
X67685489Y-37680489D01*
X60380000Y-47915000D02*
X63180000Y-45115000D01*
X63180000Y-40319476D02*
X65818987Y-37680489D01*
X63180000Y-45115000D02*
X63180000Y-40319476D01*
X58189501Y-42485499D02*
X60380000Y-40295000D01*
X62180000Y-58920000D02*
X59180000Y-58920000D01*
X58180000Y-57920000D02*
X58180000Y-50115000D01*
X58180000Y-50115000D02*
X60380000Y-47915000D01*
X62008602Y-66091398D02*
X62008602Y-65748602D01*
X59180000Y-58920000D02*
X58180000Y-57920000D01*
X67685489Y-37680489D02*
X75380000Y-45375000D01*
X55000954Y-73099046D02*
X62008602Y-66091398D01*
X58180000Y-50115000D02*
X58189501Y-50105499D01*
X55000954Y-79545000D02*
X55000954Y-73099046D01*
%TO.N,/~{WE1}*%
X108508602Y-40233072D02*
X108521185Y-40220489D01*
X76180000Y-101920000D02*
X48931908Y-101920000D01*
X109753415Y-38270988D02*
X144510933Y-38270988D01*
X107180000Y-78920000D02*
X107180000Y-44920000D01*
X124204395Y-83895605D02*
X124204395Y-81960340D01*
X76385456Y-100920000D02*
X76385456Y-101714544D01*
X151314244Y-38022499D02*
X153625297Y-38022499D01*
X147192899Y-38335012D02*
X147255423Y-38272489D01*
X118180000Y-101920000D02*
X120180000Y-99920000D01*
X160129501Y-44526703D02*
X160129501Y-47870999D01*
X104350000Y-54470000D02*
X105150000Y-53670000D01*
X76385456Y-101714544D02*
X76180000Y-101920000D01*
X157615305Y-42040899D02*
X157643697Y-42040899D01*
X157643697Y-42040899D02*
X160129501Y-44526703D01*
X144510933Y-38270988D02*
X144574957Y-38335012D01*
X107180000Y-44920000D02*
X107980000Y-44120000D01*
X144574957Y-38335012D02*
X147192899Y-38335012D01*
X157059101Y-41484695D02*
X157615305Y-42040899D01*
X107980000Y-44120000D02*
X115180000Y-44120000D01*
X153625297Y-38022499D02*
X157059101Y-41456303D01*
X48931908Y-101920000D02*
X42555954Y-95544046D01*
X109503915Y-38021488D02*
X109753415Y-38270988D01*
X108508602Y-43591398D02*
X108508602Y-40233072D01*
X147255423Y-38272489D02*
X151064254Y-38272489D01*
X123180000Y-84920000D02*
X124204395Y-83895605D01*
X107180000Y-44920000D02*
X108508602Y-43591398D01*
X157059101Y-41456303D02*
X157059101Y-41484695D01*
X76180000Y-101920000D02*
X118180000Y-101920000D01*
X151064254Y-38272489D02*
X151314244Y-38022499D01*
X160129501Y-47870999D02*
X159180000Y-48820500D01*
X157704000Y-36432000D02*
X155215796Y-36432000D01*
X104350000Y-56060000D02*
X104350000Y-54470000D01*
X155215796Y-36432000D02*
X153625297Y-38022499D01*
%TO.N,/~{WE2}*%
X106129501Y-40970499D02*
X108129012Y-38970988D01*
X109786703Y-38970499D02*
X144221186Y-38970499D01*
X93280954Y-99920000D02*
X93555954Y-100195000D01*
X161006000Y-38210000D02*
X156434000Y-38210000D01*
X117905000Y-100195000D02*
X119180000Y-98920000D01*
X149574562Y-41126439D02*
X150386439Y-41126439D01*
X158180000Y-52920000D02*
X158180000Y-64185000D01*
X109786214Y-38970988D02*
X109786703Y-38970499D01*
X93555954Y-100195000D02*
X117905000Y-100195000D01*
X144221186Y-38970499D02*
X144285211Y-39034523D01*
X59385456Y-99920000D02*
X93280954Y-99920000D01*
X156434000Y-38210000D02*
X155926000Y-38718000D01*
X144285211Y-39034523D02*
X147482646Y-39034523D01*
X108129012Y-38970988D02*
X109786214Y-38970988D01*
X150386439Y-41126439D02*
X152180000Y-42920000D01*
X123180000Y-82920000D02*
X121982539Y-84117461D01*
X158180000Y-64185000D02*
X156360000Y-66005000D01*
X105980497Y-78920000D02*
X106129501Y-78770996D01*
X147482646Y-39034523D02*
X149574562Y-41126439D01*
X147545169Y-38972000D02*
X147482646Y-39034523D01*
X121982539Y-84117461D02*
X121982539Y-84989950D01*
X152878000Y-38972000D02*
X147545169Y-38972000D01*
X106129501Y-78770996D02*
X106129501Y-40970499D01*
%TO.N,/~{RE1}*%
X104180000Y-75920000D02*
X104180000Y-77920000D01*
X108180000Y-83920000D02*
X107180000Y-82920000D01*
X177415202Y-33920000D02*
X179180000Y-33920000D01*
X180579022Y-47319022D02*
X176058498Y-42798498D01*
X108180000Y-85920000D02*
X108180000Y-83920000D01*
X183709511Y-50449511D02*
X183180000Y-49920000D01*
X104180000Y-77920000D02*
X103180000Y-78920000D01*
X182360000Y-63465000D02*
X183709511Y-62115489D01*
X176058498Y-35276704D02*
X177415202Y-33920000D01*
X176058498Y-42798498D02*
X176058498Y-35276704D01*
X183709511Y-62115489D02*
X183709511Y-50449511D01*
%TO.N,/~{RE2}*%
X181970000Y-46710000D02*
X177008000Y-41748000D01*
X185180000Y-63185000D02*
X185180000Y-50920000D01*
X93060954Y-83920000D02*
X91285954Y-85695000D01*
X123180000Y-77920000D02*
X121180000Y-75920000D01*
X185180000Y-50920000D02*
X185180000Y-49920000D01*
X123180000Y-77920002D02*
X123180000Y-77920000D01*
X177008000Y-37504791D02*
X177060041Y-37452750D01*
X182360000Y-66005000D02*
X185180000Y-63185000D01*
X112180000Y-42920000D02*
X112180000Y-39920000D01*
X104180000Y-50810000D02*
X105100000Y-51730000D01*
X109830000Y-49120000D02*
X112180000Y-49120000D01*
X109040000Y-49910000D02*
X109830000Y-49120000D01*
X99180000Y-83920000D02*
X93060954Y-83920000D01*
X104180000Y-49950000D02*
X104180000Y-50810000D01*
X177008000Y-41748000D02*
X177008000Y-37504791D01*
%TO.N,/WE1:0*%
X119180000Y-50660000D02*
X119180000Y-64920000D01*
X137180000Y-65920000D02*
X128180000Y-65920000D01*
X142180000Y-70920000D02*
X137180000Y-65920000D01*
X122390954Y-123309046D02*
X122390954Y-129120000D01*
X115180000Y-46660000D02*
X119180000Y-50660000D01*
X118380000Y-119120000D02*
X122480000Y-123220000D01*
X122480000Y-123220000D02*
X122390954Y-123309046D01*
X119180000Y-64920000D02*
X120180000Y-65920000D01*
%TO.N,/WE1:1*%
X128180000Y-64920000D02*
X127180000Y-64920000D01*
X120279510Y-119145622D02*
X119229259Y-118095371D01*
X139180000Y-65920000D02*
X138180000Y-64920000D01*
X138180000Y-64920000D02*
X128180000Y-64920000D01*
X143180000Y-69920000D02*
X139180000Y-65920000D01*
X124930954Y-129120000D02*
X124930954Y-124481697D01*
X120279510Y-119830253D02*
X120279510Y-119145622D01*
X124930954Y-124481697D02*
X120279510Y-119830253D01*
%TO.N,/WE1:2*%
X126180000Y-52580000D02*
X122800000Y-49200000D01*
X121079511Y-117541409D02*
X120329500Y-116791398D01*
X127470954Y-129120000D02*
X127470954Y-126032439D01*
X127180000Y-68920000D02*
X126180000Y-67920000D01*
X121079511Y-119640996D02*
X121079511Y-117541409D01*
X127470954Y-126032439D02*
X121079511Y-119640996D01*
X126180000Y-67920000D02*
X126180000Y-52580000D01*
%TO.N,/WE1:3*%
X126531969Y-108057459D02*
X152129428Y-82460000D01*
X118130988Y-116490663D02*
X118130989Y-116036955D01*
X118130989Y-116036955D02*
X119196957Y-114970988D01*
X123580000Y-121152227D02*
X130010954Y-127583181D01*
X119196957Y-114970988D02*
X119650661Y-114970989D01*
X152129428Y-82460000D02*
X157380000Y-82460000D01*
X119650661Y-114970989D02*
X126531968Y-108089683D01*
X123580000Y-119320000D02*
X123580000Y-121152227D01*
X116540826Y-118080826D02*
X118130988Y-116490663D01*
X126531968Y-108089683D02*
X126531969Y-108057459D01*
X130010954Y-127583181D02*
X130010954Y-129120000D01*
%TO.N,/WE2:2*%
X140892895Y-124761941D02*
X140892894Y-121195788D01*
X139889822Y-120229822D02*
X130777712Y-111117712D01*
X140892894Y-121195788D02*
X139926926Y-120229821D01*
X130777712Y-111117712D02*
X130777712Y-109254483D01*
X139926926Y-120229821D02*
X139889822Y-120229822D01*
X145250954Y-129120000D02*
X140892895Y-124761941D01*
%TO.N,/WE1:4*%
X124935454Y-110675454D02*
X127231479Y-108379430D01*
X124780000Y-121320000D02*
X124780000Y-110830908D01*
X128607209Y-106971478D02*
X128607223Y-106971478D01*
X127231479Y-108347208D02*
X128607209Y-106971478D01*
X155540000Y-91920000D02*
X157380000Y-90080000D01*
X128607223Y-106971478D02*
X128607233Y-106971468D01*
X132550954Y-129120000D02*
X131151443Y-127720489D01*
X131151443Y-127720489D02*
X131151443Y-127691443D01*
X128607233Y-106971468D02*
X128639440Y-106971469D01*
X124780000Y-110830908D02*
X124935454Y-110675454D01*
X117490327Y-118474123D02*
X117490327Y-118120581D01*
X127231479Y-108379430D02*
X127231479Y-108347208D01*
X117490327Y-118120581D02*
X124935454Y-110675454D01*
X128639440Y-106971469D02*
X143690909Y-91920000D01*
X143690909Y-91920000D02*
X155540000Y-91920000D01*
X131151443Y-127691443D02*
X124780000Y-121320000D01*
%TO.N,/RE1:2*%
X148180000Y-52920000D02*
X148180000Y-50920000D01*
X148180000Y-65577204D02*
X148351398Y-65748602D01*
X148180000Y-62920000D02*
X148180000Y-65577204D01*
%TO.N,/WE2:3*%
X139980001Y-98919999D02*
X168469748Y-98919999D01*
X168469748Y-98919999D02*
X170030997Y-97358750D01*
X170030997Y-97358750D02*
X170030997Y-92920000D01*
X141592404Y-122921450D02*
X141592404Y-120906040D01*
X147790954Y-129120000D02*
X141592404Y-122921450D01*
X140443730Y-119757367D02*
X140216674Y-119530311D01*
X141592397Y-120906033D02*
X141592397Y-120906023D01*
X141592404Y-120906040D02*
X141592397Y-120906033D01*
X140216674Y-119530311D02*
X140216662Y-119530311D01*
X140179560Y-119530303D02*
X131780000Y-111130742D01*
X140626429Y-119940056D02*
X140443730Y-119757367D01*
X140216662Y-119530311D02*
X140216653Y-119530302D01*
X140216653Y-119530302D02*
X140179560Y-119530303D01*
X140626429Y-119940066D02*
X140626429Y-119940056D01*
X131780000Y-107120000D02*
X139980001Y-98919999D01*
X141592397Y-120906023D02*
X141403579Y-120717215D01*
X131780000Y-111130742D02*
X131780000Y-107120000D01*
X141403579Y-120717215D02*
X140626429Y-119940066D01*
%TO.N,/WE2:4*%
X140916165Y-119240545D02*
X140506420Y-118830800D01*
X142291900Y-120616257D02*
X142067428Y-120391797D01*
X141325931Y-119650301D02*
X141325931Y-119650289D01*
X140506420Y-118830800D02*
X140506409Y-118830800D01*
X142291908Y-120616286D02*
X142291908Y-120616277D01*
X140506380Y-118830783D02*
X140469298Y-118830784D01*
X142291908Y-120616277D02*
X142291900Y-120616269D01*
X142291915Y-121080961D02*
X142291914Y-120616292D01*
X140469298Y-118830784D02*
X132479511Y-110840995D01*
X141325940Y-119650310D02*
X141325931Y-119650301D01*
X139969258Y-99920000D02*
X178180000Y-99920000D01*
X141103754Y-119428124D02*
X140916175Y-119240545D01*
X132479511Y-107409747D02*
X139969258Y-99920000D01*
X150330954Y-129120000D02*
X142291915Y-121080961D01*
X179379503Y-98720497D02*
X179379503Y-95920000D01*
X140506389Y-118830792D02*
X140506380Y-118830783D01*
X142067428Y-120391797D02*
X141882143Y-120206512D01*
X141882143Y-120206512D02*
X141882133Y-120206512D01*
X178180000Y-99920000D02*
X179379503Y-98720497D01*
X140506401Y-118830792D02*
X140506389Y-118830792D01*
X142291900Y-120616269D02*
X142291900Y-120616257D01*
X140916175Y-119240545D02*
X140916165Y-119240545D01*
X132479511Y-110840995D02*
X132479511Y-107409747D01*
X140506409Y-118830800D02*
X140506401Y-118830792D01*
X141882133Y-120206512D02*
X141325940Y-119650319D01*
X141325931Y-119650289D02*
X141103754Y-119428124D01*
X142291914Y-120616292D02*
X142291908Y-120616286D01*
X141325940Y-119650319D02*
X141325940Y-119650310D01*
%TO.N,Net-(J1-Pad65)*%
X58780000Y-126720000D02*
X58580000Y-126520000D01*
X133295594Y-123150000D02*
X133244695Y-123099101D01*
X132407202Y-123150000D02*
X127952796Y-123150000D01*
X71100000Y-51470000D02*
X72115000Y-50455000D01*
X137972716Y-123150000D02*
X133295594Y-123150000D01*
X186780000Y-127120000D02*
X182943531Y-123283531D01*
X139243883Y-121878833D02*
X137972716Y-123150000D01*
X182943531Y-123283531D02*
X162058570Y-123283531D01*
X162058570Y-123283531D02*
X161829011Y-123053972D01*
X133244695Y-123099101D02*
X132458101Y-123099101D01*
X127952796Y-123150000D02*
X127790590Y-122987794D01*
X190980000Y-127120000D02*
X186780000Y-127120000D01*
X71100000Y-55720000D02*
X71100000Y-51470000D01*
X132458101Y-123099101D02*
X132407202Y-123150000D01*
X72115000Y-50455000D02*
X75380000Y-50455000D01*
X69580000Y-126720000D02*
X58780000Y-126720000D01*
%TO.N,/RE1:4*%
X158115000Y-115455000D02*
X157380000Y-115455000D01*
X159380000Y-124320000D02*
X159380000Y-116720000D01*
X165110954Y-126120000D02*
X161180000Y-126120000D01*
X159380000Y-116720000D02*
X158115000Y-115455000D01*
X161180000Y-126120000D02*
X159380000Y-124320000D01*
X168110954Y-129120000D02*
X165110954Y-126120000D01*
%TO.N,/WE2:1*%
X140193384Y-121485536D02*
X139637180Y-120929332D01*
X139389332Y-120929332D02*
X129580000Y-111120000D01*
X129580000Y-111120000D02*
X129580000Y-109320000D01*
X139637180Y-120929332D02*
X139389332Y-120929332D01*
X142710954Y-129120000D02*
X140193384Y-126602430D01*
X140193384Y-126602430D02*
X140193384Y-121485536D01*
%TO.N,/WE1:6*%
X161180000Y-91920000D02*
X161180000Y-95920000D01*
X159180000Y-97920000D02*
X139669427Y-97920000D01*
X129186703Y-108370499D02*
X128630499Y-108926703D01*
X129218928Y-108370499D02*
X129186703Y-108370499D01*
X128630499Y-108958928D02*
X127324713Y-110264713D01*
X161180000Y-95920000D02*
X159180000Y-97920000D01*
X127408565Y-110348565D02*
X127408565Y-111502861D01*
X139669427Y-97920000D02*
X129218928Y-108370499D01*
X128630499Y-108926703D02*
X128630499Y-108958928D01*
X127324713Y-110264713D02*
X127408565Y-110348565D01*
%TO.N,/WE2:6*%
X151180000Y-102920000D02*
X139680000Y-102920000D01*
X175180000Y-74920000D02*
X167180000Y-74920000D01*
X182200000Y-81940000D02*
X175180000Y-74920000D01*
X182200000Y-82460000D02*
X182200000Y-82200000D01*
X134128522Y-108471478D02*
X134128522Y-108898602D01*
X182200000Y-82460000D02*
X182200000Y-81940000D01*
X139680000Y-102920000D02*
X134128522Y-108471478D01*
%TO.N,/RE2:6*%
X178180000Y-117920000D02*
X178180000Y-111655000D01*
X178180000Y-111655000D02*
X182000000Y-107835000D01*
%TO.N,/RE2:0*%
X135180000Y-63094341D02*
X136056159Y-63970500D01*
X135180000Y-61920000D02*
X135180000Y-63094341D01*
%TO.N,/RE1:5*%
X160180000Y-123920000D02*
X160180000Y-116920000D01*
X160180000Y-116920000D02*
X161645000Y-115455000D01*
X161645000Y-115455000D02*
X165000000Y-115455000D01*
X166850954Y-125320000D02*
X161580000Y-125320000D01*
X161580000Y-125320000D02*
X160180000Y-123920000D01*
X170650954Y-129120000D02*
X166850954Y-125320000D01*
%TO.N,/WE1:5*%
X126380000Y-110320000D02*
X126330084Y-110270084D01*
X126330084Y-110270084D02*
X127930988Y-108669180D01*
X127930989Y-108636955D02*
X128896957Y-107670988D01*
X126380000Y-112120000D02*
X126380000Y-110320000D01*
X128896957Y-107670988D02*
X128929179Y-107670989D01*
X158180000Y-96920000D02*
X160180000Y-94920000D01*
X139680168Y-96920000D02*
X158180000Y-96920000D01*
X127930988Y-108669180D02*
X127930989Y-108636955D01*
X128929179Y-107670989D02*
X139680168Y-96920000D01*
%TO.N,/RE1:6*%
X161180000Y-111655000D02*
X165000000Y-107835000D01*
X161180000Y-117920000D02*
X161180000Y-121920000D01*
X168190954Y-124120000D02*
X173190954Y-129120000D01*
X160879511Y-123630253D02*
X161369258Y-124120000D01*
X160879511Y-122220489D02*
X160879511Y-123630253D01*
X161369258Y-124120000D02*
X168190954Y-124120000D01*
X161180000Y-121920000D02*
X160879511Y-122220489D01*
X161180000Y-113920000D02*
X161180000Y-111655000D01*
%TO.N,/RE1:3*%
X157380000Y-107835000D02*
X156495000Y-108720000D01*
X164171443Y-127720489D02*
X161780489Y-127720489D01*
X155580000Y-121520000D02*
X155580000Y-109520000D01*
X165570954Y-129120000D02*
X164171443Y-127720489D01*
X161780489Y-127720489D02*
X155580000Y-121520000D01*
X155580000Y-109520000D02*
X156380000Y-108720000D01*
X156495000Y-108720000D02*
X156380000Y-108720000D01*
%TO.N,/RE1:0*%
X146180000Y-52920000D02*
X146180000Y-49920000D01*
X146180000Y-66577204D02*
X146351398Y-66748602D01*
X146180000Y-62920000D02*
X146180000Y-66577204D01*
%TO.N,/WE2:5*%
X142991419Y-120326539D02*
X142991418Y-120326529D01*
X142991403Y-120326491D02*
X142767551Y-120102651D01*
X133179022Y-110537520D02*
X133179022Y-107699494D01*
X142025451Y-119360572D02*
X142025450Y-119360562D01*
X141615667Y-118950778D02*
X141597152Y-118932264D01*
X141205912Y-118541034D02*
X140796166Y-118131289D01*
X142581636Y-119916746D02*
X142562929Y-119898040D01*
X142991424Y-120349922D02*
X142991424Y-120326544D01*
X140796128Y-118131273D02*
X140796116Y-118131273D01*
X182200000Y-90080000D02*
X184340000Y-90080000D01*
X142025434Y-119360535D02*
X142025434Y-119360523D01*
X142991424Y-120326544D02*
X142991419Y-120326539D01*
X142991411Y-120326511D02*
X142991403Y-120326503D01*
X142767551Y-120102651D02*
X142581646Y-119916746D01*
X181819475Y-100920000D02*
X184993136Y-97746339D01*
X140796147Y-118131281D02*
X140796136Y-118131281D01*
X140796107Y-118131264D02*
X140772767Y-118131265D01*
X140796156Y-118131289D02*
X140796147Y-118131281D01*
X142991418Y-120326529D02*
X142991411Y-120326522D01*
X140796166Y-118131289D02*
X140796156Y-118131289D01*
X140796136Y-118131281D02*
X140796128Y-118131273D01*
X142171880Y-119507001D02*
X142025451Y-119360572D01*
X142991403Y-120326503D02*
X142991403Y-120326491D01*
X140772767Y-118131265D02*
X133179022Y-110537520D01*
X139958516Y-100920000D02*
X181819475Y-100920000D01*
X152870954Y-129120000D02*
X144830465Y-121079511D01*
X141615677Y-118950778D02*
X141615667Y-118950778D01*
X142581646Y-119916746D02*
X142581636Y-119916746D01*
X142171889Y-119507001D02*
X142171880Y-119507001D01*
X141205921Y-118541034D02*
X141205912Y-118541034D01*
X142025442Y-119360554D02*
X142025442Y-119360543D01*
X141597152Y-118932264D02*
X141205921Y-118541034D01*
X184340000Y-90080000D02*
X185180000Y-90920000D01*
X142025442Y-119360543D02*
X142025434Y-119360535D01*
X142025450Y-119360562D02*
X142025442Y-119360554D01*
X133179022Y-107699494D02*
X139958516Y-100920000D01*
X140796116Y-118131273D02*
X140796107Y-118131264D01*
X143721013Y-121079511D02*
X142991424Y-120349922D01*
X144830465Y-121079511D02*
X143721013Y-121079511D01*
X142562929Y-119898040D02*
X142171889Y-119507001D01*
X141802392Y-119137493D02*
X141615677Y-118950778D01*
X142991411Y-120326522D02*
X142991411Y-120326511D01*
X142025434Y-119360523D02*
X141802392Y-119137493D01*
%TO.N,/WE2:0*%
X117180000Y-66920000D02*
X118180000Y-67920000D01*
X117180000Y-51200000D02*
X117180000Y-66920000D01*
X135099556Y-124048602D02*
X132851398Y-124048602D01*
X115180000Y-49200000D02*
X117180000Y-51200000D01*
X140170954Y-129120000D02*
X135099556Y-124048602D01*
%TO.N,/RE1:1*%
X133063696Y-56063696D02*
X133063696Y-58761375D01*
X131380000Y-54380000D02*
X133063696Y-56063696D01*
%TO.N,/~{SUP}*%
X182103676Y-34016081D02*
X182103676Y-34802675D01*
X188095000Y-33835000D02*
X187980000Y-33835000D01*
X185891000Y-35924000D02*
X187980000Y-33835000D01*
X189715000Y-35455000D02*
X188095000Y-33835000D01*
X182095000Y-35924000D02*
X185891000Y-35924000D01*
X182103676Y-34802675D02*
X182095000Y-34811351D01*
X182095000Y-33835000D02*
X182095000Y-34007405D01*
X182095000Y-34811351D02*
X182095000Y-39720000D01*
X182095000Y-34007405D02*
X182103676Y-34016081D01*
X182095000Y-34811351D02*
X182095000Y-35924000D01*
X187980000Y-33835000D02*
X189715000Y-32100000D01*
X189715000Y-39720000D02*
X189715000Y-35455000D01*
X182095000Y-32100000D02*
X182095000Y-33835000D01*
%TO.N,Net-(R9-Pad2)*%
X178274022Y-121720978D02*
X175102520Y-121720978D01*
X174938987Y-121884511D02*
X173821013Y-121884511D01*
X175102520Y-121720978D02*
X174938987Y-121884511D01*
X173821013Y-121884511D02*
X169931502Y-117995000D01*
X169931502Y-117995000D02*
X165000000Y-117995000D01*
X182000000Y-117995000D02*
X178274022Y-121720978D01*
%TO.N,Net-(R10-Pad2)*%
X183349511Y-121750489D02*
X182679510Y-122420490D01*
X183230499Y-113526703D02*
X183230499Y-114313297D01*
X182679510Y-122420490D02*
X175392267Y-122420489D01*
X173531265Y-122584021D02*
X172917744Y-121970500D01*
X183230499Y-114313297D02*
X183349511Y-114432309D01*
X183349511Y-114432309D02*
X183349511Y-121750489D01*
X175228733Y-122584022D02*
X174649239Y-122584021D01*
X183349511Y-113407691D02*
X183230499Y-113526703D01*
X182000000Y-110375000D02*
X183349511Y-111724511D01*
X174649239Y-122584021D02*
X173531265Y-122584021D01*
X183349511Y-111724511D02*
X183349511Y-113407691D01*
X175392267Y-122420489D02*
X175228733Y-122584022D01*
X172917744Y-121970500D02*
X168180000Y-121970500D01*
%TO.N,Net-(U2-Pad1)*%
X39091476Y-79333423D02*
X39091476Y-79543191D01*
X128075344Y-48535344D02*
X128075344Y-41928603D01*
X131380000Y-51840000D02*
X128075344Y-48535344D01*
%TO.N,Net-(U2-Pad2)*%
X41000954Y-78499046D02*
X57500489Y-61999511D01*
X107780978Y-36319022D02*
X125579022Y-36319022D01*
X128180000Y-56260000D02*
X128180000Y-50920000D01*
X101180000Y-42920000D02*
X107780978Y-36319022D01*
X125579022Y-36319022D02*
X126180000Y-36920000D01*
X128180000Y-50920000D02*
X127030996Y-49770996D01*
X99180000Y-62920000D02*
X101180000Y-60920000D01*
X57500489Y-61999511D02*
X71259511Y-61999511D01*
X72180000Y-62920000D02*
X99180000Y-62920000D01*
X101180000Y-60920000D02*
X101180000Y-42920000D01*
X41000954Y-79445000D02*
X41000954Y-78499046D01*
X127030996Y-41970500D02*
X126880745Y-41820249D01*
X127030996Y-49770996D02*
X127030996Y-41970500D01*
X131380000Y-59460000D02*
X128180000Y-56260000D01*
X71259511Y-61999511D02*
X72180000Y-62920000D01*
%TO.N,Net-(U2-Pad3)*%
X102180000Y-45920000D02*
X102180000Y-61920000D01*
X57800978Y-62699022D02*
X43200954Y-77299046D01*
X125313772Y-40920000D02*
X125221605Y-41012167D01*
X126487448Y-40870748D02*
X126438196Y-40920000D01*
X127323294Y-40920000D02*
X127274042Y-40870748D01*
X43200954Y-77299046D02*
X43200954Y-79545000D01*
X72180000Y-63920000D02*
X70959022Y-62699022D01*
X126438196Y-40920000D02*
X125313772Y-40920000D01*
X134180000Y-43920000D02*
X134180000Y-43577202D01*
X134180000Y-43577202D02*
X131522798Y-40920000D01*
X70959022Y-62699022D02*
X57800978Y-62699022D01*
X100180000Y-63920000D02*
X72180000Y-63920000D01*
X127274042Y-40870748D02*
X126487448Y-40870748D01*
X102180000Y-61920000D02*
X100180000Y-63920000D01*
X131522798Y-40920000D02*
X127323294Y-40920000D01*
%TO.N,Net-(U2-Pad4)*%
X70180000Y-65920000D02*
X105180000Y-65920000D01*
X115180000Y-51740000D02*
X112180000Y-54740000D01*
X112180000Y-62920000D02*
X108180000Y-66920000D01*
X58101467Y-63398533D02*
X67658533Y-63398533D01*
X45000954Y-79545000D02*
X45000954Y-76499046D01*
X112180000Y-54740000D02*
X112180000Y-60920000D01*
X112180000Y-60920000D02*
X112180000Y-62920000D01*
X67658533Y-63398533D02*
X70180000Y-65920000D01*
X45000954Y-76499046D02*
X58101467Y-63398533D01*
%TO.N,Net-(U2-Pad5)*%
X108180000Y-67920000D02*
X108180000Y-68119503D01*
X104819475Y-66920000D02*
X105006339Y-67106864D01*
X47000954Y-79545000D02*
X47000954Y-75499046D01*
X67358044Y-64098044D02*
X70180000Y-66920000D01*
X115180000Y-59360000D02*
X112879511Y-61660489D01*
X47000954Y-75499046D02*
X58401956Y-64098044D01*
X58401956Y-64098044D02*
X67358044Y-64098044D01*
X112879511Y-61660489D02*
X112879511Y-63563287D01*
X112879511Y-63563287D02*
X108522798Y-67920000D01*
X70180000Y-66920000D02*
X104819475Y-66920000D01*
X108522798Y-67920000D02*
X108180000Y-67920000D01*
%TO.N,Net-(U2-Pad6)*%
X48800954Y-74699046D02*
X58702445Y-64797555D01*
X106079002Y-40020998D02*
X105736204Y-40020998D01*
X101180000Y-64920000D02*
X71279500Y-64920000D01*
X122800000Y-54280000D02*
X120180000Y-51660000D01*
X63930011Y-64797555D02*
X64180000Y-65047544D01*
X71279500Y-64920000D02*
X70180000Y-63820500D01*
X120180000Y-43104057D02*
X117180000Y-40104057D01*
X105736204Y-40020998D02*
X105180000Y-40577202D01*
X109062586Y-37071987D02*
X116980997Y-37071987D01*
X48800954Y-79445000D02*
X48800954Y-74699046D01*
X120180000Y-51660000D02*
X120180000Y-43104057D01*
X108728012Y-37371988D02*
X106079002Y-40020998D01*
X105180000Y-40920000D02*
X103180000Y-42920000D01*
X103180000Y-42920000D02*
X103180000Y-62920000D01*
X103180000Y-62920000D02*
X101180000Y-64920000D01*
X116980997Y-37071987D02*
X117180000Y-37270990D01*
X58702445Y-64797555D02*
X63930011Y-64797555D01*
X105180000Y-40577202D02*
X105180000Y-40920000D01*
X108762585Y-37371988D02*
X109062586Y-37071987D01*
%TO.N,Net-(U18-Pad8)*%
X57000954Y-72099046D02*
X63129501Y-65970499D01*
X63129501Y-65970499D02*
X63760157Y-65970499D01*
X64573297Y-65997045D02*
X64599843Y-65970499D01*
X63760157Y-65970499D02*
X63786703Y-65997045D01*
X57000954Y-79545000D02*
X57000954Y-72099046D01*
X67130999Y-65970499D02*
X68180000Y-67019500D01*
X63786703Y-65997045D02*
X64573297Y-65997045D01*
X64599843Y-65970499D02*
X67130999Y-65970499D01*
%TO.N,Net-(U14-Pad17)*%
X60950954Y-90620000D02*
X59726443Y-91844511D01*
X59726443Y-91844511D02*
X48587543Y-91844511D01*
X48587543Y-91844511D02*
X46244004Y-94188050D01*
%TO.N,Net-(U14-Pad16)*%
X48829852Y-92945000D02*
X47605617Y-94169235D01*
X60625954Y-92945000D02*
X48829852Y-92945000D01*
X62950954Y-90620000D02*
X60625954Y-92945000D01*
%TO.N,Net-(U14-Pad15)*%
X49445387Y-93945000D02*
X48154705Y-95235682D01*
X64635954Y-93310000D02*
X64000954Y-93945000D01*
X64000954Y-93945000D02*
X49445387Y-93945000D01*
%TO.N,Net-(U14-Pad14)*%
X50000954Y-94945000D02*
X64810954Y-94945000D01*
X64810954Y-94945000D02*
X65905954Y-93850000D01*
%TO.N,Net-(U14-Pad13)*%
X66350954Y-95945000D02*
X67175954Y-95120000D01*
X51000954Y-95945000D02*
X66350954Y-95945000D01*
%TO.N,Net-(U14-Pad12)*%
X52000954Y-96945000D02*
X67890954Y-96945000D01*
X67890954Y-96945000D02*
X68445954Y-96390000D01*
%TO.N,Net-(U14-Pad11)*%
X53000954Y-97945000D02*
X69430954Y-97945000D01*
X69430954Y-97945000D02*
X69715954Y-98230000D01*
%TO.N,Net-(U17-Pad17)*%
X78812778Y-92481824D02*
X76950954Y-90620000D01*
X78812778Y-98946734D02*
X78812778Y-92481824D01*
%TO.N,Net-(U17-Pad16)*%
X78950954Y-90895000D02*
X78950954Y-90620000D01*
X80012230Y-98935681D02*
X80012230Y-93956276D01*
X80012230Y-93956276D02*
X80012230Y-93933724D01*
X80012230Y-93956276D02*
X80012230Y-91956276D01*
X80012230Y-91956276D02*
X78950954Y-90895000D01*
%TO.N,Net-(U17-Pad15)*%
X80950954Y-90620000D02*
X81674005Y-91343051D01*
X81674005Y-91343051D02*
X81674005Y-98931095D01*
%TO.N,Net-(U17-Pad14)*%
X82950954Y-90620000D02*
X82950954Y-98847274D01*
X82950954Y-98847274D02*
X82873491Y-98924737D01*
%TO.N,Net-(U11-Pad7)*%
X119174601Y-92843647D02*
X131924299Y-92843647D01*
X116950954Y-90620000D02*
X119174601Y-92843647D01*
%TO.N,Net-(U11-Pad2)*%
X114275954Y-97945000D02*
X122000954Y-97945000D01*
X106950954Y-90620000D02*
X114275954Y-97945000D01*
%TO.N,Net-(U5-Pad8)*%
X166230499Y-71313297D02*
X166230499Y-63175499D01*
X177008602Y-86405804D02*
X177008602Y-83748602D01*
X178129501Y-91089501D02*
X178129501Y-87526703D01*
X178129501Y-87526703D02*
X177008602Y-86405804D01*
X179119027Y-73133083D02*
X177855445Y-71869501D01*
X179119027Y-74897209D02*
X179119027Y-73133083D01*
X177855445Y-71869501D02*
X166786703Y-71869501D01*
X166786703Y-71869501D02*
X166230499Y-71313297D01*
X166230499Y-63175499D02*
X163980000Y-60925000D01*
X182200000Y-95160000D02*
X178129501Y-91089501D01*
%TO.N,Net-(U5-Pad11)*%
X180700500Y-87540000D02*
X179080500Y-85920000D01*
X181326000Y-74774000D02*
X181326000Y-73008000D01*
X181326000Y-77326000D02*
X181326000Y-74696997D01*
X181326000Y-73008000D02*
X179294000Y-70976000D01*
X182200000Y-87540000D02*
X180700500Y-87540000D01*
%TO.N,Net-(U22-Pad1)*%
X155950000Y-44150000D02*
X155950000Y-44880000D01*
X155950000Y-44880000D02*
X155990000Y-44920000D01*
X157180000Y-42920000D02*
X155950000Y-44150000D01*
X155990000Y-44920000D02*
X155990000Y-46500000D01*
X163180000Y-39920000D02*
X159180000Y-39920000D01*
X159180000Y-39920000D02*
X158008602Y-41091398D01*
%TO.N,Net-(U6-Pad9)*%
X193180000Y-53920000D02*
X193180000Y-51705989D01*
X155450000Y-48650000D02*
X155440000Y-48650000D01*
X189979405Y-45818905D02*
X189979405Y-44904201D01*
X159180000Y-44920000D02*
X155450000Y-48650000D01*
X192080500Y-47920000D02*
X189979405Y-45818905D01*
X193180000Y-51705989D02*
X192180000Y-50705989D01*
%TO.N,Net-(U18-Pad1)*%
X151185000Y-60925000D02*
X150180000Y-59920000D01*
X156360000Y-60925000D02*
X151185000Y-60925000D01*
X75380000Y-40295000D02*
X80755000Y-34920000D01*
X75380000Y-42835000D02*
X75380000Y-40295000D01*
X129275548Y-41920000D02*
X129274810Y-41919262D01*
X131180000Y-41920000D02*
X129275548Y-41920000D01*
X128837204Y-34920000D02*
X131008602Y-37091398D01*
X80755000Y-34920000D02*
X128837204Y-34920000D01*
X141180000Y-44920000D02*
X142180000Y-44920000D01*
X142180000Y-44920000D02*
X143180000Y-43920000D01*
X148180000Y-56920000D02*
X142180000Y-50920000D01*
X142180000Y-50920000D02*
X142180000Y-47920000D01*
%TO.N,Net-(U18-Pad10)*%
X140290610Y-32920000D02*
X86180000Y-32920000D01*
X151180000Y-36920000D02*
X150564490Y-37535510D01*
X180229500Y-42969500D02*
X180180000Y-42969500D01*
X186180000Y-52920000D02*
X187180000Y-51920000D01*
X144864703Y-37635501D02*
X144308499Y-37079297D01*
X144308499Y-36937889D02*
X140290610Y-32920000D01*
X145751288Y-37535510D02*
X145651297Y-37635501D01*
X184180000Y-46920000D02*
X180229500Y-42969500D01*
X144308499Y-37079297D02*
X144308499Y-36937889D01*
X150564490Y-37535510D02*
X145751288Y-37535510D01*
X145651297Y-37635501D02*
X144864703Y-37635501D01*
X186180000Y-59920000D02*
X186180000Y-52920000D01*
%TO.N,Net-(U22-Pad4)*%
X197908398Y-52053750D02*
X198156500Y-51805648D01*
X191775746Y-43098489D02*
X194780927Y-46103670D01*
X194780927Y-46103670D02*
X194780927Y-46404500D01*
X190553489Y-43098489D02*
X191775746Y-43098489D01*
X197908398Y-57954501D02*
X197908398Y-52053750D01*
X187175000Y-39720000D02*
X190553489Y-43098489D01*
X192180000Y-58920000D02*
X192180000Y-68920000D01*
%TO.N,Net-(U12-Pad6)*%
X196504093Y-48937094D02*
X198729892Y-48937094D01*
X187188192Y-48270988D02*
X187752271Y-48835069D01*
X148530989Y-59236955D02*
X149780980Y-57986964D01*
X199172499Y-49379701D02*
X199172499Y-49525297D01*
X148530988Y-60603043D02*
X148530989Y-59236955D01*
X179600912Y-51167033D02*
X182496958Y-48270988D01*
X195869093Y-49572094D02*
X196504093Y-48937094D01*
X189134063Y-48869500D02*
X194379905Y-48869500D01*
X199172499Y-49525297D02*
X199728703Y-50081501D01*
X195082499Y-49572094D02*
X195869093Y-49572094D01*
X149780980Y-52319020D02*
X150932967Y-51167033D01*
X182496958Y-48270988D02*
X187188192Y-48270988D01*
X201630489Y-51837691D02*
X201630489Y-64655489D01*
X149496955Y-74236955D02*
X149496955Y-61569011D01*
X201630489Y-64655489D02*
X202980000Y-66005000D01*
X194379905Y-48869500D02*
X195082499Y-49572094D01*
X150932967Y-51167033D02*
X179600912Y-51167033D01*
X187752271Y-48835069D02*
X189099635Y-48835071D01*
X189099635Y-48835071D02*
X189134063Y-48869500D01*
X199874299Y-50081501D02*
X201630489Y-51837691D01*
X149496955Y-61569011D02*
X148530988Y-60603043D01*
X198729892Y-48937094D02*
X199172499Y-49379701D01*
X153180000Y-77920000D02*
X149496955Y-74236955D01*
X149780980Y-57986964D02*
X149780980Y-52319020D01*
X199728703Y-50081501D02*
X199874299Y-50081501D01*
%TO.N,Net-(U12-Pad11)*%
X165000000Y-112915000D02*
X166980497Y-110934503D01*
X170230499Y-79170002D02*
X169980497Y-78920000D01*
X166980497Y-110934503D02*
X166980497Y-103920000D01*
X171180000Y-94119503D02*
X171180000Y-97577202D01*
X170180000Y-72920000D02*
X172180000Y-72920000D01*
X170230499Y-90170002D02*
X170230499Y-79170002D01*
X170980497Y-93920000D02*
X171180000Y-94119503D01*
X172080500Y-67829863D02*
X172071137Y-67820500D01*
X172080500Y-70920000D02*
X172080500Y-67829863D01*
X170980497Y-90920000D02*
X170230499Y-90170002D01*
X171180000Y-97577202D02*
X169908850Y-98848353D01*
%TO.N,Net-(U12-Pad3)*%
X153179998Y-64262796D02*
X149230499Y-60313297D01*
X151180000Y-57930742D02*
X151180000Y-52920000D01*
X151180000Y-52920000D02*
X152180000Y-51920000D01*
X194090159Y-49569011D02*
X196860570Y-52339422D01*
X155180000Y-89920000D02*
X155180000Y-85920000D01*
X182786704Y-48970499D02*
X186898444Y-48970499D01*
X188844311Y-49569011D02*
X194090159Y-49569011D01*
X153179998Y-71920000D02*
X153179998Y-64262796D01*
X149230499Y-60313297D02*
X149230499Y-59526703D01*
X186898444Y-48970499D02*
X187462524Y-49534580D01*
X188809881Y-49534581D02*
X188844311Y-49569011D01*
X154180000Y-90920000D02*
X155180000Y-89920000D01*
X196860570Y-52339422D02*
X196860570Y-62425570D01*
X196860570Y-62425570D02*
X202980000Y-68545000D01*
X155180000Y-75920000D02*
X155180000Y-73920000D01*
X152180000Y-51920000D02*
X179837203Y-51920000D01*
X179837203Y-51920000D02*
X182786704Y-48970499D01*
X187462524Y-49534580D02*
X188809881Y-49534581D01*
X150140243Y-58970499D02*
X151180000Y-57930742D01*
X149786703Y-58970499D02*
X150140243Y-58970499D01*
X149230499Y-59526703D02*
X149786703Y-58970499D01*
%TO.N,Net-(U12-Pad8)*%
X172180000Y-79920000D02*
X171180000Y-78920000D01*
X167180000Y-113920000D02*
X168180000Y-112920000D01*
X168180000Y-112920000D02*
X168180000Y-103920000D01*
X169360000Y-55845000D02*
X170880997Y-57365997D01*
X171180000Y-98920000D02*
X172180000Y-97920000D01*
X172180000Y-97920000D02*
X172180000Y-93920000D01*
X170880997Y-57365997D02*
X170880997Y-70920000D01*
X172180000Y-90920000D02*
X172180000Y-79920000D01*
%TO.N,Net-(U13-Pad6)*%
X177180000Y-110920000D02*
X180180000Y-107920000D01*
X174380000Y-117995000D02*
X177180000Y-115195000D01*
X180180000Y-107920000D02*
X180180000Y-104262796D01*
X177037489Y-67195489D02*
X178329511Y-67195489D01*
X176980000Y-66005000D02*
X176980000Y-67138000D01*
X178329511Y-67195489D02*
X178329511Y-68487511D01*
X182180000Y-101920000D02*
X186180000Y-97920000D01*
X177180000Y-115195000D02*
X177180000Y-110920000D01*
X176980000Y-67138000D02*
X177037489Y-67195489D01*
X182342000Y-72500000D02*
X182342000Y-74278000D01*
X180180000Y-104262796D02*
X180008602Y-104091398D01*
X178329511Y-68487511D02*
X182342000Y-72500000D01*
%TO.N,Net-(U13-Pad11)*%
X184180000Y-113920000D02*
X184180000Y-117920000D01*
X185180000Y-118920000D02*
X190180000Y-118920000D01*
X192180000Y-88920000D02*
X197180000Y-83920000D01*
X192180000Y-111920000D02*
X192180000Y-88920000D01*
X197180000Y-83920000D02*
X197180000Y-76920000D01*
X184180000Y-117920000D02*
X185180000Y-118920000D01*
%TO.N,Net-(U13-Pad3)*%
X178180000Y-97920000D02*
X178180000Y-95920000D01*
X177180000Y-98920000D02*
X178180000Y-97920000D01*
X177180000Y-93920000D02*
X177180000Y-89920000D01*
X177180000Y-89920000D02*
X177180000Y-87920000D01*
X180310000Y-75040000D02*
X180310000Y-73334798D01*
X174380000Y-110375000D02*
X172180000Y-108175000D01*
X176980000Y-70004798D02*
X176980000Y-68545000D01*
X180310000Y-73334798D02*
X176980000Y-70004798D01*
X172180000Y-108175000D02*
X172180000Y-103920000D01*
X173180000Y-98920000D02*
X177180000Y-98920000D01*
%TO.N,Net-(U13-Pad8)*%
X191180000Y-119920000D02*
X185379503Y-119920000D01*
X198180000Y-115920000D02*
X198180000Y-75920000D01*
X185379503Y-119920000D02*
X185180000Y-120119503D01*
X197180000Y-116920000D02*
X198180000Y-115920000D01*
X192180000Y-116920000D02*
X197180000Y-116920000D01*
%TO.N,Net-(U15-Pad9)*%
X193762202Y-55845000D02*
X192230499Y-54313297D01*
X186831478Y-50268522D02*
X186180000Y-50920000D01*
X195360000Y-55845000D02*
X193762202Y-55845000D01*
X192230499Y-54313297D02*
X192230499Y-52959756D01*
X174227544Y-49920000D02*
X174180000Y-49967544D01*
X187733545Y-50234091D02*
X187699114Y-50268522D01*
X188554570Y-50268522D02*
X188520139Y-50234091D01*
X174180000Y-52920000D02*
X174180000Y-58920000D01*
X188520139Y-50234091D02*
X187733545Y-50234091D01*
X189539265Y-50268522D02*
X188554570Y-50268522D01*
X180180000Y-48920000D02*
X179180000Y-49920000D01*
X187699114Y-50268522D02*
X186831478Y-50268522D01*
X179180000Y-49920000D02*
X174227544Y-49920000D01*
X192230499Y-52959756D02*
X189539265Y-50268522D01*
%TO.N,Net-(U1-Pad2)*%
X76090543Y-84116398D02*
X91521758Y-84116398D01*
X75897120Y-83922975D02*
X76090543Y-84116398D01*
X91521758Y-84116398D02*
X91675657Y-83962499D01*
%TO.N,Net-(U1-Pad3)*%
X78000954Y-82945000D02*
X90819667Y-82945000D01*
X90819667Y-82945000D02*
X90912088Y-83037421D01*
%TO.N,Net-(U1-Pad4)*%
X90903811Y-81945000D02*
X91007122Y-81841689D01*
X79000954Y-81945000D02*
X90903811Y-81945000D01*
%TO.N,Net-(U1-Pad5)*%
X80000954Y-80945000D02*
X80014955Y-80959001D01*
X80014955Y-80959001D02*
X90547013Y-80959000D01*
X90613825Y-80892188D02*
X91996347Y-80892189D01*
X90547013Y-80959000D02*
X90613825Y-80892188D01*
%TO.N,Net-(U1-Pad6)*%
X90998642Y-79945000D02*
X91000954Y-79942688D01*
X81065454Y-79945000D02*
X90998642Y-79945000D01*
X81000954Y-80009500D02*
X81065454Y-79945000D01*
%TO.N,Net-(U1-Pad7)*%
X83000954Y-88945000D02*
X99796987Y-88945000D01*
X99796987Y-88945000D02*
X99847487Y-88894500D01*
X81801451Y-86945000D02*
X81801451Y-87745497D01*
X81801451Y-87745497D02*
X83000954Y-88945000D01*
%TO.N,Net-(U1-Pad8)*%
X85170900Y-88163599D02*
X85389499Y-87945000D01*
X85389499Y-87945000D02*
X100275954Y-87945000D01*
X83000954Y-86945000D02*
X84219553Y-88163599D01*
X84219553Y-88163599D02*
X85170900Y-88163599D01*
X100275954Y-87945000D02*
X101138454Y-88807500D01*
%TO.N,Net-(U1-Pad9)*%
X102638454Y-88220000D02*
X102638454Y-88307500D01*
X85046701Y-86945000D02*
X101363454Y-86945000D01*
X84777603Y-87214098D02*
X85046701Y-86945000D01*
X101363454Y-86945000D02*
X102638454Y-88220000D01*
%TD*%
M02*
