%TF.GenerationSoftware,KiCad,Pcbnew,6.0.1-79c1e3a40b~116~ubuntu21.10.1*%
%TF.CreationDate,2022-02-13T21:16:16+01:00*%
%TF.ProjectId,Activation_Module,41637469-7661-4746-996f-6e5f4d6f6475,v0.3*%
%TF.SameCoordinates,Original*%
%TF.FileFunction,Paste,Top*%
%TF.FilePolarity,Positive*%
%FSLAX46Y46*%
G04 Gerber Fmt 4.6, Leading zero omitted, Abs format (unit mm)*
G04 Created by KiCad (PCBNEW 6.0.1-79c1e3a40b~116~ubuntu21.10.1) date 2022-02-13 21:16:16*
%MOMM*%
%LPD*%
G01*
G04 APERTURE LIST*
%ADD10R,1.500000X0.600000*%
G04 APERTURE END LIST*
D10*
%TO.C,U10*%
X73225000Y-76105954D03*
X73225000Y-77375954D03*
X73225000Y-78645954D03*
X73225000Y-79915954D03*
X73225000Y-81185954D03*
X73225000Y-82455954D03*
X73225000Y-83725954D03*
X73225000Y-84995954D03*
X73225000Y-86265954D03*
X73225000Y-87535954D03*
X82725000Y-87535954D03*
X82725000Y-86265954D03*
X82725000Y-84995954D03*
X82725000Y-83725954D03*
X82725000Y-82455954D03*
X82725000Y-81185954D03*
X82725000Y-79915954D03*
X82725000Y-78645954D03*
X82725000Y-77375954D03*
X82725000Y-76105954D03*
%TD*%
%TO.C,U8*%
X49225000Y-26105954D03*
X49225000Y-27375954D03*
X49225000Y-28645954D03*
X49225000Y-29915954D03*
X49225000Y-31185954D03*
X49225000Y-32455954D03*
X49225000Y-33725954D03*
X49225000Y-34995954D03*
X49225000Y-36265954D03*
X49225000Y-37535954D03*
X58725000Y-37535954D03*
X58725000Y-36265954D03*
X58725000Y-34995954D03*
X58725000Y-33725954D03*
X58725000Y-32455954D03*
X58725000Y-31185954D03*
X58725000Y-29915954D03*
X58725000Y-28645954D03*
X58725000Y-27375954D03*
X58725000Y-26105954D03*
%TD*%
%TO.C,U3*%
X73225000Y-93105954D03*
X73225000Y-94375954D03*
X73225000Y-95645954D03*
X73225000Y-96915954D03*
X73225000Y-98185954D03*
X73225000Y-99455954D03*
X73225000Y-100725954D03*
X73225000Y-101995954D03*
X73225000Y-103265954D03*
X73225000Y-104535954D03*
X82725000Y-104535954D03*
X82725000Y-103265954D03*
X82725000Y-101995954D03*
X82725000Y-100725954D03*
X82725000Y-99455954D03*
X82725000Y-98185954D03*
X82725000Y-96915954D03*
X82725000Y-95645954D03*
X82725000Y-94375954D03*
X82725000Y-93105954D03*
%TD*%
%TO.C,U11*%
X73225000Y-110105954D03*
X73225000Y-111375954D03*
X73225000Y-112645954D03*
X73225000Y-113915954D03*
X73225000Y-115185954D03*
X73225000Y-116455954D03*
X73225000Y-117725954D03*
X73225000Y-118995954D03*
X73225000Y-120265954D03*
X73225000Y-121535954D03*
X82725000Y-121535954D03*
X82725000Y-120265954D03*
X82725000Y-118995954D03*
X82725000Y-117725954D03*
X82725000Y-116455954D03*
X82725000Y-115185954D03*
X82725000Y-113915954D03*
X82725000Y-112645954D03*
X82725000Y-111375954D03*
X82725000Y-110105954D03*
%TD*%
%TO.C,U14*%
X49225000Y-43105954D03*
X49225000Y-44375954D03*
X49225000Y-45645954D03*
X49225000Y-46915954D03*
X49225000Y-48185954D03*
X49225000Y-49455954D03*
X49225000Y-50725954D03*
X49225000Y-51995954D03*
X49225000Y-53265954D03*
X49225000Y-54535954D03*
X58725000Y-54535954D03*
X58725000Y-53265954D03*
X58725000Y-51995954D03*
X58725000Y-50725954D03*
X58725000Y-49455954D03*
X58725000Y-48185954D03*
X58725000Y-46915954D03*
X58725000Y-45645954D03*
X58725000Y-44375954D03*
X58725000Y-43105954D03*
%TD*%
%TO.C,U17*%
X49225000Y-77105954D03*
X49225000Y-78375954D03*
X49225000Y-79645954D03*
X49225000Y-80915954D03*
X49225000Y-82185954D03*
X49225000Y-83455954D03*
X49225000Y-84725954D03*
X49225000Y-85995954D03*
X49225000Y-87265954D03*
X49225000Y-88535954D03*
X58725000Y-88535954D03*
X58725000Y-87265954D03*
X58725000Y-85995954D03*
X58725000Y-84725954D03*
X58725000Y-83455954D03*
X58725000Y-82185954D03*
X58725000Y-80915954D03*
X58725000Y-79645954D03*
X58725000Y-78375954D03*
X58725000Y-77105954D03*
%TD*%
%TO.C,U1*%
X73225000Y-59105954D03*
X73225000Y-60375954D03*
X73225000Y-61645954D03*
X73225000Y-62915954D03*
X73225000Y-64185954D03*
X73225000Y-65455954D03*
X73225000Y-66725954D03*
X73225000Y-67995954D03*
X73225000Y-69265954D03*
X73225000Y-70535954D03*
X82725000Y-70535954D03*
X82725000Y-69265954D03*
X82725000Y-67995954D03*
X82725000Y-66725954D03*
X82725000Y-65455954D03*
X82725000Y-64185954D03*
X82725000Y-62915954D03*
X82725000Y-61645954D03*
X82725000Y-60375954D03*
X82725000Y-59105954D03*
%TD*%
%TO.C,U9*%
X49225000Y-60105954D03*
X49225000Y-61375954D03*
X49225000Y-62645954D03*
X49225000Y-63915954D03*
X49225000Y-65185954D03*
X49225000Y-66455954D03*
X49225000Y-67725954D03*
X49225000Y-68995954D03*
X49225000Y-70265954D03*
X49225000Y-71535954D03*
X58725000Y-71535954D03*
X58725000Y-70265954D03*
X58725000Y-68995954D03*
X58725000Y-67725954D03*
X58725000Y-66455954D03*
X58725000Y-65185954D03*
X58725000Y-63915954D03*
X58725000Y-62645954D03*
X58725000Y-61375954D03*
X58725000Y-60105954D03*
%TD*%
M02*
