%TF.GenerationSoftware,KiCad,Pcbnew,6.0.1-79c1e3a40b~116~ubuntu21.10.1*%
%TF.CreationDate,2022-02-12T18:15:07+01:00*%
%TF.ProjectId,Activation_Module,41637469-7661-4746-996f-6e5f4d6f6475,v0.3*%
%TF.SameCoordinates,Original*%
%TF.FileFunction,Profile,NP*%
%FSLAX46Y46*%
G04 Gerber Fmt 4.6, Leading zero omitted, Abs format (unit mm)*
G04 Created by KiCad (PCBNEW 6.0.1-79c1e3a40b~116~ubuntu21.10.1) date 2022-02-12 18:15:07*
%MOMM*%
%LPD*%
G01*
G04 APERTURE LIST*
%TA.AperFunction,Profile*%
%ADD10C,0.200000*%
%TD*%
%ADD11C,0.150000*%
%TA.AperFunction,Profile*%
%ADD12C,0.050000*%
%TD*%
G04 APERTURE END LIST*
D10*
X28000000Y-14000000D02*
X129500000Y-14000000D01*
X129500000Y-14000000D02*
X129500000Y-191000000D01*
X129500000Y-191000000D02*
X28000000Y-191000000D01*
X28000000Y-191000000D02*
X28000000Y-14000000D01*
D11*
X74226190Y-193302380D02*
X73654761Y-193302380D01*
X73940476Y-193302380D02*
X73940476Y-192302380D01*
X73845238Y-192445238D01*
X73750000Y-192540476D01*
X73654761Y-192588095D01*
X74845238Y-192302380D02*
X74940476Y-192302380D01*
X75035714Y-192350000D01*
X75083333Y-192397619D01*
X75130952Y-192492857D01*
X75178571Y-192683333D01*
X75178571Y-192921428D01*
X75130952Y-193111904D01*
X75083333Y-193207142D01*
X75035714Y-193254761D01*
X74940476Y-193302380D01*
X74845238Y-193302380D01*
X74750000Y-193254761D01*
X74702380Y-193207142D01*
X74654761Y-193111904D01*
X74607142Y-192921428D01*
X74607142Y-192683333D01*
X74654761Y-192492857D01*
X74702380Y-192397619D01*
X74750000Y-192350000D01*
X74845238Y-192302380D01*
X76130952Y-193302380D02*
X75559523Y-193302380D01*
X75845238Y-193302380D02*
X75845238Y-192302380D01*
X75750000Y-192445238D01*
X75654761Y-192540476D01*
X75559523Y-192588095D01*
X76607142Y-193254761D02*
X76607142Y-193302380D01*
X76559523Y-193397619D01*
X76511904Y-193445238D01*
X77511904Y-192302380D02*
X77035714Y-192302380D01*
X76988095Y-192778571D01*
X77035714Y-192730952D01*
X77130952Y-192683333D01*
X77369047Y-192683333D01*
X77464285Y-192730952D01*
X77511904Y-192778571D01*
X77559523Y-192873809D01*
X77559523Y-193111904D01*
X77511904Y-193207142D01*
X77464285Y-193254761D01*
X77369047Y-193302380D01*
X77130952Y-193302380D01*
X77035714Y-193254761D01*
X76988095Y-193207142D01*
X78178571Y-192302380D02*
X78273809Y-192302380D01*
X78369047Y-192350000D01*
X78416666Y-192397619D01*
X78464285Y-192492857D01*
X78511904Y-192683333D01*
X78511904Y-192921428D01*
X78464285Y-193111904D01*
X78416666Y-193207142D01*
X78369047Y-193254761D01*
X78273809Y-193302380D01*
X78178571Y-193302380D01*
X78083333Y-193254761D01*
X78035714Y-193207142D01*
X77988095Y-193111904D01*
X77940476Y-192921428D01*
X77940476Y-192683333D01*
X77988095Y-192492857D01*
X78035714Y-192397619D01*
X78083333Y-192350000D01*
X78178571Y-192302380D01*
X79130952Y-192302380D02*
X79226190Y-192302380D01*
X79321428Y-192350000D01*
X79369047Y-192397619D01*
X79416666Y-192492857D01*
X79464285Y-192683333D01*
X79464285Y-192921428D01*
X79416666Y-193111904D01*
X79369047Y-193207142D01*
X79321428Y-193254761D01*
X79226190Y-193302380D01*
X79130952Y-193302380D01*
X79035714Y-193254761D01*
X78988095Y-193207142D01*
X78940476Y-193111904D01*
X78892857Y-192921428D01*
X78892857Y-192683333D01*
X78940476Y-192492857D01*
X78988095Y-192397619D01*
X79035714Y-192350000D01*
X79130952Y-192302380D01*
X80083333Y-192302380D02*
X80178571Y-192302380D01*
X80273809Y-192350000D01*
X80321428Y-192397619D01*
X80369047Y-192492857D01*
X80416666Y-192683333D01*
X80416666Y-192921428D01*
X80369047Y-193111904D01*
X80321428Y-193207142D01*
X80273809Y-193254761D01*
X80178571Y-193302380D01*
X80083333Y-193302380D01*
X79988095Y-193254761D01*
X79940476Y-193207142D01*
X79892857Y-193111904D01*
X79845238Y-192921428D01*
X79845238Y-192683333D01*
X79892857Y-192492857D01*
X79940476Y-192397619D01*
X79988095Y-192350000D01*
X80083333Y-192302380D01*
X81607142Y-193302380D02*
X81607142Y-192635714D01*
X81607142Y-192730952D02*
X81654761Y-192683333D01*
X81750000Y-192635714D01*
X81892857Y-192635714D01*
X81988095Y-192683333D01*
X82035714Y-192778571D01*
X82035714Y-193302380D01*
X82035714Y-192778571D02*
X82083333Y-192683333D01*
X82178571Y-192635714D01*
X82321428Y-192635714D01*
X82416666Y-192683333D01*
X82464285Y-192778571D01*
X82464285Y-193302380D01*
X82940476Y-193302380D02*
X82940476Y-192635714D01*
X82940476Y-192730952D02*
X82988095Y-192683333D01*
X83083333Y-192635714D01*
X83226190Y-192635714D01*
X83321428Y-192683333D01*
X83369047Y-192778571D01*
X83369047Y-193302380D01*
X83369047Y-192778571D02*
X83416666Y-192683333D01*
X83511904Y-192635714D01*
X83654761Y-192635714D01*
X83750000Y-192683333D01*
X83797619Y-192778571D01*
X83797619Y-193302380D01*
D12*
X28000000Y-191500000D02*
X28000000Y-194586420D01*
X129500000Y-191500000D02*
X129500000Y-194586420D01*
X28000000Y-194000000D02*
X129500000Y-194000000D01*
X28000000Y-194000000D02*
X129500000Y-194000000D01*
X28000000Y-194000000D02*
X29126504Y-194586421D01*
X28000000Y-194000000D02*
X29126504Y-193413579D01*
X129500000Y-194000000D02*
X128373496Y-193413579D01*
X129500000Y-194000000D02*
X128373496Y-194586421D01*
D11*
X20302380Y-107023809D02*
X20302380Y-107595238D01*
X20302380Y-107309523D02*
X19302380Y-107309523D01*
X19445238Y-107404761D01*
X19540476Y-107500000D01*
X19588095Y-107595238D01*
X19302380Y-106690476D02*
X19302380Y-106023809D01*
X20302380Y-106452380D01*
X19302380Y-105738095D02*
X19302380Y-105071428D01*
X20302380Y-105500000D01*
X20254761Y-104642857D02*
X20302380Y-104642857D01*
X20397619Y-104690476D01*
X20445238Y-104738095D01*
X19302380Y-104023809D02*
X19302380Y-103928571D01*
X19350000Y-103833333D01*
X19397619Y-103785714D01*
X19492857Y-103738095D01*
X19683333Y-103690476D01*
X19921428Y-103690476D01*
X20111904Y-103738095D01*
X20207142Y-103785714D01*
X20254761Y-103833333D01*
X20302380Y-103928571D01*
X20302380Y-104023809D01*
X20254761Y-104119047D01*
X20207142Y-104166666D01*
X20111904Y-104214285D01*
X19921428Y-104261904D01*
X19683333Y-104261904D01*
X19492857Y-104214285D01*
X19397619Y-104166666D01*
X19350000Y-104119047D01*
X19302380Y-104023809D01*
X19302380Y-103071428D02*
X19302380Y-102976190D01*
X19350000Y-102880952D01*
X19397619Y-102833333D01*
X19492857Y-102785714D01*
X19683333Y-102738095D01*
X19921428Y-102738095D01*
X20111904Y-102785714D01*
X20207142Y-102833333D01*
X20254761Y-102880952D01*
X20302380Y-102976190D01*
X20302380Y-103071428D01*
X20254761Y-103166666D01*
X20207142Y-103214285D01*
X20111904Y-103261904D01*
X19921428Y-103309523D01*
X19683333Y-103309523D01*
X19492857Y-103261904D01*
X19397619Y-103214285D01*
X19350000Y-103166666D01*
X19302380Y-103071428D01*
X19302380Y-102119047D02*
X19302380Y-102023809D01*
X19350000Y-101928571D01*
X19397619Y-101880952D01*
X19492857Y-101833333D01*
X19683333Y-101785714D01*
X19921428Y-101785714D01*
X20111904Y-101833333D01*
X20207142Y-101880952D01*
X20254761Y-101928571D01*
X20302380Y-102023809D01*
X20302380Y-102119047D01*
X20254761Y-102214285D01*
X20207142Y-102261904D01*
X20111904Y-102309523D01*
X19921428Y-102357142D01*
X19683333Y-102357142D01*
X19492857Y-102309523D01*
X19397619Y-102261904D01*
X19350000Y-102214285D01*
X19302380Y-102119047D01*
X19302380Y-101166666D02*
X19302380Y-101071428D01*
X19350000Y-100976190D01*
X19397619Y-100928571D01*
X19492857Y-100880952D01*
X19683333Y-100833333D01*
X19921428Y-100833333D01*
X20111904Y-100880952D01*
X20207142Y-100928571D01*
X20254761Y-100976190D01*
X20302380Y-101071428D01*
X20302380Y-101166666D01*
X20254761Y-101261904D01*
X20207142Y-101309523D01*
X20111904Y-101357142D01*
X19921428Y-101404761D01*
X19683333Y-101404761D01*
X19492857Y-101357142D01*
X19397619Y-101309523D01*
X19350000Y-101261904D01*
X19302380Y-101166666D01*
X20302380Y-99642857D02*
X19635714Y-99642857D01*
X19730952Y-99642857D02*
X19683333Y-99595238D01*
X19635714Y-99500000D01*
X19635714Y-99357142D01*
X19683333Y-99261904D01*
X19778571Y-99214285D01*
X20302380Y-99214285D01*
X19778571Y-99214285D02*
X19683333Y-99166666D01*
X19635714Y-99071428D01*
X19635714Y-98928571D01*
X19683333Y-98833333D01*
X19778571Y-98785714D01*
X20302380Y-98785714D01*
X20302380Y-98309523D02*
X19635714Y-98309523D01*
X19730952Y-98309523D02*
X19683333Y-98261904D01*
X19635714Y-98166666D01*
X19635714Y-98023809D01*
X19683333Y-97928571D01*
X19778571Y-97880952D01*
X20302380Y-97880952D01*
X19778571Y-97880952D02*
X19683333Y-97833333D01*
X19635714Y-97738095D01*
X19635714Y-97595238D01*
X19683333Y-97500000D01*
X19778571Y-97452380D01*
X20302380Y-97452380D01*
D12*
X27500000Y-191000000D02*
X20413580Y-191000000D01*
X27500000Y-14000000D02*
X20413580Y-14000000D01*
X21000000Y-191000000D02*
X21000000Y-14000000D01*
X21000000Y-191000000D02*
X21000000Y-14000000D01*
X21000000Y-191000000D02*
X21586421Y-189873496D01*
X21000000Y-191000000D02*
X20413579Y-189873496D01*
X21000000Y-14000000D02*
X20413579Y-15126504D01*
X21000000Y-14000000D02*
X21586421Y-15126504D01*
M02*
