M48
; DRILL file {KiCad 6.0.1-79c1e3a40b~116~ubuntu21.10.1} date Mo 14 Feb 2022 17:50:46 CET
; FORMAT={-:-/ absolute / metric / decimal}
; #@! TF.CreationDate,2022-02-14T17:50:46+01:00
; #@! TF.GenerationSoftware,Kicad,Pcbnew,6.0.1-79c1e3a40b~116~ubuntu21.10.1
; #@! TF.FileFunction,Plated,1,2,PTH
FMAT,2
METRIC
; #@! TA.AperFunction,Plated,PTH,ViaDrill
T1C0.400
; #@! TA.AperFunction,Plated,PTH,ComponentDrill
T2C0.800
; #@! TA.AperFunction,Plated,PTH,ComponentDrill
T3C0.900
; #@! TA.AperFunction,Plated,PTH,ComponentDrill
T4C1.000
%
G90
G05
T1
X31.279Y-112.92
X31.991Y-115.761
X33.18Y-116.92
X37.576Y-79.503
X38.18Y-102.92
X39.091Y-79.543
X39.681Y-75.945
X41.001Y-79.445
X41.286Y-109.695
X42.556Y-95.544
X42.556Y-110.974
X43.201Y-79.545
X43.58Y-111.72
X45.001Y-79.545
X45.18Y-112.32
X46.18Y-113.12
X46.244Y-94.188
X47.001Y-79.545
X47.58Y-113.72
X47.606Y-94.169
X48.155Y-95.236
X48.801Y-79.445
X49.252Y-114.04
X50.001Y-94.945
X50.268Y-114.964
X51.001Y-79.545
X51.001Y-95.945
X51.538Y-115.945
X52.001Y-96.945
X53.001Y-79.545
X53.001Y-97.945
X55.001Y-79.545
X56.28Y-54.13
X57.001Y-79.545
X57.24Y-42.75
X58.58Y-126.52
X58.98Y-65.92
X59.224Y-111.214
X59.385Y-99.92
X59.723Y-112.844
X60.18Y-65.92
X61.001Y-112.945
X61.631Y-115.044
X61.784Y-113.854
X62.009Y-65.749
X62.081Y-75.945
X62.18Y-58.92
X62.755Y-77.345
X63.157Y-115.166
X64.039Y-115.98
X64.18Y-65.048
X64.18Y-66.947
X64.636Y-93.31
X65.001Y-116.945
X65.463Y-40.787
X65.906Y-93.85
X66.18Y-66.92
X67.176Y-95.12
X68.18Y-67.019
X68.446Y-96.39
X69.021Y-111.363
X69.58Y-126.72
X69.716Y-98.23
X70.001Y-118.596
X70.18Y-63.82
X70.573Y-111.572
X71.006Y-117.942
X71.1Y-55.72
X71.88Y-122.42
X72.2Y-111.945
X72.205Y-117.945
X73.001Y-112.945
X73.185Y-76.629
X74.001Y-113.945
X74.001Y-117.945
X74.18Y-124.12
X75.556Y-76.195
X75.556Y-76.195
X75.897Y-83.923
X76.001Y-114.945
X76.001Y-117.945
X76.385Y-100.92
X76.556Y-109.695
X76.58Y-125.12
X77.962Y-109.559
X78.001Y-82.945
X78.001Y-115.945
X78.001Y-117.945
X78.18Y-54.92
X78.813Y-98.947
X79.001Y-81.945
X79.153Y-109.702
X79.309Y-125.791
X79.808Y-117.795
X80.001Y-80.945
X80.012Y-98.936
X80.366Y-109.695
X81.001Y-80.01
X81.672Y-109.659
X81.674Y-98.931
X81.801Y-86.945
X82.873Y-98.925
X82.979Y-109.622
X83.001Y-86.945
X84.072Y-98.971
X84.212Y-109.659
X84.778Y-87.214
X85.472Y-109.669
X85.536Y-78.91
X85.81Y-98.803
X86.18Y-32.92
X86.778Y-109.633
X87.001Y-98.945
X87.001Y-104.019
X90.912Y-83.037
X91.001Y-79.943
X91.007Y-81.842
X91.286Y-85.695
X91.676Y-83.962
X91.996Y-80.892
X92.556Y-76.195
X93.556Y-100.195
X93.801Y-74.945
X95.001Y-74.945
X96.001Y-73.945
X96.605Y-123.745
X96.989Y-72.957
X97.799Y-122.96
X97.848Y-72.119
X98.251Y-121.849
X98.641Y-71.219
X98.849Y-119.451
X98.878Y-120.822
X99.18Y-83.92
X99.625Y-70.533
X99.847Y-88.894
X99.906Y-118.446
X100.186Y-69.472
X101.138Y-88.807
X102.18Y-45.92
X102.638Y-88.307
X102.716Y-85.695
X103.18Y-78.92
X104.18Y-49.95
X104.18Y-75.92
X104.35Y-56.06
X105.006Y-67.107
X105.1Y-51.73
X105.15Y-53.67
X105.18Y-65.92
X105.98Y-78.92
X106.13Y-40.97
X106.18Y-119.12
X107.18Y-53.77
X107.18Y-78.92
X107.18Y-82.92
X107.38Y-118.12
X108.18Y-66.92
X108.18Y-68.12
X108.18Y-85.92
X108.521Y-40.22
X109.04Y-49.91
X109.501Y-76.12
X109.504Y-38.021
X110.18Y-39.92
X110.18Y-42.92
X110.826Y-76.195
X112.096Y-76.195
X112.18Y-39.92
X112.18Y-42.92
X112.18Y-49.12
X113.366Y-76.195
X114.636Y-76.195
X115.906Y-76.195
X116.541Y-118.081
X117.176Y-76.195
X117.18Y-37.271
X117.18Y-40.104
X118.18Y-67.92
X118.38Y-119.12
X118.446Y-76.195
X119.18Y-98.92
X119.229Y-118.095
X119.716Y-85.695
X119.78Y-76.12
X120.18Y-65.92
X120.18Y-99.92
X120.329Y-116.791
X121.18Y-75.92
X121.983Y-84.99
X122.001Y-97.945
X122.18Y-37.269
X123.18Y-77.92
X123.18Y-82.92
X123.18Y-84.92
X123.58Y-119.32
X124.172Y-97.116
X124.18Y-37.269
X124.204Y-81.96
X124.725Y-39.92
X125.18Y-62.92
X125.18Y-68.92
X125.222Y-41.012
X126.172Y-96.116
X126.18Y-36.92
X126.38Y-112.12
X126.556Y-76.195
X126.881Y-41.82
X127.18Y-61.92
X127.18Y-64.92
X127.18Y-68.92
X127.409Y-111.503
X127.791Y-122.988
X128.075Y-41.929
X128.172Y-95.116
X128.18Y-65.92
X129.18Y-36.92
X129.275Y-41.919
X129.58Y-109.32
X130.172Y-94.116
X130.778Y-109.254
X131.009Y-37.091
X131.18Y-41.92
X131.924Y-92.844
X132.851Y-124.049
X133.064Y-58.761
X134.001Y-89.945
X134.129Y-108.899
X134.18Y-43.92
X135.18Y-61.92
X135.18Y-87.92
X136.056Y-63.97
X136.616Y-85.695
X139.244Y-121.879
X141.18Y-44.92
X142.18Y-47.92
X142.18Y-70.92
X143.18Y-43.92
X143.18Y-69.92
X145.258Y-36.686
X145.258Y-39.988
X146.18Y-49.92
X146.18Y-52.92
X146.18Y-52.92
X146.18Y-62.92
X146.351Y-66.749
X148.18Y-43.92
X148.18Y-50.92
X148.18Y-52.92
X148.18Y-56.92
X148.18Y-62.92
X148.351Y-65.749
X149.968Y-40.177
X150.18Y-42.92
X150.18Y-59.92
X151.18Y-36.92
X151.18Y-102.92
X151.62Y-104.24
X152.18Y-42.92
X152.878Y-38.972
X153.18Y-71.92
X153.18Y-47.92
X153.18Y-77.92
X153.98Y-75.92
X154.18Y-39.921
X154.18Y-90.92
X155.18Y-70.92
X155.18Y-73.92
X155.18Y-75.92
X155.18Y-85.92
X155.44Y-48.65
X155.926Y-38.718
X155.99Y-46.5
X156.38Y-75.92
X157.18Y-42.92
X157.704Y-36.432
X158.009Y-41.091
X158.18Y-52.92
X159.18Y-44.92
X159.18Y-48.82
X159.18Y-56.92
X159.18Y-72.92
X160.18Y-49.92
X160.18Y-52.92
X160.18Y-74.019
X160.18Y-75.92
X160.18Y-79.92
X160.18Y-94.92
X160.56Y-102.02
X161.006Y-38.21
X161.18Y-91.92
X161.18Y-113.92
X161.18Y-117.92
X161.829Y-123.054
X162.18Y-74.019
X162.18Y-75.92
X162.18Y-79.92
X163.18Y-39.92
X163.18Y-92.92
X163.681Y-48.419
X164.18Y-76.92
X165.18Y-70.92
X166.98Y-103.92
X167.159Y-94.771
X167.17Y-96.971
X167.18Y-70.92
X167.18Y-74.92
X167.18Y-113.92
X168.18Y-75.92
X168.18Y-80.92
X168.18Y-103.92
X168.18Y-121.971
X168.781Y-78.92
X169.18Y-76.92
X169.909Y-98.848
X169.98Y-78.92
X170.031Y-92.92
X170.18Y-72.92
X170.881Y-70.92
X170.98Y-90.92
X170.98Y-93.92
X171.18Y-78.92
X171.18Y-98.92
X172.016Y-50.218
X172.055Y-45.92
X172.071Y-67.82
X172.081Y-70.92
X172.18Y-72.92
X172.18Y-90.92
X172.18Y-93.92
X172.18Y-103.92
X172.98Y-52.92
X173.18Y-98.92
X174.18Y-49.968
X174.18Y-52.92
X174.18Y-58.92
X174.18Y-97.92
X174.18Y-101.92
X176.061Y-81.707
X176.616Y-72.848
X176.731Y-74.773
X177.009Y-83.749
X177.009Y-97.749
X177.06Y-37.453
X177.18Y-87.92
X177.18Y-93.92
X177.78Y-73.137
X177.915Y-75.036
X178.18Y-95.92
X178.18Y-117.92
X179.081Y-85.92
X179.119Y-74.897
X179.18Y-33.92
X179.294Y-70.976
X179.38Y-95.92
X179.98Y-99.77
X180.009Y-104.091
X180.18Y-42.969
X180.18Y-48.92
X180.18Y-52.92
X180.31Y-75.04
X180.579Y-47.319
X181.154Y-34.409
X181.326Y-77.326
X181.97Y-46.71
X182.095Y-35.924
X182.18Y-101.92
X182.342Y-74.278
X182.595Y-98.78
X183.104Y-34.466
X183.18Y-49.92
X184.18Y-46.92
X184.18Y-106.92
X184.18Y-113.92
X184.18Y-104.019
X184.48Y-101.12
X184.993Y-97.746
X185.18Y-49.92
X185.18Y-70.92
X185.18Y-90.92
X185.18Y-118.92
X185.18Y-120.12
X186.18Y-50.92
X186.18Y-59.92
X186.18Y-97.92
X187.18Y-51.92
X188.129Y-51.184
X188.18Y-43.92
X188.18Y-47.886
X189.979Y-44.904
X190.18Y-118.92
X190.98Y-127.12
X191.18Y-119.92
X192.081Y-47.92
X192.18Y-50.706
X192.18Y-58.92
X192.18Y-68.92
X192.18Y-111.92
X192.18Y-116.92
X193.18Y-53.92
X193.518Y-47.1
X194.781Y-46.404
X195.476Y-48.623
X197.18Y-76.92
X197.908Y-57.955
X198.09Y-49.894
X198.156Y-51.806
X198.18Y-75.92
X199.106Y-58.022
X199.106Y-66.658
X200.122Y-48.878
X200.122Y-51.672
X200.63Y-54.72
X203.18Y-79.92
T2
X35.71Y-59.62
X35.71Y-64.62
X38.951Y-90.62
X40.951Y-90.62
X42.54Y-59.77
X42.54Y-64.77
X42.951Y-90.62
X44.951Y-90.62
X46.951Y-90.62
X48.951Y-90.62
X50.951Y-90.62
X52.951Y-90.62
X54.951Y-90.62
X56.951Y-90.62
X58.951Y-90.62
X60.38Y-40.295
X60.38Y-42.835
X60.38Y-45.375
X60.38Y-47.915
X60.38Y-50.455
X60.38Y-52.995
X60.38Y-55.535
X60.83Y-34.6
X60.951Y-90.62
X62.951Y-90.62
X64.951Y-90.62
X65.83Y-34.6
X66.951Y-90.62
X68.0Y-40.295
X68.0Y-42.835
X68.0Y-45.375
X68.0Y-47.915
X68.0Y-50.455
X68.0Y-52.995
X68.0Y-55.535
X68.951Y-90.62
X70.951Y-90.62
X71.45Y-34.49
X72.951Y-90.62
X74.951Y-90.62
X75.38Y-40.295
X75.38Y-42.835
X75.38Y-45.375
X75.38Y-47.915
X75.38Y-50.455
X75.38Y-52.995
X75.38Y-55.535
X76.45Y-34.49
X76.951Y-90.62
X78.951Y-90.62
X80.951Y-90.62
X82.951Y-90.62
X83.0Y-40.295
X83.0Y-42.835
X83.0Y-45.375
X83.0Y-47.915
X83.0Y-50.455
X83.0Y-52.995
X83.0Y-55.535
X84.951Y-90.62
X86.951Y-90.62
X87.105Y-57.45
X87.18Y-42.92
X87.18Y-47.92
X87.18Y-52.92
X88.951Y-90.62
X89.645Y-57.45
X89.72Y-42.92
X89.72Y-47.92
X89.72Y-52.92
X90.951Y-90.62
X92.951Y-90.62
X94.951Y-90.62
X96.951Y-90.62
X98.951Y-90.62
X100.951Y-90.62
X102.951Y-90.62
X104.951Y-90.62
X106.951Y-90.62
X108.951Y-90.62
X110.951Y-90.62
X112.951Y-90.62
X114.951Y-90.62
X115.18Y-44.12
X115.18Y-46.66
X115.18Y-49.2
X115.18Y-51.74
X115.18Y-54.28
X115.18Y-56.82
X115.18Y-59.36
X115.18Y-61.9
X116.951Y-90.62
X119.011Y-90.62
X121.011Y-90.62
X122.8Y-44.12
X122.8Y-46.66
X122.8Y-49.2
X122.8Y-51.74
X122.8Y-54.28
X122.8Y-56.82
X122.8Y-59.36
X122.8Y-61.9
X131.38Y-44.22
X131.38Y-46.76
X131.38Y-49.3
X131.38Y-51.84
X131.38Y-54.38
X131.38Y-56.92
X131.38Y-59.46
X131.38Y-62.0
X139.0Y-44.22
X139.0Y-46.76
X139.0Y-49.3
X139.0Y-51.84
X139.0Y-54.38
X139.0Y-56.92
X139.0Y-59.46
X139.0Y-62.0
X144.28Y-119.73
X144.38Y-111.58
X149.28Y-119.73
X149.38Y-111.58
X156.36Y-53.305
X156.36Y-55.845
X156.36Y-58.385
X156.36Y-60.925
X156.36Y-63.465
X156.36Y-66.005
X156.36Y-68.545
X157.38Y-79.92
X157.38Y-82.46
X157.38Y-85.0
X157.38Y-87.54
X157.38Y-90.08
X157.38Y-92.62
X157.38Y-95.16
X157.38Y-105.295
X157.38Y-107.835
X157.38Y-110.375
X157.38Y-112.915
X157.38Y-115.455
X157.38Y-117.995
X157.38Y-120.535
X163.98Y-53.305
X163.98Y-55.845
X163.98Y-58.385
X163.98Y-60.925
X163.98Y-63.465
X163.98Y-66.005
X163.98Y-68.545
X165.0Y-79.92
X165.0Y-82.46
X165.0Y-85.0
X165.0Y-87.54
X165.0Y-90.08
X165.0Y-92.62
X165.0Y-95.16
X165.0Y-105.295
X165.0Y-107.835
X165.0Y-110.375
X165.0Y-112.915
X165.0Y-115.455
X165.0Y-117.995
X165.0Y-120.535
X166.88Y-34.146
X168.88Y-34.146
X169.36Y-53.305
X169.36Y-55.845
X169.36Y-58.385
X169.36Y-60.925
X169.36Y-63.465
X169.36Y-66.005
X169.36Y-68.545
X170.88Y-34.146
X174.38Y-105.295
X174.38Y-107.835
X174.38Y-110.375
X174.38Y-112.915
X174.38Y-115.455
X174.38Y-117.995
X174.38Y-120.535
X174.58Y-79.92
X174.58Y-82.46
X174.58Y-85.0
X174.58Y-87.54
X174.58Y-90.08
X174.58Y-92.62
X174.58Y-95.16
X176.98Y-53.305
X176.98Y-55.845
X176.98Y-58.385
X176.98Y-60.925
X176.98Y-63.465
X176.98Y-66.005
X176.98Y-68.545
X179.555Y-32.1
X179.555Y-39.72
X182.0Y-105.295
X182.0Y-107.835
X182.0Y-110.375
X182.0Y-112.915
X182.0Y-115.455
X182.0Y-117.995
X182.0Y-120.535
X182.095Y-32.1
X182.095Y-39.72
X182.2Y-79.92
X182.2Y-82.46
X182.2Y-85.0
X182.2Y-87.54
X182.2Y-90.08
X182.2Y-92.62
X182.2Y-95.16
X182.36Y-53.305
X182.36Y-55.845
X182.36Y-58.385
X182.36Y-60.925
X182.36Y-63.465
X182.36Y-66.005
X182.36Y-68.545
X184.635Y-32.1
X184.635Y-39.72
X186.18Y-81.358
X186.18Y-83.898
X186.68Y-122.398
X186.68Y-124.938
X187.175Y-32.1
X187.175Y-39.72
X187.827Y-91.578
X187.827Y-94.118
X187.827Y-96.658
X187.827Y-99.198
X187.827Y-107.578
X187.827Y-110.118
X187.827Y-112.658
X187.827Y-115.198
X188.78Y-74.99
X189.18Y-81.353
X189.18Y-83.893
X189.68Y-122.398
X189.68Y-124.938
X189.715Y-32.1
X189.715Y-39.72
X189.98Y-53.305
X189.98Y-55.845
X189.98Y-58.385
X189.98Y-60.925
X189.98Y-63.465
X189.98Y-66.005
X189.98Y-68.545
X192.18Y-81.353
X192.18Y-83.893
X192.255Y-32.1
X192.255Y-39.72
X192.68Y-122.398
X192.68Y-124.938
X193.78Y-74.99
X194.795Y-32.1
X194.795Y-39.72
X195.18Y-81.353
X195.18Y-83.893
X195.36Y-53.305
X195.36Y-55.845
X195.36Y-58.385
X195.36Y-60.925
X195.36Y-63.465
X195.36Y-66.005
X195.36Y-68.545
X195.447Y-91.578
X195.447Y-94.118
X195.447Y-96.658
X195.447Y-99.198
X195.447Y-107.578
X195.447Y-110.118
X195.447Y-112.658
X195.447Y-115.198
X195.68Y-122.398
X195.68Y-124.938
X201.5Y-37.47
X201.5Y-42.47
X202.98Y-53.305
X202.98Y-55.845
X202.98Y-58.385
X202.98Y-60.925
X202.98Y-63.465
X202.98Y-66.005
X202.98Y-68.545
T3
X95.71Y-56.2
X95.71Y-58.74
X95.72Y-39.77
X95.72Y-42.31
X95.72Y-50.745
X95.72Y-53.285
X95.73Y-45.26
X95.73Y-47.8
T4
X30.951Y-129.12
X33.491Y-129.12
X36.031Y-129.12
X38.571Y-129.12
X41.111Y-129.12
X43.651Y-129.12
X46.191Y-129.12
X48.731Y-129.12
X51.271Y-129.12
X53.811Y-129.12
X56.351Y-129.12
X58.891Y-129.12
X61.431Y-129.12
X63.971Y-129.12
X66.511Y-129.12
X69.051Y-129.12
X71.591Y-129.12
X74.131Y-129.12
X76.671Y-129.12
X79.211Y-129.12
X81.751Y-129.12
X84.291Y-129.12
X86.831Y-129.12
X89.371Y-129.12
X91.911Y-129.12
X94.451Y-129.12
X96.991Y-129.12
X99.531Y-129.12
X102.071Y-129.12
X104.611Y-129.12
X107.151Y-129.12
X109.691Y-129.12
X112.231Y-129.12
X114.771Y-129.12
X117.311Y-129.12
X119.851Y-129.12
X122.391Y-129.12
X124.931Y-129.12
X127.471Y-129.12
X130.011Y-129.12
X132.551Y-129.12
X135.091Y-129.12
X137.631Y-129.12
X140.171Y-129.12
X142.711Y-129.12
X145.251Y-129.12
X147.791Y-129.12
X150.331Y-129.12
X152.871Y-129.12
X155.411Y-129.12
X157.951Y-129.12
X160.491Y-129.12
X163.031Y-129.12
X165.571Y-129.12
X168.111Y-129.12
X170.651Y-129.12
X173.191Y-129.12
X175.731Y-129.12
X178.271Y-129.12
X180.811Y-129.12
X183.351Y-129.12
X185.891Y-129.12
X188.431Y-129.12
X190.971Y-129.12
X193.511Y-129.12
X196.051Y-129.12
X198.591Y-129.12
X201.131Y-129.12
X203.671Y-129.12
X206.211Y-129.12
X208.751Y-129.12
X211.291Y-129.12
X213.831Y-129.12
X216.371Y-129.12
X218.911Y-129.12
X221.451Y-129.12
X223.991Y-129.12
X226.531Y-129.12
T0
M30
