%TF.GenerationSoftware,KiCad,Pcbnew,6.0.1-79c1e3a40b~116~ubuntu21.10.1*%
%TF.CreationDate,2022-02-14T17:50:43+01:00*%
%TF.ProjectId,Activation_Module,41637469-7661-4746-996f-6e5f4d6f6475,v0.3*%
%TF.SameCoordinates,Original*%
%TF.FileFunction,Copper,L1,Top*%
%TF.FilePolarity,Positive*%
%FSLAX46Y46*%
G04 Gerber Fmt 4.6, Leading zero omitted, Abs format (unit mm)*
G04 Created by KiCad (PCBNEW 6.0.1-79c1e3a40b~116~ubuntu21.10.1) date 2022-02-14 17:50:43*
%MOMM*%
%LPD*%
G01*
G04 APERTURE LIST*
%TA.AperFunction,ComponentPad*%
%ADD10R,1.600000X1.600000*%
%TD*%
%TA.AperFunction,ComponentPad*%
%ADD11O,1.600000X1.600000*%
%TD*%
%TA.AperFunction,ComponentPad*%
%ADD12R,1.800000X1.800000*%
%TD*%
%TA.AperFunction,ComponentPad*%
%ADD13C,1.800000*%
%TD*%
%TA.AperFunction,SMDPad,CuDef*%
%ADD14R,0.600000X1.500000*%
%TD*%
%TA.AperFunction,ComponentPad*%
%ADD15C,1.600000*%
%TD*%
%TA.AperFunction,ComponentPad*%
%ADD16R,1.700000X1.700000*%
%TD*%
%TA.AperFunction,ComponentPad*%
%ADD17O,1.700000X1.700000*%
%TD*%
%TA.AperFunction,ComponentPad*%
%ADD18R,1.350000X1.350000*%
%TD*%
%TA.AperFunction,ComponentPad*%
%ADD19O,1.350000X1.350000*%
%TD*%
%TA.AperFunction,ViaPad*%
%ADD20C,0.800000*%
%TD*%
%TA.AperFunction,Conductor*%
%ADD21C,0.200000*%
%TD*%
%TA.AperFunction,Conductor*%
%ADD22C,0.600000*%
%TD*%
%TA.AperFunction,Conductor*%
%ADD23C,0.300000*%
%TD*%
G04 APERTURE END LIST*
D10*
%TO.P,U19,1*%
%TO.N,Net-(U18-Pad3)*%
X60380000Y-40295000D03*
D11*
%TO.P,U19,2*%
%TO.N,Net-(J1-Pad4)*%
X60380000Y-42835000D03*
%TO.P,U19,3*%
%TO.N,/WE_F*%
X60380000Y-45375000D03*
%TO.P,U19,4*%
%TO.N,Net-(U18-Pad3)*%
X60380000Y-47915000D03*
%TO.P,U19,5*%
%TO.N,Net-(J1-Pad3)*%
X60380000Y-50455000D03*
%TO.P,U19,6*%
%TO.N,/WE_R*%
X60380000Y-52995000D03*
%TO.P,U19,7,GND*%
%TO.N,+5V*%
X60380000Y-55535000D03*
%TO.P,U19,8*%
%TO.N,N/C*%
X68000000Y-55535000D03*
%TO.P,U19,9*%
X68000000Y-52995000D03*
%TO.P,U19,10*%
X68000000Y-50455000D03*
%TO.P,U19,11*%
X68000000Y-47915000D03*
%TO.P,U19,12*%
X68000000Y-45375000D03*
%TO.P,U19,13*%
X68000000Y-42835000D03*
%TO.P,U19,14,VCC*%
%TO.N,GND*%
X68000000Y-40295000D03*
%TD*%
D10*
%TO.P,U6,1*%
%TO.N,Net-(U4-Pad3)*%
X163980000Y-68545000D03*
D11*
%TO.P,U6,2*%
%TO.N,Net-(U4-Pad6)*%
X163980000Y-66005000D03*
%TO.P,U6,3*%
%TO.N,Net-(U6-Pad3)*%
X163980000Y-63465000D03*
%TO.P,U6,4*%
%TO.N,Net-(U5-Pad8)*%
X163980000Y-60925000D03*
%TO.P,U6,5*%
%TO.N,Net-(U5-Pad11)*%
X163980000Y-58385000D03*
%TO.P,U6,6*%
%TO.N,Net-(U6-Pad10)*%
X163980000Y-55845000D03*
%TO.P,U6,7,GND*%
%TO.N,GND*%
X163980000Y-53305000D03*
%TO.P,U6,8*%
%TO.N,Net-(U22-Pad1)*%
X156360000Y-53305000D03*
%TO.P,U6,9*%
%TO.N,Net-(U6-Pad9)*%
X156360000Y-55845000D03*
%TO.P,U6,10*%
%TO.N,Net-(U6-Pad10)*%
X156360000Y-58385000D03*
%TO.P,U6,11*%
%TO.N,Net-(U18-Pad1)*%
X156360000Y-60925000D03*
%TO.P,U6,12*%
%TO.N,/~{WE1}*%
X156360000Y-63465000D03*
%TO.P,U6,13*%
%TO.N,/~{WE2}*%
X156360000Y-66005000D03*
%TO.P,U6,14,VCC*%
%TO.N,+5V*%
X156360000Y-68545000D03*
%TD*%
D12*
%TO.P,D3,1,K*%
%TO.N,/~{RE1}*%
X95720000Y-50745000D03*
D13*
%TO.P,D3,2,A*%
%TO.N,Net-(D3-Pad2)*%
X95720000Y-53285000D03*
%TD*%
D10*
%TO.P,U5,1*%
%TO.N,Net-(R1-Pad2)*%
X174580000Y-79920000D03*
D11*
%TO.P,U5,2*%
%TO.N,/WE2:3*%
X174580000Y-82460000D03*
%TO.P,U5,3*%
%TO.N,Net-(U5-Pad3)*%
X174580000Y-85000000D03*
%TO.P,U5,4*%
%TO.N,Net-(R2-Pad2)*%
X174580000Y-87540000D03*
%TO.P,U5,5*%
%TO.N,/WE2:4*%
X174580000Y-90080000D03*
%TO.P,U5,6*%
%TO.N,Net-(U5-Pad6)*%
X174580000Y-92620000D03*
%TO.P,U5,7,GND*%
%TO.N,GND*%
X174580000Y-95160000D03*
%TO.P,U5,8*%
%TO.N,Net-(U5-Pad8)*%
X182200000Y-95160000D03*
%TO.P,U5,9*%
%TO.N,Net-(R3-Pad2)*%
X182200000Y-92620000D03*
%TO.P,U5,10*%
%TO.N,/WE2:5*%
X182200000Y-90080000D03*
%TO.P,U5,11*%
%TO.N,Net-(U5-Pad11)*%
X182200000Y-87540000D03*
%TO.P,U5,12*%
%TO.N,Net-(R4-Pad2)*%
X182200000Y-85000000D03*
%TO.P,U5,13*%
%TO.N,/WE2:6*%
X182200000Y-82460000D03*
%TO.P,U5,14,VCC*%
%TO.N,+5V*%
X182200000Y-79920000D03*
%TD*%
D14*
%TO.P,U10,1,~{G1}*%
%TO.N,/~{RE2}*%
X91285954Y-85695000D03*
%TO.P,U10,2,A1*%
%TO.N,Net-(U1-Pad2)*%
X92555954Y-85695000D03*
%TO.P,U10,3,A2*%
%TO.N,Net-(U1-Pad3)*%
X93825954Y-85695000D03*
%TO.P,U10,4,A3*%
%TO.N,Net-(U1-Pad4)*%
X95095954Y-85695000D03*
%TO.P,U10,5,A4*%
%TO.N,Net-(U1-Pad5)*%
X96365954Y-85695000D03*
%TO.P,U10,6,A5*%
%TO.N,Net-(U1-Pad6)*%
X97635954Y-85695000D03*
%TO.P,U10,7,A6*%
%TO.N,Net-(U1-Pad7)*%
X98905954Y-85695000D03*
%TO.P,U10,8,A7*%
%TO.N,Net-(U1-Pad8)*%
X100175954Y-85695000D03*
%TO.P,U10,9,A8*%
%TO.N,Net-(U1-Pad9)*%
X101445954Y-85695000D03*
%TO.P,U10,10,GND*%
%TO.N,GND*%
X102715954Y-85695000D03*
%TO.P,U10,11,Y8*%
%TO.N,Net-(J1-Pad28)*%
X102715954Y-76195000D03*
%TO.P,U10,12,Y7*%
%TO.N,Net-(J1-Pad27)*%
X101445954Y-76195000D03*
%TO.P,U10,13,Y6*%
%TO.N,Net-(J1-Pad26)*%
X100175954Y-76195000D03*
%TO.P,U10,14,Y5*%
%TO.N,Net-(J1-Pad25)*%
X98905954Y-76195000D03*
%TO.P,U10,15,Y4*%
%TO.N,Net-(J1-Pad24)*%
X97635954Y-76195000D03*
%TO.P,U10,16,Y3*%
%TO.N,Net-(J1-Pad23)*%
X96365954Y-76195000D03*
%TO.P,U10,17,Y2*%
%TO.N,Net-(J1-Pad22)*%
X95095954Y-76195000D03*
%TO.P,U10,18,Y1*%
%TO.N,Net-(J1-Pad21)*%
X93825954Y-76195000D03*
%TO.P,U10,19,~{G2}*%
%TO.N,GND*%
X92555954Y-76195000D03*
%TO.P,U10,20,Vcc*%
%TO.N,+5V*%
X91285954Y-76195000D03*
%TD*%
D10*
%TO.P,U7,1*%
%TO.N,Net-(U5-Pad3)*%
X189980000Y-68545000D03*
D11*
%TO.P,U7,2*%
%TO.N,Net-(U5-Pad6)*%
X189980000Y-66005000D03*
%TO.P,U7,3*%
%TO.N,Net-(U6-Pad9)*%
X189980000Y-63465000D03*
%TO.P,U7,4*%
%TO.N,Net-(U6-Pad3)*%
X189980000Y-60925000D03*
%TO.P,U7,5*%
%TO.N,Net-(U7-Pad5)*%
X189980000Y-58385000D03*
%TO.P,U7,6*%
%TO.N,Net-(U22-Pad4)*%
X189980000Y-55845000D03*
%TO.P,U7,7,GND*%
%TO.N,GND*%
X189980000Y-53305000D03*
%TO.P,U7,8*%
%TO.N,Net-(U7-Pad5)*%
X182360000Y-53305000D03*
%TO.P,U7,9*%
%TO.N,Net-(U4-Pad8)*%
X182360000Y-55845000D03*
%TO.P,U7,10*%
%TO.N,Net-(U4-Pad11)*%
X182360000Y-58385000D03*
%TO.P,U7,11*%
%TO.N,Net-(U18-Pad10)*%
X182360000Y-60925000D03*
%TO.P,U7,12*%
%TO.N,/~{RE1}*%
X182360000Y-63465000D03*
%TO.P,U7,13*%
%TO.N,/~{RE2}*%
X182360000Y-66005000D03*
%TO.P,U7,14,VCC*%
%TO.N,+5V*%
X182360000Y-68545000D03*
%TD*%
D15*
%TO.P,R9,1*%
%TO.N,GND*%
X192680000Y-124937628D03*
D11*
%TO.P,R9,2*%
%TO.N,Net-(R9-Pad2)*%
X192680000Y-122397628D03*
%TD*%
D15*
%TO.P,R10,1*%
%TO.N,GND*%
X195680000Y-124937628D03*
D11*
%TO.P,R10,2*%
%TO.N,Net-(R10-Pad2)*%
X195680000Y-122397628D03*
%TD*%
D15*
%TO.P,R1,1*%
%TO.N,GND*%
X195180000Y-81352628D03*
D11*
%TO.P,R1,2*%
%TO.N,Net-(R1-Pad2)*%
X195180000Y-83892628D03*
%TD*%
D10*
%TO.P,U4,1*%
%TO.N,Net-(R1-Pad2)*%
X157380000Y-79920000D03*
D11*
%TO.P,U4,2*%
%TO.N,/WE1:3*%
X157380000Y-82460000D03*
%TO.P,U4,3*%
%TO.N,Net-(U4-Pad3)*%
X157380000Y-85000000D03*
%TO.P,U4,4*%
%TO.N,Net-(R2-Pad2)*%
X157380000Y-87540000D03*
%TO.P,U4,5*%
%TO.N,/WE1:4*%
X157380000Y-90080000D03*
%TO.P,U4,6*%
%TO.N,Net-(U4-Pad6)*%
X157380000Y-92620000D03*
%TO.P,U4,7,GND*%
%TO.N,GND*%
X157380000Y-95160000D03*
%TO.P,U4,8*%
%TO.N,Net-(U4-Pad8)*%
X165000000Y-95160000D03*
%TO.P,U4,9*%
%TO.N,Net-(R3-Pad2)*%
X165000000Y-92620000D03*
%TO.P,U4,10*%
%TO.N,/WE1:5*%
X165000000Y-90080000D03*
%TO.P,U4,11*%
%TO.N,Net-(U4-Pad11)*%
X165000000Y-87540000D03*
%TO.P,U4,12*%
%TO.N,Net-(R4-Pad2)*%
X165000000Y-85000000D03*
%TO.P,U4,13*%
%TO.N,/WE1:6*%
X165000000Y-82460000D03*
%TO.P,U4,14,VCC*%
%TO.N,+5V*%
X165000000Y-79920000D03*
%TD*%
D14*
%TO.P,U8,1,~{G1}*%
%TO.N,GND*%
X41285954Y-109695000D03*
%TO.P,U8,2,A1*%
%TO.N,Net-(J1-Pad5)*%
X42555954Y-109695000D03*
%TO.P,U8,3,A2*%
%TO.N,Net-(J1-Pad6)*%
X43825954Y-109695000D03*
%TO.P,U8,4,A3*%
%TO.N,Net-(J1-Pad7)*%
X45095954Y-109695000D03*
%TO.P,U8,5,A4*%
%TO.N,Net-(J1-Pad8)*%
X46365954Y-109695000D03*
%TO.P,U8,6,A5*%
%TO.N,Net-(J1-Pad9)*%
X47635954Y-109695000D03*
%TO.P,U8,7,A6*%
%TO.N,Net-(J1-Pad10)*%
X48905954Y-109695000D03*
%TO.P,U8,8,A7*%
%TO.N,Net-(J1-Pad11)*%
X50175954Y-109695000D03*
%TO.P,U8,9,A8*%
%TO.N,Net-(J1-Pad12)*%
X51445954Y-109695000D03*
%TO.P,U8,10,GND*%
%TO.N,GND*%
X52715954Y-109695000D03*
%TO.P,U8,11,Y8*%
%TO.N,Net-(U14-Pad11)*%
X52715954Y-100195000D03*
%TO.P,U8,12,Y7*%
%TO.N,Net-(U14-Pad12)*%
X51445954Y-100195000D03*
%TO.P,U8,13,Y6*%
%TO.N,Net-(U14-Pad13)*%
X50175954Y-100195000D03*
%TO.P,U8,14,Y5*%
%TO.N,Net-(U14-Pad14)*%
X48905954Y-100195000D03*
%TO.P,U8,15,Y4*%
%TO.N,Net-(U14-Pad15)*%
X47635954Y-100195000D03*
%TO.P,U8,16,Y3*%
%TO.N,Net-(U14-Pad16)*%
X46365954Y-100195000D03*
%TO.P,U8,17,Y2*%
%TO.N,Net-(U14-Pad17)*%
X45095954Y-100195000D03*
%TO.P,U8,18,Y1*%
%TO.N,Net-(U14-Pad18)*%
X43825954Y-100195000D03*
%TO.P,U8,19,~{G2}*%
%TO.N,/~{WE1}*%
X42555954Y-100195000D03*
%TO.P,U8,20,Vcc*%
%TO.N,+5V*%
X41285954Y-100195000D03*
%TD*%
D15*
%TO.P,C5,1*%
%TO.N,GND*%
X149380000Y-111580000D03*
%TO.P,C5,2*%
%TO.N,+5V*%
X144380000Y-111580000D03*
%TD*%
D14*
%TO.P,U3,1,~{G1}*%
%TO.N,/~{RE1}*%
X108285954Y-85695000D03*
%TO.P,U3,2,A1*%
%TO.N,Net-(U11-Pad2)*%
X109555954Y-85695000D03*
%TO.P,U3,3,A2*%
%TO.N,Net-(U11-Pad3)*%
X110825954Y-85695000D03*
%TO.P,U3,4,A3*%
%TO.N,Net-(U11-Pad4)*%
X112095954Y-85695000D03*
%TO.P,U3,5,A4*%
%TO.N,Net-(U11-Pad5)*%
X113365954Y-85695000D03*
%TO.P,U3,6,A5*%
%TO.N,Net-(U11-Pad6)*%
X114635954Y-85695000D03*
%TO.P,U3,7,A6*%
%TO.N,Net-(U11-Pad7)*%
X115905954Y-85695000D03*
%TO.P,U3,8,A7*%
%TO.N,Net-(U11-Pad8)*%
X117175954Y-85695000D03*
%TO.P,U3,9,A8*%
%TO.N,Net-(U11-Pad9)*%
X118445954Y-85695000D03*
%TO.P,U3,10,GND*%
%TO.N,GND*%
X119715954Y-85695000D03*
%TO.P,U3,11,Y8*%
%TO.N,Net-(J1-Pad20)*%
X119715954Y-76195000D03*
%TO.P,U3,12,Y7*%
%TO.N,Net-(J1-Pad19)*%
X118445954Y-76195000D03*
%TO.P,U3,13,Y6*%
%TO.N,Net-(J1-Pad18)*%
X117175954Y-76195000D03*
%TO.P,U3,14,Y5*%
%TO.N,Net-(J1-Pad17)*%
X115905954Y-76195000D03*
%TO.P,U3,15,Y4*%
%TO.N,Net-(J1-Pad16)*%
X114635954Y-76195000D03*
%TO.P,U3,16,Y3*%
%TO.N,Net-(J1-Pad15)*%
X113365954Y-76195000D03*
%TO.P,U3,17,Y2*%
%TO.N,Net-(J1-Pad14)*%
X112095954Y-76195000D03*
%TO.P,U3,18,Y1*%
%TO.N,Net-(J1-Pad13)*%
X110825954Y-76195000D03*
%TO.P,U3,19,~{G2}*%
%TO.N,GND*%
X109555954Y-76195000D03*
%TO.P,U3,20,Vcc*%
%TO.N,+5V*%
X108285954Y-76195000D03*
%TD*%
D15*
%TO.P,R3,1*%
%TO.N,GND*%
X189180000Y-81352628D03*
D11*
%TO.P,R3,2*%
%TO.N,Net-(R3-Pad2)*%
X189180000Y-83892628D03*
%TD*%
D15*
%TO.P,R6,1*%
%TO.N,+5V*%
X87180000Y-42920000D03*
D11*
%TO.P,R6,2*%
%TO.N,Net-(D2-Pad2)*%
X89720000Y-42920000D03*
%TD*%
D16*
%TO.P,J1,1,GND*%
%TO.N,GND*%
X30950954Y-129120000D03*
D17*
%TO.P,J1,2,Vcc*%
%TO.N,+5V*%
X33490954Y-129120000D03*
%TO.P,J1,3,CLK_R*%
%TO.N,Net-(J1-Pad3)*%
X36030954Y-129120000D03*
%TO.P,J1,4,CLK_F*%
%TO.N,Net-(J1-Pad4)*%
X38570954Y-129120000D03*
%TO.P,J1,5,BUS1:0*%
%TO.N,Net-(J1-Pad5)*%
X41110954Y-129120000D03*
%TO.P,J1,6,BUS1:1*%
%TO.N,Net-(J1-Pad6)*%
X43650954Y-129120000D03*
%TO.P,J1,7,BUS1:2*%
%TO.N,Net-(J1-Pad7)*%
X46190954Y-129120000D03*
%TO.P,J1,8,BUS1:3*%
%TO.N,Net-(J1-Pad8)*%
X48730954Y-129120000D03*
%TO.P,J1,9,BUS1:4*%
%TO.N,Net-(J1-Pad9)*%
X51270954Y-129120000D03*
%TO.P,J1,10,BUS1:5*%
%TO.N,Net-(J1-Pad10)*%
X53810954Y-129120000D03*
%TO.P,J1,11,BUS1:6*%
%TO.N,Net-(J1-Pad11)*%
X56350954Y-129120000D03*
%TO.P,J1,12,BUS1:7*%
%TO.N,Net-(J1-Pad12)*%
X58890954Y-129120000D03*
%TO.P,J1,13,BUS1:8*%
%TO.N,Net-(J1-Pad13)*%
X61430954Y-129120000D03*
%TO.P,J1,14,BUS1:9*%
%TO.N,Net-(J1-Pad14)*%
X63970954Y-129120000D03*
%TO.P,J1,15,BUS1:A*%
%TO.N,Net-(J1-Pad15)*%
X66510954Y-129120000D03*
%TO.P,J1,16,BUS1:B*%
%TO.N,Net-(J1-Pad16)*%
X69050954Y-129120000D03*
%TO.P,J1,17,BUS1:C*%
%TO.N,Net-(J1-Pad17)*%
X71590954Y-129120000D03*
%TO.P,J1,18,BUS1:D*%
%TO.N,Net-(J1-Pad18)*%
X74130954Y-129120000D03*
%TO.P,J1,19,BUS1:E*%
%TO.N,Net-(J1-Pad19)*%
X76670954Y-129120000D03*
%TO.P,J1,20,BUS1:F*%
%TO.N,Net-(J1-Pad20)*%
X79210954Y-129120000D03*
%TO.P,J1,21,BUS2:0*%
%TO.N,Net-(J1-Pad21)*%
X81750954Y-129120000D03*
%TO.P,J1,22,BUS2:1*%
%TO.N,Net-(J1-Pad22)*%
X84290954Y-129120000D03*
%TO.P,J1,23,BUS2:2*%
%TO.N,Net-(J1-Pad23)*%
X86830954Y-129120000D03*
%TO.P,J1,24,BUS2:3*%
%TO.N,Net-(J1-Pad24)*%
X89370954Y-129120000D03*
%TO.P,J1,25,BUS2:4*%
%TO.N,Net-(J1-Pad25)*%
X91910954Y-129120000D03*
%TO.P,J1,26,BUS2:5*%
%TO.N,Net-(J1-Pad26)*%
X94450954Y-129120000D03*
%TO.P,J1,27,BUS2:6*%
%TO.N,Net-(J1-Pad27)*%
X96990954Y-129120000D03*
%TO.P,J1,28,BUS2:7*%
%TO.N,Net-(J1-Pad28)*%
X99530954Y-129120000D03*
%TO.P,J1,29,BUS2:8*%
%TO.N,Net-(J1-Pad29)*%
X102070954Y-129120000D03*
%TO.P,J1,30,BUS2:9*%
%TO.N,Net-(J1-Pad30)*%
X104610954Y-129120000D03*
%TO.P,J1,31,BUS2:A*%
%TO.N,Net-(J1-Pad31)*%
X107150954Y-129120000D03*
%TO.P,J1,32,BUS2:B*%
%TO.N,Net-(J1-Pad32)*%
X109690954Y-129120000D03*
%TO.P,J1,33,BUS2:C*%
%TO.N,Net-(J1-Pad33)*%
X112230954Y-129120000D03*
%TO.P,J1,34,BUS2:D*%
%TO.N,Net-(J1-Pad34)*%
X114770954Y-129120000D03*
%TO.P,J1,35,BUS2:E*%
%TO.N,Net-(J1-Pad35)*%
X117310954Y-129120000D03*
%TO.P,J1,36,BUS2:F*%
%TO.N,Net-(J1-Pad36)*%
X119850954Y-129120000D03*
%TO.P,J1,37,WE1:0*%
%TO.N,/WE1:0*%
X122390954Y-129120000D03*
%TO.P,J1,38,WE1:1*%
%TO.N,/WE1:1*%
X124930954Y-129120000D03*
%TO.P,J1,39,WE1:2*%
%TO.N,/WE1:2*%
X127470954Y-129120000D03*
%TO.P,J1,40,WE1:3*%
%TO.N,/WE1:3*%
X130010954Y-129120000D03*
%TO.P,J1,41,WE1:4*%
%TO.N,/WE1:4*%
X132550954Y-129120000D03*
%TO.P,J1,42,WE1:5*%
%TO.N,/WE1:5*%
X135090954Y-129120000D03*
%TO.P,J1,43,WE1:6*%
%TO.N,/WE1:6*%
X137630954Y-129120000D03*
%TO.P,J1,44,WE2:0*%
%TO.N,/WE2:0*%
X140170954Y-129120000D03*
%TO.P,J1,45,WE2:1*%
%TO.N,/WE2:1*%
X142710954Y-129120000D03*
%TO.P,J1,46,WE2:2*%
%TO.N,/WE2:2*%
X145250954Y-129120000D03*
%TO.P,J1,47,WE2:3*%
%TO.N,/WE2:3*%
X147790954Y-129120000D03*
%TO.P,J1,48,WE2:4*%
%TO.N,/WE2:4*%
X150330954Y-129120000D03*
%TO.P,J1,49,WE2:5*%
%TO.N,/WE2:5*%
X152870954Y-129120000D03*
%TO.P,J1,50,WE2:6*%
%TO.N,/WE2:6*%
X155410954Y-129120000D03*
%TO.P,J1,51,RE1:0*%
%TO.N,/RE1:0*%
X157950954Y-129120000D03*
%TO.P,J1,52,RE1:1*%
%TO.N,/RE1:1*%
X160490954Y-129120000D03*
%TO.P,J1,53,RE1:2*%
%TO.N,/RE1:2*%
X163030954Y-129120000D03*
%TO.P,J1,54,RE1:3*%
%TO.N,/RE1:3*%
X165570954Y-129120000D03*
%TO.P,J1,55,RE1:4*%
%TO.N,/RE1:4*%
X168110954Y-129120000D03*
%TO.P,J1,56,RE1:5*%
%TO.N,/RE1:5*%
X170650954Y-129120000D03*
%TO.P,J1,57,RE1:6*%
%TO.N,/RE1:6*%
X173190954Y-129120000D03*
%TO.P,J1,58,RE2:0*%
%TO.N,/RE2:0*%
X175730954Y-129120000D03*
%TO.P,J1,59,RE2:1*%
%TO.N,/RE2:1*%
X178270954Y-129120000D03*
%TO.P,J1,60,RE2:2*%
%TO.N,/RE2:2*%
X180810954Y-129120000D03*
%TO.P,J1,61,RE2:3*%
%TO.N,/RE2:3*%
X183350954Y-129120000D03*
%TO.P,J1,62,RE2:4*%
%TO.N,/RE2:4*%
X185890954Y-129120000D03*
%TO.P,J1,63,RE2:5*%
%TO.N,/RE2:5*%
X188430954Y-129120000D03*
%TO.P,J1,64,RE2:6*%
%TO.N,/RE2:6*%
X190970954Y-129120000D03*
%TO.P,J1,65,Sup*%
%TO.N,Net-(J1-Pad65)*%
X193510954Y-129120000D03*
%TO.P,J1,66,Set_Sup*%
%TO.N,unconnected-(J1-Pad66)*%
X196050954Y-129120000D03*
%TO.P,J1,67,Reset_Sup*%
%TO.N,unconnected-(J1-Pad67)*%
X198590954Y-129120000D03*
%TO.P,J1,68*%
%TO.N,N/C*%
X201130954Y-129120000D03*
%TO.P,J1,69*%
X203670954Y-129120000D03*
%TO.P,J1,70*%
X206210954Y-129120000D03*
%TO.P,J1,71*%
X208750954Y-129120000D03*
%TO.P,J1,72*%
X211290954Y-129120000D03*
%TO.P,J1,73*%
X213830954Y-129120000D03*
%TO.P,J1,74*%
X216370954Y-129120000D03*
%TO.P,J1,75*%
X218910954Y-129120000D03*
%TO.P,J1,76*%
X221450954Y-129120000D03*
%TO.P,J1,77*%
X223990954Y-129120000D03*
%TO.P,J1,78*%
X226530954Y-129120000D03*
%TD*%
D12*
%TO.P,D4,1,K*%
%TO.N,/~{RE2}*%
X95730000Y-45260000D03*
D13*
%TO.P,D4,2,A*%
%TO.N,Net-(D4-Pad2)*%
X95730000Y-47800000D03*
%TD*%
D14*
%TO.P,U11,1,~{G1}*%
%TO.N,/~{RE2}*%
X125285954Y-85695000D03*
%TO.P,U11,2,A1*%
%TO.N,Net-(U11-Pad2)*%
X126555954Y-85695000D03*
%TO.P,U11,3,A2*%
%TO.N,Net-(U11-Pad3)*%
X127825954Y-85695000D03*
%TO.P,U11,4,A3*%
%TO.N,Net-(U11-Pad4)*%
X129095954Y-85695000D03*
%TO.P,U11,5,A4*%
%TO.N,Net-(U11-Pad5)*%
X130365954Y-85695000D03*
%TO.P,U11,6,A5*%
%TO.N,Net-(U11-Pad6)*%
X131635954Y-85695000D03*
%TO.P,U11,7,A6*%
%TO.N,Net-(U11-Pad7)*%
X132905954Y-85695000D03*
%TO.P,U11,8,A7*%
%TO.N,Net-(U11-Pad8)*%
X134175954Y-85695000D03*
%TO.P,U11,9,A8*%
%TO.N,Net-(U11-Pad9)*%
X135445954Y-85695000D03*
%TO.P,U11,10,GND*%
%TO.N,GND*%
X136715954Y-85695000D03*
%TO.P,U11,11,Y8*%
%TO.N,Net-(J1-Pad36)*%
X136715954Y-76195000D03*
%TO.P,U11,12,Y7*%
%TO.N,Net-(J1-Pad35)*%
X135445954Y-76195000D03*
%TO.P,U11,13,Y6*%
%TO.N,Net-(J1-Pad34)*%
X134175954Y-76195000D03*
%TO.P,U11,14,Y5*%
%TO.N,Net-(J1-Pad33)*%
X132905954Y-76195000D03*
%TO.P,U11,15,Y4*%
%TO.N,Net-(J1-Pad32)*%
X131635954Y-76195000D03*
%TO.P,U11,16,Y3*%
%TO.N,Net-(J1-Pad31)*%
X130365954Y-76195000D03*
%TO.P,U11,17,Y2*%
%TO.N,Net-(J1-Pad30)*%
X129095954Y-76195000D03*
%TO.P,U11,18,Y1*%
%TO.N,Net-(J1-Pad29)*%
X127825954Y-76195000D03*
%TO.P,U11,19,~{G2}*%
%TO.N,GND*%
X126555954Y-76195000D03*
%TO.P,U11,20,Vcc*%
%TO.N,+5V*%
X125285954Y-76195000D03*
%TD*%
%TO.P,U14,1,~{G1}*%
%TO.N,GND*%
X58285954Y-109695000D03*
%TO.P,U14,2,A1*%
%TO.N,Net-(J1-Pad21)*%
X59555954Y-109695000D03*
%TO.P,U14,3,A2*%
%TO.N,Net-(J1-Pad22)*%
X60825954Y-109695000D03*
%TO.P,U14,4,A3*%
%TO.N,Net-(J1-Pad23)*%
X62095954Y-109695000D03*
%TO.P,U14,5,A4*%
%TO.N,Net-(J1-Pad24)*%
X63365954Y-109695000D03*
%TO.P,U14,6,A5*%
%TO.N,Net-(J1-Pad25)*%
X64635954Y-109695000D03*
%TO.P,U14,7,A6*%
%TO.N,Net-(J1-Pad26)*%
X65905954Y-109695000D03*
%TO.P,U14,8,A7*%
%TO.N,Net-(J1-Pad27)*%
X67175954Y-109695000D03*
%TO.P,U14,9,A8*%
%TO.N,Net-(J1-Pad28)*%
X68445954Y-109695000D03*
%TO.P,U14,10,GND*%
%TO.N,GND*%
X69715954Y-109695000D03*
%TO.P,U14,11,Y8*%
%TO.N,Net-(U14-Pad11)*%
X69715954Y-100195000D03*
%TO.P,U14,12,Y7*%
%TO.N,Net-(U14-Pad12)*%
X68445954Y-100195000D03*
%TO.P,U14,13,Y6*%
%TO.N,Net-(U14-Pad13)*%
X67175954Y-100195000D03*
%TO.P,U14,14,Y5*%
%TO.N,Net-(U14-Pad14)*%
X65905954Y-100195000D03*
%TO.P,U14,15,Y4*%
%TO.N,Net-(U14-Pad15)*%
X64635954Y-100195000D03*
%TO.P,U14,16,Y3*%
%TO.N,Net-(U14-Pad16)*%
X63365954Y-100195000D03*
%TO.P,U14,17,Y2*%
%TO.N,Net-(U14-Pad17)*%
X62095954Y-100195000D03*
%TO.P,U14,18,Y1*%
%TO.N,Net-(U14-Pad18)*%
X60825954Y-100195000D03*
%TO.P,U14,19,~{G2}*%
%TO.N,/~{WE2}*%
X59555954Y-100195000D03*
%TO.P,U14,20,Vcc*%
%TO.N,+5V*%
X58285954Y-100195000D03*
%TD*%
D10*
%TO.P,U20,1,A/B*%
%TO.N,/~{RE1}*%
X131380000Y-44220000D03*
D11*
%TO.P,U20,2,I0a*%
%TO.N,/RE1:0*%
X131380000Y-46760000D03*
%TO.P,U20,3,I1a*%
%TO.N,/RE2:0*%
X131380000Y-49300000D03*
%TO.P,U20,4,Qa*%
%TO.N,Net-(U2-Pad1)*%
X131380000Y-51840000D03*
%TO.P,U20,5,I0b*%
%TO.N,/RE1:1*%
X131380000Y-54380000D03*
%TO.P,U20,6,I1b*%
%TO.N,/RE2:1*%
X131380000Y-56920000D03*
%TO.P,U20,7,Qb*%
%TO.N,Net-(U2-Pad2)*%
X131380000Y-59460000D03*
%TO.P,U20,8,GND*%
%TO.N,GND*%
X131380000Y-62000000D03*
%TO.P,U20,9,Qd*%
%TO.N,unconnected-(U20-Pad9)*%
X139000000Y-62000000D03*
%TO.P,U20,10,I1d*%
%TO.N,unconnected-(U20-Pad10)*%
X139000000Y-59460000D03*
%TO.P,U20,11,I0d*%
%TO.N,unconnected-(U20-Pad11)*%
X139000000Y-56920000D03*
%TO.P,U20,12,Qc*%
%TO.N,Net-(U2-Pad3)*%
X139000000Y-54380000D03*
%TO.P,U20,13,I1c*%
%TO.N,/RE2:2*%
X139000000Y-51840000D03*
%TO.P,U20,14,I0c*%
%TO.N,/RE1:2*%
X139000000Y-49300000D03*
%TO.P,U20,15,~{EN}*%
%TO.N,GND*%
X139000000Y-46760000D03*
%TO.P,U20,16,VCC*%
%TO.N,+5V*%
X139000000Y-44220000D03*
%TD*%
D15*
%TO.P,R12,1*%
%TO.N,+5V*%
X87180000Y-47920000D03*
D11*
%TO.P,R12,2*%
%TO.N,Net-(D4-Pad2)*%
X89720000Y-47920000D03*
%TD*%
D14*
%TO.P,U17,1,~{G1}*%
%TO.N,GND*%
X92285954Y-109695000D03*
%TO.P,U17,2,A1*%
%TO.N,Net-(J1-Pad29)*%
X93555954Y-109695000D03*
%TO.P,U17,3,A2*%
%TO.N,Net-(J1-Pad30)*%
X94825954Y-109695000D03*
%TO.P,U17,4,A3*%
%TO.N,Net-(J1-Pad31)*%
X96095954Y-109695000D03*
%TO.P,U17,5,A4*%
%TO.N,Net-(J1-Pad32)*%
X97365954Y-109695000D03*
%TO.P,U17,6,A5*%
%TO.N,Net-(J1-Pad33)*%
X98635954Y-109695000D03*
%TO.P,U17,7,A6*%
%TO.N,Net-(J1-Pad34)*%
X99905954Y-109695000D03*
%TO.P,U17,8,A7*%
%TO.N,Net-(J1-Pad35)*%
X101175954Y-109695000D03*
%TO.P,U17,9,A8*%
%TO.N,Net-(J1-Pad36)*%
X102445954Y-109695000D03*
%TO.P,U17,10,GND*%
%TO.N,GND*%
X103715954Y-109695000D03*
%TO.P,U17,11,Y8*%
%TO.N,Net-(U17-Pad11)*%
X103715954Y-100195000D03*
%TO.P,U17,12,Y7*%
%TO.N,Net-(U17-Pad12)*%
X102445954Y-100195000D03*
%TO.P,U17,13,Y6*%
%TO.N,Net-(U17-Pad13)*%
X101175954Y-100195000D03*
%TO.P,U17,14,Y5*%
%TO.N,Net-(U17-Pad14)*%
X99905954Y-100195000D03*
%TO.P,U17,15,Y4*%
%TO.N,Net-(U17-Pad15)*%
X98635954Y-100195000D03*
%TO.P,U17,16,Y3*%
%TO.N,Net-(U17-Pad16)*%
X97365954Y-100195000D03*
%TO.P,U17,17,Y2*%
%TO.N,Net-(U17-Pad17)*%
X96095954Y-100195000D03*
%TO.P,U17,18,Y1*%
%TO.N,Net-(U17-Pad18)*%
X94825954Y-100195000D03*
%TO.P,U17,19,~{G2}*%
%TO.N,/~{WE2}*%
X93555954Y-100195000D03*
%TO.P,U17,20,Vcc*%
%TO.N,+5V*%
X92285954Y-100195000D03*
%TD*%
D15*
%TO.P,R5,1*%
%TO.N,+5V*%
X87105000Y-57450000D03*
D11*
%TO.P,R5,2*%
%TO.N,Net-(D1-Pad2)*%
X89645000Y-57450000D03*
%TD*%
D18*
%TO.P,U2,1,Mode_R0*%
%TO.N,Net-(U2-Pad1)*%
X38950954Y-90620000D03*
D19*
%TO.P,U2,2,Mode_R1*%
%TO.N,Net-(U2-Pad2)*%
X40950954Y-90620000D03*
%TO.P,U2,3,Mode_R2*%
%TO.N,Net-(U2-Pad3)*%
X42950954Y-90620000D03*
%TO.P,U2,4,Mode_W0*%
%TO.N,Net-(U2-Pad4)*%
X44950954Y-90620000D03*
%TO.P,U2,5,Mode_W1*%
%TO.N,Net-(U2-Pad5)*%
X46950954Y-90620000D03*
%TO.P,U2,6,Mode_W2*%
%TO.N,Net-(U2-Pad6)*%
X48950954Y-90620000D03*
%TO.P,U2,7,WE_R*%
%TO.N,/WE_R*%
X50950954Y-90620000D03*
%TO.P,U2,8,WE_F*%
%TO.N,/WE_F*%
X52950954Y-90620000D03*
%TO.P,U2,9,WE*%
%TO.N,Net-(U18-Pad3)*%
X54950954Y-90620000D03*
%TO.P,U2,10,RE*%
%TO.N,Net-(U18-Pad8)*%
X56950954Y-90620000D03*
%TO.P,U2,11,from_Bus0*%
%TO.N,Net-(U14-Pad18)*%
X58950954Y-90620000D03*
%TO.P,U2,12,from_Bus1*%
%TO.N,Net-(U14-Pad17)*%
X60950954Y-90620000D03*
%TO.P,U2,13,from_Bus2*%
%TO.N,Net-(U14-Pad16)*%
X62950954Y-90620000D03*
%TO.P,U2,14,from_Bus3*%
%TO.N,Net-(U14-Pad15)*%
X64950954Y-90620000D03*
%TO.P,U2,15,from_Bus4*%
%TO.N,Net-(U14-Pad14)*%
X66950954Y-90620000D03*
%TO.P,U2,16,from_Bus5*%
%TO.N,Net-(U14-Pad13)*%
X68950954Y-90620000D03*
%TO.P,U2,17,from_Bus6*%
%TO.N,Net-(U14-Pad12)*%
X70950954Y-90620000D03*
%TO.P,U2,18,from_Bus7*%
%TO.N,Net-(U14-Pad11)*%
X72950954Y-90620000D03*
%TO.P,U2,19,from_Bus8*%
%TO.N,Net-(U17-Pad18)*%
X74950954Y-90620000D03*
%TO.P,U2,20,from_Bus9*%
%TO.N,Net-(U17-Pad17)*%
X76950954Y-90620000D03*
%TO.P,U2,21,from_Bus10*%
%TO.N,Net-(U17-Pad16)*%
X78950954Y-90620000D03*
%TO.P,U2,22,from_Bus11*%
%TO.N,Net-(U17-Pad15)*%
X80950954Y-90620000D03*
%TO.P,U2,23,from_Bus12*%
%TO.N,Net-(U17-Pad14)*%
X82950954Y-90620000D03*
%TO.P,U2,24,from_Bus13*%
%TO.N,Net-(U17-Pad13)*%
X84950954Y-90620000D03*
%TO.P,U2,25,from_Bus14*%
%TO.N,Net-(U17-Pad12)*%
X86950954Y-90620000D03*
%TO.P,U2,26,from_Bus15*%
%TO.N,Net-(U17-Pad11)*%
X88950954Y-90620000D03*
%TO.P,U2,27,to_Bus0*%
%TO.N,Net-(U1-Pad2)*%
X90950954Y-90620000D03*
%TO.P,U2,28,to_Bus1*%
%TO.N,Net-(U1-Pad3)*%
X92950954Y-90620000D03*
%TO.P,U2,29,to_Bus2*%
%TO.N,Net-(U1-Pad4)*%
X94950954Y-90620000D03*
%TO.P,U2,30,to_Bus3*%
%TO.N,Net-(U1-Pad5)*%
X96950954Y-90620000D03*
%TO.P,U2,31,to_Bus4*%
%TO.N,Net-(U1-Pad6)*%
X98950954Y-90620000D03*
%TO.P,U2,32,to_Bus5*%
%TO.N,Net-(U1-Pad7)*%
X100950954Y-90620000D03*
%TO.P,U2,33,to_Bus6*%
%TO.N,Net-(U1-Pad8)*%
X102950954Y-90620000D03*
%TO.P,U2,34,to_Bus7*%
%TO.N,Net-(U1-Pad9)*%
X104950954Y-90620000D03*
%TO.P,U2,35,to_Bus8*%
%TO.N,Net-(U11-Pad2)*%
X106950954Y-90620000D03*
%TO.P,U2,36,to_Bus9*%
%TO.N,Net-(U11-Pad3)*%
X108950954Y-90620000D03*
%TO.P,U2,37,to_Bus10*%
%TO.N,Net-(U11-Pad4)*%
X110950954Y-90620000D03*
%TO.P,U2,38,to_Bus11*%
%TO.N,Net-(U11-Pad5)*%
X112950954Y-90620000D03*
%TO.P,U2,39,to_Bus12*%
%TO.N,Net-(U11-Pad6)*%
X114950954Y-90620000D03*
%TO.P,U2,40,to_Bus13*%
%TO.N,Net-(U11-Pad7)*%
X116950954Y-90620000D03*
%TO.P,U2,41,to_Bus14*%
%TO.N,Net-(U11-Pad8)*%
X119010954Y-90620000D03*
%TO.P,U2,42,to_Bus15*%
%TO.N,Net-(U11-Pad9)*%
X121010954Y-90620000D03*
%TD*%
D10*
%TO.P,U16,1*%
%TO.N,Net-(U13-Pad3)*%
X176980000Y-68545000D03*
D11*
%TO.P,U16,2*%
%TO.N,Net-(U13-Pad6)*%
X176980000Y-66005000D03*
%TO.P,U16,3*%
%TO.N,Net-(U15-Pad9)*%
X176980000Y-63465000D03*
%TO.P,U16,4*%
%TO.N,Net-(U15-Pad3)*%
X176980000Y-60925000D03*
%TO.P,U16,5*%
%TO.N,Net-(U16-Pad5)*%
X176980000Y-58385000D03*
%TO.P,U16,6*%
%TO.N,Net-(U16-Pad6)*%
X176980000Y-55845000D03*
%TO.P,U16,7,GND*%
%TO.N,GND*%
X176980000Y-53305000D03*
%TO.P,U16,8*%
%TO.N,Net-(U16-Pad5)*%
X169360000Y-53305000D03*
%TO.P,U16,9*%
%TO.N,Net-(U12-Pad8)*%
X169360000Y-55845000D03*
%TO.P,U16,10*%
%TO.N,Net-(U12-Pad11)*%
X169360000Y-58385000D03*
%TO.P,U16,11*%
%TO.N,N/C*%
X169360000Y-60925000D03*
%TO.P,U16,12*%
X169360000Y-63465000D03*
%TO.P,U16,13*%
X169360000Y-66005000D03*
%TO.P,U16,14,VCC*%
%TO.N,+5V*%
X169360000Y-68545000D03*
%TD*%
D10*
%TO.P,U13,1*%
%TO.N,Net-(R7-Pad2)*%
X174380000Y-105295000D03*
D11*
%TO.P,U13,2*%
%TO.N,/RE2:3*%
X174380000Y-107835000D03*
%TO.P,U13,3*%
%TO.N,Net-(U13-Pad3)*%
X174380000Y-110375000D03*
%TO.P,U13,4*%
%TO.N,Net-(R8-Pad2)*%
X174380000Y-112915000D03*
%TO.P,U13,5*%
%TO.N,/RE2:4*%
X174380000Y-115455000D03*
%TO.P,U13,6*%
%TO.N,Net-(U13-Pad6)*%
X174380000Y-117995000D03*
%TO.P,U13,7,GND*%
%TO.N,GND*%
X174380000Y-120535000D03*
%TO.P,U13,8*%
%TO.N,Net-(U13-Pad8)*%
X182000000Y-120535000D03*
%TO.P,U13,9*%
%TO.N,Net-(R9-Pad2)*%
X182000000Y-117995000D03*
%TO.P,U13,10*%
%TO.N,/RE2:5*%
X182000000Y-115455000D03*
%TO.P,U13,11*%
%TO.N,Net-(U13-Pad11)*%
X182000000Y-112915000D03*
%TO.P,U13,12*%
%TO.N,Net-(R10-Pad2)*%
X182000000Y-110375000D03*
%TO.P,U13,13*%
%TO.N,/RE2:6*%
X182000000Y-107835000D03*
%TO.P,U13,14,VCC*%
%TO.N,+5V*%
X182000000Y-105295000D03*
%TD*%
D15*
%TO.P,R2,1*%
%TO.N,GND*%
X192180000Y-81352628D03*
D11*
%TO.P,R2,2*%
%TO.N,Net-(R2-Pad2)*%
X192180000Y-83892628D03*
%TD*%
D18*
%TO.P,J2,1,Pin_1*%
%TO.N,Net-(J2-Pad1)*%
X170880000Y-34146000D03*
D19*
%TO.P,J2,2,Pin_2*%
%TO.N,/~{SUP}*%
X168880000Y-34146000D03*
%TO.P,J2,3,Pin_3*%
%TO.N,GND*%
X166880000Y-34146000D03*
%TD*%
D12*
%TO.P,D1,1,K*%
%TO.N,/~{WE1}*%
X95710000Y-56200000D03*
D13*
%TO.P,D1,2,A*%
%TO.N,Net-(D1-Pad2)*%
X95710000Y-58740000D03*
%TD*%
D10*
%TO.P,SW2,1*%
%TO.N,+5V*%
X195447500Y-115197628D03*
D11*
%TO.P,SW2,2*%
X195447500Y-112657628D03*
%TO.P,SW2,3*%
X195447500Y-110117628D03*
%TO.P,SW2,4*%
X195447500Y-107577628D03*
%TO.P,SW2,5*%
%TO.N,Net-(R10-Pad2)*%
X187827500Y-107577628D03*
%TO.P,SW2,6*%
%TO.N,Net-(R9-Pad2)*%
X187827500Y-110117628D03*
%TO.P,SW2,7*%
%TO.N,Net-(R8-Pad2)*%
X187827500Y-112657628D03*
%TO.P,SW2,8*%
%TO.N,Net-(R7-Pad2)*%
X187827500Y-115197628D03*
%TD*%
D10*
%TO.P,U22,1*%
%TO.N,Net-(U22-Pad1)*%
X179555000Y-39720000D03*
D11*
%TO.P,U22,2*%
%TO.N,/~{SUP}*%
X182095000Y-39720000D03*
%TO.P,U22,3*%
%TO.N,/~{WE2}*%
X184635000Y-39720000D03*
%TO.P,U22,4*%
%TO.N,Net-(U22-Pad4)*%
X187175000Y-39720000D03*
%TO.P,U22,5*%
%TO.N,/~{SUP}*%
X189715000Y-39720000D03*
%TO.P,U22,6*%
%TO.N,/~{WE1}*%
X192255000Y-39720000D03*
%TO.P,U22,7,GND*%
%TO.N,GND*%
X194795000Y-39720000D03*
%TO.P,U22,8*%
%TO.N,/~{RE2}*%
X194795000Y-32100000D03*
%TO.P,U22,9*%
%TO.N,Net-(U15-Pad8)*%
X192255000Y-32100000D03*
%TO.P,U22,10*%
%TO.N,/~{SUP}*%
X189715000Y-32100000D03*
%TO.P,U22,11*%
%TO.N,/~{RE1}*%
X187175000Y-32100000D03*
%TO.P,U22,12*%
%TO.N,Net-(U16-Pad6)*%
X184635000Y-32100000D03*
%TO.P,U22,13*%
%TO.N,/~{SUP}*%
X182095000Y-32100000D03*
%TO.P,U22,14,VCC*%
%TO.N,+5V*%
X179555000Y-32100000D03*
%TD*%
D10*
%TO.P,U18,1*%
%TO.N,Net-(U18-Pad1)*%
X75380000Y-40295000D03*
D11*
%TO.P,U18,2*%
X75380000Y-42835000D03*
%TO.P,U18,3*%
%TO.N,Net-(U18-Pad3)*%
X75380000Y-45375000D03*
%TO.P,U18,4*%
%TO.N,Net-(J1-Pad65)*%
X75380000Y-47915000D03*
%TO.P,U18,5*%
X75380000Y-50455000D03*
%TO.P,U18,6*%
%TO.N,Net-(J2-Pad1)*%
X75380000Y-52995000D03*
%TO.P,U18,7,GND*%
%TO.N,GND*%
X75380000Y-55535000D03*
%TO.P,U18,8*%
%TO.N,Net-(U18-Pad8)*%
X83000000Y-55535000D03*
%TO.P,U18,9*%
%TO.N,Net-(U18-Pad10)*%
X83000000Y-52995000D03*
%TO.P,U18,10*%
X83000000Y-50455000D03*
%TO.P,U18,11*%
%TO.N,N/C*%
X83000000Y-47915000D03*
%TO.P,U18,12*%
X83000000Y-45375000D03*
%TO.P,U18,13*%
X83000000Y-42835000D03*
%TO.P,U18,14,VCC*%
%TO.N,+5V*%
X83000000Y-40295000D03*
%TD*%
D14*
%TO.P,U1,1,~{G1}*%
%TO.N,/~{RE1}*%
X74285954Y-85695000D03*
%TO.P,U1,2,A1*%
%TO.N,Net-(U1-Pad2)*%
X75555954Y-85695000D03*
%TO.P,U1,3,A2*%
%TO.N,Net-(U1-Pad3)*%
X76825954Y-85695000D03*
%TO.P,U1,4,A3*%
%TO.N,Net-(U1-Pad4)*%
X78095954Y-85695000D03*
%TO.P,U1,5,A4*%
%TO.N,Net-(U1-Pad5)*%
X79365954Y-85695000D03*
%TO.P,U1,6,A5*%
%TO.N,Net-(U1-Pad6)*%
X80635954Y-85695000D03*
%TO.P,U1,7,A6*%
%TO.N,Net-(U1-Pad7)*%
X81905954Y-85695000D03*
%TO.P,U1,8,A7*%
%TO.N,Net-(U1-Pad8)*%
X83175954Y-85695000D03*
%TO.P,U1,9,A8*%
%TO.N,Net-(U1-Pad9)*%
X84445954Y-85695000D03*
%TO.P,U1,10,GND*%
%TO.N,GND*%
X85715954Y-85695000D03*
%TO.P,U1,11,Y8*%
%TO.N,Net-(J1-Pad12)*%
X85715954Y-76195000D03*
%TO.P,U1,12,Y7*%
%TO.N,Net-(J1-Pad11)*%
X84445954Y-76195000D03*
%TO.P,U1,13,Y6*%
%TO.N,Net-(J1-Pad10)*%
X83175954Y-76195000D03*
%TO.P,U1,14,Y5*%
%TO.N,Net-(J1-Pad9)*%
X81905954Y-76195000D03*
%TO.P,U1,15,Y4*%
%TO.N,Net-(J1-Pad8)*%
X80635954Y-76195000D03*
%TO.P,U1,16,Y3*%
%TO.N,Net-(J1-Pad7)*%
X79365954Y-76195000D03*
%TO.P,U1,17,Y2*%
%TO.N,Net-(J1-Pad6)*%
X78095954Y-76195000D03*
%TO.P,U1,18,Y1*%
%TO.N,Net-(J1-Pad5)*%
X76825954Y-76195000D03*
%TO.P,U1,19,~{G2}*%
%TO.N,GND*%
X75555954Y-76195000D03*
%TO.P,U1,20,Vcc*%
%TO.N,+5V*%
X74285954Y-76195000D03*
%TD*%
D15*
%TO.P,R8,1*%
%TO.N,GND*%
X189680000Y-124937628D03*
D11*
%TO.P,R8,2*%
%TO.N,Net-(R8-Pad2)*%
X189680000Y-122397628D03*
%TD*%
D14*
%TO.P,U9,1,~{G1}*%
%TO.N,GND*%
X75285954Y-109695000D03*
%TO.P,U9,2,A1*%
%TO.N,Net-(J1-Pad13)*%
X76555954Y-109695000D03*
%TO.P,U9,3,A2*%
%TO.N,Net-(J1-Pad14)*%
X77825954Y-109695000D03*
%TO.P,U9,4,A3*%
%TO.N,Net-(J1-Pad15)*%
X79095954Y-109695000D03*
%TO.P,U9,5,A4*%
%TO.N,Net-(J1-Pad16)*%
X80365954Y-109695000D03*
%TO.P,U9,6,A5*%
%TO.N,Net-(J1-Pad17)*%
X81635954Y-109695000D03*
%TO.P,U9,7,A6*%
%TO.N,Net-(J1-Pad18)*%
X82905954Y-109695000D03*
%TO.P,U9,8,A7*%
%TO.N,Net-(J1-Pad19)*%
X84175954Y-109695000D03*
%TO.P,U9,9,A8*%
%TO.N,Net-(J1-Pad20)*%
X85445954Y-109695000D03*
%TO.P,U9,10,GND*%
%TO.N,GND*%
X86715954Y-109695000D03*
%TO.P,U9,11,Y8*%
%TO.N,Net-(U17-Pad11)*%
X86715954Y-100195000D03*
%TO.P,U9,12,Y7*%
%TO.N,Net-(U17-Pad12)*%
X85445954Y-100195000D03*
%TO.P,U9,13,Y6*%
%TO.N,Net-(U17-Pad13)*%
X84175954Y-100195000D03*
%TO.P,U9,14,Y5*%
%TO.N,Net-(U17-Pad14)*%
X82905954Y-100195000D03*
%TO.P,U9,15,Y4*%
%TO.N,Net-(U17-Pad15)*%
X81635954Y-100195000D03*
%TO.P,U9,16,Y3*%
%TO.N,Net-(U17-Pad16)*%
X80365954Y-100195000D03*
%TO.P,U9,17,Y2*%
%TO.N,Net-(U17-Pad17)*%
X79095954Y-100195000D03*
%TO.P,U9,18,Y1*%
%TO.N,Net-(U17-Pad18)*%
X77825954Y-100195000D03*
%TO.P,U9,19,~{G2}*%
%TO.N,/~{WE1}*%
X76555954Y-100195000D03*
%TO.P,U9,20,Vcc*%
%TO.N,+5V*%
X75285954Y-100195000D03*
%TD*%
D15*
%TO.P,C2,1*%
%TO.N,+5V*%
X144280000Y-119730000D03*
%TO.P,C2,2*%
%TO.N,GND*%
X149280000Y-119730000D03*
%TD*%
%TO.P,C1,1*%
%TO.N,+5V*%
X76450000Y-34490000D03*
%TO.P,C1,2*%
%TO.N,GND*%
X71450000Y-34490000D03*
%TD*%
D10*
%TO.P,U12,1*%
%TO.N,Net-(R7-Pad2)*%
X157380000Y-105295000D03*
D11*
%TO.P,U12,2*%
%TO.N,/RE1:3*%
X157380000Y-107835000D03*
%TO.P,U12,3*%
%TO.N,Net-(U12-Pad3)*%
X157380000Y-110375000D03*
%TO.P,U12,4*%
%TO.N,Net-(R8-Pad2)*%
X157380000Y-112915000D03*
%TO.P,U12,5*%
%TO.N,/RE1:4*%
X157380000Y-115455000D03*
%TO.P,U12,6*%
%TO.N,Net-(U12-Pad6)*%
X157380000Y-117995000D03*
%TO.P,U12,7,GND*%
%TO.N,GND*%
X157380000Y-120535000D03*
%TO.P,U12,8*%
%TO.N,Net-(U12-Pad8)*%
X165000000Y-120535000D03*
%TO.P,U12,9*%
%TO.N,Net-(R9-Pad2)*%
X165000000Y-117995000D03*
%TO.P,U12,10*%
%TO.N,/RE1:5*%
X165000000Y-115455000D03*
%TO.P,U12,11*%
%TO.N,Net-(U12-Pad11)*%
X165000000Y-112915000D03*
%TO.P,U12,12*%
%TO.N,Net-(R10-Pad2)*%
X165000000Y-110375000D03*
%TO.P,U12,13*%
%TO.N,/RE1:6*%
X165000000Y-107835000D03*
%TO.P,U12,14,VCC*%
%TO.N,+5V*%
X165000000Y-105295000D03*
%TD*%
D15*
%TO.P,C7,1*%
%TO.N,GND*%
X35710000Y-64620000D03*
%TO.P,C7,2*%
%TO.N,+5V*%
X35710000Y-59620000D03*
%TD*%
%TO.P,C4,1*%
%TO.N,GND*%
X201500000Y-42470000D03*
%TO.P,C4,2*%
%TO.N,+5V*%
X201500000Y-37470000D03*
%TD*%
%TO.P,C3,1*%
%TO.N,+5V*%
X42540000Y-59770000D03*
%TO.P,C3,2*%
%TO.N,GND*%
X42540000Y-64770000D03*
%TD*%
D12*
%TO.P,D2,1,K*%
%TO.N,/~{WE2}*%
X95720000Y-39770000D03*
D13*
%TO.P,D2,2,A*%
%TO.N,Net-(D2-Pad2)*%
X95720000Y-42310000D03*
%TD*%
D10*
%TO.P,SW1,1*%
%TO.N,+5V*%
X195447500Y-99197628D03*
D11*
%TO.P,SW1,2*%
X195447500Y-96657628D03*
%TO.P,SW1,3*%
X195447500Y-94117628D03*
%TO.P,SW1,4*%
X195447500Y-91577628D03*
%TO.P,SW1,5*%
%TO.N,Net-(R4-Pad2)*%
X187827500Y-91577628D03*
%TO.P,SW1,6*%
%TO.N,Net-(R3-Pad2)*%
X187827500Y-94117628D03*
%TO.P,SW1,7*%
%TO.N,Net-(R2-Pad2)*%
X187827500Y-96657628D03*
%TO.P,SW1,8*%
%TO.N,Net-(R1-Pad2)*%
X187827500Y-99197628D03*
%TD*%
D15*
%TO.P,C8,1*%
%TO.N,GND*%
X60830000Y-34600000D03*
%TO.P,C8,2*%
%TO.N,+5V*%
X65830000Y-34600000D03*
%TD*%
D10*
%TO.P,U21,1,A/B*%
%TO.N,/~{WE1}*%
X115180000Y-44120000D03*
D11*
%TO.P,U21,2,I0a*%
%TO.N,/WE1:0*%
X115180000Y-46660000D03*
%TO.P,U21,3,I1a*%
%TO.N,/WE2:0*%
X115180000Y-49200000D03*
%TO.P,U21,4,Qa*%
%TO.N,Net-(U2-Pad4)*%
X115180000Y-51740000D03*
%TO.P,U21,5,I0b*%
%TO.N,/WE1:1*%
X115180000Y-54280000D03*
%TO.P,U21,6,I1b*%
%TO.N,/WE2:1*%
X115180000Y-56820000D03*
%TO.P,U21,7,Qb*%
%TO.N,Net-(U2-Pad5)*%
X115180000Y-59360000D03*
%TO.P,U21,8,GND*%
%TO.N,GND*%
X115180000Y-61900000D03*
%TO.P,U21,9,Qd*%
%TO.N,unconnected-(U21-Pad9)*%
X122800000Y-61900000D03*
%TO.P,U21,10,I1d*%
%TO.N,unconnected-(U21-Pad10)*%
X122800000Y-59360000D03*
%TO.P,U21,11,I0d*%
%TO.N,unconnected-(U21-Pad11)*%
X122800000Y-56820000D03*
%TO.P,U21,12,Qc*%
%TO.N,Net-(U2-Pad6)*%
X122800000Y-54280000D03*
%TO.P,U21,13,I1c*%
%TO.N,/WE2:2*%
X122800000Y-51740000D03*
%TO.P,U21,14,I0c*%
%TO.N,/WE1:2*%
X122800000Y-49200000D03*
%TO.P,U21,15,~{EN}*%
%TO.N,GND*%
X122800000Y-46660000D03*
%TO.P,U21,16,VCC*%
%TO.N,+5V*%
X122800000Y-44120000D03*
%TD*%
D15*
%TO.P,R11,1*%
%TO.N,+5V*%
X87180000Y-52920000D03*
D11*
%TO.P,R11,2*%
%TO.N,Net-(D3-Pad2)*%
X89720000Y-52920000D03*
%TD*%
D15*
%TO.P,R7,1*%
%TO.N,GND*%
X186680000Y-124937628D03*
D11*
%TO.P,R7,2*%
%TO.N,Net-(R7-Pad2)*%
X186680000Y-122397628D03*
%TD*%
D10*
%TO.P,U15,1*%
%TO.N,Net-(U12-Pad3)*%
X202980000Y-68545000D03*
D11*
%TO.P,U15,2*%
%TO.N,Net-(U12-Pad6)*%
X202980000Y-66005000D03*
%TO.P,U15,3*%
%TO.N,Net-(U15-Pad3)*%
X202980000Y-63465000D03*
%TO.P,U15,4*%
%TO.N,Net-(U13-Pad8)*%
X202980000Y-60925000D03*
%TO.P,U15,5*%
%TO.N,Net-(U13-Pad11)*%
X202980000Y-58385000D03*
%TO.P,U15,6*%
%TO.N,Net-(U15-Pad10)*%
X202980000Y-55845000D03*
%TO.P,U15,7,GND*%
%TO.N,GND*%
X202980000Y-53305000D03*
%TO.P,U15,8*%
%TO.N,Net-(U15-Pad8)*%
X195360000Y-53305000D03*
%TO.P,U15,9*%
%TO.N,Net-(U15-Pad9)*%
X195360000Y-55845000D03*
%TO.P,U15,10*%
%TO.N,Net-(U15-Pad10)*%
X195360000Y-58385000D03*
%TO.P,U15,11*%
%TO.N,N/C*%
X195360000Y-60925000D03*
%TO.P,U15,12*%
X195360000Y-63465000D03*
%TO.P,U15,13*%
X195360000Y-66005000D03*
%TO.P,U15,14,VCC*%
%TO.N,+5V*%
X195360000Y-68545000D03*
%TD*%
D15*
%TO.P,R4,1*%
%TO.N,GND*%
X186180000Y-81357628D03*
D11*
%TO.P,R4,2*%
%TO.N,Net-(R4-Pad2)*%
X186180000Y-83897628D03*
%TD*%
D15*
%TO.P,C6,1*%
%TO.N,GND*%
X193780000Y-74990000D03*
%TO.P,C6,2*%
%TO.N,+5V*%
X188780000Y-74990000D03*
%TD*%
D20*
%TO.N,GND*%
X126555954Y-76195000D03*
X87000954Y-104019500D03*
X119715954Y-85695000D03*
X127180000Y-61920000D03*
X182594964Y-98780036D03*
X163681477Y-48418523D03*
X64180000Y-66946545D03*
X125180000Y-68920000D03*
X180180000Y-52920000D03*
X125180000Y-62920000D03*
X41285954Y-109695000D03*
X62080500Y-75945000D03*
X75555954Y-76195000D03*
X179980000Y-99770000D03*
X102715954Y-85695000D03*
X75555954Y-76195000D03*
X136615965Y-85695000D03*
X86778273Y-109632681D03*
X160180000Y-52920000D03*
X195475796Y-48622593D03*
X160180000Y-49920000D03*
X109500954Y-76120000D03*
X73184755Y-76628801D03*
X92555954Y-76195000D03*
X85535954Y-78910000D03*
X184480000Y-101120000D03*
X39681196Y-75945000D03*
X203180000Y-79920000D03*
%TO.N,+5V*%
X145258000Y-39988000D03*
X124724571Y-39920488D03*
X110180000Y-39920000D03*
X167159040Y-94771499D03*
X110180000Y-42920000D03*
X37576443Y-79503295D03*
X185180000Y-70920000D03*
X164180000Y-76920000D03*
X148180000Y-43920000D03*
X124180000Y-37268522D03*
X38180000Y-102920000D03*
X167180000Y-70920000D03*
X62754501Y-77345499D03*
X66180000Y-66920000D03*
X145258000Y-36686000D03*
X159180000Y-72920000D03*
X160560000Y-102020000D03*
X165180000Y-70920000D03*
X78180000Y-54920000D03*
X174180000Y-97920000D03*
X31991127Y-115760652D03*
X167169815Y-96970500D03*
X65462536Y-40787464D03*
X151620000Y-104240000D03*
X122180000Y-37268522D03*
X177008602Y-97748602D03*
%TO.N,Net-(J1-Pad3)*%
X56280000Y-54130000D03*
X33180000Y-116920000D03*
%TO.N,Net-(J1-Pad4)*%
X57240000Y-42750000D03*
X31279031Y-112920000D03*
%TO.N,Net-(J1-Pad5)*%
X42555954Y-110974022D03*
%TO.N,Net-(J1-Pad6)*%
X43580000Y-111720000D03*
%TO.N,Net-(J1-Pad7)*%
X45180000Y-112320000D03*
%TO.N,Net-(J1-Pad8)*%
X46180000Y-113120000D03*
%TO.N,Net-(J1-Pad9)*%
X47580000Y-113720000D03*
%TO.N,Net-(J1-Pad10)*%
X49252454Y-114040000D03*
%TO.N,Net-(J1-Pad11)*%
X50268454Y-114964323D03*
%TO.N,Net-(J1-Pad12)*%
X51538454Y-115945000D03*
%TO.N,Net-(J1-Pad13)*%
X76555954Y-109695000D03*
X110825954Y-76195000D03*
%TO.N,Net-(J1-Pad14)*%
X112095954Y-76195000D03*
X77961875Y-109559079D03*
%TO.N,Net-(J1-Pad15)*%
X79152854Y-109701820D03*
X113365954Y-76195000D03*
%TO.N,Net-(J1-Pad16)*%
X114635954Y-76195000D03*
X80365954Y-109695000D03*
%TO.N,Net-(J1-Pad17)*%
X81672352Y-109658602D03*
X71879511Y-122420489D03*
X115905954Y-76195000D03*
%TO.N,Net-(J1-Pad18)*%
X82978750Y-109622204D03*
X74180000Y-124120000D03*
X117175954Y-76195000D03*
%TO.N,Net-(J1-Pad19)*%
X118445954Y-76195000D03*
X84212352Y-109658602D03*
X76580000Y-125120000D03*
%TO.N,Net-(J1-Pad20)*%
X79308602Y-125791398D03*
X119780000Y-76120000D03*
X85471875Y-109669079D03*
%TO.N,Net-(J1-Pad21)*%
X59224305Y-111214098D03*
X93801451Y-74945000D03*
X70000954Y-118596478D03*
X69020570Y-111362974D03*
%TO.N,Net-(J1-Pad22)*%
X95000954Y-74945000D03*
X71005990Y-117941719D03*
X70572676Y-111572283D03*
X59723460Y-112844437D03*
%TO.N,Net-(J1-Pad23)*%
X96000954Y-73945000D03*
X72200457Y-111945000D03*
X72205488Y-117945014D03*
X61000892Y-112944926D03*
%TO.N,Net-(J1-Pad24)*%
X73000954Y-112945000D03*
X61783654Y-113853818D03*
X74000954Y-117945000D03*
X96989094Y-72956573D03*
%TO.N,Net-(J1-Pad25)*%
X61630715Y-115043531D03*
X76000954Y-117945000D03*
X74000954Y-113945000D03*
X97847588Y-72118841D03*
%TO.N,Net-(J1-Pad26)*%
X78000954Y-117945000D03*
X76000954Y-114945000D03*
X63157284Y-115165926D03*
X98641138Y-71219350D03*
%TO.N,Net-(J1-Pad27)*%
X78000954Y-115945000D03*
X64038502Y-115979720D03*
X79808342Y-117794816D03*
X99624617Y-70532637D03*
%TO.N,Net-(J1-Pad28)*%
X100185506Y-69472349D03*
X65000954Y-116945000D03*
%TO.N,Net-(J1-Pad29)*%
X96605490Y-123745490D03*
%TO.N,Net-(J1-Pad30)*%
X97799075Y-122959551D03*
%TO.N,Net-(J1-Pad31)*%
X98251399Y-121848601D03*
%TO.N,Net-(J1-Pad32)*%
X98877977Y-120822023D03*
%TO.N,Net-(J1-Pad33)*%
X98849376Y-119450624D03*
%TO.N,Net-(J1-Pad34)*%
X99905954Y-118445954D03*
%TO.N,Net-(J1-Pad35)*%
X106180000Y-119120000D03*
%TO.N,Net-(J1-Pad36)*%
X107380000Y-118120000D03*
%TO.N,/WE_F*%
X60180000Y-65920000D03*
X53000954Y-79545000D03*
%TO.N,/WE_R*%
X58980497Y-65920000D03*
X51000954Y-79545000D03*
%TO.N,Net-(R3-Pad2)*%
X169180000Y-76920000D03*
X168780994Y-78920000D03*
%TO.N,Net-(R4-Pad2)*%
X168180000Y-75920000D03*
X168180000Y-80920000D03*
%TO.N,Net-(R7-Pad2)*%
X184180000Y-106920000D03*
X174180000Y-101920000D03*
X184180001Y-104019500D03*
%TO.N,Net-(U4-Pad6)*%
X153980497Y-75920000D03*
%TO.N,Net-(U4-Pad11)*%
X162180000Y-74019500D03*
X162180000Y-75920000D03*
X162180000Y-79920000D03*
%TO.N,Net-(U4-Pad3)*%
X156379503Y-75920000D03*
%TO.N,Net-(U4-Pad8)*%
X160180000Y-75920000D03*
X160180000Y-74019500D03*
X160180000Y-79920000D03*
X163180000Y-92920000D03*
%TO.N,Net-(U5-Pad6)*%
X176730540Y-74772664D03*
X176061341Y-81706605D03*
X176616326Y-72847659D03*
%TO.N,Net-(U5-Pad3)*%
X177915062Y-75036210D03*
X177780357Y-73137209D03*
%TO.N,Net-(U6-Pad10)*%
X159180000Y-56920000D03*
%TO.N,Net-(U6-Pad3)*%
X150180000Y-42920000D03*
X188180000Y-47885570D03*
X188129500Y-51183592D03*
X188180000Y-43920000D03*
X155180000Y-70920000D03*
X153180000Y-47920000D03*
X154180000Y-39921500D03*
X149967859Y-40176938D03*
%TO.N,Net-(U11-Pad3)*%
X124172352Y-97116398D03*
%TO.N,Net-(U11-Pad8)*%
X134000954Y-89945000D03*
%TO.N,Net-(U11-Pad9)*%
X135180000Y-87920000D03*
%TO.N,Net-(U11-Pad4)*%
X126172352Y-96116398D03*
%TO.N,Net-(U11-Pad5)*%
X128172352Y-95116398D03*
%TO.N,Net-(U11-Pad6)*%
X130172352Y-94116398D03*
%TO.N,Net-(U15-Pad3)*%
X172980497Y-52920000D03*
X172055359Y-45920000D03*
X172016313Y-50217533D03*
%TO.N,Net-(U15-Pad8)*%
X200122000Y-48878000D03*
X200630000Y-54720000D03*
X200122000Y-51672000D03*
%TO.N,Net-(U16-Pad6)*%
X199106000Y-58022000D03*
X199106000Y-66658000D03*
X183104000Y-34466498D03*
X198090000Y-49894000D03*
X181154175Y-34409378D03*
X193518000Y-47100000D03*
%TO.N,Net-(U17-Pad13)*%
X84072120Y-98970500D03*
%TO.N,Net-(U17-Pad12)*%
X85809868Y-98803154D03*
%TO.N,Net-(U17-Pad11)*%
X87000954Y-98945000D03*
%TO.N,Net-(U18-Pad3)*%
X62180000Y-58920000D03*
X55000954Y-79545000D03*
X62008602Y-65748602D03*
%TO.N,/~{WE1}*%
X107180000Y-53770000D03*
X123180000Y-84920000D03*
X108521185Y-40220489D03*
X107180000Y-78920000D03*
X42555954Y-95544046D03*
X120180000Y-99920000D03*
X76385456Y-100920000D03*
X109503915Y-38021488D03*
X105150000Y-53670000D03*
X159180000Y-48820500D03*
X124204395Y-81960340D03*
X157704000Y-36432000D03*
X104350000Y-56060000D03*
%TO.N,/~{WE2}*%
X152878000Y-38972000D03*
X119180000Y-98920000D03*
X155926000Y-38718000D03*
X123180000Y-82920000D03*
X152180000Y-42920000D03*
X93555954Y-100195000D03*
X105980497Y-78920000D03*
X161006000Y-38210000D03*
X158180000Y-52920000D03*
X121982539Y-84989950D03*
X106129501Y-40970499D03*
X59385456Y-99920000D03*
%TO.N,/~{RE1}*%
X180579022Y-47319022D03*
X108180000Y-85920000D03*
X179180000Y-33920000D03*
X183180000Y-49920000D03*
X107180000Y-82920000D03*
X103180000Y-78920000D03*
X104180000Y-75920000D03*
%TO.N,/~{RE2}*%
X104180000Y-49950000D03*
X112180000Y-39920000D03*
X177060041Y-37452750D03*
X91285954Y-85695000D03*
X123180000Y-77920002D03*
X112180000Y-49120000D03*
X181970000Y-46710000D03*
X121180000Y-75920000D03*
X105100000Y-51730000D03*
X185180000Y-49920000D03*
X112180000Y-42920000D03*
X99180000Y-83920000D03*
X109040000Y-49910000D03*
%TO.N,/WE1:0*%
X128180000Y-65920000D03*
X118380000Y-119120000D03*
X120180000Y-65920000D03*
X142180000Y-70920000D03*
%TO.N,/WE1:1*%
X127180000Y-64920000D03*
X119229259Y-118095371D03*
X143180000Y-69920000D03*
%TO.N,/WE1:2*%
X127180000Y-68920000D03*
X120329500Y-116791398D03*
%TO.N,/WE1:3*%
X123580000Y-119320000D03*
X116540826Y-118080826D03*
%TO.N,/WE2:2*%
X130777712Y-109254483D03*
%TO.N,/RE1:2*%
X148180000Y-52920000D03*
X148180000Y-50920000D03*
X148351398Y-65748602D03*
X148180000Y-62920000D03*
%TO.N,/WE2:3*%
X170030997Y-92920000D03*
%TO.N,/WE2:4*%
X179379503Y-95920000D03*
%TO.N,Net-(J1-Pad65)*%
X161829011Y-123053972D03*
X58580000Y-126520000D03*
X127790590Y-122987794D03*
X69580000Y-126720000D03*
X190980000Y-127120000D03*
X71100000Y-55720000D03*
X139243883Y-121878833D03*
%TO.N,/WE2:1*%
X129580000Y-109320000D03*
%TO.N,/WE1:6*%
X127408565Y-111502861D03*
X161180000Y-91920000D03*
%TO.N,/WE2:6*%
X151180000Y-102920000D03*
X167180000Y-74920000D03*
X134128522Y-108898602D03*
%TO.N,/RE2:6*%
X178180000Y-117920000D03*
%TO.N,/RE2:0*%
X136056159Y-63970500D03*
X135180000Y-61920000D03*
%TO.N,/WE1:5*%
X126380000Y-112120000D03*
X160180000Y-94920000D03*
%TO.N,/RE1:6*%
X161180000Y-117920000D03*
X161180000Y-113920000D03*
%TO.N,/RE1:0*%
X146351398Y-66748602D03*
X146180000Y-52920000D03*
X146180000Y-62920000D03*
X146180000Y-49920000D03*
X146180000Y-52920000D03*
%TO.N,/WE2:5*%
X185180000Y-90920000D03*
X184993136Y-97746339D03*
%TO.N,/WE2:0*%
X132851398Y-124048602D03*
X118180000Y-67920000D03*
%TO.N,/RE1:1*%
X133063696Y-58761375D03*
%TO.N,/~{SUP}*%
X182095000Y-35924000D03*
%TO.N,Net-(R10-Pad2)*%
X168180000Y-121970500D03*
%TO.N,Net-(U2-Pad1)*%
X129180000Y-36920000D03*
X39091476Y-79543191D03*
X128075344Y-41928603D03*
%TO.N,Net-(U2-Pad2)*%
X126880745Y-41820249D03*
X126180000Y-36920000D03*
X41000954Y-79445000D03*
%TO.N,Net-(U2-Pad3)*%
X134180000Y-43920000D03*
X43200954Y-79545000D03*
X125221605Y-41012167D03*
X102180000Y-45920000D03*
%TO.N,Net-(U2-Pad4)*%
X105180000Y-65920000D03*
X108180000Y-66920000D03*
X45000954Y-79545000D03*
%TO.N,Net-(U2-Pad5)*%
X47000954Y-79545000D03*
X108180000Y-68119503D03*
X105006339Y-67106864D03*
%TO.N,Net-(U2-Pad6)*%
X64180000Y-65047544D03*
X70180000Y-63820500D03*
X48800954Y-79445000D03*
X117180000Y-40104057D03*
X117180000Y-37270990D03*
%TO.N,Net-(U18-Pad8)*%
X57000954Y-79545000D03*
X68180000Y-67019500D03*
%TO.N,Net-(U14-Pad17)*%
X46244004Y-94188050D03*
%TO.N,Net-(U14-Pad16)*%
X47605617Y-94169235D03*
%TO.N,Net-(U14-Pad15)*%
X48154705Y-95235682D03*
X64635954Y-93310000D03*
%TO.N,Net-(U14-Pad14)*%
X50000954Y-94945000D03*
X65905954Y-93850000D03*
%TO.N,Net-(U14-Pad13)*%
X51000954Y-95945000D03*
X67175954Y-95120000D03*
%TO.N,Net-(U14-Pad12)*%
X68445954Y-96390000D03*
X52000954Y-96945000D03*
%TO.N,Net-(U14-Pad11)*%
X69715954Y-98230000D03*
X53000954Y-97945000D03*
%TO.N,Net-(U17-Pad17)*%
X78812778Y-98946734D03*
%TO.N,Net-(U17-Pad16)*%
X80012230Y-98935681D03*
%TO.N,Net-(U17-Pad15)*%
X81674005Y-98931095D03*
%TO.N,Net-(U17-Pad14)*%
X82873491Y-98924737D03*
%TO.N,Net-(U11-Pad7)*%
X131924299Y-92843647D03*
%TO.N,Net-(U11-Pad2)*%
X122000954Y-97945000D03*
%TO.N,Net-(U5-Pad8)*%
X179119027Y-74897209D03*
X177008602Y-83748602D03*
%TO.N,Net-(U5-Pad11)*%
X181326000Y-77326000D03*
X179294000Y-70976000D03*
X179080500Y-85920000D03*
%TO.N,Net-(U22-Pad1)*%
X158008602Y-41091398D03*
X157180000Y-42920000D03*
X163180000Y-39920000D03*
X155990000Y-46500000D03*
%TO.N,Net-(U6-Pad9)*%
X192080500Y-47920000D03*
X155440000Y-48650000D03*
X192180000Y-50705989D03*
X193180000Y-53920000D03*
X159180000Y-44920000D03*
X189979405Y-44904201D03*
%TO.N,Net-(U18-Pad1)*%
X131008602Y-37091398D03*
X142180000Y-47920000D03*
X143180000Y-43920000D03*
X148180000Y-56920000D03*
X129274810Y-41919262D03*
X131180000Y-41920000D03*
X141180000Y-44920000D03*
X150180000Y-59920000D03*
%TO.N,Net-(U18-Pad10)*%
X187180000Y-51920000D03*
X184180000Y-46920000D03*
X86180000Y-32920000D03*
X186180000Y-59920000D03*
X151180000Y-36920000D03*
X180180000Y-42969500D03*
%TO.N,Net-(U22-Pad4)*%
X197908398Y-57954501D03*
X192180000Y-68920000D03*
X192180000Y-58920000D03*
X198156500Y-51805648D03*
X194780927Y-46404500D03*
%TO.N,Net-(U12-Pad6)*%
X153180000Y-77920000D03*
%TO.N,Net-(U12-Pad11)*%
X169908850Y-98848353D03*
X172180000Y-72920000D03*
X172080500Y-70920000D03*
X172071137Y-67820500D03*
X170980497Y-93920000D03*
X170980497Y-90920000D03*
X170180000Y-72920000D03*
X169980497Y-78920000D03*
X166980497Y-103920000D03*
%TO.N,Net-(U12-Pad3)*%
X155180000Y-75920000D03*
X154180000Y-90920000D03*
X155180000Y-73920000D03*
X155180000Y-85920000D03*
X153179998Y-71920000D03*
%TO.N,Net-(U12-Pad8)*%
X171180000Y-78920000D03*
X172180000Y-93920000D03*
X172180000Y-90920000D03*
X170880997Y-70920000D03*
X171180000Y-98920000D03*
X167180000Y-113920000D03*
X168180000Y-103920000D03*
%TO.N,Net-(U13-Pad6)*%
X186180000Y-97920000D03*
X182180000Y-101920000D03*
X182342000Y-74278000D03*
X180008602Y-104091398D03*
%TO.N,Net-(U13-Pad11)*%
X190180000Y-118920000D03*
X192180000Y-111920000D03*
X197180000Y-76920000D03*
X184180000Y-113920000D03*
X185180000Y-118920000D03*
%TO.N,Net-(U13-Pad3)*%
X177180000Y-93920000D03*
X180310000Y-75040000D03*
X172180000Y-103920000D03*
X178180000Y-95920000D03*
X173180000Y-98920000D03*
X177180000Y-87920000D03*
%TO.N,Net-(U13-Pad8)*%
X191180000Y-119920000D03*
X198180000Y-75920000D03*
X192180000Y-116920000D03*
X185180000Y-120119503D03*
%TO.N,Net-(U15-Pad9)*%
X180180000Y-48920000D03*
X174180000Y-58920000D03*
X174180000Y-52920000D03*
X174180000Y-49967544D03*
X186180000Y-50920000D03*
%TO.N,Net-(U1-Pad2)*%
X91675657Y-83962499D03*
X75897120Y-83922975D03*
%TO.N,Net-(U1-Pad3)*%
X90912088Y-83037421D03*
X78000954Y-82945000D03*
%TO.N,Net-(U1-Pad4)*%
X79000954Y-81945000D03*
X91007122Y-81841689D03*
%TO.N,Net-(U1-Pad5)*%
X80000954Y-80945000D03*
X91996347Y-80892189D03*
%TO.N,Net-(U1-Pad6)*%
X81000954Y-80009500D03*
X91000954Y-79942688D03*
%TO.N,Net-(U1-Pad7)*%
X99847487Y-88894500D03*
X81801451Y-86945000D03*
%TO.N,Net-(U1-Pad8)*%
X101138454Y-88807500D03*
X83000954Y-86945000D03*
%TO.N,Net-(U1-Pad9)*%
X84777603Y-87214098D03*
X102638454Y-88307500D03*
%TD*%
D21*
%TO.N,*%
X195185000Y-60925000D02*
X195180000Y-60920000D01*
X195360000Y-60925000D02*
X195185000Y-60925000D01*
D22*
%TO.N,GND*%
X190967477Y-52317523D02*
X188279501Y-52317523D01*
X102500954Y-102945000D02*
X93500954Y-102945000D01*
X126555954Y-76195000D02*
X126555954Y-71295954D01*
X197545000Y-42470000D02*
X194795000Y-39720000D01*
X75380000Y-55535000D02*
X69499511Y-49654511D01*
X176279501Y-118635499D02*
X176279501Y-100464571D01*
X173340271Y-48168533D02*
X173090280Y-48418523D01*
X177657555Y-48168533D02*
X173340271Y-48168533D01*
X188279501Y-52317523D02*
X188279501Y-52375429D01*
X188279501Y-52375429D02*
X187635429Y-53019501D01*
X156575000Y-119730000D02*
X157380000Y-120535000D01*
X58285954Y-109695000D02*
X58285954Y-106135000D01*
X157380000Y-120535000D02*
X158879511Y-119035489D01*
X175879511Y-100064581D02*
X175879511Y-96459511D01*
X181294511Y-51805489D02*
X180180000Y-52920000D01*
X42540000Y-64770000D02*
X35860000Y-64770000D01*
X186022593Y-52317523D02*
X185510559Y-51805489D01*
X184480000Y-101120000D02*
X184480000Y-100665072D01*
X36576932Y-103316932D02*
X36576932Y-80058714D01*
X175591488Y-96171488D02*
X167925733Y-96171488D01*
X167925733Y-96171488D02*
X167625244Y-95870999D01*
X160180000Y-51920000D02*
X160180000Y-52920000D01*
X189980000Y-53305000D02*
X191479511Y-51805489D01*
X36476942Y-79958724D02*
X36476942Y-79047866D01*
X92285954Y-104160000D02*
X93500954Y-102945000D01*
X198010070Y-53305000D02*
X202980000Y-53305000D01*
X43352977Y-104920000D02*
X38180000Y-104920000D01*
X176279501Y-100464571D02*
X175879511Y-100064581D01*
X166070314Y-96659511D02*
X158879511Y-96659511D01*
X179285429Y-100464571D02*
X179980000Y-99770000D01*
X58285954Y-106135000D02*
X59500954Y-104920000D01*
X174380000Y-120535000D02*
X176279501Y-118635499D01*
X39681196Y-75945000D02*
X72500954Y-75945000D01*
X191479511Y-51805489D02*
X196510559Y-51805489D01*
X69715954Y-109695000D02*
X69715954Y-104920000D01*
X59500954Y-104920000D02*
X86100454Y-104920000D01*
X74180000Y-64920000D02*
X66206545Y-64920000D01*
X92285954Y-109695000D02*
X92285954Y-104160000D01*
X93500954Y-102945000D02*
X92426454Y-104019500D01*
X86100454Y-104920000D02*
X87000954Y-104019500D01*
X163681477Y-48418523D02*
X161180000Y-50920000D01*
X186080499Y-52375429D02*
X186080499Y-52317523D01*
X176279501Y-100464571D02*
X179285429Y-100464571D01*
X75380000Y-63720000D02*
X74180000Y-64920000D01*
X185510559Y-51805489D02*
X181294511Y-51805489D01*
X173090280Y-48418523D02*
X163681477Y-48418523D01*
X158879511Y-119035489D02*
X158879511Y-96659511D01*
X59500954Y-104920000D02*
X43500954Y-104920000D01*
X43180000Y-104920000D02*
X41285954Y-106814046D01*
X166714386Y-95870999D02*
X166070314Y-96515071D01*
X92426454Y-104019500D02*
X87000954Y-104019500D01*
X201500000Y-42470000D02*
X197545000Y-42470000D01*
X69499511Y-41794511D02*
X68000000Y-40295000D01*
X75380000Y-55535000D02*
X75380000Y-63720000D01*
X41285954Y-106814046D02*
X41285954Y-109695000D01*
X125180000Y-69920000D02*
X125180000Y-68920000D01*
X175879511Y-96459511D02*
X175591488Y-96171488D01*
X201747372Y-81352628D02*
X203180000Y-79920000D01*
X85715954Y-79090000D02*
X85715954Y-85695000D01*
X125180000Y-62920000D02*
X126180000Y-62920000D01*
X193780000Y-74990000D02*
X193780000Y-79952628D01*
X126555954Y-71295954D02*
X125180000Y-69920000D01*
X38180000Y-104920000D02*
X36576932Y-103316932D01*
X149280000Y-111680000D02*
X149380000Y-111580000D01*
X52715954Y-109695000D02*
X52715954Y-104920000D01*
X196510559Y-49657356D02*
X195475796Y-48622593D01*
X85535954Y-78910000D02*
X85715954Y-79090000D01*
X158879511Y-96659511D02*
X157380000Y-95160000D01*
X72500954Y-75945000D02*
X73184755Y-76628801D01*
X35860000Y-64770000D02*
X35710000Y-64620000D01*
X166070314Y-96515071D02*
X166070314Y-96659511D01*
X196510559Y-51805489D02*
X196510559Y-49657356D01*
X103715954Y-109695000D02*
X103715954Y-104160000D01*
X149280000Y-119730000D02*
X156575000Y-119730000D01*
X36576932Y-80058714D02*
X36476942Y-79958724D01*
X186080499Y-52317523D02*
X186022593Y-52317523D01*
X187635429Y-53019501D02*
X186724571Y-53019501D01*
X39579808Y-75945000D02*
X39681196Y-75945000D01*
X193780000Y-79952628D02*
X195180000Y-81352628D01*
X71450000Y-34490000D02*
X71450000Y-39844022D01*
X71450000Y-39844022D02*
X69499511Y-41794511D01*
X184480000Y-100665072D02*
X182594964Y-98780036D01*
X126180000Y-62920000D02*
X127180000Y-61920000D01*
X36476942Y-79047866D02*
X39579808Y-75945000D01*
X149280000Y-119730000D02*
X149280000Y-111680000D01*
X196510559Y-51805489D02*
X198010070Y-53305000D01*
X175879511Y-96459511D02*
X174580000Y-95160000D01*
X161180000Y-50920000D02*
X160180000Y-51920000D01*
X167625244Y-95870999D02*
X166714386Y-95870999D01*
X195180000Y-81352628D02*
X201747372Y-81352628D01*
X75285954Y-109695000D02*
X75285954Y-104920000D01*
X186724571Y-53019501D02*
X186080499Y-52375429D01*
X66206545Y-64920000D02*
X64180000Y-66946545D01*
X69499511Y-49654511D02*
X69499511Y-41794511D01*
X103715954Y-104160000D02*
X102500954Y-102945000D01*
X181294511Y-51805489D02*
X177657555Y-48168533D01*
X161180000Y-50920000D02*
X160180000Y-49920000D01*
X191479511Y-51805489D02*
X190967477Y-52317523D01*
%TO.N,+5V*%
X180700489Y-98440489D02*
X180008602Y-97748602D01*
X144280000Y-119730000D02*
X144280000Y-111680000D01*
X76450000Y-34490000D02*
X82255000Y-40295000D01*
X156360000Y-70100000D02*
X154160979Y-67900979D01*
X105327000Y-77773000D02*
X105327000Y-73773000D01*
X73640184Y-77728302D02*
X72729326Y-77728302D01*
X76317745Y-102920000D02*
X89560954Y-102920000D01*
X183824072Y-102920000D02*
X183279501Y-102375429D01*
X165000000Y-79920000D02*
X164180000Y-79100000D01*
X35860000Y-59770000D02*
X35710000Y-59620000D01*
X124724571Y-39920488D02*
X124724571Y-37813093D01*
X194180000Y-102920000D02*
X183824072Y-102920000D01*
X167180000Y-70920000D02*
X165180000Y-70920000D01*
X185180000Y-71390000D02*
X188780000Y-74990000D01*
X65830000Y-40420000D02*
X65462536Y-40787464D01*
X173530989Y-97270989D02*
X167470304Y-97270989D01*
X178479511Y-68920000D02*
X178479511Y-70044511D01*
X180700489Y-81838881D02*
X180700489Y-83081119D01*
X74285954Y-76195000D02*
X74285954Y-77545000D01*
X182200000Y-79920000D02*
X182200000Y-80339370D01*
X37576443Y-79503295D02*
X37576443Y-92119465D01*
X115180000Y-34920000D02*
X119831478Y-34920000D01*
X78180000Y-63920000D02*
X78180000Y-54920000D01*
X162420804Y-102020000D02*
X165000000Y-99440804D01*
X173180000Y-68920000D02*
X169735000Y-68920000D01*
X108285954Y-76972000D02*
X107484954Y-77773000D01*
X201500000Y-36338630D02*
X195761859Y-30600489D01*
X75285954Y-100195000D02*
X75285954Y-101888209D01*
X178479511Y-70044511D02*
X174304511Y-70044511D01*
X195447500Y-101652500D02*
X194180000Y-102920000D01*
X165000000Y-99440804D02*
X167169815Y-97270989D01*
X39734239Y-77345499D02*
X37576443Y-79503295D01*
X201500000Y-37470000D02*
X201500000Y-36338630D01*
X144280000Y-111680000D02*
X144380000Y-111580000D01*
X65830000Y-34600000D02*
X65830000Y-40420000D01*
X107484954Y-77773000D02*
X120772070Y-77773000D01*
X91285954Y-76954000D02*
X91285954Y-76195000D01*
X72346523Y-77345499D02*
X39734239Y-77345499D01*
X76180000Y-65920000D02*
X78180000Y-63920000D01*
X164180000Y-79100000D02*
X164180000Y-78920000D01*
X105327000Y-77773000D02*
X107484954Y-77773000D01*
X74285954Y-77545000D02*
X74513954Y-77773000D01*
X57180000Y-102920000D02*
X42831932Y-102920000D01*
X195761859Y-30600489D02*
X181054511Y-30600489D01*
X76317745Y-102920000D02*
X57180000Y-102920000D01*
X41285954Y-101374022D02*
X41285954Y-100195000D01*
X165000000Y-105295000D02*
X165000000Y-99440804D01*
X160560000Y-102020000D02*
X162420804Y-102020000D01*
X183279501Y-101019501D02*
X183279501Y-102375429D01*
X148279501Y-44019501D02*
X148180000Y-43920000D01*
X154279501Y-47019501D02*
X151279501Y-44019501D01*
X32950954Y-129120000D02*
X32950954Y-118245884D01*
X74513954Y-77773000D02*
X74086453Y-77345499D01*
X180008602Y-97748602D02*
X177008602Y-97748602D01*
X42540000Y-59770000D02*
X35860000Y-59770000D01*
X178854511Y-68545000D02*
X178479511Y-68920000D01*
X110180000Y-68920000D02*
X110180000Y-42920000D01*
X151620000Y-104340000D02*
X151620000Y-104240000D01*
X122459930Y-76195000D02*
X125285954Y-76195000D01*
X124724571Y-37813093D02*
X124180000Y-37268522D01*
X90466954Y-77773000D02*
X91285954Y-76954000D01*
X90466954Y-77773000D02*
X105327000Y-77773000D01*
X174304511Y-70044511D02*
X173180000Y-68920000D01*
X165000000Y-79920000D02*
X167159040Y-82079040D01*
X82255000Y-40295000D02*
X83000000Y-40295000D01*
X167169815Y-97270989D02*
X167169815Y-96970500D01*
X182360000Y-68545000D02*
X178854511Y-68545000D01*
X120772070Y-77773000D02*
X121525569Y-77019501D01*
X144380000Y-111580000D02*
X151620000Y-104340000D01*
X66180000Y-66920000D02*
X67180000Y-65920000D01*
X119831478Y-34920000D02*
X122180000Y-37268522D01*
X145258000Y-36686000D02*
X145258000Y-39988000D01*
X182200000Y-80339370D02*
X180700489Y-81838881D01*
X121635429Y-77019501D02*
X122459930Y-76195000D01*
X180729021Y-83109651D02*
X180729020Y-84561628D01*
X195447500Y-99197628D02*
X195447500Y-101652500D01*
X108285954Y-76195000D02*
X108285954Y-76972000D01*
X174180000Y-97920000D02*
X173530989Y-97270989D01*
X41556443Y-96099465D02*
X41556443Y-101644511D01*
X169735000Y-68920000D02*
X169360000Y-68545000D01*
X195447500Y-115197628D02*
X195447500Y-91577628D01*
X154160979Y-67900979D02*
X154160979Y-48737631D01*
X41556443Y-101644511D02*
X41285954Y-101374022D01*
X74086453Y-77345499D02*
X74022987Y-77345499D01*
X58285954Y-101814046D02*
X57180000Y-102920000D01*
X164180000Y-78920000D02*
X164180000Y-76920000D01*
X42831932Y-102920000D02*
X41556443Y-101644511D01*
X89560954Y-102920000D02*
X92285954Y-100195000D01*
X154160979Y-48737631D02*
X154279501Y-48619110D01*
X105327000Y-73773000D02*
X110180000Y-68920000D01*
X183279501Y-101019501D02*
X180700489Y-98440489D01*
X31991127Y-117286057D02*
X31991127Y-115760652D01*
X180729020Y-84561628D02*
X180700489Y-84590158D01*
X181054511Y-30600489D02*
X179555000Y-32100000D01*
X185180000Y-70920000D02*
X185180000Y-71390000D01*
X156360000Y-70100000D02*
X156360000Y-68545000D01*
X180700489Y-84590158D02*
X180700489Y-98440489D01*
X183279501Y-102375429D02*
X182000000Y-103654930D01*
X67180000Y-65920000D02*
X76180000Y-65920000D01*
X37576443Y-92119465D02*
X41556443Y-96099465D01*
X182000000Y-103654930D02*
X182000000Y-105295000D01*
X167470304Y-97270989D02*
X167169815Y-96970500D01*
X159180000Y-72920000D02*
X156360000Y-70100000D01*
X32950954Y-118245884D02*
X31991127Y-117286057D01*
X110180000Y-39920000D02*
X115180000Y-34920000D01*
X72729326Y-77728302D02*
X72346523Y-77345499D01*
X74513954Y-77773000D02*
X90466954Y-77773000D01*
X121525569Y-77019501D02*
X121635429Y-77019501D01*
X154279501Y-48619110D02*
X154279501Y-47019501D01*
X180700489Y-83081119D02*
X180729021Y-83109651D01*
X75285954Y-101888209D02*
X76317745Y-102920000D01*
X151279501Y-44019501D02*
X148279501Y-44019501D01*
X167159040Y-82079040D02*
X167159040Y-94771499D01*
X74022987Y-77345499D02*
X73640184Y-77728302D01*
X42831932Y-102920000D02*
X38180000Y-102920000D01*
X58285954Y-100195000D02*
X58285954Y-101814046D01*
D23*
%TO.N,Net-(D1-Pad2)*%
X90935000Y-58740000D02*
X95710000Y-58740000D01*
X89645000Y-57450000D02*
X90935000Y-58740000D01*
%TO.N,Net-(D2-Pad2)*%
X90330000Y-42310000D02*
X89720000Y-42920000D01*
X95720000Y-42310000D02*
X90330000Y-42310000D01*
%TO.N,Net-(D3-Pad2)*%
X89720000Y-52920000D02*
X95355000Y-52920000D01*
X95355000Y-52920000D02*
X95720000Y-53285000D01*
%TO.N,Net-(D4-Pad2)*%
X93190000Y-47800000D02*
X95730000Y-47800000D01*
X89720000Y-47920000D02*
X93070000Y-47920000D01*
X93070000Y-47920000D02*
X93190000Y-47800000D01*
%TO.N,Net-(J1-Pad3)*%
X56705000Y-54130000D02*
X56280000Y-54130000D01*
X60380000Y-50455000D02*
X56705000Y-54130000D01*
X34180000Y-127269046D02*
X36030954Y-129120000D01*
X33180000Y-116920000D02*
X34180000Y-117920000D01*
X34180000Y-117920000D02*
X34180000Y-127269046D01*
%TO.N,Net-(J1-Pad4)*%
X57325000Y-42835000D02*
X57240000Y-42750000D01*
X31279031Y-112920000D02*
X31279031Y-113419031D01*
X31279031Y-113419031D02*
X38570954Y-120710954D01*
X38570954Y-120710954D02*
X38570954Y-129120000D01*
X60380000Y-42835000D02*
X57325000Y-42835000D01*
%TO.N,Net-(J1-Pad5)*%
X35727430Y-80410602D02*
X35727430Y-106746647D01*
X35627432Y-78646248D02*
X35627432Y-80310604D01*
X35627432Y-80310604D02*
X35727430Y-80410602D01*
X36972409Y-77310989D02*
X36962691Y-77310989D01*
X41338389Y-72945009D02*
X36972409Y-77310989D01*
X35727430Y-106746647D02*
X40175291Y-111194508D01*
X36962691Y-77310989D02*
X35627432Y-78646248D01*
X42335468Y-111194508D02*
X42555954Y-110974022D01*
X40175291Y-111194508D02*
X42335468Y-111194508D01*
X77000954Y-75945000D02*
X77000954Y-72945009D01*
X77000954Y-72945009D02*
X41338389Y-72945009D01*
X42555954Y-110974022D02*
X42555954Y-109695000D01*
%TO.N,Net-(J1-Pad6)*%
X41048650Y-72245490D02*
X36682663Y-76611478D01*
X34927920Y-78356502D02*
X34927920Y-106936395D01*
X43825954Y-109695000D02*
X43825954Y-111474046D01*
X43825954Y-111474046D02*
X43580000Y-111720000D01*
X34927920Y-106936395D02*
X39936523Y-111944998D01*
X77290693Y-72245490D02*
X41048650Y-72245490D01*
X43355002Y-111944998D02*
X43580000Y-111720000D01*
X36682663Y-76611478D02*
X36672943Y-76611479D01*
X78095954Y-76195000D02*
X78095954Y-73050751D01*
X36672943Y-76611479D02*
X34927920Y-78356502D01*
X78095954Y-73050751D02*
X77290693Y-72245490D01*
X39936523Y-111944998D02*
X43355002Y-111944998D01*
%TO.N,Net-(J1-Pad7)*%
X79365954Y-76195000D02*
X79365954Y-73286788D01*
X44830499Y-112669501D02*
X45180000Y-112320000D01*
X39671768Y-112669501D02*
X44830499Y-112669501D01*
X45095954Y-109695000D02*
X45180000Y-109779046D01*
X36392913Y-75911969D02*
X36383195Y-75911969D01*
X77625146Y-71545980D02*
X40758902Y-71545980D01*
X79365954Y-73286788D02*
X77625146Y-71545980D01*
X45180000Y-109779046D02*
X45180000Y-112320000D01*
X36383195Y-75911969D02*
X34228410Y-78066754D01*
X34228410Y-78066754D02*
X34228410Y-107226143D01*
X40758902Y-71545980D02*
X36392913Y-75911969D01*
X34228410Y-107226143D02*
X39671768Y-112669501D01*
%TO.N,Net-(J1-Pad8)*%
X46365954Y-112934046D02*
X46180000Y-113120000D01*
X45930989Y-113369011D02*
X46180000Y-113120000D01*
X40459399Y-70846467D02*
X33528901Y-77776965D01*
X77932659Y-70846467D02*
X40459399Y-70846467D01*
X33528901Y-77776965D02*
X33528901Y-107515908D01*
X39382004Y-113369011D02*
X45930989Y-113369011D01*
X78028663Y-70942471D02*
X77932659Y-70846467D01*
X80635954Y-73567525D02*
X78205184Y-71136755D01*
X33528901Y-107515908D02*
X39382004Y-113369011D01*
X46365954Y-109695000D02*
X46365954Y-112934046D01*
X78205184Y-71136755D02*
X78082892Y-70953317D01*
X80635954Y-76195000D02*
X80635954Y-73567525D01*
X78082892Y-70953317D02*
X78028663Y-70942471D01*
%TO.N,Net-(J1-Pad9)*%
X47635954Y-109695000D02*
X47748586Y-109807632D01*
X40143548Y-70146956D02*
X32829391Y-77461113D01*
X32829391Y-107805656D02*
X39093236Y-114069501D01*
X81905954Y-73848259D02*
X78748774Y-70691079D01*
X39093236Y-114069501D02*
X47230499Y-114069501D01*
X47230499Y-114069501D02*
X47580000Y-113720000D01*
X78421155Y-70307606D02*
X78260505Y-70146956D01*
X47748586Y-109807632D02*
X47748586Y-113551414D01*
X78748774Y-70691079D02*
X78504199Y-70324216D01*
X81905954Y-76195000D02*
X81905954Y-73848259D01*
X78260505Y-70146956D02*
X40143548Y-70146956D01*
X32829391Y-77461113D02*
X32829391Y-107805656D01*
X78504199Y-70324216D02*
X78421155Y-70307606D01*
X47748586Y-113551414D02*
X47580000Y-113720000D01*
%TO.N,Net-(J1-Pad10)*%
X48905954Y-109695000D02*
X49252454Y-110041500D01*
X78818318Y-69647853D02*
X78794865Y-69640035D01*
X78449637Y-69447429D02*
X78449623Y-69447429D01*
X77687135Y-69447438D02*
X77220776Y-69354169D01*
X75727770Y-69400731D02*
X39870306Y-69400731D01*
X78494389Y-69447445D02*
X78449667Y-69447445D01*
X49252454Y-110041500D02*
X49252454Y-114040000D01*
X78763427Y-69598121D02*
X78763426Y-69598119D01*
X32129880Y-77141157D02*
X32129880Y-108095402D01*
X78794865Y-69640035D02*
X78763429Y-69598121D01*
X77220776Y-69354169D02*
X77082716Y-69446209D01*
X77837937Y-69447438D02*
X77687135Y-69447438D01*
X78449659Y-69447438D02*
X78449646Y-69447438D01*
X48523443Y-114769011D02*
X49252454Y-114040000D01*
X78763426Y-69598119D02*
X78697091Y-69588643D01*
X78652558Y-69538552D02*
X78628810Y-69537155D01*
X79292392Y-70245443D02*
X79047438Y-69878012D01*
X78127673Y-69447429D02*
X77870141Y-69447429D01*
X78571410Y-69502111D02*
X78549057Y-69502112D01*
X78449667Y-69447445D02*
X78449659Y-69447438D01*
X78449623Y-69447429D02*
X78449613Y-69447419D01*
X77082716Y-69446209D02*
X75760090Y-69368411D01*
X78449646Y-69447438D02*
X78449637Y-69447429D01*
X78652562Y-69538557D02*
X78652558Y-69538552D01*
X78589632Y-69520332D02*
X78571410Y-69502111D01*
X78611987Y-69520332D02*
X78589632Y-69520332D01*
X32129880Y-108095402D02*
X38803490Y-114769012D01*
X78549057Y-69502112D02*
X78494389Y-69447445D01*
X78652570Y-69538557D02*
X78652562Y-69538557D01*
X78832664Y-69676546D02*
X78818318Y-69647853D01*
X83175954Y-74129005D02*
X79292392Y-70245443D01*
X78925509Y-69695118D02*
X78925506Y-69695114D01*
X77870141Y-69447429D02*
X77870133Y-69447437D01*
X77870133Y-69447437D02*
X77837937Y-69447438D01*
X78925513Y-69695119D02*
X78925509Y-69695118D01*
X83175954Y-76195000D02*
X83175954Y-74129005D01*
X75760090Y-69368411D02*
X75727770Y-69400731D01*
X78628810Y-69537155D02*
X78611987Y-69520332D01*
X78763429Y-69598121D02*
X78763427Y-69598121D01*
X78449613Y-69447419D02*
X78127673Y-69447429D01*
X38803490Y-114769012D02*
X48523443Y-114769011D01*
X78925506Y-69695114D02*
X78832664Y-69676546D01*
X39870306Y-69400731D02*
X32129880Y-77141157D01*
X79047438Y-69878012D02*
X78925513Y-69695119D01*
X78697091Y-69588643D02*
X78652570Y-69538557D01*
%TO.N,Net-(J1-Pad11)*%
X78739361Y-68747909D02*
X78739347Y-68747909D01*
X50175954Y-110745000D02*
X50268454Y-110837500D01*
X79149186Y-68946615D02*
X79149183Y-68946615D01*
X78982893Y-68857268D02*
X78982886Y-68857268D01*
X79668257Y-69548177D02*
X79655785Y-69529473D01*
X79346809Y-69066009D02*
X79324758Y-69061599D01*
X78982886Y-68857268D02*
X78982882Y-68857263D01*
X75511919Y-68653093D02*
X75463792Y-68701220D01*
X78159857Y-68747917D02*
X78127662Y-68747918D01*
X78879368Y-68820822D02*
X78861138Y-68802592D01*
X78861130Y-68802592D02*
X78861125Y-68802587D01*
X79346817Y-69066021D02*
X79346809Y-69066009D01*
X78959136Y-68855866D02*
X78942316Y-68839046D01*
X78739370Y-68747918D02*
X78739361Y-68747909D01*
X78838791Y-68802588D02*
X78784135Y-68747934D01*
X78942316Y-68839046D02*
X78919959Y-68839046D01*
X77756358Y-68747919D02*
X77073837Y-68611419D01*
X78692234Y-68730203D02*
X78426648Y-68747909D01*
X79376264Y-69086768D02*
X79357536Y-69082086D01*
X84445954Y-76195000D02*
X84445954Y-74409751D01*
X78861138Y-68802592D02*
X78861130Y-68802592D01*
X76889759Y-68734139D02*
X75511919Y-68653093D01*
X78739405Y-68747927D02*
X78739393Y-68747927D01*
X79655785Y-69529470D02*
X79658966Y-69507208D01*
X79093177Y-68938612D02*
X79053175Y-68898610D01*
X79259510Y-69026131D02*
X79191929Y-69003604D01*
X79036415Y-68898610D02*
X79017781Y-68875317D01*
X31430369Y-76818373D02*
X31430369Y-108385152D01*
X78426648Y-68747909D02*
X78159865Y-68747909D01*
X78861125Y-68802587D02*
X78838791Y-68802588D01*
X78712460Y-68747900D02*
X78692234Y-68730203D01*
X78739412Y-68747934D02*
X78739405Y-68747927D01*
X78739337Y-68747899D02*
X78712460Y-68747900D01*
X79668256Y-69548180D02*
X79668257Y-69548177D01*
X78901733Y-68820821D02*
X78879368Y-68820822D01*
X79264940Y-69036992D02*
X79259510Y-69026131D01*
X78784135Y-68747934D02*
X78739412Y-68747934D01*
X79836006Y-69799803D02*
X79668256Y-69548180D01*
X79506781Y-69304294D02*
X79376264Y-69086768D01*
X84445954Y-74409751D02*
X79836006Y-69799803D01*
X78996871Y-68872994D02*
X78982893Y-68857268D01*
X79311267Y-69043610D02*
X79264940Y-69036992D01*
X79346828Y-69066023D02*
X79346817Y-69066021D01*
X77073837Y-68611419D02*
X76889759Y-68734139D01*
X79655785Y-69529473D02*
X79655785Y-69529470D01*
X39547522Y-68701220D02*
X31430369Y-76818373D01*
X78159865Y-68747909D02*
X78159857Y-68747917D01*
X38513732Y-115468515D02*
X49764262Y-115468515D01*
X78982882Y-68857263D02*
X78959136Y-68855866D01*
X75463792Y-68701220D02*
X39547522Y-68701220D01*
X31430369Y-108385152D02*
X38513732Y-115468515D01*
X79658966Y-69507208D02*
X79506781Y-69304294D01*
X78739383Y-68747918D02*
X78739370Y-68747918D01*
X79017781Y-68875317D02*
X78996871Y-68872994D01*
X50268454Y-110837500D02*
X50268454Y-114964323D01*
X78127662Y-68747918D02*
X77756358Y-68747919D01*
X79324758Y-69061599D02*
X79311267Y-69043610D01*
X79357536Y-69082086D02*
X79346828Y-69066023D01*
X78919959Y-68839046D02*
X78901733Y-68820821D01*
X78739393Y-68747927D02*
X78739383Y-68747918D01*
X49764262Y-115468515D02*
X50268454Y-114964323D01*
X79149181Y-68946612D02*
X79093177Y-68938612D01*
X78739347Y-68747909D02*
X78739337Y-68747899D01*
X79053175Y-68898610D02*
X79036415Y-68898610D01*
X50175954Y-109695000D02*
X50175954Y-110745000D01*
X79191929Y-69003604D02*
X79149186Y-68946615D01*
X79149183Y-68946615D02*
X79149181Y-68946612D01*
%TO.N,Net-(J1-Pad12)*%
X78934794Y-68012964D02*
X78729080Y-68026682D01*
X79150854Y-68103077D02*
X79150840Y-68103063D01*
X79272639Y-68157757D02*
X79250285Y-68157757D01*
X79697025Y-68392104D02*
X79612131Y-68379976D01*
X79191448Y-68121297D02*
X79169102Y-68121298D01*
X79382992Y-68212076D02*
X79360549Y-68209583D01*
X79169102Y-68121298D02*
X79150884Y-68103081D01*
X41370085Y-67954995D02*
X39284263Y-67954995D01*
X79382999Y-68212085D02*
X79382992Y-68212076D01*
X79007778Y-68048378D02*
X78991964Y-68034146D01*
X51445954Y-115852500D02*
X51538454Y-115945000D01*
X79383011Y-68212086D02*
X79382999Y-68212085D01*
X79313233Y-68175988D02*
X79313220Y-68175987D01*
X79438932Y-68247104D02*
X79411025Y-68247104D01*
X77825623Y-68048408D02*
X76926897Y-67868670D01*
X75199814Y-68001709D02*
X41426141Y-68001709D01*
X79029117Y-68048407D02*
X79029107Y-68048398D01*
X79411025Y-68247104D02*
X79383011Y-68212086D01*
X79827015Y-68478417D02*
X79789565Y-68469054D01*
X79029069Y-68048389D02*
X79029057Y-68048377D01*
X41426141Y-68001709D02*
X41370085Y-67954995D01*
X79327203Y-68191706D02*
X79313233Y-68175988D01*
X79029155Y-68048419D02*
X79029151Y-68048416D01*
X80062363Y-68870659D02*
X79827015Y-68478417D01*
X78934798Y-68012968D02*
X78934794Y-68012964D01*
X76926897Y-67868670D02*
X76696801Y-68022069D01*
X76696801Y-68022069D02*
X75645351Y-67960221D01*
X79289461Y-68174579D02*
X79272639Y-68157757D01*
X51445954Y-109695000D02*
X51445954Y-115852500D01*
X79768129Y-68436928D02*
X79768115Y-68436907D01*
X79768111Y-68436906D02*
X79768108Y-68436902D01*
X79029129Y-68048407D02*
X79029117Y-68048407D01*
X85715954Y-76195000D02*
X85715954Y-74630455D01*
X75366332Y-67943809D02*
X75263748Y-67937775D01*
X79697046Y-68392117D02*
X79697033Y-68392115D01*
X79073884Y-68048423D02*
X79073875Y-68048423D01*
X38268142Y-116320000D02*
X51163454Y-116320000D01*
X79789565Y-68469054D02*
X79768152Y-68436933D01*
X79191461Y-68121302D02*
X79191453Y-68121302D01*
X80088007Y-68913399D02*
X80086127Y-68910265D01*
X80222835Y-69093182D02*
X80164339Y-68976189D01*
X78991964Y-68034146D02*
X78960881Y-68035782D01*
X80265077Y-69149505D02*
X80222835Y-69093182D01*
X79548433Y-68313099D02*
X79534934Y-68295103D01*
X30500954Y-108552812D02*
X38268142Y-116320000D01*
X79534934Y-68295103D02*
X79478931Y-68287103D01*
X85715954Y-74630455D02*
X80355296Y-69269797D01*
X78934807Y-68012967D02*
X78934798Y-68012968D01*
X78960881Y-68035782D02*
X78934807Y-68012967D01*
X80164339Y-68976189D02*
X80125349Y-68963192D01*
X77870117Y-68048399D02*
X77870109Y-68048408D01*
X39284263Y-67954995D02*
X30500954Y-76738304D01*
X78403352Y-68048398D02*
X77870117Y-68048399D01*
X80355296Y-69269797D02*
X80355296Y-69239724D01*
X79150840Y-68103063D02*
X79128525Y-68103064D01*
X80125349Y-68963192D02*
X80088007Y-68913399D01*
X79250285Y-68157757D02*
X79232062Y-68139535D01*
X80086127Y-68910265D02*
X80086887Y-68906083D01*
X79768108Y-68436902D02*
X79761098Y-68435500D01*
X77870109Y-68048408D02*
X77825623Y-68048408D01*
X75263748Y-67937775D02*
X75199814Y-68001709D01*
X79720147Y-68422920D02*
X79697046Y-68392117D01*
X79029057Y-68048377D02*
X79007778Y-68048378D01*
X79029138Y-68048416D02*
X79029129Y-68048407D01*
X79360549Y-68209583D02*
X79348105Y-68194028D01*
X51163454Y-116320000D02*
X51538454Y-115945000D01*
X79128525Y-68103064D02*
X79073884Y-68048423D01*
X79073875Y-68048423D02*
X79073870Y-68048418D01*
X79757032Y-68429626D02*
X79720147Y-68422920D01*
X79348105Y-68194028D02*
X79327203Y-68191706D01*
X79612131Y-68379976D02*
X79570487Y-68317510D01*
X79478931Y-68287103D02*
X79438932Y-68247104D01*
X79150884Y-68103081D02*
X79150877Y-68103081D01*
X79761098Y-68435500D02*
X79757032Y-68429626D01*
X79029094Y-68048398D02*
X79029085Y-68048389D01*
X79029107Y-68048398D02*
X79029094Y-68048398D01*
X79768115Y-68436907D02*
X79768111Y-68436906D01*
X79209695Y-68139535D02*
X79191461Y-68121302D01*
X79697033Y-68392115D02*
X79697025Y-68392104D01*
X79150877Y-68103081D02*
X79150873Y-68103077D01*
X79150873Y-68103077D02*
X79150854Y-68103077D01*
X79570487Y-68317510D02*
X79548433Y-68313099D01*
X75645351Y-67960221D02*
X75458245Y-67897853D01*
X79191453Y-68121302D02*
X79191448Y-68121297D01*
X79313220Y-68175987D02*
X79313210Y-68175976D01*
X79232062Y-68139535D02*
X79209695Y-68139535D01*
X79073870Y-68048418D02*
X79029155Y-68048419D01*
X79313210Y-68175976D02*
X79289461Y-68174579D01*
X79768152Y-68436933D02*
X79768129Y-68436928D01*
X79029085Y-68048389D02*
X79029069Y-68048389D01*
X79029151Y-68048416D02*
X79029138Y-68048416D01*
X80086887Y-68906083D02*
X80062363Y-68870659D01*
X30500954Y-76738304D02*
X30500954Y-108552812D01*
X78729080Y-68026682D02*
X78403352Y-68048398D01*
X80355296Y-69239724D02*
X80265077Y-69149505D01*
X75458245Y-67897853D02*
X75366332Y-67943809D01*
%TO.N,Net-(J1-Pad13)*%
X82780000Y-116520000D02*
X76555954Y-110295954D01*
X82779999Y-118920001D02*
X82780000Y-116520000D01*
X70443454Y-119545978D02*
X71069431Y-118920001D01*
X61430954Y-120869046D02*
X62754022Y-119545978D01*
X76555954Y-110295954D02*
X76555954Y-109695000D01*
X62754022Y-119545978D02*
X70443454Y-119545978D01*
X61430954Y-129120000D02*
X61430954Y-120869046D01*
X71069431Y-118920001D02*
X82779999Y-118920001D01*
%TO.N,Net-(J1-Pad14)*%
X83479510Y-116080758D02*
X77961875Y-110563123D01*
X63970954Y-121529046D02*
X65254511Y-120245489D01*
X71358197Y-119620490D02*
X83479510Y-119620490D01*
X77961875Y-110563123D02*
X77961875Y-109559079D01*
X83479510Y-119620490D02*
X83479510Y-116080758D01*
X70733198Y-120245489D02*
X71358197Y-119620490D01*
X63970954Y-129120000D02*
X63970954Y-121529046D01*
X65254511Y-120245489D02*
X70733198Y-120245489D01*
%TO.N,Net-(J1-Pad15)*%
X84179021Y-115765954D02*
X79152854Y-110739787D01*
X66510954Y-129120000D02*
X66510954Y-125456991D01*
X79152854Y-110739787D02*
X79152854Y-109701820D01*
X66510954Y-125456991D02*
X71196468Y-120771477D01*
X84179021Y-120320979D02*
X84179021Y-115765954D01*
X83728523Y-120771477D02*
X84179021Y-120320979D01*
X71196468Y-120771477D02*
X83728523Y-120771477D01*
%TO.N,Net-(J1-Pad16)*%
X84829012Y-121470988D02*
X85000954Y-121299046D01*
X68200954Y-128270000D02*
X68200954Y-124756248D01*
X85000954Y-115380000D02*
X80365954Y-110745000D01*
X85000954Y-121299046D02*
X85000954Y-115380000D01*
X68200954Y-124756248D02*
X71486214Y-121470988D01*
X69050954Y-129120000D02*
X68200954Y-128270000D01*
X71486214Y-121470988D02*
X84829012Y-121470988D01*
X80365954Y-110745000D02*
X80365954Y-109695000D01*
%TO.N,Net-(J1-Pad17)*%
X71879511Y-122420489D02*
X85525465Y-122420489D01*
X86000954Y-121945000D02*
X86000954Y-115110000D01*
X81672352Y-110781398D02*
X81672352Y-109658602D01*
X85525465Y-122420489D02*
X86000954Y-121945000D01*
X86000954Y-115110000D02*
X81672352Y-110781398D01*
%TO.N,Net-(J1-Pad18)*%
X74180000Y-124120000D02*
X75080490Y-123219510D01*
X87000954Y-122499046D02*
X87000954Y-114940954D01*
X75080490Y-123219510D02*
X86280490Y-123219510D01*
X82978750Y-110918750D02*
X82978750Y-109622204D01*
X86280490Y-123219510D02*
X87000954Y-122499046D01*
X87000954Y-114940954D02*
X82978750Y-110918750D01*
%TO.N,Net-(J1-Pad19)*%
X84212352Y-109658602D02*
X84212352Y-111152352D01*
X77694523Y-124005477D02*
X76580000Y-125120000D01*
X87780000Y-114720000D02*
X87780000Y-122920000D01*
X87780000Y-122920000D02*
X86694523Y-124005477D01*
X86694523Y-124005477D02*
X77694523Y-124005477D01*
X84212352Y-111152352D02*
X87780000Y-114720000D01*
%TO.N,Net-(J1-Pad20)*%
X87000954Y-124945000D02*
X80155000Y-124945000D01*
X85471875Y-111415921D02*
X88580000Y-114524046D01*
X80155000Y-124945000D02*
X79308602Y-125791398D01*
X88580000Y-114524046D02*
X88580000Y-123365954D01*
X85471875Y-109669079D02*
X85471875Y-111415921D01*
X119780000Y-76130954D02*
X119780000Y-76120000D01*
X119715954Y-76195000D02*
X119780000Y-76130954D01*
X88580000Y-123365954D02*
X87000954Y-124945000D01*
%TO.N,Net-(J1-Pad21)*%
X59224305Y-111214098D02*
X59555954Y-110882449D01*
X59555954Y-110882449D02*
X59555954Y-109695000D01*
X70000954Y-112343358D02*
X70000954Y-118596478D01*
X93825954Y-74969503D02*
X93801451Y-74945000D01*
X93825954Y-76195000D02*
X93825954Y-74969503D01*
X69020570Y-111362974D02*
X70000954Y-112343358D01*
%TO.N,Net-(J1-Pad22)*%
X60825954Y-111558717D02*
X59723460Y-112661211D01*
X70572676Y-111572283D02*
X71000954Y-112000561D01*
X71000954Y-112000561D02*
X71000954Y-117936683D01*
X59723460Y-112661211D02*
X59723460Y-112844437D01*
X71000954Y-117936683D02*
X71005990Y-117941719D01*
X95095954Y-75040000D02*
X95000954Y-74945000D01*
X60825954Y-109695000D02*
X60825954Y-111558717D01*
X95095954Y-76195000D02*
X95095954Y-75040000D01*
%TO.N,Net-(J1-Pad23)*%
X96365954Y-76195000D02*
X96365954Y-75310000D01*
X72000954Y-112144503D02*
X72000954Y-117740480D01*
X72000954Y-117740480D02*
X72205488Y-117945014D01*
X62095954Y-109695000D02*
X62095954Y-111849864D01*
X96000954Y-74945000D02*
X96000954Y-73945000D01*
X62095954Y-111849864D02*
X61000892Y-112944926D01*
X72200457Y-111945000D02*
X72000954Y-112144503D01*
X96365954Y-75310000D02*
X96000954Y-74945000D01*
%TO.N,Net-(J1-Pad24)*%
X63365954Y-112271518D02*
X61783654Y-113853818D01*
X97635954Y-73603433D02*
X96989094Y-72956573D01*
X97635954Y-76195000D02*
X97635954Y-73603433D01*
X63365954Y-109695000D02*
X63365954Y-112271518D01*
X74000954Y-117945000D02*
X73000954Y-116945000D01*
X73000954Y-116945000D02*
X73000954Y-112945000D01*
%TO.N,Net-(J1-Pad25)*%
X64635954Y-112344361D02*
X61936784Y-115043531D01*
X76000954Y-117945000D02*
X74000954Y-115945000D01*
X64635954Y-109695000D02*
X64635954Y-112344361D01*
X98905954Y-76195000D02*
X98905954Y-73177207D01*
X74000954Y-115945000D02*
X74000954Y-113945000D01*
X61936784Y-115043531D02*
X61630715Y-115043531D01*
X98905954Y-73177207D02*
X97847588Y-72118841D01*
%TO.N,Net-(J1-Pad26)*%
X65905954Y-109695000D02*
X65905954Y-112417256D01*
X76000954Y-115945000D02*
X76000954Y-114945000D01*
X78000954Y-117945000D02*
X76000954Y-115945000D01*
X100175954Y-76195000D02*
X100175954Y-72754166D01*
X65905954Y-112417256D02*
X63157284Y-115165926D01*
X100175954Y-72754166D02*
X98641138Y-71219350D01*
%TO.N,Net-(J1-Pad27)*%
X101445954Y-76195000D02*
X101445954Y-72353974D01*
X78000954Y-115945000D02*
X79808342Y-117752388D01*
X79808342Y-117752388D02*
X79808342Y-117794816D01*
X67175954Y-109695000D02*
X67051453Y-109819501D01*
X101445954Y-72353974D02*
X99624617Y-70532637D01*
X67051453Y-109819501D02*
X67051453Y-112966769D01*
X67051453Y-112966769D02*
X64038502Y-115979720D01*
%TO.N,Net-(J1-Pad28)*%
X68071069Y-110069885D02*
X68071069Y-113874885D01*
X68071069Y-113874885D02*
X65000954Y-116945000D01*
X102715954Y-76195000D02*
X102715954Y-72002797D01*
X102715954Y-72002797D02*
X100185506Y-69472349D01*
X68445954Y-109695000D02*
X68071069Y-110069885D01*
%TO.N,Net-(J1-Pad29)*%
X109269637Y-123909052D02*
X96769052Y-123909052D01*
X143000954Y-90445000D02*
X116475455Y-116970499D01*
X116475455Y-116970499D02*
X115986703Y-116970499D01*
X127825954Y-76195000D02*
X127825954Y-75145000D01*
X93555954Y-109695000D02*
X93555954Y-118695954D01*
X115986703Y-116970499D02*
X115430499Y-117526703D01*
X127825954Y-75145000D02*
X132826443Y-70144511D01*
X138711207Y-70144511D02*
X143000954Y-74434258D01*
X96605490Y-123745490D02*
X95801444Y-123745490D01*
X93580000Y-121524046D02*
X93580000Y-118720000D01*
X115430499Y-117748190D02*
X109269637Y-123909052D01*
X93555954Y-118695954D02*
X93580000Y-118720000D01*
X132826443Y-70144511D02*
X138711207Y-70144511D01*
X115430499Y-117526703D02*
X115430499Y-117748190D01*
X143000954Y-74434258D02*
X143000954Y-90445000D01*
X95801444Y-123745490D02*
X93580000Y-121524046D01*
X96769052Y-123909052D02*
X96605490Y-123745490D01*
%TO.N,Net-(J1-Pad30)*%
X97269004Y-122945000D02*
X94825954Y-120501950D01*
X129095954Y-76195000D02*
X129095954Y-75145000D01*
X138421460Y-70844022D02*
X142301443Y-74724007D01*
X102139493Y-123019085D02*
X102065409Y-122945000D01*
X114730992Y-117458435D02*
X109170342Y-123019085D01*
X129095954Y-75145000D02*
X133396932Y-70844022D01*
X115850893Y-116117063D02*
X114730990Y-117236966D01*
X116339628Y-116117064D02*
X115850893Y-116117063D01*
X102065409Y-122945000D02*
X97269004Y-122945000D01*
X142301443Y-74724007D02*
X142301443Y-90155249D01*
X109170342Y-123019085D02*
X102139493Y-123019085D01*
X133396932Y-70844022D02*
X138421460Y-70844022D01*
X142301443Y-90155249D02*
X116339628Y-116117064D01*
X94825954Y-120501950D02*
X94825954Y-109695000D01*
X114730990Y-117236966D02*
X114730992Y-117458435D01*
%TO.N,Net-(J1-Pad31)*%
X102355155Y-122245489D02*
X98648287Y-122245489D01*
X102429241Y-122319575D02*
X102355155Y-122245489D01*
X116049882Y-115417553D02*
X115561145Y-115417553D01*
X141601930Y-89865508D02*
X116049882Y-115417553D01*
X98648287Y-122245489D02*
X98251399Y-121848601D01*
X105326713Y-122319574D02*
X105326711Y-122319576D01*
X96095954Y-119693156D02*
X96095954Y-109695000D01*
X130365954Y-75145000D02*
X133967421Y-71543533D01*
X105326711Y-122319576D02*
X102429241Y-122319575D01*
X114031478Y-117168695D02*
X108880599Y-122319574D01*
X130365954Y-76195000D02*
X130365954Y-75145000D01*
X108880599Y-122319574D02*
X105326713Y-122319574D01*
X133967421Y-71543533D02*
X138131714Y-71543534D01*
X98251399Y-121848601D02*
X96095954Y-119693156D01*
X141601932Y-75013753D02*
X141601930Y-89865508D01*
X138131714Y-71543534D02*
X141601932Y-75013753D01*
X114031476Y-116947222D02*
X114031478Y-117168695D01*
X115561145Y-115417553D02*
X114031476Y-116947222D01*
%TO.N,Net-(J1-Pad32)*%
X97365954Y-109695000D02*
X97365954Y-119310000D01*
X102718989Y-121620065D02*
X105036965Y-121620065D01*
X102644902Y-121545978D02*
X102718989Y-121620065D01*
X131635954Y-75145000D02*
X131635954Y-76195000D01*
X137841966Y-72243044D02*
X134537910Y-72243044D01*
X115271398Y-114718042D02*
X115760136Y-114718042D01*
X113331964Y-116878951D02*
X113331962Y-116657478D01*
X134537910Y-72243044D02*
X131635954Y-75145000D01*
X140902420Y-89575760D02*
X140902421Y-75303499D01*
X105111051Y-121545978D02*
X108664937Y-121545978D01*
X99601932Y-121545978D02*
X102644902Y-121545978D01*
X98877977Y-120822023D02*
X99601932Y-121545978D01*
X140902421Y-75303499D02*
X137841966Y-72243044D01*
X105036965Y-121620065D02*
X105111051Y-121545978D01*
X97365954Y-119310000D02*
X98877977Y-120822023D01*
X113331962Y-116657478D02*
X115271398Y-114718042D01*
X115760136Y-114718042D02*
X140902420Y-89575760D01*
X108664937Y-121545978D02*
X113331964Y-116878951D01*
%TO.N,Net-(J1-Pad33)*%
X132905954Y-76195000D02*
X132905954Y-75040000D01*
X115470388Y-114018532D02*
X114981650Y-114018532D01*
X103008735Y-120920554D02*
X102934648Y-120846467D01*
X114981650Y-114018532D02*
X108153714Y-120846467D01*
X132905954Y-75040000D02*
X135003399Y-72942555D01*
X137552220Y-72942556D02*
X140099487Y-75489824D01*
X98849376Y-119450624D02*
X98635954Y-119237202D01*
X104747219Y-120920554D02*
X103008735Y-120920554D01*
X102934648Y-120846467D02*
X100245219Y-120846467D01*
X140099485Y-89389437D02*
X115470388Y-114018532D01*
X98635954Y-119237202D02*
X98635954Y-109695000D01*
X108153714Y-120846467D02*
X104821307Y-120846467D01*
X135003399Y-72942555D02*
X137552220Y-72942556D01*
X100245219Y-120846467D02*
X98849376Y-119450624D01*
X140099487Y-75489824D02*
X140099485Y-89389437D01*
X104821307Y-120846467D02*
X104747219Y-120920554D01*
%TO.N,Net-(J1-Pad34)*%
X103224395Y-120146956D02*
X103298483Y-120221044D01*
X135303888Y-73642066D02*
X134175954Y-74770000D01*
X99905954Y-118850000D02*
X101202910Y-120146956D01*
X104457473Y-120221043D02*
X104531560Y-120146956D01*
X103298483Y-120221044D02*
X104457473Y-120221043D01*
X139399975Y-89099689D02*
X139399976Y-75779570D01*
X115180642Y-113319021D02*
X139399975Y-89099689D01*
X107863968Y-120146956D02*
X114691903Y-113319021D01*
X99905954Y-118445954D02*
X99905954Y-118850000D01*
X139399976Y-75779570D02*
X137262472Y-73642066D01*
X134175954Y-74770000D02*
X134175954Y-76195000D01*
X101202910Y-120146956D02*
X103224395Y-120146956D01*
X114691903Y-113319021D02*
X115180642Y-113319021D01*
X104531560Y-120146956D02*
X107863968Y-120146956D01*
X137262472Y-73642066D02*
X135303888Y-73642066D01*
X99905954Y-109695000D02*
X99905954Y-118445954D01*
%TO.N,Net-(J1-Pad35)*%
X114369994Y-112619511D02*
X107542060Y-119447445D01*
X135445954Y-74500000D02*
X135604377Y-74341577D01*
X135604377Y-74341577D02*
X136972725Y-74341577D01*
X138700465Y-76069317D02*
X138700463Y-88809943D01*
X107542060Y-119447445D02*
X106107445Y-119447445D01*
X136972725Y-74341577D02*
X138700465Y-76069317D01*
X106180000Y-119120000D02*
X106180000Y-119374890D01*
X104241813Y-119447445D02*
X104167725Y-119521533D01*
X114890894Y-112619511D02*
X114369994Y-112619511D01*
X104167725Y-119521533D02*
X103588229Y-119521533D01*
X101175954Y-117109258D02*
X101175954Y-109695000D01*
X106180000Y-119374890D02*
X106107445Y-119447445D01*
X106107445Y-119447445D02*
X104241813Y-119447445D01*
X135445954Y-76195000D02*
X135445954Y-74500000D01*
X103588229Y-119521533D02*
X101175954Y-117109258D01*
X138700463Y-88809943D02*
X114890894Y-112619511D01*
%TO.N,Net-(J1-Pad36)*%
X102445954Y-109695000D02*
X102445954Y-113385954D01*
X107480000Y-118420000D02*
X113980000Y-111920000D01*
X138000953Y-88520195D02*
X138000954Y-77480000D01*
X113980000Y-111920000D02*
X114601148Y-111920000D01*
X107180000Y-118120000D02*
X106680000Y-117620000D01*
X107380000Y-118120000D02*
X107180000Y-118120000D01*
X114601148Y-111920000D02*
X138000953Y-88520195D01*
X106680000Y-117620000D02*
X107480000Y-118420000D01*
X138000954Y-77480000D02*
X136715954Y-76195000D01*
X102445954Y-113385954D02*
X106680000Y-117620000D01*
%TO.N,Net-(J2-Pad1)*%
X74030489Y-33739511D02*
X74030489Y-51645489D01*
X75880000Y-31890000D02*
X74030489Y-33739511D01*
X170880000Y-34146000D02*
X168624000Y-31890000D01*
X168624000Y-31890000D02*
X75880000Y-31890000D01*
X74030489Y-51645489D02*
X75380000Y-52995000D01*
%TO.N,/WE_F*%
X62180000Y-56920000D02*
X62180000Y-47175000D01*
X60180000Y-65920000D02*
X60180000Y-58920000D01*
X62180000Y-47175000D02*
X60380000Y-45375000D01*
X52950954Y-79595000D02*
X53000954Y-79545000D01*
X60180000Y-58920000D02*
X62180000Y-56920000D01*
X52950954Y-90620000D02*
X52950954Y-79595000D01*
%TO.N,/WE_R*%
X60380000Y-52995000D02*
X58980497Y-54394503D01*
X50950954Y-79595000D02*
X51000954Y-79545000D01*
X50950954Y-90620000D02*
X50950954Y-79595000D01*
X58980497Y-54394503D02*
X58980497Y-65920000D01*
%TO.N,Net-(R1-Pad2)*%
X189177011Y-97848117D02*
X189177011Y-95939619D01*
X195180000Y-89936630D02*
X195180000Y-83892628D01*
X180641202Y-73920000D02*
X178340364Y-73920000D01*
X174580000Y-75580302D02*
X174580000Y-79920000D01*
X189177011Y-95939619D02*
X195180000Y-89936630D01*
X187827500Y-99197628D02*
X189177011Y-97848117D01*
X178340364Y-73920000D02*
X178173654Y-74086710D01*
X176339544Y-73820758D02*
X174580000Y-75580302D01*
X178173654Y-74086710D02*
X177387060Y-74086710D01*
X187827500Y-99197628D02*
X185101627Y-99197628D01*
X177121108Y-73820758D02*
X176339544Y-73820758D01*
X184043635Y-98139636D02*
X184043635Y-77322433D01*
X185101627Y-99197628D02*
X184043635Y-98139636D01*
X177387060Y-74086710D02*
X177121108Y-73820758D01*
X184043635Y-77322433D02*
X180641202Y-73920000D01*
%TO.N,Net-(R2-Pad2)*%
X187827500Y-96299872D02*
X192180000Y-91947372D01*
X192180000Y-91947372D02*
X192180000Y-83892628D01*
X187827500Y-96657628D02*
X187827500Y-96299872D01*
%TO.N,Net-(R3-Pad2)*%
X187827500Y-94117628D02*
X187827500Y-93545128D01*
X169030996Y-78669998D02*
X168780994Y-78920000D01*
X189180000Y-92765128D02*
X189180000Y-83892628D01*
X187827500Y-94117628D02*
X189180000Y-92765128D01*
X169030996Y-77069004D02*
X169030996Y-78669998D01*
X169180000Y-76920000D02*
X169030996Y-77069004D01*
%TO.N,Net-(R4-Pad2)*%
X168180000Y-75920000D02*
X167470000Y-76630000D01*
X187827500Y-85545128D02*
X186180000Y-83897628D01*
X167470000Y-76630000D02*
X167470000Y-80210000D01*
X167470000Y-80210000D02*
X168180000Y-80920000D01*
X187827500Y-91577628D02*
X187827500Y-85545128D01*
%TO.N,Net-(R7-Pad2)*%
X186680000Y-122397628D02*
X186680000Y-116345128D01*
X184180000Y-106920000D02*
X184180001Y-104019500D01*
X186680000Y-116345128D02*
X187827500Y-115197628D01*
X174380000Y-102120000D02*
X174180000Y-101920000D01*
X174380000Y-105295000D02*
X174380000Y-102120000D01*
%TO.N,Net-(R8-Pad2)*%
X189230499Y-121948127D02*
X189230499Y-114060627D01*
X189230499Y-114060627D02*
X187827500Y-112657628D01*
X189680000Y-122397628D02*
X189230499Y-121948127D01*
%TO.N,Net-(U4-Pad6)*%
X157380000Y-92620000D02*
X154180000Y-89420000D01*
X154180000Y-76119503D02*
X153980497Y-75920000D01*
X154180000Y-89420000D02*
X154180000Y-76119503D01*
%TO.N,Net-(U4-Pad11)*%
X174901897Y-53869501D02*
X172140243Y-53869501D01*
X177538987Y-51955489D02*
X175144511Y-51955489D01*
X178329511Y-52746013D02*
X177538987Y-51955489D01*
X162180000Y-79920000D02*
X162180000Y-75920000D01*
X172140243Y-53869501D02*
X170190742Y-51920000D01*
X175129501Y-53641897D02*
X174901897Y-53869501D01*
X170190742Y-51920000D02*
X163180000Y-51920000D01*
X175129501Y-51970499D02*
X175129501Y-53641897D01*
X182360000Y-58385000D02*
X178329511Y-54354511D01*
X162180000Y-52920000D02*
X162180000Y-74019500D01*
X163180000Y-51920000D02*
X162180000Y-52920000D01*
X175144511Y-51955489D02*
X175129501Y-51970499D01*
X178329511Y-54354511D02*
X178329511Y-52746013D01*
%TO.N,Net-(U4-Pad3)*%
X156379503Y-76063295D02*
X156379503Y-75920000D01*
X155879511Y-83499511D02*
X155879511Y-76563287D01*
X157380000Y-85000000D02*
X155879511Y-83499511D01*
X155879511Y-76563287D02*
X156379503Y-76063295D01*
%TO.N,Net-(U4-Pad8)*%
X161129501Y-73069999D02*
X160180000Y-74019500D01*
X164388170Y-49268034D02*
X161129501Y-52526703D01*
X173692149Y-49018044D02*
X173442158Y-49268034D01*
X165000000Y-95160000D02*
X165000000Y-94740000D01*
X176278044Y-49018044D02*
X173692149Y-49018044D01*
X160180000Y-79920000D02*
X160180000Y-75920000D01*
X182360000Y-55845000D02*
X181228630Y-55845000D01*
X165000000Y-94740000D02*
X163180000Y-92920000D01*
X179180000Y-53796370D02*
X179180000Y-51920000D01*
X161129501Y-52526703D02*
X161129501Y-73069999D01*
X173442158Y-49268034D02*
X172738399Y-49268033D01*
X179180000Y-51920000D02*
X176278044Y-49018044D01*
X172738399Y-49268033D02*
X164388170Y-49268034D01*
X181228630Y-55845000D02*
X179180000Y-53796370D01*
%TO.N,Net-(U5-Pad6)*%
X176061341Y-81706605D02*
X176061341Y-75441863D01*
X176061341Y-75441863D02*
X176730540Y-74772664D01*
X177538484Y-71925501D02*
X176616326Y-72847659D01*
X189980000Y-66005000D02*
X187296390Y-66005000D01*
X187296390Y-66005000D02*
X181375889Y-71925501D01*
X181375889Y-71925501D02*
X177538484Y-71925501D01*
%TO.N,Net-(U5-Pad3)*%
X185745648Y-68545000D02*
X181286256Y-73004392D01*
X181286256Y-73004392D02*
X177913174Y-73004392D01*
X189980000Y-68545000D02*
X185745648Y-68545000D01*
X177070489Y-75880783D02*
X177915062Y-75036210D01*
X174580000Y-85000000D02*
X174580000Y-84530742D01*
X174580000Y-84530742D02*
X177070489Y-82040253D01*
X177913174Y-73004392D02*
X177780357Y-73137209D01*
X177070489Y-82040253D02*
X177070489Y-75880783D01*
%TO.N,Net-(U6-Pad10)*%
X157715000Y-56920000D02*
X156360000Y-58275000D01*
X156360000Y-58275000D02*
X156360000Y-58385000D01*
X159180000Y-56920000D02*
X157715000Y-56920000D01*
%TO.N,Net-(U6-Pad3)*%
X188180000Y-43920000D02*
X162180000Y-43920000D01*
X152480979Y-69220979D02*
X152480979Y-48619021D01*
X150180000Y-40389079D02*
X149967859Y-40176938D01*
X158180000Y-39920000D02*
X154181500Y-39920000D01*
X162180000Y-43920000D02*
X158180000Y-39920000D01*
X152480979Y-48619021D02*
X153180000Y-47920000D01*
X188180000Y-51133092D02*
X188129500Y-51183592D01*
X188180000Y-47885570D02*
X188180000Y-51133092D01*
X155180000Y-70920000D02*
X154180000Y-70920000D01*
X154181500Y-39920000D02*
X154180000Y-39921500D01*
X150180000Y-42920000D02*
X150180000Y-40389079D01*
X154180000Y-70920000D02*
X152480979Y-69220979D01*
%TO.N,Net-(U11-Pad3)*%
X110825954Y-88745000D02*
X108950954Y-90620000D01*
X110825954Y-85695000D02*
X110825954Y-88745000D01*
X127825954Y-85695000D02*
X127825954Y-93120000D01*
X127825954Y-93120000D02*
X124172352Y-96773602D01*
X124172352Y-96773602D02*
X124172352Y-97116398D01*
%TO.N,Net-(U11-Pad8)*%
X134000954Y-89945000D02*
X134175954Y-89770000D01*
X119010954Y-90620000D02*
X117175954Y-88785000D01*
X117175954Y-88785000D02*
X117175954Y-85695000D01*
X134175954Y-89770000D02*
X134175954Y-85695000D01*
%TO.N,Net-(U11-Pad9)*%
X135445954Y-87654046D02*
X135180000Y-87920000D01*
X135445954Y-85695000D02*
X135445954Y-87654046D01*
X118445954Y-88055000D02*
X118445954Y-85695000D01*
X121010954Y-90620000D02*
X118445954Y-88055000D01*
%TO.N,Net-(U11-Pad4)*%
X126172352Y-95773602D02*
X126172352Y-96116398D01*
X112095954Y-85695000D02*
X112095954Y-89475000D01*
X129095954Y-85695000D02*
X129095954Y-92850000D01*
X112095954Y-89475000D02*
X110950954Y-90620000D01*
X129095954Y-92850000D02*
X126172352Y-95773602D01*
%TO.N,Net-(U11-Pad5)*%
X113365954Y-90205000D02*
X112950954Y-90620000D01*
X128172352Y-94773602D02*
X128172352Y-95116398D01*
X130275287Y-92160604D02*
X130275288Y-92670666D01*
X130365954Y-85695000D02*
X130365954Y-92069936D01*
X130275288Y-92670666D02*
X128172352Y-94773602D01*
X130365954Y-92069936D02*
X130275287Y-92160604D01*
X113365954Y-85695000D02*
X113365954Y-90205000D01*
%TO.N,Net-(U11-Pad6)*%
X131635954Y-85695000D02*
X131635954Y-91889193D01*
X131013302Y-93275448D02*
X130172352Y-94116398D01*
X130974798Y-92450350D02*
X130974798Y-93236944D01*
X131531002Y-91894146D02*
X130974798Y-92450350D01*
X131631001Y-91894146D02*
X131531002Y-91894146D01*
X114635954Y-85695000D02*
X114635954Y-90305000D01*
X114635954Y-90305000D02*
X114950954Y-90620000D01*
X130974798Y-93236944D02*
X131013302Y-93275448D01*
X131635954Y-91889193D02*
X131631001Y-91894146D01*
%TO.N,Net-(U15-Pad3)*%
X172016313Y-51955816D02*
X172016313Y-50217533D01*
X204329511Y-62115489D02*
X204329511Y-51742713D01*
X172980497Y-52920000D02*
X172016313Y-51955816D01*
X172305349Y-45670010D02*
X172055359Y-45920000D01*
X198041797Y-45454999D02*
X194387630Y-45454999D01*
X204329511Y-51742713D02*
X198041797Y-45454999D01*
X193922629Y-45920000D02*
X182522798Y-45920000D01*
X202980000Y-63465000D02*
X204329511Y-62115489D01*
X182522798Y-45920000D02*
X182272808Y-45670010D01*
X182272808Y-45670010D02*
X172305349Y-45670010D01*
X194387630Y-45454999D02*
X193922629Y-45920000D01*
%TO.N,Net-(U15-Pad8)*%
X196775000Y-54720000D02*
X200630000Y-54720000D01*
X200122000Y-51672000D02*
X200122000Y-48878000D01*
X195360000Y-53305000D02*
X196775000Y-54720000D01*
%TO.N,Net-(U16-Pad6)*%
X195550000Y-47354000D02*
X193772000Y-47354000D01*
X193772000Y-47354000D02*
X193518000Y-47100000D01*
X198090000Y-49894000D02*
X195550000Y-47354000D01*
X183104000Y-34466498D02*
X181211295Y-34466498D01*
X199106000Y-66658000D02*
X199106000Y-58022000D01*
X181211295Y-34466498D02*
X181154175Y-34409378D01*
%TO.N,Net-(U17-Pad13)*%
X101175954Y-99141485D02*
X95279958Y-93245489D01*
X101175954Y-100195000D02*
X101175954Y-99141485D01*
X95279958Y-93245489D02*
X87576443Y-93245489D01*
X84175954Y-100195000D02*
X84175954Y-99074334D01*
X84175954Y-99074334D02*
X84072120Y-98970500D01*
X84026454Y-98970500D02*
X84072120Y-98970500D01*
X84000954Y-98945000D02*
X84026454Y-98970500D01*
X87576443Y-93245489D02*
X84950954Y-90620000D01*
%TO.N,Net-(U17-Pad12)*%
X102445954Y-99145000D02*
X95846933Y-92545979D01*
X88876933Y-92545979D02*
X86950954Y-90620000D01*
X95846933Y-92545979D02*
X88876933Y-92545979D01*
X102445954Y-100195000D02*
X102445954Y-99145000D01*
X85445954Y-100195000D02*
X85445954Y-99167068D01*
X85445954Y-99167068D02*
X85809868Y-98803154D01*
%TO.N,Net-(U17-Pad11)*%
X103715954Y-99145000D02*
X96415465Y-91844511D01*
X86715954Y-100195000D02*
X86715954Y-99230000D01*
X96415465Y-91844511D02*
X90175465Y-91844511D01*
X90175465Y-91844511D02*
X88950954Y-90620000D01*
X103715954Y-100195000D02*
X103715954Y-99145000D01*
%TO.N,Net-(U18-Pad3)*%
X54950954Y-90620000D02*
X54950954Y-79595000D01*
X62180000Y-65577204D02*
X62008602Y-65748602D01*
X54950954Y-79595000D02*
X55000954Y-79545000D01*
X62180000Y-58920000D02*
X62180000Y-65577204D01*
%TO.N,/~{WE1}*%
X123180000Y-94920000D02*
X123180000Y-84920000D01*
X95710000Y-56200000D02*
X104210000Y-56200000D01*
X175669198Y-37385511D02*
X170175658Y-37385510D01*
X192255000Y-39720000D02*
X190108012Y-37573012D01*
X159180000Y-48820500D02*
X159180000Y-53920000D01*
X110220340Y-81960340D02*
X124204395Y-81960340D01*
X42555954Y-95544046D02*
X46180000Y-91920000D01*
X178407589Y-37448000D02*
X177453338Y-38402251D01*
X104210000Y-56200000D02*
X104350000Y-56060000D01*
X109503915Y-39237759D02*
X109503915Y-38021488D01*
X107080000Y-53670000D02*
X107180000Y-53770000D01*
X120180000Y-99920000D02*
X120180000Y-97920000D01*
X120180000Y-97920000D02*
X123180000Y-94920000D01*
X176110540Y-37846047D02*
X176110540Y-37826853D01*
X159180000Y-53920000D02*
X160180000Y-54920000D01*
X169222148Y-36432000D02*
X157704000Y-36432000D01*
X170175658Y-37385510D02*
X169222148Y-36432000D01*
X105150000Y-53670000D02*
X107080000Y-53670000D01*
X160180000Y-59920000D02*
X156635000Y-63465000D01*
X181286945Y-37448000D02*
X178407589Y-37448000D01*
X76555954Y-100749502D02*
X76385456Y-100920000D01*
X108521185Y-40220489D02*
X109503915Y-39237759D01*
X160180000Y-54920000D02*
X160180000Y-59920000D01*
X107180000Y-78920000D02*
X110220340Y-81960340D01*
X76555954Y-100195000D02*
X76555954Y-100749502D01*
X156635000Y-63465000D02*
X156360000Y-63465000D01*
X176110540Y-37826853D02*
X175669198Y-37385511D01*
X190108012Y-37573012D02*
X181411955Y-37573011D01*
X181411955Y-37573011D02*
X181286945Y-37448000D01*
X177453338Y-38402251D02*
X176666744Y-38402251D01*
X42555954Y-100195000D02*
X42555954Y-95544046D01*
X176666744Y-38402251D02*
X176110540Y-37846047D01*
%TO.N,/~{WE2}*%
X184635000Y-39720000D02*
X183187522Y-38272522D01*
X175485235Y-38210000D02*
X161006000Y-38210000D01*
X155672000Y-38972000D02*
X152878000Y-38972000D01*
X153830000Y-42920000D02*
X152180000Y-42920000D01*
X158180000Y-52920000D02*
X158180000Y-47270000D01*
X95720000Y-39770000D02*
X104929002Y-39770000D01*
X105980497Y-79720497D02*
X105980497Y-78920000D01*
X123180000Y-82920000D02*
X109180000Y-82920000D01*
X155926000Y-38718000D02*
X155672000Y-38972000D01*
X122235465Y-85242876D02*
X121982539Y-84989950D01*
X59555954Y-100090498D02*
X59385456Y-99920000D01*
X119180000Y-98920000D02*
X119180000Y-97930743D01*
X122235465Y-94875278D02*
X122235465Y-85242876D01*
X158180000Y-47270000D02*
X153830000Y-42920000D01*
X183187522Y-38272522D02*
X178572324Y-38272522D01*
X109180000Y-82920000D02*
X105980497Y-79720497D01*
X122180000Y-84920000D02*
X122052489Y-84920000D01*
X177743084Y-39101762D02*
X176376996Y-39101761D01*
X122052489Y-84920000D02*
X121982539Y-84989950D01*
X176376996Y-39101761D02*
X175485235Y-38210000D01*
X104929002Y-39770000D02*
X106129501Y-40970499D01*
X119180000Y-97930743D02*
X122235465Y-94875278D01*
X178572324Y-38272522D02*
X177743084Y-39101762D01*
X59555954Y-100195000D02*
X59555954Y-100090498D01*
%TO.N,/~{RE1}*%
X150974988Y-39655043D02*
X150974989Y-39075739D01*
X105299501Y-55666703D02*
X105299501Y-56489756D01*
X130180000Y-42920000D02*
X126637699Y-42920000D01*
X86180000Y-88920000D02*
X75180000Y-88920000D01*
X130180000Y-42356870D02*
X130180000Y-42920000D01*
X144610703Y-40937501D02*
X144256712Y-40583510D01*
X150974989Y-39075739D02*
X150793289Y-38894039D01*
X183180000Y-49920000D02*
X180579022Y-47319022D01*
X185758003Y-33516997D02*
X187175000Y-32100000D01*
X130224311Y-41525965D02*
X130224311Y-42312559D01*
X179640123Y-33459877D02*
X181547472Y-33459877D01*
X88180000Y-80920000D02*
X88180000Y-86920000D01*
X107470388Y-41961668D02*
X107470388Y-48002410D01*
X164074774Y-47469022D02*
X163288180Y-47469022D01*
X95874501Y-50899501D02*
X104239757Y-50899501D01*
X103180000Y-78920000D02*
X90180000Y-78920000D01*
X131380000Y-44220000D02*
X130180000Y-43020000D01*
X104099746Y-54466948D02*
X105299501Y-55666703D01*
X130180000Y-43020000D02*
X130180000Y-42920000D01*
X75180000Y-88920000D02*
X74285954Y-88025954D01*
X152520262Y-40621012D02*
X151940955Y-40621011D01*
X95720000Y-50745000D02*
X95874501Y-50899501D01*
X181547472Y-33459877D02*
X181604594Y-33516999D01*
X130416490Y-40583510D02*
X130180000Y-40820000D01*
X107470388Y-48002410D02*
X104573297Y-50899501D01*
X179180000Y-33920000D02*
X179640123Y-33459877D01*
X130180000Y-41481654D02*
X130224311Y-41525965D01*
X107180000Y-82920000D02*
X103180000Y-78920000D01*
X104056838Y-75796838D02*
X104180000Y-75920000D01*
X158879511Y-47049531D02*
X158879511Y-46980261D01*
X172988393Y-47319022D02*
X172738402Y-47569012D01*
X130180000Y-40820000D02*
X130180000Y-41481654D01*
X163188190Y-47569012D02*
X159398992Y-47569012D01*
X144256712Y-40583510D02*
X130416490Y-40583510D01*
X180579022Y-47319022D02*
X172988393Y-47319022D01*
X126637699Y-42920000D02*
X125679367Y-41961668D01*
X88180000Y-86920000D02*
X86180000Y-88920000D01*
X104056838Y-57732419D02*
X104056838Y-75796838D01*
X104573297Y-50899501D02*
X104239757Y-50899501D01*
X147694759Y-38894039D02*
X145651297Y-40937501D01*
X104099746Y-51039512D02*
X104099746Y-54466948D01*
X182710701Y-33516999D02*
X182710703Y-33516997D01*
X104239757Y-50899501D02*
X104099746Y-51039512D01*
X125679367Y-41961668D02*
X107470388Y-41961668D01*
X181604594Y-33516999D02*
X182710701Y-33516999D01*
X150793289Y-38894039D02*
X147694759Y-38894039D01*
X164174764Y-47569012D02*
X164074774Y-47469022D01*
X105299501Y-56489756D02*
X104056838Y-57732419D01*
X182710703Y-33516997D02*
X185758003Y-33516997D01*
X130224311Y-42312559D02*
X130180000Y-42356870D01*
X151940955Y-40621011D02*
X150974988Y-39655043D01*
X159398992Y-47569012D02*
X158879511Y-47049531D01*
X163288180Y-47469022D02*
X163188190Y-47569012D01*
X90180000Y-78920000D02*
X88180000Y-80920000D01*
X158879511Y-46980261D02*
X152520262Y-40621012D01*
X172738402Y-47569012D02*
X164174764Y-47569012D01*
X145651297Y-40937501D02*
X144610703Y-40937501D01*
X74285954Y-88025954D02*
X74285954Y-85695000D01*
%TO.N,/~{RE2}*%
X181701703Y-36873501D02*
X181514202Y-36686000D01*
X152230703Y-39921501D02*
X151674499Y-39365297D01*
X180185725Y-46369521D02*
X179935735Y-46619511D01*
X125180000Y-79920002D02*
X123180000Y-77920002D01*
X177703511Y-36686000D02*
X177060041Y-37329470D01*
X121180000Y-75510024D02*
X112180000Y-66510024D01*
X159658019Y-46769511D02*
X152810009Y-39921501D01*
X181222309Y-46619511D02*
X180972319Y-46369521D01*
X121180000Y-75920000D02*
X121180000Y-75510024D01*
X95730000Y-45260000D02*
X99490000Y-45260000D01*
X121786703Y-38218023D02*
X119530988Y-35962308D01*
X180972319Y-46369521D02*
X180185725Y-46369521D01*
X164364520Y-46769511D02*
X159658019Y-46769511D01*
X107220000Y-51730000D02*
X109040000Y-49910000D01*
X125285954Y-85695000D02*
X125285954Y-85245000D01*
X181514202Y-36686000D02*
X177703511Y-36686000D01*
X145834798Y-35920000D02*
X145651297Y-35736499D01*
X181879511Y-46619511D02*
X181222309Y-46619511D01*
X164464511Y-46869501D02*
X164364520Y-46769511D01*
X181970000Y-46710000D02*
X181879511Y-46619511D01*
X123129511Y-37661809D02*
X122573297Y-38218023D01*
X151674499Y-38785991D02*
X148808508Y-35920000D01*
X112180000Y-61920000D02*
X112180000Y-42920000D01*
X123960954Y-83920000D02*
X125180000Y-82700954D01*
X125180000Y-82700954D02*
X125180000Y-79920002D01*
X99490000Y-45260000D02*
X104180000Y-49950000D01*
X148808508Y-35920000D02*
X145834798Y-35920000D01*
X112180000Y-66510024D02*
X112180000Y-61920000D01*
X145651297Y-35736499D02*
X144864703Y-35736499D01*
X105100000Y-51730000D02*
X107220000Y-51730000D01*
X119530988Y-35962308D02*
X116137692Y-35962308D01*
X125285954Y-85245000D02*
X123960954Y-83920000D01*
X172448656Y-46869501D02*
X164464511Y-46869501D01*
X144681202Y-35920000D02*
X123129511Y-35920000D01*
X185180000Y-49920000D02*
X181970000Y-46710000D01*
X190021499Y-36873501D02*
X181701703Y-36873501D01*
X151674499Y-39365297D02*
X151674499Y-38785991D01*
X122573297Y-38218023D02*
X121786703Y-38218023D01*
X144864703Y-35736499D02*
X144681202Y-35920000D01*
X194795000Y-32100000D02*
X190021499Y-36873501D01*
X172698646Y-46619511D02*
X172448656Y-46869501D01*
X177060041Y-37329470D02*
X177060041Y-37452750D01*
X123960954Y-83920000D02*
X99180000Y-83920000D01*
X123129511Y-35920000D02*
X123129511Y-37661809D01*
X152810009Y-39921501D02*
X152230703Y-39921501D01*
X116137692Y-35962308D02*
X112180000Y-39920000D01*
X179935735Y-46619511D02*
X172698646Y-46619511D01*
%TO.N,/WE1:0*%
X143705000Y-90795000D02*
X143705000Y-72445000D01*
X143705000Y-72445000D02*
X142180000Y-70920000D01*
X118180000Y-118920000D02*
X118380000Y-119120000D01*
X128180000Y-65920000D02*
X120180000Y-65920000D01*
X118180000Y-116320000D02*
X143705000Y-90795000D01*
X118180000Y-116320000D02*
X118180000Y-118920000D01*
%TO.N,/WE1:1*%
X127180000Y-64920000D02*
X119180000Y-64920000D01*
X144405489Y-71145489D02*
X144405489Y-91094511D01*
X119229259Y-116270741D02*
X119229259Y-118095371D01*
X116540000Y-54280000D02*
X115180000Y-54280000D01*
X118180000Y-55920000D02*
X116540000Y-54280000D01*
X118180000Y-63920000D02*
X118180000Y-55920000D01*
X119180000Y-64920000D02*
X118180000Y-63920000D01*
X144405489Y-91094511D02*
X119229259Y-116270741D01*
X143180000Y-69920000D02*
X144405489Y-71145489D01*
%TO.N,/WE1:2*%
X145105000Y-69845000D02*
X145105000Y-91395000D01*
X127180000Y-68920000D02*
X144180000Y-68920000D01*
X145105000Y-91395000D02*
X120329500Y-116170500D01*
X144180000Y-68920000D02*
X145105000Y-69845000D01*
X120329500Y-116170500D02*
X120329500Y-116791398D01*
%TO.N,/WE1:3*%
X122830499Y-120069501D02*
X123580000Y-119320000D01*
X116540826Y-118623624D02*
X117986703Y-120069501D01*
X116540826Y-118080826D02*
X116540826Y-118623624D01*
X117986703Y-120069501D02*
X122830499Y-120069501D01*
%TO.N,/WE2:2*%
X129180000Y-58120000D02*
X129180000Y-65920000D01*
X129480489Y-66220489D02*
X144480489Y-66220489D01*
X144480489Y-66220489D02*
X147205489Y-68945489D01*
X130777712Y-108922288D02*
X130777712Y-109254483D01*
X147205489Y-92494511D02*
X130777712Y-108922288D01*
X122800000Y-51740000D02*
X129180000Y-58120000D01*
X129180000Y-65920000D02*
X129480489Y-66220489D01*
X147205489Y-68945489D02*
X147205489Y-92494511D01*
%TO.N,/RE2:3*%
X177037204Y-122577204D02*
X177037202Y-122577205D01*
X183350954Y-129120000D02*
X183350954Y-128890954D01*
X170180000Y-112035000D02*
X170180000Y-122577204D01*
X177030385Y-122584022D02*
X170186818Y-122584022D01*
X170186818Y-122584022D02*
X170180000Y-122577204D01*
X183350954Y-128890954D02*
X177037204Y-122577204D01*
X174380000Y-107835000D02*
X170180000Y-112035000D01*
X177037202Y-122577205D02*
X177030385Y-122584022D01*
%TO.N,/RE1:2*%
X136490756Y-107960108D02*
X136490756Y-107960102D01*
X136490760Y-107960112D02*
X136490756Y-107960108D01*
X138165379Y-124926864D02*
X138125093Y-124926864D01*
X148180000Y-62920000D02*
X147230499Y-61970499D01*
X156648262Y-126020489D02*
X156049238Y-125421467D01*
X147230499Y-61970499D02*
X147230499Y-53869501D01*
X136128849Y-107577615D02*
X136055959Y-107483900D01*
X158380693Y-126020489D02*
X156648262Y-126020489D01*
X138176123Y-124926866D02*
X138165381Y-124926866D01*
X135010954Y-121761696D02*
X135010954Y-111337482D01*
X136488801Y-108040412D02*
X136490760Y-107960112D01*
X138070588Y-124906697D02*
X137968992Y-124914512D01*
X158480203Y-126119999D02*
X158380693Y-126020489D01*
X135010954Y-111337482D02*
X136477044Y-109871392D01*
X138094108Y-124926856D02*
X138070588Y-124906697D01*
X136477044Y-109871392D02*
X136477043Y-108592245D01*
X135826545Y-107188943D02*
X135746829Y-107178979D01*
X135746829Y-107178979D02*
X135734240Y-107165760D01*
X138125093Y-124926864D02*
X138125085Y-124926856D01*
X156049238Y-125421467D02*
X138670724Y-125421466D01*
X147230499Y-53869501D02*
X148180000Y-52920000D01*
X149306467Y-93593533D02*
X149306467Y-66703671D01*
X136538100Y-108103798D02*
X136488801Y-108040412D01*
X140620000Y-50920000D02*
X139000000Y-49300000D01*
X136477043Y-108592245D02*
X136538100Y-108103798D01*
X136477035Y-107925802D02*
X136477025Y-107925802D01*
X138670724Y-125421466D02*
X138176123Y-124926866D01*
X148180000Y-50920000D02*
X140620000Y-50920000D01*
X135826551Y-107188946D02*
X135826545Y-107188943D01*
X149306467Y-66703671D02*
X148351398Y-65748602D01*
X137968992Y-124914512D02*
X136195841Y-123141361D01*
X136477024Y-107925790D02*
X136128849Y-107577615D01*
X136490756Y-107960102D02*
X136477043Y-107945704D01*
X138165381Y-124926866D02*
X138165379Y-124926864D01*
X160030954Y-126120000D02*
X158480203Y-126119999D01*
X136477025Y-107925802D02*
X136477024Y-107925790D01*
X136195841Y-123141361D02*
X136195843Y-122946585D01*
X136055959Y-107483900D02*
X135826551Y-107188946D01*
X136477043Y-107925810D02*
X136477035Y-107925802D01*
X135734240Y-107165760D02*
X149306467Y-93593533D01*
X163030954Y-129120000D02*
X160030954Y-126120000D01*
X138125085Y-124926856D02*
X138094108Y-124926856D01*
X136477043Y-107945704D02*
X136477043Y-107925810D01*
X136195843Y-122946585D02*
X135010954Y-121761696D01*
%TO.N,/WE2:3*%
X170180000Y-92770997D02*
X170030997Y-92920000D01*
X170030996Y-91313297D02*
X170180000Y-91462301D01*
X170030996Y-87009004D02*
X170030996Y-91313297D01*
X170180000Y-91462301D02*
X170180000Y-92770997D01*
X174580000Y-82460000D02*
X170030996Y-87009004D01*
%TO.N,/WE2:4*%
X175711370Y-90080000D02*
X179379503Y-93748133D01*
X174580000Y-90080000D02*
X175711370Y-90080000D01*
X179379503Y-93748133D02*
X179379503Y-95920000D01*
%TO.N,Net-(J1-Pad65)*%
X69780000Y-126920000D02*
X69580000Y-126720000D01*
X63000000Y-63820000D02*
X63000000Y-66600000D01*
X161829011Y-123053972D02*
X157638772Y-123053972D01*
X29720000Y-76530000D02*
X29720000Y-109200000D01*
X58380000Y-126720000D02*
X58580000Y-126520000D01*
X47240000Y-126720000D02*
X58380000Y-126720000D01*
X39020000Y-67230000D02*
X29720000Y-76530000D01*
X191510954Y-127120000D02*
X190980000Y-127120000D01*
X119040000Y-123060000D02*
X115180000Y-126920000D01*
X139272135Y-121850581D02*
X139243883Y-121878833D01*
X127790590Y-122987794D02*
X127718384Y-123060000D01*
X29720000Y-109200000D02*
X47240000Y-126720000D01*
X115180000Y-126920000D02*
X69780000Y-126920000D01*
X193510954Y-129120000D02*
X191510954Y-127120000D01*
X71100000Y-55720000D02*
X63000000Y-63820000D01*
X157638772Y-123053972D02*
X156435381Y-121850581D01*
X75380000Y-50455000D02*
X75380000Y-47915000D01*
X63000000Y-66600000D02*
X62370000Y-67230000D01*
X62370000Y-67230000D02*
X39020000Y-67230000D01*
X127718384Y-123060000D02*
X119040000Y-123060000D01*
X156435381Y-121850581D02*
X139272135Y-121850581D01*
%TO.N,/WE2:1*%
X114280000Y-56820000D02*
X115180000Y-56820000D01*
X146505985Y-69245985D02*
X144180000Y-66920000D01*
X129580000Y-109320000D02*
X129580000Y-108920000D01*
X146505985Y-91994015D02*
X146505985Y-69245985D01*
X113180000Y-57920000D02*
X114280000Y-56820000D01*
X129580000Y-108920000D02*
X146505985Y-91994015D01*
X144180000Y-66920000D02*
X115180000Y-66920000D01*
X115180000Y-66920000D02*
X113180000Y-64920000D01*
X113180000Y-64920000D02*
X113180000Y-57920000D01*
%TO.N,/RE2:5*%
X184835907Y-126986650D02*
X177180000Y-119330743D01*
X186297604Y-126986650D02*
X184835907Y-126986650D01*
X177180000Y-119330743D02*
X177180000Y-116920000D01*
X188430954Y-129120000D02*
X186297604Y-126986650D01*
X177180000Y-116920000D02*
X178645000Y-115455000D01*
X178645000Y-115455000D02*
X182000000Y-115455000D01*
%TO.N,/WE1:6*%
X161180000Y-91920000D02*
X161180000Y-83920000D01*
X127408565Y-119948565D02*
X127408565Y-111502861D01*
X137630954Y-129120000D02*
X133830954Y-125320000D01*
X161180000Y-83920000D02*
X162640000Y-82460000D01*
X133830954Y-125320000D02*
X132780000Y-125320000D01*
X132780000Y-125320000D02*
X127408565Y-119948565D01*
X162640000Y-82460000D02*
X165000000Y-82460000D01*
%TO.N,/WE2:6*%
X132829991Y-110123549D02*
X133804939Y-109148602D01*
X133804939Y-109148602D02*
X133878521Y-109148603D01*
X153810954Y-127520000D02*
X137750460Y-127520000D01*
X133185780Y-123099101D02*
X132829991Y-122743312D01*
X155410954Y-129120000D02*
X153810954Y-127520000D01*
X132829991Y-122743312D02*
X132829991Y-110123549D01*
X133878521Y-109148603D02*
X134128522Y-108898602D01*
X137255850Y-127025390D02*
X137112067Y-127025388D01*
X133244695Y-123099101D02*
X133185780Y-123099101D01*
X152180000Y-75934258D02*
X153145257Y-74969001D01*
X151180000Y-102920000D02*
X152180000Y-101920000D01*
X152180000Y-101920000D02*
X152180000Y-75934258D01*
X137112067Y-127025388D02*
X133800899Y-123714220D01*
X133800899Y-123655305D02*
X133244695Y-123099101D01*
X133800899Y-123714220D02*
X133800899Y-123655305D01*
X153145257Y-74969001D02*
X167130999Y-74969001D01*
X137750460Y-127520000D02*
X137255850Y-127025390D01*
X167130999Y-74969001D02*
X167180000Y-74920000D01*
%TO.N,/RE2:4*%
X178648627Y-121877673D02*
X174945855Y-121877673D01*
X174945855Y-121877673D02*
X174945835Y-121877693D01*
X171180000Y-121884511D02*
X171180000Y-118655000D01*
X171180000Y-118655000D02*
X174380000Y-115455000D01*
X174945806Y-121877693D02*
X174938988Y-121884511D01*
X174938988Y-121884511D02*
X171180000Y-121884511D01*
X174945835Y-121877693D02*
X174945806Y-121877693D01*
X185890954Y-129120000D02*
X178648627Y-121877673D01*
%TO.N,/RE2:6*%
X178180000Y-119341485D02*
X178180000Y-117920000D01*
X190970954Y-129120000D02*
X188138093Y-126287139D01*
X188138093Y-126287139D02*
X185125654Y-126287139D01*
X185125654Y-126287139D02*
X178180000Y-119341485D01*
%TO.N,/RE2:0*%
X137176554Y-108635797D02*
X137233960Y-108176554D01*
X138305831Y-124187024D02*
X138305823Y-124187025D01*
X137233960Y-108176554D02*
X137268150Y-107903060D01*
X137197118Y-107687499D02*
X137197118Y-107687481D01*
X137152840Y-107612349D02*
X137150057Y-107578954D01*
X138465869Y-124227355D02*
X138455127Y-124227355D01*
X138455125Y-124227353D02*
X138414840Y-124227353D01*
X135749438Y-111588257D02*
X135911509Y-111426185D01*
X137197130Y-107687512D02*
X137197118Y-107687499D01*
X138960472Y-124721956D02*
X138465869Y-124227355D01*
X136639256Y-122400740D02*
X136485596Y-122247077D01*
X136485596Y-122247077D02*
X136485593Y-122247077D01*
X138455127Y-124227355D02*
X138455125Y-124227353D01*
X158769949Y-125420488D02*
X158670439Y-125320978D01*
X156338983Y-124721956D02*
X138960472Y-124721956D01*
X137197118Y-107687481D02*
X137190270Y-107680291D01*
X137190270Y-107680291D02*
X137190270Y-107670364D01*
X158670439Y-125320978D02*
X156938008Y-125320978D01*
X172031444Y-125420490D02*
X158769949Y-125420488D01*
X138305823Y-124187025D02*
X138305815Y-124187018D01*
X136951081Y-107410590D02*
X136720246Y-107179754D01*
X175730954Y-129120000D02*
X172031444Y-125420490D01*
X137176555Y-110161138D02*
X137176554Y-108635797D01*
X137190267Y-107670361D02*
X137190267Y-107670356D01*
X135911509Y-111426185D02*
X137176555Y-110161138D01*
X137150057Y-107578954D02*
X136951081Y-107410590D01*
X137190270Y-107670364D02*
X137190267Y-107670361D01*
X137268150Y-107903060D02*
X137268148Y-107903055D01*
X136720246Y-107179754D02*
X150005978Y-93894022D01*
X137176553Y-107636062D02*
X137152840Y-107612349D01*
X138414840Y-124227353D02*
X138414831Y-124227345D01*
X135180000Y-61920000D02*
X135180000Y-50920000D01*
X137190267Y-107670356D02*
X137176553Y-107656642D01*
X136895355Y-122851617D02*
X136895357Y-122656841D01*
X156938008Y-125320978D02*
X156338983Y-124721956D01*
X136485593Y-122247077D02*
X135749438Y-121510922D01*
X150005978Y-66060384D02*
X148744695Y-64799101D01*
X138236119Y-124192381D02*
X136895355Y-122851617D01*
X138414831Y-124227345D02*
X138352872Y-124227345D01*
X136884760Y-64799101D02*
X136056159Y-63970500D01*
X137268148Y-107903055D02*
X137194191Y-107807968D01*
X138352872Y-124227345D02*
X138305831Y-124187024D01*
X150005978Y-93894022D02*
X150005978Y-66060384D01*
X135180000Y-50920000D02*
X133560000Y-49300000D01*
X133560000Y-49300000D02*
X131380000Y-49300000D01*
X135749438Y-121510922D02*
X135749438Y-111588257D01*
X136895357Y-122656841D02*
X136639256Y-122400740D01*
X137194191Y-107807968D02*
X137197130Y-107687512D01*
X138305815Y-124187018D02*
X138236119Y-124192381D01*
X137176553Y-107656642D02*
X137176553Y-107636062D01*
X148744695Y-64799101D02*
X136884760Y-64799101D01*
%TO.N,/RE2:1*%
X137889780Y-107380616D02*
X137889778Y-107380614D01*
X138744873Y-123527844D02*
X138744871Y-123527842D01*
X138704577Y-123527834D02*
X138680785Y-123527834D01*
X139250218Y-124022444D02*
X138755623Y-123527849D01*
X137896629Y-107397735D02*
X137889781Y-107390887D01*
X137889777Y-107380608D02*
X137876063Y-107366895D01*
X137348457Y-63920000D02*
X136348457Y-62920000D01*
X138600847Y-123515683D02*
X138548390Y-123469783D01*
X138755615Y-123527844D02*
X138744873Y-123527844D01*
X137876063Y-107346314D02*
X137828655Y-107298906D01*
X137903478Y-107414857D02*
X137896629Y-107407666D01*
X137594868Y-122367099D02*
X137594867Y-122367093D01*
X138755620Y-123527849D02*
X138755615Y-123527844D01*
X136348457Y-62920000D02*
X134180000Y-62920000D01*
X150705489Y-65445489D02*
X149180000Y-63920000D01*
X157227754Y-124621467D02*
X156628729Y-124022445D01*
X137950007Y-108087831D02*
X138025239Y-107912290D01*
X138663002Y-123512027D02*
X138600847Y-123515683D01*
X137998200Y-107702324D02*
X137998194Y-107702316D01*
X137903477Y-107414890D02*
X137903478Y-107414857D01*
X137889778Y-107380614D02*
X137889777Y-107380608D01*
X137823088Y-107232115D02*
X137739019Y-107160981D01*
X137907662Y-107425954D02*
X137903345Y-107421277D01*
X138491817Y-123458821D02*
X137594869Y-122561873D01*
X137594869Y-122561873D02*
X137594871Y-122367102D01*
X137828655Y-107298906D02*
X137823088Y-107232115D01*
X138704585Y-123527842D02*
X138704577Y-123527834D01*
X173871933Y-124720979D02*
X159059697Y-124720978D01*
X137876063Y-107366895D02*
X137876063Y-107346314D01*
X134180000Y-62920000D02*
X134180000Y-57920000D01*
X137903345Y-107421277D02*
X137903500Y-107414914D01*
X138680785Y-123527834D02*
X138663002Y-123512027D01*
X138548390Y-123469783D02*
X138544237Y-123470060D01*
X137998194Y-107702316D02*
X137998195Y-107702306D01*
X138541055Y-123467353D02*
X138541039Y-123467339D01*
X138541077Y-123467351D02*
X138541055Y-123467353D01*
X137448940Y-122221165D02*
X137448940Y-110878012D01*
X134180000Y-57920000D02*
X133180000Y-56920000D01*
X137889781Y-107390887D02*
X137889780Y-107380616D01*
X138544237Y-123470060D02*
X138541077Y-123467351D01*
X138755623Y-123527849D02*
X138755620Y-123527849D01*
X133180000Y-56920000D02*
X131380000Y-56920000D01*
X138521803Y-123468819D02*
X138506576Y-123456976D01*
X149180000Y-63920000D02*
X137348457Y-63920000D01*
X156628729Y-124022445D02*
X139250218Y-124022444D01*
X137903500Y-107414914D02*
X137903477Y-107414890D01*
X137984640Y-107810793D02*
X137998200Y-107702324D01*
X137896629Y-107407666D02*
X137896629Y-107397735D01*
X150705489Y-94194511D02*
X150705489Y-65445489D01*
X159059697Y-124720978D02*
X158960185Y-124621467D01*
X178270954Y-129120000D02*
X173871933Y-124720979D01*
X137876066Y-110450884D02*
X137876064Y-108679352D01*
X138025239Y-107912290D02*
X137984640Y-107810793D01*
X137448940Y-110878012D02*
X137876066Y-110450884D01*
X137594867Y-122367093D02*
X137448940Y-122221165D01*
X137901577Y-107578083D02*
X137907662Y-107425954D01*
X158960185Y-124621467D02*
X157227754Y-124621467D01*
X138744871Y-123527842D02*
X138704585Y-123527842D01*
X138506576Y-123456976D02*
X138491817Y-123458821D01*
X137998195Y-107702306D02*
X137901577Y-107578083D01*
X137876064Y-108679352D02*
X137950007Y-108087831D01*
X138541039Y-123467339D02*
X138521803Y-123468819D01*
X137739019Y-107160981D02*
X150705489Y-94194511D01*
X137594871Y-122367102D02*
X137594868Y-122367099D01*
%TO.N,/RE2:2*%
X138148451Y-111167759D02*
X138575577Y-110740629D01*
X138994323Y-122828323D02*
X138946738Y-122828323D01*
X138776316Y-122747702D02*
X138776270Y-122747662D01*
X138786720Y-122752822D02*
X138783614Y-122750104D01*
X138723065Y-107483602D02*
X138610912Y-107346527D01*
X150129501Y-51869501D02*
X139029501Y-51869501D01*
X159349445Y-124021468D02*
X159231939Y-123903962D01*
X139034617Y-122828331D02*
X138994332Y-122828331D01*
X138790941Y-122752540D02*
X138786720Y-122752822D01*
X138946738Y-122828323D02*
X138911170Y-122796708D01*
X138294379Y-122077348D02*
X138294378Y-122077346D01*
X138727362Y-107508688D02*
X138728250Y-107501588D01*
X139034619Y-122828333D02*
X139034617Y-122828331D01*
X138783614Y-122750104D02*
X138779504Y-122750378D01*
X138911170Y-122796708D02*
X138845826Y-122800552D01*
X138294381Y-122077359D02*
X138294381Y-122077354D01*
X138728242Y-107501559D02*
X138722064Y-107493615D01*
X159231939Y-123903962D02*
X157499505Y-123903962D01*
X138790952Y-122752550D02*
X138790941Y-122752540D01*
X138768900Y-122746646D02*
X138294383Y-122272129D01*
X175712422Y-124021468D02*
X159349445Y-124021468D01*
X138248007Y-122030975D02*
X138237226Y-121966290D01*
X138294383Y-122272129D02*
X138294385Y-122077363D01*
X138845826Y-122800552D02*
X138790966Y-122752549D01*
X138779504Y-122750378D02*
X138776377Y-122747697D01*
X138575577Y-110740629D02*
X138575575Y-108722903D01*
X138790966Y-122752549D02*
X138790952Y-122752550D01*
X138728240Y-107501575D02*
X138728242Y-107501559D01*
X138237226Y-121966290D02*
X138148451Y-121902879D01*
X156918474Y-123322934D02*
X139539966Y-123322934D01*
X138782327Y-107921519D02*
X138702138Y-107721047D01*
X138294378Y-122077351D02*
X138294379Y-122077348D01*
X138702138Y-107721047D02*
X138731657Y-107514414D01*
X138610912Y-107346527D02*
X138613307Y-107286693D01*
X180810954Y-129120000D02*
X175712422Y-124021468D01*
X138782328Y-107921522D02*
X138782327Y-107921519D01*
X138776377Y-122747697D02*
X138776316Y-122747702D01*
X138728250Y-107501588D02*
X138728240Y-107501575D01*
X138148451Y-121902879D02*
X138148451Y-111167759D01*
X138722064Y-107493615D02*
X138723065Y-107483602D01*
X151405000Y-94495000D02*
X151405000Y-53145000D01*
X139045361Y-122828333D02*
X139034619Y-122828333D01*
X138731657Y-107514414D02*
X138727362Y-107508688D01*
X139029501Y-51869501D02*
X139000000Y-51840000D01*
X138575575Y-108722903D02*
X138631865Y-108272601D01*
X138613307Y-107286693D02*
X151405000Y-94495000D01*
X138770639Y-122748095D02*
X138768900Y-122746646D01*
X157499505Y-123903962D02*
X156918474Y-123322934D01*
X138994332Y-122828331D02*
X138994323Y-122828323D01*
X151405000Y-53145000D02*
X150129501Y-51869501D01*
X139539966Y-123322934D02*
X139045361Y-122828333D01*
X138294378Y-122077346D02*
X138248007Y-122030975D01*
X138294381Y-122077354D02*
X138294378Y-122077351D01*
X138294385Y-122077363D02*
X138294381Y-122077359D01*
X138631865Y-108272601D02*
X138782328Y-107921522D01*
X138776270Y-122747662D02*
X138770639Y-122748095D01*
%TO.N,/WE1:5*%
X135090954Y-129120000D02*
X135090954Y-128945360D01*
X160180000Y-94920000D02*
X160180000Y-94577202D01*
X160180000Y-94577202D02*
X164677202Y-90080000D01*
X126380000Y-120234406D02*
X126380000Y-112120000D01*
X135090954Y-128945360D02*
X126380000Y-120234406D01*
X164677202Y-90080000D02*
X165000000Y-90080000D01*
%TO.N,/RE1:6*%
X161180000Y-117920000D02*
X161180000Y-113920000D01*
%TO.N,/RE1:0*%
X134168258Y-109848118D02*
X134168263Y-109848113D01*
X137545602Y-126325884D02*
X137545598Y-126325880D01*
X133180000Y-42920000D02*
X133480489Y-42619511D01*
X134521821Y-107949103D02*
X134360667Y-107949104D01*
X133529501Y-107943371D02*
X133529501Y-107370499D01*
X135078022Y-109291900D02*
X135078023Y-108505315D01*
X134500409Y-123365557D02*
X133534441Y-122399590D01*
X147905000Y-92995000D02*
X147905000Y-68302204D01*
X131380000Y-46760000D02*
X133180000Y-44960000D01*
X133180000Y-44960000D02*
X133180000Y-42920000D01*
X137545598Y-126325880D02*
X137401822Y-126325880D01*
X133534441Y-122399590D02*
X133529501Y-122399591D01*
X135078003Y-108505294D02*
X135078004Y-108505286D01*
X155469746Y-126820489D02*
X138080489Y-126820489D01*
X157769257Y-129120000D02*
X155469746Y-126820489D01*
X133480489Y-42619511D02*
X140222309Y-42619511D01*
X157950954Y-129120000D02*
X157769257Y-129120000D01*
X134168269Y-109848113D02*
X134168279Y-109848103D01*
X133535221Y-107949091D02*
X133529501Y-107943371D01*
X140222309Y-42619511D02*
X146180000Y-48577202D01*
X133529501Y-122399591D02*
X133529501Y-110413297D01*
X134168263Y-109848113D02*
X134168269Y-109848113D01*
X133529501Y-110413297D02*
X134094681Y-109848117D01*
X147905000Y-68302204D02*
X146351398Y-66748602D01*
X133529501Y-107370499D02*
X147905000Y-92995000D01*
X137585885Y-126325885D02*
X137545602Y-126325884D01*
X146180000Y-48577202D02*
X146180000Y-49920000D01*
X134321833Y-107949101D02*
X134321823Y-107949091D01*
X134321823Y-107949091D02*
X133535221Y-107949091D01*
X135078004Y-108505286D02*
X134521821Y-107949103D01*
X137401822Y-126325880D02*
X134500410Y-123424468D01*
X134521818Y-109848103D02*
X135078022Y-109291900D01*
X146180000Y-62920000D02*
X146180000Y-52920000D01*
X134500410Y-123424468D02*
X134500409Y-123365557D01*
X134094681Y-109848117D02*
X134168258Y-109848118D01*
X134360664Y-107949101D02*
X134321833Y-107949101D01*
X138080489Y-126820489D02*
X137585885Y-126325885D01*
X134168279Y-109848103D02*
X134521818Y-109848103D01*
X135078023Y-108505315D02*
X135078003Y-108505294D01*
X134360667Y-107949104D02*
X134360664Y-107949101D01*
%TO.N,/WE2:5*%
X185180000Y-97559475D02*
X184993136Y-97746339D01*
X185180000Y-90920000D02*
X185180000Y-97559475D01*
%TO.N,/WE2:0*%
X145806467Y-69546467D02*
X145806467Y-91693533D01*
X144180000Y-67920000D02*
X145806467Y-69546467D01*
X132851398Y-123812884D02*
X132851398Y-124048602D01*
X145806467Y-91693533D02*
X128580000Y-108920000D01*
X128580000Y-108920000D02*
X128580000Y-119541486D01*
X118180000Y-67920000D02*
X144180000Y-67920000D01*
X128580000Y-119541486D02*
X132851398Y-123812884D01*
%TO.N,/RE1:1*%
X135221330Y-107659356D02*
X135221330Y-107659353D01*
X135784390Y-108232710D02*
X135777533Y-108225510D01*
X133063696Y-63803696D02*
X133063696Y-58761375D01*
X135199919Y-123075809D02*
X135199915Y-123075805D01*
X135777533Y-109581646D02*
X135777533Y-108548690D01*
X158090947Y-126720000D02*
X156358514Y-126720000D01*
X158190455Y-126819509D02*
X158090947Y-126720000D01*
X155759492Y-126120978D02*
X138380978Y-126120978D01*
X135777514Y-108215548D02*
X135777514Y-108215538D01*
X135777533Y-108548690D02*
X135808052Y-108304541D01*
X135199915Y-123075805D02*
X135199915Y-123075799D01*
X138380978Y-126120978D02*
X137886377Y-125626377D01*
X135808052Y-108304541D02*
X135783411Y-108272859D01*
X146780979Y-65520979D02*
X134780978Y-65520978D01*
X148606956Y-67346956D02*
X146780979Y-65520979D01*
X148606956Y-93293044D02*
X148606956Y-67346956D01*
X135374789Y-107812815D02*
X135221330Y-107659356D01*
X137835344Y-125626369D02*
X137691574Y-125626370D01*
X156358514Y-126720000D02*
X155759492Y-126120978D01*
X134250409Y-122126300D02*
X134250409Y-110908785D01*
X135603424Y-108041448D02*
X135452277Y-107847116D01*
X135221330Y-107659353D02*
X134811563Y-107249590D01*
X134811563Y-107249590D02*
X134650409Y-107249591D01*
X135777514Y-108215538D02*
X135603424Y-108041448D01*
X137886377Y-125626377D02*
X137875635Y-125626377D01*
X135452277Y-107847116D02*
X135412411Y-107842133D01*
X158190464Y-126819510D02*
X158190455Y-126819509D01*
X137691574Y-125626370D02*
X135199919Y-123134715D01*
X135783411Y-108272859D02*
X135784390Y-108232710D01*
X134250409Y-110908785D02*
X134611580Y-110547614D01*
X134650409Y-107249591D02*
X148606956Y-93293044D01*
X134811566Y-110547613D02*
X135777533Y-109581646D01*
X135020481Y-122896371D02*
X134250409Y-122126300D01*
X137875633Y-125626375D02*
X137835351Y-125626375D01*
X135777533Y-108215567D02*
X135777514Y-108215548D01*
X134780978Y-65520978D02*
X133063696Y-63803696D01*
X137875635Y-125626377D02*
X137875633Y-125626375D01*
X135412411Y-107842133D02*
X135384720Y-107813057D01*
X135199915Y-123075799D02*
X135020481Y-122896371D01*
X137835351Y-125626375D02*
X137835344Y-125626369D01*
X135384720Y-107813057D02*
X135374789Y-107812815D01*
X134611580Y-110547614D02*
X134811566Y-110547613D01*
X135777533Y-108225510D02*
X135777533Y-108215567D01*
X160490954Y-129120000D02*
X158190464Y-126819510D01*
X135199919Y-123134715D02*
X135199919Y-123075809D01*
%TO.N,/~{SUP}*%
X168880000Y-35100594D02*
X170465406Y-36686000D01*
X176500000Y-36686000D02*
X177262000Y-35924000D01*
X170465406Y-36686000D02*
X176500000Y-36686000D01*
X168880000Y-34146000D02*
X168880000Y-35100594D01*
X177262000Y-35924000D02*
X182095000Y-35924000D01*
%TO.N,Net-(R9-Pad2)*%
X186477989Y-111467139D02*
X187827500Y-110117628D01*
X186477989Y-113517011D02*
X186477989Y-111467139D01*
X193129501Y-121948127D02*
X193129501Y-111526703D01*
X192680000Y-122397628D02*
X193129501Y-121948127D01*
X191720426Y-110117628D02*
X187827500Y-110117628D01*
X182000000Y-117995000D02*
X186477989Y-113517011D01*
X193129501Y-111526703D02*
X191720426Y-110117628D01*
%TO.N,Net-(R10-Pad2)*%
X185030128Y-110375000D02*
X182000000Y-110375000D01*
X195680000Y-122397628D02*
X193829011Y-120546639D01*
X193829011Y-111236955D02*
X190169684Y-107577628D01*
X187827500Y-107577628D02*
X185030128Y-110375000D01*
X193829011Y-120546639D02*
X193829011Y-111236955D01*
X190169684Y-107577628D02*
X187827500Y-107577628D01*
X165000000Y-110375000D02*
X168180000Y-113555000D01*
X168180000Y-113555000D02*
X168180000Y-121970500D01*
%TO.N,Net-(U2-Pad1)*%
X128180000Y-37920000D02*
X128180000Y-41823947D01*
X38950954Y-90620000D02*
X38950954Y-79683713D01*
X129180000Y-36920000D02*
X128180000Y-37920000D01*
X38950954Y-79683713D02*
X39091476Y-79543191D01*
X128180000Y-41823947D02*
X128075344Y-41928603D01*
%TO.N,Net-(U2-Pad2)*%
X127030996Y-37770996D02*
X127030996Y-41669998D01*
X40950954Y-90620000D02*
X40950954Y-79495000D01*
X127030996Y-41669998D02*
X126880745Y-41820249D01*
X126180000Y-36920000D02*
X127030996Y-37770996D01*
X40950954Y-79495000D02*
X41000954Y-79445000D01*
%TO.N,Net-(U2-Pad3)*%
X42950954Y-90620000D02*
X42950954Y-79795000D01*
X136180000Y-50920000D02*
X134180000Y-48920000D01*
X136180000Y-51560000D02*
X136180000Y-50920000D01*
X102180000Y-45920000D02*
X106180000Y-41920000D01*
X125063782Y-41169990D02*
X125221605Y-41012167D01*
X42950954Y-79795000D02*
X43200954Y-79545000D01*
X106522798Y-41920000D02*
X107079002Y-41363796D01*
X139000000Y-54380000D02*
X136180000Y-51560000D01*
X107079002Y-41363796D02*
X107079002Y-41169990D01*
X107079002Y-41169990D02*
X125063782Y-41169990D01*
X106180000Y-41920000D02*
X106522798Y-41920000D01*
X134180000Y-48920000D02*
X134180000Y-43920000D01*
%TO.N,Net-(U2-Pad4)*%
X44950954Y-79595000D02*
X45000954Y-79545000D01*
X108180000Y-66920000D02*
X107180000Y-66920000D01*
X107180000Y-66920000D02*
X106180000Y-66920000D01*
X44950954Y-90620000D02*
X44950954Y-79595000D01*
X106180000Y-66920000D02*
X105180000Y-65920000D01*
%TO.N,Net-(U2-Pad5)*%
X46950954Y-90620000D02*
X46950954Y-79595000D01*
X106018978Y-68119503D02*
X105006339Y-67106864D01*
X46950954Y-79595000D02*
X47000954Y-79545000D01*
X108180000Y-68119503D02*
X106018978Y-68119503D01*
%TO.N,Net-(U2-Pad6)*%
X48950954Y-79595000D02*
X48800954Y-79445000D01*
X70180000Y-63820500D02*
X65407044Y-63820500D01*
X48950954Y-90620000D02*
X48950954Y-79595000D01*
X117145427Y-37270990D02*
X117145427Y-40069484D01*
X117145427Y-40069484D02*
X117180000Y-40104057D01*
X65407044Y-63820500D02*
X64180000Y-65047544D01*
%TO.N,Net-(U18-Pad8)*%
X68279500Y-66920000D02*
X68180000Y-67019500D01*
X83000000Y-55535000D02*
X83000000Y-65100000D01*
X56950954Y-79595000D02*
X57000954Y-79545000D01*
X56950954Y-90620000D02*
X56950954Y-79595000D01*
X81180000Y-66920000D02*
X68279500Y-66920000D01*
X83000000Y-65100000D02*
X81180000Y-66920000D01*
%TO.N,Net-(U14-Pad18)*%
X43825954Y-100195000D02*
X43825954Y-95263304D01*
X58000954Y-92945000D02*
X59000954Y-91945000D01*
X58950954Y-91895000D02*
X58950954Y-90620000D01*
X60825954Y-100195000D02*
X60825954Y-93770000D01*
X46144258Y-92945000D02*
X58000954Y-92945000D01*
X43825954Y-95263304D02*
X46144258Y-92945000D01*
X60825954Y-93770000D02*
X59000954Y-91945000D01*
X59000954Y-91945000D02*
X58950954Y-91895000D01*
%TO.N,Net-(U14-Pad17)*%
X60950954Y-90895000D02*
X60950954Y-90620000D01*
X62095954Y-92040000D02*
X60950954Y-90895000D01*
X62095954Y-100195000D02*
X62095954Y-92040000D01*
X45095954Y-95336100D02*
X46244004Y-94188050D01*
X45095954Y-100195000D02*
X45095954Y-95336100D01*
%TO.N,Net-(U14-Pad16)*%
X63365954Y-91035000D02*
X62950954Y-90620000D01*
X46365954Y-95408898D02*
X47605617Y-94169235D01*
X46365954Y-100195000D02*
X46365954Y-95408898D01*
X63365954Y-100195000D02*
X63365954Y-91035000D01*
%TO.N,Net-(U14-Pad15)*%
X47635954Y-95754433D02*
X48154705Y-95235682D01*
X47635954Y-100195000D02*
X47635954Y-95754433D01*
X64635954Y-90935000D02*
X64950954Y-90620000D01*
X64635954Y-100195000D02*
X64635954Y-90935000D01*
%TO.N,Net-(U14-Pad14)*%
X48905954Y-100195000D02*
X48905954Y-96040000D01*
X65905954Y-91665000D02*
X66950954Y-90620000D01*
X48905954Y-96040000D02*
X50000954Y-94945000D01*
X65905954Y-93850000D02*
X65905954Y-91665000D01*
X65905954Y-100195000D02*
X65905954Y-93850000D01*
%TO.N,Net-(U14-Pad13)*%
X67175954Y-92395000D02*
X68950954Y-90620000D01*
X50175954Y-100195000D02*
X50175954Y-96770000D01*
X50175954Y-96770000D02*
X51000954Y-95945000D01*
X67175954Y-95120000D02*
X67175954Y-92395000D01*
X67175954Y-100195000D02*
X67175954Y-95120000D01*
%TO.N,Net-(U14-Pad12)*%
X51445954Y-100195000D02*
X51445954Y-97500000D01*
X68445954Y-100195000D02*
X68445954Y-96390000D01*
X68445954Y-96390000D02*
X68445954Y-93125000D01*
X51445954Y-97500000D02*
X52000954Y-96945000D01*
X68445954Y-93125000D02*
X70950954Y-90620000D01*
%TO.N,Net-(U14-Pad11)*%
X69715954Y-100195000D02*
X69715954Y-93855000D01*
X52715954Y-100195000D02*
X52715954Y-98230000D01*
X52715954Y-98230000D02*
X53000954Y-97945000D01*
X69715954Y-93855000D02*
X72950954Y-90620000D01*
%TO.N,Net-(U17-Pad18)*%
X77825954Y-100195000D02*
X77825954Y-93495000D01*
X82184607Y-97853653D02*
X77138454Y-92807500D01*
X77825954Y-93495000D02*
X77138454Y-92807500D01*
X77138454Y-92807500D02*
X74950954Y-90620000D01*
X94825954Y-99145000D02*
X93534607Y-97853653D01*
X93534607Y-97853653D02*
X82184607Y-97853653D01*
X94825954Y-100195000D02*
X94825954Y-99145000D01*
%TO.N,Net-(U17-Pad17)*%
X79095954Y-99229910D02*
X78812778Y-98946734D01*
X79095954Y-100195000D02*
X79095954Y-99229910D01*
X79138454Y-92807500D02*
X76950954Y-90620000D01*
X83275954Y-96945000D02*
X79138454Y-92807500D01*
X95000954Y-96945000D02*
X83275954Y-96945000D01*
X96095954Y-100195000D02*
X96095954Y-98040000D01*
X96095954Y-98040000D02*
X95000954Y-96945000D01*
%TO.N,Net-(U17-Pad16)*%
X97365954Y-98310000D02*
X95000954Y-95945000D01*
X97365954Y-100195000D02*
X97365954Y-98310000D01*
X78950954Y-90895000D02*
X78950954Y-90620000D01*
X84000954Y-95945000D02*
X78950954Y-90895000D01*
X80365954Y-99289405D02*
X80012230Y-98935681D01*
X95000954Y-95945000D02*
X84000954Y-95945000D01*
X80365954Y-100195000D02*
X80365954Y-99289405D01*
%TO.N,Net-(U17-Pad15)*%
X95000954Y-94945000D02*
X85275954Y-94945000D01*
X98635954Y-98580000D02*
X95000954Y-94945000D01*
X81635954Y-98969146D02*
X81674005Y-98931095D01*
X85275954Y-94945000D02*
X80950954Y-90620000D01*
X81635954Y-100195000D02*
X81635954Y-98969146D01*
X98635954Y-100195000D02*
X98635954Y-98580000D01*
%TO.N,Net-(U17-Pad14)*%
X82905954Y-98957200D02*
X82873491Y-98924737D01*
X86275954Y-93945000D02*
X82950954Y-90620000D01*
X82905954Y-100195000D02*
X82905954Y-98957200D01*
X99905954Y-98860742D02*
X94990212Y-93945000D01*
X99905954Y-100195000D02*
X99905954Y-98860742D01*
X94990212Y-93945000D02*
X86275954Y-93945000D01*
%TO.N,Net-(U11-Pad7)*%
X132905954Y-91861992D02*
X131924299Y-92843647D01*
X132905954Y-85695000D02*
X132905954Y-91861992D01*
X115905954Y-85695000D02*
X115905954Y-89575000D01*
X115905954Y-89575000D02*
X116950954Y-90620000D01*
%TO.N,Net-(U11-Pad2)*%
X122000954Y-97945000D02*
X126555954Y-93390000D01*
X109555954Y-85695000D02*
X109555954Y-88015000D01*
X109555954Y-88015000D02*
X106950954Y-90620000D01*
X126555954Y-93390000D02*
X126555954Y-85695000D01*
%TO.N,Net-(U5-Pad8)*%
X179180000Y-75420000D02*
X179180000Y-74958182D01*
X177770000Y-82481832D02*
X177770000Y-76830000D01*
X177008602Y-83748602D02*
X177008602Y-83243230D01*
X177770000Y-76830000D02*
X179180000Y-75420000D01*
X177008602Y-83243230D02*
X177770000Y-82481832D01*
X179180000Y-74958182D02*
X179119027Y-74897209D01*
%TO.N,Net-(U5-Pad11)*%
X172978611Y-69920000D02*
X174034611Y-70976000D01*
X174034611Y-70976000D02*
X179294000Y-70976000D01*
X179850979Y-78801021D02*
X181326000Y-77326000D01*
X167180000Y-61585000D02*
X167180000Y-69920000D01*
X167180000Y-69920000D02*
X172978611Y-69920000D01*
X163980000Y-58385000D02*
X167180000Y-61585000D01*
X179080500Y-85920000D02*
X179850979Y-85149521D01*
X179850979Y-85149521D02*
X179850979Y-78801021D01*
%TO.N,Net-(U22-Pad1)*%
X158008602Y-41091398D02*
X158008602Y-42091398D01*
X156360000Y-53305000D02*
X156360000Y-49740000D01*
X163380000Y-39720000D02*
X163180000Y-39920000D01*
X179555000Y-39720000D02*
X178114104Y-39720000D01*
X158008602Y-42091398D02*
X157180000Y-42920000D01*
X157180000Y-48920000D02*
X157180000Y-47920000D01*
X155990000Y-46730000D02*
X155990000Y-46500000D01*
X178114104Y-39720000D02*
X178032830Y-39801273D01*
X176005976Y-39720000D02*
X163380000Y-39720000D01*
X157180000Y-47920000D02*
X155990000Y-46730000D01*
X178032830Y-39801273D02*
X176087247Y-39801271D01*
X156360000Y-49740000D02*
X157180000Y-48920000D01*
X176087247Y-39801271D02*
X176005976Y-39720000D01*
%TO.N,Net-(U6-Pad9)*%
X192180000Y-50705989D02*
X192180000Y-48019500D01*
X156360000Y-55845000D02*
X155010489Y-54495489D01*
X193180000Y-60265000D02*
X189980000Y-63465000D01*
X193180000Y-53920000D02*
X193180000Y-60265000D01*
X155010489Y-49079511D02*
X155440000Y-48650000D01*
X189963606Y-44920000D02*
X189979405Y-44904201D01*
X159180000Y-44920000D02*
X189963606Y-44920000D01*
X192180000Y-48019500D02*
X192080500Y-47920000D01*
X155010489Y-54495489D02*
X155010489Y-49079511D01*
%TO.N,Net-(U18-Pad1)*%
X148180000Y-57920000D02*
X148180000Y-56920000D01*
X142180000Y-47920000D02*
X141180000Y-46920000D01*
X141180000Y-41920000D02*
X131180000Y-41920000D01*
X129274810Y-38825190D02*
X129274810Y-41919262D01*
X131008602Y-37091398D02*
X129274810Y-38825190D01*
X143180000Y-43920000D02*
X141180000Y-41920000D01*
X141180000Y-46920000D02*
X141180000Y-44920000D01*
X150180000Y-59920000D02*
X148180000Y-57920000D01*
%TO.N,Net-(U7-Pad5)*%
X187440000Y-58385000D02*
X182360000Y-53305000D01*
X189980000Y-58385000D02*
X187440000Y-58385000D01*
%TO.N,Net-(U18-Pad10)*%
X83000000Y-52995000D02*
X83000000Y-50455000D01*
X155470798Y-36920000D02*
X156470798Y-37920000D01*
X85180000Y-48275000D02*
X83000000Y-50455000D01*
X182360000Y-60925000D02*
X185175000Y-60925000D01*
X151180000Y-36920000D02*
X155470798Y-36920000D01*
X164229500Y-42969500D02*
X180180000Y-42969500D01*
X86180000Y-32920000D02*
X85180000Y-33920000D01*
X85180000Y-33920000D02*
X85180000Y-48275000D01*
X187180000Y-49920000D02*
X184180000Y-46920000D01*
X159180000Y-37920000D02*
X164229500Y-42969500D01*
X185175000Y-60925000D02*
X186180000Y-59920000D01*
X187180000Y-51920000D02*
X187180000Y-49920000D01*
X156470798Y-37920000D02*
X159180000Y-37920000D01*
%TO.N,Net-(U22-Pad4)*%
X192180000Y-58045000D02*
X192180000Y-58920000D01*
X198156500Y-51805648D02*
X199129501Y-50832647D01*
X194180000Y-70920000D02*
X196180000Y-70920000D01*
X199129501Y-49253739D02*
X196276252Y-46400490D01*
X195514252Y-46400490D02*
X195260252Y-46654490D01*
X198156499Y-68943501D02*
X198156499Y-58202602D01*
X198156499Y-58202602D02*
X197908398Y-57954501D01*
X196276252Y-46400490D02*
X195514252Y-46400490D01*
X199129501Y-50832647D02*
X199129501Y-49253739D01*
X192180000Y-68920000D02*
X194180000Y-70920000D01*
X195030917Y-46654490D02*
X194780927Y-46404500D01*
X189980000Y-55845000D02*
X192180000Y-58045000D01*
X195260252Y-46654490D02*
X195030917Y-46654490D01*
X196180000Y-70920000D02*
X198156499Y-68943501D01*
%TO.N,Net-(U12-Pad6)*%
X153180000Y-115920000D02*
X153180000Y-77920000D01*
X157380000Y-117995000D02*
X155255000Y-117995000D01*
X155255000Y-117995000D02*
X153180000Y-115920000D01*
%TO.N,Net-(U12-Pad11)*%
X170180000Y-78720497D02*
X169980497Y-78920000D01*
X166980497Y-103920000D02*
X166980497Y-101920000D01*
X172180000Y-71019500D02*
X172080500Y-70920000D01*
X172180000Y-72920000D02*
X172180000Y-71019500D01*
X170980497Y-93920000D02*
X170980497Y-90920000D01*
X172071137Y-61096137D02*
X172071137Y-67820500D01*
X170180000Y-72920000D02*
X170180000Y-78720497D01*
X169360000Y-58385000D02*
X172071137Y-61096137D01*
X169908850Y-98991647D02*
X169908850Y-98848353D01*
X166980497Y-101920000D02*
X169908850Y-98991647D01*
%TO.N,Net-(U12-Pad3)*%
X157380000Y-110375000D02*
X154180000Y-107175000D01*
X155180000Y-85920000D02*
X155180000Y-75920000D01*
X154180000Y-107175000D02*
X154180000Y-90920000D01*
X155180000Y-73920000D02*
X153179998Y-71920000D01*
%TO.N,Net-(U12-Pad8)*%
X171130999Y-71170002D02*
X170880997Y-70920000D01*
X168180000Y-103920000D02*
X168180000Y-101920000D01*
X167180000Y-118355000D02*
X167180000Y-113920000D01*
X172180000Y-93920000D02*
X172180000Y-90920000D01*
X171180000Y-78920000D02*
X171130999Y-78870999D01*
X165000000Y-120535000D02*
X167180000Y-118355000D01*
X168180000Y-101920000D02*
X171180000Y-98920000D01*
X171130999Y-78870999D02*
X171130999Y-71170002D01*
%TO.N,Net-(U13-Pad6)*%
X180008602Y-104091398D02*
X182180000Y-101920000D01*
X184830489Y-76766489D02*
X182342000Y-74278000D01*
X186180000Y-89920000D02*
X184830489Y-88570489D01*
X184830489Y-88570489D02*
X184830489Y-76766489D01*
X186180000Y-97920000D02*
X186180000Y-89920000D01*
%TO.N,Net-(U13-Pad11)*%
X200930969Y-60434031D02*
X200930969Y-71801531D01*
X190180000Y-118920000D02*
X190180000Y-113920000D01*
X183175000Y-112915000D02*
X184180000Y-113920000D01*
X197180000Y-75552500D02*
X197180000Y-76920000D01*
X202980000Y-58385000D02*
X200930969Y-60434031D01*
X190180000Y-113920000D02*
X192180000Y-111920000D01*
X182000000Y-112915000D02*
X183175000Y-112915000D01*
X200930969Y-71801531D02*
X197180000Y-75552500D01*
%TO.N,Net-(U13-Pad3)*%
X178180000Y-95920000D02*
X178180000Y-94920000D01*
X178786000Y-84314000D02*
X178786000Y-77072000D01*
X172180000Y-99920000D02*
X173180000Y-98920000D01*
X180310000Y-75548000D02*
X180310000Y-74786000D01*
X178180000Y-94920000D02*
X177180000Y-93920000D01*
X172180000Y-103920000D02*
X172180000Y-99920000D01*
X180310000Y-74786000D02*
X180310000Y-75040000D01*
X177180000Y-85920000D02*
X178786000Y-84314000D01*
X177180000Y-87920000D02*
X177180000Y-85920000D01*
X178786000Y-77072000D02*
X180310000Y-75548000D01*
%TO.N,Net-(U13-Pad8)*%
X182000000Y-120535000D02*
X184764503Y-120535000D01*
X191180000Y-119920000D02*
X192180000Y-118920000D01*
X202980000Y-60925000D02*
X201630489Y-62274511D01*
X184764503Y-120535000D02*
X185180000Y-120119503D01*
X192180000Y-118920000D02*
X192180000Y-116920000D01*
X201630489Y-62274511D02*
X201630489Y-72469511D01*
X201630489Y-72469511D02*
X198180000Y-75920000D01*
%TO.N,Net-(U15-Pad10)*%
X202980000Y-55845000D02*
X197900000Y-55845000D01*
X197900000Y-55845000D02*
X195360000Y-58385000D01*
%TO.N,Net-(U15-Pad9)*%
X186180000Y-50920000D02*
X182180000Y-50920000D01*
X174180000Y-52920000D02*
X174180000Y-49967544D01*
X174180000Y-60665000D02*
X174180000Y-58920000D01*
X182180000Y-50920000D02*
X180180000Y-48920000D01*
X176980000Y-63465000D02*
X174180000Y-60665000D01*
%TO.N,Net-(U16-Pad5)*%
X176515000Y-57920000D02*
X173975000Y-57920000D01*
X173975000Y-57920000D02*
X169360000Y-53305000D01*
X176980000Y-58385000D02*
X176515000Y-57920000D01*
%TO.N,Net-(U1-Pad2)*%
X92555954Y-85695000D02*
X92555954Y-89015000D01*
X92555954Y-84842796D02*
X91675657Y-83962499D01*
X92555954Y-85695000D02*
X92555954Y-84842796D01*
X75555954Y-85695000D02*
X75555954Y-84264141D01*
X92555954Y-89015000D02*
X90950954Y-90620000D01*
X75555954Y-84264141D02*
X75897120Y-83922975D01*
%TO.N,Net-(U1-Pad3)*%
X93825954Y-84645000D02*
X92283022Y-83102068D01*
X92283022Y-83102068D02*
X92158024Y-83102068D01*
X93825954Y-85695000D02*
X93825954Y-89745000D01*
X93825954Y-85695000D02*
X93825954Y-84645000D01*
X92068954Y-83012998D02*
X91282360Y-83012998D01*
X91257937Y-83037421D02*
X90912088Y-83037421D01*
X93825954Y-89745000D02*
X92950954Y-90620000D01*
X91282360Y-83012998D02*
X91257937Y-83037421D01*
X92158024Y-83102068D02*
X92068954Y-83012998D01*
X78000954Y-82945000D02*
X76825954Y-84120000D01*
X76825954Y-84120000D02*
X76825954Y-85695000D01*
%TO.N,Net-(U1-Pad4)*%
X79000954Y-81945000D02*
X79000954Y-83740000D01*
X95095954Y-90475000D02*
X94950954Y-90620000D01*
X95095954Y-85695000D02*
X95095954Y-90475000D01*
X95095954Y-84645000D02*
X92292643Y-81841689D01*
X95095954Y-85695000D02*
X95095954Y-84645000D01*
X79000954Y-83740000D02*
X78095954Y-84645000D01*
X78095954Y-84645000D02*
X78095954Y-85695000D01*
X92292643Y-81841689D02*
X91007122Y-81841689D01*
%TO.N,Net-(U1-Pad5)*%
X79365954Y-85695000D02*
X79365954Y-84645000D01*
X96365954Y-84645000D02*
X92613143Y-80892189D01*
X92613143Y-80892189D02*
X91996347Y-80892189D01*
X96950954Y-90620000D02*
X96365954Y-90035000D01*
X79365954Y-84645000D02*
X80000954Y-84010000D01*
X96365954Y-85695000D02*
X96365954Y-84645000D01*
X80000954Y-84010000D02*
X80000954Y-80945000D01*
X96365954Y-90035000D02*
X96365954Y-85695000D01*
%TO.N,Net-(U1-Pad6)*%
X97635954Y-85695000D02*
X97635954Y-84645000D01*
X80635954Y-85695000D02*
X81000954Y-85330000D01*
X98950954Y-90620000D02*
X97635954Y-89305000D01*
X97635954Y-84645000D02*
X92933642Y-79942688D01*
X81000954Y-85330000D02*
X81000954Y-80009500D01*
X92933642Y-79942688D02*
X91000954Y-79942688D01*
X97635954Y-89305000D02*
X97635954Y-85695000D01*
%TO.N,Net-(U1-Pad7)*%
X99760487Y-88807500D02*
X99847487Y-88894500D01*
X81905954Y-85695000D02*
X81905954Y-86840497D01*
X98905954Y-87952967D02*
X99847487Y-88894500D01*
X81905954Y-86840497D02*
X81801451Y-86945000D01*
X98905954Y-85695000D02*
X98905954Y-87952967D01*
X99138454Y-88807500D02*
X99760487Y-88807500D01*
X100950954Y-90620000D02*
X99138454Y-88807500D01*
%TO.N,Net-(U1-Pad8)*%
X100175954Y-87845000D02*
X100175954Y-85695000D01*
X102950954Y-90620000D02*
X100175954Y-87845000D01*
X83175954Y-86770000D02*
X83000954Y-86945000D01*
X83175954Y-85695000D02*
X83175954Y-86770000D01*
%TO.N,Net-(U1-Pad9)*%
X84445954Y-85695000D02*
X84445954Y-86882449D01*
X84445954Y-86882449D02*
X84777603Y-87214098D01*
X101445954Y-87115000D02*
X102638454Y-88307500D01*
X101445954Y-85695000D02*
X101445954Y-87115000D01*
X102638454Y-88307500D02*
X104950954Y-90620000D01*
%TD*%
M02*
