%TF.GenerationSoftware,KiCad,Pcbnew,6.0.1-79c1e3a40b~116~ubuntu21.10.1*%
%TF.CreationDate,2022-02-12T18:15:07+01:00*%
%TF.ProjectId,Activation_Module,41637469-7661-4746-996f-6e5f4d6f6475,v0.3*%
%TF.SameCoordinates,Original*%
%TF.FileFunction,Soldermask,Bot*%
%TF.FilePolarity,Negative*%
%FSLAX46Y46*%
G04 Gerber Fmt 4.6, Leading zero omitted, Abs format (unit mm)*
G04 Created by KiCad (PCBNEW 6.0.1-79c1e3a40b~116~ubuntu21.10.1) date 2022-02-12 18:15:07*
%MOMM*%
%LPD*%
G01*
G04 APERTURE LIST*
%ADD10R,1.600000X1.600000*%
%ADD11O,1.600000X1.600000*%
%ADD12R,1.800000X1.800000*%
%ADD13C,1.800000*%
%ADD14R,1.350000X1.350000*%
%ADD15O,1.350000X1.350000*%
%ADD16C,1.600000*%
G04 APERTURE END LIST*
D10*
%TO.C,U19*%
X118625000Y-45200000D03*
D11*
X116085000Y-45200000D03*
X113545000Y-45200000D03*
X111005000Y-45200000D03*
X108465000Y-45200000D03*
X105925000Y-45200000D03*
X103385000Y-45200000D03*
X103385000Y-52820000D03*
X105925000Y-52820000D03*
X108465000Y-52820000D03*
X111005000Y-52820000D03*
X113545000Y-52820000D03*
X116085000Y-52820000D03*
X118625000Y-52820000D03*
%TD*%
D10*
%TO.C,U6*%
X90375000Y-148800000D03*
D11*
X92915000Y-148800000D03*
X95455000Y-148800000D03*
X97995000Y-148800000D03*
X100535000Y-148800000D03*
X103075000Y-148800000D03*
X105615000Y-148800000D03*
X105615000Y-141180000D03*
X103075000Y-141180000D03*
X100535000Y-141180000D03*
X97995000Y-141180000D03*
X95455000Y-141180000D03*
X92915000Y-141180000D03*
X90375000Y-141180000D03*
%TD*%
D12*
%TO.C,D3*%
X108175000Y-80540000D03*
D13*
X105635000Y-80540000D03*
%TD*%
D10*
%TO.C,U5*%
X79000000Y-159400000D03*
D11*
X76460000Y-159400000D03*
X73920000Y-159400000D03*
X71380000Y-159400000D03*
X68840000Y-159400000D03*
X66300000Y-159400000D03*
X63760000Y-159400000D03*
X63760000Y-167020000D03*
X66300000Y-167020000D03*
X68840000Y-167020000D03*
X71380000Y-167020000D03*
X73920000Y-167020000D03*
X76460000Y-167020000D03*
X79000000Y-167020000D03*
%TD*%
%TO.C,U7*%
X90375000Y-167180000D03*
X92915000Y-167180000D03*
X95455000Y-167180000D03*
X97995000Y-167180000D03*
X100535000Y-167180000D03*
X103075000Y-167180000D03*
X105615000Y-167180000D03*
X105615000Y-174800000D03*
X103075000Y-174800000D03*
X100535000Y-174800000D03*
X97995000Y-174800000D03*
X95455000Y-174800000D03*
X92915000Y-174800000D03*
D10*
X90375000Y-174800000D03*
%TD*%
D14*
%TO.C,J1*%
X29800000Y-15770954D03*
D15*
X29800000Y-17770954D03*
X29800000Y-19770954D03*
X29800000Y-21770954D03*
X29800000Y-23770954D03*
X29800000Y-25770954D03*
X29800000Y-27770954D03*
X29800000Y-29770954D03*
X29800000Y-31770954D03*
X29800000Y-33770954D03*
X29800000Y-35770954D03*
X29800000Y-37770954D03*
X29800000Y-39770954D03*
X29800000Y-41770954D03*
X29800000Y-43770954D03*
X29800000Y-45770954D03*
X29800000Y-47770954D03*
X29800000Y-49770954D03*
X29800000Y-51770954D03*
X29800000Y-53770954D03*
X29800000Y-55770954D03*
X29800000Y-57770954D03*
X29800000Y-59770954D03*
X29800000Y-61770954D03*
X29800000Y-63770954D03*
X29800000Y-65770954D03*
X29800000Y-67770954D03*
X29800000Y-69770954D03*
X29800000Y-71770954D03*
X29800000Y-73770954D03*
X29800000Y-75770954D03*
X29800000Y-77770954D03*
X29800000Y-79770954D03*
X29800000Y-81770954D03*
X29800000Y-83770954D03*
X29800000Y-85770954D03*
X29800000Y-87770954D03*
X29800000Y-89770954D03*
X29800000Y-91770954D03*
X29800000Y-93770954D03*
X29800000Y-95830954D03*
X29800000Y-97830954D03*
X29800000Y-99830954D03*
X29800000Y-101830954D03*
X29800000Y-103830954D03*
X29800000Y-105830954D03*
X29800000Y-107830954D03*
X29800000Y-109830954D03*
X29800000Y-111830954D03*
X29800000Y-113830954D03*
X29800000Y-115830954D03*
X29800000Y-117830954D03*
X29800000Y-119830954D03*
X29800000Y-121830954D03*
X29800000Y-123830954D03*
X29800000Y-125830954D03*
X29800000Y-127830954D03*
X29800000Y-129830954D03*
X29800000Y-131830954D03*
X29800000Y-133830954D03*
X29800000Y-135830954D03*
X29800000Y-137830954D03*
X29800000Y-139830954D03*
X29800000Y-141830954D03*
X29800000Y-143830954D03*
X29800000Y-145830954D03*
X29800000Y-147830954D03*
X29800000Y-149830954D03*
X29800000Y-151830954D03*
X29800000Y-153830954D03*
X29800000Y-155830954D03*
X29800000Y-157830954D03*
X29800000Y-159830954D03*
X29800000Y-161830954D03*
X29800000Y-163830954D03*
X29800000Y-165830954D03*
X29800000Y-167830954D03*
X29800000Y-169830954D03*
%TD*%
D16*
%TO.C,R9*%
X33982372Y-177500000D03*
D11*
X36522372Y-177500000D03*
%TD*%
D16*
%TO.C,R10*%
X33982372Y-180500000D03*
D11*
X36522372Y-180500000D03*
%TD*%
D16*
%TO.C,R1*%
X77567372Y-180000000D03*
D11*
X75027372Y-180000000D03*
%TD*%
D10*
%TO.C,U4*%
X79000000Y-142200000D03*
D11*
X76460000Y-142200000D03*
X73920000Y-142200000D03*
X71380000Y-142200000D03*
X68840000Y-142200000D03*
X66300000Y-142200000D03*
X63760000Y-142200000D03*
X63760000Y-149820000D03*
X66300000Y-149820000D03*
X68840000Y-149820000D03*
X71380000Y-149820000D03*
X73920000Y-149820000D03*
X76460000Y-149820000D03*
X79000000Y-149820000D03*
%TD*%
D16*
%TO.C,C5*%
X47340000Y-134200000D03*
X47340000Y-129200000D03*
%TD*%
%TO.C,R3*%
X77567372Y-174000000D03*
D11*
X75027372Y-174000000D03*
%TD*%
%TO.C,R6*%
X116000000Y-74540000D03*
D16*
X116000000Y-72000000D03*
%TD*%
D12*
%TO.C,D4*%
X113660000Y-80550000D03*
D13*
X111120000Y-80550000D03*
%TD*%
D10*
%TO.C,U20*%
X114700000Y-116200000D03*
D11*
X112160000Y-116200000D03*
X109620000Y-116200000D03*
X107080000Y-116200000D03*
X104540000Y-116200000D03*
X102000000Y-116200000D03*
X99460000Y-116200000D03*
X96920000Y-116200000D03*
X96920000Y-123820000D03*
X99460000Y-123820000D03*
X102000000Y-123820000D03*
X104540000Y-123820000D03*
X107080000Y-123820000D03*
X109620000Y-123820000D03*
X112160000Y-123820000D03*
X114700000Y-123820000D03*
%TD*%
D16*
%TO.C,R12*%
X111000000Y-72000000D03*
D11*
X111000000Y-74540000D03*
%TD*%
D16*
%TO.C,R5*%
X101470000Y-71925000D03*
D11*
X101470000Y-74465000D03*
%TD*%
D14*
%TO.C,U2*%
X68300000Y-23770954D03*
D15*
X68300000Y-25770954D03*
X68300000Y-27770954D03*
X68300000Y-29770954D03*
X68300000Y-31770954D03*
X68300000Y-33770954D03*
X68300000Y-35770954D03*
X68300000Y-37770954D03*
X68300000Y-39770954D03*
X68300000Y-41770954D03*
X68300000Y-43770954D03*
X68300000Y-45770954D03*
X68300000Y-47770954D03*
X68300000Y-49770954D03*
X68300000Y-51770954D03*
X68300000Y-53770954D03*
X68300000Y-55770954D03*
X68300000Y-57770954D03*
X68300000Y-59770954D03*
X68300000Y-61770954D03*
X68300000Y-63770954D03*
X68300000Y-65770954D03*
X68300000Y-67770954D03*
X68300000Y-69770954D03*
X68300000Y-71770954D03*
X68300000Y-73770954D03*
X68300000Y-75770954D03*
X68300000Y-77770954D03*
X68300000Y-79770954D03*
X68300000Y-81770954D03*
X68300000Y-83770954D03*
X68300000Y-85770954D03*
X68300000Y-87770954D03*
X68300000Y-89770954D03*
X68300000Y-91770954D03*
X68300000Y-93770954D03*
X68300000Y-95770954D03*
X68300000Y-97770954D03*
X68300000Y-99770954D03*
X68300000Y-101770954D03*
X68300000Y-103830954D03*
X68300000Y-105830954D03*
%TD*%
D10*
%TO.C,U16*%
X90375000Y-161800000D03*
D11*
X92915000Y-161800000D03*
X95455000Y-161800000D03*
X97995000Y-161800000D03*
X100535000Y-161800000D03*
X103075000Y-161800000D03*
X105615000Y-161800000D03*
X105615000Y-154180000D03*
X103075000Y-154180000D03*
X100535000Y-154180000D03*
X97995000Y-154180000D03*
X95455000Y-154180000D03*
X92915000Y-154180000D03*
X90375000Y-154180000D03*
%TD*%
D10*
%TO.C,U13*%
X53625000Y-159200000D03*
D11*
X51085000Y-159200000D03*
X48545000Y-159200000D03*
X46005000Y-159200000D03*
X43465000Y-159200000D03*
X40925000Y-159200000D03*
X38385000Y-159200000D03*
X38385000Y-166820000D03*
X40925000Y-166820000D03*
X43465000Y-166820000D03*
X46005000Y-166820000D03*
X48545000Y-166820000D03*
X51085000Y-166820000D03*
X53625000Y-166820000D03*
%TD*%
D16*
%TO.C,R2*%
X77567372Y-177000000D03*
D11*
X75027372Y-177000000D03*
%TD*%
D14*
%TO.C,J2*%
X124774000Y-155700000D03*
D15*
X124774000Y-153700000D03*
X124774000Y-151700000D03*
%TD*%
D12*
%TO.C,D1*%
X102720000Y-80530000D03*
D13*
X100180000Y-80530000D03*
%TD*%
D10*
%TO.C,SW2*%
X43722372Y-180267500D03*
D11*
X46262372Y-180267500D03*
X48802372Y-180267500D03*
X51342372Y-180267500D03*
X51342372Y-172647500D03*
X48802372Y-172647500D03*
X46262372Y-172647500D03*
X43722372Y-172647500D03*
%TD*%
D10*
%TO.C,U22*%
X119200000Y-164375000D03*
D11*
X119200000Y-166915000D03*
X119200000Y-169455000D03*
X119200000Y-171995000D03*
X119200000Y-174535000D03*
X119200000Y-177075000D03*
X119200000Y-179615000D03*
X126820000Y-179615000D03*
X126820000Y-177075000D03*
X126820000Y-174535000D03*
X126820000Y-171995000D03*
X126820000Y-169455000D03*
X126820000Y-166915000D03*
X126820000Y-164375000D03*
%TD*%
D10*
%TO.C,U18*%
X118625000Y-60200000D03*
D11*
X116085000Y-60200000D03*
X113545000Y-60200000D03*
X111005000Y-60200000D03*
X108465000Y-60200000D03*
X105925000Y-60200000D03*
X103385000Y-60200000D03*
X103385000Y-67820000D03*
X105925000Y-67820000D03*
X108465000Y-67820000D03*
X111005000Y-67820000D03*
X113545000Y-67820000D03*
X116085000Y-67820000D03*
X118625000Y-67820000D03*
%TD*%
D16*
%TO.C,R8*%
X33982372Y-174500000D03*
D11*
X36522372Y-174500000D03*
%TD*%
D16*
%TO.C,C2*%
X39190000Y-129100000D03*
X39190000Y-134100000D03*
%TD*%
%TO.C,C1*%
X124430000Y-61270000D03*
X124430000Y-56270000D03*
%TD*%
D10*
%TO.C,U12*%
X53625000Y-142200000D03*
D11*
X51085000Y-142200000D03*
X48545000Y-142200000D03*
X46005000Y-142200000D03*
X43465000Y-142200000D03*
X40925000Y-142200000D03*
X38385000Y-142200000D03*
X38385000Y-149820000D03*
X40925000Y-149820000D03*
X43465000Y-149820000D03*
X46005000Y-149820000D03*
X48545000Y-149820000D03*
X51085000Y-149820000D03*
X53625000Y-149820000D03*
%TD*%
D16*
%TO.C,C7*%
X94300000Y-20530000D03*
X99300000Y-20530000D03*
%TD*%
%TO.C,C4*%
X116450000Y-186320000D03*
X121450000Y-186320000D03*
%TD*%
%TO.C,C3*%
X99150000Y-27360000D03*
X94150000Y-27360000D03*
%TD*%
D12*
%TO.C,D2*%
X119150000Y-80540000D03*
D13*
X116610000Y-80540000D03*
%TD*%
D10*
%TO.C,SW1*%
X59722372Y-180267500D03*
D11*
X62262372Y-180267500D03*
X64802372Y-180267500D03*
X67342372Y-180267500D03*
X67342372Y-172647500D03*
X64802372Y-172647500D03*
X62262372Y-172647500D03*
X59722372Y-172647500D03*
%TD*%
D16*
%TO.C,C8*%
X124320000Y-45650000D03*
X124320000Y-50650000D03*
%TD*%
D10*
%TO.C,U21*%
X114800000Y-100000000D03*
D11*
X112260000Y-100000000D03*
X109720000Y-100000000D03*
X107180000Y-100000000D03*
X104640000Y-100000000D03*
X102100000Y-100000000D03*
X99560000Y-100000000D03*
X97020000Y-100000000D03*
X97020000Y-107620000D03*
X99560000Y-107620000D03*
X102100000Y-107620000D03*
X104640000Y-107620000D03*
X107180000Y-107620000D03*
X109720000Y-107620000D03*
X112260000Y-107620000D03*
X114800000Y-107620000D03*
%TD*%
D16*
%TO.C,R11*%
X106000000Y-72000000D03*
D11*
X106000000Y-74540000D03*
%TD*%
D16*
%TO.C,R7*%
X33982372Y-171500000D03*
D11*
X36522372Y-171500000D03*
%TD*%
%TO.C,U15*%
X90375000Y-180180000D03*
X92915000Y-180180000D03*
X95455000Y-180180000D03*
X97995000Y-180180000D03*
X100535000Y-180180000D03*
X103075000Y-180180000D03*
X105615000Y-180180000D03*
X105615000Y-187800000D03*
X103075000Y-187800000D03*
X100535000Y-187800000D03*
X97995000Y-187800000D03*
X95455000Y-187800000D03*
X92915000Y-187800000D03*
D10*
X90375000Y-187800000D03*
%TD*%
D16*
%TO.C,R4*%
X77562372Y-171000000D03*
D11*
X75022372Y-171000000D03*
%TD*%
D16*
%TO.C,C6*%
X83930000Y-173600000D03*
X83930000Y-178600000D03*
%TD*%
M02*
