%TF.GenerationSoftware,KiCad,Pcbnew,6.0.1-79c1e3a40b~116~ubuntu21.10.1*%
%TF.CreationDate,2022-02-14T17:50:44+01:00*%
%TF.ProjectId,Activation_Module,41637469-7661-4746-996f-6e5f4d6f6475,v0.3*%
%TF.SameCoordinates,Original*%
%TF.FileFunction,Soldermask,Bot*%
%TF.FilePolarity,Negative*%
%FSLAX46Y46*%
G04 Gerber Fmt 4.6, Leading zero omitted, Abs format (unit mm)*
G04 Created by KiCad (PCBNEW 6.0.1-79c1e3a40b~116~ubuntu21.10.1) date 2022-02-14 17:50:44*
%MOMM*%
%LPD*%
G01*
G04 APERTURE LIST*
%ADD10R,1.600000X1.600000*%
%ADD11O,1.600000X1.600000*%
%ADD12R,1.800000X1.800000*%
%ADD13C,1.800000*%
%ADD14C,1.600000*%
%ADD15R,1.700000X1.700000*%
%ADD16O,1.700000X1.700000*%
%ADD17R,1.350000X1.350000*%
%ADD18O,1.350000X1.350000*%
G04 APERTURE END LIST*
D10*
%TO.C,U19*%
X60380000Y-40295000D03*
D11*
X60380000Y-42835000D03*
X60380000Y-45375000D03*
X60380000Y-47915000D03*
X60380000Y-50455000D03*
X60380000Y-52995000D03*
X60380000Y-55535000D03*
X68000000Y-55535000D03*
X68000000Y-52995000D03*
X68000000Y-50455000D03*
X68000000Y-47915000D03*
X68000000Y-45375000D03*
X68000000Y-42835000D03*
X68000000Y-40295000D03*
%TD*%
D10*
%TO.C,U6*%
X163980000Y-68545000D03*
D11*
X163980000Y-66005000D03*
X163980000Y-63465000D03*
X163980000Y-60925000D03*
X163980000Y-58385000D03*
X163980000Y-55845000D03*
X163980000Y-53305000D03*
X156360000Y-53305000D03*
X156360000Y-55845000D03*
X156360000Y-58385000D03*
X156360000Y-60925000D03*
X156360000Y-63465000D03*
X156360000Y-66005000D03*
X156360000Y-68545000D03*
%TD*%
D12*
%TO.C,D3*%
X95720000Y-50745000D03*
D13*
X95720000Y-53285000D03*
%TD*%
D10*
%TO.C,U5*%
X174580000Y-79920000D03*
D11*
X174580000Y-82460000D03*
X174580000Y-85000000D03*
X174580000Y-87540000D03*
X174580000Y-90080000D03*
X174580000Y-92620000D03*
X174580000Y-95160000D03*
X182200000Y-95160000D03*
X182200000Y-92620000D03*
X182200000Y-90080000D03*
X182200000Y-87540000D03*
X182200000Y-85000000D03*
X182200000Y-82460000D03*
X182200000Y-79920000D03*
%TD*%
D10*
%TO.C,U7*%
X189980000Y-68545000D03*
D11*
X189980000Y-66005000D03*
X189980000Y-63465000D03*
X189980000Y-60925000D03*
X189980000Y-58385000D03*
X189980000Y-55845000D03*
X189980000Y-53305000D03*
X182360000Y-53305000D03*
X182360000Y-55845000D03*
X182360000Y-58385000D03*
X182360000Y-60925000D03*
X182360000Y-63465000D03*
X182360000Y-66005000D03*
X182360000Y-68545000D03*
%TD*%
D14*
%TO.C,R9*%
X192680000Y-124937628D03*
D11*
X192680000Y-122397628D03*
%TD*%
D14*
%TO.C,R10*%
X195680000Y-124937628D03*
D11*
X195680000Y-122397628D03*
%TD*%
D14*
%TO.C,R1*%
X195180000Y-81352628D03*
D11*
X195180000Y-83892628D03*
%TD*%
D10*
%TO.C,U4*%
X157380000Y-79920000D03*
D11*
X157380000Y-82460000D03*
X157380000Y-85000000D03*
X157380000Y-87540000D03*
X157380000Y-90080000D03*
X157380000Y-92620000D03*
X157380000Y-95160000D03*
X165000000Y-95160000D03*
X165000000Y-92620000D03*
X165000000Y-90080000D03*
X165000000Y-87540000D03*
X165000000Y-85000000D03*
X165000000Y-82460000D03*
X165000000Y-79920000D03*
%TD*%
D14*
%TO.C,C5*%
X149380000Y-111580000D03*
X144380000Y-111580000D03*
%TD*%
%TO.C,R3*%
X189180000Y-81352628D03*
D11*
X189180000Y-83892628D03*
%TD*%
D14*
%TO.C,R6*%
X87180000Y-42920000D03*
D11*
X89720000Y-42920000D03*
%TD*%
D15*
%TO.C,J1*%
X30950954Y-129120000D03*
D16*
X33490954Y-129120000D03*
X36030954Y-129120000D03*
X38570954Y-129120000D03*
X41110954Y-129120000D03*
X43650954Y-129120000D03*
X46190954Y-129120000D03*
X48730954Y-129120000D03*
X51270954Y-129120000D03*
X53810954Y-129120000D03*
X56350954Y-129120000D03*
X58890954Y-129120000D03*
X61430954Y-129120000D03*
X63970954Y-129120000D03*
X66510954Y-129120000D03*
X69050954Y-129120000D03*
X71590954Y-129120000D03*
X74130954Y-129120000D03*
X76670954Y-129120000D03*
X79210954Y-129120000D03*
X81750954Y-129120000D03*
X84290954Y-129120000D03*
X86830954Y-129120000D03*
X89370954Y-129120000D03*
X91910954Y-129120000D03*
X94450954Y-129120000D03*
X96990954Y-129120000D03*
X99530954Y-129120000D03*
X102070954Y-129120000D03*
X104610954Y-129120000D03*
X107150954Y-129120000D03*
X109690954Y-129120000D03*
X112230954Y-129120000D03*
X114770954Y-129120000D03*
X117310954Y-129120000D03*
X119850954Y-129120000D03*
X122390954Y-129120000D03*
X124930954Y-129120000D03*
X127470954Y-129120000D03*
X130010954Y-129120000D03*
X132550954Y-129120000D03*
X135090954Y-129120000D03*
X137630954Y-129120000D03*
X140170954Y-129120000D03*
X142710954Y-129120000D03*
X145250954Y-129120000D03*
X147790954Y-129120000D03*
X150330954Y-129120000D03*
X152870954Y-129120000D03*
X155410954Y-129120000D03*
X157950954Y-129120000D03*
X160490954Y-129120000D03*
X163030954Y-129120000D03*
X165570954Y-129120000D03*
X168110954Y-129120000D03*
X170650954Y-129120000D03*
X173190954Y-129120000D03*
X175730954Y-129120000D03*
X178270954Y-129120000D03*
X180810954Y-129120000D03*
X183350954Y-129120000D03*
X185890954Y-129120000D03*
X188430954Y-129120000D03*
X190970954Y-129120000D03*
X193510954Y-129120000D03*
X196050954Y-129120000D03*
X198590954Y-129120000D03*
X201130954Y-129120000D03*
X203670954Y-129120000D03*
X206210954Y-129120000D03*
X208750954Y-129120000D03*
X211290954Y-129120000D03*
X213830954Y-129120000D03*
X216370954Y-129120000D03*
X218910954Y-129120000D03*
X221450954Y-129120000D03*
X223990954Y-129120000D03*
X226530954Y-129120000D03*
%TD*%
D12*
%TO.C,D4*%
X95730000Y-45260000D03*
D13*
X95730000Y-47800000D03*
%TD*%
D10*
%TO.C,U20*%
X131380000Y-44220000D03*
D11*
X131380000Y-46760000D03*
X131380000Y-49300000D03*
X131380000Y-51840000D03*
X131380000Y-54380000D03*
X131380000Y-56920000D03*
X131380000Y-59460000D03*
X131380000Y-62000000D03*
X139000000Y-62000000D03*
X139000000Y-59460000D03*
X139000000Y-56920000D03*
X139000000Y-54380000D03*
X139000000Y-51840000D03*
X139000000Y-49300000D03*
X139000000Y-46760000D03*
X139000000Y-44220000D03*
%TD*%
D14*
%TO.C,R12*%
X87180000Y-47920000D03*
D11*
X89720000Y-47920000D03*
%TD*%
D14*
%TO.C,R5*%
X87105000Y-57450000D03*
D11*
X89645000Y-57450000D03*
%TD*%
D17*
%TO.C,U2*%
X38950954Y-90620000D03*
D18*
X40950954Y-90620000D03*
X42950954Y-90620000D03*
X44950954Y-90620000D03*
X46950954Y-90620000D03*
X48950954Y-90620000D03*
X50950954Y-90620000D03*
X52950954Y-90620000D03*
X54950954Y-90620000D03*
X56950954Y-90620000D03*
X58950954Y-90620000D03*
X60950954Y-90620000D03*
X62950954Y-90620000D03*
X64950954Y-90620000D03*
X66950954Y-90620000D03*
X68950954Y-90620000D03*
X70950954Y-90620000D03*
X72950954Y-90620000D03*
X74950954Y-90620000D03*
X76950954Y-90620000D03*
X78950954Y-90620000D03*
X80950954Y-90620000D03*
X82950954Y-90620000D03*
X84950954Y-90620000D03*
X86950954Y-90620000D03*
X88950954Y-90620000D03*
X90950954Y-90620000D03*
X92950954Y-90620000D03*
X94950954Y-90620000D03*
X96950954Y-90620000D03*
X98950954Y-90620000D03*
X100950954Y-90620000D03*
X102950954Y-90620000D03*
X104950954Y-90620000D03*
X106950954Y-90620000D03*
X108950954Y-90620000D03*
X110950954Y-90620000D03*
X112950954Y-90620000D03*
X114950954Y-90620000D03*
X116950954Y-90620000D03*
X119010954Y-90620000D03*
X121010954Y-90620000D03*
%TD*%
D10*
%TO.C,U16*%
X176980000Y-68545000D03*
D11*
X176980000Y-66005000D03*
X176980000Y-63465000D03*
X176980000Y-60925000D03*
X176980000Y-58385000D03*
X176980000Y-55845000D03*
X176980000Y-53305000D03*
X169360000Y-53305000D03*
X169360000Y-55845000D03*
X169360000Y-58385000D03*
X169360000Y-60925000D03*
X169360000Y-63465000D03*
X169360000Y-66005000D03*
X169360000Y-68545000D03*
%TD*%
D10*
%TO.C,U13*%
X174380000Y-105295000D03*
D11*
X174380000Y-107835000D03*
X174380000Y-110375000D03*
X174380000Y-112915000D03*
X174380000Y-115455000D03*
X174380000Y-117995000D03*
X174380000Y-120535000D03*
X182000000Y-120535000D03*
X182000000Y-117995000D03*
X182000000Y-115455000D03*
X182000000Y-112915000D03*
X182000000Y-110375000D03*
X182000000Y-107835000D03*
X182000000Y-105295000D03*
%TD*%
D14*
%TO.C,R2*%
X192180000Y-81352628D03*
D11*
X192180000Y-83892628D03*
%TD*%
D17*
%TO.C,J2*%
X170880000Y-34146000D03*
D18*
X168880000Y-34146000D03*
X166880000Y-34146000D03*
%TD*%
D12*
%TO.C,D1*%
X95710000Y-56200000D03*
D13*
X95710000Y-58740000D03*
%TD*%
D10*
%TO.C,SW2*%
X195447500Y-115197628D03*
D11*
X195447500Y-112657628D03*
X195447500Y-110117628D03*
X195447500Y-107577628D03*
X187827500Y-107577628D03*
X187827500Y-110117628D03*
X187827500Y-112657628D03*
X187827500Y-115197628D03*
%TD*%
D10*
%TO.C,U22*%
X179555000Y-39720000D03*
D11*
X182095000Y-39720000D03*
X184635000Y-39720000D03*
X187175000Y-39720000D03*
X189715000Y-39720000D03*
X192255000Y-39720000D03*
X194795000Y-39720000D03*
X194795000Y-32100000D03*
X192255000Y-32100000D03*
X189715000Y-32100000D03*
X187175000Y-32100000D03*
X184635000Y-32100000D03*
X182095000Y-32100000D03*
X179555000Y-32100000D03*
%TD*%
D10*
%TO.C,U18*%
X75380000Y-40295000D03*
D11*
X75380000Y-42835000D03*
X75380000Y-45375000D03*
X75380000Y-47915000D03*
X75380000Y-50455000D03*
X75380000Y-52995000D03*
X75380000Y-55535000D03*
X83000000Y-55535000D03*
X83000000Y-52995000D03*
X83000000Y-50455000D03*
X83000000Y-47915000D03*
X83000000Y-45375000D03*
X83000000Y-42835000D03*
X83000000Y-40295000D03*
%TD*%
D14*
%TO.C,R8*%
X189680000Y-124937628D03*
D11*
X189680000Y-122397628D03*
%TD*%
D14*
%TO.C,C2*%
X144280000Y-119730000D03*
X149280000Y-119730000D03*
%TD*%
%TO.C,C1*%
X76450000Y-34490000D03*
X71450000Y-34490000D03*
%TD*%
D10*
%TO.C,U12*%
X157380000Y-105295000D03*
D11*
X157380000Y-107835000D03*
X157380000Y-110375000D03*
X157380000Y-112915000D03*
X157380000Y-115455000D03*
X157380000Y-117995000D03*
X157380000Y-120535000D03*
X165000000Y-120535000D03*
X165000000Y-117995000D03*
X165000000Y-115455000D03*
X165000000Y-112915000D03*
X165000000Y-110375000D03*
X165000000Y-107835000D03*
X165000000Y-105295000D03*
%TD*%
D14*
%TO.C,C7*%
X35710000Y-64620000D03*
X35710000Y-59620000D03*
%TD*%
%TO.C,C4*%
X201500000Y-42470000D03*
X201500000Y-37470000D03*
%TD*%
%TO.C,C3*%
X42540000Y-59770000D03*
X42540000Y-64770000D03*
%TD*%
D12*
%TO.C,D2*%
X95720000Y-39770000D03*
D13*
X95720000Y-42310000D03*
%TD*%
D10*
%TO.C,SW1*%
X195447500Y-99197628D03*
D11*
X195447500Y-96657628D03*
X195447500Y-94117628D03*
X195447500Y-91577628D03*
X187827500Y-91577628D03*
X187827500Y-94117628D03*
X187827500Y-96657628D03*
X187827500Y-99197628D03*
%TD*%
D14*
%TO.C,C8*%
X60830000Y-34600000D03*
X65830000Y-34600000D03*
%TD*%
D10*
%TO.C,U21*%
X115180000Y-44120000D03*
D11*
X115180000Y-46660000D03*
X115180000Y-49200000D03*
X115180000Y-51740000D03*
X115180000Y-54280000D03*
X115180000Y-56820000D03*
X115180000Y-59360000D03*
X115180000Y-61900000D03*
X122800000Y-61900000D03*
X122800000Y-59360000D03*
X122800000Y-56820000D03*
X122800000Y-54280000D03*
X122800000Y-51740000D03*
X122800000Y-49200000D03*
X122800000Y-46660000D03*
X122800000Y-44120000D03*
%TD*%
D14*
%TO.C,R11*%
X87180000Y-52920000D03*
D11*
X89720000Y-52920000D03*
%TD*%
D14*
%TO.C,R7*%
X186680000Y-124937628D03*
D11*
X186680000Y-122397628D03*
%TD*%
D10*
%TO.C,U15*%
X202980000Y-68545000D03*
D11*
X202980000Y-66005000D03*
X202980000Y-63465000D03*
X202980000Y-60925000D03*
X202980000Y-58385000D03*
X202980000Y-55845000D03*
X202980000Y-53305000D03*
X195360000Y-53305000D03*
X195360000Y-55845000D03*
X195360000Y-58385000D03*
X195360000Y-60925000D03*
X195360000Y-63465000D03*
X195360000Y-66005000D03*
X195360000Y-68545000D03*
%TD*%
D14*
%TO.C,R4*%
X186180000Y-81357628D03*
D11*
X186180000Y-83897628D03*
%TD*%
D14*
%TO.C,C6*%
X193780000Y-74990000D03*
X188780000Y-74990000D03*
%TD*%
M02*
