%TF.GenerationSoftware,KiCad,Pcbnew,6.0.1-79c1e3a40b~116~ubuntu21.10.1*%
%TF.CreationDate,2022-02-13T21:16:16+01:00*%
%TF.ProjectId,Activation_Module,41637469-7661-4746-996f-6e5f4d6f6475,v0.3*%
%TF.SameCoordinates,Original*%
%TF.FileFunction,Legend,Top*%
%TF.FilePolarity,Positive*%
%FSLAX46Y46*%
G04 Gerber Fmt 4.6, Leading zero omitted, Abs format (unit mm)*
G04 Created by KiCad (PCBNEW 6.0.1-79c1e3a40b~116~ubuntu21.10.1) date 2022-02-13 21:16:16*
%MOMM*%
%LPD*%
G01*
G04 APERTURE LIST*
%ADD10C,0.150000*%
%ADD11C,0.120000*%
G04 APERTURE END LIST*
D10*
%TO.C,U19*%
X120407380Y-50248095D02*
X121216904Y-50248095D01*
X121312142Y-50200476D01*
X121359761Y-50152857D01*
X121407380Y-50057619D01*
X121407380Y-49867142D01*
X121359761Y-49771904D01*
X121312142Y-49724285D01*
X121216904Y-49676666D01*
X120407380Y-49676666D01*
X121407380Y-48676666D02*
X121407380Y-49248095D01*
X121407380Y-48962380D02*
X120407380Y-48962380D01*
X120550238Y-49057619D01*
X120645476Y-49152857D01*
X120693095Y-49248095D01*
X121407380Y-48200476D02*
X121407380Y-48010000D01*
X121359761Y-47914761D01*
X121312142Y-47867142D01*
X121169285Y-47771904D01*
X120978809Y-47724285D01*
X120597857Y-47724285D01*
X120502619Y-47771904D01*
X120455000Y-47819523D01*
X120407380Y-47914761D01*
X120407380Y-48105238D01*
X120455000Y-48200476D01*
X120502619Y-48248095D01*
X120597857Y-48295714D01*
X120835952Y-48295714D01*
X120931190Y-48248095D01*
X120978809Y-48200476D01*
X121026428Y-48105238D01*
X121026428Y-47914761D01*
X120978809Y-47819523D01*
X120931190Y-47771904D01*
X120835952Y-47724285D01*
%TO.C,U6*%
X87497380Y-145751904D02*
X88306904Y-145751904D01*
X88402142Y-145704285D01*
X88449761Y-145656666D01*
X88497380Y-145561428D01*
X88497380Y-145370952D01*
X88449761Y-145275714D01*
X88402142Y-145228095D01*
X88306904Y-145180476D01*
X87497380Y-145180476D01*
X87497380Y-144275714D02*
X87497380Y-144466190D01*
X87545000Y-144561428D01*
X87592619Y-144609047D01*
X87735476Y-144704285D01*
X87925952Y-144751904D01*
X88306904Y-144751904D01*
X88402142Y-144704285D01*
X88449761Y-144656666D01*
X88497380Y-144561428D01*
X88497380Y-144370952D01*
X88449761Y-144275714D01*
X88402142Y-144228095D01*
X88306904Y-144180476D01*
X88068809Y-144180476D01*
X87973571Y-144228095D01*
X87925952Y-144275714D01*
X87878333Y-144370952D01*
X87878333Y-144561428D01*
X87925952Y-144656666D01*
X87973571Y-144704285D01*
X88068809Y-144751904D01*
%TO.C,D3*%
X106166904Y-84452380D02*
X106166904Y-83452380D01*
X106405000Y-83452380D01*
X106547857Y-83500000D01*
X106643095Y-83595238D01*
X106690714Y-83690476D01*
X106738333Y-83880952D01*
X106738333Y-84023809D01*
X106690714Y-84214285D01*
X106643095Y-84309523D01*
X106547857Y-84404761D01*
X106405000Y-84452380D01*
X106166904Y-84452380D01*
X107071666Y-83452380D02*
X107690714Y-83452380D01*
X107357380Y-83833333D01*
X107500238Y-83833333D01*
X107595476Y-83880952D01*
X107643095Y-83928571D01*
X107690714Y-84023809D01*
X107690714Y-84261904D01*
X107643095Y-84357142D01*
X107595476Y-84404761D01*
X107500238Y-84452380D01*
X107214523Y-84452380D01*
X107119285Y-84404761D01*
X107071666Y-84357142D01*
%TO.C,U5*%
X80782380Y-163971904D02*
X81591904Y-163971904D01*
X81687142Y-163924285D01*
X81734761Y-163876666D01*
X81782380Y-163781428D01*
X81782380Y-163590952D01*
X81734761Y-163495714D01*
X81687142Y-163448095D01*
X81591904Y-163400476D01*
X80782380Y-163400476D01*
X80782380Y-162448095D02*
X80782380Y-162924285D01*
X81258571Y-162971904D01*
X81210952Y-162924285D01*
X81163333Y-162829047D01*
X81163333Y-162590952D01*
X81210952Y-162495714D01*
X81258571Y-162448095D01*
X81353809Y-162400476D01*
X81591904Y-162400476D01*
X81687142Y-162448095D01*
X81734761Y-162495714D01*
X81782380Y-162590952D01*
X81782380Y-162829047D01*
X81734761Y-162924285D01*
X81687142Y-162971904D01*
%TO.C,U10*%
X73046904Y-73853334D02*
X73046904Y-74662858D01*
X73094523Y-74758096D01*
X73142142Y-74805715D01*
X73237380Y-74853334D01*
X73427857Y-74853334D01*
X73523095Y-74805715D01*
X73570714Y-74758096D01*
X73618333Y-74662858D01*
X73618333Y-73853334D01*
X74618333Y-74853334D02*
X74046904Y-74853334D01*
X74332619Y-74853334D02*
X74332619Y-73853334D01*
X74237380Y-73996192D01*
X74142142Y-74091430D01*
X74046904Y-74139049D01*
X75237380Y-73853334D02*
X75332619Y-73853334D01*
X75427857Y-73900954D01*
X75475476Y-73948573D01*
X75523095Y-74043811D01*
X75570714Y-74234287D01*
X75570714Y-74472382D01*
X75523095Y-74662858D01*
X75475476Y-74758096D01*
X75427857Y-74805715D01*
X75332619Y-74853334D01*
X75237380Y-74853334D01*
X75142142Y-74805715D01*
X75094523Y-74758096D01*
X75046904Y-74662858D01*
X74999285Y-74472382D01*
X74999285Y-74234287D01*
X75046904Y-74043811D01*
X75094523Y-73948573D01*
X75142142Y-73900954D01*
X75237380Y-73853334D01*
%TO.C,U7*%
X87497380Y-171751904D02*
X88306904Y-171751904D01*
X88402142Y-171704285D01*
X88449761Y-171656666D01*
X88497380Y-171561428D01*
X88497380Y-171370952D01*
X88449761Y-171275714D01*
X88402142Y-171228095D01*
X88306904Y-171180476D01*
X87497380Y-171180476D01*
X87497380Y-170799523D02*
X87497380Y-170132857D01*
X88497380Y-170561428D01*
%TO.C,R9*%
X31360705Y-177952380D02*
X31027372Y-177476190D01*
X30789276Y-177952380D02*
X30789276Y-176952380D01*
X31170229Y-176952380D01*
X31265467Y-177000000D01*
X31313086Y-177047619D01*
X31360705Y-177142857D01*
X31360705Y-177285714D01*
X31313086Y-177380952D01*
X31265467Y-177428571D01*
X31170229Y-177476190D01*
X30789276Y-177476190D01*
X31836895Y-177952380D02*
X32027372Y-177952380D01*
X32122610Y-177904761D01*
X32170229Y-177857142D01*
X32265467Y-177714285D01*
X32313086Y-177523809D01*
X32313086Y-177142857D01*
X32265467Y-177047619D01*
X32217848Y-177000000D01*
X32122610Y-176952380D01*
X31932133Y-176952380D01*
X31836895Y-177000000D01*
X31789276Y-177047619D01*
X31741657Y-177142857D01*
X31741657Y-177380952D01*
X31789276Y-177476190D01*
X31836895Y-177523809D01*
X31932133Y-177571428D01*
X32122610Y-177571428D01*
X32217848Y-177523809D01*
X32265467Y-177476190D01*
X32313086Y-177380952D01*
%TO.C,R10*%
X30384514Y-180952380D02*
X30051181Y-180476190D01*
X29813086Y-180952380D02*
X29813086Y-179952380D01*
X30194038Y-179952380D01*
X30289276Y-180000000D01*
X30336895Y-180047619D01*
X30384514Y-180142857D01*
X30384514Y-180285714D01*
X30336895Y-180380952D01*
X30289276Y-180428571D01*
X30194038Y-180476190D01*
X29813086Y-180476190D01*
X31336895Y-180952380D02*
X30765467Y-180952380D01*
X31051181Y-180952380D02*
X31051181Y-179952380D01*
X30955943Y-180095238D01*
X30860705Y-180190476D01*
X30765467Y-180238095D01*
X31955943Y-179952380D02*
X32051181Y-179952380D01*
X32146419Y-180000000D01*
X32194038Y-180047619D01*
X32241657Y-180142857D01*
X32289276Y-180333333D01*
X32289276Y-180571428D01*
X32241657Y-180761904D01*
X32194038Y-180857142D01*
X32146419Y-180904761D01*
X32051181Y-180952380D01*
X31955943Y-180952380D01*
X31860705Y-180904761D01*
X31813086Y-180857142D01*
X31765467Y-180761904D01*
X31717848Y-180571428D01*
X31717848Y-180333333D01*
X31765467Y-180142857D01*
X31813086Y-180047619D01*
X31860705Y-180000000D01*
X31955943Y-179952380D01*
%TO.C,R1*%
X79855705Y-180452380D02*
X79522372Y-179976190D01*
X79284276Y-180452380D02*
X79284276Y-179452380D01*
X79665229Y-179452380D01*
X79760467Y-179500000D01*
X79808086Y-179547619D01*
X79855705Y-179642857D01*
X79855705Y-179785714D01*
X79808086Y-179880952D01*
X79760467Y-179928571D01*
X79665229Y-179976190D01*
X79284276Y-179976190D01*
X80808086Y-180452380D02*
X80236657Y-180452380D01*
X80522372Y-180452380D02*
X80522372Y-179452380D01*
X80427133Y-179595238D01*
X80331895Y-179690476D01*
X80236657Y-179738095D01*
%TO.C,U4*%
X80782380Y-146771904D02*
X81591904Y-146771904D01*
X81687142Y-146724285D01*
X81734761Y-146676666D01*
X81782380Y-146581428D01*
X81782380Y-146390952D01*
X81734761Y-146295714D01*
X81687142Y-146248095D01*
X81591904Y-146200476D01*
X80782380Y-146200476D01*
X81115714Y-145295714D02*
X81782380Y-145295714D01*
X80734761Y-145533809D02*
X81449047Y-145771904D01*
X81449047Y-145152857D01*
%TO.C,U8*%
X49523095Y-23853334D02*
X49523095Y-24662858D01*
X49570714Y-24758096D01*
X49618333Y-24805715D01*
X49713571Y-24853334D01*
X49904047Y-24853334D01*
X49999285Y-24805715D01*
X50046904Y-24758096D01*
X50094523Y-24662858D01*
X50094523Y-23853334D01*
X50713571Y-24281906D02*
X50618333Y-24234287D01*
X50570714Y-24186668D01*
X50523095Y-24091430D01*
X50523095Y-24043811D01*
X50570714Y-23948573D01*
X50618333Y-23900954D01*
X50713571Y-23853334D01*
X50904047Y-23853334D01*
X50999285Y-23900954D01*
X51046904Y-23948573D01*
X51094523Y-24043811D01*
X51094523Y-24091430D01*
X51046904Y-24186668D01*
X50999285Y-24234287D01*
X50904047Y-24281906D01*
X50713571Y-24281906D01*
X50618333Y-24329525D01*
X50570714Y-24377144D01*
X50523095Y-24472382D01*
X50523095Y-24662858D01*
X50570714Y-24758096D01*
X50618333Y-24805715D01*
X50713571Y-24853334D01*
X50904047Y-24853334D01*
X50999285Y-24805715D01*
X51046904Y-24758096D01*
X51094523Y-24662858D01*
X51094523Y-24472382D01*
X51046904Y-24377144D01*
X50999285Y-24329525D01*
X50904047Y-24281906D01*
%TO.C,C5*%
X50357142Y-131866666D02*
X50404761Y-131914285D01*
X50452380Y-132057142D01*
X50452380Y-132152380D01*
X50404761Y-132295238D01*
X50309523Y-132390476D01*
X50214285Y-132438095D01*
X50023809Y-132485714D01*
X49880952Y-132485714D01*
X49690476Y-132438095D01*
X49595238Y-132390476D01*
X49500000Y-132295238D01*
X49452380Y-132152380D01*
X49452380Y-132057142D01*
X49500000Y-131914285D01*
X49547619Y-131866666D01*
X49452380Y-130961904D02*
X49452380Y-131438095D01*
X49928571Y-131485714D01*
X49880952Y-131438095D01*
X49833333Y-131342857D01*
X49833333Y-131104761D01*
X49880952Y-131009523D01*
X49928571Y-130961904D01*
X50023809Y-130914285D01*
X50261904Y-130914285D01*
X50357142Y-130961904D01*
X50404761Y-131009523D01*
X50452380Y-131104761D01*
X50452380Y-131342857D01*
X50404761Y-131438095D01*
X50357142Y-131485714D01*
%TO.C,U3*%
X73523095Y-90853334D02*
X73523095Y-91662858D01*
X73570714Y-91758096D01*
X73618333Y-91805715D01*
X73713571Y-91853334D01*
X73904047Y-91853334D01*
X73999285Y-91805715D01*
X74046904Y-91758096D01*
X74094523Y-91662858D01*
X74094523Y-90853334D01*
X74475476Y-90853334D02*
X75094523Y-90853334D01*
X74761190Y-91234287D01*
X74904047Y-91234287D01*
X74999285Y-91281906D01*
X75046904Y-91329525D01*
X75094523Y-91424763D01*
X75094523Y-91662858D01*
X75046904Y-91758096D01*
X74999285Y-91805715D01*
X74904047Y-91853334D01*
X74618333Y-91853334D01*
X74523095Y-91805715D01*
X74475476Y-91758096D01*
%TO.C,R3*%
X79855705Y-174452380D02*
X79522372Y-173976190D01*
X79284276Y-174452380D02*
X79284276Y-173452380D01*
X79665229Y-173452380D01*
X79760467Y-173500000D01*
X79808086Y-173547619D01*
X79855705Y-173642857D01*
X79855705Y-173785714D01*
X79808086Y-173880952D01*
X79760467Y-173928571D01*
X79665229Y-173976190D01*
X79284276Y-173976190D01*
X80189038Y-173452380D02*
X80808086Y-173452380D01*
X80474752Y-173833333D01*
X80617610Y-173833333D01*
X80712848Y-173880952D01*
X80760467Y-173928571D01*
X80808086Y-174023809D01*
X80808086Y-174261904D01*
X80760467Y-174357142D01*
X80712848Y-174404761D01*
X80617610Y-174452380D01*
X80331895Y-174452380D01*
X80236657Y-174404761D01*
X80189038Y-174357142D01*
%TO.C,R6*%
X118822380Y-72166666D02*
X118346190Y-72500000D01*
X118822380Y-72738095D02*
X117822380Y-72738095D01*
X117822380Y-72357142D01*
X117870000Y-72261904D01*
X117917619Y-72214285D01*
X118012857Y-72166666D01*
X118155714Y-72166666D01*
X118250952Y-72214285D01*
X118298571Y-72261904D01*
X118346190Y-72357142D01*
X118346190Y-72738095D01*
X117822380Y-71309523D02*
X117822380Y-71500000D01*
X117870000Y-71595238D01*
X117917619Y-71642857D01*
X118060476Y-71738095D01*
X118250952Y-71785714D01*
X118631904Y-71785714D01*
X118727142Y-71738095D01*
X118774761Y-71690476D01*
X118822380Y-71595238D01*
X118822380Y-71404761D01*
X118774761Y-71309523D01*
X118727142Y-71261904D01*
X118631904Y-71214285D01*
X118393809Y-71214285D01*
X118298571Y-71261904D01*
X118250952Y-71309523D01*
X118203333Y-71404761D01*
X118203333Y-71595238D01*
X118250952Y-71690476D01*
X118298571Y-71738095D01*
X118393809Y-71785714D01*
%TO.C,J1*%
X32666666Y-15252380D02*
X32666666Y-15966666D01*
X32619047Y-16109523D01*
X32523809Y-16204761D01*
X32380952Y-16252380D01*
X32285714Y-16252380D01*
X33666666Y-16252380D02*
X33095238Y-16252380D01*
X33380952Y-16252380D02*
X33380952Y-15252380D01*
X33285714Y-15395238D01*
X33190476Y-15490476D01*
X33095238Y-15538095D01*
X32666666Y-22052380D02*
X32333333Y-21576190D01*
X32095238Y-22052380D02*
X32095238Y-21052380D01*
X32476190Y-21052380D01*
X32571428Y-21100000D01*
X32619047Y-21147619D01*
X32666666Y-21242857D01*
X32666666Y-21385714D01*
X32619047Y-21480952D01*
X32571428Y-21528571D01*
X32476190Y-21576190D01*
X32095238Y-21576190D01*
X33095238Y-21528571D02*
X33428571Y-21528571D01*
X33571428Y-22052380D02*
X33095238Y-22052380D01*
X33095238Y-21052380D01*
X33571428Y-21052380D01*
X34333333Y-21528571D02*
X34000000Y-21528571D01*
X34000000Y-22052380D02*
X34000000Y-21052380D01*
X34476190Y-21052380D01*
X35000000Y-21052380D02*
X35000000Y-21290476D01*
X34761904Y-21195238D02*
X35000000Y-21290476D01*
X35238095Y-21195238D01*
X34857142Y-21480952D02*
X35000000Y-21290476D01*
X35142857Y-21480952D01*
X35761904Y-21052380D02*
X35761904Y-21290476D01*
X35523809Y-21195238D02*
X35761904Y-21290476D01*
X36000000Y-21195238D01*
X35619047Y-21480952D02*
X35761904Y-21290476D01*
X35904761Y-21480952D01*
%TO.C,D4*%
X111651904Y-84462380D02*
X111651904Y-83462380D01*
X111890000Y-83462380D01*
X112032857Y-83510000D01*
X112128095Y-83605238D01*
X112175714Y-83700476D01*
X112223333Y-83890952D01*
X112223333Y-84033809D01*
X112175714Y-84224285D01*
X112128095Y-84319523D01*
X112032857Y-84414761D01*
X111890000Y-84462380D01*
X111651904Y-84462380D01*
X113080476Y-83795714D02*
X113080476Y-84462380D01*
X112842380Y-83414761D02*
X112604285Y-84129047D01*
X113223333Y-84129047D01*
%TO.C,U11*%
X73046904Y-107853334D02*
X73046904Y-108662858D01*
X73094523Y-108758096D01*
X73142142Y-108805715D01*
X73237380Y-108853334D01*
X73427857Y-108853334D01*
X73523095Y-108805715D01*
X73570714Y-108758096D01*
X73618333Y-108662858D01*
X73618333Y-107853334D01*
X74618333Y-108853334D02*
X74046904Y-108853334D01*
X74332619Y-108853334D02*
X74332619Y-107853334D01*
X74237380Y-107996192D01*
X74142142Y-108091430D01*
X74046904Y-108139049D01*
X75570714Y-108853334D02*
X74999285Y-108853334D01*
X75285000Y-108853334D02*
X75285000Y-107853334D01*
X75189761Y-107996192D01*
X75094523Y-108091430D01*
X74999285Y-108139049D01*
%TO.C,U14*%
X49046904Y-40853334D02*
X49046904Y-41662858D01*
X49094523Y-41758096D01*
X49142142Y-41805715D01*
X49237380Y-41853334D01*
X49427857Y-41853334D01*
X49523095Y-41805715D01*
X49570714Y-41758096D01*
X49618333Y-41662858D01*
X49618333Y-40853334D01*
X50618333Y-41853334D02*
X50046904Y-41853334D01*
X50332619Y-41853334D02*
X50332619Y-40853334D01*
X50237380Y-40996192D01*
X50142142Y-41091430D01*
X50046904Y-41139049D01*
X51475476Y-41186668D02*
X51475476Y-41853334D01*
X51237380Y-40805715D02*
X50999285Y-41520001D01*
X51618333Y-41520001D01*
%TO.C,U20*%
X116482380Y-121248095D02*
X117291904Y-121248095D01*
X117387142Y-121200476D01*
X117434761Y-121152857D01*
X117482380Y-121057619D01*
X117482380Y-120867142D01*
X117434761Y-120771904D01*
X117387142Y-120724285D01*
X117291904Y-120676666D01*
X116482380Y-120676666D01*
X116577619Y-120248095D02*
X116530000Y-120200476D01*
X116482380Y-120105238D01*
X116482380Y-119867142D01*
X116530000Y-119771904D01*
X116577619Y-119724285D01*
X116672857Y-119676666D01*
X116768095Y-119676666D01*
X116910952Y-119724285D01*
X117482380Y-120295714D01*
X117482380Y-119676666D01*
X116482380Y-119057619D02*
X116482380Y-118962380D01*
X116530000Y-118867142D01*
X116577619Y-118819523D01*
X116672857Y-118771904D01*
X116863333Y-118724285D01*
X117101428Y-118724285D01*
X117291904Y-118771904D01*
X117387142Y-118819523D01*
X117434761Y-118867142D01*
X117482380Y-118962380D01*
X117482380Y-119057619D01*
X117434761Y-119152857D01*
X117387142Y-119200476D01*
X117291904Y-119248095D01*
X117101428Y-119295714D01*
X116863333Y-119295714D01*
X116672857Y-119248095D01*
X116577619Y-119200476D01*
X116530000Y-119152857D01*
X116482380Y-119057619D01*
%TO.C,R12*%
X113822380Y-72642857D02*
X113346190Y-72976190D01*
X113822380Y-73214285D02*
X112822380Y-73214285D01*
X112822380Y-72833333D01*
X112870000Y-72738095D01*
X112917619Y-72690476D01*
X113012857Y-72642857D01*
X113155714Y-72642857D01*
X113250952Y-72690476D01*
X113298571Y-72738095D01*
X113346190Y-72833333D01*
X113346190Y-73214285D01*
X113822380Y-71690476D02*
X113822380Y-72261904D01*
X113822380Y-71976190D02*
X112822380Y-71976190D01*
X112965238Y-72071428D01*
X113060476Y-72166666D01*
X113108095Y-72261904D01*
X112917619Y-71309523D02*
X112870000Y-71261904D01*
X112822380Y-71166666D01*
X112822380Y-70928571D01*
X112870000Y-70833333D01*
X112917619Y-70785714D01*
X113012857Y-70738095D01*
X113108095Y-70738095D01*
X113250952Y-70785714D01*
X113822380Y-71357142D01*
X113822380Y-70738095D01*
%TO.C,U17*%
X49046904Y-74853334D02*
X49046904Y-75662858D01*
X49094523Y-75758096D01*
X49142142Y-75805715D01*
X49237380Y-75853334D01*
X49427857Y-75853334D01*
X49523095Y-75805715D01*
X49570714Y-75758096D01*
X49618333Y-75662858D01*
X49618333Y-74853334D01*
X50618333Y-75853334D02*
X50046904Y-75853334D01*
X50332619Y-75853334D02*
X50332619Y-74853334D01*
X50237380Y-74996192D01*
X50142142Y-75091430D01*
X50046904Y-75139049D01*
X50951666Y-74853334D02*
X51618333Y-74853334D01*
X51189761Y-75853334D01*
%TO.C,R5*%
X104084380Y-71540666D02*
X103608190Y-71874000D01*
X104084380Y-72112095D02*
X103084380Y-72112095D01*
X103084380Y-71731142D01*
X103132000Y-71635904D01*
X103179619Y-71588285D01*
X103274857Y-71540666D01*
X103417714Y-71540666D01*
X103512952Y-71588285D01*
X103560571Y-71635904D01*
X103608190Y-71731142D01*
X103608190Y-72112095D01*
X103084380Y-70635904D02*
X103084380Y-71112095D01*
X103560571Y-71159714D01*
X103512952Y-71112095D01*
X103465333Y-71016857D01*
X103465333Y-70778761D01*
X103512952Y-70683523D01*
X103560571Y-70635904D01*
X103655809Y-70588285D01*
X103893904Y-70588285D01*
X103989142Y-70635904D01*
X104036761Y-70683523D01*
X104084380Y-70778761D01*
X104084380Y-71016857D01*
X104036761Y-71112095D01*
X103989142Y-71159714D01*
%TO.C,U2*%
X64228095Y-20723334D02*
X64228095Y-21532858D01*
X64275714Y-21628096D01*
X64323333Y-21675715D01*
X64418571Y-21723334D01*
X64609047Y-21723334D01*
X64704285Y-21675715D01*
X64751904Y-21628096D01*
X64799523Y-21532858D01*
X64799523Y-20723334D01*
X65228095Y-20818573D02*
X65275714Y-20770954D01*
X65370952Y-20723334D01*
X65609047Y-20723334D01*
X65704285Y-20770954D01*
X65751904Y-20818573D01*
X65799523Y-20913811D01*
X65799523Y-21009049D01*
X65751904Y-21151906D01*
X65180476Y-21723334D01*
X65799523Y-21723334D01*
%TO.C,U16*%
X87497380Y-159228095D02*
X88306904Y-159228095D01*
X88402142Y-159180476D01*
X88449761Y-159132857D01*
X88497380Y-159037619D01*
X88497380Y-158847142D01*
X88449761Y-158751904D01*
X88402142Y-158704285D01*
X88306904Y-158656666D01*
X87497380Y-158656666D01*
X88497380Y-157656666D02*
X88497380Y-158228095D01*
X88497380Y-157942380D02*
X87497380Y-157942380D01*
X87640238Y-158037619D01*
X87735476Y-158132857D01*
X87783095Y-158228095D01*
X87497380Y-156799523D02*
X87497380Y-156990000D01*
X87545000Y-157085238D01*
X87592619Y-157132857D01*
X87735476Y-157228095D01*
X87925952Y-157275714D01*
X88306904Y-157275714D01*
X88402142Y-157228095D01*
X88449761Y-157180476D01*
X88497380Y-157085238D01*
X88497380Y-156894761D01*
X88449761Y-156799523D01*
X88402142Y-156751904D01*
X88306904Y-156704285D01*
X88068809Y-156704285D01*
X87973571Y-156751904D01*
X87925952Y-156799523D01*
X87878333Y-156894761D01*
X87878333Y-157085238D01*
X87925952Y-157180476D01*
X87973571Y-157228095D01*
X88068809Y-157275714D01*
%TO.C,U13*%
X55407380Y-164248095D02*
X56216904Y-164248095D01*
X56312142Y-164200476D01*
X56359761Y-164152857D01*
X56407380Y-164057619D01*
X56407380Y-163867142D01*
X56359761Y-163771904D01*
X56312142Y-163724285D01*
X56216904Y-163676666D01*
X55407380Y-163676666D01*
X56407380Y-162676666D02*
X56407380Y-163248095D01*
X56407380Y-162962380D02*
X55407380Y-162962380D01*
X55550238Y-163057619D01*
X55645476Y-163152857D01*
X55693095Y-163248095D01*
X55407380Y-162343333D02*
X55407380Y-161724285D01*
X55788333Y-162057619D01*
X55788333Y-161914761D01*
X55835952Y-161819523D01*
X55883571Y-161771904D01*
X55978809Y-161724285D01*
X56216904Y-161724285D01*
X56312142Y-161771904D01*
X56359761Y-161819523D01*
X56407380Y-161914761D01*
X56407380Y-162200476D01*
X56359761Y-162295714D01*
X56312142Y-162343333D01*
%TO.C,R2*%
X79900705Y-177452380D02*
X79567372Y-176976190D01*
X79329276Y-177452380D02*
X79329276Y-176452380D01*
X79710229Y-176452380D01*
X79805467Y-176500000D01*
X79853086Y-176547619D01*
X79900705Y-176642857D01*
X79900705Y-176785714D01*
X79853086Y-176880952D01*
X79805467Y-176928571D01*
X79710229Y-176976190D01*
X79329276Y-176976190D01*
X80281657Y-176547619D02*
X80329276Y-176500000D01*
X80424514Y-176452380D01*
X80662610Y-176452380D01*
X80757848Y-176500000D01*
X80805467Y-176547619D01*
X80853086Y-176642857D01*
X80853086Y-176738095D01*
X80805467Y-176880952D01*
X80234038Y-177452380D01*
X80853086Y-177452380D01*
%TO.C,J2*%
X124440666Y-157652380D02*
X124440666Y-158366666D01*
X124393047Y-158509523D01*
X124297809Y-158604761D01*
X124154952Y-158652380D01*
X124059714Y-158652380D01*
X124869238Y-157747619D02*
X124916857Y-157700000D01*
X125012095Y-157652380D01*
X125250190Y-157652380D01*
X125345428Y-157700000D01*
X125393047Y-157747619D01*
X125440666Y-157842857D01*
X125440666Y-157938095D01*
X125393047Y-158080952D01*
X124821619Y-158652380D01*
X125440666Y-158652380D01*
%TO.C,D1*%
X100711904Y-84442380D02*
X100711904Y-83442380D01*
X100950000Y-83442380D01*
X101092857Y-83490000D01*
X101188095Y-83585238D01*
X101235714Y-83680476D01*
X101283333Y-83870952D01*
X101283333Y-84013809D01*
X101235714Y-84204285D01*
X101188095Y-84299523D01*
X101092857Y-84394761D01*
X100950000Y-84442380D01*
X100711904Y-84442380D01*
X102235714Y-84442380D02*
X101664285Y-84442380D01*
X101950000Y-84442380D02*
X101950000Y-83442380D01*
X101854761Y-83585238D01*
X101759523Y-83680476D01*
X101664285Y-83728095D01*
%TO.C,SW2*%
X40707133Y-177790833D02*
X40754752Y-177647976D01*
X40754752Y-177409880D01*
X40707133Y-177314642D01*
X40659514Y-177267023D01*
X40564276Y-177219404D01*
X40469038Y-177219404D01*
X40373800Y-177267023D01*
X40326181Y-177314642D01*
X40278562Y-177409880D01*
X40230943Y-177600357D01*
X40183324Y-177695595D01*
X40135705Y-177743214D01*
X40040467Y-177790833D01*
X39945229Y-177790833D01*
X39849991Y-177743214D01*
X39802372Y-177695595D01*
X39754752Y-177600357D01*
X39754752Y-177362261D01*
X39802372Y-177219404D01*
X39754752Y-176886071D02*
X40754752Y-176647976D01*
X40040467Y-176457500D01*
X40754752Y-176267023D01*
X39754752Y-176028928D01*
X39849991Y-175695595D02*
X39802372Y-175647976D01*
X39754752Y-175552738D01*
X39754752Y-175314642D01*
X39802372Y-175219404D01*
X39849991Y-175171785D01*
X39945229Y-175124166D01*
X40040467Y-175124166D01*
X40183324Y-175171785D01*
X40754752Y-175743214D01*
X40754752Y-175124166D01*
%TO.C,U22*%
X121771904Y-161497380D02*
X121771904Y-162306904D01*
X121819523Y-162402142D01*
X121867142Y-162449761D01*
X121962380Y-162497380D01*
X122152857Y-162497380D01*
X122248095Y-162449761D01*
X122295714Y-162402142D01*
X122343333Y-162306904D01*
X122343333Y-161497380D01*
X122771904Y-161592619D02*
X122819523Y-161545000D01*
X122914761Y-161497380D01*
X123152857Y-161497380D01*
X123248095Y-161545000D01*
X123295714Y-161592619D01*
X123343333Y-161687857D01*
X123343333Y-161783095D01*
X123295714Y-161925952D01*
X122724285Y-162497380D01*
X123343333Y-162497380D01*
X123724285Y-161592619D02*
X123771904Y-161545000D01*
X123867142Y-161497380D01*
X124105238Y-161497380D01*
X124200476Y-161545000D01*
X124248095Y-161592619D01*
X124295714Y-161687857D01*
X124295714Y-161783095D01*
X124248095Y-161925952D01*
X123676666Y-162497380D01*
X124295714Y-162497380D01*
%TO.C,U18*%
X120407380Y-65248095D02*
X121216904Y-65248095D01*
X121312142Y-65200476D01*
X121359761Y-65152857D01*
X121407380Y-65057619D01*
X121407380Y-64867142D01*
X121359761Y-64771904D01*
X121312142Y-64724285D01*
X121216904Y-64676666D01*
X120407380Y-64676666D01*
X121407380Y-63676666D02*
X121407380Y-64248095D01*
X121407380Y-63962380D02*
X120407380Y-63962380D01*
X120550238Y-64057619D01*
X120645476Y-64152857D01*
X120693095Y-64248095D01*
X120835952Y-63105238D02*
X120788333Y-63200476D01*
X120740714Y-63248095D01*
X120645476Y-63295714D01*
X120597857Y-63295714D01*
X120502619Y-63248095D01*
X120455000Y-63200476D01*
X120407380Y-63105238D01*
X120407380Y-62914761D01*
X120455000Y-62819523D01*
X120502619Y-62771904D01*
X120597857Y-62724285D01*
X120645476Y-62724285D01*
X120740714Y-62771904D01*
X120788333Y-62819523D01*
X120835952Y-62914761D01*
X120835952Y-63105238D01*
X120883571Y-63200476D01*
X120931190Y-63248095D01*
X121026428Y-63295714D01*
X121216904Y-63295714D01*
X121312142Y-63248095D01*
X121359761Y-63200476D01*
X121407380Y-63105238D01*
X121407380Y-62914761D01*
X121359761Y-62819523D01*
X121312142Y-62771904D01*
X121216904Y-62724285D01*
X121026428Y-62724285D01*
X120931190Y-62771904D01*
X120883571Y-62819523D01*
X120835952Y-62914761D01*
%TO.C,U1*%
X73523095Y-56853334D02*
X73523095Y-57662858D01*
X73570714Y-57758096D01*
X73618333Y-57805715D01*
X73713571Y-57853334D01*
X73904047Y-57853334D01*
X73999285Y-57805715D01*
X74046904Y-57758096D01*
X74094523Y-57662858D01*
X74094523Y-56853334D01*
X75094523Y-57853334D02*
X74523095Y-57853334D01*
X74808809Y-57853334D02*
X74808809Y-56853334D01*
X74713571Y-56996192D01*
X74618333Y-57091430D01*
X74523095Y-57139049D01*
%TO.C,R8*%
X31315705Y-174952380D02*
X30982372Y-174476190D01*
X30744276Y-174952380D02*
X30744276Y-173952380D01*
X31125229Y-173952380D01*
X31220467Y-174000000D01*
X31268086Y-174047619D01*
X31315705Y-174142857D01*
X31315705Y-174285714D01*
X31268086Y-174380952D01*
X31220467Y-174428571D01*
X31125229Y-174476190D01*
X30744276Y-174476190D01*
X31887133Y-174380952D02*
X31791895Y-174333333D01*
X31744276Y-174285714D01*
X31696657Y-174190476D01*
X31696657Y-174142857D01*
X31744276Y-174047619D01*
X31791895Y-174000000D01*
X31887133Y-173952380D01*
X32077610Y-173952380D01*
X32172848Y-174000000D01*
X32220467Y-174047619D01*
X32268086Y-174142857D01*
X32268086Y-174190476D01*
X32220467Y-174285714D01*
X32172848Y-174333333D01*
X32077610Y-174380952D01*
X31887133Y-174380952D01*
X31791895Y-174428571D01*
X31744276Y-174476190D01*
X31696657Y-174571428D01*
X31696657Y-174761904D01*
X31744276Y-174857142D01*
X31791895Y-174904761D01*
X31887133Y-174952380D01*
X32077610Y-174952380D01*
X32172848Y-174904761D01*
X32220467Y-174857142D01*
X32268086Y-174761904D01*
X32268086Y-174571428D01*
X32220467Y-174476190D01*
X32172848Y-174428571D01*
X32077610Y-174380952D01*
%TO.C,U9*%
X49523095Y-57853334D02*
X49523095Y-58662858D01*
X49570714Y-58758096D01*
X49618333Y-58805715D01*
X49713571Y-58853334D01*
X49904047Y-58853334D01*
X49999285Y-58805715D01*
X50046904Y-58758096D01*
X50094523Y-58662858D01*
X50094523Y-57853334D01*
X50618333Y-58853334D02*
X50808809Y-58853334D01*
X50904047Y-58805715D01*
X50951666Y-58758096D01*
X51046904Y-58615239D01*
X51094523Y-58424763D01*
X51094523Y-58043811D01*
X51046904Y-57948573D01*
X50999285Y-57900954D01*
X50904047Y-57853334D01*
X50713571Y-57853334D01*
X50618333Y-57900954D01*
X50570714Y-57948573D01*
X50523095Y-58043811D01*
X50523095Y-58281906D01*
X50570714Y-58377144D01*
X50618333Y-58424763D01*
X50713571Y-58472382D01*
X50904047Y-58472382D01*
X50999285Y-58424763D01*
X51046904Y-58377144D01*
X51094523Y-58281906D01*
%TO.C,C2*%
X42047142Y-131766666D02*
X42094761Y-131814285D01*
X42142380Y-131957142D01*
X42142380Y-132052380D01*
X42094761Y-132195238D01*
X41999523Y-132290476D01*
X41904285Y-132338095D01*
X41713809Y-132385714D01*
X41570952Y-132385714D01*
X41380476Y-132338095D01*
X41285238Y-132290476D01*
X41190000Y-132195238D01*
X41142380Y-132052380D01*
X41142380Y-131957142D01*
X41190000Y-131814285D01*
X41237619Y-131766666D01*
X41237619Y-131385714D02*
X41190000Y-131338095D01*
X41142380Y-131242857D01*
X41142380Y-131004761D01*
X41190000Y-130909523D01*
X41237619Y-130861904D01*
X41332857Y-130814285D01*
X41428095Y-130814285D01*
X41570952Y-130861904D01*
X42142380Y-131433333D01*
X42142380Y-130814285D01*
%TO.C,C1*%
X127357142Y-58936666D02*
X127404761Y-58984285D01*
X127452380Y-59127142D01*
X127452380Y-59222380D01*
X127404761Y-59365238D01*
X127309523Y-59460476D01*
X127214285Y-59508095D01*
X127023809Y-59555714D01*
X126880952Y-59555714D01*
X126690476Y-59508095D01*
X126595238Y-59460476D01*
X126500000Y-59365238D01*
X126452380Y-59222380D01*
X126452380Y-59127142D01*
X126500000Y-58984285D01*
X126547619Y-58936666D01*
X127452380Y-57984285D02*
X127452380Y-58555714D01*
X127452380Y-58270000D02*
X126452380Y-58270000D01*
X126595238Y-58365238D01*
X126690476Y-58460476D01*
X126738095Y-58555714D01*
%TO.C,U12*%
X55407380Y-147248095D02*
X56216904Y-147248095D01*
X56312142Y-147200476D01*
X56359761Y-147152857D01*
X56407380Y-147057619D01*
X56407380Y-146867142D01*
X56359761Y-146771904D01*
X56312142Y-146724285D01*
X56216904Y-146676666D01*
X55407380Y-146676666D01*
X56407380Y-145676666D02*
X56407380Y-146248095D01*
X56407380Y-145962380D02*
X55407380Y-145962380D01*
X55550238Y-146057619D01*
X55645476Y-146152857D01*
X55693095Y-146248095D01*
X55502619Y-145295714D02*
X55455000Y-145248095D01*
X55407380Y-145152857D01*
X55407380Y-144914761D01*
X55455000Y-144819523D01*
X55502619Y-144771904D01*
X55597857Y-144724285D01*
X55693095Y-144724285D01*
X55835952Y-144771904D01*
X56407380Y-145343333D01*
X56407380Y-144724285D01*
%TO.C,C7*%
X96633333Y-23357142D02*
X96585714Y-23404761D01*
X96442857Y-23452380D01*
X96347619Y-23452380D01*
X96204761Y-23404761D01*
X96109523Y-23309523D01*
X96061904Y-23214285D01*
X96014285Y-23023809D01*
X96014285Y-22880952D01*
X96061904Y-22690476D01*
X96109523Y-22595238D01*
X96204761Y-22500000D01*
X96347619Y-22452380D01*
X96442857Y-22452380D01*
X96585714Y-22500000D01*
X96633333Y-22547619D01*
X96966666Y-22452380D02*
X97633333Y-22452380D01*
X97204761Y-23452380D01*
%TO.C,C4*%
X118783333Y-184177142D02*
X118735714Y-184224761D01*
X118592857Y-184272380D01*
X118497619Y-184272380D01*
X118354761Y-184224761D01*
X118259523Y-184129523D01*
X118211904Y-184034285D01*
X118164285Y-183843809D01*
X118164285Y-183700952D01*
X118211904Y-183510476D01*
X118259523Y-183415238D01*
X118354761Y-183320000D01*
X118497619Y-183272380D01*
X118592857Y-183272380D01*
X118735714Y-183320000D01*
X118783333Y-183367619D01*
X119640476Y-183605714D02*
X119640476Y-184272380D01*
X119402380Y-183224761D02*
X119164285Y-183939047D01*
X119783333Y-183939047D01*
%TO.C,C3*%
X96483333Y-30217142D02*
X96435714Y-30264761D01*
X96292857Y-30312380D01*
X96197619Y-30312380D01*
X96054761Y-30264761D01*
X95959523Y-30169523D01*
X95911904Y-30074285D01*
X95864285Y-29883809D01*
X95864285Y-29740952D01*
X95911904Y-29550476D01*
X95959523Y-29455238D01*
X96054761Y-29360000D01*
X96197619Y-29312380D01*
X96292857Y-29312380D01*
X96435714Y-29360000D01*
X96483333Y-29407619D01*
X96816666Y-29312380D02*
X97435714Y-29312380D01*
X97102380Y-29693333D01*
X97245238Y-29693333D01*
X97340476Y-29740952D01*
X97388095Y-29788571D01*
X97435714Y-29883809D01*
X97435714Y-30121904D01*
X97388095Y-30217142D01*
X97340476Y-30264761D01*
X97245238Y-30312380D01*
X96959523Y-30312380D01*
X96864285Y-30264761D01*
X96816666Y-30217142D01*
%TO.C,D2*%
X117141904Y-84452380D02*
X117141904Y-83452380D01*
X117380000Y-83452380D01*
X117522857Y-83500000D01*
X117618095Y-83595238D01*
X117665714Y-83690476D01*
X117713333Y-83880952D01*
X117713333Y-84023809D01*
X117665714Y-84214285D01*
X117618095Y-84309523D01*
X117522857Y-84404761D01*
X117380000Y-84452380D01*
X117141904Y-84452380D01*
X118094285Y-83547619D02*
X118141904Y-83500000D01*
X118237142Y-83452380D01*
X118475238Y-83452380D01*
X118570476Y-83500000D01*
X118618095Y-83547619D01*
X118665714Y-83642857D01*
X118665714Y-83738095D01*
X118618095Y-83880952D01*
X118046666Y-84452380D01*
X118665714Y-84452380D01*
%TO.C,SW1*%
X56707133Y-177790833D02*
X56754752Y-177647976D01*
X56754752Y-177409880D01*
X56707133Y-177314642D01*
X56659514Y-177267023D01*
X56564276Y-177219404D01*
X56469038Y-177219404D01*
X56373800Y-177267023D01*
X56326181Y-177314642D01*
X56278562Y-177409880D01*
X56230943Y-177600357D01*
X56183324Y-177695595D01*
X56135705Y-177743214D01*
X56040467Y-177790833D01*
X55945229Y-177790833D01*
X55849991Y-177743214D01*
X55802372Y-177695595D01*
X55754752Y-177600357D01*
X55754752Y-177362261D01*
X55802372Y-177219404D01*
X55754752Y-176886071D02*
X56754752Y-176647976D01*
X56040467Y-176457500D01*
X56754752Y-176267023D01*
X55754752Y-176028928D01*
X56754752Y-175124166D02*
X56754752Y-175695595D01*
X56754752Y-175409880D02*
X55754752Y-175409880D01*
X55897610Y-175505119D01*
X55992848Y-175600357D01*
X56040467Y-175695595D01*
%TO.C,C8*%
X127177142Y-48316666D02*
X127224761Y-48364285D01*
X127272380Y-48507142D01*
X127272380Y-48602380D01*
X127224761Y-48745238D01*
X127129523Y-48840476D01*
X127034285Y-48888095D01*
X126843809Y-48935714D01*
X126700952Y-48935714D01*
X126510476Y-48888095D01*
X126415238Y-48840476D01*
X126320000Y-48745238D01*
X126272380Y-48602380D01*
X126272380Y-48507142D01*
X126320000Y-48364285D01*
X126367619Y-48316666D01*
X126700952Y-47745238D02*
X126653333Y-47840476D01*
X126605714Y-47888095D01*
X126510476Y-47935714D01*
X126462857Y-47935714D01*
X126367619Y-47888095D01*
X126320000Y-47840476D01*
X126272380Y-47745238D01*
X126272380Y-47554761D01*
X126320000Y-47459523D01*
X126367619Y-47411904D01*
X126462857Y-47364285D01*
X126510476Y-47364285D01*
X126605714Y-47411904D01*
X126653333Y-47459523D01*
X126700952Y-47554761D01*
X126700952Y-47745238D01*
X126748571Y-47840476D01*
X126796190Y-47888095D01*
X126891428Y-47935714D01*
X127081904Y-47935714D01*
X127177142Y-47888095D01*
X127224761Y-47840476D01*
X127272380Y-47745238D01*
X127272380Y-47554761D01*
X127224761Y-47459523D01*
X127177142Y-47411904D01*
X127081904Y-47364285D01*
X126891428Y-47364285D01*
X126796190Y-47411904D01*
X126748571Y-47459523D01*
X126700952Y-47554761D01*
%TO.C,U21*%
X116582380Y-105048095D02*
X117391904Y-105048095D01*
X117487142Y-105000476D01*
X117534761Y-104952857D01*
X117582380Y-104857619D01*
X117582380Y-104667142D01*
X117534761Y-104571904D01*
X117487142Y-104524285D01*
X117391904Y-104476666D01*
X116582380Y-104476666D01*
X116677619Y-104048095D02*
X116630000Y-104000476D01*
X116582380Y-103905238D01*
X116582380Y-103667142D01*
X116630000Y-103571904D01*
X116677619Y-103524285D01*
X116772857Y-103476666D01*
X116868095Y-103476666D01*
X117010952Y-103524285D01*
X117582380Y-104095714D01*
X117582380Y-103476666D01*
X117582380Y-102524285D02*
X117582380Y-103095714D01*
X117582380Y-102810000D02*
X116582380Y-102810000D01*
X116725238Y-102905238D01*
X116820476Y-103000476D01*
X116868095Y-103095714D01*
%TO.C,R11*%
X108822380Y-72642857D02*
X108346190Y-72976190D01*
X108822380Y-73214285D02*
X107822380Y-73214285D01*
X107822380Y-72833333D01*
X107870000Y-72738095D01*
X107917619Y-72690476D01*
X108012857Y-72642857D01*
X108155714Y-72642857D01*
X108250952Y-72690476D01*
X108298571Y-72738095D01*
X108346190Y-72833333D01*
X108346190Y-73214285D01*
X108822380Y-71690476D02*
X108822380Y-72261904D01*
X108822380Y-71976190D02*
X107822380Y-71976190D01*
X107965238Y-72071428D01*
X108060476Y-72166666D01*
X108108095Y-72261904D01*
X108822380Y-70738095D02*
X108822380Y-71309523D01*
X108822380Y-71023809D02*
X107822380Y-71023809D01*
X107965238Y-71119047D01*
X108060476Y-71214285D01*
X108108095Y-71309523D01*
%TO.C,R7*%
X31315705Y-171952380D02*
X30982372Y-171476190D01*
X30744276Y-171952380D02*
X30744276Y-170952380D01*
X31125229Y-170952380D01*
X31220467Y-171000000D01*
X31268086Y-171047619D01*
X31315705Y-171142857D01*
X31315705Y-171285714D01*
X31268086Y-171380952D01*
X31220467Y-171428571D01*
X31125229Y-171476190D01*
X30744276Y-171476190D01*
X31649038Y-170952380D02*
X32315705Y-170952380D01*
X31887133Y-171952380D01*
%TO.C,U15*%
X87497380Y-185228095D02*
X88306904Y-185228095D01*
X88402142Y-185180476D01*
X88449761Y-185132857D01*
X88497380Y-185037619D01*
X88497380Y-184847142D01*
X88449761Y-184751904D01*
X88402142Y-184704285D01*
X88306904Y-184656666D01*
X87497380Y-184656666D01*
X88497380Y-183656666D02*
X88497380Y-184228095D01*
X88497380Y-183942380D02*
X87497380Y-183942380D01*
X87640238Y-184037619D01*
X87735476Y-184132857D01*
X87783095Y-184228095D01*
X87497380Y-182751904D02*
X87497380Y-183228095D01*
X87973571Y-183275714D01*
X87925952Y-183228095D01*
X87878333Y-183132857D01*
X87878333Y-182894761D01*
X87925952Y-182799523D01*
X87973571Y-182751904D01*
X88068809Y-182704285D01*
X88306904Y-182704285D01*
X88402142Y-182751904D01*
X88449761Y-182799523D01*
X88497380Y-182894761D01*
X88497380Y-183132857D01*
X88449761Y-183228095D01*
X88402142Y-183275714D01*
%TO.C,R4*%
X79850705Y-171452380D02*
X79517372Y-170976190D01*
X79279276Y-171452380D02*
X79279276Y-170452380D01*
X79660229Y-170452380D01*
X79755467Y-170500000D01*
X79803086Y-170547619D01*
X79850705Y-170642857D01*
X79850705Y-170785714D01*
X79803086Y-170880952D01*
X79755467Y-170928571D01*
X79660229Y-170976190D01*
X79279276Y-170976190D01*
X80707848Y-170785714D02*
X80707848Y-171452380D01*
X80469752Y-170404761D02*
X80231657Y-171119047D01*
X80850705Y-171119047D01*
%TO.C,C6*%
X84357142Y-176266666D02*
X84404761Y-176314285D01*
X84452380Y-176457142D01*
X84452380Y-176552380D01*
X84404761Y-176695238D01*
X84309523Y-176790476D01*
X84214285Y-176838095D01*
X84023809Y-176885714D01*
X83880952Y-176885714D01*
X83690476Y-176838095D01*
X83595238Y-176790476D01*
X83500000Y-176695238D01*
X83452380Y-176552380D01*
X83452380Y-176457142D01*
X83500000Y-176314285D01*
X83547619Y-176266666D01*
X83452380Y-175409523D02*
X83452380Y-175600000D01*
X83500000Y-175695238D01*
X83547619Y-175742857D01*
X83690476Y-175838095D01*
X83880952Y-175885714D01*
X84261904Y-175885714D01*
X84357142Y-175838095D01*
X84404761Y-175790476D01*
X84452380Y-175695238D01*
X84452380Y-175504761D01*
X84404761Y-175409523D01*
X84357142Y-175361904D01*
X84261904Y-175314285D01*
X84023809Y-175314285D01*
X83928571Y-175361904D01*
X83880952Y-175409523D01*
X83833333Y-175504761D01*
X83833333Y-175695238D01*
X83880952Y-175790476D01*
X83928571Y-175838095D01*
X84023809Y-175885714D01*
D11*
%TO.C,U19*%
X119955000Y-46360000D02*
X102055000Y-46360000D01*
X120015000Y-43870000D02*
X101995000Y-43870000D01*
X119955000Y-51660000D02*
X119955000Y-50010000D01*
X101995000Y-43870000D02*
X101995000Y-54150000D01*
X101995000Y-54150000D02*
X120015000Y-54150000D01*
X102055000Y-46360000D02*
X102055000Y-51660000D01*
X120015000Y-54150000D02*
X120015000Y-43870000D01*
X119955000Y-48010000D02*
X119955000Y-46360000D01*
X102055000Y-51660000D02*
X119955000Y-51660000D01*
X119955000Y-48010000D02*
G75*
G03*
X119955000Y-50010000I0J-1000000D01*
G01*
%TO.C,U6*%
X88985000Y-150130000D02*
X107005000Y-150130000D01*
X107005000Y-150130000D02*
X107005000Y-139850000D01*
X106945000Y-142340000D02*
X89045000Y-142340000D01*
X106945000Y-147640000D02*
X106945000Y-142340000D01*
X88985000Y-139850000D02*
X88985000Y-150130000D01*
X89045000Y-142340000D02*
X89045000Y-143990000D01*
X89045000Y-145990000D02*
X89045000Y-147640000D01*
X89045000Y-147640000D02*
X106945000Y-147640000D01*
X107005000Y-139850000D02*
X88985000Y-139850000D01*
X89045000Y-145990000D02*
G75*
G03*
X89045000Y-143990000I0J1000000D01*
G01*
%TO.C,D3*%
X108965000Y-81939000D02*
X108965000Y-81620000D01*
X108965000Y-79460000D02*
X108965000Y-79141000D01*
X108588330Y-79460000D02*
G75*
G03*
X105222287Y-79459039I-1683330J-1080000D01*
G01*
X108965000Y-79141251D02*
G75*
G03*
X104661758Y-79459276I-2060000J-1398748D01*
G01*
X105222287Y-81620961D02*
G75*
G03*
X108588330Y-81620000I1682713J1080961D01*
G01*
X104661758Y-81620724D02*
G75*
G03*
X108965000Y-81938749I2243242J1080723D01*
G01*
%TO.C,U5*%
X80390000Y-158070000D02*
X62370000Y-158070000D01*
X80330000Y-162210000D02*
X80330000Y-160560000D01*
X62370000Y-158070000D02*
X62370000Y-168350000D01*
X80330000Y-160560000D02*
X62430000Y-160560000D01*
X80390000Y-168350000D02*
X80390000Y-158070000D01*
X80330000Y-165860000D02*
X80330000Y-164210000D01*
X62430000Y-160560000D02*
X62430000Y-165860000D01*
X62370000Y-168350000D02*
X80390000Y-168350000D01*
X62430000Y-165860000D02*
X80330000Y-165860000D01*
X80330000Y-162210000D02*
G75*
G03*
X80330000Y-164210000I0J-1000000D01*
G01*
%TO.C,U10*%
X72975000Y-75290954D02*
X77975000Y-75290954D01*
X74975000Y-88350954D02*
X80975000Y-88350954D01*
%TO.C,U7*%
X88985000Y-165850000D02*
X88985000Y-176130000D01*
X89045000Y-168340000D02*
X89045000Y-169990000D01*
X107005000Y-165850000D02*
X88985000Y-165850000D01*
X89045000Y-171990000D02*
X89045000Y-173640000D01*
X106945000Y-173640000D02*
X106945000Y-168340000D01*
X88985000Y-176130000D02*
X107005000Y-176130000D01*
X107005000Y-176130000D02*
X107005000Y-165850000D01*
X89045000Y-173640000D02*
X106945000Y-173640000D01*
X106945000Y-168340000D02*
X89045000Y-168340000D01*
X89045000Y-171990000D02*
G75*
G03*
X89045000Y-169990000I0J1000000D01*
G01*
%TO.C,R9*%
X35352372Y-177500000D02*
X35422372Y-177500000D01*
X35352372Y-177500000D02*
G75*
G03*
X35352372Y-177500000I-1370000J0D01*
G01*
%TO.C,R10*%
X35352372Y-180500000D02*
X35422372Y-180500000D01*
X35352372Y-180500000D02*
G75*
G03*
X35352372Y-180500000I-1370000J0D01*
G01*
%TO.C,R1*%
X76197372Y-180000000D02*
X76127372Y-180000000D01*
X78937372Y-180000000D02*
G75*
G03*
X78937372Y-180000000I-1370000J0D01*
G01*
%TO.C,U4*%
X62430000Y-143360000D02*
X62430000Y-148660000D01*
X80330000Y-143360000D02*
X62430000Y-143360000D01*
X80330000Y-145010000D02*
X80330000Y-143360000D01*
X62430000Y-148660000D02*
X80330000Y-148660000D01*
X80330000Y-148660000D02*
X80330000Y-147010000D01*
X80390000Y-151150000D02*
X80390000Y-140870000D01*
X80390000Y-140870000D02*
X62370000Y-140870000D01*
X62370000Y-140870000D02*
X62370000Y-151150000D01*
X62370000Y-151150000D02*
X80390000Y-151150000D01*
X80330000Y-145010000D02*
G75*
G03*
X80330000Y-147010000I0J-1000000D01*
G01*
%TO.C,U8*%
X50975000Y-38350954D02*
X56975000Y-38350954D01*
X48975000Y-25290954D02*
X53975000Y-25290954D01*
%TO.C,C5*%
X45970000Y-134820000D02*
X45970000Y-128580000D01*
X48710000Y-134820000D02*
X48710000Y-128580000D01*
X48265000Y-128580000D02*
X48710000Y-128580000D01*
X45970000Y-128580000D02*
X46415000Y-128580000D01*
X45970000Y-134820000D02*
X46415000Y-134820000D01*
X48265000Y-134820000D02*
X48710000Y-134820000D01*
%TO.C,U3*%
X74975000Y-105350954D02*
X80975000Y-105350954D01*
X72975000Y-92290954D02*
X77975000Y-92290954D01*
%TO.C,R3*%
X76197372Y-174000000D02*
X76127372Y-174000000D01*
X78937372Y-174000000D02*
G75*
G03*
X78937372Y-174000000I-1370000J0D01*
G01*
%TO.C,R6*%
X116000000Y-73370000D02*
X116000000Y-73440000D01*
X117370000Y-72000000D02*
G75*
G03*
X117370000Y-72000000I-1370000J0D01*
G01*
%TO.C,J1*%
X28530000Y-15770954D02*
X28530000Y-14500954D01*
X28530000Y-14500954D02*
X29800000Y-14500954D01*
%TO.C,D4*%
X114450000Y-79470000D02*
X114450000Y-79151000D01*
X114450000Y-81949000D02*
X114450000Y-81630000D01*
X110707287Y-81630961D02*
G75*
G03*
X114073330Y-81630000I1682713J1080961D01*
G01*
X114450000Y-79151251D02*
G75*
G03*
X110146758Y-79469276I-2060000J-1398748D01*
G01*
X110146758Y-81630724D02*
G75*
G03*
X114450000Y-81948749I2243242J1080723D01*
G01*
X114073330Y-79470000D02*
G75*
G03*
X110707287Y-79469039I-1683330J-1080000D01*
G01*
%TO.C,U11*%
X72975000Y-109290954D02*
X77975000Y-109290954D01*
X74975000Y-122350954D02*
X80975000Y-122350954D01*
%TO.C,U14*%
X48975000Y-42290954D02*
X53975000Y-42290954D01*
X50975000Y-55350954D02*
X56975000Y-55350954D01*
%TO.C,U20*%
X116090000Y-125150000D02*
X116090000Y-114870000D01*
X95530000Y-125150000D02*
X116090000Y-125150000D01*
X116090000Y-114870000D02*
X95530000Y-114870000D01*
X116030000Y-117360000D02*
X95590000Y-117360000D01*
X95590000Y-122660000D02*
X116030000Y-122660000D01*
X116030000Y-119010000D02*
X116030000Y-117360000D01*
X95590000Y-117360000D02*
X95590000Y-122660000D01*
X95530000Y-114870000D02*
X95530000Y-125150000D01*
X116030000Y-122660000D02*
X116030000Y-121010000D01*
X116030000Y-119010000D02*
G75*
G03*
X116030000Y-121010000I0J-1000000D01*
G01*
%TO.C,R12*%
X111000000Y-73370000D02*
X111000000Y-73440000D01*
X112370000Y-72000000D02*
G75*
G03*
X112370000Y-72000000I-1370000J0D01*
G01*
%TO.C,U17*%
X48975000Y-76290954D02*
X53975000Y-76290954D01*
X50975000Y-89350954D02*
X56975000Y-89350954D01*
%TO.C,R5*%
X101470000Y-73295000D02*
X101470000Y-73365000D01*
X102840000Y-71925000D02*
G75*
G03*
X102840000Y-71925000I-1370000J0D01*
G01*
%TO.C,U2*%
X67090000Y-83410954D02*
X67437083Y-83410954D01*
X60620000Y-54770954D02*
X67090000Y-54770954D01*
X67090000Y-85410954D02*
X67437083Y-85410954D01*
X67090000Y-101410954D02*
X67437083Y-101410954D01*
X60620000Y-66770954D02*
X67090000Y-66770954D01*
X60620000Y-82770954D02*
X67090000Y-82770954D01*
X67090000Y-40130954D02*
X67437083Y-40130954D01*
X67090000Y-103470954D02*
X67437083Y-103470954D01*
X67090000Y-69410954D02*
X67437083Y-69410954D01*
X67090000Y-32130954D02*
X67437083Y-32130954D01*
X67090000Y-84130954D02*
X67437083Y-84130954D01*
X67090000Y-44130954D02*
X67437083Y-44130954D01*
X67090000Y-29410954D02*
X67437083Y-29410954D01*
X67090000Y-41410954D02*
X67437083Y-41410954D01*
X60620000Y-23173308D02*
X67090000Y-23173308D01*
X67090000Y-70130954D02*
X67437083Y-70130954D01*
X67090000Y-45410954D02*
X67437083Y-45410954D01*
X68300000Y-22710954D02*
X69235000Y-22710954D01*
X67090000Y-56130954D02*
X67437083Y-56130954D01*
X67090000Y-89410954D02*
X67437083Y-89410954D01*
X67090000Y-42130954D02*
X67437083Y-42130954D01*
X67090000Y-104190954D02*
X67437083Y-104190954D01*
X60620000Y-50770954D02*
X67090000Y-50770954D01*
X67090000Y-63410954D02*
X67437083Y-63410954D01*
X67090000Y-96130954D02*
X67437083Y-96130954D01*
X60620000Y-56770954D02*
X67090000Y-56770954D01*
X67090000Y-95410954D02*
X67437083Y-95410954D01*
X60620000Y-70770954D02*
X67090000Y-70770954D01*
X67090000Y-65410954D02*
X67437083Y-65410954D01*
X67090000Y-72130954D02*
X67437083Y-72130954D01*
X60620000Y-22710954D02*
X60620000Y-106830954D01*
X67090000Y-97410954D02*
X67437083Y-97410954D01*
X67090000Y-49410954D02*
X67437083Y-49410954D01*
X67090000Y-64130954D02*
X67437083Y-64130954D01*
X60620000Y-48770954D02*
X67090000Y-48770954D01*
X67090000Y-82130954D02*
X67437083Y-82130954D01*
X60620000Y-22945072D02*
X67090000Y-22945072D01*
X60620000Y-62770954D02*
X67090000Y-62770954D01*
X67090000Y-53410954D02*
X67437083Y-53410954D01*
X60620000Y-22830954D02*
X67090000Y-22830954D01*
X60620000Y-23858016D02*
X67090000Y-23858016D01*
X60620000Y-90770954D02*
X67090000Y-90770954D01*
X67090000Y-39410954D02*
X67437083Y-39410954D01*
X67090000Y-71410954D02*
X67437083Y-71410954D01*
X60620000Y-40770954D02*
X67090000Y-40770954D01*
X60620000Y-68770954D02*
X67090000Y-68770954D01*
X67090000Y-92130954D02*
X67437083Y-92130954D01*
X67090000Y-99410954D02*
X67437083Y-99410954D01*
X67090000Y-88130954D02*
X67437083Y-88130954D01*
X60620000Y-23287426D02*
X67090000Y-23287426D01*
X60620000Y-64770954D02*
X67090000Y-64770954D01*
X60620000Y-74770954D02*
X67090000Y-74770954D01*
X60620000Y-52770954D02*
X67090000Y-52770954D01*
X67090000Y-22710954D02*
X67090000Y-106830954D01*
X60620000Y-34770954D02*
X67090000Y-34770954D01*
X67090000Y-98130954D02*
X67437083Y-98130954D01*
X67090000Y-50130954D02*
X67437083Y-50130954D01*
X67090000Y-27410954D02*
X67437083Y-27410954D01*
X67090000Y-62130954D02*
X67437083Y-62130954D01*
X60620000Y-98770954D02*
X67090000Y-98770954D01*
X60620000Y-30770954D02*
X67090000Y-30770954D01*
X60620000Y-24086252D02*
X67090000Y-24086252D01*
X67090000Y-58130954D02*
X67437083Y-58130954D01*
X67090000Y-66130954D02*
X67437083Y-66130954D01*
X67090000Y-57410954D02*
X67437083Y-57410954D01*
X60620000Y-32770954D02*
X67090000Y-32770954D01*
X67090000Y-48130954D02*
X67437083Y-48130954D01*
X60620000Y-44770954D02*
X67090000Y-44770954D01*
X67090000Y-78130954D02*
X67437083Y-78130954D01*
X67090000Y-59410954D02*
X67437083Y-59410954D01*
X67090000Y-47410954D02*
X67437083Y-47410954D01*
X60620000Y-80770954D02*
X67090000Y-80770954D01*
X67090000Y-74130954D02*
X67437083Y-74130954D01*
X60620000Y-28770954D02*
X67090000Y-28770954D01*
X60620000Y-23743898D02*
X67090000Y-23743898D01*
X67090000Y-23410954D02*
X67365000Y-23410954D01*
X60620000Y-23059190D02*
X67090000Y-23059190D01*
X69235000Y-22710954D02*
X69235000Y-23770954D01*
X60620000Y-38770954D02*
X67090000Y-38770954D01*
X67090000Y-106190954D02*
X67437083Y-106190954D01*
X60620000Y-88770954D02*
X67090000Y-88770954D01*
X60620000Y-24656842D02*
X67090000Y-24656842D01*
X67090000Y-28130954D02*
X67437083Y-28130954D01*
X67090000Y-55410954D02*
X67437083Y-55410954D01*
X60620000Y-104830954D02*
X67090000Y-104830954D01*
X60620000Y-76770954D02*
X67090000Y-76770954D01*
X67090000Y-91410954D02*
X67437083Y-91410954D01*
X67090000Y-93410954D02*
X67437083Y-93410954D01*
X67090000Y-61410954D02*
X67437083Y-61410954D01*
X67090000Y-68130954D02*
X67437083Y-68130954D01*
X67090000Y-76130954D02*
X67437083Y-76130954D01*
X67090000Y-77410954D02*
X67437083Y-77410954D01*
X67090000Y-38130954D02*
X67437083Y-38130954D01*
X60620000Y-106830954D02*
X67090000Y-106830954D01*
X67090000Y-37410954D02*
X67437083Y-37410954D01*
X60620000Y-94770954D02*
X67090000Y-94770954D01*
X67090000Y-51410954D02*
X67437083Y-51410954D01*
X60620000Y-72770954D02*
X67090000Y-72770954D01*
X60620000Y-92770954D02*
X67090000Y-92770954D01*
X67090000Y-24130954D02*
X67365000Y-24130954D01*
X67090000Y-81410954D02*
X67437083Y-81410954D01*
X67090000Y-34130954D02*
X67437083Y-34130954D01*
X60620000Y-24428606D02*
X67090000Y-24428606D01*
X60620000Y-42770954D02*
X67090000Y-42770954D01*
X60620000Y-100770954D02*
X67090000Y-100770954D01*
X60620000Y-24770954D02*
X67090000Y-24770954D01*
X60620000Y-84770954D02*
X67090000Y-84770954D01*
X60620000Y-24314488D02*
X67090000Y-24314488D01*
X67090000Y-43410954D02*
X67437083Y-43410954D01*
X67090000Y-73410954D02*
X67437083Y-73410954D01*
X60620000Y-96770954D02*
X67090000Y-96770954D01*
X67090000Y-86130954D02*
X67437083Y-86130954D01*
X60620000Y-102830954D02*
X67090000Y-102830954D01*
X60620000Y-24542724D02*
X67090000Y-24542724D01*
X60620000Y-23972134D02*
X67090000Y-23972134D01*
X67090000Y-54130954D02*
X67437083Y-54130954D01*
X60620000Y-23515662D02*
X67090000Y-23515662D01*
X60620000Y-36770954D02*
X67090000Y-36770954D01*
X67090000Y-90130954D02*
X67437083Y-90130954D01*
X67090000Y-102130954D02*
X67437083Y-102130954D01*
X60620000Y-23401544D02*
X67090000Y-23401544D01*
X60620000Y-22710954D02*
X67090000Y-22710954D01*
X67090000Y-105470954D02*
X67437083Y-105470954D01*
X60620000Y-23629780D02*
X67090000Y-23629780D01*
X67090000Y-26130954D02*
X67437083Y-26130954D01*
X67090000Y-30130954D02*
X67437083Y-30130954D01*
X67090000Y-31410954D02*
X67437083Y-31410954D01*
X60620000Y-60770954D02*
X67090000Y-60770954D01*
X67090000Y-87410954D02*
X67437083Y-87410954D01*
X60620000Y-78770954D02*
X67090000Y-78770954D01*
X60620000Y-46770954D02*
X67090000Y-46770954D01*
X60620000Y-86770954D02*
X67090000Y-86770954D01*
X67090000Y-36130954D02*
X67437083Y-36130954D01*
X67090000Y-46130954D02*
X67437083Y-46130954D01*
X67090000Y-60130954D02*
X67437083Y-60130954D01*
X67090000Y-80130954D02*
X67437083Y-80130954D01*
X67090000Y-100130954D02*
X67437083Y-100130954D01*
X67090000Y-35410954D02*
X67437083Y-35410954D01*
X67090000Y-25410954D02*
X67437083Y-25410954D01*
X60620000Y-26770954D02*
X67090000Y-26770954D01*
X60620000Y-24200370D02*
X67090000Y-24200370D01*
X67090000Y-94130954D02*
X67437083Y-94130954D01*
X60620000Y-58770954D02*
X67090000Y-58770954D01*
X67090000Y-67410954D02*
X67437083Y-67410954D01*
X67090000Y-33410954D02*
X67437083Y-33410954D01*
X67090000Y-75410954D02*
X67437083Y-75410954D01*
X67090000Y-52130954D02*
X67437083Y-52130954D01*
X67090000Y-79410954D02*
X67437083Y-79410954D01*
%TO.C,U16*%
X89045000Y-160640000D02*
X106945000Y-160640000D01*
X106945000Y-155340000D02*
X89045000Y-155340000D01*
X88985000Y-163130000D02*
X107005000Y-163130000D01*
X89045000Y-155340000D02*
X89045000Y-156990000D01*
X106945000Y-160640000D02*
X106945000Y-155340000D01*
X89045000Y-158990000D02*
X89045000Y-160640000D01*
X88985000Y-152850000D02*
X88985000Y-163130000D01*
X107005000Y-163130000D02*
X107005000Y-152850000D01*
X107005000Y-152850000D02*
X88985000Y-152850000D01*
X89045000Y-158990000D02*
G75*
G03*
X89045000Y-156990000I0J1000000D01*
G01*
%TO.C,U13*%
X54955000Y-165660000D02*
X54955000Y-164010000D01*
X37055000Y-165660000D02*
X54955000Y-165660000D01*
X55015000Y-157870000D02*
X36995000Y-157870000D01*
X36995000Y-168150000D02*
X55015000Y-168150000D01*
X37055000Y-160360000D02*
X37055000Y-165660000D01*
X36995000Y-157870000D02*
X36995000Y-168150000D01*
X54955000Y-160360000D02*
X37055000Y-160360000D01*
X55015000Y-168150000D02*
X55015000Y-157870000D01*
X54955000Y-162010000D02*
X54955000Y-160360000D01*
X54955000Y-162010000D02*
G75*
G03*
X54955000Y-164010000I0J-1000000D01*
G01*
%TO.C,R2*%
X76197372Y-177000000D02*
X76127372Y-177000000D01*
X78937372Y-177000000D02*
G75*
G03*
X78937372Y-177000000I-1370000J0D01*
G01*
%TO.C,J2*%
X125834000Y-154700000D02*
X125834000Y-150640000D01*
X125834000Y-150640000D02*
X123714000Y-150640000D01*
X123714000Y-154700000D02*
X123714000Y-150640000D01*
X125834000Y-154700000D02*
X123714000Y-154700000D01*
X124774000Y-156760000D02*
X123714000Y-156760000D01*
X123714000Y-156760000D02*
X123714000Y-155700000D01*
%TO.C,D1*%
X103510000Y-79450000D02*
X103510000Y-79131000D01*
X103510000Y-81929000D02*
X103510000Y-81610000D01*
X99767287Y-81610961D02*
G75*
G03*
X103133330Y-81610000I1682713J1080961D01*
G01*
X103510000Y-79131251D02*
G75*
G03*
X99206758Y-79449276I-2060000J-1398748D01*
G01*
X99206758Y-81610724D02*
G75*
G03*
X103510000Y-81928749I2243242J1080723D01*
G01*
X103133330Y-79450000D02*
G75*
G03*
X99767287Y-79449039I-1683330J-1080000D01*
G01*
%TO.C,SW2*%
X46707372Y-178487500D02*
X46707372Y-177134167D01*
X49247372Y-178487500D02*
X49247372Y-177134167D01*
X51787372Y-178487500D02*
X51787372Y-177134167D01*
X46227372Y-178487500D02*
X46227372Y-177134167D01*
X48767372Y-178487500D02*
X48767372Y-177134167D01*
X51307372Y-178487500D02*
X51307372Y-177134167D01*
X46347372Y-178487500D02*
X46347372Y-177134167D01*
X43927372Y-178487500D02*
X43927372Y-177134167D01*
X48167372Y-178487500D02*
X49437372Y-178487500D01*
X50827372Y-178487500D02*
X50827372Y-177134167D01*
X51977372Y-174427500D02*
X50707372Y-174427500D01*
X43327372Y-178487500D02*
X43327372Y-177134167D01*
X43087372Y-174427500D02*
X43087372Y-178487500D01*
X48287372Y-178487500D02*
X48287372Y-177134167D01*
X49437372Y-174427500D02*
X48167372Y-174427500D01*
X43087372Y-177134167D02*
X44357372Y-177134167D01*
X45867372Y-178487500D02*
X45867372Y-177134167D01*
X46107372Y-178487500D02*
X46107372Y-177134167D01*
X48167372Y-177134167D02*
X49437372Y-177134167D01*
X49127372Y-178487500D02*
X49127372Y-177134167D01*
X41062372Y-181647500D02*
X41062372Y-180263500D01*
X44287372Y-178487500D02*
X44287372Y-177134167D01*
X48407372Y-178487500D02*
X48407372Y-177134167D01*
X46897372Y-174427500D02*
X45627372Y-174427500D01*
X41062372Y-181647500D02*
X42445372Y-181647500D01*
X45987372Y-178487500D02*
X45987372Y-177134167D01*
X45627372Y-174427500D02*
X45627372Y-178487500D01*
X48167372Y-174427500D02*
X48167372Y-178487500D01*
X48527372Y-178487500D02*
X48527372Y-177134167D01*
X51667372Y-178487500D02*
X51667372Y-177134167D01*
X46827372Y-178487500D02*
X46827372Y-177134167D01*
X44357372Y-178487500D02*
X44357372Y-174427500D01*
X51067372Y-178487500D02*
X51067372Y-177134167D01*
X49007372Y-178487500D02*
X49007372Y-177134167D01*
X49437372Y-178487500D02*
X49437372Y-174427500D01*
X44357372Y-174427500D02*
X43087372Y-174427500D01*
X43807372Y-178487500D02*
X43807372Y-177134167D01*
X41302372Y-171507500D02*
X53762372Y-171507500D01*
X46467372Y-178487500D02*
X46467372Y-177134167D01*
X51977372Y-178487500D02*
X51977372Y-174427500D01*
X51187372Y-178487500D02*
X51187372Y-177134167D01*
X41302372Y-181407500D02*
X41302372Y-171507500D01*
X50707372Y-174427500D02*
X50707372Y-178487500D01*
X46587372Y-178487500D02*
X46587372Y-177134167D01*
X41302372Y-181407500D02*
X53762372Y-181407500D01*
X48647372Y-178487500D02*
X48647372Y-177134167D01*
X50707372Y-178487500D02*
X51977372Y-178487500D01*
X43687372Y-178487500D02*
X43687372Y-177134167D01*
X50707372Y-177134167D02*
X51977372Y-177134167D01*
X49367372Y-178487500D02*
X49367372Y-177134167D01*
X43447372Y-178487500D02*
X43447372Y-177134167D01*
X51547372Y-178487500D02*
X51547372Y-177134167D01*
X50947372Y-178487500D02*
X50947372Y-177134167D01*
X44167372Y-178487500D02*
X44167372Y-177134167D01*
X51427372Y-178487500D02*
X51427372Y-177134167D01*
X53762372Y-181407500D02*
X53762372Y-171507500D01*
X44047372Y-178487500D02*
X44047372Y-177134167D01*
X43567372Y-178487500D02*
X43567372Y-177134167D01*
X46897372Y-178487500D02*
X46897372Y-174427500D01*
X45747372Y-178487500D02*
X45747372Y-177134167D01*
X43087372Y-178487500D02*
X44357372Y-178487500D01*
X45627372Y-178487500D02*
X46897372Y-178487500D01*
X48887372Y-178487500D02*
X48887372Y-177134167D01*
X45627372Y-177134167D02*
X46897372Y-177134167D01*
X43207372Y-178487500D02*
X43207372Y-177134167D01*
X51907372Y-178487500D02*
X51907372Y-177134167D01*
%TO.C,U22*%
X128150000Y-181005000D02*
X128150000Y-162985000D01*
X122010000Y-163045000D02*
X120360000Y-163045000D01*
X120360000Y-163045000D02*
X120360000Y-180945000D01*
X117870000Y-181005000D02*
X128150000Y-181005000D01*
X125660000Y-163045000D02*
X124010000Y-163045000D01*
X128150000Y-162985000D02*
X117870000Y-162985000D01*
X125660000Y-180945000D02*
X125660000Y-163045000D01*
X117870000Y-162985000D02*
X117870000Y-181005000D01*
X120360000Y-180945000D02*
X125660000Y-180945000D01*
X122010000Y-163045000D02*
G75*
G03*
X124010000Y-163045000I1000000J0D01*
G01*
%TO.C,U18*%
X119955000Y-63010000D02*
X119955000Y-61360000D01*
X102055000Y-66660000D02*
X119955000Y-66660000D01*
X101995000Y-69150000D02*
X120015000Y-69150000D01*
X102055000Y-61360000D02*
X102055000Y-66660000D01*
X119955000Y-66660000D02*
X119955000Y-65010000D01*
X119955000Y-61360000D02*
X102055000Y-61360000D01*
X120015000Y-58870000D02*
X101995000Y-58870000D01*
X120015000Y-69150000D02*
X120015000Y-58870000D01*
X101995000Y-58870000D02*
X101995000Y-69150000D01*
X119955000Y-63010000D02*
G75*
G03*
X119955000Y-65010000I0J-1000000D01*
G01*
%TO.C,U1*%
X74975000Y-71350954D02*
X80975000Y-71350954D01*
X72975000Y-58290954D02*
X77975000Y-58290954D01*
%TO.C,R8*%
X35352372Y-174500000D02*
X35422372Y-174500000D01*
X35352372Y-174500000D02*
G75*
G03*
X35352372Y-174500000I-1370000J0D01*
G01*
%TO.C,U9*%
X48975000Y-59290954D02*
X53975000Y-59290954D01*
X50975000Y-72350954D02*
X56975000Y-72350954D01*
%TO.C,C2*%
X40560000Y-128480000D02*
X40115000Y-128480000D01*
X38265000Y-128480000D02*
X37820000Y-128480000D01*
X40560000Y-128480000D02*
X40560000Y-134720000D01*
X40560000Y-134720000D02*
X40115000Y-134720000D01*
X37820000Y-128480000D02*
X37820000Y-134720000D01*
X38265000Y-134720000D02*
X37820000Y-134720000D01*
%TO.C,C1*%
X125355000Y-55650000D02*
X125800000Y-55650000D01*
X123060000Y-55650000D02*
X123505000Y-55650000D01*
X125800000Y-61890000D02*
X125800000Y-55650000D01*
X123060000Y-61890000D02*
X123060000Y-55650000D01*
X123060000Y-61890000D02*
X123505000Y-61890000D01*
X125355000Y-61890000D02*
X125800000Y-61890000D01*
%TO.C,U12*%
X54955000Y-143360000D02*
X37055000Y-143360000D01*
X36995000Y-140870000D02*
X36995000Y-151150000D01*
X37055000Y-143360000D02*
X37055000Y-148660000D01*
X55015000Y-151150000D02*
X55015000Y-140870000D01*
X36995000Y-151150000D02*
X55015000Y-151150000D01*
X54955000Y-148660000D02*
X54955000Y-147010000D01*
X55015000Y-140870000D02*
X36995000Y-140870000D01*
X54955000Y-145010000D02*
X54955000Y-143360000D01*
X37055000Y-148660000D02*
X54955000Y-148660000D01*
X54955000Y-145010000D02*
G75*
G03*
X54955000Y-147010000I0J-1000000D01*
G01*
%TO.C,C7*%
X99920000Y-19160000D02*
X99920000Y-19605000D01*
X93680000Y-19160000D02*
X93680000Y-19605000D01*
X99920000Y-21455000D02*
X99920000Y-21900000D01*
X93680000Y-21455000D02*
X93680000Y-21900000D01*
X93680000Y-19160000D02*
X99920000Y-19160000D01*
X93680000Y-21900000D02*
X99920000Y-21900000D01*
%TO.C,C4*%
X115830000Y-184950000D02*
X115830000Y-185395000D01*
X122070000Y-187245000D02*
X122070000Y-187690000D01*
X122070000Y-184950000D02*
X122070000Y-185395000D01*
X115830000Y-184950000D02*
X122070000Y-184950000D01*
X115830000Y-187245000D02*
X115830000Y-187690000D01*
X115830000Y-187690000D02*
X122070000Y-187690000D01*
%TO.C,C3*%
X99770000Y-25990000D02*
X93530000Y-25990000D01*
X93530000Y-28730000D02*
X93530000Y-28285000D01*
X99770000Y-26435000D02*
X99770000Y-25990000D01*
X93530000Y-26435000D02*
X93530000Y-25990000D01*
X99770000Y-28730000D02*
X93530000Y-28730000D01*
X99770000Y-28730000D02*
X99770000Y-28285000D01*
%TO.C,D2*%
X119940000Y-81939000D02*
X119940000Y-81620000D01*
X119940000Y-79460000D02*
X119940000Y-79141000D01*
X115636758Y-81620724D02*
G75*
G03*
X119940000Y-81938749I2243242J1080723D01*
G01*
X119940000Y-79141251D02*
G75*
G03*
X115636758Y-79459276I-2060000J-1398748D01*
G01*
X116197287Y-81620961D02*
G75*
G03*
X119563330Y-81620000I1682713J1080961D01*
G01*
X119563330Y-79460000D02*
G75*
G03*
X116197287Y-79459039I-1683330J-1080000D01*
G01*
%TO.C,SW1*%
X64647372Y-178487500D02*
X64647372Y-177134167D01*
X61627372Y-178487500D02*
X62897372Y-178487500D01*
X61867372Y-178487500D02*
X61867372Y-177134167D01*
X67977372Y-178487500D02*
X67977372Y-174427500D01*
X59447372Y-178487500D02*
X59447372Y-177134167D01*
X66827372Y-178487500D02*
X66827372Y-177134167D01*
X60287372Y-178487500D02*
X60287372Y-177134167D01*
X65367372Y-178487500D02*
X65367372Y-177134167D01*
X65437372Y-174427500D02*
X64167372Y-174427500D01*
X64887372Y-178487500D02*
X64887372Y-177134167D01*
X61627372Y-174427500D02*
X61627372Y-178487500D01*
X65247372Y-178487500D02*
X65247372Y-177134167D01*
X59087372Y-177134167D02*
X60357372Y-177134167D01*
X59807372Y-178487500D02*
X59807372Y-177134167D01*
X67307372Y-178487500D02*
X67307372Y-177134167D01*
X67787372Y-178487500D02*
X67787372Y-177134167D01*
X59087372Y-174427500D02*
X59087372Y-178487500D01*
X60047372Y-178487500D02*
X60047372Y-177134167D01*
X67187372Y-178487500D02*
X67187372Y-177134167D01*
X60167372Y-178487500D02*
X60167372Y-177134167D01*
X67907372Y-178487500D02*
X67907372Y-177134167D01*
X62707372Y-178487500D02*
X62707372Y-177134167D01*
X62467372Y-178487500D02*
X62467372Y-177134167D01*
X59687372Y-178487500D02*
X59687372Y-177134167D01*
X61627372Y-177134167D02*
X62897372Y-177134167D01*
X57302372Y-171507500D02*
X69762372Y-171507500D01*
X60357372Y-178487500D02*
X60357372Y-174427500D01*
X59327372Y-178487500D02*
X59327372Y-177134167D01*
X60357372Y-174427500D02*
X59087372Y-174427500D01*
X67427372Y-178487500D02*
X67427372Y-177134167D01*
X62587372Y-178487500D02*
X62587372Y-177134167D01*
X59927372Y-178487500D02*
X59927372Y-177134167D01*
X61747372Y-178487500D02*
X61747372Y-177134167D01*
X69762372Y-181407500D02*
X69762372Y-171507500D01*
X62897372Y-178487500D02*
X62897372Y-174427500D01*
X62827372Y-178487500D02*
X62827372Y-177134167D01*
X57062372Y-181647500D02*
X57062372Y-180263500D01*
X66707372Y-174427500D02*
X66707372Y-178487500D01*
X61987372Y-178487500D02*
X61987372Y-177134167D01*
X57062372Y-181647500D02*
X58445372Y-181647500D01*
X64767372Y-178487500D02*
X64767372Y-177134167D01*
X64167372Y-174427500D02*
X64167372Y-178487500D01*
X66707372Y-178487500D02*
X67977372Y-178487500D01*
X59087372Y-178487500D02*
X60357372Y-178487500D01*
X66947372Y-178487500D02*
X66947372Y-177134167D01*
X62227372Y-178487500D02*
X62227372Y-177134167D01*
X67667372Y-178487500D02*
X67667372Y-177134167D01*
X64167372Y-177134167D02*
X65437372Y-177134167D01*
X67067372Y-178487500D02*
X67067372Y-177134167D01*
X62897372Y-174427500D02*
X61627372Y-174427500D01*
X62347372Y-178487500D02*
X62347372Y-177134167D01*
X64287372Y-178487500D02*
X64287372Y-177134167D01*
X67547372Y-178487500D02*
X67547372Y-177134167D01*
X64167372Y-178487500D02*
X65437372Y-178487500D01*
X65007372Y-178487500D02*
X65007372Y-177134167D01*
X64407372Y-178487500D02*
X64407372Y-177134167D01*
X67977372Y-174427500D02*
X66707372Y-174427500D01*
X59207372Y-178487500D02*
X59207372Y-177134167D01*
X62107372Y-178487500D02*
X62107372Y-177134167D01*
X66707372Y-177134167D02*
X67977372Y-177134167D01*
X57302372Y-181407500D02*
X69762372Y-181407500D01*
X59567372Y-178487500D02*
X59567372Y-177134167D01*
X57302372Y-181407500D02*
X57302372Y-171507500D01*
X65127372Y-178487500D02*
X65127372Y-177134167D01*
X64527372Y-178487500D02*
X64527372Y-177134167D01*
X65437372Y-178487500D02*
X65437372Y-174427500D01*
%TO.C,C8*%
X123395000Y-45030000D02*
X122950000Y-45030000D01*
X125690000Y-51270000D02*
X125245000Y-51270000D01*
X125690000Y-45030000D02*
X125690000Y-51270000D01*
X122950000Y-45030000D02*
X122950000Y-51270000D01*
X125690000Y-45030000D02*
X125245000Y-45030000D01*
X123395000Y-51270000D02*
X122950000Y-51270000D01*
%TO.C,U21*%
X116190000Y-108950000D02*
X116190000Y-98670000D01*
X95690000Y-106460000D02*
X116130000Y-106460000D01*
X95630000Y-108950000D02*
X116190000Y-108950000D01*
X116130000Y-102810000D02*
X116130000Y-101160000D01*
X116130000Y-106460000D02*
X116130000Y-104810000D01*
X95690000Y-101160000D02*
X95690000Y-106460000D01*
X116130000Y-101160000D02*
X95690000Y-101160000D01*
X95630000Y-98670000D02*
X95630000Y-108950000D01*
X116190000Y-98670000D02*
X95630000Y-98670000D01*
X116130000Y-102810000D02*
G75*
G03*
X116130000Y-104810000I0J-1000000D01*
G01*
%TO.C,R11*%
X106000000Y-73370000D02*
X106000000Y-73440000D01*
X107370000Y-72000000D02*
G75*
G03*
X107370000Y-72000000I-1370000J0D01*
G01*
%TO.C,R7*%
X35352372Y-171500000D02*
X35422372Y-171500000D01*
X35352372Y-171500000D02*
G75*
G03*
X35352372Y-171500000I-1370000J0D01*
G01*
%TO.C,U15*%
X88985000Y-178850000D02*
X88985000Y-189130000D01*
X106945000Y-181340000D02*
X89045000Y-181340000D01*
X89045000Y-186640000D02*
X106945000Y-186640000D01*
X89045000Y-181340000D02*
X89045000Y-182990000D01*
X89045000Y-184990000D02*
X89045000Y-186640000D01*
X88985000Y-189130000D02*
X107005000Y-189130000D01*
X106945000Y-186640000D02*
X106945000Y-181340000D01*
X107005000Y-178850000D02*
X88985000Y-178850000D01*
X107005000Y-189130000D02*
X107005000Y-178850000D01*
X89045000Y-184990000D02*
G75*
G03*
X89045000Y-182990000I0J1000000D01*
G01*
%TO.C,R4*%
X76192372Y-171000000D02*
X76122372Y-171000000D01*
X78932372Y-171000000D02*
G75*
G03*
X78932372Y-171000000I-1370000J0D01*
G01*
%TO.C,C6*%
X85300000Y-179220000D02*
X85300000Y-172980000D01*
X82560000Y-172980000D02*
X83005000Y-172980000D01*
X82560000Y-179220000D02*
X82560000Y-172980000D01*
X84855000Y-179220000D02*
X85300000Y-179220000D01*
X82560000Y-179220000D02*
X83005000Y-179220000D01*
X84855000Y-172980000D02*
X85300000Y-172980000D01*
%TD*%
M02*
