M48
; DRILL file {KiCad 6.0.1-79c1e3a40b~116~ubuntu21.10.1} date So 13 Feb 2022 21:16:13 CET
; FORMAT={-:-/ absolute / inch / decimal}
; #@! TF.CreationDate,2022-02-13T21:16:13+01:00
; #@! TF.GenerationSoftware,Kicad,Pcbnew,6.0.1-79c1e3a40b~116~ubuntu21.10.1
; #@! TF.FileFunction,Plated,1,2,PTH
FMAT,2
INCH
; #@! TA.AperFunction,Plated,PTH,ViaDrill
T1C0.0157
; #@! TA.AperFunction,Plated,PTH,ComponentDrill
T2C0.0315
; #@! TA.AperFunction,Plated,PTH,ComponentDrill
T3C0.0354
; #@! TA.AperFunction,Plated,PTH,ComponentDrill
T4C0.0394
%
G90
G05
T1
X1.252Y-6.9213
X1.2677Y-2.1417
X1.2756Y-1.7087
X1.3043Y-2.5247
X1.3307Y-2.4173
X1.3701Y-2.3228
X1.3729Y-4.6327
X1.3848Y-3.2057
X1.412Y-5.7736
X1.4147Y-4.4335
X1.4158Y-3.2527
X1.437Y-2.2323
X1.4547Y-6.0236
X1.4583Y-4.8844
X1.4595Y-3.2705
X1.4999Y-3.2952
X1.5276Y-6.6929
X1.5354Y-6.9291
X1.5539Y-3.2941
X1.5591Y-4.2677
X1.5669Y-3.5827
X1.5669Y-4.063
X1.5748Y-6.6929
X1.5748Y-6.8898
X1.5875Y-2.1583
X1.5935Y-3.3357
X1.6063Y-3.6299
X1.6073Y-4.0964
X1.6078Y-3.9906
X1.6132Y-2.2451
X1.6132Y-2.3158
X1.6132Y-2.3945
X1.6132Y-2.4733
X1.6133Y-2.1979
X1.6142Y-5.748
X1.6142Y-6.4173
X1.6191Y-2.5444
X1.6526Y-1.9615
X1.6535Y-0.7087
X1.6535Y-6.9685
X1.6586Y-4.1397
X1.6906Y-1.9236
X1.6919Y-1.4314
X1.6919Y-2.4733
X1.6992Y-0.6619
X1.7226Y-1.8889
X1.7274Y-1.8288
X1.7305Y-1.3814
X1.7313Y-2.3945
X1.7669Y-1.3414
X1.7707Y-2.3158
X1.7717Y-5.748
X1.7717Y-5.9843
X1.7717Y-6.6535
X1.7743Y-1.8348
X1.7795Y-1.2756
X1.8031Y-1.2205
X1.81Y-2.2764
X1.81Y-1.804
X1.811Y-0.6338
X1.814Y-1.7537
X1.8346Y-1.1811
X1.8425Y-4.378
X1.8494Y-2.2449
X1.8504Y-6.9685
X1.8583Y-1.1181
X1.8641Y-2.1808
X1.8668Y-4.4184
X1.8723Y-2.1197
X1.8782Y-1.734
X1.8876Y-1.0778
X1.9377Y-2.5186
X1.938Y-1.0278
X1.938Y-2.4164
X1.938Y-2.5664
X1.939Y-2.7674
X1.9394Y-2.6178
X1.9394Y-2.7178
X1.9404Y-2.8188
X1.9409Y-2.6692
X1.9433Y-2.4717
X1.9528Y-4.5039
X1.9553Y-4.5511
X1.9693Y-4.683
X2.0472Y-6.6535
X2.1528Y-5.3717
X2.1586Y-6.4893
X2.1614Y-2.8276
X2.1614Y-6.6535
X2.1654Y-5.9764
X2.1654Y-6.0236
X2.1654Y-6.1811
X2.2047Y-0.9055
X2.2047Y-5.3543
X2.2402Y-5.7236
X2.2441Y-6.2598
X2.2441Y-6.5748
X2.2756Y-6.6654
X2.2835Y-2.4097
X2.312Y-3.0857
X2.3228Y-1.7404
X2.3228Y-4.1339
X2.3287Y-6.4882
X2.3602Y-2.7123
X2.3612Y-2.5052
X2.3612Y-2.8276
X2.3616Y-2.5524
X2.3618Y-2.6179
X2.362Y-2.6651
X2.3622Y-4.0945
X2.3622Y-6.1417
X2.3622Y-6.2205
X2.365Y-6.0917
X2.3668Y-2.7807
X2.3677Y-6.5911
X2.3894Y-2.1471
X2.4006Y-1.489
X2.4006Y-4.2055
X2.4016Y-6.2598
X2.4016Y-6.7323
X2.4083Y-6.3712
X2.4084Y-6.6856
X2.4332Y-4.291
X2.439Y-5.9839
X2.44Y-1.4496
X2.4618Y-2.0971
X2.4726Y-4.3698
X2.4793Y-1.4103
X2.4803Y-6.4173
X2.4803Y-6.4645
X2.4951Y-1.0778
X2.5073Y-1.2982
X2.5118Y-2.0471
X2.512Y-4.4485
X2.5187Y-1.3709
X2.5197Y-5.7087
X2.5255Y-5.9834
X2.5485Y-1.223
X2.5492Y-1.2766
X2.5513Y-4.5273
X2.5591Y-6.1339
X2.5591Y-6.1811
X2.5591Y-6.378
X2.5618Y-1.9971
X2.5831Y-1.9471
X2.5984Y-5.8268
X2.5984Y-6.0965
X2.6014Y-4.5962
X2.6378Y-5.748
X2.6772Y-5.4724
X2.6772Y-6.1339
X2.6772Y-6.1811
X2.6772Y-6.6929
X2.7156Y-4.678
X2.7569Y-3.3334
X2.7603Y-3.3842
X2.78Y-3.4432
X2.7953Y-4.7244
X2.7953Y-6.378
X2.8231Y-2.7401
X2.8337Y-2.6229
X2.8337Y-2.6701
X2.874Y-3.6614
X2.874Y-5.5118
X2.874Y-6.4528
X2.8829Y-2.9963
X2.8829Y-3.4463
X2.8829Y-4.1156
X2.8829Y-4.7809
X2.9106Y-4.2048
X2.9134Y-4.252
X2.9511Y-3.0116
X2.9526Y-2.3904
X2.9528Y-3.3071
X2.9595Y-6.3712
X2.9875Y-2.9816
X2.9911Y-2.4733
X2.9921Y-3.622
X2.9921Y-4.252
X3.0299Y-4.2923
X3.0305Y-2.5126
X3.0346Y-2.9853
X3.0399Y-6.3339
X3.0699Y-2.552
X3.0709Y-6.0236
X3.072Y-3.0243
X3.1067Y-2.5914
X3.1093Y-2.9851
X3.1102Y-5.7087
X3.1102Y-5.7874
X3.1102Y-7.4016
X3.125Y-1.1032
X3.125Y-1.1741
X3.125Y-1.2528
X3.125Y-1.4103
X3.125Y-1.489
X3.125Y-1.5678
X3.125Y-1.6465
X3.1251Y-0.9414
X3.1266Y-0.8817
X3.1289Y-1.0166
X3.1289Y-1.3237
X3.1496Y-3.4646
X3.1496Y-3.5748
X3.1496Y-3.622
X3.1496Y-6.0473
X3.1496Y-6.0945
X3.1496Y-6.1417
X3.15Y-2.7699
X3.189Y-4.252
X3.189Y-5.4331
X3.2116Y-1.873
X3.2124Y-6.5412
X3.2283Y-5.8661
X3.2283Y-6.063
X3.2283Y-7.1654
X3.2398Y-2.2837
X3.2569Y-2.377
X3.2569Y-2.377
X3.2569Y-3.0463
X3.2569Y-3.7656
X3.2569Y-3.8156
X3.2569Y-3.8656
X3.2569Y-3.9156
X3.2569Y-3.9656
X3.2569Y-4.0156
X3.2569Y-4.0656
X3.2569Y-4.3849
X3.2598Y-3.7134
X3.2598Y-4.1181
X3.2667Y-0.9646
X3.2667Y-1.8465
X3.2677Y-3.5039
X3.2677Y-4.1732
X3.2677Y-5.4646
X3.2677Y-5.5118
X3.2677Y-5.559
X3.2677Y-5.7087
X3.2677Y-5.7874
X3.2677Y-6.0236
X3.2677Y-7.2047
X3.3024Y-6.5012
X3.3025Y-6.4069
X3.3061Y-3.0953
X3.3061Y-3.1426
X3.3071Y-5.9843
X3.308Y-6.4543
X3.3129Y-6.3603
X3.3324Y-6.5812
X3.3425Y-5.7087
X3.3425Y-5.7874
X3.3455Y-3.1819
X3.3465Y-5.5118
X3.3773Y-6.4016
X3.3844Y-3.2208
X3.3858Y-5.6693
X3.3858Y-6.1024
X3.3858Y-6.1811
X3.3887Y-6.3558
X3.4174Y-3.2546
X3.4252Y-5.4331
X3.4528Y-3.2859
X3.4624Y-6.4612
X3.4646Y-5.0
X3.4646Y-5.5118
X3.4646Y-5.9055
X3.4646Y-5.9843
X3.4646Y-6.13
X3.4646Y-6.1772
X3.4646Y-6.6929
X3.4798Y-3.3246
X3.5039Y-5.0394
X3.5216Y-3.3467
X3.5433Y-4.3307
X3.5433Y-4.4094
X3.5433Y-6.9685
X3.5748Y-3.6614
X3.5827Y-4.0551
X3.5866Y-6.1768
X3.6147Y-3.5365
X3.6181Y-2.0866
X3.621Y-1.9291
X3.622Y-2.0079
X3.622Y-3.6614
X3.6288Y-5.1642
X3.6324Y-7.2412
X3.6614Y-1.7244
X3.6614Y-1.7717
X3.6614Y-3.5433
X3.6614Y-4.1339
X3.6614Y-4.4488
X3.6682Y-1.8436
X3.6682Y-5.243
X3.6958Y-1.9291
X3.7008Y-4.4094
X3.7382Y-4.7589
X3.7441Y-2.1654
X3.7795Y-4.3307
X3.7795Y-5.1575
X3.7795Y-5.2362
X3.8189Y-4.4094
X3.8189Y-4.7244
X3.8976Y-5.315
X3.8976Y-6.7323
X3.937Y-1.8504
X3.937Y-6.2598
X3.937Y-6.9685
X3.9433Y-4.6411
X3.9724Y-7.2412
X3.975Y-7.194
X4.0157Y-5.2362
X4.0157Y-5.6693
X4.0496Y-3.5106
X4.063Y-2.2016
X4.0945Y-2.4803
X4.1024Y-7.3012
X4.1256Y-1.6181
X4.1339Y-7.0079
X4.1398Y-3.622
X4.1437Y-3.5421
X4.1732Y-5.1575
X4.1732Y-5.1575
X4.1732Y-5.2362
X4.1732Y-5.6299
X4.1732Y-5.7087
X4.1732Y-6.2126
X4.1732Y-6.2598
X4.1732Y-6.4961
X4.2126Y-6.7717
X4.2171Y-7.2038
X4.2201Y-3.5402
X4.2224Y-7.2812
X4.2416Y-6.809
X4.252Y-5.2362
X4.252Y-6.7323
X4.2604Y-6.9685
X4.2796Y-6.1747
X4.2895Y-6.2598
X4.2902Y-3.5039
X4.2913Y-5.1575
X4.2913Y-5.7087
X4.2913Y-6.6142
X4.2913Y-6.6929
X4.2917Y-3.6953
X4.2924Y-7.2012
X4.3228Y-3.8189
X4.3307Y-6.4961
X4.3324Y-7.2812
X4.3346Y-5.6693
X4.3413Y-5.522
X4.3424Y-7.0983
X4.3505Y-5.8465
X4.3701Y-5.0
X4.3701Y-5.4331
X4.3701Y-6.9646
X4.3714Y-6.811
X4.3937Y-6.5118
X4.4024Y-7.0212
X4.4094Y-6.6535
X4.4177Y-6.5665
X4.426Y-5.5437
X4.4297Y-7.0709
X4.4488Y-3.4252
X4.4488Y-6.1762
X4.4882Y-4.9606
X4.4882Y-5.6693
X4.4888Y-6.8819
X4.5276Y-4.685
X4.5276Y-5.0394
X4.5276Y-5.2362
X4.5276Y-6.811
X4.565Y-6.4961
X4.5669Y-3.7402
X4.5669Y-3.8189
X4.5669Y-5.315
X4.5669Y-5.3937
X4.5669Y-5.5906
X4.5736Y-1.6559
X4.606Y-4.4447
X4.6063Y-4.5669
X4.6063Y-4.4919
X4.6102Y-4.3977
X4.6389Y-5.6232
X4.642Y-4.3323
X4.6437Y-3.5807
X4.6509Y-1.9796
X4.6732Y-3.6748
X4.6749Y-5.3066
X4.6778Y-4.0157
X4.6824Y-5.1212
X4.685Y-5.4724
X4.685Y-4.3128
X4.685Y-3.7402
X4.685Y-3.8189
X4.685Y-5.8268
X4.7224Y-5.4212
X4.7324Y-5.5412
X4.7524Y-5.7412
X4.7598Y-3.7135
X4.7822Y-6.3732
X4.7893Y-4.0157
X4.7894Y-4.2126
X4.7894Y-4.2913
X4.7964Y-4.5602
X4.8031Y-4.3701
X4.8031Y-4.4882
X4.8031Y-5.3543
X4.8124Y-5.1212
X4.8224Y-5.6112
X4.8424Y-6.5715
X4.8997Y-6.6112
X4.902Y-6.5344
X4.9213Y-6.4567
X4.9606Y-2.7953
T2
X1.3379Y-6.752
X1.3379Y-6.8701
X1.3379Y-6.9882
X1.3379Y-7.1063
X1.4379Y-6.752
X1.4379Y-6.8701
X1.4379Y-6.9882
X1.4379Y-7.1063
X1.5112Y-5.5984
X1.5112Y-5.8984
X1.5112Y-6.2677
X1.5112Y-6.5677
X1.5429Y-5.0827
X1.5429Y-5.2795
X1.6112Y-5.5984
X1.6112Y-5.8984
X1.6112Y-6.2677
X1.6112Y-6.5677
X1.7112Y-5.5984
X1.7112Y-5.8984
X1.7112Y-6.2677
X1.7112Y-6.5677
X1.7214Y-6.7971
X1.7214Y-7.0971
X1.8112Y-5.5984
X1.8112Y-5.8984
X1.8112Y-6.2677
X1.8112Y-6.5677
X1.8214Y-6.7971
X1.8214Y-7.0971
X1.8638Y-5.0866
X1.8638Y-5.2835
X1.9112Y-5.5984
X1.9112Y-5.8984
X1.9112Y-6.2677
X1.9112Y-6.5677
X1.9214Y-6.7971
X1.9214Y-7.0971
X2.0112Y-5.5984
X2.0112Y-5.8984
X2.0112Y-6.2677
X2.0112Y-6.5677
X2.0214Y-6.7971
X2.0214Y-7.0971
X2.1112Y-5.5984
X2.1112Y-5.8984
X2.1112Y-6.2677
X2.1112Y-6.5677
X2.3513Y-6.7971
X2.3513Y-7.0971
X2.4513Y-6.7971
X2.4513Y-7.0971
X2.5102Y-5.5984
X2.5102Y-5.8984
X2.5102Y-6.2756
X2.5102Y-6.5756
X2.5513Y-6.7971
X2.5513Y-7.0971
X2.6102Y-5.5984
X2.6102Y-5.8984
X2.6102Y-6.2756
X2.6102Y-6.5756
X2.6513Y-6.7971
X2.6513Y-7.0971
X2.689Y-0.9359
X2.689Y-1.0146
X2.689Y-1.0933
X2.689Y-1.1721
X2.689Y-1.2508
X2.689Y-1.3296
X2.689Y-1.4083
X2.689Y-1.487
X2.689Y-1.5658
X2.689Y-1.6445
X2.689Y-1.7233
X2.689Y-1.802
X2.689Y-1.8807
X2.689Y-1.9595
X2.689Y-2.0382
X2.689Y-2.117
X2.689Y-2.1957
X2.689Y-2.2744
X2.689Y-2.3532
X2.689Y-2.4319
X2.689Y-2.5107
X2.689Y-2.5894
X2.689Y-2.6681
X2.689Y-2.7469
X2.689Y-2.8256
X2.689Y-2.9044
X2.689Y-2.9831
X2.689Y-3.0618
X2.689Y-3.1406
X2.689Y-3.2193
X2.689Y-3.2981
X2.689Y-3.3768
X2.689Y-3.4555
X2.689Y-3.5343
X2.689Y-3.613
X2.689Y-3.6918
X2.689Y-3.7705
X2.689Y-3.8493
X2.689Y-3.928
X2.689Y-4.0067
X2.689Y-4.0878
X2.689Y-4.1666
X2.7102Y-5.5984
X2.7102Y-5.8984
X2.7102Y-6.2756
X2.7102Y-6.5756
X2.8102Y-5.5984
X2.8102Y-5.8984
X2.8102Y-6.2756
X2.8102Y-6.5756
X2.9102Y-5.5984
X2.9102Y-5.8984
X2.9102Y-6.2756
X2.9102Y-6.5756
X2.9536Y-6.7323
X2.9538Y-6.8504
X2.9538Y-6.9685
X2.9538Y-7.0866
X3.0102Y-5.5984
X3.0102Y-5.8984
X3.0102Y-6.2756
X3.0102Y-6.5756
X3.0536Y-6.7323
X3.0538Y-6.8504
X3.0538Y-6.9685
X3.0538Y-7.0866
X3.1102Y-5.5984
X3.1102Y-5.8984
X3.1102Y-6.2756
X3.1102Y-6.5756
X3.3043Y-6.8346
X3.3043Y-7.0315
X3.5581Y-5.5583
X3.5581Y-5.8583
X3.5581Y-6.0701
X3.5581Y-6.3701
X3.5581Y-6.5819
X3.5581Y-6.8819
X3.5581Y-7.0937
X3.5581Y-7.3937
X3.6581Y-5.5583
X3.6581Y-5.8583
X3.6581Y-6.0701
X3.6581Y-6.3701
X3.6581Y-6.5819
X3.6581Y-6.8819
X3.6581Y-7.0937
X3.6581Y-7.3937
X3.7067Y-1.0772
X3.7126Y-0.8083
X3.7581Y-5.5583
X3.7581Y-5.8583
X3.7581Y-6.0701
X3.7581Y-6.3701
X3.7581Y-6.5819
X3.7581Y-6.8819
X3.7581Y-7.0937
X3.7581Y-7.3937
X3.8157Y-4.5748
X3.8157Y-4.8748
X3.8197Y-3.937
X3.8197Y-4.237
X3.8581Y-5.5583
X3.8581Y-5.8583
X3.8581Y-6.0701
X3.8581Y-6.3701
X3.8581Y-6.5819
X3.8581Y-6.8819
X3.8581Y-7.0937
X3.8581Y-7.3937
X3.9035Y-1.0772
X3.9094Y-0.8083
X3.9157Y-4.5748
X3.9157Y-4.8748
X3.9197Y-3.937
X3.9197Y-4.237
X3.9581Y-5.5583
X3.9581Y-5.8583
X3.9581Y-6.0701
X3.9581Y-6.3701
X3.9581Y-6.5819
X3.9581Y-6.8819
X3.9581Y-7.0937
X3.9581Y-7.3937
X3.9949Y-2.8317
X3.9949Y-2.9317
X4.0157Y-4.5748
X4.0157Y-4.8748
X4.0197Y-3.937
X4.0197Y-4.237
X4.0581Y-5.5583
X4.0581Y-5.8583
X4.0581Y-6.0701
X4.0581Y-6.3701
X4.0581Y-6.5819
X4.0581Y-6.8819
X4.0581Y-7.0937
X4.0581Y-7.3937
X4.0703Y-1.7795
X4.0703Y-2.0795
X4.0703Y-2.3701
X4.0703Y-2.6701
X4.1157Y-4.5748
X4.1157Y-4.8748
X4.1197Y-3.937
X4.1197Y-4.237
X4.1581Y-5.5583
X4.1581Y-5.8583
X4.1581Y-6.0701
X4.1581Y-6.3701
X4.1581Y-6.5819
X4.1581Y-6.8819
X4.1581Y-7.0937
X4.1581Y-7.3937
X4.1703Y-1.7795
X4.1703Y-2.0795
X4.1703Y-2.3701
X4.1703Y-2.6701
X4.1732Y-2.8346
X4.1732Y-2.9346
X4.2157Y-4.5748
X4.2157Y-4.8748
X4.2197Y-3.937
X4.2197Y-4.237
X4.2703Y-1.7795
X4.2703Y-2.0795
X4.2703Y-2.3701
X4.2703Y-2.6701
X4.3157Y-4.5748
X4.3157Y-4.8748
X4.3197Y-3.937
X4.3197Y-4.237
X4.3701Y-2.8346
X4.3701Y-2.9346
X4.3703Y-1.7795
X4.3703Y-2.0795
X4.3703Y-2.3701
X4.3703Y-2.6701
X4.4157Y-4.5748
X4.4157Y-4.8748
X4.4197Y-3.937
X4.4197Y-4.237
X4.4703Y-1.7795
X4.4703Y-2.0795
X4.4703Y-2.3701
X4.4703Y-2.6701
X4.5157Y-4.5748
X4.5157Y-4.8748
X4.5197Y-3.937
X4.5197Y-4.237
X4.5669Y-2.8346
X4.5669Y-2.9346
X4.5703Y-1.7795
X4.5703Y-2.0795
X4.5703Y-2.3701
X4.5703Y-2.6701
X4.5846Y-7.3354
X4.6703Y-1.7795
X4.6703Y-2.0795
X4.6703Y-2.3701
X4.6703Y-2.6701
X4.6929Y-6.4715
X4.6929Y-6.5715
X4.6929Y-6.6715
X4.6929Y-6.7715
X4.6929Y-6.8715
X4.6929Y-6.9715
X4.6929Y-7.0715
X4.7815Y-7.3354
X4.8945Y-1.7972
X4.8945Y-1.9941
X4.8988Y-2.2154
X4.8988Y-2.4122
X4.9124Y-5.9724
X4.9124Y-6.0512
X4.9124Y-6.1299
X4.9929Y-6.4715
X4.9929Y-6.5715
X4.9929Y-6.6715
X4.9929Y-6.7715
X4.9929Y-6.8715
X4.9929Y-6.9715
X4.9929Y-7.0715
T3
X3.9441Y-3.1705
X4.0441Y-3.1705
X4.1589Y-3.1709
X4.2589Y-3.1709
X4.3748Y-3.1713
X4.4748Y-3.1713
X4.5909Y-3.1709
X4.6909Y-3.1709
T4
X1.1732Y-0.6209
X1.1732Y-0.7209
X1.1732Y-0.8209
X1.1732Y-0.9209
X1.1732Y-1.0209
X1.1732Y-1.1209
X1.1732Y-1.2209
X1.1732Y-1.3209
X1.1732Y-1.4209
X1.1732Y-1.5209
X1.1732Y-1.6209
X1.1732Y-1.7209
X1.1732Y-1.8209
X1.1732Y-1.9209
X1.1732Y-2.0209
X1.1732Y-2.1209
X1.1732Y-2.2209
X1.1732Y-2.3209
X1.1732Y-2.4209
X1.1732Y-2.5209
X1.1732Y-2.6209
X1.1732Y-2.7209
X1.1732Y-2.8209
X1.1732Y-2.9209
X1.1732Y-3.0209
X1.1732Y-3.1209
X1.1732Y-3.2209
X1.1732Y-3.3209
X1.1732Y-3.4209
X1.1732Y-3.5209
X1.1732Y-3.6209
X1.1732Y-3.7209
X1.1732Y-3.8209
X1.1732Y-3.9209
X1.1732Y-4.0209
X1.1732Y-4.1209
X1.1732Y-4.2209
X1.1732Y-4.3209
X1.1732Y-4.4209
X1.1732Y-4.5209
X1.1732Y-4.6209
X1.1732Y-4.7209
X1.1732Y-4.8209
X1.1732Y-4.9209
X1.1732Y-5.0209
X1.1732Y-5.1209
X1.1732Y-5.2209
X1.1732Y-5.3209
X1.1732Y-5.4209
X1.1732Y-5.5209
X1.1732Y-5.6209
X1.1732Y-5.7209
X1.1732Y-5.8209
X1.1732Y-5.9209
X1.1732Y-6.0209
X1.1732Y-6.1209
X1.1732Y-6.2209
X1.1732Y-6.3209
X1.1732Y-6.4209
X1.1732Y-6.5209
X1.1732Y-6.6209
X1.1732Y-6.7209
X1.1732Y-6.8209
X1.1732Y-6.9209
X1.1732Y-7.0209
X1.1732Y-7.1209
X1.1732Y-7.2209
X1.1732Y-7.3209
X1.1732Y-7.4209
X1.1732Y-7.5209
X1.1732Y-7.6209
X1.1732Y-7.7209
X1.1732Y-7.8209
X1.1732Y-7.9209
X1.1732Y-8.0209
X1.1732Y-8.1209
X1.1732Y-8.2209
X1.1732Y-8.3209
T0
M30
