%TF.GenerationSoftware,KiCad,Pcbnew,6.0.1-79c1e3a40b~116~ubuntu21.10.1*%
%TF.CreationDate,2022-02-14T17:39:21+01:00*%
%TF.ProjectId,dual_register,6475616c-5f72-4656-9769-737465722e6b,v.1*%
%TF.SameCoordinates,Original*%
%TF.FileFunction,Legend,Top*%
%TF.FilePolarity,Positive*%
%FSLAX46Y46*%
G04 Gerber Fmt 4.6, Leading zero omitted, Abs format (unit mm)*
G04 Created by KiCad (PCBNEW 6.0.1-79c1e3a40b~116~ubuntu21.10.1) date 2022-02-14 17:39:21*
%MOMM*%
%LPD*%
G01*
G04 APERTURE LIST*
%ADD10C,0.150000*%
%ADD11C,0.120000*%
G04 APERTURE END LIST*
D10*
%TO.C,C5*%
X231667142Y-89696666D02*
X231714761Y-89744285D01*
X231762380Y-89887142D01*
X231762380Y-89982380D01*
X231714761Y-90125238D01*
X231619523Y-90220476D01*
X231524285Y-90268095D01*
X231333809Y-90315714D01*
X231190952Y-90315714D01*
X231000476Y-90268095D01*
X230905238Y-90220476D01*
X230810000Y-90125238D01*
X230762380Y-89982380D01*
X230762380Y-89887142D01*
X230810000Y-89744285D01*
X230857619Y-89696666D01*
X230762380Y-88791904D02*
X230762380Y-89268095D01*
X231238571Y-89315714D01*
X231190952Y-89268095D01*
X231143333Y-89172857D01*
X231143333Y-88934761D01*
X231190952Y-88839523D01*
X231238571Y-88791904D01*
X231333809Y-88744285D01*
X231571904Y-88744285D01*
X231667142Y-88791904D01*
X231714761Y-88839523D01*
X231762380Y-88934761D01*
X231762380Y-89172857D01*
X231714761Y-89268095D01*
X231667142Y-89315714D01*
%TO.C,D1*%
X103972380Y-58763095D02*
X102972380Y-58763095D01*
X102972380Y-58525000D01*
X103020000Y-58382142D01*
X103115238Y-58286904D01*
X103210476Y-58239285D01*
X103400952Y-58191666D01*
X103543809Y-58191666D01*
X103734285Y-58239285D01*
X103829523Y-58286904D01*
X103924761Y-58382142D01*
X103972380Y-58525000D01*
X103972380Y-58763095D01*
X103972380Y-57239285D02*
X103972380Y-57810714D01*
X103972380Y-57525000D02*
X102972380Y-57525000D01*
X103115238Y-57620238D01*
X103210476Y-57715476D01*
X103258095Y-57810714D01*
%TO.C,U1*%
X218244380Y-55512404D02*
X219053904Y-55512404D01*
X219149142Y-55464785D01*
X219196761Y-55417166D01*
X219244380Y-55321928D01*
X219244380Y-55131452D01*
X219196761Y-55036214D01*
X219149142Y-54988595D01*
X219053904Y-54940976D01*
X218244380Y-54940976D01*
X219244380Y-53940976D02*
X219244380Y-54512404D01*
X219244380Y-54226690D02*
X218244380Y-54226690D01*
X218387238Y-54321928D01*
X218482476Y-54417166D01*
X218530095Y-54512404D01*
%TO.C,C1*%
X224893333Y-56887142D02*
X224845714Y-56934761D01*
X224702857Y-56982380D01*
X224607619Y-56982380D01*
X224464761Y-56934761D01*
X224369523Y-56839523D01*
X224321904Y-56744285D01*
X224274285Y-56553809D01*
X224274285Y-56410952D01*
X224321904Y-56220476D01*
X224369523Y-56125238D01*
X224464761Y-56030000D01*
X224607619Y-55982380D01*
X224702857Y-55982380D01*
X224845714Y-56030000D01*
X224893333Y-56077619D01*
X225845714Y-56982380D02*
X225274285Y-56982380D01*
X225560000Y-56982380D02*
X225560000Y-55982380D01*
X225464761Y-56125238D01*
X225369523Y-56220476D01*
X225274285Y-56268095D01*
%TO.C,C2*%
X84917142Y-103696666D02*
X84964761Y-103744285D01*
X85012380Y-103887142D01*
X85012380Y-103982380D01*
X84964761Y-104125238D01*
X84869523Y-104220476D01*
X84774285Y-104268095D01*
X84583809Y-104315714D01*
X84440952Y-104315714D01*
X84250476Y-104268095D01*
X84155238Y-104220476D01*
X84060000Y-104125238D01*
X84012380Y-103982380D01*
X84012380Y-103887142D01*
X84060000Y-103744285D01*
X84107619Y-103696666D01*
X84107619Y-103315714D02*
X84060000Y-103268095D01*
X84012380Y-103172857D01*
X84012380Y-102934761D01*
X84060000Y-102839523D01*
X84107619Y-102791904D01*
X84202857Y-102744285D01*
X84298095Y-102744285D01*
X84440952Y-102791904D01*
X85012380Y-103363333D01*
X85012380Y-102744285D01*
%TO.C,R1*%
X96982380Y-58321666D02*
X96506190Y-58655000D01*
X96982380Y-58893095D02*
X95982380Y-58893095D01*
X95982380Y-58512142D01*
X96030000Y-58416904D01*
X96077619Y-58369285D01*
X96172857Y-58321666D01*
X96315714Y-58321666D01*
X96410952Y-58369285D01*
X96458571Y-58416904D01*
X96506190Y-58512142D01*
X96506190Y-58893095D01*
X96982380Y-57369285D02*
X96982380Y-57940714D01*
X96982380Y-57655000D02*
X95982380Y-57655000D01*
X96125238Y-57750238D01*
X96220476Y-57845476D01*
X96268095Y-57940714D01*
%TO.C,U5*%
X168207380Y-90271904D02*
X169016904Y-90271904D01*
X169112142Y-90224285D01*
X169159761Y-90176666D01*
X169207380Y-90081428D01*
X169207380Y-89890952D01*
X169159761Y-89795714D01*
X169112142Y-89748095D01*
X169016904Y-89700476D01*
X168207380Y-89700476D01*
X168207380Y-88748095D02*
X168207380Y-89224285D01*
X168683571Y-89271904D01*
X168635952Y-89224285D01*
X168588333Y-89129047D01*
X168588333Y-88890952D01*
X168635952Y-88795714D01*
X168683571Y-88748095D01*
X168778809Y-88700476D01*
X169016904Y-88700476D01*
X169112142Y-88748095D01*
X169159761Y-88795714D01*
X169207380Y-88890952D01*
X169207380Y-89129047D01*
X169159761Y-89224285D01*
X169112142Y-89271904D01*
%TO.C,D2*%
X103972380Y-65788095D02*
X102972380Y-65788095D01*
X102972380Y-65550000D01*
X103020000Y-65407142D01*
X103115238Y-65311904D01*
X103210476Y-65264285D01*
X103400952Y-65216666D01*
X103543809Y-65216666D01*
X103734285Y-65264285D01*
X103829523Y-65311904D01*
X103924761Y-65407142D01*
X103972380Y-65550000D01*
X103972380Y-65788095D01*
X103067619Y-64835714D02*
X103020000Y-64788095D01*
X102972380Y-64692857D01*
X102972380Y-64454761D01*
X103020000Y-64359523D01*
X103067619Y-64311904D01*
X103162857Y-64264285D01*
X103258095Y-64264285D01*
X103400952Y-64311904D01*
X103972380Y-64883333D01*
X103972380Y-64264285D01*
%TO.C,C6*%
X113667142Y-89196666D02*
X113714761Y-89244285D01*
X113762380Y-89387142D01*
X113762380Y-89482380D01*
X113714761Y-89625238D01*
X113619523Y-89720476D01*
X113524285Y-89768095D01*
X113333809Y-89815714D01*
X113190952Y-89815714D01*
X113000476Y-89768095D01*
X112905238Y-89720476D01*
X112810000Y-89625238D01*
X112762380Y-89482380D01*
X112762380Y-89387142D01*
X112810000Y-89244285D01*
X112857619Y-89196666D01*
X112762380Y-88339523D02*
X112762380Y-88530000D01*
X112810000Y-88625238D01*
X112857619Y-88672857D01*
X113000476Y-88768095D01*
X113190952Y-88815714D01*
X113571904Y-88815714D01*
X113667142Y-88768095D01*
X113714761Y-88720476D01*
X113762380Y-88625238D01*
X113762380Y-88434761D01*
X113714761Y-88339523D01*
X113667142Y-88291904D01*
X113571904Y-88244285D01*
X113333809Y-88244285D01*
X113238571Y-88291904D01*
X113190952Y-88339523D01*
X113143333Y-88434761D01*
X113143333Y-88625238D01*
X113190952Y-88720476D01*
X113238571Y-88768095D01*
X113333809Y-88815714D01*
%TO.C,U2*%
X195323380Y-67301904D02*
X196132904Y-67301904D01*
X196228142Y-67254285D01*
X196275761Y-67206666D01*
X196323380Y-67111428D01*
X196323380Y-66920952D01*
X196275761Y-66825714D01*
X196228142Y-66778095D01*
X196132904Y-66730476D01*
X195323380Y-66730476D01*
X195418619Y-66301904D02*
X195371000Y-66254285D01*
X195323380Y-66159047D01*
X195323380Y-65920952D01*
X195371000Y-65825714D01*
X195418619Y-65778095D01*
X195513857Y-65730476D01*
X195609095Y-65730476D01*
X195751952Y-65778095D01*
X196323380Y-66349523D01*
X196323380Y-65730476D01*
%TO.C,U6*%
X224617380Y-90251904D02*
X225426904Y-90251904D01*
X225522142Y-90204285D01*
X225569761Y-90156666D01*
X225617380Y-90061428D01*
X225617380Y-89870952D01*
X225569761Y-89775714D01*
X225522142Y-89728095D01*
X225426904Y-89680476D01*
X224617380Y-89680476D01*
X224617380Y-88775714D02*
X224617380Y-88966190D01*
X224665000Y-89061428D01*
X224712619Y-89109047D01*
X224855476Y-89204285D01*
X225045952Y-89251904D01*
X225426904Y-89251904D01*
X225522142Y-89204285D01*
X225569761Y-89156666D01*
X225617380Y-89061428D01*
X225617380Y-88870952D01*
X225569761Y-88775714D01*
X225522142Y-88728095D01*
X225426904Y-88680476D01*
X225188809Y-88680476D01*
X225093571Y-88728095D01*
X225045952Y-88775714D01*
X224998333Y-88870952D01*
X224998333Y-89061428D01*
X225045952Y-89156666D01*
X225093571Y-89204285D01*
X225188809Y-89251904D01*
%TO.C,C4*%
X75417142Y-103696666D02*
X75464761Y-103744285D01*
X75512380Y-103887142D01*
X75512380Y-103982380D01*
X75464761Y-104125238D01*
X75369523Y-104220476D01*
X75274285Y-104268095D01*
X75083809Y-104315714D01*
X74940952Y-104315714D01*
X74750476Y-104268095D01*
X74655238Y-104220476D01*
X74560000Y-104125238D01*
X74512380Y-103982380D01*
X74512380Y-103887142D01*
X74560000Y-103744285D01*
X74607619Y-103696666D01*
X74845714Y-102839523D02*
X75512380Y-102839523D01*
X74464761Y-103077619D02*
X75179047Y-103315714D01*
X75179047Y-102696666D01*
%TO.C,J1*%
X229282380Y-32748333D02*
X229996666Y-32748333D01*
X230139523Y-32795952D01*
X230234761Y-32891190D01*
X230282380Y-33034047D01*
X230282380Y-33129285D01*
X230282380Y-31748333D02*
X230282380Y-32319761D01*
X230282380Y-32034047D02*
X229282380Y-32034047D01*
X229425238Y-32129285D01*
X229520476Y-32224523D01*
X229568095Y-32319761D01*
X92013380Y-58842333D02*
X91537190Y-59175666D01*
X92013380Y-59413761D02*
X91013380Y-59413761D01*
X91013380Y-59032809D01*
X91061000Y-58937571D01*
X91108619Y-58889952D01*
X91203857Y-58842333D01*
X91346714Y-58842333D01*
X91441952Y-58889952D01*
X91489571Y-58937571D01*
X91537190Y-59032809D01*
X91537190Y-59413761D01*
X91489571Y-58413761D02*
X91489571Y-58080428D01*
X92013380Y-57937571D02*
X92013380Y-58413761D01*
X91013380Y-58413761D01*
X91013380Y-57937571D01*
X91489571Y-57175666D02*
X91489571Y-57509000D01*
X92013380Y-57509000D02*
X91013380Y-57509000D01*
X91013380Y-57032809D01*
X91013380Y-56509000D02*
X91251476Y-56509000D01*
X91156238Y-56747095D02*
X91251476Y-56509000D01*
X91156238Y-56270904D01*
X91441952Y-56651857D02*
X91251476Y-56509000D01*
X91441952Y-56366142D01*
X91013380Y-55747095D02*
X91251476Y-55747095D01*
X91156238Y-55985190D02*
X91251476Y-55747095D01*
X91156238Y-55509000D01*
X91441952Y-55889952D02*
X91251476Y-55747095D01*
X91441952Y-55604238D01*
%TO.C,R2*%
X96982380Y-65346666D02*
X96506190Y-65680000D01*
X96982380Y-65918095D02*
X95982380Y-65918095D01*
X95982380Y-65537142D01*
X96030000Y-65441904D01*
X96077619Y-65394285D01*
X96172857Y-65346666D01*
X96315714Y-65346666D01*
X96410952Y-65394285D01*
X96458571Y-65441904D01*
X96506190Y-65537142D01*
X96506190Y-65918095D01*
X96077619Y-64965714D02*
X96030000Y-64918095D01*
X95982380Y-64822857D01*
X95982380Y-64584761D01*
X96030000Y-64489523D01*
X96077619Y-64441904D01*
X96172857Y-64394285D01*
X96268095Y-64394285D01*
X96410952Y-64441904D01*
X96982380Y-65013333D01*
X96982380Y-64394285D01*
%TO.C,J4*%
X85012380Y-103863333D02*
X85726666Y-103863333D01*
X85869523Y-103910952D01*
X85964761Y-104006190D01*
X86012380Y-104149047D01*
X86012380Y-104244285D01*
X85345714Y-102958571D02*
X86012380Y-102958571D01*
X84964761Y-103196666D02*
X85679047Y-103434761D01*
X85679047Y-102815714D01*
%TO.C,U4*%
X195317380Y-90201904D02*
X196126904Y-90201904D01*
X196222142Y-90154285D01*
X196269761Y-90106666D01*
X196317380Y-90011428D01*
X196317380Y-89820952D01*
X196269761Y-89725714D01*
X196222142Y-89678095D01*
X196126904Y-89630476D01*
X195317380Y-89630476D01*
X195650714Y-88725714D02*
X196317380Y-88725714D01*
X195269761Y-88963809D02*
X195984047Y-89201904D01*
X195984047Y-88582857D01*
%TO.C,J3*%
X177072380Y-117863333D02*
X177786666Y-117863333D01*
X177929523Y-117910952D01*
X178024761Y-118006190D01*
X178072380Y-118149047D01*
X178072380Y-118244285D01*
X177072380Y-117482380D02*
X177072380Y-116863333D01*
X177453333Y-117196666D01*
X177453333Y-117053809D01*
X177500952Y-116958571D01*
X177548571Y-116910952D01*
X177643809Y-116863333D01*
X177881904Y-116863333D01*
X177977142Y-116910952D01*
X178024761Y-116958571D01*
X178072380Y-117053809D01*
X178072380Y-117339523D01*
X178024761Y-117434761D01*
X177977142Y-117482380D01*
%TO.C,J2*%
X177572380Y-106363333D02*
X178286666Y-106363333D01*
X178429523Y-106410952D01*
X178524761Y-106506190D01*
X178572380Y-106649047D01*
X178572380Y-106744285D01*
X177667619Y-105934761D02*
X177620000Y-105887142D01*
X177572380Y-105791904D01*
X177572380Y-105553809D01*
X177620000Y-105458571D01*
X177667619Y-105410952D01*
X177762857Y-105363333D01*
X177858095Y-105363333D01*
X178000952Y-105410952D01*
X178572380Y-105982380D01*
X178572380Y-105363333D01*
%TO.C,U9*%
X104342380Y-79101904D02*
X105151904Y-79101904D01*
X105247142Y-79054285D01*
X105294761Y-79006666D01*
X105342380Y-78911428D01*
X105342380Y-78720952D01*
X105294761Y-78625714D01*
X105247142Y-78578095D01*
X105151904Y-78530476D01*
X104342380Y-78530476D01*
X105342380Y-78006666D02*
X105342380Y-77816190D01*
X105294761Y-77720952D01*
X105247142Y-77673333D01*
X105104285Y-77578095D01*
X104913809Y-77530476D01*
X104532857Y-77530476D01*
X104437619Y-77578095D01*
X104390000Y-77625714D01*
X104342380Y-77720952D01*
X104342380Y-77911428D01*
X104390000Y-78006666D01*
X104437619Y-78054285D01*
X104532857Y-78101904D01*
X104770952Y-78101904D01*
X104866190Y-78054285D01*
X104913809Y-78006666D01*
X104961428Y-77911428D01*
X104961428Y-77720952D01*
X104913809Y-77625714D01*
X104866190Y-77578095D01*
X104770952Y-77530476D01*
%TO.C,U7*%
X139157380Y-90291904D02*
X139966904Y-90291904D01*
X140062142Y-90244285D01*
X140109761Y-90196666D01*
X140157380Y-90101428D01*
X140157380Y-89910952D01*
X140109761Y-89815714D01*
X140062142Y-89768095D01*
X139966904Y-89720476D01*
X139157380Y-89720476D01*
X139157380Y-89339523D02*
X139157380Y-88672857D01*
X140157380Y-89101428D01*
%TO.C,U3*%
X168267380Y-67301904D02*
X169076904Y-67301904D01*
X169172142Y-67254285D01*
X169219761Y-67206666D01*
X169267380Y-67111428D01*
X169267380Y-66920952D01*
X169219761Y-66825714D01*
X169172142Y-66778095D01*
X169076904Y-66730476D01*
X168267380Y-66730476D01*
X168267380Y-66349523D02*
X168267380Y-65730476D01*
X168648333Y-66063809D01*
X168648333Y-65920952D01*
X168695952Y-65825714D01*
X168743571Y-65778095D01*
X168838809Y-65730476D01*
X169076904Y-65730476D01*
X169172142Y-65778095D01*
X169219761Y-65825714D01*
X169267380Y-65920952D01*
X169267380Y-66206666D01*
X169219761Y-66301904D01*
X169172142Y-66349523D01*
%TO.C,U8*%
X104342380Y-95301904D02*
X105151904Y-95301904D01*
X105247142Y-95254285D01*
X105294761Y-95206666D01*
X105342380Y-95111428D01*
X105342380Y-94920952D01*
X105294761Y-94825714D01*
X105247142Y-94778095D01*
X105151904Y-94730476D01*
X104342380Y-94730476D01*
X104770952Y-94111428D02*
X104723333Y-94206666D01*
X104675714Y-94254285D01*
X104580476Y-94301904D01*
X104532857Y-94301904D01*
X104437619Y-94254285D01*
X104390000Y-94206666D01*
X104342380Y-94111428D01*
X104342380Y-93920952D01*
X104390000Y-93825714D01*
X104437619Y-93778095D01*
X104532857Y-93730476D01*
X104580476Y-93730476D01*
X104675714Y-93778095D01*
X104723333Y-93825714D01*
X104770952Y-93920952D01*
X104770952Y-94111428D01*
X104818571Y-94206666D01*
X104866190Y-94254285D01*
X104961428Y-94301904D01*
X105151904Y-94301904D01*
X105247142Y-94254285D01*
X105294761Y-94206666D01*
X105342380Y-94111428D01*
X105342380Y-93920952D01*
X105294761Y-93825714D01*
X105247142Y-93778095D01*
X105151904Y-93730476D01*
X104961428Y-93730476D01*
X104866190Y-93778095D01*
X104818571Y-93825714D01*
X104770952Y-93920952D01*
%TO.C,C3*%
X224893333Y-47387142D02*
X224845714Y-47434761D01*
X224702857Y-47482380D01*
X224607619Y-47482380D01*
X224464761Y-47434761D01*
X224369523Y-47339523D01*
X224321904Y-47244285D01*
X224274285Y-47053809D01*
X224274285Y-46910952D01*
X224321904Y-46720476D01*
X224369523Y-46625238D01*
X224464761Y-46530000D01*
X224607619Y-46482380D01*
X224702857Y-46482380D01*
X224845714Y-46530000D01*
X224893333Y-46577619D01*
X225226666Y-46482380D02*
X225845714Y-46482380D01*
X225512380Y-46863333D01*
X225655238Y-46863333D01*
X225750476Y-46910952D01*
X225798095Y-46958571D01*
X225845714Y-47053809D01*
X225845714Y-47291904D01*
X225798095Y-47387142D01*
X225750476Y-47434761D01*
X225655238Y-47482380D01*
X225369523Y-47482380D01*
X225274285Y-47434761D01*
X225226666Y-47387142D01*
D11*
%TO.C,C5*%
X224940000Y-85410000D02*
X224940000Y-93650000D01*
X230180000Y-85410000D02*
X230180000Y-93650000D01*
X230180000Y-93650000D02*
X224940000Y-93650000D01*
X230180000Y-85410000D02*
X224940000Y-85410000D01*
%TO.C,D1*%
X101105000Y-55465000D02*
X98015000Y-55465000D01*
X99559538Y-61015000D02*
G75*
G03*
X101104830Y-55465000I462J2990000D01*
G01*
X98015170Y-55465000D02*
G75*
G03*
X99560462Y-61015000I1544830J-2560000D01*
G01*
X102060000Y-58025000D02*
G75*
G03*
X102060000Y-58025000I-2500000J0D01*
G01*
%TO.C,U1*%
X140702000Y-51408429D02*
X140702000Y-51805500D01*
X207632000Y-51805500D02*
X207632000Y-54465500D01*
X183122000Y-60465500D02*
X183122000Y-54465500D01*
X172072000Y-51805500D02*
X172072000Y-54465500D01*
X196582000Y-51408429D02*
X196582000Y-51805500D01*
X132322000Y-51408429D02*
X132322000Y-51805500D01*
X213602000Y-51408429D02*
X213602000Y-51805500D01*
X128002000Y-54465500D02*
X128002000Y-60465500D01*
X159372000Y-51805500D02*
X159372000Y-54465500D01*
X139942000Y-60465500D02*
X139942000Y-54465500D01*
X155182000Y-60465500D02*
X155182000Y-54465500D01*
X112695960Y-51408429D02*
X112695960Y-51805500D01*
X181342000Y-60465500D02*
X180582000Y-60465500D01*
X112695960Y-54465500D02*
X112695960Y-60465500D01*
X163562000Y-51408429D02*
X163562000Y-51805500D01*
X143242000Y-51408429D02*
X143242000Y-51805500D01*
X216242000Y-54465500D02*
X216242000Y-60465500D01*
X195822000Y-51408429D02*
X195822000Y-51805500D01*
X168642000Y-51408429D02*
X168642000Y-51805500D01*
X216362000Y-54465500D02*
X216362000Y-60465500D01*
X168642000Y-60465500D02*
X167882000Y-60465500D01*
X147562000Y-51408429D02*
X147562000Y-51805500D01*
X185662000Y-60465500D02*
X185662000Y-54465500D01*
X165342000Y-51408429D02*
X165342000Y-51805500D01*
X209282000Y-54465500D02*
X209282000Y-60465500D01*
X196582000Y-60465500D02*
X195822000Y-60465500D01*
X163562000Y-54465500D02*
X163562000Y-60465500D01*
X134862000Y-60465500D02*
X134862000Y-54465500D01*
X203442000Y-51408429D02*
X203442000Y-51805500D01*
X186422000Y-54465500D02*
X186422000Y-60465500D01*
X180582000Y-60465500D02*
X180582000Y-54465500D01*
X178802000Y-54465500D02*
X178802000Y-60465500D01*
X128892000Y-51805500D02*
X128892000Y-54465500D01*
X191502000Y-54465500D02*
X191502000Y-60465500D01*
X198362000Y-60465500D02*
X198362000Y-54465500D01*
X155182000Y-51408429D02*
X155182000Y-51805500D01*
X188962000Y-54465500D02*
X188962000Y-60465500D01*
X155942000Y-60465500D02*
X155182000Y-60465500D01*
X145022000Y-60465500D02*
X145022000Y-54465500D01*
X145782000Y-60465500D02*
X145022000Y-60465500D01*
X177152000Y-51805500D02*
X177152000Y-54465500D01*
X145022000Y-51408429D02*
X145022000Y-51805500D01*
X178802000Y-60465500D02*
X178042000Y-60465500D01*
X150862000Y-60465500D02*
X150102000Y-60465500D01*
X204202000Y-51408429D02*
X204202000Y-51805500D01*
X128002000Y-60465500D02*
X127242000Y-60465500D01*
X160262000Y-51408429D02*
X160262000Y-51805500D01*
X166102000Y-60465500D02*
X165342000Y-60465500D01*
X193282000Y-51408429D02*
X193282000Y-51805500D01*
X176262000Y-51408429D02*
X176262000Y-51805500D01*
X111045960Y-51805500D02*
X111045960Y-54465500D01*
X171182000Y-54465500D02*
X171182000Y-60465500D01*
X188962000Y-60465500D02*
X188202000Y-60465500D01*
X111935960Y-51408429D02*
X111935960Y-51805500D01*
X122922000Y-51408429D02*
X122922000Y-51805500D01*
X131432000Y-51805500D02*
X131432000Y-54465500D01*
X138162000Y-51408429D02*
X138162000Y-51805500D01*
X137402000Y-60465500D02*
X137402000Y-54465500D01*
X158482000Y-60465500D02*
X157722000Y-60465500D01*
X163562000Y-60465500D02*
X162802000Y-60465500D01*
X181342000Y-51408429D02*
X181342000Y-51805500D01*
X150102000Y-60465500D02*
X150102000Y-54465500D01*
X217852000Y-51805500D02*
X111045960Y-51805500D01*
X124702000Y-60465500D02*
X124702000Y-54465500D01*
X117842000Y-60465500D02*
X117082000Y-60465500D01*
X187312000Y-51805500D02*
X187312000Y-54465500D01*
X134862000Y-51408429D02*
X134862000Y-51805500D01*
X162802000Y-51408429D02*
X162802000Y-51805500D01*
X189852000Y-51805500D02*
X189852000Y-54465500D01*
X149212000Y-51805500D02*
X149212000Y-54465500D01*
X142482000Y-60465500D02*
X142482000Y-54465500D01*
X145782000Y-51408429D02*
X145782000Y-51805500D01*
X167882000Y-60465500D02*
X167882000Y-54465500D01*
X115235960Y-60465500D02*
X114475960Y-60465500D01*
X206742000Y-54465500D02*
X206742000Y-60465500D01*
X122162000Y-51408429D02*
X122162000Y-51805500D01*
X150102000Y-51408429D02*
X150102000Y-51805500D01*
X173722000Y-51408429D02*
X173722000Y-51805500D01*
X115235960Y-54465500D02*
X115235960Y-60465500D01*
X120382000Y-60465500D02*
X119622000Y-60465500D01*
X178042000Y-51408429D02*
X178042000Y-51805500D01*
X138162000Y-54465500D02*
X138162000Y-60465500D01*
X152642000Y-51408429D02*
X152642000Y-51805500D01*
X150862000Y-51408429D02*
X150862000Y-51805500D01*
X135622000Y-60465500D02*
X134862000Y-60465500D01*
X138162000Y-60465500D02*
X137402000Y-60465500D01*
X153402000Y-54465500D02*
X153402000Y-60465500D01*
X161022000Y-54465500D02*
X161022000Y-60465500D01*
X211822000Y-51408429D02*
X211822000Y-51805500D01*
X157722000Y-51408429D02*
X157722000Y-51805500D01*
X113585960Y-51805500D02*
X113585960Y-54465500D01*
X166992000Y-51805500D02*
X166992000Y-54465500D01*
X216142000Y-60465500D02*
X216142000Y-54465500D01*
X201662000Y-60465500D02*
X200902000Y-60465500D01*
X136512000Y-51805500D02*
X136512000Y-54465500D01*
X120382000Y-54465500D02*
X120382000Y-60465500D01*
X117082000Y-60465500D02*
X117082000Y-54465500D01*
X144132000Y-51805500D02*
X144132000Y-54465500D01*
X171182000Y-60465500D02*
X170422000Y-60465500D01*
X173722000Y-60465500D02*
X172962000Y-60465500D01*
X125462000Y-51408429D02*
X125462000Y-51805500D01*
X201662000Y-51408429D02*
X201662000Y-51805500D01*
X173722000Y-54465500D02*
X173722000Y-60465500D01*
X203442000Y-60465500D02*
X203442000Y-54465500D01*
X208522000Y-51408429D02*
X208522000Y-51805500D01*
X122922000Y-60465500D02*
X122162000Y-60465500D01*
X184772000Y-51805500D02*
X184772000Y-54465500D01*
X116125960Y-51805500D02*
X116125960Y-54465500D01*
X200902000Y-51408429D02*
X200902000Y-51805500D01*
X178042000Y-60465500D02*
X178042000Y-54465500D01*
X119622000Y-51408429D02*
X119622000Y-51805500D01*
X139052000Y-51805500D02*
X139052000Y-54465500D01*
X129782000Y-51408429D02*
X129782000Y-51805500D01*
X117842000Y-54465500D02*
X117842000Y-60465500D01*
X133082000Y-60465500D02*
X132322000Y-60465500D01*
X197472000Y-51805500D02*
X197472000Y-54465500D01*
X170422000Y-51408429D02*
X170422000Y-51805500D01*
X195822000Y-60465500D02*
X195822000Y-54465500D01*
X199122000Y-54465500D02*
X199122000Y-60465500D01*
X176262000Y-60465500D02*
X175502000Y-60465500D01*
X130542000Y-54465500D02*
X130542000Y-60465500D01*
X172962000Y-51408429D02*
X172962000Y-51805500D01*
X188202000Y-51408429D02*
X188202000Y-51805500D01*
X148322000Y-60465500D02*
X147562000Y-60465500D01*
X216602000Y-54465500D02*
X216602000Y-60465500D01*
X141592000Y-51805500D02*
X141592000Y-54465500D01*
X176262000Y-54465500D02*
X176262000Y-60465500D01*
X190742000Y-51408429D02*
X190742000Y-51805500D01*
X183882000Y-60465500D02*
X183122000Y-60465500D01*
X200902000Y-60465500D02*
X200902000Y-54465500D01*
X143242000Y-54465500D02*
X143242000Y-60465500D01*
X171182000Y-51408429D02*
X171182000Y-51805500D01*
X117082000Y-51408429D02*
X117082000Y-51805500D01*
X158482000Y-54465500D02*
X158482000Y-60465500D01*
X191502000Y-51408429D02*
X191502000Y-51805500D01*
X175502000Y-51408429D02*
X175502000Y-51805500D01*
X178802000Y-51408429D02*
X178802000Y-51805500D01*
X146672000Y-51805500D02*
X146672000Y-54465500D01*
X211062000Y-51408429D02*
X211062000Y-51805500D01*
X183882000Y-51408429D02*
X183882000Y-51805500D01*
X181342000Y-54465500D02*
X181342000Y-60465500D01*
X211822000Y-60465500D02*
X211062000Y-60465500D01*
X167882000Y-51408429D02*
X167882000Y-51805500D01*
X156832000Y-51805500D02*
X156832000Y-54465500D01*
X127242000Y-51408429D02*
X127242000Y-51805500D01*
X213602000Y-60465500D02*
X213602000Y-54465500D01*
X170422000Y-60465500D02*
X170422000Y-54465500D01*
X172962000Y-60465500D02*
X172962000Y-54465500D01*
X210172000Y-51805500D02*
X210172000Y-54465500D01*
X160262000Y-60465500D02*
X160262000Y-54465500D01*
X214362000Y-60465500D02*
X213602000Y-60465500D01*
X133082000Y-51408429D02*
X133082000Y-51805500D01*
X206742000Y-51408429D02*
X206742000Y-51805500D01*
X130542000Y-60465500D02*
X129782000Y-60465500D01*
X188202000Y-60465500D02*
X188202000Y-54465500D01*
X118732000Y-51805500D02*
X118732000Y-54465500D01*
X135622000Y-51408429D02*
X135622000Y-51805500D01*
X208522000Y-60465500D02*
X208522000Y-54465500D01*
X216522000Y-49095500D02*
X217792000Y-49095500D01*
X191502000Y-60465500D02*
X190742000Y-60465500D01*
X112695960Y-60465500D02*
X111935960Y-60465500D01*
X190742000Y-60465500D02*
X190742000Y-54465500D01*
X148322000Y-54465500D02*
X148322000Y-60465500D01*
X216842000Y-54465500D02*
X216842000Y-60465500D01*
X212712000Y-51805500D02*
X212712000Y-54465500D01*
X145782000Y-54465500D02*
X145782000Y-60465500D01*
X200012000Y-51805500D02*
X200012000Y-54465500D01*
X205092000Y-51805500D02*
X205092000Y-54465500D01*
X194042000Y-60465500D02*
X193282000Y-60465500D01*
X125462000Y-60465500D02*
X124702000Y-60465500D01*
X204202000Y-54465500D02*
X204202000Y-60465500D01*
X152642000Y-60465500D02*
X152642000Y-54465500D01*
X122922000Y-54465500D02*
X122922000Y-60465500D01*
X155942000Y-51408429D02*
X155942000Y-51805500D01*
X129782000Y-60465500D02*
X129782000Y-54465500D01*
X123812000Y-51805500D02*
X123812000Y-54465500D01*
X128002000Y-51408429D02*
X128002000Y-51805500D01*
X211822000Y-54465500D02*
X211822000Y-60465500D01*
X120382000Y-51408429D02*
X120382000Y-51805500D01*
X179692000Y-51805500D02*
X179692000Y-54465500D01*
X139942000Y-51408429D02*
X139942000Y-51805500D01*
X193282000Y-60465500D02*
X193282000Y-54465500D01*
X199122000Y-60465500D02*
X198362000Y-60465500D01*
X192392000Y-51805500D02*
X192392000Y-54465500D01*
X140702000Y-60465500D02*
X139942000Y-60465500D01*
X194932000Y-51805500D02*
X194932000Y-54465500D01*
X211062000Y-60465500D02*
X211062000Y-54465500D01*
X209282000Y-60465500D02*
X208522000Y-60465500D01*
X205982000Y-60465500D02*
X205982000Y-54465500D01*
X204202000Y-60465500D02*
X203442000Y-60465500D01*
X206742000Y-60465500D02*
X205982000Y-60465500D01*
X199122000Y-51408429D02*
X199122000Y-51805500D01*
X114475960Y-60465500D02*
X114475960Y-54465500D01*
X216902000Y-51475500D02*
X216902000Y-51805500D01*
X142482000Y-51408429D02*
X142482000Y-51805500D01*
X140702000Y-54465500D02*
X140702000Y-60465500D01*
X183122000Y-51408429D02*
X183122000Y-51805500D01*
X186422000Y-60465500D02*
X185662000Y-60465500D01*
X194042000Y-54465500D02*
X194042000Y-60465500D01*
X164452000Y-51805500D02*
X164452000Y-54465500D01*
X143242000Y-60465500D02*
X142482000Y-60465500D01*
X169532000Y-51805500D02*
X169532000Y-54465500D01*
X180582000Y-51408429D02*
X180582000Y-51805500D01*
X174612000Y-51805500D02*
X174612000Y-54465500D01*
X135622000Y-54465500D02*
X135622000Y-60465500D01*
X183882000Y-54465500D02*
X183882000Y-60465500D01*
X165342000Y-60465500D02*
X165342000Y-54465500D01*
X121272000Y-51805500D02*
X121272000Y-54465500D01*
X161022000Y-51408429D02*
X161022000Y-51805500D01*
X122162000Y-60465500D02*
X122162000Y-54465500D01*
X194042000Y-51408429D02*
X194042000Y-51805500D01*
X126352000Y-51805500D02*
X126352000Y-54465500D01*
X175502000Y-60465500D02*
X175502000Y-54465500D01*
X124702000Y-51408429D02*
X124702000Y-51805500D01*
X216902000Y-54465500D02*
X216902000Y-60465500D01*
X117842000Y-51408429D02*
X117842000Y-51805500D01*
X215252000Y-51805500D02*
X215252000Y-54465500D01*
X214362000Y-51408429D02*
X214362000Y-51805500D01*
X158482000Y-51408429D02*
X158482000Y-51805500D01*
X209282000Y-51408429D02*
X209282000Y-51805500D01*
X154292000Y-51805500D02*
X154292000Y-54465500D01*
X217852000Y-54465500D02*
X217852000Y-51805500D01*
X202552000Y-51805500D02*
X202552000Y-54465500D01*
X151752000Y-51805500D02*
X151752000Y-54465500D01*
X216482000Y-54465500D02*
X216482000Y-60465500D01*
X201662000Y-54465500D02*
X201662000Y-60465500D01*
X182232000Y-51805500D02*
X182232000Y-54465500D01*
X148322000Y-51408429D02*
X148322000Y-51805500D01*
X217792000Y-49095500D02*
X217792000Y-50365500D01*
X166102000Y-54465500D02*
X166102000Y-60465500D01*
X162802000Y-60465500D02*
X162802000Y-54465500D01*
X147562000Y-60465500D02*
X147562000Y-54465500D01*
X137402000Y-51408429D02*
X137402000Y-51805500D01*
X216722000Y-54465500D02*
X216722000Y-60465500D01*
X130542000Y-51408429D02*
X130542000Y-51805500D01*
X216902000Y-60465500D02*
X216142000Y-60465500D01*
X132322000Y-60465500D02*
X132322000Y-54465500D01*
X127242000Y-60465500D02*
X127242000Y-54465500D01*
X168642000Y-54465500D02*
X168642000Y-60465500D01*
X115235960Y-51408429D02*
X115235960Y-51805500D01*
X205982000Y-51408429D02*
X205982000Y-51805500D01*
X133972000Y-51805500D02*
X133972000Y-54465500D01*
X111045960Y-54465500D02*
X217852000Y-54465500D01*
X185662000Y-51408429D02*
X185662000Y-51805500D01*
X161912000Y-51805500D02*
X161912000Y-54465500D01*
X155942000Y-54465500D02*
X155942000Y-60465500D01*
X133082000Y-54465500D02*
X133082000Y-60465500D01*
X161022000Y-60465500D02*
X160262000Y-60465500D01*
X114475960Y-51408429D02*
X114475960Y-51805500D01*
X188962000Y-51408429D02*
X188962000Y-51805500D01*
X198362000Y-51408429D02*
X198362000Y-51805500D01*
X153402000Y-60465500D02*
X152642000Y-60465500D01*
X216142000Y-51475500D02*
X216142000Y-51805500D01*
X166102000Y-51408429D02*
X166102000Y-51805500D01*
X196582000Y-54465500D02*
X196582000Y-60465500D01*
X119622000Y-60465500D02*
X119622000Y-54465500D01*
X150862000Y-54465500D02*
X150862000Y-60465500D01*
X111935960Y-60465500D02*
X111935960Y-54465500D01*
X214362000Y-54465500D02*
X214362000Y-60465500D01*
X153402000Y-51408429D02*
X153402000Y-51805500D01*
X157722000Y-60465500D02*
X157722000Y-54465500D01*
X186422000Y-51408429D02*
X186422000Y-51805500D01*
X125462000Y-54465500D02*
X125462000Y-60465500D01*
%TO.C,C1*%
X229180000Y-50160000D02*
X220940000Y-50160000D01*
X220940000Y-55400000D02*
X220940000Y-50160000D01*
X229180000Y-55400000D02*
X229180000Y-50160000D01*
X229180000Y-55400000D02*
X220940000Y-55400000D01*
%TO.C,C2*%
X83430000Y-107650000D02*
X78190000Y-107650000D01*
X78190000Y-99410000D02*
X78190000Y-107650000D01*
X83430000Y-99410000D02*
X78190000Y-99410000D01*
X83430000Y-99410000D02*
X83430000Y-107650000D01*
%TO.C,R1*%
X94610000Y-58338272D02*
G75*
G03*
X92838620Y-58229775I-800000J1453272D01*
G01*
%TO.C,U5*%
X167755000Y-92160000D02*
X167755000Y-90510000D01*
X167755000Y-88510000D02*
X167755000Y-86860000D01*
X167755000Y-86860000D02*
X142235000Y-86860000D01*
X142235000Y-86860000D02*
X142235000Y-92160000D01*
X167815000Y-84370000D02*
X142175000Y-84370000D01*
X167815000Y-94650000D02*
X167815000Y-84370000D01*
X142235000Y-92160000D02*
X167755000Y-92160000D01*
X142175000Y-94650000D02*
X167815000Y-94650000D01*
X142175000Y-84370000D02*
X142175000Y-94650000D01*
X167755000Y-88510000D02*
G75*
G03*
X167755000Y-90510000I0J-1000000D01*
G01*
%TO.C,D2*%
X101105000Y-62490000D02*
X98015000Y-62490000D01*
X99559538Y-68040000D02*
G75*
G03*
X101104830Y-62490000I462J2990000D01*
G01*
X98015170Y-62490000D02*
G75*
G03*
X99560462Y-68040000I1544830J-2560000D01*
G01*
X102060000Y-65050000D02*
G75*
G03*
X102060000Y-65050000I-2500000J0D01*
G01*
%TO.C,C6*%
X112180000Y-84910000D02*
X112180000Y-93150000D01*
X112180000Y-84910000D02*
X106940000Y-84910000D01*
X106940000Y-84910000D02*
X106940000Y-93150000D01*
X112180000Y-93150000D02*
X106940000Y-93150000D01*
%TO.C,U2*%
X169351000Y-69190000D02*
X194871000Y-69190000D01*
X194931000Y-71680000D02*
X194931000Y-61400000D01*
X169291000Y-61400000D02*
X169291000Y-71680000D01*
X169351000Y-63890000D02*
X169351000Y-69190000D01*
X194871000Y-65540000D02*
X194871000Y-63890000D01*
X169291000Y-71680000D02*
X194931000Y-71680000D01*
X194871000Y-63890000D02*
X169351000Y-63890000D01*
X194931000Y-61400000D02*
X169291000Y-61400000D01*
X194871000Y-69190000D02*
X194871000Y-67540000D01*
X194871000Y-65540000D02*
G75*
G03*
X194871000Y-67540000I0J-1000000D01*
G01*
%TO.C,U6*%
X224165000Y-92140000D02*
X224165000Y-90490000D01*
X224225000Y-94630000D02*
X224225000Y-84350000D01*
X198585000Y-84350000D02*
X198585000Y-94630000D01*
X224165000Y-88490000D02*
X224165000Y-86840000D01*
X198645000Y-86840000D02*
X198645000Y-92140000D01*
X224165000Y-86840000D02*
X198645000Y-86840000D01*
X198585000Y-94630000D02*
X224225000Y-94630000D01*
X198645000Y-92140000D02*
X224165000Y-92140000D01*
X224225000Y-84350000D02*
X198585000Y-84350000D01*
X224165000Y-88490000D02*
G75*
G03*
X224165000Y-90490000I0J-1000000D01*
G01*
%TO.C,C4*%
X73930000Y-107650000D02*
X68690000Y-107650000D01*
X68690000Y-99410000D02*
X68690000Y-107650000D01*
X73930000Y-99410000D02*
X73930000Y-107650000D01*
X73930000Y-99410000D02*
X68690000Y-99410000D01*
%TO.C,J1*%
X161900000Y-29072929D02*
X161900000Y-29470000D01*
X189080000Y-29072929D02*
X189080000Y-29470000D01*
X56043960Y-29470000D02*
X56043960Y-32130000D01*
X181460000Y-29072929D02*
X181460000Y-29470000D01*
X118653960Y-32130000D02*
X118653960Y-38130000D01*
X90713960Y-29072929D02*
X90713960Y-29470000D01*
X49313960Y-29072929D02*
X49313960Y-29470000D01*
X171300000Y-38130000D02*
X171300000Y-32130000D01*
X57693960Y-32130000D02*
X57693960Y-38130000D01*
X224640000Y-29072929D02*
X224640000Y-29470000D01*
X184760000Y-38130000D02*
X184000000Y-38130000D01*
X220320000Y-38130000D02*
X219560000Y-38130000D01*
X146660000Y-32130000D02*
X146660000Y-38130000D01*
X98333960Y-29072929D02*
X98333960Y-29470000D01*
X125513960Y-38130000D02*
X125513960Y-32130000D01*
X44233960Y-29072929D02*
X44233960Y-29470000D01*
X204320000Y-29072929D02*
X204320000Y-29470000D01*
X212700000Y-32130000D02*
X212700000Y-38130000D01*
X116113960Y-32130000D02*
X116113960Y-38130000D01*
X109383960Y-29470000D02*
X109383960Y-32130000D01*
X67853960Y-29072929D02*
X67853960Y-29470000D01*
X162790000Y-29470000D02*
X162790000Y-32130000D01*
X194920000Y-29072929D02*
X194920000Y-29470000D01*
X105953960Y-29072929D02*
X105953960Y-29470000D01*
X159360000Y-32130000D02*
X159360000Y-38130000D01*
X133200000Y-29072929D02*
X133200000Y-29470000D01*
X64553960Y-29072929D02*
X64553960Y-29470000D01*
X172950000Y-29470000D02*
X172950000Y-32130000D01*
X84873960Y-29072929D02*
X84873960Y-29470000D01*
X205080000Y-32130000D02*
X205080000Y-38130000D01*
X69633960Y-29072929D02*
X69633960Y-29470000D01*
X152630000Y-29470000D02*
X152630000Y-32130000D01*
X222860000Y-38130000D02*
X222100000Y-38130000D01*
X135740000Y-29072929D02*
X135740000Y-29470000D01*
X149200000Y-29072929D02*
X149200000Y-29470000D01*
X37373960Y-38130000D02*
X36613960Y-38130000D01*
X70393960Y-32130000D02*
X70393960Y-38130000D01*
X227760000Y-32130000D02*
X227760000Y-38130000D01*
X126273960Y-38130000D02*
X125513960Y-38130000D01*
X105193960Y-29072929D02*
X105193960Y-29470000D01*
X164440000Y-29072929D02*
X164440000Y-29470000D01*
X39913960Y-29072929D02*
X39913960Y-29470000D01*
X146660000Y-29072929D02*
X146660000Y-29470000D01*
X202540000Y-38130000D02*
X201780000Y-38130000D01*
X32293960Y-29072929D02*
X32293960Y-29470000D01*
X70393960Y-29072929D02*
X70393960Y-29470000D01*
X123733960Y-38130000D02*
X122973960Y-38130000D01*
X218670000Y-29470000D02*
X218670000Y-32130000D01*
X228830000Y-26760000D02*
X228830000Y-28030000D01*
X206860000Y-38130000D02*
X206860000Y-32130000D01*
X134850000Y-29470000D02*
X134850000Y-32130000D01*
X121193960Y-38130000D02*
X120433960Y-38130000D01*
X154280000Y-29072929D02*
X154280000Y-29470000D01*
X159360000Y-29072929D02*
X159360000Y-29470000D01*
X108493960Y-38130000D02*
X107733960Y-38130000D01*
X119543960Y-29470000D02*
X119543960Y-32130000D01*
X65313960Y-29072929D02*
X65313960Y-29470000D01*
X67853960Y-32130000D02*
X67853960Y-38130000D01*
X71283960Y-29470000D02*
X71283960Y-32130000D01*
X227180000Y-38130000D02*
X227180000Y-32130000D01*
X195810000Y-29470000D02*
X195810000Y-32130000D01*
X208510000Y-29470000D02*
X208510000Y-32130000D01*
X85633960Y-32130000D02*
X85633960Y-38130000D01*
X72173960Y-29072929D02*
X72173960Y-29470000D01*
X111033960Y-29072929D02*
X111033960Y-29470000D01*
X201780000Y-38130000D02*
X201780000Y-32130000D01*
X120433960Y-38130000D02*
X120433960Y-32130000D01*
X37373960Y-32130000D02*
X37373960Y-38130000D01*
X173840000Y-38130000D02*
X173840000Y-32130000D01*
X176380000Y-29072929D02*
X176380000Y-29470000D01*
X227940000Y-29140000D02*
X227940000Y-29470000D01*
X222860000Y-32130000D02*
X222860000Y-38130000D01*
X62773960Y-38130000D02*
X62013960Y-38130000D01*
X227940000Y-38130000D02*
X227180000Y-38130000D01*
X178030000Y-29470000D02*
X178030000Y-32130000D01*
X206860000Y-29072929D02*
X206860000Y-29470000D01*
X47533960Y-38130000D02*
X46773960Y-38130000D01*
X136500000Y-38130000D02*
X135740000Y-38130000D01*
X228890000Y-29470000D02*
X30583960Y-29470000D01*
X86523960Y-29470000D02*
X86523960Y-32130000D01*
X128120000Y-38130000D02*
X128120000Y-32130000D01*
X31533960Y-38130000D02*
X31533960Y-32130000D01*
X108493960Y-29072929D02*
X108493960Y-29470000D01*
X78013960Y-29072929D02*
X78013960Y-29470000D01*
X139040000Y-38130000D02*
X138280000Y-38130000D01*
X222100000Y-38130000D02*
X222100000Y-32130000D01*
X156060000Y-29072929D02*
X156060000Y-29470000D01*
X100873960Y-29072929D02*
X100873960Y-29470000D01*
X57693960Y-38130000D02*
X56933960Y-38130000D01*
X103413960Y-32130000D02*
X103413960Y-38130000D01*
X70393960Y-38130000D02*
X69633960Y-38130000D01*
X186540000Y-29072929D02*
X186540000Y-29470000D01*
X112813960Y-29072929D02*
X112813960Y-29470000D01*
X188190000Y-29470000D02*
X188190000Y-32130000D01*
X113573960Y-38130000D02*
X112813960Y-38130000D01*
X207620000Y-32130000D02*
X207620000Y-38130000D01*
X113573960Y-32130000D02*
X113573960Y-38130000D01*
X65313960Y-32130000D02*
X65313960Y-38130000D01*
X131420000Y-32130000D02*
X131420000Y-38130000D01*
X203430000Y-29470000D02*
X203430000Y-32130000D01*
X207620000Y-29072929D02*
X207620000Y-29470000D01*
X219560000Y-29072929D02*
X219560000Y-29470000D01*
X145010000Y-29470000D02*
X145010000Y-32130000D01*
X41693960Y-29072929D02*
X41693960Y-29470000D01*
X90713960Y-32130000D02*
X90713960Y-38130000D01*
X85633960Y-29072929D02*
X85633960Y-29470000D01*
X76363960Y-29470000D02*
X76363960Y-32130000D01*
X117893960Y-29072929D02*
X117893960Y-29470000D01*
X31533960Y-29072929D02*
X31533960Y-29470000D01*
X118653960Y-38130000D02*
X117893960Y-38130000D01*
X112813960Y-38130000D02*
X112813960Y-32130000D01*
X215240000Y-29072929D02*
X215240000Y-29470000D01*
X174600000Y-29072929D02*
X174600000Y-29470000D01*
X34833960Y-38130000D02*
X34073960Y-38130000D01*
X60233960Y-29072929D02*
X60233960Y-29470000D01*
X202540000Y-29072929D02*
X202540000Y-29470000D01*
X128880000Y-38130000D02*
X128120000Y-38130000D01*
X116113960Y-29072929D02*
X116113960Y-29470000D01*
X75473960Y-32130000D02*
X75473960Y-38130000D01*
X138280000Y-38130000D02*
X138280000Y-32130000D01*
X57693960Y-29072929D02*
X57693960Y-29470000D01*
X36613960Y-38130000D02*
X36613960Y-32130000D01*
X177140000Y-38130000D02*
X176380000Y-38130000D01*
X225400000Y-38130000D02*
X224640000Y-38130000D01*
X50963960Y-29470000D02*
X50963960Y-32130000D01*
X194920000Y-38130000D02*
X194160000Y-38130000D01*
X183110000Y-29470000D02*
X183110000Y-32130000D01*
X77253960Y-38130000D02*
X77253960Y-32130000D01*
X107733960Y-38130000D02*
X107733960Y-32130000D01*
X179680000Y-38130000D02*
X178920000Y-38130000D01*
X42453960Y-32130000D02*
X42453960Y-38130000D01*
X52613960Y-32130000D02*
X52613960Y-38130000D01*
X214480000Y-29072929D02*
X214480000Y-29470000D01*
X30583960Y-29470000D02*
X30583960Y-32130000D01*
X177140000Y-32130000D02*
X177140000Y-38130000D01*
X166980000Y-32130000D02*
X166980000Y-38130000D01*
X154280000Y-38130000D02*
X153520000Y-38130000D01*
X168760000Y-29072929D02*
X168760000Y-29470000D01*
X187300000Y-29072929D02*
X187300000Y-29470000D01*
X85633960Y-38130000D02*
X84873960Y-38130000D01*
X107733960Y-29072929D02*
X107733960Y-29470000D01*
X143360000Y-38130000D02*
X143360000Y-32130000D01*
X100113960Y-38130000D02*
X100113960Y-32130000D01*
X145900000Y-38130000D02*
X145900000Y-32130000D01*
X128120000Y-29072929D02*
X128120000Y-29470000D01*
X197460000Y-29072929D02*
X197460000Y-29470000D01*
X211940000Y-29072929D02*
X211940000Y-29470000D01*
X189840000Y-32130000D02*
X189840000Y-38130000D01*
X51853960Y-38130000D02*
X51853960Y-32130000D01*
X90713960Y-38130000D02*
X89953960Y-38130000D01*
X59473960Y-38130000D02*
X59473960Y-32130000D01*
X222860000Y-29072929D02*
X222860000Y-29470000D01*
X227520000Y-32130000D02*
X227520000Y-38130000D01*
X39913960Y-32130000D02*
X39913960Y-38130000D01*
X103413960Y-38130000D02*
X102653960Y-38130000D01*
X169520000Y-38130000D02*
X168760000Y-38130000D01*
X199240000Y-29072929D02*
X199240000Y-29470000D01*
X174600000Y-32130000D02*
X174600000Y-38130000D01*
X165330000Y-29470000D02*
X165330000Y-32130000D01*
X93253960Y-29072929D02*
X93253960Y-29470000D01*
X146660000Y-38130000D02*
X145900000Y-38130000D01*
X50073960Y-32130000D02*
X50073960Y-38130000D01*
X115353960Y-29072929D02*
X115353960Y-29470000D01*
X46773960Y-38130000D02*
X46773960Y-32130000D01*
X79793960Y-29072929D02*
X79793960Y-29470000D01*
X100873960Y-38130000D02*
X100113960Y-38130000D01*
X197460000Y-32130000D02*
X197460000Y-38130000D01*
X122973960Y-38130000D02*
X122973960Y-32130000D01*
X80553960Y-38130000D02*
X79793960Y-38130000D01*
X196700000Y-38130000D02*
X196700000Y-32130000D01*
X205080000Y-38130000D02*
X204320000Y-38130000D01*
X169520000Y-29072929D02*
X169520000Y-29470000D01*
X82333960Y-38130000D02*
X82333960Y-32130000D01*
X47533960Y-29072929D02*
X47533960Y-29470000D01*
X168760000Y-38130000D02*
X168760000Y-32130000D01*
X122083960Y-29470000D02*
X122083960Y-32130000D01*
X95793960Y-32130000D02*
X95793960Y-38130000D01*
X171300000Y-29072929D02*
X171300000Y-29470000D01*
X124623960Y-29470000D02*
X124623960Y-32130000D01*
X178920000Y-38130000D02*
X178920000Y-32130000D01*
X149200000Y-38130000D02*
X148440000Y-38130000D01*
X210160000Y-38130000D02*
X209400000Y-38130000D01*
X54393960Y-38130000D02*
X54393960Y-32130000D01*
X126273960Y-29072929D02*
X126273960Y-29470000D01*
X133200000Y-38130000D02*
X133200000Y-32130000D01*
X151740000Y-29072929D02*
X151740000Y-29470000D01*
X217780000Y-32130000D02*
X217780000Y-38130000D01*
X87413960Y-38130000D02*
X87413960Y-32130000D01*
X88173960Y-29072929D02*
X88173960Y-29470000D01*
X130660000Y-29072929D02*
X130660000Y-29470000D01*
X192380000Y-32130000D02*
X192380000Y-38130000D01*
X164440000Y-38130000D02*
X163680000Y-38130000D01*
X166220000Y-29072929D02*
X166220000Y-29470000D01*
X217780000Y-29072929D02*
X217780000Y-29470000D01*
X187300000Y-38130000D02*
X186540000Y-38130000D01*
X133960000Y-32130000D02*
X133960000Y-38130000D01*
X105953960Y-38130000D02*
X105193960Y-38130000D01*
X103413960Y-29072929D02*
X103413960Y-29470000D01*
X39913960Y-38130000D02*
X39153960Y-38130000D01*
X123733960Y-29072929D02*
X123733960Y-29470000D01*
X44993960Y-29072929D02*
X44993960Y-29470000D01*
X84873960Y-38130000D02*
X84873960Y-32130000D01*
X217020000Y-29072929D02*
X217020000Y-29470000D01*
X194920000Y-32130000D02*
X194920000Y-38130000D01*
X51853960Y-29072929D02*
X51853960Y-29470000D01*
X34833960Y-32130000D02*
X34833960Y-38130000D01*
X59473960Y-29072929D02*
X59473960Y-29470000D01*
X101763960Y-29470000D02*
X101763960Y-32130000D01*
X88173960Y-32130000D02*
X88173960Y-38130000D01*
X116113960Y-38130000D02*
X115353960Y-38130000D01*
X184000000Y-38130000D02*
X184000000Y-32130000D01*
X122973960Y-29072929D02*
X122973960Y-29470000D01*
X212700000Y-29072929D02*
X212700000Y-29470000D01*
X151740000Y-38130000D02*
X150980000Y-38130000D01*
X196700000Y-29072929D02*
X196700000Y-29470000D01*
X156820000Y-32130000D02*
X156820000Y-38130000D01*
X156060000Y-38130000D02*
X156060000Y-32130000D01*
X100113960Y-29072929D02*
X100113960Y-29470000D01*
X125513960Y-29072929D02*
X125513960Y-29470000D01*
X34073960Y-29072929D02*
X34073960Y-29470000D01*
X69633960Y-38130000D02*
X69633960Y-32130000D01*
X41693960Y-38130000D02*
X41693960Y-32130000D01*
X200000000Y-38130000D02*
X199240000Y-38130000D01*
X175490000Y-29470000D02*
X175490000Y-32130000D01*
X48423960Y-29470000D02*
X48423960Y-32130000D01*
X213590000Y-29470000D02*
X213590000Y-32130000D01*
X33183960Y-29470000D02*
X33183960Y-32130000D01*
X127163960Y-29470000D02*
X127163960Y-32130000D01*
X227180000Y-29140000D02*
X227180000Y-29470000D01*
X115353960Y-38130000D02*
X115353960Y-32130000D01*
X139930000Y-29470000D02*
X139930000Y-32130000D01*
X120433960Y-29072929D02*
X120433960Y-29470000D01*
X227560000Y-26760000D02*
X228830000Y-26760000D01*
X117893960Y-38130000D02*
X117893960Y-32130000D01*
X94143960Y-29470000D02*
X94143960Y-32130000D01*
X177140000Y-29072929D02*
X177140000Y-29470000D01*
X225400000Y-29072929D02*
X225400000Y-29470000D01*
X30583960Y-32130000D02*
X228890000Y-32130000D01*
X160250000Y-29470000D02*
X160250000Y-32130000D01*
X172060000Y-29072929D02*
X172060000Y-29470000D01*
X39153960Y-38130000D02*
X39153960Y-32130000D01*
X210160000Y-32130000D02*
X210160000Y-38130000D01*
X136500000Y-32130000D02*
X136500000Y-38130000D01*
X154280000Y-32130000D02*
X154280000Y-38130000D01*
X50073960Y-38130000D02*
X49313960Y-38130000D01*
X105193960Y-38130000D02*
X105193960Y-32130000D01*
X159360000Y-38130000D02*
X158600000Y-38130000D01*
X179680000Y-29072929D02*
X179680000Y-29470000D01*
X97573960Y-29072929D02*
X97573960Y-29470000D01*
X192380000Y-38130000D02*
X191620000Y-38130000D01*
X78013960Y-32130000D02*
X78013960Y-38130000D01*
X65313960Y-38130000D02*
X64553960Y-38130000D01*
X163680000Y-38130000D02*
X163680000Y-32130000D01*
X83093960Y-29072929D02*
X83093960Y-29470000D01*
X117003960Y-29470000D02*
X117003960Y-32130000D01*
X72173960Y-38130000D02*
X72173960Y-32130000D01*
X182220000Y-32130000D02*
X182220000Y-38130000D01*
X88173960Y-38130000D02*
X87413960Y-38130000D01*
X215240000Y-32130000D02*
X215240000Y-38130000D01*
X220320000Y-32130000D02*
X220320000Y-38130000D01*
X50073960Y-29072929D02*
X50073960Y-29470000D01*
X153520000Y-29072929D02*
X153520000Y-29470000D01*
X140820000Y-29072929D02*
X140820000Y-29470000D01*
X60233960Y-38130000D02*
X59473960Y-38130000D01*
X200000000Y-29072929D02*
X200000000Y-29470000D01*
X96683960Y-29470000D02*
X96683960Y-32130000D01*
X147550000Y-29470000D02*
X147550000Y-32130000D01*
X92493960Y-29072929D02*
X92493960Y-29470000D01*
X191620000Y-38130000D02*
X191620000Y-32130000D01*
X111923960Y-29470000D02*
X111923960Y-32130000D01*
X224640000Y-38130000D02*
X224640000Y-32130000D01*
X89953960Y-29072929D02*
X89953960Y-29470000D01*
X212700000Y-38130000D02*
X211940000Y-38130000D01*
X141580000Y-38130000D02*
X140820000Y-38130000D01*
X72933960Y-38130000D02*
X72173960Y-38130000D01*
X61123960Y-29470000D02*
X61123960Y-32130000D01*
X38263960Y-29470000D02*
X38263960Y-32130000D01*
X202540000Y-32130000D02*
X202540000Y-38130000D01*
X46773960Y-29072929D02*
X46773960Y-29470000D01*
X67093960Y-29072929D02*
X67093960Y-29470000D01*
X52613960Y-38130000D02*
X51853960Y-38130000D01*
X144120000Y-38130000D02*
X143360000Y-38130000D01*
X93253960Y-38130000D02*
X92493960Y-38130000D01*
X219560000Y-38130000D02*
X219560000Y-32130000D01*
X207620000Y-38130000D02*
X206860000Y-38130000D01*
X190730000Y-29470000D02*
X190730000Y-32130000D01*
X98333960Y-32130000D02*
X98333960Y-38130000D01*
X176380000Y-38130000D02*
X176380000Y-32130000D01*
X172060000Y-38130000D02*
X171300000Y-38130000D01*
X72933960Y-29072929D02*
X72933960Y-29470000D01*
X192380000Y-29072929D02*
X192380000Y-29470000D01*
X217780000Y-38130000D02*
X217020000Y-38130000D01*
X187300000Y-32130000D02*
X187300000Y-38130000D01*
X150090000Y-29470000D02*
X150090000Y-32130000D01*
X42453960Y-29072929D02*
X42453960Y-29470000D01*
X189840000Y-29072929D02*
X189840000Y-29470000D01*
X158600000Y-29072929D02*
X158600000Y-29470000D01*
X184000000Y-29072929D02*
X184000000Y-29470000D01*
X110273960Y-29072929D02*
X110273960Y-29470000D01*
X227880000Y-32130000D02*
X227880000Y-38130000D01*
X142470000Y-29470000D02*
X142470000Y-32130000D01*
X110273960Y-38130000D02*
X110273960Y-32130000D01*
X211050000Y-29470000D02*
X211050000Y-32130000D01*
X121193960Y-32130000D02*
X121193960Y-38130000D01*
X184760000Y-32130000D02*
X184760000Y-38130000D01*
X223750000Y-29470000D02*
X223750000Y-32130000D01*
X36613960Y-29072929D02*
X36613960Y-29470000D01*
X143360000Y-29072929D02*
X143360000Y-29470000D01*
X150980000Y-38130000D02*
X150980000Y-32130000D01*
X215240000Y-38130000D02*
X214480000Y-38130000D01*
X138280000Y-29072929D02*
X138280000Y-29470000D01*
X226290000Y-29470000D02*
X226290000Y-32130000D01*
X209400000Y-29072929D02*
X209400000Y-29470000D01*
X104303960Y-29470000D02*
X104303960Y-32130000D01*
X91603960Y-29470000D02*
X91603960Y-32130000D01*
X173840000Y-29072929D02*
X173840000Y-29470000D01*
X111033960Y-32130000D02*
X111033960Y-38130000D01*
X55153960Y-32130000D02*
X55153960Y-38130000D01*
X156820000Y-29072929D02*
X156820000Y-29470000D01*
X179680000Y-32130000D02*
X179680000Y-38130000D01*
X158600000Y-38130000D02*
X158600000Y-32130000D01*
X68743960Y-29470000D02*
X68743960Y-32130000D01*
X166220000Y-38130000D02*
X166220000Y-32130000D01*
X114463960Y-29470000D02*
X114463960Y-32130000D01*
X126273960Y-32130000D02*
X126273960Y-38130000D01*
X113573960Y-29072929D02*
X113573960Y-29470000D01*
X181460000Y-38130000D02*
X181460000Y-32130000D01*
X164440000Y-32130000D02*
X164440000Y-38130000D01*
X209400000Y-38130000D02*
X209400000Y-32130000D01*
X139040000Y-29072929D02*
X139040000Y-29470000D01*
X149200000Y-32130000D02*
X149200000Y-38130000D01*
X161900000Y-32130000D02*
X161900000Y-38130000D01*
X44233960Y-38130000D02*
X44233960Y-32130000D01*
X34833960Y-29072929D02*
X34833960Y-29470000D01*
X83093960Y-38130000D02*
X82333960Y-38130000D01*
X153520000Y-38130000D02*
X153520000Y-32130000D01*
X32293960Y-38130000D02*
X31533960Y-38130000D01*
X75473960Y-29072929D02*
X75473960Y-29470000D01*
X81443960Y-29470000D02*
X81443960Y-32130000D01*
X148440000Y-38130000D02*
X148440000Y-32130000D01*
X225400000Y-32130000D02*
X225400000Y-38130000D01*
X95793960Y-29072929D02*
X95793960Y-29470000D01*
X221210000Y-29470000D02*
X221210000Y-32130000D01*
X169520000Y-32130000D02*
X169520000Y-38130000D01*
X178920000Y-29072929D02*
X178920000Y-29470000D01*
X82333960Y-29072929D02*
X82333960Y-29470000D01*
X166980000Y-38130000D02*
X166220000Y-38130000D01*
X167870000Y-29470000D02*
X167870000Y-32130000D01*
X55153960Y-38130000D02*
X54393960Y-38130000D01*
X83093960Y-32130000D02*
X83093960Y-38130000D01*
X201780000Y-29072929D02*
X201780000Y-29470000D01*
X150980000Y-29072929D02*
X150980000Y-29470000D01*
X62013960Y-29072929D02*
X62013960Y-29470000D01*
X155170000Y-29470000D02*
X155170000Y-32130000D01*
X166980000Y-29072929D02*
X166980000Y-29470000D01*
X133960000Y-38130000D02*
X133200000Y-38130000D01*
X63663960Y-29470000D02*
X63663960Y-32130000D01*
X172060000Y-32130000D02*
X172060000Y-38130000D01*
X163680000Y-29072929D02*
X163680000Y-29470000D01*
X227940000Y-32130000D02*
X227940000Y-38130000D01*
X182220000Y-29072929D02*
X182220000Y-29470000D01*
X118653960Y-29072929D02*
X118653960Y-29470000D01*
X191620000Y-29072929D02*
X191620000Y-29470000D01*
X78903960Y-29470000D02*
X78903960Y-32130000D01*
X53503960Y-29470000D02*
X53503960Y-32130000D01*
X92493960Y-38130000D02*
X92493960Y-32130000D01*
X222100000Y-29072929D02*
X222100000Y-29470000D01*
X194160000Y-38130000D02*
X194160000Y-32130000D01*
X64553960Y-38130000D02*
X64553960Y-32130000D01*
X157710000Y-29470000D02*
X157710000Y-32130000D01*
X80553960Y-32130000D02*
X80553960Y-38130000D01*
X54393960Y-29072929D02*
X54393960Y-29470000D01*
X227640000Y-32130000D02*
X227640000Y-38130000D01*
X205080000Y-29072929D02*
X205080000Y-29470000D01*
X200000000Y-32130000D02*
X200000000Y-38130000D01*
X141580000Y-29072929D02*
X141580000Y-29470000D01*
X131420000Y-38130000D02*
X130660000Y-38130000D01*
X135740000Y-38130000D02*
X135740000Y-32130000D01*
X83983960Y-29470000D02*
X83983960Y-32130000D01*
X62013960Y-38130000D02*
X62013960Y-32130000D01*
X98333960Y-38130000D02*
X97573960Y-38130000D01*
X89953960Y-38130000D02*
X89953960Y-32130000D01*
X87413960Y-29072929D02*
X87413960Y-29470000D01*
X214480000Y-38130000D02*
X214480000Y-32130000D01*
X198350000Y-29470000D02*
X198350000Y-32130000D01*
X139040000Y-32130000D02*
X139040000Y-38130000D01*
X67853960Y-38130000D02*
X67093960Y-38130000D01*
X47533960Y-32130000D02*
X47533960Y-38130000D01*
X49313960Y-38130000D02*
X49313960Y-32130000D01*
X144120000Y-29072929D02*
X144120000Y-29470000D01*
X199240000Y-38130000D02*
X199240000Y-32130000D01*
X137390000Y-29470000D02*
X137390000Y-32130000D01*
X97573960Y-38130000D02*
X97573960Y-32130000D01*
X136500000Y-29072929D02*
X136500000Y-29470000D01*
X129770000Y-29470000D02*
X129770000Y-32130000D01*
X128880000Y-29072929D02*
X128880000Y-29470000D01*
X75473960Y-38130000D02*
X74713960Y-38130000D01*
X227280000Y-32130000D02*
X227280000Y-38130000D01*
X133960000Y-29072929D02*
X133960000Y-29470000D01*
X200890000Y-29470000D02*
X200890000Y-32130000D01*
X102653960Y-38130000D02*
X102653960Y-32130000D01*
X99223960Y-29470000D02*
X99223960Y-32130000D01*
X89063960Y-29470000D02*
X89063960Y-32130000D01*
X123733960Y-32130000D02*
X123733960Y-38130000D01*
X161900000Y-38130000D02*
X161140000Y-38130000D01*
X45883960Y-29470000D02*
X45883960Y-32130000D01*
X56933960Y-29072929D02*
X56933960Y-29470000D01*
X189080000Y-38130000D02*
X189080000Y-32130000D01*
X227400000Y-32130000D02*
X227400000Y-38130000D01*
X141580000Y-32130000D02*
X141580000Y-38130000D01*
X32293960Y-32130000D02*
X32293960Y-38130000D01*
X95033960Y-38130000D02*
X95033960Y-32130000D01*
X216130000Y-29470000D02*
X216130000Y-32130000D01*
X44993960Y-32130000D02*
X44993960Y-38130000D01*
X62773960Y-32130000D02*
X62773960Y-38130000D01*
X220320000Y-29072929D02*
X220320000Y-29470000D01*
X58583960Y-29470000D02*
X58583960Y-32130000D01*
X60233960Y-32130000D02*
X60233960Y-38130000D01*
X52613960Y-29072929D02*
X52613960Y-29470000D01*
X100873960Y-32130000D02*
X100873960Y-38130000D01*
X44993960Y-38130000D02*
X44233960Y-38130000D01*
X95793960Y-38130000D02*
X95033960Y-38130000D01*
X144120000Y-32130000D02*
X144120000Y-38130000D01*
X73823960Y-29470000D02*
X73823960Y-32130000D01*
X74713960Y-38130000D02*
X74713960Y-32130000D01*
X193270000Y-29470000D02*
X193270000Y-32130000D01*
X42453960Y-38130000D02*
X41693960Y-38130000D01*
X62773960Y-29072929D02*
X62773960Y-29470000D01*
X108493960Y-32130000D02*
X108493960Y-38130000D01*
X95033960Y-29072929D02*
X95033960Y-29470000D01*
X182220000Y-38130000D02*
X181460000Y-38130000D01*
X77253960Y-29072929D02*
X77253960Y-29470000D01*
X40803960Y-29470000D02*
X40803960Y-32130000D01*
X194160000Y-29072929D02*
X194160000Y-29470000D01*
X211940000Y-38130000D02*
X211940000Y-32130000D01*
X43343960Y-29470000D02*
X43343960Y-32130000D01*
X174600000Y-38130000D02*
X173840000Y-38130000D01*
X145900000Y-29072929D02*
X145900000Y-29470000D01*
X74713960Y-29072929D02*
X74713960Y-29470000D01*
X80553960Y-29072929D02*
X80553960Y-29470000D01*
X72933960Y-32130000D02*
X72933960Y-38130000D01*
X131420000Y-29072929D02*
X131420000Y-29470000D01*
X106843960Y-29470000D02*
X106843960Y-32130000D01*
X79793960Y-38130000D02*
X79793960Y-32130000D01*
X55153960Y-29072929D02*
X55153960Y-29470000D01*
X35723960Y-29470000D02*
X35723960Y-32130000D01*
X151740000Y-32130000D02*
X151740000Y-38130000D01*
X185650000Y-29470000D02*
X185650000Y-32130000D01*
X56933960Y-38130000D02*
X56933960Y-32130000D01*
X186540000Y-38130000D02*
X186540000Y-32130000D01*
X132310000Y-29470000D02*
X132310000Y-32130000D01*
X170410000Y-29470000D02*
X170410000Y-32130000D01*
X228890000Y-32130000D02*
X228890000Y-29470000D01*
X121193960Y-29072929D02*
X121193960Y-29470000D01*
X180570000Y-29470000D02*
X180570000Y-32130000D01*
X197460000Y-38130000D02*
X196700000Y-38130000D01*
X37373960Y-29072929D02*
X37373960Y-29470000D01*
X210160000Y-29072929D02*
X210160000Y-29470000D01*
X184760000Y-29072929D02*
X184760000Y-29470000D01*
X78013960Y-38130000D02*
X77253960Y-38130000D01*
X102653960Y-29072929D02*
X102653960Y-29470000D01*
X148440000Y-29072929D02*
X148440000Y-29470000D01*
X140820000Y-38130000D02*
X140820000Y-32130000D01*
X189840000Y-38130000D02*
X189080000Y-38130000D01*
X204320000Y-38130000D02*
X204320000Y-32130000D01*
X161140000Y-29072929D02*
X161140000Y-29470000D01*
X34073960Y-38130000D02*
X34073960Y-32130000D01*
X105953960Y-32130000D02*
X105953960Y-38130000D01*
X111033960Y-38130000D02*
X110273960Y-38130000D01*
X205970000Y-29470000D02*
X205970000Y-32130000D01*
X130660000Y-38130000D02*
X130660000Y-32130000D01*
X128880000Y-32130000D02*
X128880000Y-38130000D01*
X161140000Y-38130000D02*
X161140000Y-32130000D01*
X93253960Y-32130000D02*
X93253960Y-38130000D01*
X66203960Y-29470000D02*
X66203960Y-32130000D01*
X67093960Y-38130000D02*
X67093960Y-32130000D01*
X217020000Y-38130000D02*
X217020000Y-32130000D01*
X39153960Y-29072929D02*
X39153960Y-29470000D01*
X156820000Y-38130000D02*
X156060000Y-38130000D01*
%TO.C,R2*%
X94610000Y-65363272D02*
G75*
G03*
X92838620Y-65254775I-800000J1453272D01*
G01*
%TO.C,J4*%
X89060000Y-104590000D02*
X93120000Y-104590000D01*
X89060000Y-102470000D02*
X93120000Y-102470000D01*
X87000000Y-102470000D02*
X88060000Y-102470000D01*
X93120000Y-104590000D02*
X93120000Y-102470000D01*
X87000000Y-103530000D02*
X87000000Y-102470000D01*
X89060000Y-104590000D02*
X89060000Y-102470000D01*
%TO.C,U4*%
X194865000Y-92090000D02*
X194865000Y-90440000D01*
X169285000Y-94580000D02*
X194925000Y-94580000D01*
X194865000Y-86790000D02*
X169345000Y-86790000D01*
X194865000Y-88440000D02*
X194865000Y-86790000D01*
X169345000Y-86790000D02*
X169345000Y-92090000D01*
X194925000Y-84300000D02*
X169285000Y-84300000D01*
X169345000Y-92090000D02*
X194865000Y-92090000D01*
X194925000Y-94580000D02*
X194925000Y-84300000D01*
X169285000Y-84300000D02*
X169285000Y-94580000D01*
X194865000Y-88440000D02*
G75*
G03*
X194865000Y-90440000I0J-1000000D01*
G01*
%TO.C,J3*%
X176620000Y-116470000D02*
X176620000Y-117530000D01*
X174560000Y-116470000D02*
X174560000Y-118590000D01*
X144500000Y-116470000D02*
X144500000Y-118590000D01*
X175560000Y-116470000D02*
X176620000Y-116470000D01*
X174560000Y-116470000D02*
X144500000Y-116470000D01*
X174560000Y-118590000D02*
X144500000Y-118590000D01*
%TO.C,J2*%
X177120000Y-104970000D02*
X177120000Y-106030000D01*
X176060000Y-104970000D02*
X177120000Y-104970000D01*
X175060000Y-104970000D02*
X175060000Y-107090000D01*
X175060000Y-107090000D02*
X145000000Y-107090000D01*
X175060000Y-104970000D02*
X145000000Y-104970000D01*
X145000000Y-104970000D02*
X145000000Y-107090000D01*
%TO.C,U9*%
X103890000Y-75690000D02*
X85990000Y-75690000D01*
X85990000Y-75690000D02*
X85990000Y-80990000D01*
X103950000Y-83480000D02*
X103950000Y-73200000D01*
X85930000Y-83480000D02*
X103950000Y-83480000D01*
X103890000Y-77340000D02*
X103890000Y-75690000D01*
X85990000Y-80990000D02*
X103890000Y-80990000D01*
X85930000Y-73200000D02*
X85930000Y-83480000D01*
X103950000Y-73200000D02*
X85930000Y-73200000D01*
X103890000Y-80990000D02*
X103890000Y-79340000D01*
X103890000Y-77340000D02*
G75*
G03*
X103890000Y-79340000I0J-1000000D01*
G01*
%TO.C,U7*%
X138705000Y-88530000D02*
X138705000Y-86880000D01*
X113125000Y-94670000D02*
X138765000Y-94670000D01*
X113125000Y-84390000D02*
X113125000Y-94670000D01*
X138705000Y-86880000D02*
X113185000Y-86880000D01*
X113185000Y-92180000D02*
X138705000Y-92180000D01*
X138705000Y-92180000D02*
X138705000Y-90530000D01*
X138765000Y-84390000D02*
X113125000Y-84390000D01*
X113185000Y-86880000D02*
X113185000Y-92180000D01*
X138765000Y-94670000D02*
X138765000Y-84390000D01*
X138705000Y-88530000D02*
G75*
G03*
X138705000Y-90530000I0J-1000000D01*
G01*
%TO.C,U3*%
X142235000Y-61400000D02*
X142235000Y-71680000D01*
X167815000Y-65540000D02*
X167815000Y-63890000D01*
X142235000Y-71680000D02*
X167875000Y-71680000D01*
X142295000Y-63890000D02*
X142295000Y-69190000D01*
X167815000Y-63890000D02*
X142295000Y-63890000D01*
X167815000Y-69190000D02*
X167815000Y-67540000D01*
X167875000Y-61400000D02*
X142235000Y-61400000D01*
X142295000Y-69190000D02*
X167815000Y-69190000D01*
X167875000Y-71680000D02*
X167875000Y-61400000D01*
X167815000Y-65540000D02*
G75*
G03*
X167815000Y-67540000I0J-1000000D01*
G01*
%TO.C,U8*%
X103890000Y-91890000D02*
X85990000Y-91890000D01*
X103950000Y-99680000D02*
X103950000Y-89400000D01*
X85930000Y-99680000D02*
X103950000Y-99680000D01*
X103890000Y-97190000D02*
X103890000Y-95540000D01*
X103950000Y-89400000D02*
X85930000Y-89400000D01*
X85930000Y-89400000D02*
X85930000Y-99680000D01*
X85990000Y-91890000D02*
X85990000Y-97190000D01*
X85990000Y-97190000D02*
X103890000Y-97190000D01*
X103890000Y-93540000D02*
X103890000Y-91890000D01*
X103890000Y-93540000D02*
G75*
G03*
X103890000Y-95540000I0J-1000000D01*
G01*
%TO.C,C3*%
X229180000Y-45900000D02*
X229180000Y-40660000D01*
X229180000Y-40660000D02*
X220940000Y-40660000D01*
X229180000Y-45900000D02*
X220940000Y-45900000D01*
X220940000Y-45900000D02*
X220940000Y-40660000D01*
%TD*%
M02*
