%TF.GenerationSoftware,KiCad,Pcbnew,6.0.1-79c1e3a40b~116~ubuntu21.10.1*%
%TF.CreationDate,2022-02-14T17:39:21+01:00*%
%TF.ProjectId,dual_register,6475616c-5f72-4656-9769-737465722e6b,v.1*%
%TF.SameCoordinates,Original*%
%TF.FileFunction,Soldermask,Top*%
%TF.FilePolarity,Negative*%
%FSLAX46Y46*%
G04 Gerber Fmt 4.6, Leading zero omitted, Abs format (unit mm)*
G04 Created by KiCad (PCBNEW 6.0.1-79c1e3a40b~116~ubuntu21.10.1) date 2022-02-14 17:39:21*
%MOMM*%
%LPD*%
G01*
G04 APERTURE LIST*
%ADD10C,2.000000*%
%ADD11R,1.800000X1.800000*%
%ADD12C,1.800000*%
%ADD13R,1.700000X1.700000*%
%ADD14O,1.700000X1.700000*%
%ADD15C,1.600000*%
%ADD16O,1.600000X1.600000*%
%ADD17R,1.600000X1.600000*%
%ADD18R,1.350000X1.350000*%
%ADD19O,1.350000X1.350000*%
G04 APERTURE END LIST*
D10*
%TO.C,C5*%
X227560000Y-87030000D03*
X227560000Y-92030000D03*
%TD*%
D11*
%TO.C,D1*%
X99560000Y-56755000D03*
D12*
X99560000Y-59295000D03*
%TD*%
D13*
%TO.C,U1*%
X216522000Y-50365500D03*
D14*
X213982000Y-50365500D03*
X211442000Y-50365500D03*
X208902000Y-50365500D03*
X206362000Y-50365500D03*
X203822000Y-50365500D03*
X201282000Y-50365500D03*
X198742000Y-50365500D03*
X196202000Y-50365500D03*
X193662000Y-50365500D03*
X191122000Y-50365500D03*
X188582000Y-50365500D03*
X186042000Y-50365500D03*
X183502000Y-50365500D03*
X180962000Y-50365500D03*
X178422000Y-50365500D03*
X175882000Y-50365500D03*
X173342000Y-50365500D03*
X170802000Y-50365500D03*
X168262000Y-50365500D03*
X165722000Y-50365500D03*
X163182000Y-50365500D03*
X160642000Y-50365500D03*
X158102000Y-50365500D03*
X155562000Y-50365500D03*
X153022000Y-50365500D03*
X150482000Y-50365500D03*
X147942000Y-50365500D03*
X145402000Y-50365500D03*
X142862000Y-50365500D03*
X140322000Y-50365500D03*
X137782000Y-50365500D03*
X135242000Y-50365500D03*
X132702000Y-50365500D03*
X130162000Y-50365500D03*
X127622000Y-50365500D03*
X125082000Y-50365500D03*
X122542000Y-50365500D03*
X120002000Y-50365500D03*
X117462000Y-50365500D03*
X114922000Y-50365500D03*
X112382000Y-50365500D03*
%TD*%
D10*
%TO.C,C1*%
X227560000Y-52780000D03*
X222560000Y-52780000D03*
%TD*%
%TO.C,C2*%
X80810000Y-101030000D03*
X80810000Y-106030000D03*
%TD*%
D15*
%TO.C,R1*%
X93810000Y-56885000D03*
D16*
X93810000Y-59425000D03*
%TD*%
D17*
%TO.C,U5*%
X166425000Y-85700000D03*
D16*
X163885000Y-85700000D03*
X161345000Y-85700000D03*
X158805000Y-85700000D03*
X156265000Y-85700000D03*
X153725000Y-85700000D03*
X151185000Y-85700000D03*
X148645000Y-85700000D03*
X146105000Y-85700000D03*
X143565000Y-85700000D03*
X143565000Y-93320000D03*
X146105000Y-93320000D03*
X148645000Y-93320000D03*
X151185000Y-93320000D03*
X153725000Y-93320000D03*
X156265000Y-93320000D03*
X158805000Y-93320000D03*
X161345000Y-93320000D03*
X163885000Y-93320000D03*
X166425000Y-93320000D03*
%TD*%
D11*
%TO.C,D2*%
X99560000Y-63780000D03*
D12*
X99560000Y-66320000D03*
%TD*%
D10*
%TO.C,C6*%
X109560000Y-86530000D03*
X109560000Y-91530000D03*
%TD*%
D17*
%TO.C,U2*%
X193541000Y-62730000D03*
D16*
X191001000Y-62730000D03*
X188461000Y-62730000D03*
X185921000Y-62730000D03*
X183381000Y-62730000D03*
X180841000Y-62730000D03*
X178301000Y-62730000D03*
X175761000Y-62730000D03*
X173221000Y-62730000D03*
X170681000Y-62730000D03*
X170681000Y-70350000D03*
X173221000Y-70350000D03*
X175761000Y-70350000D03*
X178301000Y-70350000D03*
X180841000Y-70350000D03*
X183381000Y-70350000D03*
X185921000Y-70350000D03*
X188461000Y-70350000D03*
X191001000Y-70350000D03*
X193541000Y-70350000D03*
%TD*%
D17*
%TO.C,U6*%
X222835000Y-85680000D03*
D16*
X220295000Y-85680000D03*
X217755000Y-85680000D03*
X215215000Y-85680000D03*
X212675000Y-85680000D03*
X210135000Y-85680000D03*
X207595000Y-85680000D03*
X205055000Y-85680000D03*
X202515000Y-85680000D03*
X199975000Y-85680000D03*
X199975000Y-93300000D03*
X202515000Y-93300000D03*
X205055000Y-93300000D03*
X207595000Y-93300000D03*
X210135000Y-93300000D03*
X212675000Y-93300000D03*
X215215000Y-93300000D03*
X217755000Y-93300000D03*
X220295000Y-93300000D03*
X222835000Y-93300000D03*
%TD*%
D10*
%TO.C,C4*%
X71310000Y-101030000D03*
X71310000Y-106030000D03*
%TD*%
D13*
%TO.C,J1*%
X227560000Y-28030000D03*
D14*
X225020000Y-28030000D03*
X222480000Y-28030000D03*
X219940000Y-28030000D03*
X217400000Y-28030000D03*
X214860000Y-28030000D03*
X212320000Y-28030000D03*
X209780000Y-28030000D03*
X207240000Y-28030000D03*
X204700000Y-28030000D03*
X202160000Y-28030000D03*
X199620000Y-28030000D03*
X197080000Y-28030000D03*
X194540000Y-28030000D03*
X192000000Y-28030000D03*
X189460000Y-28030000D03*
X186920000Y-28030000D03*
X184380000Y-28030000D03*
X181840000Y-28030000D03*
X179300000Y-28030000D03*
X176760000Y-28030000D03*
X174220000Y-28030000D03*
X171680000Y-28030000D03*
X169140000Y-28030000D03*
X166600000Y-28030000D03*
X164060000Y-28030000D03*
X161520000Y-28030000D03*
X158980000Y-28030000D03*
X156440000Y-28030000D03*
X153900000Y-28030000D03*
X151360000Y-28030000D03*
X148820000Y-28030000D03*
X146280000Y-28030000D03*
X143740000Y-28030000D03*
X141200000Y-28030000D03*
X138660000Y-28030000D03*
X136120000Y-28030000D03*
X133580000Y-28030000D03*
X131040000Y-28030000D03*
X128500000Y-28030000D03*
X125960000Y-28030000D03*
X123420000Y-28030000D03*
X120880000Y-28030000D03*
X118340000Y-28030000D03*
X115800000Y-28030000D03*
X113260000Y-28030000D03*
X110720000Y-28030000D03*
X108180000Y-28030000D03*
X105640000Y-28030000D03*
X103100000Y-28030000D03*
X100560000Y-28030000D03*
X98020000Y-28030000D03*
X95480000Y-28030000D03*
X92940000Y-28030000D03*
X90400000Y-28030000D03*
X87860000Y-28030000D03*
X85320000Y-28030000D03*
X82780000Y-28030000D03*
X80240000Y-28030000D03*
X77700000Y-28030000D03*
X75160000Y-28030000D03*
X72620000Y-28030000D03*
X70080000Y-28030000D03*
X67540000Y-28030000D03*
X65000000Y-28030000D03*
X62460000Y-28030000D03*
X59920000Y-28030000D03*
X57380000Y-28030000D03*
X54840000Y-28030000D03*
X52300000Y-28030000D03*
X49760000Y-28030000D03*
X47220000Y-28030000D03*
X44680000Y-28030000D03*
X42140000Y-28030000D03*
X39600000Y-28030000D03*
X37060000Y-28030000D03*
X34520000Y-28030000D03*
X31980000Y-28030000D03*
%TD*%
D15*
%TO.C,R2*%
X93810000Y-63910000D03*
D16*
X93810000Y-66450000D03*
%TD*%
D18*
%TO.C,J4*%
X88060000Y-103530000D03*
D19*
X90060000Y-103530000D03*
X92060000Y-103530000D03*
%TD*%
D17*
%TO.C,U4*%
X193535000Y-85630000D03*
D16*
X190995000Y-85630000D03*
X188455000Y-85630000D03*
X185915000Y-85630000D03*
X183375000Y-85630000D03*
X180835000Y-85630000D03*
X178295000Y-85630000D03*
X175755000Y-85630000D03*
X173215000Y-85630000D03*
X170675000Y-85630000D03*
X170675000Y-93250000D03*
X173215000Y-93250000D03*
X175755000Y-93250000D03*
X178295000Y-93250000D03*
X180835000Y-93250000D03*
X183375000Y-93250000D03*
X185915000Y-93250000D03*
X188455000Y-93250000D03*
X190995000Y-93250000D03*
X193535000Y-93250000D03*
%TD*%
D18*
%TO.C,J3*%
X175560000Y-117530000D03*
D19*
X173560000Y-117530000D03*
X171560000Y-117530000D03*
X169560000Y-117530000D03*
X167560000Y-117530000D03*
X165560000Y-117530000D03*
X163560000Y-117530000D03*
X161560000Y-117530000D03*
X159560000Y-117530000D03*
X157560000Y-117530000D03*
X155560000Y-117530000D03*
X153560000Y-117530000D03*
X151560000Y-117530000D03*
X149560000Y-117530000D03*
X147560000Y-117530000D03*
X145560000Y-117530000D03*
%TD*%
D18*
%TO.C,J2*%
X176060000Y-106030000D03*
D19*
X174060000Y-106030000D03*
X172060000Y-106030000D03*
X170060000Y-106030000D03*
X168060000Y-106030000D03*
X166060000Y-106030000D03*
X164060000Y-106030000D03*
X162060000Y-106030000D03*
X160060000Y-106030000D03*
X158060000Y-106030000D03*
X156060000Y-106030000D03*
X154060000Y-106030000D03*
X152060000Y-106030000D03*
X150060000Y-106030000D03*
X148060000Y-106030000D03*
X146060000Y-106030000D03*
%TD*%
D17*
%TO.C,U9*%
X102560000Y-74530000D03*
D16*
X100020000Y-74530000D03*
X97480000Y-74530000D03*
X94940000Y-74530000D03*
X92400000Y-74530000D03*
X89860000Y-74530000D03*
X87320000Y-74530000D03*
X87320000Y-82150000D03*
X89860000Y-82150000D03*
X92400000Y-82150000D03*
X94940000Y-82150000D03*
X97480000Y-82150000D03*
X100020000Y-82150000D03*
X102560000Y-82150000D03*
%TD*%
D17*
%TO.C,U7*%
X137375000Y-85720000D03*
D16*
X134835000Y-85720000D03*
X132295000Y-85720000D03*
X129755000Y-85720000D03*
X127215000Y-85720000D03*
X124675000Y-85720000D03*
X122135000Y-85720000D03*
X119595000Y-85720000D03*
X117055000Y-85720000D03*
X114515000Y-85720000D03*
X114515000Y-93340000D03*
X117055000Y-93340000D03*
X119595000Y-93340000D03*
X122135000Y-93340000D03*
X124675000Y-93340000D03*
X127215000Y-93340000D03*
X129755000Y-93340000D03*
X132295000Y-93340000D03*
X134835000Y-93340000D03*
X137375000Y-93340000D03*
%TD*%
D17*
%TO.C,U3*%
X166485000Y-62730000D03*
D16*
X163945000Y-62730000D03*
X161405000Y-62730000D03*
X158865000Y-62730000D03*
X156325000Y-62730000D03*
X153785000Y-62730000D03*
X151245000Y-62730000D03*
X148705000Y-62730000D03*
X146165000Y-62730000D03*
X143625000Y-62730000D03*
X143625000Y-70350000D03*
X146165000Y-70350000D03*
X148705000Y-70350000D03*
X151245000Y-70350000D03*
X153785000Y-70350000D03*
X156325000Y-70350000D03*
X158865000Y-70350000D03*
X161405000Y-70350000D03*
X163945000Y-70350000D03*
X166485000Y-70350000D03*
%TD*%
D17*
%TO.C,U8*%
X102560000Y-90730000D03*
D16*
X100020000Y-90730000D03*
X97480000Y-90730000D03*
X94940000Y-90730000D03*
X92400000Y-90730000D03*
X89860000Y-90730000D03*
X87320000Y-90730000D03*
X87320000Y-98350000D03*
X89860000Y-98350000D03*
X92400000Y-98350000D03*
X94940000Y-98350000D03*
X97480000Y-98350000D03*
X100020000Y-98350000D03*
X102560000Y-98350000D03*
%TD*%
D10*
%TO.C,C3*%
X227560000Y-43280000D03*
X222560000Y-43280000D03*
%TD*%
M02*
