M48
; DRILL file {KiCad 6.0.1-79c1e3a40b~116~ubuntu21.10.1} date Mo 14 Feb 2022 17:39:33 CET
; FORMAT={-:-/ absolute / metric / decimal}
; #@! TF.CreationDate,2022-02-14T17:39:33+01:00
; #@! TF.GenerationSoftware,Kicad,Pcbnew,6.0.1-79c1e3a40b~116~ubuntu21.10.1
; #@! TF.FileFunction,Plated,1,2,PTH
FMAT,2
METRIC
; #@! TA.AperFunction,Plated,PTH,ViaDrill
T1C0.750
; #@! TA.AperFunction,Plated,PTH,ComponentDrill
T2C0.800
; #@! TA.AperFunction,Plated,PTH,ComponentDrill
T3C0.900
; #@! TA.AperFunction,Plated,PTH,ComponentDrill
T4C1.000
%
G90
G05
T1
X83.31Y-85.03
X87.13Y-84.96
X88.31Y-87.28
X93.56Y-69.53
X94.06Y-86.53
X96.56Y-101.53
X106.56Y-66.28
X106.56Y-74.78
X114.56Y-96.53
X116.95Y-73.46
X117.06Y-96.53
X119.323Y-75.226
X122.014Y-76.809
X124.57Y-78.259
X127.106Y-79.609
X129.65Y-81.109
X132.19Y-82.609
X134.73Y-83.919
X140.06Y-70.28
X143.56Y-98.53
X145.88Y-73.699
X148.88Y-74.96
X151.244Y-75.96
X153.88Y-77.46
X156.336Y-78.96
X158.88Y-80.46
X161.42Y-81.891
X163.96Y-83.54
X170.56Y-73.28
X173.23Y-73.3
X175.77Y-74.95
X178.31Y-76.38
X180.854Y-77.88
X183.31Y-79.38
X185.946Y-80.88
X188.31Y-81.88
X191.31Y-83.38
X196.56Y-85.53
X196.93Y-91.4
X197.06Y-93.53
X202.46Y-72.92
X205.0Y-74.23
X207.54Y-75.73
X210.084Y-77.23
X212.62Y-78.581
X215.176Y-80.031
X217.867Y-81.614
X219.81Y-64.53
X220.24Y-83.38
X227.56Y-64.53
T2
X87.32Y-74.53
X87.32Y-82.15
X87.32Y-90.73
X87.32Y-98.35
X88.06Y-103.53
X89.86Y-74.53
X89.86Y-82.15
X89.86Y-90.73
X89.86Y-98.35
X90.06Y-103.53
X92.06Y-103.53
X92.4Y-74.53
X92.4Y-82.15
X92.4Y-90.73
X92.4Y-98.35
X93.81Y-56.885
X93.81Y-59.425
X93.81Y-63.91
X93.81Y-66.45
X94.94Y-74.53
X94.94Y-82.15
X94.94Y-90.73
X94.94Y-98.35
X97.48Y-74.53
X97.48Y-82.15
X97.48Y-90.73
X97.48Y-98.35
X100.02Y-74.53
X100.02Y-82.15
X100.02Y-90.73
X100.02Y-98.35
X102.56Y-74.53
X102.56Y-82.15
X102.56Y-90.73
X102.56Y-98.35
X114.515Y-85.72
X114.515Y-93.34
X117.055Y-85.72
X117.055Y-93.34
X119.595Y-85.72
X119.595Y-93.34
X122.135Y-85.72
X122.135Y-93.34
X124.675Y-85.72
X124.675Y-93.34
X127.215Y-85.72
X127.215Y-93.34
X129.755Y-85.72
X129.755Y-93.34
X132.295Y-85.72
X132.295Y-93.34
X134.835Y-85.72
X134.835Y-93.34
X137.375Y-85.72
X137.375Y-93.34
X143.565Y-85.7
X143.565Y-93.32
X143.625Y-62.73
X143.625Y-70.35
X145.56Y-117.53
X146.06Y-106.03
X146.105Y-85.7
X146.105Y-93.32
X146.165Y-62.73
X146.165Y-70.35
X147.56Y-117.53
X148.06Y-106.03
X148.645Y-85.7
X148.645Y-93.32
X148.705Y-62.73
X148.705Y-70.35
X149.56Y-117.53
X150.06Y-106.03
X151.185Y-85.7
X151.185Y-93.32
X151.245Y-62.73
X151.245Y-70.35
X151.56Y-117.53
X152.06Y-106.03
X153.56Y-117.53
X153.725Y-85.7
X153.725Y-93.32
X153.785Y-62.73
X153.785Y-70.35
X154.06Y-106.03
X155.56Y-117.53
X156.06Y-106.03
X156.265Y-85.7
X156.265Y-93.32
X156.325Y-62.73
X156.325Y-70.35
X157.56Y-117.53
X158.06Y-106.03
X158.805Y-85.7
X158.805Y-93.32
X158.865Y-62.73
X158.865Y-70.35
X159.56Y-117.53
X160.06Y-106.03
X161.345Y-85.7
X161.345Y-93.32
X161.405Y-62.73
X161.405Y-70.35
X161.56Y-117.53
X162.06Y-106.03
X163.56Y-117.53
X163.885Y-85.7
X163.885Y-93.32
X163.945Y-62.73
X163.945Y-70.35
X164.06Y-106.03
X165.56Y-117.53
X166.06Y-106.03
X166.425Y-85.7
X166.425Y-93.32
X166.485Y-62.73
X166.485Y-70.35
X167.56Y-117.53
X168.06Y-106.03
X169.56Y-117.53
X170.06Y-106.03
X170.675Y-85.63
X170.675Y-93.25
X170.681Y-62.73
X170.681Y-70.35
X171.56Y-117.53
X172.06Y-106.03
X173.215Y-85.63
X173.215Y-93.25
X173.221Y-62.73
X173.221Y-70.35
X173.56Y-117.53
X174.06Y-106.03
X175.56Y-117.53
X175.755Y-85.63
X175.755Y-93.25
X175.761Y-62.73
X175.761Y-70.35
X176.06Y-106.03
X178.295Y-85.63
X178.295Y-93.25
X178.301Y-62.73
X178.301Y-70.35
X180.835Y-85.63
X180.835Y-93.25
X180.841Y-62.73
X180.841Y-70.35
X183.375Y-85.63
X183.375Y-93.25
X183.381Y-62.73
X183.381Y-70.35
X185.915Y-85.63
X185.915Y-93.25
X185.921Y-62.73
X185.921Y-70.35
X188.455Y-85.63
X188.455Y-93.25
X188.461Y-62.73
X188.461Y-70.35
X190.995Y-85.63
X190.995Y-93.25
X191.001Y-62.73
X191.001Y-70.35
X193.535Y-85.63
X193.535Y-93.25
X193.541Y-62.73
X193.541Y-70.35
X199.975Y-85.68
X199.975Y-93.3
X202.515Y-85.68
X202.515Y-93.3
X205.055Y-85.68
X205.055Y-93.3
X207.595Y-85.68
X207.595Y-93.3
X210.135Y-85.68
X210.135Y-93.3
X212.675Y-85.68
X212.675Y-93.3
X215.215Y-85.68
X215.215Y-93.3
X217.755Y-85.68
X217.755Y-93.3
X220.295Y-85.68
X220.295Y-93.3
X222.835Y-85.68
X222.835Y-93.3
T3
X99.56Y-56.755
X99.56Y-59.295
X99.56Y-63.78
X99.56Y-66.32
T4
X31.98Y-28.03
X34.52Y-28.03
X37.06Y-28.03
X39.6Y-28.03
X42.14Y-28.03
X44.68Y-28.03
X47.22Y-28.03
X49.76Y-28.03
X52.3Y-28.03
X54.84Y-28.03
X57.38Y-28.03
X59.92Y-28.03
X62.46Y-28.03
X65.0Y-28.03
X67.54Y-28.03
X70.08Y-28.03
X71.31Y-101.03
X71.31Y-106.03
X72.62Y-28.03
X75.16Y-28.03
X77.7Y-28.03
X80.24Y-28.03
X80.81Y-101.03
X80.81Y-106.03
X82.78Y-28.03
X85.32Y-28.03
X87.86Y-28.03
X90.4Y-28.03
X92.94Y-28.03
X95.48Y-28.03
X98.02Y-28.03
X100.56Y-28.03
X103.1Y-28.03
X105.64Y-28.03
X108.18Y-28.03
X109.56Y-86.53
X109.56Y-91.53
X110.72Y-28.03
X112.382Y-50.365
X113.26Y-28.03
X114.922Y-50.365
X115.8Y-28.03
X117.462Y-50.365
X118.34Y-28.03
X120.002Y-50.365
X120.88Y-28.03
X122.542Y-50.365
X123.42Y-28.03
X125.082Y-50.365
X125.96Y-28.03
X127.622Y-50.365
X128.5Y-28.03
X130.162Y-50.365
X131.04Y-28.03
X132.702Y-50.365
X133.58Y-28.03
X135.242Y-50.365
X136.12Y-28.03
X137.782Y-50.365
X138.66Y-28.03
X140.322Y-50.365
X141.2Y-28.03
X142.862Y-50.365
X143.74Y-28.03
X145.402Y-50.365
X146.28Y-28.03
X147.942Y-50.365
X148.82Y-28.03
X150.482Y-50.365
X151.36Y-28.03
X153.022Y-50.365
X153.9Y-28.03
X155.562Y-50.365
X156.44Y-28.03
X158.102Y-50.365
X158.98Y-28.03
X160.642Y-50.365
X161.52Y-28.03
X163.182Y-50.365
X164.06Y-28.03
X165.722Y-50.365
X166.6Y-28.03
X168.262Y-50.365
X169.14Y-28.03
X170.802Y-50.365
X171.68Y-28.03
X173.342Y-50.365
X174.22Y-28.03
X175.882Y-50.365
X176.76Y-28.03
X178.422Y-50.365
X179.3Y-28.03
X180.962Y-50.365
X181.84Y-28.03
X183.502Y-50.365
X184.38Y-28.03
X186.042Y-50.365
X186.92Y-28.03
X188.582Y-50.365
X189.46Y-28.03
X191.122Y-50.365
X192.0Y-28.03
X193.662Y-50.365
X194.54Y-28.03
X196.202Y-50.365
X197.08Y-28.03
X198.742Y-50.365
X199.62Y-28.03
X201.282Y-50.365
X202.16Y-28.03
X203.822Y-50.365
X204.7Y-28.03
X206.362Y-50.365
X207.24Y-28.03
X208.902Y-50.365
X209.78Y-28.03
X211.442Y-50.365
X212.32Y-28.03
X213.982Y-50.365
X214.86Y-28.03
X216.522Y-50.365
X217.4Y-28.03
X219.94Y-28.03
X222.48Y-28.03
X222.56Y-43.28
X222.56Y-52.78
X225.02Y-28.03
X227.56Y-28.03
X227.56Y-43.28
X227.56Y-52.78
X227.56Y-87.03
X227.56Y-92.03
T0
M30
