M48
; DRILL file {KiCad 6.0.2-378541a8eb~116~ubuntu21.10.1} date Mi 16 Feb 2022 18:13:30 CET
; FORMAT={-:-/ absolute / metric / decimal}
; #@! TF.CreationDate,2022-02-16T18:13:30+01:00
; #@! TF.GenerationSoftware,Kicad,Pcbnew,6.0.2-378541a8eb~116~ubuntu21.10.1
; #@! TF.FileFunction,Plated,1,2,PTH
FMAT,2
METRIC
; #@! TA.AperFunction,Plated,PTH,ViaDrill
T1C0.400
; #@! TA.AperFunction,Plated,PTH,ComponentDrill
T2C0.762
; #@! TA.AperFunction,Plated,PTH,ComponentDrill
T3C0.800
; #@! TA.AperFunction,Plated,PTH,ComponentDrill
T4C0.900
; #@! TA.AperFunction,Plated,PTH,ComponentDrill
T5C1.000
%
G90
G05
T1
X38.001Y-142.89
X39.491Y-43.953
X54.821Y-141.783
X55.301Y-120.598
X55.301Y-122.767
X55.423Y-125.043
X55.789Y-118.685
X56.543Y-88.34
X57.139Y-85.292
X57.281Y-54.613
X57.94Y-91.515
X57.95Y-115.899
X58.067Y-43.367
X58.591Y-55.903
X60.833Y-171.31
X60.861Y-166.746
X61.079Y-147.442
X62.004Y-173.477
X62.035Y-169.698
X63.058Y-186.088
X63.274Y-158.872
X63.274Y-167.508
X63.401Y-130.123
X64.036Y-157.602
X64.088Y-128.853
X64.173Y-166.73
X64.29Y-175.265
X64.599Y-84.004
X64.671Y-152.522
X64.671Y-153.792
X64.671Y-155.062
X64.671Y-156.332
X64.787Y-127.583
X64.885Y-87.01
X65.073Y-165.857
X65.317Y-183.52
X65.487Y-126.313
X65.56Y-99.135
X65.56Y-100.405
X65.835Y-164.972
X66.188Y-123.773
X66.216Y-181.605
X66.735Y-164.079
X66.752Y-141.903
X66.83Y-87.197
X67.024Y-109.803
X67.116Y-179.827
X67.211Y-121.868
X67.634Y-162.936
X67.719Y-107.898
X68.015Y-178.049
X68.35Y-119.584
X68.915Y-176.281
X69.329Y-36.387
X69.37Y-177.287
X69.526Y-117.785
X69.814Y-174.366
X70.259Y-88.34
X70.259Y-178.927
X70.714Y-172.323
X70.715Y-180.726
X71.215Y-37.286
X71.415Y-182.504
X72.301Y-184.42
X73.172Y-171.183
X73.18Y-166.365
X73.578Y-147.442
X74.673Y-169.698
X76.482Y-157.602
X76.62Y-168.143
X76.813Y-100.659
X76.813Y-116.407
X77.244Y-194.061
X77.371Y-156.332
X77.511Y-167.499
X78.144Y-193.162
X78.26Y-155.062
X78.41Y-166.86
X78.438Y-191.841
X78.641Y-190.749
X79.035Y-140.029
X79.276Y-153.792
X79.31Y-166.077
X79.403Y-189.479
X79.784Y-100.532
X79.784Y-149.982
X79.784Y-151.379
X79.784Y-152.649
X79.794Y-110.819
X79.984Y-138.886
X80.292Y-165.095
X80.302Y-188.463
X80.419Y-99.262
X80.546Y-79.069
X80.672Y-96.85
X80.672Y-97.993
X80.673Y-94.182
X80.673Y-95.579
X80.683Y-111.529
X80.873Y-137.616
X81.191Y-187.447
X81.207Y-164.485
X81.341Y-55.933
X81.572Y-112.305
X81.572Y-136.346
X82.106Y-163.663
X82.106Y-186.431
X82.197Y-141.854
X82.272Y-113.232
X82.397Y-135.276
X82.832Y-87.137
X82.842Y-82.127
X83.096Y-113.994
X83.478Y-56.076
X83.594Y-134.006
X83.858Y-81.365
X83.975Y-132.736
X84.013Y-114.629
X84.937Y-131.466
X86.268Y-204.399
X86.455Y-195.263
X86.651Y-93.38
X86.802Y-115.567
X87.047Y-154.964
X87.146Y-196.394
X87.284Y-198.557
X87.284Y-202.367
X87.35Y-92.372
X87.411Y-164.867
X87.802Y-115.567
X88.008Y-201.0
X88.05Y-91.4
X88.508Y-152.97
X88.55Y-165.463
X88.749Y-90.551
X88.802Y-115.567
X88.964Y-198.965
X89.249Y-89.55
X89.249Y-166.56
X89.32Y-155.129
X89.782Y-152.15
X89.802Y-115.567
X89.874Y-150.969
X89.931Y-167.58
X90.148Y-88.819
X90.24Y-168.956
X90.54Y-150.049
X90.802Y-115.567
X91.335Y-168.849
X91.736Y-90.058
X91.802Y-115.567
X92.173Y-36.359
X92.318Y-144.842
X92.447Y-168.194
X92.802Y-115.567
X93.422Y-148.787
X94.031Y-87.039
X94.322Y-147.537
X94.322Y-166.17
X94.576Y-116.379
X94.576Y-173.206
X94.62Y-91.106
X95.346Y-118.657
X96.001Y-169.353
X97.779Y-157.669
X98.149Y-130.063
X98.17Y-160.209
X98.541Y-101.605
X98.541Y-156.399
X98.602Y-103.52
X98.784Y-128.793
X98.922Y-155.129
X99.07Y-160.844
X99.176Y-152.589
X99.176Y-153.859
X99.302Y-104.409
X99.303Y-100.091
X99.673Y-127.523
X99.842Y-161.627
X99.938Y-98.694
X100.001Y-105.298
X100.054Y-185.355
X100.181Y-126.253
X100.469Y-162.614
X100.7Y-97.551
X100.797Y-106.058
X100.893Y-183.45
X101.153Y-50.577
X101.197Y-123.713
X101.335Y-144.08
X101.368Y-163.285
X101.594Y-181.545
X101.705Y-121.808
X102.153Y-51.577
X102.294Y-179.767
X102.454Y-119.671
X102.667Y-87.039
X103.0Y-117.649
X103.044Y-177.989
X103.153Y-52.577
X103.743Y-176.211
X104.153Y-53.577
X104.443Y-174.306
X105.153Y-54.577
X105.642Y-172.401
X106.153Y-55.577
X106.433Y-204.516
X106.62Y-195.38
X106.96Y-93.38
X107.112Y-115.567
X107.311Y-196.511
X107.356Y-154.964
X107.403Y-56.577
X107.449Y-198.674
X107.449Y-202.484
X107.66Y-92.372
X107.72Y-164.867
X108.112Y-115.567
X108.173Y-201.117
X108.359Y-91.4
X108.653Y-57.577
X108.817Y-152.97
X108.859Y-165.463
X109.059Y-90.551
X109.112Y-115.567
X109.129Y-199.082
X109.558Y-89.55
X109.559Y-166.56
X109.629Y-155.129
X110.092Y-152.15
X110.112Y-115.567
X110.183Y-150.969
X110.24Y-167.58
X110.458Y-88.819
X110.55Y-168.956
X110.849Y-150.049
X110.976Y-87.827
X111.112Y-115.567
X111.644Y-168.849
X112.112Y-115.567
X112.483Y-36.46
X112.627Y-144.842
X112.757Y-168.194
X113.112Y-115.567
X113.732Y-148.787
X114.261Y-118.665
X114.388Y-116.252
X114.515Y-173.439
X114.631Y-147.537
X114.631Y-166.17
X114.769Y-87.042
X114.93Y-91.233
X115.404Y-172.433
X116.31Y-169.353
X116.346Y-174.211
X118.088Y-157.669
X118.415Y-62.499
X118.432Y-42.676
X118.48Y-160.209
X118.542Y-139.969
X118.85Y-101.605
X118.85Y-156.399
X118.886Y-176.233
X118.912Y-103.52
X119.231Y-155.129
X119.304Y-138.826
X119.379Y-160.844
X119.468Y-178.032
X119.485Y-152.589
X119.485Y-153.859
X119.611Y-104.409
X119.612Y-100.091
X120.066Y-137.556
X120.151Y-161.627
X120.247Y-98.694
X120.311Y-105.298
X120.701Y-136.286
X120.778Y-162.614
X121.009Y-97.551
X121.092Y-194.002
X121.106Y-106.058
X121.403Y-43.577
X121.59Y-135.143
X121.644Y-144.08
X121.678Y-163.285
X121.821Y-212.283
X121.971Y-193.102
X122.279Y-133.873
X122.403Y-44.577
X122.606Y-191.832
X122.66Y-132.603
X122.791Y-87.109
X123.114Y-190.689
X123.153Y-45.577
X123.422Y-131.206
X124.003Y-189.419
X124.053Y-46.624
X124.511Y-188.403
X124.752Y-47.577
X125.273Y-187.387
X125.452Y-48.577
X125.759Y-186.35
X126.151Y-49.572
X126.961Y-179.81
X127.245Y-93.425
X127.397Y-115.611
X127.641Y-155.009
X127.945Y-92.417
X128.397Y-115.611
X128.644Y-91.444
X129.102Y-153.015
X129.344Y-90.596
X129.397Y-115.611
X129.843Y-89.595
X129.882Y-181.577
X129.914Y-155.174
X130.377Y-152.194
X130.397Y-115.611
X130.468Y-151.014
X130.743Y-88.864
X131.134Y-150.094
X131.152Y-183.366
X131.397Y-115.611
X131.497Y-87.846
X132.33Y-90.103
X132.397Y-115.611
X132.908Y-37.109
X132.912Y-144.887
X133.311Y-185.387
X133.397Y-115.611
X134.017Y-148.831
X134.708Y-87.039
X134.916Y-147.582
X134.916Y-166.215
X134.962Y-91.106
X134.962Y-116.76
X135.089Y-120.57
X135.216Y-175.344
X136.595Y-169.398
X138.373Y-157.714
X138.744Y-130.108
X138.765Y-160.254
X139.135Y-101.649
X139.135Y-156.444
X139.197Y-103.565
X139.379Y-128.838
X139.516Y-155.174
X139.664Y-160.889
X139.77Y-152.634
X139.77Y-153.904
X139.897Y-104.454
X139.897Y-100.136
X140.268Y-127.568
X140.437Y-161.671
X140.532Y-98.739
X140.596Y-105.343
X140.649Y-185.4
X140.776Y-126.298
X141.063Y-162.658
X141.294Y-97.596
X141.391Y-106.102
X141.487Y-183.495
X141.748Y-50.622
X141.792Y-123.758
X141.929Y-144.125
X141.963Y-163.33
X142.189Y-181.59
X142.371Y-121.833
X142.748Y-51.622
X142.888Y-179.812
X143.049Y-119.58
X143.217Y-87.042
X143.638Y-178.034
X143.748Y-52.622
X144.078Y-118.043
X144.338Y-176.256
X144.748Y-53.622
X145.037Y-174.351
X145.748Y-54.622
X146.237Y-172.446
X146.748Y-55.622
X147.555Y-93.425
X147.707Y-115.611
X147.951Y-155.009
X147.998Y-56.622
X148.254Y-92.417
X148.707Y-115.611
X148.954Y-91.444
X149.248Y-57.622
X149.412Y-153.015
X149.653Y-90.596
X149.707Y-115.611
X150.153Y-89.595
X150.224Y-155.174
X150.686Y-152.194
X150.707Y-115.611
X150.778Y-151.014
X151.052Y-88.864
X151.444Y-150.094
X151.571Y-87.871
X151.707Y-115.611
X152.707Y-115.611
X152.996Y-37.131
X153.222Y-144.887
X153.707Y-115.611
X154.326Y-148.831
X155.226Y-147.582
X155.524Y-87.042
X155.524Y-91.106
X156.905Y-169.398
X158.683Y-157.714
X159.01Y-62.544
X159.027Y-42.721
X159.074Y-160.254
X159.137Y-140.014
X159.445Y-101.649
X159.445Y-156.444
X159.507Y-103.565
X159.826Y-155.174
X159.899Y-138.871
X159.974Y-160.889
X160.08Y-152.634
X160.08Y-153.904
X160.206Y-104.454
X160.207Y-100.136
X160.661Y-137.601
X160.746Y-161.671
X160.842Y-98.739
X160.906Y-105.343
X161.296Y-136.331
X161.373Y-162.658
X161.604Y-97.596
X161.687Y-194.046
X161.701Y-106.102
X161.998Y-43.622
X162.185Y-135.188
X162.239Y-144.125
X162.272Y-163.33
X162.566Y-193.147
X162.874Y-133.918
X162.998Y-44.622
X163.201Y-191.877
X163.255Y-132.648
X163.35Y-87.109
X163.709Y-190.734
X163.748Y-45.622
X164.017Y-131.251
X164.598Y-189.464
X164.647Y-46.669
X165.106Y-188.448
X165.347Y-47.622
X165.868Y-187.432
X166.046Y-48.622
X166.354Y-186.394
X166.746Y-49.617
X167.601Y-169.004
X167.609Y-93.377
X167.76Y-115.564
X168.005Y-154.961
X168.236Y-194.933
X168.308Y-92.369
X168.76Y-115.564
X169.008Y-91.397
X169.379Y-172.306
X169.379Y-195.69
X169.466Y-152.967
X169.506Y-198.089
X169.707Y-90.548
X169.76Y-115.564
X170.207Y-89.547
X170.278Y-155.126
X170.606Y-198.089
X170.649Y-174.338
X170.649Y-195.69
X170.74Y-152.147
X170.76Y-115.564
X170.832Y-150.966
X171.106Y-88.816
X171.498Y-150.046
X171.705Y-198.089
X171.749Y-195.67
X171.76Y-115.564
X172.046Y-176.233
X172.681Y-178.011
X172.694Y-90.055
X172.76Y-115.564
X172.805Y-198.089
X172.848Y-195.674
X173.151Y-37.96
X173.276Y-144.839
X173.76Y-115.564
X173.904Y-198.089
X173.948Y-195.674
X173.951Y-179.789
X174.38Y-148.784
X174.967Y-87.039
X175.004Y-198.089
X175.094Y-181.588
X175.094Y-195.69
X175.28Y-147.534
X175.28Y-166.167
X175.578Y-91.106
X175.719Y-122.74
X175.729Y-117.131
X176.103Y-198.089
X176.194Y-195.67
X176.248Y-183.493
X176.959Y-169.35
X177.126Y-185.387
X177.203Y-198.089
X177.293Y-195.694
X178.737Y-157.666
X178.777Y-177.143
X179.107Y-130.06
X179.128Y-160.206
X179.499Y-101.602
X179.499Y-156.396
X179.56Y-103.517
X179.742Y-128.79
X179.88Y-155.126
X179.996Y-210.022
X180.028Y-160.841
X180.134Y-152.586
X180.134Y-153.856
X180.26Y-104.406
X180.261Y-100.088
X180.631Y-127.52
X180.8Y-161.624
X180.896Y-98.691
X180.959Y-105.295
X181.012Y-185.352
X181.139Y-126.25
X181.427Y-162.611
X181.658Y-97.548
X181.755Y-106.055
X181.851Y-183.447
X182.111Y-50.574
X182.155Y-123.71
X182.293Y-144.077
X182.326Y-163.282
X182.552Y-181.542
X182.663Y-121.805
X183.111Y-51.574
X183.252Y-179.764
X183.412Y-119.532
X183.857Y-87.169
X184.002Y-177.986
X184.111Y-52.574
X184.441Y-117.995
X184.701Y-176.208
X185.111Y-53.574
X185.401Y-174.303
X186.111Y-54.574
X186.6Y-172.398
X187.111Y-55.574
X187.918Y-93.377
X188.07Y-115.564
X188.314Y-154.961
X188.361Y-56.574
X188.618Y-92.369
X189.013Y-210.149
X189.07Y-115.564
X189.317Y-91.397
X189.611Y-57.574
X189.775Y-152.967
X190.017Y-90.548
X190.07Y-115.564
X190.516Y-89.547
X190.587Y-155.126
X191.05Y-152.147
X191.07Y-115.564
X191.141Y-150.966
X191.416Y-88.816
X191.807Y-150.046
X191.934Y-87.824
X192.07Y-115.564
X193.07Y-115.564
X193.509Y-37.96
X193.585Y-144.839
X194.07Y-115.564
X194.69Y-148.784
X195.287Y-177.016
X195.589Y-147.534
X195.668Y-166.21
X195.871Y-87.042
X195.888Y-91.106
X197.268Y-169.35
X199.046Y-157.666
X199.373Y-62.496
X199.39Y-42.673
X199.438Y-160.206
X199.5Y-139.966
X199.808Y-101.602
X199.808Y-156.396
X199.87Y-103.517
X200.189Y-155.126
X200.262Y-138.823
X200.337Y-160.841
X200.443Y-152.586
X200.443Y-153.856
X200.569Y-104.406
X200.57Y-100.088
X201.024Y-137.553
X201.109Y-161.624
X201.205Y-98.691
X201.269Y-105.295
X201.659Y-136.283
X201.736Y-162.611
X201.967Y-97.548
X202.05Y-193.999
X202.064Y-106.055
X202.361Y-43.574
X202.548Y-135.14
X202.602Y-144.077
X202.636Y-163.282
X202.929Y-193.099
X203.237Y-133.87
X203.361Y-44.574
X203.564Y-191.829
X203.602Y-87.109
X203.618Y-132.6
X204.072Y-190.686
X204.111Y-45.574
X204.38Y-131.203
X204.961Y-189.416
X205.011Y-46.621
X205.469Y-188.4
X205.71Y-47.574
X206.231Y-187.384
X206.41Y-48.574
X206.717Y-186.403
X207.109Y-49.569
X207.954Y-93.411
X208.106Y-115.597
X208.35Y-154.995
X208.654Y-92.403
X209.106Y-115.597
X209.353Y-91.43
X209.811Y-153.001
X210.053Y-90.582
X210.106Y-115.597
X210.459Y-170.85
X210.552Y-89.581
X210.623Y-155.16
X211.086Y-152.18
X211.106Y-115.597
X211.177Y-151.0
X211.452Y-88.85
X211.843Y-150.08
X212.106Y-115.597
X212.206Y-87.832
X213.039Y-90.089
X213.106Y-115.597
X213.621Y-144.873
X213.625Y-38.71
X214.106Y-115.597
X214.726Y-148.817
X215.625Y-147.568
X215.625Y-166.201
X215.853Y-84.484
X215.861Y-91.106
X215.861Y-116.76
X215.988Y-125.015
X217.304Y-169.384
X217.639Y-87.039
X218.655Y-178.921
X219.082Y-157.7
X219.453Y-130.094
X219.474Y-160.24
X219.844Y-101.636
X219.844Y-156.43
X219.906Y-103.551
X220.088Y-128.824
X220.225Y-155.16
X220.373Y-160.875
X220.479Y-152.62
X220.479Y-153.89
X220.606Y-104.44
X220.606Y-100.122
X220.977Y-127.554
X221.146Y-161.658
X221.241Y-98.725
X221.305Y-105.329
X221.358Y-185.386
X221.485Y-126.284
X221.772Y-162.644
X222.003Y-97.582
X222.1Y-106.088
X222.196Y-183.481
X222.457Y-50.608
X222.501Y-123.744
X222.638Y-144.111
X222.672Y-163.316
X222.898Y-181.576
X223.009Y-121.839
X223.457Y-51.608
X223.597Y-179.798
X223.758Y-119.566
X223.971Y-86.654
X224.347Y-178.02
X224.457Y-52.608
X224.787Y-118.029
X225.047Y-176.242
X225.457Y-53.608
X225.746Y-174.337
X226.457Y-54.608
X226.946Y-172.432
X227.457Y-55.608
X228.264Y-93.411
X228.416Y-115.597
X228.66Y-154.995
X228.707Y-56.608
X228.963Y-92.403
X229.416Y-115.597
X229.663Y-91.43
X229.957Y-57.608
X230.121Y-153.001
X230.362Y-90.582
X230.416Y-115.597
X230.862Y-89.581
X230.933Y-155.16
X231.395Y-152.18
X231.416Y-115.597
X231.487Y-151.0
X231.761Y-88.85
X232.153Y-150.08
X232.28Y-87.858
X232.416Y-115.597
X233.416Y-115.597
X233.895Y-38.71
X233.931Y-144.873
X234.416Y-115.597
X235.035Y-148.817
X235.927Y-179.037
X235.935Y-147.568
X235.935Y-166.201
X236.217Y-86.858
X236.233Y-91.106
X237.614Y-169.384
X239.392Y-157.7
X239.686Y-198.719
X239.719Y-62.53
X239.736Y-42.707
X239.783Y-160.24
X239.846Y-140.0
X240.154Y-101.636
X240.154Y-156.43
X240.216Y-103.551
X240.535Y-155.16
X240.608Y-138.857
X240.683Y-160.875
X240.789Y-152.62
X240.789Y-153.89
X240.915Y-104.44
X240.916Y-100.122
X241.37Y-137.587
X241.455Y-161.658
X241.551Y-98.725
X241.615Y-105.329
X242.005Y-136.317
X242.082Y-162.644
X242.313Y-97.582
X242.396Y-194.032
X242.41Y-106.088
X242.707Y-43.608
X242.894Y-135.174
X242.948Y-144.111
X242.981Y-163.316
X242.988Y-198.719
X243.275Y-193.133
X243.583Y-133.904
X243.707Y-44.608
X243.91Y-191.863
X243.964Y-132.634
X244.345Y-86.787
X244.418Y-190.72
X244.457Y-45.608
X244.726Y-131.237
X244.766Y-199.989
X244.788Y-197.09
X245.307Y-189.45
X245.356Y-46.655
X245.815Y-188.434
X246.056Y-47.608
X246.577Y-187.418
X246.755Y-48.608
X247.23Y-186.403
X247.455Y-49.603
X248.34Y-93.411
X248.492Y-115.597
X248.736Y-154.995
X249.008Y-186.403
X249.04Y-92.403
X249.492Y-115.597
X249.739Y-91.43
X249.908Y-187.419
X250.197Y-153.001
X250.439Y-90.582
X250.492Y-115.597
X250.786Y-188.435
X250.938Y-89.581
X251.009Y-155.16
X251.472Y-152.18
X251.492Y-115.597
X251.548Y-189.451
X251.563Y-151.0
X251.838Y-88.85
X252.229Y-150.08
X252.437Y-190.721
X252.492Y-115.597
X252.592Y-87.832
X252.945Y-191.864
X253.425Y-90.089
X253.492Y-115.597
X253.961Y-39.409
X253.961Y-193.134
X253.969Y-84.484
X254.007Y-144.873
X254.492Y-115.597
X254.588Y-194.037
X255.112Y-148.817
X255.721Y-87.429
X256.011Y-147.568
X256.011Y-166.201
X256.12Y-180.688
X257.69Y-169.384
X259.468Y-157.7
X259.839Y-130.094
X259.86Y-160.24
X260.23Y-101.636
X260.23Y-156.43
X260.292Y-103.551
X260.474Y-128.824
X260.611Y-155.16
X260.759Y-160.875
X260.865Y-152.62
X260.865Y-153.89
X260.992Y-104.44
X260.992Y-100.122
X261.363Y-127.554
X261.532Y-161.658
X261.627Y-98.725
X261.691Y-105.329
X261.744Y-185.386
X261.871Y-126.284
X262.158Y-162.644
X262.389Y-97.582
X262.486Y-106.088
X262.582Y-183.481
X262.843Y-50.608
X262.887Y-123.744
X263.024Y-144.111
X263.058Y-163.316
X263.284Y-181.576
X263.395Y-121.839
X263.843Y-51.608
X263.983Y-179.798
X264.144Y-119.566
X264.357Y-86.654
X264.733Y-178.02
X264.843Y-52.608
X265.173Y-118.029
X265.433Y-176.242
X265.843Y-53.608
X266.132Y-174.337
X266.843Y-54.608
X267.332Y-172.432
X267.843Y-55.608
X268.65Y-93.411
X268.802Y-115.597
X269.046Y-154.995
X269.093Y-56.608
X269.349Y-92.403
X269.802Y-115.597
X270.049Y-91.43
X270.343Y-57.608
X270.507Y-153.001
X270.748Y-90.582
X270.802Y-115.597
X271.248Y-89.581
X271.319Y-155.16
X271.781Y-152.18
X271.802Y-115.597
X271.873Y-151.0
X272.147Y-88.85
X272.539Y-150.08
X272.666Y-87.858
X272.802Y-115.597
X273.802Y-115.597
X273.9Y-84.484
X274.317Y-144.873
X274.408Y-39.409
X274.802Y-115.597
X275.421Y-148.817
X276.321Y-147.568
X276.321Y-166.201
X276.603Y-86.858
X277.618Y-180.699
X278.0Y-169.384
X279.778Y-157.7
X280.105Y-62.53
X280.122Y-42.707
X280.169Y-160.24
X280.232Y-140.0
X280.54Y-101.636
X280.54Y-156.43
X280.602Y-103.551
X280.921Y-155.16
X280.994Y-138.857
X281.069Y-160.875
X281.175Y-152.62
X281.175Y-153.89
X281.301Y-104.44
X281.302Y-100.122
X281.756Y-137.587
X281.841Y-161.658
X281.937Y-98.725
X282.001Y-105.329
X282.391Y-136.317
X282.468Y-162.644
X282.699Y-97.582
X282.782Y-194.032
X282.796Y-106.088
X283.093Y-43.608
X283.28Y-135.174
X283.334Y-144.111
X283.367Y-163.316
X283.661Y-193.133
X283.969Y-133.904
X284.093Y-44.608
X284.296Y-191.863
X284.35Y-132.634
X284.731Y-86.787
X284.804Y-190.72
X284.843Y-45.608
X285.112Y-131.237
X285.693Y-189.45
X285.742Y-46.655
X286.201Y-188.434
X286.442Y-47.608
X286.963Y-187.418
X287.141Y-48.608
X287.489Y-186.403
X287.841Y-49.603
X289.287Y-93.412
X289.439Y-115.599
X289.683Y-154.996
X289.987Y-92.404
X290.439Y-115.599
X290.686Y-91.432
X291.144Y-153.002
X291.386Y-90.583
X291.439Y-115.599
X291.885Y-89.582
X291.956Y-155.161
X292.419Y-152.182
X292.439Y-115.599
X292.51Y-151.001
X292.785Y-88.851
X293.176Y-150.081
X293.439Y-115.599
X294.372Y-90.09
X294.439Y-115.599
X294.954Y-144.874
X295.04Y-40.359
X295.439Y-115.599
X295.668Y-85.383
X296.059Y-148.819
X296.668Y-87.43
X296.958Y-147.569
X296.958Y-166.202
X298.065Y-182.593
X298.637Y-169.385
X300.415Y-157.701
X300.786Y-130.095
X300.807Y-160.241
X301.177Y-101.637
X301.177Y-156.431
X301.239Y-103.552
X301.421Y-128.825
X301.558Y-155.161
X301.706Y-160.876
X301.812Y-152.621
X301.812Y-153.891
X301.939Y-104.441
X301.939Y-100.123
X302.31Y-127.555
X302.479Y-161.659
X302.574Y-98.726
X302.638Y-105.33
X302.691Y-185.387
X302.818Y-126.285
X303.105Y-162.646
X303.336Y-97.583
X303.433Y-106.09
X303.529Y-183.482
X303.79Y-50.609
X303.834Y-123.745
X303.971Y-144.112
X304.005Y-163.317
X304.231Y-181.577
X304.342Y-121.84
X304.79Y-51.609
X304.93Y-179.799
X305.003Y-50.609
X305.091Y-119.567
X305.304Y-86.655
X305.68Y-178.021
X305.79Y-52.609
X306.003Y-51.609
X306.12Y-118.03
X306.38Y-176.243
X306.79Y-53.609
X307.003Y-52.609
X307.079Y-174.338
X307.79Y-54.609
X308.003Y-53.609
X308.279Y-172.433
X308.79Y-55.609
X309.003Y-54.609
X309.597Y-93.412
X309.749Y-115.599
X309.993Y-154.996
X310.003Y-55.609
X310.04Y-56.609
X310.296Y-92.404
X310.749Y-115.599
X310.996Y-91.432
X311.253Y-56.609
X311.29Y-57.609
X311.454Y-153.002
X311.695Y-90.583
X311.749Y-115.599
X312.195Y-89.582
X312.266Y-155.161
X312.503Y-57.609
X312.728Y-152.182
X312.749Y-115.599
X312.82Y-151.001
X313.094Y-88.851
X313.486Y-150.081
X313.613Y-87.859
X313.749Y-115.599
X314.749Y-115.599
X315.264Y-144.874
X315.334Y-40.109
X315.749Y-115.599
X315.817Y-85.129
X316.368Y-148.819
X317.242Y-182.477
X317.268Y-147.569
X317.268Y-166.202
X317.55Y-86.859
X318.947Y-169.385
X320.725Y-157.701
X321.052Y-62.531
X321.069Y-42.708
X321.116Y-160.241
X321.179Y-140.001
X321.487Y-101.637
X321.487Y-156.431
X321.549Y-103.552
X321.868Y-155.161
X321.941Y-138.858
X322.016Y-160.876
X322.122Y-152.621
X322.122Y-153.891
X322.248Y-104.441
X322.249Y-100.123
X322.703Y-137.588
X322.788Y-161.659
X322.884Y-98.726
X322.948Y-105.33
X323.338Y-136.318
X323.415Y-162.646
X323.646Y-97.583
X323.729Y-194.034
X323.743Y-106.09
X324.04Y-43.609
X324.227Y-135.175
X324.281Y-144.112
X324.315Y-163.317
X324.608Y-193.134
X324.916Y-133.905
X325.04Y-44.609
X325.243Y-191.864
X325.297Y-132.635
X325.678Y-86.788
X325.751Y-190.721
X325.79Y-45.609
X326.059Y-131.238
X326.64Y-189.451
X326.689Y-46.656
X327.148Y-188.435
X327.389Y-47.609
X327.91Y-187.419
X328.089Y-48.609
X328.418Y-186.403
X328.788Y-49.604
X329.688Y-207.052
X329.875Y-197.916
X330.0Y-93.412
X330.152Y-115.599
X330.396Y-154.996
X330.566Y-199.047
X330.7Y-92.404
X330.704Y-201.21
X330.704Y-205.02
X330.831Y-165.002
X331.152Y-115.599
X331.399Y-91.432
X331.428Y-203.653
X331.857Y-153.002
X331.97Y-165.598
X332.099Y-90.583
X332.152Y-115.599
X332.384Y-201.618
X332.598Y-89.582
X332.669Y-155.161
X332.669Y-166.695
X333.132Y-152.182
X333.152Y-115.599
X333.223Y-151.001
X333.351Y-167.715
X333.498Y-88.851
X333.66Y-169.091
X333.889Y-150.081
X334.152Y-115.599
X334.387Y-87.944
X334.754Y-168.984
X335.152Y-115.599
X335.667Y-144.874
X335.753Y-40.359
X335.867Y-168.33
X336.137Y-85.891
X336.152Y-115.599
X336.772Y-148.819
X337.444Y-86.945
X337.671Y-147.569
X337.671Y-166.202
X337.689Y-184.392
X339.35Y-169.385
X341.128Y-157.701
X341.499Y-130.095
X341.52Y-160.241
X341.89Y-101.637
X341.89Y-156.431
X341.952Y-103.552
X342.134Y-128.825
X342.271Y-155.161
X342.419Y-160.876
X342.525Y-152.621
X342.525Y-153.891
X342.651Y-104.441
X342.652Y-100.123
X343.023Y-127.555
X343.191Y-161.659
X343.287Y-98.726
X343.351Y-105.33
X343.404Y-185.387
X343.531Y-126.285
X343.818Y-162.646
X344.049Y-97.583
X344.146Y-106.09
X344.242Y-183.482
X344.503Y-50.609
X344.547Y-123.745
X344.684Y-144.112
X344.718Y-163.317
X344.944Y-181.577
X345.055Y-121.84
X345.503Y-51.609
X345.643Y-179.799
X345.804Y-119.567
X346.0Y-86.859
X346.393Y-178.021
X346.503Y-52.609
X346.833Y-118.03
X347.093Y-176.243
X347.503Y-53.609
X347.792Y-174.338
X348.503Y-54.609
X348.992Y-172.433
X349.503Y-55.609
X349.853Y-207.169
X350.04Y-198.033
X350.31Y-93.412
X350.461Y-115.599
X350.706Y-154.996
X350.731Y-199.164
X350.753Y-56.609
X350.869Y-201.327
X350.869Y-205.137
X351.009Y-92.404
X351.14Y-165.002
X351.461Y-115.599
X351.593Y-203.77
X351.709Y-91.432
X352.003Y-57.609
X352.167Y-153.002
X352.279Y-165.598
X352.408Y-90.583
X352.461Y-115.599
X352.549Y-201.735
X352.908Y-89.582
X352.979Y-155.161
X352.979Y-166.695
X353.441Y-152.182
X353.461Y-115.599
X353.533Y-151.001
X353.66Y-167.715
X353.807Y-88.851
X353.97Y-169.091
X354.199Y-150.081
X354.326Y-87.859
X354.461Y-115.599
X355.064Y-168.984
X355.441Y-85.383
X355.461Y-115.599
X355.977Y-144.874
X356.003Y-41.359
X356.177Y-168.33
X356.461Y-115.599
X357.081Y-148.819
X357.882Y-184.382
X357.981Y-147.569
X357.981Y-166.202
X358.263Y-86.859
X359.66Y-169.385
X361.438Y-157.701
X361.821Y-142.091
X361.829Y-160.241
X361.851Y-140.156
X362.2Y-101.637
X362.2Y-156.431
X362.261Y-103.552
X362.581Y-155.161
X362.613Y-138.886
X362.729Y-160.876
X362.835Y-152.621
X362.835Y-153.891
X362.961Y-104.441
X362.961Y-137.616
X362.962Y-100.123
X363.501Y-161.659
X363.597Y-98.726
X363.661Y-105.33
X363.724Y-203.548
X363.756Y-136.6
X364.128Y-162.646
X364.359Y-97.583
X364.36Y-135.175
X364.456Y-106.09
X364.552Y-201.77
X364.753Y-43.609
X365.027Y-163.317
X365.253Y-199.992
X365.629Y-133.905
X365.753Y-44.609
X366.01Y-132.635
X366.01Y-198.214
X366.391Y-86.788
X366.391Y-196.055
X366.503Y-45.609
X366.772Y-131.238
X367.402Y-194.531
X367.402Y-46.656
X368.102Y-47.609
X368.169Y-192.88
X368.801Y-48.609
X368.852Y-190.594
X369.501Y-49.709
X404.013Y-117.476
X404.69Y-98.652
X404.69Y-102.152
X404.69Y-107.152
X405.19Y-72.152
X405.69Y-99.652
X405.69Y-104.152
X406.845Y-49.93
X407.845Y-49.43
X408.845Y-48.93
X411.886Y-36.117
X411.981Y-45.566
X412.69Y-67.652
X413.581Y-54.694
X413.845Y-56.93
X414.69Y-61.652
X416.69Y-62.152
X416.704Y-63.439
X432.19Y-67.652
X439.19Y-64.152
X439.69Y-59.152
X444.19Y-45.652
X446.19Y-45.152
X452.69Y-45.652
X455.19Y-45.652
X456.69Y-38.652
X460.69Y-37.152
X461.19Y-45.652
X462.69Y-38.652
X467.19Y-44.753
X468.19Y-43.652
X469.985Y-107.23
X477.19Y-38.652
X488.245Y-78.72
X488.69Y-52.152
X489.69Y-54.652
X490.03Y-83.547
X491.69Y-58.152
X494.19Y-64.652
X494.505Y-63.13
X506.505Y-60.63
X508.19Y-70.652
X514.19Y-76.152
X517.69Y-70.652
X518.69Y-106.441
X520.19Y-97.652
X525.19Y-79.951
X527.69Y-92.152
X528.69Y-78.152
T2
X40.099Y-151.899
X40.099Y-154.399
X40.099Y-156.899
X40.099Y-159.399
X40.099Y-161.899
X40.099Y-164.399
X40.099Y-166.899
X40.099Y-169.399
X40.099Y-171.899
X40.099Y-174.399
X40.099Y-176.899
X40.099Y-179.399
X40.099Y-181.899
X40.099Y-184.399
X40.099Y-186.899
X40.099Y-189.399
X40.099Y-191.899
X40.099Y-194.399
X40.099Y-196.899
X40.099Y-199.399
X40.32Y-92.513
X40.32Y-95.013
X40.32Y-97.513
X40.32Y-100.013
X40.32Y-102.513
X40.32Y-105.013
X40.32Y-107.513
X40.32Y-110.013
X40.32Y-112.513
X40.32Y-115.013
X40.32Y-117.513
X40.32Y-120.013
X40.32Y-122.513
X40.32Y-125.013
X40.32Y-127.513
X40.32Y-130.013
X40.32Y-132.513
X40.32Y-135.013
X40.32Y-137.513
X40.32Y-140.013
X47.399Y-151.899
X47.399Y-154.399
X47.399Y-156.899
X47.399Y-159.399
X47.399Y-161.899
X47.399Y-164.399
X47.399Y-166.899
X47.399Y-169.399
X47.399Y-171.899
X47.399Y-174.399
X47.399Y-176.899
X47.399Y-179.399
X47.399Y-181.899
X47.399Y-184.399
X47.399Y-186.899
X47.399Y-189.399
X47.399Y-191.899
X47.399Y-194.399
X47.399Y-196.899
X47.399Y-199.399
X47.62Y-92.513
X47.62Y-95.013
X47.62Y-97.513
X47.62Y-100.013
X47.62Y-102.513
X47.62Y-105.013
X47.62Y-107.513
X47.62Y-110.013
X47.62Y-112.513
X47.62Y-115.013
X47.62Y-117.513
X47.62Y-120.013
X47.62Y-122.513
X47.62Y-125.013
X47.62Y-127.513
X47.62Y-130.013
X47.62Y-132.513
X47.62Y-135.013
X47.62Y-137.513
X47.62Y-140.013
X435.62Y-95.052
X435.62Y-102.352
X438.12Y-95.052
X438.12Y-102.352
X440.62Y-95.052
X440.62Y-102.352
X443.12Y-95.052
X443.12Y-102.352
X445.62Y-95.052
X445.62Y-102.352
X448.12Y-95.052
X448.12Y-102.352
X450.62Y-95.052
X450.62Y-102.352
X453.12Y-95.052
X453.12Y-102.352
X455.62Y-95.052
X455.62Y-102.352
X458.12Y-95.052
X458.12Y-102.352
X460.62Y-95.052
X460.62Y-102.352
X463.12Y-95.052
X463.12Y-102.352
X465.62Y-95.052
X465.62Y-102.352
X468.12Y-95.052
X468.12Y-102.352
X470.62Y-95.052
X470.62Y-102.352
X473.12Y-95.052
X473.12Y-102.352
X475.62Y-95.052
X475.62Y-102.352
X478.12Y-95.052
X478.12Y-102.352
X480.62Y-95.052
X480.62Y-102.352
X483.12Y-95.052
X483.12Y-102.352
T3
X36.129Y-174.021
X36.129Y-179.101
X36.409Y-194.421
X36.409Y-199.501
X36.412Y-134.363
X36.412Y-139.443
X36.666Y-114.043
X36.666Y-119.123
X56.505Y-202.129
X56.505Y-209.749
X59.045Y-202.129
X59.045Y-209.749
X61.585Y-202.129
X61.585Y-209.749
X62.766Y-71.449
X62.766Y-79.069
X64.125Y-202.129
X64.125Y-209.749
X65.306Y-71.449
X65.306Y-79.069
X66.665Y-202.129
X66.665Y-209.749
X67.846Y-71.449
X67.846Y-79.069
X69.205Y-202.129
X69.205Y-209.749
X70.386Y-71.449
X70.386Y-79.069
X71.745Y-202.129
X71.745Y-209.749
X72.926Y-71.449
X72.926Y-79.069
X74.285Y-202.129
X74.285Y-209.749
X75.466Y-71.449
X75.466Y-79.069
X78.006Y-71.449
X78.006Y-79.069
X80.546Y-71.449
X80.546Y-79.069
X92.407Y-59.732
X92.407Y-62.272
X92.407Y-64.812
X92.407Y-67.352
X92.407Y-69.892
X92.407Y-72.432
X92.407Y-74.972
X92.407Y-77.512
X92.407Y-80.052
X92.407Y-82.592
X100.027Y-59.732
X100.027Y-62.272
X100.027Y-64.812
X100.027Y-67.352
X100.027Y-69.892
X100.027Y-72.432
X100.027Y-74.972
X100.027Y-77.512
X100.027Y-80.052
X100.027Y-82.592
X112.356Y-59.737
X112.356Y-62.277
X112.356Y-64.817
X112.356Y-67.357
X112.356Y-69.897
X112.356Y-72.437
X112.356Y-74.977
X112.356Y-77.517
X112.356Y-80.057
X112.356Y-82.597
X119.976Y-59.737
X119.976Y-62.277
X119.976Y-64.817
X119.976Y-67.357
X119.976Y-69.897
X119.976Y-72.437
X119.976Y-74.977
X119.976Y-77.517
X119.976Y-80.057
X119.976Y-82.597
X133.367Y-59.732
X133.367Y-62.272
X133.367Y-64.812
X133.367Y-67.352
X133.367Y-69.892
X133.367Y-72.432
X133.367Y-74.972
X133.367Y-77.512
X133.367Y-80.052
X133.367Y-82.592
X140.206Y-199.983
X140.206Y-207.603
X140.987Y-59.732
X140.987Y-62.272
X140.987Y-64.812
X140.987Y-67.352
X140.987Y-69.892
X140.987Y-72.432
X140.987Y-74.972
X140.987Y-77.512
X140.987Y-80.052
X140.987Y-82.592
X142.746Y-199.983
X142.746Y-207.603
X145.286Y-199.983
X145.286Y-207.603
X147.826Y-199.983
X147.826Y-207.603
X150.366Y-199.983
X150.366Y-207.603
X152.906Y-199.983
X152.906Y-207.603
X153.367Y-59.732
X153.367Y-62.272
X153.367Y-64.812
X153.367Y-67.352
X153.367Y-69.892
X153.367Y-72.432
X153.367Y-74.972
X153.367Y-77.512
X153.367Y-80.052
X153.367Y-82.592
X155.446Y-199.983
X155.446Y-207.603
X160.987Y-59.732
X160.987Y-62.272
X160.987Y-64.812
X160.987Y-67.352
X160.987Y-69.892
X160.987Y-72.432
X160.987Y-74.972
X160.987Y-77.512
X160.987Y-80.052
X160.987Y-82.592
X173.306Y-59.859
X173.306Y-62.399
X173.306Y-64.939
X173.306Y-67.479
X173.306Y-70.019
X173.306Y-72.559
X173.306Y-75.099
X173.306Y-77.639
X173.306Y-80.179
X173.306Y-82.719
X180.926Y-59.859
X180.926Y-62.399
X180.926Y-64.939
X180.926Y-67.479
X180.926Y-70.019
X180.926Y-72.559
X180.926Y-75.099
X180.926Y-77.639
X180.926Y-80.179
X180.926Y-82.719
X193.118Y-59.859
X193.118Y-62.399
X193.118Y-64.939
X193.118Y-67.479
X193.118Y-70.019
X193.118Y-72.559
X193.118Y-75.099
X193.118Y-77.639
X193.118Y-80.179
X193.118Y-82.719
X200.738Y-59.859
X200.738Y-62.399
X200.738Y-64.939
X200.738Y-67.479
X200.738Y-70.019
X200.738Y-72.559
X200.738Y-75.099
X200.738Y-77.639
X200.738Y-80.179
X200.738Y-82.719
X213.819Y-59.859
X213.819Y-62.399
X213.819Y-64.939
X213.819Y-67.479
X213.819Y-70.019
X213.819Y-72.559
X213.819Y-75.099
X213.819Y-77.639
X213.819Y-80.179
X213.819Y-82.719
X221.439Y-59.859
X221.439Y-62.399
X221.439Y-64.939
X221.439Y-67.479
X221.439Y-70.019
X221.439Y-72.559
X221.439Y-75.099
X221.439Y-77.639
X221.439Y-80.179
X221.439Y-82.719
X234.139Y-59.859
X234.139Y-62.399
X234.139Y-64.939
X234.139Y-67.479
X234.139Y-70.019
X234.139Y-72.559
X234.139Y-75.099
X234.139Y-77.639
X234.139Y-80.179
X234.139Y-82.719
X241.759Y-59.859
X241.759Y-62.399
X241.759Y-64.939
X241.759Y-67.479
X241.759Y-70.019
X241.759Y-72.559
X241.759Y-75.099
X241.759Y-77.639
X241.759Y-80.179
X241.759Y-82.719
X254.247Y-59.991
X254.247Y-62.531
X254.247Y-65.071
X254.247Y-67.611
X254.247Y-70.151
X254.247Y-72.691
X254.247Y-75.231
X254.247Y-77.771
X254.247Y-80.311
X254.247Y-82.851
X261.867Y-59.991
X261.867Y-62.531
X261.867Y-65.071
X261.867Y-67.611
X261.867Y-70.151
X261.867Y-72.691
X261.867Y-75.231
X261.867Y-77.771
X261.867Y-80.311
X261.867Y-82.851
X274.247Y-59.859
X274.247Y-62.399
X274.247Y-64.939
X274.247Y-67.479
X274.247Y-70.019
X274.247Y-72.559
X274.247Y-75.099
X274.247Y-77.639
X274.247Y-80.179
X274.247Y-82.719
X281.867Y-59.859
X281.867Y-62.399
X281.867Y-64.939
X281.867Y-67.479
X281.867Y-70.019
X281.867Y-72.559
X281.867Y-75.099
X281.867Y-77.639
X281.867Y-80.179
X281.867Y-82.719
X294.89Y-59.864
X294.89Y-62.404
X294.89Y-64.944
X294.89Y-67.484
X294.89Y-70.024
X294.89Y-72.564
X294.89Y-75.104
X294.89Y-77.644
X294.89Y-80.184
X294.89Y-82.724
X302.51Y-59.864
X302.51Y-62.404
X302.51Y-64.944
X302.51Y-67.484
X302.51Y-70.024
X302.51Y-72.564
X302.51Y-75.104
X302.51Y-77.644
X302.51Y-80.184
X302.51Y-82.724
X315.073Y-59.986
X315.073Y-62.526
X315.073Y-65.066
X315.073Y-67.606
X315.073Y-70.146
X315.073Y-72.686
X315.073Y-75.226
X315.073Y-77.766
X315.073Y-80.306
X315.073Y-82.846
X322.693Y-59.986
X322.693Y-62.526
X322.693Y-65.066
X322.693Y-67.606
X322.693Y-70.146
X322.693Y-72.686
X322.693Y-75.226
X322.693Y-77.766
X322.693Y-80.306
X322.693Y-82.846
X335.683Y-59.924
X335.683Y-62.464
X335.683Y-65.004
X335.683Y-67.544
X335.683Y-70.084
X335.683Y-72.624
X335.683Y-75.164
X335.683Y-77.704
X335.683Y-80.244
X335.683Y-82.784
X343.303Y-59.924
X343.303Y-62.464
X343.303Y-65.004
X343.303Y-67.544
X343.303Y-70.084
X343.303Y-72.624
X343.303Y-75.164
X343.303Y-77.704
X343.303Y-80.244
X343.303Y-82.784
X355.933Y-59.924
X355.933Y-62.464
X355.933Y-65.004
X355.933Y-67.544
X355.933Y-70.084
X355.933Y-72.624
X355.933Y-75.164
X355.933Y-77.704
X355.933Y-80.244
X355.933Y-82.784
X363.553Y-59.924
X363.553Y-62.464
X363.553Y-65.004
X363.553Y-67.544
X363.553Y-70.084
X363.553Y-72.624
X363.553Y-75.164
X363.553Y-77.704
X363.553Y-80.244
X363.553Y-82.784
X407.01Y-111.002
X407.01Y-118.622
X409.55Y-111.002
X409.55Y-118.622
X412.09Y-111.002
X412.09Y-118.622
X414.39Y-36.027
X414.39Y-38.567
X414.39Y-41.107
X414.39Y-43.647
X414.39Y-46.187
X414.39Y-48.727
X414.39Y-51.267
X414.63Y-111.002
X414.63Y-118.622
X417.17Y-111.002
X417.17Y-118.622
X419.71Y-111.002
X419.71Y-118.622
X422.01Y-36.027
X422.01Y-38.567
X422.01Y-41.107
X422.01Y-43.647
X422.01Y-46.187
X422.01Y-48.727
X422.01Y-51.267
X422.25Y-111.002
X422.25Y-118.622
X424.79Y-111.002
X424.79Y-118.622
X427.33Y-111.002
X427.33Y-118.622
X428.075Y-34.852
X428.075Y-42.472
X429.87Y-111.002
X429.87Y-118.622
X430.615Y-34.852
X430.615Y-42.472
X433.155Y-34.852
X433.155Y-42.472
X435.695Y-34.852
X435.695Y-42.472
X436.175Y-110.972
X436.175Y-118.592
X438.235Y-34.852
X438.235Y-42.472
X438.715Y-110.972
X438.715Y-118.592
X440.775Y-34.852
X440.775Y-42.472
X441.255Y-110.972
X441.255Y-118.592
X441.89Y-57.752
X441.89Y-60.292
X441.89Y-62.832
X441.89Y-65.372
X441.89Y-67.912
X441.89Y-70.452
X441.89Y-72.992
X441.89Y-75.532
X443.315Y-34.852
X443.315Y-42.472
X443.795Y-110.972
X443.795Y-118.592
X446.335Y-110.972
X446.335Y-118.592
X448.875Y-110.972
X448.875Y-118.592
X449.51Y-57.752
X449.51Y-60.292
X449.51Y-62.832
X449.51Y-65.372
X449.51Y-67.912
X449.51Y-70.452
X449.51Y-72.992
X449.51Y-75.532
X449.575Y-34.852
X449.575Y-42.472
X451.415Y-110.972
X451.415Y-118.592
X452.115Y-34.852
X452.115Y-42.472
X453.955Y-110.972
X453.955Y-118.592
X454.655Y-34.852
X454.655Y-42.472
X454.89Y-57.752
X454.89Y-60.292
X454.89Y-62.832
X454.89Y-65.372
X454.89Y-67.912
X454.89Y-70.452
X454.89Y-72.992
X454.89Y-75.532
X456.495Y-110.972
X456.495Y-118.592
X457.195Y-34.852
X457.195Y-42.472
X459.035Y-110.972
X459.035Y-118.592
X459.735Y-34.852
X459.735Y-42.472
X462.275Y-34.852
X462.275Y-42.472
X462.51Y-57.752
X462.51Y-60.292
X462.51Y-62.832
X462.51Y-65.372
X462.51Y-67.912
X462.51Y-70.452
X462.51Y-72.992
X462.51Y-75.532
X464.815Y-34.852
X464.815Y-42.472
X467.89Y-57.752
X467.89Y-60.292
X467.89Y-62.832
X467.89Y-65.372
X467.89Y-67.912
X467.89Y-70.452
X467.89Y-72.992
X467.89Y-75.532
X471.31Y-34.852
X471.31Y-42.472
X473.85Y-34.852
X473.85Y-42.472
X475.51Y-57.752
X475.51Y-60.292
X475.51Y-62.832
X475.51Y-65.372
X475.51Y-67.912
X475.51Y-70.452
X475.51Y-72.992
X475.51Y-75.532
X476.39Y-34.852
X476.39Y-42.472
X478.93Y-34.852
X478.93Y-42.472
X480.69Y-57.652
X480.69Y-60.192
X480.69Y-62.732
X480.69Y-65.272
X480.69Y-67.812
X480.69Y-70.352
X480.69Y-72.892
X480.69Y-75.432
X481.47Y-34.852
X481.47Y-42.472
X484.01Y-34.852
X484.01Y-42.472
X486.55Y-34.852
X486.55Y-42.472
X488.31Y-57.652
X488.31Y-60.192
X488.31Y-62.732
X488.31Y-65.272
X488.31Y-67.812
X488.31Y-70.352
X488.31Y-72.892
X488.31Y-75.432
X489.09Y-34.852
X489.09Y-42.472
X489.75Y-98.152
X489.75Y-102.152
X494.83Y-98.152
X494.83Y-102.152
X495.88Y-67.81
X495.88Y-75.43
X496.07Y-55.33
X496.07Y-62.95
X498.42Y-67.81
X498.42Y-75.43
X498.61Y-55.33
X498.61Y-62.95
X500.905Y-36.43
X500.96Y-67.81
X500.96Y-75.43
X501.125Y-42.33
X501.125Y-49.95
X501.15Y-55.33
X501.15Y-62.95
X503.5Y-67.81
X503.5Y-75.43
X503.665Y-42.33
X503.665Y-49.95
X503.69Y-55.33
X503.69Y-62.95
X505.985Y-36.43
X506.04Y-67.81
X506.04Y-75.43
X506.205Y-42.33
X506.205Y-49.95
X506.23Y-55.33
X506.23Y-62.95
X508.58Y-67.81
X508.58Y-75.43
X508.745Y-42.33
X508.745Y-49.95
X508.77Y-55.33
X508.77Y-62.95
X511.12Y-67.81
X511.12Y-75.43
X511.285Y-42.33
X511.285Y-49.95
X511.31Y-55.33
X511.31Y-62.95
X513.825Y-42.33
X513.825Y-49.95
X513.85Y-55.33
X513.85Y-62.95
X516.365Y-42.33
X516.365Y-49.95
X516.39Y-55.33
X516.39Y-62.95
X517.88Y-67.81
X517.88Y-75.43
X518.905Y-42.33
X518.905Y-49.95
X518.93Y-55.33
X518.93Y-62.95
X520.42Y-67.81
X520.42Y-75.43
X522.96Y-67.81
X522.96Y-75.43
X525.5Y-67.81
X525.5Y-75.43
X528.04Y-67.81
X528.04Y-75.43
X530.58Y-67.81
X530.58Y-75.43
X533.12Y-67.81
X533.12Y-75.43
T4
X494.58Y-37.43
X497.12Y-37.43
T5
X31.821Y-41.283
X31.821Y-43.823
X31.821Y-46.363
X31.821Y-48.903
X31.821Y-51.443
X31.821Y-53.983
X31.821Y-56.523
X31.821Y-59.063
X31.821Y-61.603
X31.821Y-64.143
X31.821Y-66.683
X31.821Y-69.223
X31.821Y-71.763
X31.821Y-74.303
X31.821Y-76.843
X31.821Y-79.383
X31.821Y-81.923
X31.821Y-84.463
X31.821Y-87.003
X31.821Y-89.543
X31.821Y-92.083
X31.821Y-94.623
X31.821Y-97.163
X31.821Y-99.703
X31.821Y-102.243
X31.821Y-104.783
X31.821Y-107.323
X31.821Y-109.863
X31.821Y-112.403
X31.821Y-114.943
X31.821Y-117.483
X31.821Y-120.023
X31.821Y-122.563
X31.821Y-125.103
X31.821Y-127.643
X31.821Y-130.183
X31.821Y-132.723
X31.821Y-135.263
X31.821Y-137.803
X31.821Y-140.343
X31.821Y-142.883
X31.821Y-145.423
X31.821Y-147.963
X31.821Y-150.503
X31.821Y-153.043
X31.821Y-155.583
X31.821Y-158.123
X31.821Y-160.663
X31.821Y-163.203
X31.821Y-165.743
X31.821Y-168.283
X31.821Y-170.823
X31.821Y-173.363
X31.821Y-175.903
X31.821Y-178.443
X31.821Y-180.983
X31.821Y-183.523
X31.821Y-186.063
X31.821Y-188.603
X31.821Y-191.143
X31.821Y-193.683
X31.821Y-196.223
X31.821Y-198.763
X31.821Y-201.303
X31.821Y-203.843
X31.821Y-206.383
X31.821Y-208.923
X31.821Y-211.463
X31.821Y-214.003
X31.821Y-216.543
X31.821Y-219.083
X31.821Y-221.623
X31.821Y-224.163
X31.821Y-226.703
X31.821Y-229.243
X31.821Y-231.783
X31.821Y-234.323
X31.821Y-236.863
X35.821Y-41.283
X36.296Y-202.383
X37.079Y-44.347
X37.079Y-46.887
X37.079Y-49.427
X37.079Y-51.967
X37.079Y-54.507
X37.079Y-57.047
X37.079Y-59.587
X37.079Y-62.127
X37.079Y-64.667
X37.079Y-67.207
X37.079Y-69.747
X37.079Y-72.287
X37.079Y-74.827
X37.079Y-77.367
X37.079Y-79.907
X37.079Y-82.447
X38.361Y-41.283
X38.836Y-202.383
X40.901Y-41.283
X41.376Y-202.383
X43.441Y-41.283
X45.981Y-41.283
X46.086Y-202.59
X48.521Y-41.283
X48.626Y-202.59
X51.061Y-41.283
X51.166Y-202.59
X53.601Y-41.283
X56.141Y-41.283
X58.681Y-41.283
X61.221Y-41.283
X63.761Y-41.283
X66.9Y-59.028
X66.9Y-61.568
X66.9Y-64.108
X84.543Y-208.088
X87.083Y-208.088
X89.623Y-208.088
X92.163Y-208.088
X94.703Y-208.088
X97.243Y-208.088
X99.783Y-208.088
X102.323Y-208.088
X104.863Y-208.088
X107.403Y-208.088
X109.943Y-208.088
X112.483Y-208.088
X115.023Y-208.088
X117.563Y-208.088
X120.103Y-208.088
X122.643Y-208.088
X130.321Y-211.283
X196.681Y-208.885
X199.221Y-208.885
X201.761Y-208.885
X204.301Y-208.885
X206.841Y-208.885
X209.381Y-208.885
X211.921Y-208.885
X214.461Y-208.885
X217.001Y-208.885
X219.541Y-208.885
X222.081Y-208.885
X224.621Y-208.885
X227.161Y-208.885
X229.701Y-208.885
X232.241Y-208.885
X234.781Y-208.885
X327.501Y-211.036
X330.041Y-211.036
X332.581Y-211.036
X335.121Y-211.036
X337.661Y-211.036
X340.201Y-211.036
X342.741Y-211.036
X345.281Y-211.036
X347.821Y-211.036
X350.361Y-211.036
X352.901Y-211.036
X355.441Y-211.036
X357.981Y-211.036
X360.521Y-211.036
X363.061Y-211.036
X365.601Y-211.036
X371.503Y-173.01
X371.503Y-175.55
X371.503Y-178.09
X371.503Y-180.63
X371.503Y-183.17
X371.503Y-185.71
X371.503Y-188.25
X371.503Y-190.79
X371.503Y-193.33
X371.503Y-195.87
X371.503Y-198.41
X371.503Y-200.95
X371.503Y-203.49
X371.503Y-206.03
X371.503Y-208.57
X371.503Y-211.11
X374.003Y-116.869
X374.003Y-119.409
X374.003Y-121.949
X374.003Y-124.489
X374.003Y-127.029
X374.003Y-129.569
X374.003Y-132.109
X374.003Y-134.649
X374.003Y-137.189
X374.003Y-139.729
X374.003Y-142.269
X374.003Y-144.809
X374.003Y-147.349
X374.003Y-149.889
X374.003Y-152.429
X374.003Y-154.969
X402.19Y-97.712
X402.19Y-100.252
X402.19Y-102.792
X402.19Y-105.332
X402.19Y-107.872
X402.19Y-110.412
X402.19Y-112.952
X402.19Y-115.492
X402.19Y-118.032
X402.19Y-120.572
X402.19Y-123.112
X402.19Y-125.652
X402.39Y-66.027
X402.79Y-43.33
X404.93Y-66.027
X405.19Y-123.652
X405.33Y-43.33
X407.47Y-66.027
X407.73Y-123.652
X407.845Y-52.93
X407.87Y-43.33
X410.01Y-66.027
X410.27Y-123.652
X412.81Y-123.652
X415.35Y-123.652
X417.89Y-123.652
X420.19Y-91.152
X420.43Y-123.652
X422.73Y-91.152
X422.97Y-123.652
X425.27Y-91.152
X425.51Y-123.652
X427.81Y-91.152
X428.05Y-123.652
X430.35Y-91.152
X430.59Y-123.652
X432.89Y-91.152
X433.13Y-123.652
X435.43Y-91.152
X435.67Y-123.652
X437.97Y-91.152
X438.21Y-123.652
X440.51Y-91.152
X440.75Y-123.652
X443.05Y-91.152
X443.29Y-123.652
X445.59Y-91.152
X448.13Y-91.152
X450.67Y-91.152
X453.21Y-91.152
X455.75Y-91.152
X458.29Y-91.152
X460.83Y-91.152
X463.37Y-91.152
X465.91Y-91.152
X468.45Y-91.152
X470.99Y-91.152
X473.53Y-91.152
X476.07Y-91.152
X478.61Y-91.152
X481.15Y-91.152
X483.69Y-91.152
X486.23Y-91.152
X488.77Y-91.152
X491.31Y-91.152
X493.85Y-91.152
X496.39Y-91.152
X498.93Y-91.152
X501.47Y-91.152
X504.01Y-91.152
X506.55Y-91.152
X509.09Y-91.152
X511.63Y-91.152
X514.17Y-91.152
X516.71Y-91.152
X519.25Y-91.152
X521.79Y-91.152
X523.82Y-45.53
X524.33Y-91.152
X526.36Y-45.53
X528.9Y-45.53
T0
M30
