%TF.GenerationSoftware,KiCad,Pcbnew,6.0.2-378541a8eb~116~ubuntu21.10.1*%
%TF.CreationDate,2022-02-16T18:13:43+01:00*%
%TF.ProjectId,register_file_kicad,72656769-7374-4657-925f-66696c655f6b,Rev v0.4*%
%TF.SameCoordinates,Original*%
%TF.FileFunction,Legend,Top*%
%TF.FilePolarity,Positive*%
%FSLAX46Y46*%
G04 Gerber Fmt 4.6, Leading zero omitted, Abs format (unit mm)*
G04 Created by KiCad (PCBNEW 6.0.2-378541a8eb~116~ubuntu21.10.1) date 2022-02-16 18:13:43*
%MOMM*%
%LPD*%
G01*
G04 APERTURE LIST*
%ADD10C,0.500000*%
%ADD11C,0.300000*%
%ADD12C,0.200000*%
%ADD13C,0.150000*%
%ADD14C,0.120000*%
G04 APERTURE END LIST*
D10*
X483607857Y-115176904D02*
X483607857Y-110176904D01*
X485274523Y-113748333D01*
X486941190Y-110176904D01*
X486941190Y-115176904D01*
X491226904Y-114938809D02*
X490750714Y-115176904D01*
X489798333Y-115176904D01*
X489322142Y-114938809D01*
X489084047Y-114462619D01*
X489084047Y-112557857D01*
X489322142Y-112081666D01*
X489798333Y-111843571D01*
X490750714Y-111843571D01*
X491226904Y-112081666D01*
X491465000Y-112557857D01*
X491465000Y-113034047D01*
X489084047Y-113510238D01*
X493607857Y-115176904D02*
X493607857Y-111843571D01*
X493607857Y-112319761D02*
X493845952Y-112081666D01*
X494322142Y-111843571D01*
X495036428Y-111843571D01*
X495512619Y-112081666D01*
X495750714Y-112557857D01*
X495750714Y-115176904D01*
X495750714Y-112557857D02*
X495988809Y-112081666D01*
X496465000Y-111843571D01*
X497179285Y-111843571D01*
X497655476Y-112081666D01*
X497893571Y-112557857D01*
X497893571Y-115176904D01*
X500988809Y-115176904D02*
X500512619Y-114938809D01*
X500274523Y-114700714D01*
X500036428Y-114224523D01*
X500036428Y-112795952D01*
X500274523Y-112319761D01*
X500512619Y-112081666D01*
X500988809Y-111843571D01*
X501703095Y-111843571D01*
X502179285Y-112081666D01*
X502417380Y-112319761D01*
X502655476Y-112795952D01*
X502655476Y-114224523D01*
X502417380Y-114700714D01*
X502179285Y-114938809D01*
X501703095Y-115176904D01*
X500988809Y-115176904D01*
X504798333Y-115176904D02*
X504798333Y-111843571D01*
X504798333Y-112795952D02*
X505036428Y-112319761D01*
X505274523Y-112081666D01*
X505750714Y-111843571D01*
X506226904Y-111843571D01*
X507417380Y-111843571D02*
X508607857Y-115176904D01*
X509798333Y-111843571D02*
X508607857Y-115176904D01*
X508131666Y-116367380D01*
X507893571Y-116605476D01*
X507417380Y-116843571D01*
X478607857Y-122988809D02*
X479084047Y-123226904D01*
X480036428Y-123226904D01*
X480512619Y-122988809D01*
X480750714Y-122512619D01*
X480750714Y-122274523D01*
X480512619Y-121798333D01*
X480036428Y-121560238D01*
X479322142Y-121560238D01*
X478845952Y-121322142D01*
X478607857Y-120845952D01*
X478607857Y-120607857D01*
X478845952Y-120131666D01*
X479322142Y-119893571D01*
X480036428Y-119893571D01*
X480512619Y-120131666D01*
X484798333Y-122988809D02*
X484322142Y-123226904D01*
X483369761Y-123226904D01*
X482893571Y-122988809D01*
X482655476Y-122512619D01*
X482655476Y-120607857D01*
X482893571Y-120131666D01*
X483369761Y-119893571D01*
X484322142Y-119893571D01*
X484798333Y-120131666D01*
X485036428Y-120607857D01*
X485036428Y-121084047D01*
X482655476Y-121560238D01*
X489322142Y-122988809D02*
X488845952Y-123226904D01*
X487893571Y-123226904D01*
X487417380Y-122988809D01*
X487179285Y-122750714D01*
X486941190Y-122274523D01*
X486941190Y-120845952D01*
X487179285Y-120369761D01*
X487417380Y-120131666D01*
X487893571Y-119893571D01*
X488845952Y-119893571D01*
X489322142Y-120131666D01*
X492179285Y-123226904D02*
X491703095Y-122988809D01*
X491465000Y-122750714D01*
X491226904Y-122274523D01*
X491226904Y-120845952D01*
X491465000Y-120369761D01*
X491703095Y-120131666D01*
X492179285Y-119893571D01*
X492893571Y-119893571D01*
X493369761Y-120131666D01*
X493607857Y-120369761D01*
X493845952Y-120845952D01*
X493845952Y-122274523D01*
X493607857Y-122750714D01*
X493369761Y-122988809D01*
X492893571Y-123226904D01*
X492179285Y-123226904D01*
X495988809Y-119893571D02*
X495988809Y-123226904D01*
X495988809Y-120369761D02*
X496226904Y-120131666D01*
X496703095Y-119893571D01*
X497417380Y-119893571D01*
X497893571Y-120131666D01*
X498131666Y-120607857D01*
X498131666Y-123226904D01*
X502655476Y-123226904D02*
X502655476Y-118226904D01*
X502655476Y-122988809D02*
X502179285Y-123226904D01*
X501226904Y-123226904D01*
X500750714Y-122988809D01*
X500512619Y-122750714D01*
X500274523Y-122274523D01*
X500274523Y-120845952D01*
X500512619Y-120369761D01*
X500750714Y-120131666D01*
X501226904Y-119893571D01*
X502179285Y-119893571D01*
X502655476Y-120131666D01*
X507179285Y-123226904D02*
X507179285Y-120607857D01*
X506941190Y-120131666D01*
X506465000Y-119893571D01*
X505512619Y-119893571D01*
X505036428Y-120131666D01*
X507179285Y-122988809D02*
X506703095Y-123226904D01*
X505512619Y-123226904D01*
X505036428Y-122988809D01*
X504798333Y-122512619D01*
X504798333Y-122036428D01*
X505036428Y-121560238D01*
X505512619Y-121322142D01*
X506703095Y-121322142D01*
X507179285Y-121084047D01*
X509560238Y-123226904D02*
X509560238Y-119893571D01*
X509560238Y-120845952D02*
X509798333Y-120369761D01*
X510036428Y-120131666D01*
X510512619Y-119893571D01*
X510988809Y-119893571D01*
X512179285Y-119893571D02*
X513369761Y-123226904D01*
X514560238Y-119893571D02*
X513369761Y-123226904D01*
X512893571Y-124417380D01*
X512655476Y-124655476D01*
X512179285Y-124893571D01*
X276483857Y-201379904D02*
X276483857Y-196379904D01*
X278150523Y-199951333D01*
X279817190Y-196379904D01*
X279817190Y-201379904D01*
X284102904Y-201141809D02*
X283626714Y-201379904D01*
X282674333Y-201379904D01*
X282198142Y-201141809D01*
X281960047Y-200665619D01*
X281960047Y-198760857D01*
X282198142Y-198284666D01*
X282674333Y-198046571D01*
X283626714Y-198046571D01*
X284102904Y-198284666D01*
X284341000Y-198760857D01*
X284341000Y-199237047D01*
X281960047Y-199713238D01*
X286483857Y-201379904D02*
X286483857Y-198046571D01*
X286483857Y-198522761D02*
X286721952Y-198284666D01*
X287198142Y-198046571D01*
X287912428Y-198046571D01*
X288388619Y-198284666D01*
X288626714Y-198760857D01*
X288626714Y-201379904D01*
X288626714Y-198760857D02*
X288864809Y-198284666D01*
X289341000Y-198046571D01*
X290055285Y-198046571D01*
X290531476Y-198284666D01*
X290769571Y-198760857D01*
X290769571Y-201379904D01*
X293864809Y-201379904D02*
X293388619Y-201141809D01*
X293150523Y-200903714D01*
X292912428Y-200427523D01*
X292912428Y-198998952D01*
X293150523Y-198522761D01*
X293388619Y-198284666D01*
X293864809Y-198046571D01*
X294579095Y-198046571D01*
X295055285Y-198284666D01*
X295293380Y-198522761D01*
X295531476Y-198998952D01*
X295531476Y-200427523D01*
X295293380Y-200903714D01*
X295055285Y-201141809D01*
X294579095Y-201379904D01*
X293864809Y-201379904D01*
X297674333Y-201379904D02*
X297674333Y-198046571D01*
X297674333Y-198998952D02*
X297912428Y-198522761D01*
X298150523Y-198284666D01*
X298626714Y-198046571D01*
X299102904Y-198046571D01*
X300293380Y-198046571D02*
X301483857Y-201379904D01*
X302674333Y-198046571D02*
X301483857Y-201379904D01*
X301007666Y-202570380D01*
X300769571Y-202808476D01*
X300293380Y-203046571D01*
X276483857Y-206096571D02*
X276483857Y-211096571D01*
X276483857Y-206334666D02*
X276960047Y-206096571D01*
X277912428Y-206096571D01*
X278388619Y-206334666D01*
X278626714Y-206572761D01*
X278864809Y-207048952D01*
X278864809Y-208477523D01*
X278626714Y-208953714D01*
X278388619Y-209191809D01*
X277912428Y-209429904D01*
X276960047Y-209429904D01*
X276483857Y-209191809D01*
X281007666Y-209429904D02*
X281007666Y-206096571D01*
X281007666Y-207048952D02*
X281245761Y-206572761D01*
X281483857Y-206334666D01*
X281960047Y-206096571D01*
X282436238Y-206096571D01*
X284102904Y-209429904D02*
X284102904Y-206096571D01*
X284102904Y-204429904D02*
X283864809Y-204668000D01*
X284102904Y-204906095D01*
X284341000Y-204668000D01*
X284102904Y-204429904D01*
X284102904Y-204906095D01*
X286483857Y-209429904D02*
X286483857Y-206096571D01*
X286483857Y-206572761D02*
X286721952Y-206334666D01*
X287198142Y-206096571D01*
X287912428Y-206096571D01*
X288388619Y-206334666D01*
X288626714Y-206810857D01*
X288626714Y-209429904D01*
X288626714Y-206810857D02*
X288864809Y-206334666D01*
X289341000Y-206096571D01*
X290055285Y-206096571D01*
X290531476Y-206334666D01*
X290769571Y-206810857D01*
X290769571Y-209429904D01*
X295293380Y-209429904D02*
X295293380Y-206810857D01*
X295055285Y-206334666D01*
X294579095Y-206096571D01*
X293626714Y-206096571D01*
X293150523Y-206334666D01*
X295293380Y-209191809D02*
X294817190Y-209429904D01*
X293626714Y-209429904D01*
X293150523Y-209191809D01*
X292912428Y-208715619D01*
X292912428Y-208239428D01*
X293150523Y-207763238D01*
X293626714Y-207525142D01*
X294817190Y-207525142D01*
X295293380Y-207287047D01*
X297674333Y-209429904D02*
X297674333Y-206096571D01*
X297674333Y-207048952D02*
X297912428Y-206572761D01*
X298150523Y-206334666D01*
X298626714Y-206096571D01*
X299102904Y-206096571D01*
X300293380Y-206096571D02*
X301483857Y-209429904D01*
X302674333Y-206096571D02*
X301483857Y-209429904D01*
X301007666Y-210620380D01*
X300769571Y-210858476D01*
X300293380Y-211096571D01*
D11*
X460690785Y-28878571D02*
X459833642Y-28878571D01*
X460262214Y-28878571D02*
X460262214Y-27378571D01*
X460119357Y-27592857D01*
X459976500Y-27735714D01*
X459833642Y-27807142D01*
X461190785Y-27378571D02*
X462119357Y-27378571D01*
X461619357Y-27950000D01*
X461833642Y-27950000D01*
X461976500Y-28021428D01*
X462047928Y-28092857D01*
X462119357Y-28235714D01*
X462119357Y-28592857D01*
X462047928Y-28735714D01*
X461976500Y-28807142D01*
X461833642Y-28878571D01*
X461405071Y-28878571D01*
X461262214Y-28807142D01*
X461190785Y-28735714D01*
X463476500Y-27378571D02*
X462762214Y-27378571D01*
X462690785Y-28092857D01*
X462762214Y-28021428D01*
X462905071Y-27950000D01*
X463262214Y-27950000D01*
X463405071Y-28021428D01*
X463476500Y-28092857D01*
X463547928Y-28235714D01*
X463547928Y-28592857D01*
X463476500Y-28735714D01*
X463405071Y-28807142D01*
X463262214Y-28878571D01*
X462905071Y-28878571D01*
X462762214Y-28807142D01*
X462690785Y-28735714D01*
X464262214Y-28807142D02*
X464262214Y-28878571D01*
X464190785Y-29021428D01*
X464119357Y-29092857D01*
X464833642Y-27521428D02*
X464905071Y-27450000D01*
X465047928Y-27378571D01*
X465405071Y-27378571D01*
X465547928Y-27450000D01*
X465619357Y-27521428D01*
X465690785Y-27664285D01*
X465690785Y-27807142D01*
X465619357Y-28021428D01*
X464762214Y-28878571D01*
X465690785Y-28878571D01*
X466976500Y-27378571D02*
X466690785Y-27378571D01*
X466547928Y-27450000D01*
X466476500Y-27521428D01*
X466333642Y-27735714D01*
X466262214Y-28021428D01*
X466262214Y-28592857D01*
X466333642Y-28735714D01*
X466405071Y-28807142D01*
X466547928Y-28878571D01*
X466833642Y-28878571D01*
X466976500Y-28807142D01*
X467047928Y-28735714D01*
X467119357Y-28592857D01*
X467119357Y-28235714D01*
X467047928Y-28092857D01*
X466976500Y-28021428D01*
X466833642Y-27950000D01*
X466547928Y-27950000D01*
X466405071Y-28021428D01*
X466333642Y-28092857D01*
X466262214Y-28235714D01*
X467619357Y-27378571D02*
X468547928Y-27378571D01*
X468047928Y-27950000D01*
X468262214Y-27950000D01*
X468405071Y-28021428D01*
X468476500Y-28092857D01*
X468547928Y-28235714D01*
X468547928Y-28592857D01*
X468476500Y-28735714D01*
X468405071Y-28807142D01*
X468262214Y-28878571D01*
X467833642Y-28878571D01*
X467690785Y-28807142D01*
X467619357Y-28735714D01*
X469476500Y-27378571D02*
X469619357Y-27378571D01*
X469762214Y-27450000D01*
X469833642Y-27521428D01*
X469905071Y-27664285D01*
X469976500Y-27950000D01*
X469976500Y-28307142D01*
X469905071Y-28592857D01*
X469833642Y-28735714D01*
X469762214Y-28807142D01*
X469619357Y-28878571D01*
X469476500Y-28878571D01*
X469333642Y-28807142D01*
X469262214Y-28735714D01*
X469190785Y-28592857D01*
X469119357Y-28307142D01*
X469119357Y-27950000D01*
X469190785Y-27664285D01*
X469262214Y-27521428D01*
X469333642Y-27450000D01*
X469476500Y-27378571D01*
X471762214Y-28878571D02*
X471762214Y-27878571D01*
X471762214Y-28021428D02*
X471833642Y-27950000D01*
X471976500Y-27878571D01*
X472190785Y-27878571D01*
X472333642Y-27950000D01*
X472405071Y-28092857D01*
X472405071Y-28878571D01*
X472405071Y-28092857D02*
X472476500Y-27950000D01*
X472619357Y-27878571D01*
X472833642Y-27878571D01*
X472976500Y-27950000D01*
X473047928Y-28092857D01*
X473047928Y-28878571D01*
X473762214Y-28878571D02*
X473762214Y-27878571D01*
X473762214Y-28021428D02*
X473833642Y-27950000D01*
X473976500Y-27878571D01*
X474190785Y-27878571D01*
X474333642Y-27950000D01*
X474405071Y-28092857D01*
X474405071Y-28878571D01*
X474405071Y-28092857D02*
X474476500Y-27950000D01*
X474619357Y-27878571D01*
X474833642Y-27878571D01*
X474976500Y-27950000D01*
X475047928Y-28092857D01*
X475047928Y-28878571D01*
D12*
X399845000Y-31930000D02*
X399845000Y-29413580D01*
X535108000Y-31930000D02*
X535108000Y-29413580D01*
X399845000Y-30000000D02*
X535108000Y-30000000D01*
X399845000Y-30000000D02*
X535108000Y-30000000D01*
X399845000Y-30000000D02*
X400971504Y-30586421D01*
X399845000Y-30000000D02*
X400971504Y-29413579D01*
X535108000Y-30000000D02*
X533981496Y-29413579D01*
X535108000Y-30000000D02*
X533981496Y-30586421D01*
D11*
X393878571Y-87190214D02*
X393878571Y-86904500D01*
X393807142Y-86761642D01*
X393735714Y-86690214D01*
X393521428Y-86547357D01*
X393235714Y-86475928D01*
X392664285Y-86475928D01*
X392521428Y-86547357D01*
X392450000Y-86618785D01*
X392378571Y-86761642D01*
X392378571Y-87047357D01*
X392450000Y-87190214D01*
X392521428Y-87261642D01*
X392664285Y-87333071D01*
X393021428Y-87333071D01*
X393164285Y-87261642D01*
X393235714Y-87190214D01*
X393307142Y-87047357D01*
X393307142Y-86761642D01*
X393235714Y-86618785D01*
X393164285Y-86547357D01*
X393021428Y-86475928D01*
X392378571Y-85118785D02*
X392378571Y-85833071D01*
X393092857Y-85904500D01*
X393021428Y-85833071D01*
X392950000Y-85690214D01*
X392950000Y-85333071D01*
X393021428Y-85190214D01*
X393092857Y-85118785D01*
X393235714Y-85047357D01*
X393592857Y-85047357D01*
X393735714Y-85118785D01*
X393807142Y-85190214D01*
X393878571Y-85333071D01*
X393878571Y-85690214D01*
X393807142Y-85833071D01*
X393735714Y-85904500D01*
X393807142Y-84333071D02*
X393878571Y-84333071D01*
X394021428Y-84404500D01*
X394092857Y-84475928D01*
X393878571Y-83618785D02*
X393878571Y-83333071D01*
X393807142Y-83190214D01*
X393735714Y-83118785D01*
X393521428Y-82975928D01*
X393235714Y-82904500D01*
X392664285Y-82904500D01*
X392521428Y-82975928D01*
X392450000Y-83047357D01*
X392378571Y-83190214D01*
X392378571Y-83475928D01*
X392450000Y-83618785D01*
X392521428Y-83690214D01*
X392664285Y-83761642D01*
X393021428Y-83761642D01*
X393164285Y-83690214D01*
X393235714Y-83618785D01*
X393307142Y-83475928D01*
X393307142Y-83190214D01*
X393235714Y-83047357D01*
X393164285Y-82975928D01*
X393021428Y-82904500D01*
X392878571Y-81618785D02*
X393878571Y-81618785D01*
X392307142Y-81975928D02*
X393378571Y-82333071D01*
X393378571Y-81404500D01*
X393878571Y-80761642D02*
X393878571Y-80475928D01*
X393807142Y-80333071D01*
X393735714Y-80261642D01*
X393521428Y-80118785D01*
X393235714Y-80047357D01*
X392664285Y-80047357D01*
X392521428Y-80118785D01*
X392450000Y-80190214D01*
X392378571Y-80333071D01*
X392378571Y-80618785D01*
X392450000Y-80761642D01*
X392521428Y-80833071D01*
X392664285Y-80904500D01*
X393021428Y-80904500D01*
X393164285Y-80833071D01*
X393235714Y-80761642D01*
X393307142Y-80618785D01*
X393307142Y-80333071D01*
X393235714Y-80190214D01*
X393164285Y-80118785D01*
X393021428Y-80047357D01*
X392378571Y-79118785D02*
X392378571Y-78975928D01*
X392450000Y-78833071D01*
X392521428Y-78761642D01*
X392664285Y-78690214D01*
X392950000Y-78618785D01*
X393307142Y-78618785D01*
X393592857Y-78690214D01*
X393735714Y-78761642D01*
X393807142Y-78833071D01*
X393878571Y-78975928D01*
X393878571Y-79118785D01*
X393807142Y-79261642D01*
X393735714Y-79333071D01*
X393592857Y-79404500D01*
X393307142Y-79475928D01*
X392950000Y-79475928D01*
X392664285Y-79404500D01*
X392521428Y-79333071D01*
X392450000Y-79261642D01*
X392378571Y-79118785D01*
X393878571Y-76833071D02*
X392878571Y-76833071D01*
X393021428Y-76833071D02*
X392950000Y-76761642D01*
X392878571Y-76618785D01*
X392878571Y-76404500D01*
X392950000Y-76261642D01*
X393092857Y-76190214D01*
X393878571Y-76190214D01*
X393092857Y-76190214D02*
X392950000Y-76118785D01*
X392878571Y-75975928D01*
X392878571Y-75761642D01*
X392950000Y-75618785D01*
X393092857Y-75547357D01*
X393878571Y-75547357D01*
X393878571Y-74833071D02*
X392878571Y-74833071D01*
X393021428Y-74833071D02*
X392950000Y-74761642D01*
X392878571Y-74618785D01*
X392878571Y-74404500D01*
X392950000Y-74261642D01*
X393092857Y-74190214D01*
X393878571Y-74190214D01*
X393092857Y-74190214D02*
X392950000Y-74118785D01*
X392878571Y-73975928D01*
X392878571Y-73761642D01*
X392950000Y-73618785D01*
X393092857Y-73547357D01*
X393878571Y-73547357D01*
D12*
X399345000Y-32430000D02*
X394413580Y-32430000D01*
X399345000Y-128379000D02*
X394413580Y-128379000D01*
X395000000Y-32430000D02*
X395000000Y-128379000D01*
X395000000Y-32430000D02*
X395000000Y-128379000D01*
X395000000Y-32430000D02*
X394413579Y-33556504D01*
X395000000Y-32430000D02*
X395586421Y-33556504D01*
X395000000Y-128379000D02*
X395586421Y-127252496D01*
X395000000Y-128379000D02*
X394413579Y-127252496D01*
D13*
%TO.C,U45*%
X236711111Y-84501732D02*
X236711111Y-85311256D01*
X236758730Y-85406494D01*
X236806349Y-85454113D01*
X236901587Y-85501732D01*
X237092064Y-85501732D01*
X237187302Y-85454113D01*
X237234921Y-85406494D01*
X237282540Y-85311256D01*
X237282540Y-84501732D01*
X238187302Y-84835066D02*
X238187302Y-85501732D01*
X237949207Y-84454113D02*
X237711111Y-85168399D01*
X238330159Y-85168399D01*
X239187302Y-84501732D02*
X238711111Y-84501732D01*
X238663492Y-84977923D01*
X238711111Y-84930304D01*
X238806349Y-84882685D01*
X239044445Y-84882685D01*
X239139683Y-84930304D01*
X239187302Y-84977923D01*
X239234921Y-85073161D01*
X239234921Y-85311256D01*
X239187302Y-85406494D01*
X239139683Y-85454113D01*
X239044445Y-85501732D01*
X238806349Y-85501732D01*
X238711111Y-85454113D01*
X238663492Y-85406494D01*
%TO.C,J8*%
X70951666Y-56210380D02*
X70951666Y-56924666D01*
X70904047Y-57067523D01*
X70808809Y-57162761D01*
X70665952Y-57210380D01*
X70570714Y-57210380D01*
X71570714Y-56638952D02*
X71475476Y-56591333D01*
X71427857Y-56543714D01*
X71380238Y-56448476D01*
X71380238Y-56400857D01*
X71427857Y-56305619D01*
X71475476Y-56258000D01*
X71570714Y-56210380D01*
X71761190Y-56210380D01*
X71856428Y-56258000D01*
X71904047Y-56305619D01*
X71951666Y-56400857D01*
X71951666Y-56448476D01*
X71904047Y-56543714D01*
X71856428Y-56591333D01*
X71761190Y-56638952D01*
X71570714Y-56638952D01*
X71475476Y-56686571D01*
X71427857Y-56734190D01*
X71380238Y-56829428D01*
X71380238Y-57019904D01*
X71427857Y-57115142D01*
X71475476Y-57162761D01*
X71570714Y-57210380D01*
X71761190Y-57210380D01*
X71856428Y-57162761D01*
X71904047Y-57115142D01*
X71951666Y-57019904D01*
X71951666Y-56829428D01*
X71904047Y-56734190D01*
X71856428Y-56686571D01*
X71761190Y-56638952D01*
%TO.C,J18*%
X32978380Y-207572523D02*
X33692666Y-207572523D01*
X33835523Y-207620142D01*
X33930761Y-207715380D01*
X33978380Y-207858238D01*
X33978380Y-207953476D01*
X33978380Y-206572523D02*
X33978380Y-207143952D01*
X33978380Y-206858238D02*
X32978380Y-206858238D01*
X33121238Y-206953476D01*
X33216476Y-207048714D01*
X33264095Y-207143952D01*
X33406952Y-206001095D02*
X33359333Y-206096333D01*
X33311714Y-206143952D01*
X33216476Y-206191571D01*
X33168857Y-206191571D01*
X33073619Y-206143952D01*
X33026000Y-206096333D01*
X32978380Y-206001095D01*
X32978380Y-205810619D01*
X33026000Y-205715380D01*
X33073619Y-205667761D01*
X33168857Y-205620142D01*
X33216476Y-205620142D01*
X33311714Y-205667761D01*
X33359333Y-205715380D01*
X33406952Y-205810619D01*
X33406952Y-206001095D01*
X33454571Y-206096333D01*
X33502190Y-206143952D01*
X33597428Y-206191571D01*
X33787904Y-206191571D01*
X33883142Y-206143952D01*
X33930761Y-206096333D01*
X33978380Y-206001095D01*
X33978380Y-205810619D01*
X33930761Y-205715380D01*
X33883142Y-205667761D01*
X33787904Y-205620142D01*
X33597428Y-205620142D01*
X33502190Y-205667761D01*
X33454571Y-205715380D01*
X33406952Y-205810619D01*
%TO.C,U44*%
X212965111Y-145288542D02*
X212965111Y-146098066D01*
X213012730Y-146193304D01*
X213060349Y-146240923D01*
X213155587Y-146288542D01*
X213346064Y-146288542D01*
X213441302Y-146240923D01*
X213488921Y-146193304D01*
X213536540Y-146098066D01*
X213536540Y-145288542D01*
X214441302Y-145621876D02*
X214441302Y-146288542D01*
X214203207Y-145240923D02*
X213965111Y-145955209D01*
X214584159Y-145955209D01*
X215393683Y-145621876D02*
X215393683Y-146288542D01*
X215155587Y-145240923D02*
X214917492Y-145955209D01*
X215536540Y-145955209D01*
%TO.C,U2*%
X44731904Y-116560619D02*
X44731904Y-115751095D01*
X44684285Y-115655857D01*
X44636666Y-115608238D01*
X44541428Y-115560619D01*
X44350952Y-115560619D01*
X44255714Y-115608238D01*
X44208095Y-115655857D01*
X44160476Y-115751095D01*
X44160476Y-116560619D01*
X43731904Y-116465380D02*
X43684285Y-116513000D01*
X43589047Y-116560619D01*
X43350952Y-116560619D01*
X43255714Y-116513000D01*
X43208095Y-116465380D01*
X43160476Y-116370142D01*
X43160476Y-116274904D01*
X43208095Y-116132047D01*
X43779523Y-115560619D01*
X43160476Y-115560619D01*
X46350952Y-139941571D02*
X45589047Y-139941571D01*
X45970000Y-139560619D02*
X45970000Y-140322523D01*
X46350952Y-139941571D02*
X45589047Y-139941571D01*
X45970000Y-139560619D02*
X45970000Y-140322523D01*
X42350952Y-139941571D02*
X41589047Y-139941571D01*
%TO.C,J5*%
X405856177Y-68604391D02*
X405856177Y-69318677D01*
X405808558Y-69461534D01*
X405713320Y-69556772D01*
X405570463Y-69604391D01*
X405475225Y-69604391D01*
X406808558Y-68604391D02*
X406332368Y-68604391D01*
X406284749Y-69080582D01*
X406332368Y-69032963D01*
X406427606Y-68985344D01*
X406665701Y-68985344D01*
X406760939Y-69032963D01*
X406808558Y-69080582D01*
X406856177Y-69175820D01*
X406856177Y-69413915D01*
X406808558Y-69509153D01*
X406760939Y-69556772D01*
X406665701Y-69604391D01*
X406427606Y-69604391D01*
X406332368Y-69556772D01*
X406284749Y-69509153D01*
%TO.C,U12*%
X460816891Y-116020106D02*
X461626415Y-116020106D01*
X461721653Y-115972487D01*
X461769272Y-115924868D01*
X461816891Y-115829630D01*
X461816891Y-115639153D01*
X461769272Y-115543915D01*
X461721653Y-115496296D01*
X461626415Y-115448677D01*
X460816891Y-115448677D01*
X461816891Y-114448677D02*
X461816891Y-115020106D01*
X461816891Y-114734391D02*
X460816891Y-114734391D01*
X460959749Y-114829630D01*
X461054987Y-114924868D01*
X461102606Y-115020106D01*
X460912130Y-114067725D02*
X460864511Y-114020106D01*
X460816891Y-113924868D01*
X460816891Y-113686772D01*
X460864511Y-113591534D01*
X460912130Y-113543915D01*
X461007368Y-113496296D01*
X461102606Y-113496296D01*
X461245463Y-113543915D01*
X461816891Y-114115344D01*
X461816891Y-113496296D01*
%TO.C,U36*%
X175878111Y-84501732D02*
X175878111Y-85311256D01*
X175925730Y-85406494D01*
X175973349Y-85454113D01*
X176068587Y-85501732D01*
X176259064Y-85501732D01*
X176354302Y-85454113D01*
X176401921Y-85406494D01*
X176449540Y-85311256D01*
X176449540Y-84501732D01*
X176830492Y-84501732D02*
X177449540Y-84501732D01*
X177116207Y-84882685D01*
X177259064Y-84882685D01*
X177354302Y-84930304D01*
X177401921Y-84977923D01*
X177449540Y-85073161D01*
X177449540Y-85311256D01*
X177401921Y-85406494D01*
X177354302Y-85454113D01*
X177259064Y-85501732D01*
X176973349Y-85501732D01*
X176878111Y-85454113D01*
X176830492Y-85406494D01*
X178306683Y-84501732D02*
X178116207Y-84501732D01*
X178020968Y-84549352D01*
X177973349Y-84596971D01*
X177878111Y-84739828D01*
X177830492Y-84930304D01*
X177830492Y-85311256D01*
X177878111Y-85406494D01*
X177925730Y-85454113D01*
X178020968Y-85501732D01*
X178211445Y-85501732D01*
X178306683Y-85454113D01*
X178354302Y-85406494D01*
X178401921Y-85311256D01*
X178401921Y-85073161D01*
X178354302Y-84977923D01*
X178306683Y-84930304D01*
X178211445Y-84882685D01*
X178020968Y-84882685D01*
X177925730Y-84930304D01*
X177878111Y-84977923D01*
X177830492Y-85073161D01*
%TO.C,U62*%
X335046621Y-145288542D02*
X335046621Y-146098066D01*
X335094240Y-146193304D01*
X335141859Y-146240923D01*
X335237097Y-146288542D01*
X335427574Y-146288542D01*
X335522812Y-146240923D01*
X335570431Y-146193304D01*
X335618050Y-146098066D01*
X335618050Y-145288542D01*
X336522812Y-145288542D02*
X336332336Y-145288542D01*
X336237097Y-145336162D01*
X336189478Y-145383781D01*
X336094240Y-145526638D01*
X336046621Y-145717114D01*
X336046621Y-146098066D01*
X336094240Y-146193304D01*
X336141859Y-146240923D01*
X336237097Y-146288542D01*
X336427574Y-146288542D01*
X336522812Y-146240923D01*
X336570431Y-146193304D01*
X336618050Y-146098066D01*
X336618050Y-145859971D01*
X336570431Y-145764733D01*
X336522812Y-145717114D01*
X336427574Y-145669495D01*
X336237097Y-145669495D01*
X336141859Y-145717114D01*
X336094240Y-145764733D01*
X336046621Y-145859971D01*
X336999002Y-145383781D02*
X337046621Y-145336162D01*
X337141859Y-145288542D01*
X337379955Y-145288542D01*
X337475193Y-145336162D01*
X337522812Y-145383781D01*
X337570431Y-145479019D01*
X337570431Y-145574257D01*
X337522812Y-145717114D01*
X336951383Y-146288542D01*
X337570431Y-146288542D01*
%TO.C,J7*%
X52888380Y-207308822D02*
X53602666Y-207308822D01*
X53745523Y-207356441D01*
X53840761Y-207451679D01*
X53888380Y-207594536D01*
X53888380Y-207689774D01*
X52888380Y-206927869D02*
X52888380Y-206261203D01*
X53888380Y-206689774D01*
%TO.C,J13*%
X36269476Y-41029380D02*
X36269476Y-41743666D01*
X36221857Y-41886523D01*
X36126619Y-41981761D01*
X35983761Y-42029380D01*
X35888523Y-42029380D01*
X37269476Y-42029380D02*
X36698047Y-42029380D01*
X36983761Y-42029380D02*
X36983761Y-41029380D01*
X36888523Y-41172238D01*
X36793285Y-41267476D01*
X36698047Y-41315095D01*
X37602809Y-41029380D02*
X38221857Y-41029380D01*
X37888523Y-41410333D01*
X38031380Y-41410333D01*
X38126619Y-41457952D01*
X38174238Y-41505571D01*
X38221857Y-41600809D01*
X38221857Y-41838904D01*
X38174238Y-41934142D01*
X38126619Y-41981761D01*
X38031380Y-42029380D01*
X37745666Y-42029380D01*
X37650428Y-41981761D01*
X37602809Y-41934142D01*
%TO.C,U59*%
X314599621Y-145288542D02*
X314599621Y-146098066D01*
X314647240Y-146193304D01*
X314694859Y-146240923D01*
X314790097Y-146288542D01*
X314980574Y-146288542D01*
X315075812Y-146240923D01*
X315123431Y-146193304D01*
X315171050Y-146098066D01*
X315171050Y-145288542D01*
X316123431Y-145288542D02*
X315647240Y-145288542D01*
X315599621Y-145764733D01*
X315647240Y-145717114D01*
X315742478Y-145669495D01*
X315980574Y-145669495D01*
X316075812Y-145717114D01*
X316123431Y-145764733D01*
X316171050Y-145859971D01*
X316171050Y-146098066D01*
X316123431Y-146193304D01*
X316075812Y-146240923D01*
X315980574Y-146288542D01*
X315742478Y-146288542D01*
X315647240Y-146240923D01*
X315599621Y-146193304D01*
X316647240Y-146288542D02*
X316837717Y-146288542D01*
X316932955Y-146240923D01*
X316980574Y-146193304D01*
X317075812Y-146050447D01*
X317123431Y-145859971D01*
X317123431Y-145479019D01*
X317075812Y-145383781D01*
X317028193Y-145336162D01*
X316932955Y-145288542D01*
X316742478Y-145288542D01*
X316647240Y-145336162D01*
X316599621Y-145383781D01*
X316552002Y-145479019D01*
X316552002Y-145717114D01*
X316599621Y-145812352D01*
X316647240Y-145859971D01*
X316742478Y-145907590D01*
X316932955Y-145907590D01*
X317028193Y-145859971D01*
X317075812Y-145812352D01*
X317123431Y-145717114D01*
%TO.C,J11*%
X193863587Y-205309685D02*
X194577873Y-205309685D01*
X194720730Y-205357304D01*
X194815968Y-205452542D01*
X194863587Y-205595400D01*
X194863587Y-205690638D01*
X194863587Y-204309685D02*
X194863587Y-204881114D01*
X194863587Y-204595400D02*
X193863587Y-204595400D01*
X194006445Y-204690638D01*
X194101683Y-204785876D01*
X194149302Y-204881114D01*
X194863587Y-203357304D02*
X194863587Y-203928733D01*
X194863587Y-203643019D02*
X193863587Y-203643019D01*
X194006445Y-203738257D01*
X194101683Y-203833495D01*
X194149302Y-203928733D01*
%TO.C,U7*%
X431651891Y-115573915D02*
X432461415Y-115573915D01*
X432556653Y-115526296D01*
X432604272Y-115478677D01*
X432651891Y-115383439D01*
X432651891Y-115192963D01*
X432604272Y-115097725D01*
X432556653Y-115050106D01*
X432461415Y-115002487D01*
X431651891Y-115002487D01*
X431651891Y-114621534D02*
X431651891Y-113954868D01*
X432651891Y-114383439D01*
%TO.C,J4*%
X417371891Y-87100344D02*
X418086177Y-87100344D01*
X418229034Y-87147963D01*
X418324272Y-87243201D01*
X418371891Y-87386058D01*
X418371891Y-87481296D01*
X417705225Y-86195582D02*
X418371891Y-86195582D01*
X417324272Y-86433677D02*
X418038558Y-86671772D01*
X418038558Y-86052725D01*
%TO.C,J9*%
X81225587Y-208421750D02*
X81939873Y-208421750D01*
X82082730Y-208469369D01*
X82177968Y-208564607D01*
X82225587Y-208707464D01*
X82225587Y-208802702D01*
X82225587Y-207897940D02*
X82225587Y-207707464D01*
X82177968Y-207612226D01*
X82130349Y-207564607D01*
X81987492Y-207469369D01*
X81797016Y-207421750D01*
X81416064Y-207421750D01*
X81320826Y-207469369D01*
X81273207Y-207516988D01*
X81225587Y-207612226D01*
X81225587Y-207802702D01*
X81273207Y-207897940D01*
X81320826Y-207945559D01*
X81416064Y-207993178D01*
X81654159Y-207993178D01*
X81749397Y-207945559D01*
X81797016Y-207897940D01*
X81844635Y-207802702D01*
X81844635Y-207612226D01*
X81797016Y-207516988D01*
X81749397Y-207469369D01*
X81654159Y-207421750D01*
%TO.C,U68*%
X435112891Y-40148106D02*
X435922415Y-40148106D01*
X436017653Y-40100487D01*
X436065272Y-40052868D01*
X436112891Y-39957630D01*
X436112891Y-39767153D01*
X436065272Y-39671915D01*
X436017653Y-39624296D01*
X435922415Y-39576677D01*
X435112891Y-39576677D01*
X435112891Y-38671915D02*
X435112891Y-38862391D01*
X435160511Y-38957630D01*
X435208130Y-39005249D01*
X435350987Y-39100487D01*
X435541463Y-39148106D01*
X435922415Y-39148106D01*
X436017653Y-39100487D01*
X436065272Y-39052868D01*
X436112891Y-38957630D01*
X436112891Y-38767153D01*
X436065272Y-38671915D01*
X436017653Y-38624296D01*
X435922415Y-38576677D01*
X435684320Y-38576677D01*
X435589082Y-38624296D01*
X435541463Y-38671915D01*
X435493844Y-38767153D01*
X435493844Y-38957630D01*
X435541463Y-39052868D01*
X435589082Y-39100487D01*
X435684320Y-39148106D01*
X435541463Y-38005249D02*
X435493844Y-38100487D01*
X435446225Y-38148106D01*
X435350987Y-38195725D01*
X435303368Y-38195725D01*
X435208130Y-38148106D01*
X435160511Y-38100487D01*
X435112891Y-38005249D01*
X435112891Y-37814772D01*
X435160511Y-37719534D01*
X435208130Y-37671915D01*
X435303368Y-37624296D01*
X435350987Y-37624296D01*
X435446225Y-37671915D01*
X435493844Y-37719534D01*
X435541463Y-37814772D01*
X435541463Y-38005249D01*
X435589082Y-38100487D01*
X435636701Y-38148106D01*
X435731939Y-38195725D01*
X435922415Y-38195725D01*
X436017653Y-38148106D01*
X436065272Y-38100487D01*
X436112891Y-38005249D01*
X436112891Y-37814772D01*
X436065272Y-37719534D01*
X436017653Y-37671915D01*
X435922415Y-37624296D01*
X435731939Y-37624296D01*
X435636701Y-37671915D01*
X435589082Y-37719534D01*
X435541463Y-37814772D01*
%TO.C,J16*%
X404527380Y-53739523D02*
X405241666Y-53739523D01*
X405384523Y-53787142D01*
X405479761Y-53882380D01*
X405527380Y-54025238D01*
X405527380Y-54120476D01*
X405527380Y-52739523D02*
X405527380Y-53310952D01*
X405527380Y-53025238D02*
X404527380Y-53025238D01*
X404670238Y-53120476D01*
X404765476Y-53215714D01*
X404813095Y-53310952D01*
X404527380Y-51882380D02*
X404527380Y-52072857D01*
X404575000Y-52168095D01*
X404622619Y-52215714D01*
X404765476Y-52310952D01*
X404955952Y-52358571D01*
X405336904Y-52358571D01*
X405432142Y-52310952D01*
X405479761Y-52263333D01*
X405527380Y-52168095D01*
X405527380Y-51977619D01*
X405479761Y-51882380D01*
X405432142Y-51834761D01*
X405336904Y-51787142D01*
X405098809Y-51787142D01*
X405003571Y-51834761D01*
X404955952Y-51882380D01*
X404908333Y-51977619D01*
X404908333Y-52168095D01*
X404955952Y-52263333D01*
X405003571Y-52310952D01*
X405098809Y-52358571D01*
%TO.C,U29*%
X157228380Y-205031095D02*
X158037904Y-205031095D01*
X158133142Y-204983476D01*
X158180761Y-204935857D01*
X158228380Y-204840619D01*
X158228380Y-204650142D01*
X158180761Y-204554904D01*
X158133142Y-204507285D01*
X158037904Y-204459666D01*
X157228380Y-204459666D01*
X157323619Y-204031095D02*
X157276000Y-203983476D01*
X157228380Y-203888238D01*
X157228380Y-203650142D01*
X157276000Y-203554904D01*
X157323619Y-203507285D01*
X157418857Y-203459666D01*
X157514095Y-203459666D01*
X157656952Y-203507285D01*
X158228380Y-204078714D01*
X158228380Y-203459666D01*
X158228380Y-202983476D02*
X158228380Y-202793000D01*
X158180761Y-202697761D01*
X158133142Y-202650142D01*
X157990285Y-202554904D01*
X157799809Y-202507285D01*
X157418857Y-202507285D01*
X157323619Y-202554904D01*
X157276000Y-202602523D01*
X157228380Y-202697761D01*
X157228380Y-202888238D01*
X157276000Y-202983476D01*
X157323619Y-203031095D01*
X157418857Y-203078714D01*
X157656952Y-203078714D01*
X157752190Y-203031095D01*
X157799809Y-202983476D01*
X157847428Y-202888238D01*
X157847428Y-202697761D01*
X157799809Y-202602523D01*
X157752190Y-202554904D01*
X157656952Y-202507285D01*
%TO.C,U16*%
X53427380Y-206933584D02*
X54236904Y-206933584D01*
X54332142Y-206885965D01*
X54379761Y-206838346D01*
X54427380Y-206743108D01*
X54427380Y-206552631D01*
X54379761Y-206457393D01*
X54332142Y-206409774D01*
X54236904Y-206362155D01*
X53427380Y-206362155D01*
X54427380Y-205362155D02*
X54427380Y-205933584D01*
X54427380Y-205647869D02*
X53427380Y-205647869D01*
X53570238Y-205743108D01*
X53665476Y-205838346D01*
X53713095Y-205933584D01*
X53427380Y-204505012D02*
X53427380Y-204695489D01*
X53475000Y-204790727D01*
X53522619Y-204838346D01*
X53665476Y-204933584D01*
X53855952Y-204981203D01*
X54236904Y-204981203D01*
X54332142Y-204933584D01*
X54379761Y-204885965D01*
X54427380Y-204790727D01*
X54427380Y-204600250D01*
X54379761Y-204505012D01*
X54332142Y-204457393D01*
X54236904Y-204409774D01*
X53998809Y-204409774D01*
X53903571Y-204457393D01*
X53855952Y-204505012D01*
X53808333Y-204600250D01*
X53808333Y-204790727D01*
X53855952Y-204885965D01*
X53903571Y-204933584D01*
X53998809Y-204981203D01*
%TO.C,U1*%
X417437606Y-33149391D02*
X417437606Y-33958915D01*
X417485225Y-34054153D01*
X417532844Y-34101772D01*
X417628082Y-34149391D01*
X417818558Y-34149391D01*
X417913796Y-34101772D01*
X417961415Y-34054153D01*
X418009034Y-33958915D01*
X418009034Y-33149391D01*
X419009034Y-34149391D02*
X418437606Y-34149391D01*
X418723320Y-34149391D02*
X418723320Y-33149391D01*
X418628082Y-33292249D01*
X418532844Y-33387487D01*
X418437606Y-33435106D01*
%TO.C,U48*%
X256819111Y-84633732D02*
X256819111Y-85443256D01*
X256866730Y-85538494D01*
X256914349Y-85586113D01*
X257009587Y-85633732D01*
X257200064Y-85633732D01*
X257295302Y-85586113D01*
X257342921Y-85538494D01*
X257390540Y-85443256D01*
X257390540Y-84633732D01*
X258295302Y-84967066D02*
X258295302Y-85633732D01*
X258057207Y-84586113D02*
X257819111Y-85300399D01*
X258438159Y-85300399D01*
X258961968Y-85062304D02*
X258866730Y-85014685D01*
X258819111Y-84967066D01*
X258771492Y-84871828D01*
X258771492Y-84824209D01*
X258819111Y-84728971D01*
X258866730Y-84681352D01*
X258961968Y-84633732D01*
X259152445Y-84633732D01*
X259247683Y-84681352D01*
X259295302Y-84728971D01*
X259342921Y-84824209D01*
X259342921Y-84871828D01*
X259295302Y-84967066D01*
X259247683Y-85014685D01*
X259152445Y-85062304D01*
X258961968Y-85062304D01*
X258866730Y-85109923D01*
X258819111Y-85157542D01*
X258771492Y-85252780D01*
X258771492Y-85443256D01*
X258819111Y-85538494D01*
X258866730Y-85586113D01*
X258961968Y-85633732D01*
X259152445Y-85633732D01*
X259247683Y-85586113D01*
X259295302Y-85538494D01*
X259342921Y-85443256D01*
X259342921Y-85252780D01*
X259295302Y-85157542D01*
X259247683Y-85109923D01*
X259152445Y-85062304D01*
%TO.C,U39*%
X195690111Y-84501732D02*
X195690111Y-85311256D01*
X195737730Y-85406494D01*
X195785349Y-85454113D01*
X195880587Y-85501732D01*
X196071064Y-85501732D01*
X196166302Y-85454113D01*
X196213921Y-85406494D01*
X196261540Y-85311256D01*
X196261540Y-84501732D01*
X196642492Y-84501732D02*
X197261540Y-84501732D01*
X196928207Y-84882685D01*
X197071064Y-84882685D01*
X197166302Y-84930304D01*
X197213921Y-84977923D01*
X197261540Y-85073161D01*
X197261540Y-85311256D01*
X197213921Y-85406494D01*
X197166302Y-85454113D01*
X197071064Y-85501732D01*
X196785349Y-85501732D01*
X196690111Y-85454113D01*
X196642492Y-85406494D01*
X197737730Y-85501732D02*
X197928207Y-85501732D01*
X198023445Y-85454113D01*
X198071064Y-85406494D01*
X198166302Y-85263637D01*
X198213921Y-85073161D01*
X198213921Y-84692209D01*
X198166302Y-84596971D01*
X198118683Y-84549352D01*
X198023445Y-84501732D01*
X197832968Y-84501732D01*
X197737730Y-84549352D01*
X197690111Y-84596971D01*
X197642492Y-84692209D01*
X197642492Y-84930304D01*
X197690111Y-85025542D01*
X197737730Y-85073161D01*
X197832968Y-85120780D01*
X198023445Y-85120780D01*
X198118683Y-85073161D01*
X198166302Y-85025542D01*
X198213921Y-84930304D01*
%TO.C,U37*%
X173976111Y-88853732D02*
X173976111Y-89663256D01*
X174023730Y-89758494D01*
X174071349Y-89806113D01*
X174166587Y-89853732D01*
X174357064Y-89853732D01*
X174452302Y-89806113D01*
X174499921Y-89758494D01*
X174547540Y-89663256D01*
X174547540Y-88853732D01*
X174928492Y-88853732D02*
X175547540Y-88853732D01*
X175214207Y-89234685D01*
X175357064Y-89234685D01*
X175452302Y-89282304D01*
X175499921Y-89329923D01*
X175547540Y-89425161D01*
X175547540Y-89663256D01*
X175499921Y-89758494D01*
X175452302Y-89806113D01*
X175357064Y-89853732D01*
X175071349Y-89853732D01*
X174976111Y-89806113D01*
X174928492Y-89758494D01*
X175880873Y-88853732D02*
X176547540Y-88853732D01*
X176118968Y-89853732D01*
%TO.C,U63*%
X188798111Y-211306542D02*
X188798111Y-212116066D01*
X188845730Y-212211304D01*
X188893349Y-212258923D01*
X188988587Y-212306542D01*
X189179064Y-212306542D01*
X189274302Y-212258923D01*
X189321921Y-212211304D01*
X189369540Y-212116066D01*
X189369540Y-211306542D01*
X190274302Y-211306542D02*
X190083826Y-211306542D01*
X189988587Y-211354162D01*
X189940968Y-211401781D01*
X189845730Y-211544638D01*
X189798111Y-211735114D01*
X189798111Y-212116066D01*
X189845730Y-212211304D01*
X189893349Y-212258923D01*
X189988587Y-212306542D01*
X190179064Y-212306542D01*
X190274302Y-212258923D01*
X190321921Y-212211304D01*
X190369540Y-212116066D01*
X190369540Y-211877971D01*
X190321921Y-211782733D01*
X190274302Y-211735114D01*
X190179064Y-211687495D01*
X189988587Y-211687495D01*
X189893349Y-211735114D01*
X189845730Y-211782733D01*
X189798111Y-211877971D01*
X190702873Y-211306542D02*
X191321921Y-211306542D01*
X190988587Y-211687495D01*
X191131445Y-211687495D01*
X191226683Y-211735114D01*
X191274302Y-211782733D01*
X191321921Y-211877971D01*
X191321921Y-212116066D01*
X191274302Y-212211304D01*
X191226683Y-212258923D01*
X191131445Y-212306542D01*
X190845730Y-212306542D01*
X190750492Y-212258923D01*
X190702873Y-212211304D01*
%TO.C,R6*%
X488381891Y-98328677D02*
X487905701Y-98662011D01*
X488381891Y-98900106D02*
X487381891Y-98900106D01*
X487381891Y-98519153D01*
X487429511Y-98423915D01*
X487477130Y-98376296D01*
X487572368Y-98328677D01*
X487715225Y-98328677D01*
X487810463Y-98376296D01*
X487858082Y-98423915D01*
X487905701Y-98519153D01*
X487905701Y-98900106D01*
X487381891Y-97471534D02*
X487381891Y-97662011D01*
X487429511Y-97757249D01*
X487477130Y-97804868D01*
X487619987Y-97900106D01*
X487810463Y-97947725D01*
X488191415Y-97947725D01*
X488286653Y-97900106D01*
X488334272Y-97852487D01*
X488381891Y-97757249D01*
X488381891Y-97566772D01*
X488334272Y-97471534D01*
X488286653Y-97423915D01*
X488191415Y-97376296D01*
X487953320Y-97376296D01*
X487858082Y-97423915D01*
X487810463Y-97471534D01*
X487762844Y-97566772D01*
X487762844Y-97757249D01*
X487810463Y-97852487D01*
X487858082Y-97900106D01*
X487953320Y-97947725D01*
%TO.C,U26*%
X112127111Y-145288542D02*
X112127111Y-146098066D01*
X112174730Y-146193304D01*
X112222349Y-146240923D01*
X112317587Y-146288542D01*
X112508064Y-146288542D01*
X112603302Y-146240923D01*
X112650921Y-146193304D01*
X112698540Y-146098066D01*
X112698540Y-145288542D01*
X113127111Y-145383781D02*
X113174730Y-145336162D01*
X113269968Y-145288542D01*
X113508064Y-145288542D01*
X113603302Y-145336162D01*
X113650921Y-145383781D01*
X113698540Y-145479019D01*
X113698540Y-145574257D01*
X113650921Y-145717114D01*
X113079492Y-146288542D01*
X113698540Y-146288542D01*
X114555683Y-145288542D02*
X114365207Y-145288542D01*
X114269968Y-145336162D01*
X114222349Y-145383781D01*
X114127111Y-145526638D01*
X114079492Y-145717114D01*
X114079492Y-146098066D01*
X114127111Y-146193304D01*
X114174730Y-146240923D01*
X114269968Y-146288542D01*
X114460445Y-146288542D01*
X114555683Y-146240923D01*
X114603302Y-146193304D01*
X114650921Y-146098066D01*
X114650921Y-145859971D01*
X114603302Y-145764733D01*
X114555683Y-145717114D01*
X114460445Y-145669495D01*
X114269968Y-145669495D01*
X114174730Y-145717114D01*
X114127111Y-145764733D01*
X114079492Y-145859971D01*
%TO.C,U53*%
X274052111Y-145288542D02*
X274052111Y-146098066D01*
X274099730Y-146193304D01*
X274147349Y-146240923D01*
X274242587Y-146288542D01*
X274433064Y-146288542D01*
X274528302Y-146240923D01*
X274575921Y-146193304D01*
X274623540Y-146098066D01*
X274623540Y-145288542D01*
X275575921Y-145288542D02*
X275099730Y-145288542D01*
X275052111Y-145764733D01*
X275099730Y-145717114D01*
X275194968Y-145669495D01*
X275433064Y-145669495D01*
X275528302Y-145717114D01*
X275575921Y-145764733D01*
X275623540Y-145859971D01*
X275623540Y-146098066D01*
X275575921Y-146193304D01*
X275528302Y-146240923D01*
X275433064Y-146288542D01*
X275194968Y-146288542D01*
X275099730Y-146240923D01*
X275052111Y-146193304D01*
X275956873Y-145288542D02*
X276575921Y-145288542D01*
X276242587Y-145669495D01*
X276385445Y-145669495D01*
X276480683Y-145717114D01*
X276528302Y-145764733D01*
X276575921Y-145859971D01*
X276575921Y-146098066D01*
X276528302Y-146193304D01*
X276480683Y-146240923D01*
X276385445Y-146288542D01*
X276099730Y-146288542D01*
X276004492Y-146240923D01*
X275956873Y-146193304D01*
%TO.C,U21*%
X91680111Y-145288542D02*
X91680111Y-146098066D01*
X91727730Y-146193304D01*
X91775349Y-146240923D01*
X91870587Y-146288542D01*
X92061064Y-146288542D01*
X92156302Y-146240923D01*
X92203921Y-146193304D01*
X92251540Y-146098066D01*
X92251540Y-145288542D01*
X92680111Y-145383781D02*
X92727730Y-145336162D01*
X92822968Y-145288542D01*
X93061064Y-145288542D01*
X93156302Y-145336162D01*
X93203921Y-145383781D01*
X93251540Y-145479019D01*
X93251540Y-145574257D01*
X93203921Y-145717114D01*
X92632492Y-146288542D01*
X93251540Y-146288542D01*
X94203921Y-146288542D02*
X93632492Y-146288542D01*
X93918207Y-146288542D02*
X93918207Y-145288542D01*
X93822968Y-145431400D01*
X93727730Y-145526638D01*
X93632492Y-145574257D01*
%TO.C,U22*%
X114928111Y-84379732D02*
X114928111Y-85189256D01*
X114975730Y-85284494D01*
X115023349Y-85332113D01*
X115118587Y-85379732D01*
X115309064Y-85379732D01*
X115404302Y-85332113D01*
X115451921Y-85284494D01*
X115499540Y-85189256D01*
X115499540Y-84379732D01*
X115928111Y-84474971D02*
X115975730Y-84427352D01*
X116070968Y-84379732D01*
X116309064Y-84379732D01*
X116404302Y-84427352D01*
X116451921Y-84474971D01*
X116499540Y-84570209D01*
X116499540Y-84665447D01*
X116451921Y-84808304D01*
X115880492Y-85379732D01*
X116499540Y-85379732D01*
X116880492Y-84474971D02*
X116928111Y-84427352D01*
X117023349Y-84379732D01*
X117261445Y-84379732D01*
X117356683Y-84427352D01*
X117404302Y-84474971D01*
X117451921Y-84570209D01*
X117451921Y-84665447D01*
X117404302Y-84808304D01*
X116832873Y-85379732D01*
X117451921Y-85379732D01*
%TO.C,J2*%
X371169383Y-170132542D02*
X371169383Y-170846828D01*
X371121764Y-170989685D01*
X371026526Y-171084923D01*
X370883669Y-171132542D01*
X370788431Y-171132542D01*
X371597955Y-170227781D02*
X371645574Y-170180162D01*
X371740812Y-170132542D01*
X371978907Y-170132542D01*
X372074145Y-170180162D01*
X372121764Y-170227781D01*
X372169383Y-170323019D01*
X372169383Y-170418257D01*
X372121764Y-170561114D01*
X371550336Y-171132542D01*
X372169383Y-171132542D01*
%TO.C,J17*%
X129511476Y-207965380D02*
X129511476Y-208679666D01*
X129463857Y-208822523D01*
X129368619Y-208917761D01*
X129225761Y-208965380D01*
X129130523Y-208965380D01*
X130511476Y-208965380D02*
X129940047Y-208965380D01*
X130225761Y-208965380D02*
X130225761Y-207965380D01*
X130130523Y-208108238D01*
X130035285Y-208203476D01*
X129940047Y-208251095D01*
X130844809Y-207965380D02*
X131511476Y-207965380D01*
X131082904Y-208965380D01*
%TO.C,U17*%
X59888380Y-76497095D02*
X60697904Y-76497095D01*
X60793142Y-76449476D01*
X60840761Y-76401857D01*
X60888380Y-76306619D01*
X60888380Y-76116142D01*
X60840761Y-76020904D01*
X60793142Y-75973285D01*
X60697904Y-75925666D01*
X59888380Y-75925666D01*
X60888380Y-74925666D02*
X60888380Y-75497095D01*
X60888380Y-75211380D02*
X59888380Y-75211380D01*
X60031238Y-75306619D01*
X60126476Y-75401857D01*
X60174095Y-75497095D01*
X59888380Y-74592333D02*
X59888380Y-73925666D01*
X60888380Y-74354238D01*
%TO.C,U3*%
X44510904Y-175946619D02*
X44510904Y-175137095D01*
X44463285Y-175041857D01*
X44415666Y-174994238D01*
X44320428Y-174946619D01*
X44129952Y-174946619D01*
X44034714Y-174994238D01*
X43987095Y-175041857D01*
X43939476Y-175137095D01*
X43939476Y-175946619D01*
X43558523Y-175946619D02*
X42939476Y-175946619D01*
X43272809Y-175565666D01*
X43129952Y-175565666D01*
X43034714Y-175518047D01*
X42987095Y-175470428D01*
X42939476Y-175375190D01*
X42939476Y-175137095D01*
X42987095Y-175041857D01*
X43034714Y-174994238D01*
X43129952Y-174946619D01*
X43415666Y-174946619D01*
X43510904Y-174994238D01*
X43558523Y-175041857D01*
X46129952Y-199327571D02*
X45368047Y-199327571D01*
X45749000Y-198946619D02*
X45749000Y-199708523D01*
X42129952Y-199327571D02*
X41368047Y-199327571D01*
X46129952Y-199327571D02*
X45368047Y-199327571D01*
X45749000Y-198946619D02*
X45749000Y-199708523D01*
%TO.C,U47*%
X233031111Y-145288542D02*
X233031111Y-146098066D01*
X233078730Y-146193304D01*
X233126349Y-146240923D01*
X233221587Y-146288542D01*
X233412064Y-146288542D01*
X233507302Y-146240923D01*
X233554921Y-146193304D01*
X233602540Y-146098066D01*
X233602540Y-145288542D01*
X234507302Y-145621876D02*
X234507302Y-146288542D01*
X234269207Y-145240923D02*
X234031111Y-145955209D01*
X234650159Y-145955209D01*
X234935873Y-145288542D02*
X235602540Y-145288542D01*
X235173968Y-146288542D01*
%TO.C,U56*%
X294406621Y-145288542D02*
X294406621Y-146098066D01*
X294454240Y-146193304D01*
X294501859Y-146240923D01*
X294597097Y-146288542D01*
X294787574Y-146288542D01*
X294882812Y-146240923D01*
X294930431Y-146193304D01*
X294978050Y-146098066D01*
X294978050Y-145288542D01*
X295930431Y-145288542D02*
X295454240Y-145288542D01*
X295406621Y-145764733D01*
X295454240Y-145717114D01*
X295549478Y-145669495D01*
X295787574Y-145669495D01*
X295882812Y-145717114D01*
X295930431Y-145764733D01*
X295978050Y-145859971D01*
X295978050Y-146098066D01*
X295930431Y-146193304D01*
X295882812Y-146240923D01*
X295787574Y-146288542D01*
X295549478Y-146288542D01*
X295454240Y-146240923D01*
X295406621Y-146193304D01*
X296835193Y-145288542D02*
X296644717Y-145288542D01*
X296549478Y-145336162D01*
X296501859Y-145383781D01*
X296406621Y-145526638D01*
X296359002Y-145717114D01*
X296359002Y-146098066D01*
X296406621Y-146193304D01*
X296454240Y-146240923D01*
X296549478Y-146288542D01*
X296739955Y-146288542D01*
X296835193Y-146240923D01*
X296882812Y-146193304D01*
X296930431Y-146098066D01*
X296930431Y-145859971D01*
X296882812Y-145764733D01*
X296835193Y-145717114D01*
X296739955Y-145669495D01*
X296549478Y-145669495D01*
X296454240Y-145717114D01*
X296406621Y-145764733D01*
X296359002Y-145859971D01*
%TO.C,J12*%
X324683097Y-207460823D02*
X325397383Y-207460823D01*
X325540240Y-207508442D01*
X325635478Y-207603680D01*
X325683097Y-207746538D01*
X325683097Y-207841776D01*
X325683097Y-206460823D02*
X325683097Y-207032252D01*
X325683097Y-206746538D02*
X324683097Y-206746538D01*
X324825955Y-206841776D01*
X324921193Y-206937014D01*
X324968812Y-207032252D01*
X324778336Y-206079871D02*
X324730717Y-206032252D01*
X324683097Y-205937014D01*
X324683097Y-205698919D01*
X324730717Y-205603680D01*
X324778336Y-205556061D01*
X324873574Y-205508442D01*
X324968812Y-205508442D01*
X325111669Y-205556061D01*
X325683097Y-206127490D01*
X325683097Y-205508442D01*
%TO.C,U50*%
X253605111Y-145288542D02*
X253605111Y-146098066D01*
X253652730Y-146193304D01*
X253700349Y-146240923D01*
X253795587Y-146288542D01*
X253986064Y-146288542D01*
X254081302Y-146240923D01*
X254128921Y-146193304D01*
X254176540Y-146098066D01*
X254176540Y-145288542D01*
X255128921Y-145288542D02*
X254652730Y-145288542D01*
X254605111Y-145764733D01*
X254652730Y-145717114D01*
X254747968Y-145669495D01*
X254986064Y-145669495D01*
X255081302Y-145717114D01*
X255128921Y-145764733D01*
X255176540Y-145859971D01*
X255176540Y-146098066D01*
X255128921Y-146193304D01*
X255081302Y-146240923D01*
X254986064Y-146288542D01*
X254747968Y-146288542D01*
X254652730Y-146240923D01*
X254605111Y-146193304D01*
X255795587Y-145288542D02*
X255890826Y-145288542D01*
X255986064Y-145336162D01*
X256033683Y-145383781D01*
X256081302Y-145479019D01*
X256128921Y-145669495D01*
X256128921Y-145907590D01*
X256081302Y-146098066D01*
X256033683Y-146193304D01*
X255986064Y-146240923D01*
X255890826Y-146288542D01*
X255795587Y-146288542D01*
X255700349Y-146240923D01*
X255652730Y-146193304D01*
X255605111Y-146098066D01*
X255557492Y-145907590D01*
X255557492Y-145669495D01*
X255605111Y-145479019D01*
X255652730Y-145383781D01*
X255700349Y-145336162D01*
X255795587Y-145288542D01*
%TO.C,J15*%
X32503380Y-42092523D02*
X33217666Y-42092523D01*
X33360523Y-42140142D01*
X33455761Y-42235380D01*
X33503380Y-42378238D01*
X33503380Y-42473476D01*
X33503380Y-41092523D02*
X33503380Y-41663952D01*
X33503380Y-41378238D02*
X32503380Y-41378238D01*
X32646238Y-41473476D01*
X32741476Y-41568714D01*
X32789095Y-41663952D01*
X32503380Y-40187761D02*
X32503380Y-40663952D01*
X32979571Y-40711571D01*
X32931952Y-40663952D01*
X32884333Y-40568714D01*
X32884333Y-40330619D01*
X32931952Y-40235380D01*
X32979571Y-40187761D01*
X33074809Y-40140142D01*
X33312904Y-40140142D01*
X33408142Y-40187761D01*
X33455761Y-40235380D01*
X33503380Y-40330619D01*
X33503380Y-40568714D01*
X33455761Y-40663952D01*
X33408142Y-40711571D01*
%TO.C,U38*%
X172579111Y-145288542D02*
X172579111Y-146098066D01*
X172626730Y-146193304D01*
X172674349Y-146240923D01*
X172769587Y-146288542D01*
X172960064Y-146288542D01*
X173055302Y-146240923D01*
X173102921Y-146193304D01*
X173150540Y-146098066D01*
X173150540Y-145288542D01*
X173531492Y-145288542D02*
X174150540Y-145288542D01*
X173817207Y-145669495D01*
X173960064Y-145669495D01*
X174055302Y-145717114D01*
X174102921Y-145764733D01*
X174150540Y-145859971D01*
X174150540Y-146098066D01*
X174102921Y-146193304D01*
X174055302Y-146240923D01*
X173960064Y-146288542D01*
X173674349Y-146288542D01*
X173579111Y-146240923D01*
X173531492Y-146193304D01*
X174721968Y-145717114D02*
X174626730Y-145669495D01*
X174579111Y-145621876D01*
X174531492Y-145526638D01*
X174531492Y-145479019D01*
X174579111Y-145383781D01*
X174626730Y-145336162D01*
X174721968Y-145288542D01*
X174912445Y-145288542D01*
X175007683Y-145336162D01*
X175055302Y-145383781D01*
X175102921Y-145479019D01*
X175102921Y-145526638D01*
X175055302Y-145621876D01*
X175007683Y-145669495D01*
X174912445Y-145717114D01*
X174721968Y-145717114D01*
X174626730Y-145764733D01*
X174579111Y-145812352D01*
X174531492Y-145907590D01*
X174531492Y-146098066D01*
X174579111Y-146193304D01*
X174626730Y-146240923D01*
X174721968Y-146288542D01*
X174912445Y-146288542D01*
X175007683Y-146240923D01*
X175055302Y-146193304D01*
X175102921Y-146098066D01*
X175102921Y-145907590D01*
X175055302Y-145812352D01*
X175007683Y-145764733D01*
X174912445Y-145717114D01*
%TO.C,U18*%
X94979111Y-84374732D02*
X94979111Y-85184256D01*
X95026730Y-85279494D01*
X95074349Y-85327113D01*
X95169587Y-85374732D01*
X95360064Y-85374732D01*
X95455302Y-85327113D01*
X95502921Y-85279494D01*
X95550540Y-85184256D01*
X95550540Y-84374732D01*
X96550540Y-85374732D02*
X95979111Y-85374732D01*
X96264826Y-85374732D02*
X96264826Y-84374732D01*
X96169587Y-84517590D01*
X96074349Y-84612828D01*
X95979111Y-84660447D01*
X97121968Y-84803304D02*
X97026730Y-84755685D01*
X96979111Y-84708066D01*
X96931492Y-84612828D01*
X96931492Y-84565209D01*
X96979111Y-84469971D01*
X97026730Y-84422352D01*
X97121968Y-84374732D01*
X97312445Y-84374732D01*
X97407683Y-84422352D01*
X97455302Y-84469971D01*
X97502921Y-84565209D01*
X97502921Y-84612828D01*
X97455302Y-84708066D01*
X97407683Y-84755685D01*
X97312445Y-84803304D01*
X97121968Y-84803304D01*
X97026730Y-84850923D01*
X96979111Y-84898542D01*
X96931492Y-84993780D01*
X96931492Y-85184256D01*
X96979111Y-85279494D01*
X97026730Y-85327113D01*
X97121968Y-85374732D01*
X97312445Y-85374732D01*
X97407683Y-85327113D01*
X97455302Y-85279494D01*
X97502921Y-85184256D01*
X97502921Y-84993780D01*
X97455302Y-84898542D01*
X97407683Y-84850923D01*
X97312445Y-84803304D01*
%TO.C,U19*%
X470461415Y-54874391D02*
X470461415Y-55683915D01*
X470509034Y-55779153D01*
X470556653Y-55826772D01*
X470651891Y-55874391D01*
X470842368Y-55874391D01*
X470937606Y-55826772D01*
X470985225Y-55779153D01*
X471032844Y-55683915D01*
X471032844Y-54874391D01*
X472032844Y-55874391D02*
X471461415Y-55874391D01*
X471747130Y-55874391D02*
X471747130Y-54874391D01*
X471651891Y-55017249D01*
X471556653Y-55112487D01*
X471461415Y-55160106D01*
X472509034Y-55874391D02*
X472699511Y-55874391D01*
X472794749Y-55826772D01*
X472842368Y-55779153D01*
X472937606Y-55636296D01*
X472985225Y-55445820D01*
X472985225Y-55064868D01*
X472937606Y-54969630D01*
X472889987Y-54922011D01*
X472794749Y-54874391D01*
X472604272Y-54874391D01*
X472509034Y-54922011D01*
X472461415Y-54969630D01*
X472413796Y-55064868D01*
X472413796Y-55302963D01*
X472461415Y-55398201D01*
X472509034Y-55445820D01*
X472604272Y-55493439D01*
X472794749Y-55493439D01*
X472889987Y-55445820D01*
X472937606Y-55398201D01*
X472985225Y-55302963D01*
%TO.C,U66*%
X355366621Y-145288542D02*
X355366621Y-146098066D01*
X355414240Y-146193304D01*
X355461859Y-146240923D01*
X355557097Y-146288542D01*
X355747574Y-146288542D01*
X355842812Y-146240923D01*
X355890431Y-146193304D01*
X355938050Y-146098066D01*
X355938050Y-145288542D01*
X356842812Y-145288542D02*
X356652336Y-145288542D01*
X356557097Y-145336162D01*
X356509478Y-145383781D01*
X356414240Y-145526638D01*
X356366621Y-145717114D01*
X356366621Y-146098066D01*
X356414240Y-146193304D01*
X356461859Y-146240923D01*
X356557097Y-146288542D01*
X356747574Y-146288542D01*
X356842812Y-146240923D01*
X356890431Y-146193304D01*
X356938050Y-146098066D01*
X356938050Y-145859971D01*
X356890431Y-145764733D01*
X356842812Y-145717114D01*
X356747574Y-145669495D01*
X356557097Y-145669495D01*
X356461859Y-145717114D01*
X356414240Y-145764733D01*
X356366621Y-145859971D01*
X357795193Y-145288542D02*
X357604717Y-145288542D01*
X357509478Y-145336162D01*
X357461859Y-145383781D01*
X357366621Y-145526638D01*
X357319002Y-145717114D01*
X357319002Y-146098066D01*
X357366621Y-146193304D01*
X357414240Y-146240923D01*
X357509478Y-146288542D01*
X357699955Y-146288542D01*
X357795193Y-146240923D01*
X357842812Y-146193304D01*
X357890431Y-146098066D01*
X357890431Y-145859971D01*
X357842812Y-145764733D01*
X357795193Y-145717114D01*
X357699955Y-145669495D01*
X357509478Y-145669495D01*
X357414240Y-145717114D01*
X357366621Y-145764733D01*
X357319002Y-145859971D01*
%TO.C,U23*%
X483261415Y-54774391D02*
X483261415Y-55583915D01*
X483309034Y-55679153D01*
X483356653Y-55726772D01*
X483451891Y-55774391D01*
X483642368Y-55774391D01*
X483737606Y-55726772D01*
X483785225Y-55679153D01*
X483832844Y-55583915D01*
X483832844Y-54774391D01*
X484261415Y-54869630D02*
X484309034Y-54822011D01*
X484404272Y-54774391D01*
X484642368Y-54774391D01*
X484737606Y-54822011D01*
X484785225Y-54869630D01*
X484832844Y-54964868D01*
X484832844Y-55060106D01*
X484785225Y-55202963D01*
X484213796Y-55774391D01*
X484832844Y-55774391D01*
X485166177Y-54774391D02*
X485785225Y-54774391D01*
X485451891Y-55155344D01*
X485594749Y-55155344D01*
X485689987Y-55202963D01*
X485737606Y-55250582D01*
X485785225Y-55345820D01*
X485785225Y-55583915D01*
X485737606Y-55679153D01*
X485689987Y-55726772D01*
X485594749Y-55774391D01*
X485309034Y-55774391D01*
X485213796Y-55726772D01*
X485166177Y-55679153D01*
%TO.C,U25*%
X113270111Y-88853732D02*
X113270111Y-89663256D01*
X113317730Y-89758494D01*
X113365349Y-89806113D01*
X113460587Y-89853732D01*
X113651064Y-89853732D01*
X113746302Y-89806113D01*
X113793921Y-89758494D01*
X113841540Y-89663256D01*
X113841540Y-88853732D01*
X114270111Y-88948971D02*
X114317730Y-88901352D01*
X114412968Y-88853732D01*
X114651064Y-88853732D01*
X114746302Y-88901352D01*
X114793921Y-88948971D01*
X114841540Y-89044209D01*
X114841540Y-89139447D01*
X114793921Y-89282304D01*
X114222492Y-89853732D01*
X114841540Y-89853732D01*
X115746302Y-88853732D02*
X115270111Y-88853732D01*
X115222492Y-89329923D01*
X115270111Y-89282304D01*
X115365349Y-89234685D01*
X115603445Y-89234685D01*
X115698683Y-89282304D01*
X115746302Y-89329923D01*
X115793921Y-89425161D01*
X115793921Y-89663256D01*
X115746302Y-89758494D01*
X115698683Y-89806113D01*
X115603445Y-89853732D01*
X115365349Y-89853732D01*
X115270111Y-89806113D01*
X115222492Y-89758494D01*
%TO.C,J1*%
X373669383Y-113991732D02*
X373669383Y-114706018D01*
X373621764Y-114848875D01*
X373526526Y-114944113D01*
X373383669Y-114991732D01*
X373288431Y-114991732D01*
X374669383Y-114991732D02*
X374097955Y-114991732D01*
X374383669Y-114991732D02*
X374383669Y-113991732D01*
X374288431Y-114134590D01*
X374193193Y-114229828D01*
X374097955Y-114277447D01*
%TO.C,U42*%
X216391111Y-84501732D02*
X216391111Y-85311256D01*
X216438730Y-85406494D01*
X216486349Y-85454113D01*
X216581587Y-85501732D01*
X216772064Y-85501732D01*
X216867302Y-85454113D01*
X216914921Y-85406494D01*
X216962540Y-85311256D01*
X216962540Y-84501732D01*
X217867302Y-84835066D02*
X217867302Y-85501732D01*
X217629207Y-84454113D02*
X217391111Y-85168399D01*
X218010159Y-85168399D01*
X218343492Y-84596971D02*
X218391111Y-84549352D01*
X218486349Y-84501732D01*
X218724445Y-84501732D01*
X218819683Y-84549352D01*
X218867302Y-84596971D01*
X218914921Y-84692209D01*
X218914921Y-84787447D01*
X218867302Y-84930304D01*
X218295873Y-85501732D01*
X218914921Y-85501732D01*
%TO.C,R5*%
X488221891Y-102378677D02*
X487745701Y-102712011D01*
X488221891Y-102950106D02*
X487221891Y-102950106D01*
X487221891Y-102569153D01*
X487269511Y-102473915D01*
X487317130Y-102426296D01*
X487412368Y-102378677D01*
X487555225Y-102378677D01*
X487650463Y-102426296D01*
X487698082Y-102473915D01*
X487745701Y-102569153D01*
X487745701Y-102950106D01*
X487221891Y-101473915D02*
X487221891Y-101950106D01*
X487698082Y-101997725D01*
X487650463Y-101950106D01*
X487602844Y-101854868D01*
X487602844Y-101616772D01*
X487650463Y-101521534D01*
X487698082Y-101473915D01*
X487793320Y-101426296D01*
X488031415Y-101426296D01*
X488126653Y-101473915D01*
X488174272Y-101521534D01*
X488221891Y-101616772D01*
X488221891Y-101854868D01*
X488174272Y-101950106D01*
X488126653Y-101997725D01*
%TO.C,U20*%
X92950111Y-88853732D02*
X92950111Y-89663256D01*
X92997730Y-89758494D01*
X93045349Y-89806113D01*
X93140587Y-89853732D01*
X93331064Y-89853732D01*
X93426302Y-89806113D01*
X93473921Y-89758494D01*
X93521540Y-89663256D01*
X93521540Y-88853732D01*
X93950111Y-88948971D02*
X93997730Y-88901352D01*
X94092968Y-88853732D01*
X94331064Y-88853732D01*
X94426302Y-88901352D01*
X94473921Y-88948971D01*
X94521540Y-89044209D01*
X94521540Y-89139447D01*
X94473921Y-89282304D01*
X93902492Y-89853732D01*
X94521540Y-89853732D01*
X95140587Y-88853732D02*
X95235826Y-88853732D01*
X95331064Y-88901352D01*
X95378683Y-88948971D01*
X95426302Y-89044209D01*
X95473921Y-89234685D01*
X95473921Y-89472780D01*
X95426302Y-89663256D01*
X95378683Y-89758494D01*
X95331064Y-89806113D01*
X95235826Y-89853732D01*
X95140587Y-89853732D01*
X95045349Y-89806113D01*
X94997730Y-89758494D01*
X94950111Y-89663256D01*
X94902492Y-89472780D01*
X94902492Y-89234685D01*
X94950111Y-89044209D01*
X94997730Y-88948971D01*
X95045349Y-88901352D01*
X95140587Y-88853732D01*
%TO.C,U10*%
X62162904Y-145359190D02*
X62162904Y-146168714D01*
X62210523Y-146263952D01*
X62258142Y-146311571D01*
X62353380Y-146359190D01*
X62543857Y-146359190D01*
X62639095Y-146311571D01*
X62686714Y-146263952D01*
X62734333Y-146168714D01*
X62734333Y-145359190D01*
X63734333Y-146359190D02*
X63162904Y-146359190D01*
X63448619Y-146359190D02*
X63448619Y-145359190D01*
X63353380Y-145502048D01*
X63258142Y-145597286D01*
X63162904Y-145644905D01*
X64353380Y-145359190D02*
X64448619Y-145359190D01*
X64543857Y-145406810D01*
X64591476Y-145454429D01*
X64639095Y-145549667D01*
X64686714Y-145740143D01*
X64686714Y-145978238D01*
X64639095Y-146168714D01*
X64591476Y-146263952D01*
X64543857Y-146311571D01*
X64448619Y-146359190D01*
X64353380Y-146359190D01*
X64258142Y-146311571D01*
X64210523Y-146263952D01*
X64162904Y-146168714D01*
X64115285Y-145978238D01*
X64115285Y-145740143D01*
X64162904Y-145549667D01*
X64210523Y-145454429D01*
X64258142Y-145406810D01*
X64353380Y-145359190D01*
%TO.C,U34*%
X153783111Y-88853732D02*
X153783111Y-89663256D01*
X153830730Y-89758494D01*
X153878349Y-89806113D01*
X153973587Y-89853732D01*
X154164064Y-89853732D01*
X154259302Y-89806113D01*
X154306921Y-89758494D01*
X154354540Y-89663256D01*
X154354540Y-88853732D01*
X154735492Y-88853732D02*
X155354540Y-88853732D01*
X155021207Y-89234685D01*
X155164064Y-89234685D01*
X155259302Y-89282304D01*
X155306921Y-89329923D01*
X155354540Y-89425161D01*
X155354540Y-89663256D01*
X155306921Y-89758494D01*
X155259302Y-89806113D01*
X155164064Y-89853732D01*
X154878349Y-89853732D01*
X154783111Y-89806113D01*
X154735492Y-89758494D01*
X156211683Y-89187066D02*
X156211683Y-89853732D01*
X155973587Y-88806113D02*
X155735492Y-89520399D01*
X156354540Y-89520399D01*
%TO.C,R7*%
X503278333Y-39602380D02*
X502945000Y-39126190D01*
X502706904Y-39602380D02*
X502706904Y-38602380D01*
X503087857Y-38602380D01*
X503183095Y-38650000D01*
X503230714Y-38697619D01*
X503278333Y-38792857D01*
X503278333Y-38935714D01*
X503230714Y-39030952D01*
X503183095Y-39078571D01*
X503087857Y-39126190D01*
X502706904Y-39126190D01*
X503611666Y-38602380D02*
X504278333Y-38602380D01*
X503849761Y-39602380D01*
%TO.C,U58*%
X315923874Y-88853732D02*
X315923874Y-89663256D01*
X315971493Y-89758494D01*
X316019112Y-89806113D01*
X316114350Y-89853732D01*
X316304827Y-89853732D01*
X316400065Y-89806113D01*
X316447684Y-89758494D01*
X316495303Y-89663256D01*
X316495303Y-88853732D01*
X317447684Y-88853732D02*
X316971493Y-88853732D01*
X316923874Y-89329923D01*
X316971493Y-89282304D01*
X317066731Y-89234685D01*
X317304827Y-89234685D01*
X317400065Y-89282304D01*
X317447684Y-89329923D01*
X317495303Y-89425161D01*
X317495303Y-89663256D01*
X317447684Y-89758494D01*
X317400065Y-89806113D01*
X317304827Y-89853732D01*
X317066731Y-89853732D01*
X316971493Y-89806113D01*
X316923874Y-89758494D01*
X318066731Y-89282304D02*
X317971493Y-89234685D01*
X317923874Y-89187066D01*
X317876255Y-89091828D01*
X317876255Y-89044209D01*
X317923874Y-88948971D01*
X317971493Y-88901352D01*
X318066731Y-88853732D01*
X318257208Y-88853732D01*
X318352446Y-88901352D01*
X318400065Y-88948971D01*
X318447684Y-89044209D01*
X318447684Y-89091828D01*
X318400065Y-89187066D01*
X318352446Y-89234685D01*
X318257208Y-89282304D01*
X318066731Y-89282304D01*
X317971493Y-89329923D01*
X317923874Y-89377542D01*
X317876255Y-89472780D01*
X317876255Y-89663256D01*
X317923874Y-89758494D01*
X317971493Y-89806113D01*
X318066731Y-89853732D01*
X318257208Y-89853732D01*
X318352446Y-89806113D01*
X318400065Y-89758494D01*
X318447684Y-89663256D01*
X318447684Y-89472780D01*
X318400065Y-89377542D01*
X318352446Y-89329923D01*
X318257208Y-89282304D01*
%TO.C,R1*%
X39584624Y-137808910D02*
X39108434Y-138142244D01*
X39584624Y-138380339D02*
X38584624Y-138380339D01*
X38584624Y-137999386D01*
X38632244Y-137904148D01*
X38679863Y-137856529D01*
X38775101Y-137808910D01*
X38917958Y-137808910D01*
X39013196Y-137856529D01*
X39060815Y-137904148D01*
X39108434Y-137999386D01*
X39108434Y-138380339D01*
X39584624Y-136856529D02*
X39584624Y-137427958D01*
X39584624Y-137142244D02*
X38584624Y-137142244D01*
X38727482Y-137237482D01*
X38822720Y-137332720D01*
X38870339Y-137427958D01*
%TO.C,U15*%
X72442904Y-145189190D02*
X72442904Y-145998714D01*
X72490523Y-146093952D01*
X72538142Y-146141571D01*
X72633380Y-146189190D01*
X72823857Y-146189190D01*
X72919095Y-146141571D01*
X72966714Y-146093952D01*
X73014333Y-145998714D01*
X73014333Y-145189190D01*
X74014333Y-146189190D02*
X73442904Y-146189190D01*
X73728619Y-146189190D02*
X73728619Y-145189190D01*
X73633380Y-145332048D01*
X73538142Y-145427286D01*
X73442904Y-145474905D01*
X74919095Y-145189190D02*
X74442904Y-145189190D01*
X74395285Y-145665381D01*
X74442904Y-145617762D01*
X74538142Y-145570143D01*
X74776238Y-145570143D01*
X74871476Y-145617762D01*
X74919095Y-145665381D01*
X74966714Y-145760619D01*
X74966714Y-145998714D01*
X74919095Y-146093952D01*
X74871476Y-146141571D01*
X74776238Y-146189190D01*
X74538142Y-146189190D01*
X74442904Y-146141571D01*
X74395285Y-146093952D01*
%TO.C,U52*%
X274941111Y-88853732D02*
X274941111Y-89663256D01*
X274988730Y-89758494D01*
X275036349Y-89806113D01*
X275131587Y-89853732D01*
X275322064Y-89853732D01*
X275417302Y-89806113D01*
X275464921Y-89758494D01*
X275512540Y-89663256D01*
X275512540Y-88853732D01*
X276464921Y-88853732D02*
X275988730Y-88853732D01*
X275941111Y-89329923D01*
X275988730Y-89282304D01*
X276083968Y-89234685D01*
X276322064Y-89234685D01*
X276417302Y-89282304D01*
X276464921Y-89329923D01*
X276512540Y-89425161D01*
X276512540Y-89663256D01*
X276464921Y-89758494D01*
X276417302Y-89806113D01*
X276322064Y-89853732D01*
X276083968Y-89853732D01*
X275988730Y-89806113D01*
X275941111Y-89758494D01*
X276893492Y-88948971D02*
X276941111Y-88901352D01*
X277036349Y-88853732D01*
X277274445Y-88853732D01*
X277369683Y-88901352D01*
X277417302Y-88948971D01*
X277464921Y-89044209D01*
X277464921Y-89139447D01*
X277417302Y-89282304D01*
X276845873Y-89853732D01*
X277464921Y-89853732D01*
%TO.C,U9*%
X62893095Y-88162380D02*
X62893095Y-88971904D01*
X62940714Y-89067142D01*
X62988333Y-89114761D01*
X63083571Y-89162380D01*
X63274047Y-89162380D01*
X63369285Y-89114761D01*
X63416904Y-89067142D01*
X63464523Y-88971904D01*
X63464523Y-88162380D01*
X63988333Y-89162380D02*
X64178809Y-89162380D01*
X64274047Y-89114761D01*
X64321666Y-89067142D01*
X64416904Y-88924285D01*
X64464523Y-88733809D01*
X64464523Y-88352857D01*
X64416904Y-88257619D01*
X64369285Y-88210000D01*
X64274047Y-88162380D01*
X64083571Y-88162380D01*
X63988333Y-88210000D01*
X63940714Y-88257619D01*
X63893095Y-88352857D01*
X63893095Y-88590952D01*
X63940714Y-88686190D01*
X63988333Y-88733809D01*
X64083571Y-88781428D01*
X64274047Y-88781428D01*
X64369285Y-88733809D01*
X64416904Y-88686190D01*
X64464523Y-88590952D01*
%TO.C,U33*%
X155939111Y-84374732D02*
X155939111Y-85184256D01*
X155986730Y-85279494D01*
X156034349Y-85327113D01*
X156129587Y-85374732D01*
X156320064Y-85374732D01*
X156415302Y-85327113D01*
X156462921Y-85279494D01*
X156510540Y-85184256D01*
X156510540Y-84374732D01*
X156891492Y-84374732D02*
X157510540Y-84374732D01*
X157177207Y-84755685D01*
X157320064Y-84755685D01*
X157415302Y-84803304D01*
X157462921Y-84850923D01*
X157510540Y-84946161D01*
X157510540Y-85184256D01*
X157462921Y-85279494D01*
X157415302Y-85327113D01*
X157320064Y-85374732D01*
X157034349Y-85374732D01*
X156939111Y-85327113D01*
X156891492Y-85279494D01*
X157843873Y-84374732D02*
X158462921Y-84374732D01*
X158129587Y-84755685D01*
X158272445Y-84755685D01*
X158367683Y-84803304D01*
X158415302Y-84850923D01*
X158462921Y-84946161D01*
X158462921Y-85184256D01*
X158415302Y-85279494D01*
X158367683Y-85327113D01*
X158272445Y-85374732D01*
X157986730Y-85374732D01*
X157891492Y-85327113D01*
X157843873Y-85279494D01*
%TO.C,U49*%
X254621111Y-88853732D02*
X254621111Y-89663256D01*
X254668730Y-89758494D01*
X254716349Y-89806113D01*
X254811587Y-89853732D01*
X255002064Y-89853732D01*
X255097302Y-89806113D01*
X255144921Y-89758494D01*
X255192540Y-89663256D01*
X255192540Y-88853732D01*
X256097302Y-89187066D02*
X256097302Y-89853732D01*
X255859207Y-88806113D02*
X255621111Y-89520399D01*
X256240159Y-89520399D01*
X256668730Y-89853732D02*
X256859207Y-89853732D01*
X256954445Y-89806113D01*
X257002064Y-89758494D01*
X257097302Y-89615637D01*
X257144921Y-89425161D01*
X257144921Y-89044209D01*
X257097302Y-88948971D01*
X257049683Y-88901352D01*
X256954445Y-88853732D01*
X256763968Y-88853732D01*
X256668730Y-88901352D01*
X256621111Y-88948971D01*
X256573492Y-89044209D01*
X256573492Y-89282304D01*
X256621111Y-89377542D01*
X256668730Y-89425161D01*
X256763968Y-89472780D01*
X256954445Y-89472780D01*
X257049683Y-89425161D01*
X257097302Y-89377542D01*
X257144921Y-89282304D01*
%TO.C,U27*%
X466596891Y-39900106D02*
X467406415Y-39900106D01*
X467501653Y-39852487D01*
X467549272Y-39804868D01*
X467596891Y-39709630D01*
X467596891Y-39519153D01*
X467549272Y-39423915D01*
X467501653Y-39376296D01*
X467406415Y-39328677D01*
X466596891Y-39328677D01*
X466692130Y-38900106D02*
X466644511Y-38852487D01*
X466596891Y-38757249D01*
X466596891Y-38519153D01*
X466644511Y-38423915D01*
X466692130Y-38376296D01*
X466787368Y-38328677D01*
X466882606Y-38328677D01*
X467025463Y-38376296D01*
X467596891Y-38947725D01*
X467596891Y-38328677D01*
X466596891Y-37995344D02*
X466596891Y-37328677D01*
X467596891Y-37757249D01*
%TO.C,U65*%
X356636621Y-88853732D02*
X356636621Y-89663256D01*
X356684240Y-89758494D01*
X356731859Y-89806113D01*
X356827097Y-89853732D01*
X357017574Y-89853732D01*
X357112812Y-89806113D01*
X357160431Y-89758494D01*
X357208050Y-89663256D01*
X357208050Y-88853732D01*
X358112812Y-88853732D02*
X357922336Y-88853732D01*
X357827097Y-88901352D01*
X357779478Y-88948971D01*
X357684240Y-89091828D01*
X357636621Y-89282304D01*
X357636621Y-89663256D01*
X357684240Y-89758494D01*
X357731859Y-89806113D01*
X357827097Y-89853732D01*
X358017574Y-89853732D01*
X358112812Y-89806113D01*
X358160431Y-89758494D01*
X358208050Y-89663256D01*
X358208050Y-89425161D01*
X358160431Y-89329923D01*
X358112812Y-89282304D01*
X358017574Y-89234685D01*
X357827097Y-89234685D01*
X357731859Y-89282304D01*
X357684240Y-89329923D01*
X357636621Y-89425161D01*
X359112812Y-88853732D02*
X358636621Y-88853732D01*
X358589002Y-89329923D01*
X358636621Y-89282304D01*
X358731859Y-89234685D01*
X358969955Y-89234685D01*
X359065193Y-89282304D01*
X359112812Y-89329923D01*
X359160431Y-89425161D01*
X359160431Y-89663256D01*
X359112812Y-89758494D01*
X359065193Y-89806113D01*
X358969955Y-89853732D01*
X358731859Y-89853732D01*
X358636621Y-89806113D01*
X358589002Y-89758494D01*
%TO.C,U60*%
X338254621Y-84566732D02*
X338254621Y-85376256D01*
X338302240Y-85471494D01*
X338349859Y-85519113D01*
X338445097Y-85566732D01*
X338635574Y-85566732D01*
X338730812Y-85519113D01*
X338778431Y-85471494D01*
X338826050Y-85376256D01*
X338826050Y-84566732D01*
X339730812Y-84566732D02*
X339540336Y-84566732D01*
X339445097Y-84614352D01*
X339397478Y-84661971D01*
X339302240Y-84804828D01*
X339254621Y-84995304D01*
X339254621Y-85376256D01*
X339302240Y-85471494D01*
X339349859Y-85519113D01*
X339445097Y-85566732D01*
X339635574Y-85566732D01*
X339730812Y-85519113D01*
X339778431Y-85471494D01*
X339826050Y-85376256D01*
X339826050Y-85138161D01*
X339778431Y-85042923D01*
X339730812Y-84995304D01*
X339635574Y-84947685D01*
X339445097Y-84947685D01*
X339349859Y-84995304D01*
X339302240Y-85042923D01*
X339254621Y-85138161D01*
X340445097Y-84566732D02*
X340540336Y-84566732D01*
X340635574Y-84614352D01*
X340683193Y-84661971D01*
X340730812Y-84757209D01*
X340778431Y-84947685D01*
X340778431Y-85185780D01*
X340730812Y-85376256D01*
X340683193Y-85471494D01*
X340635574Y-85519113D01*
X340540336Y-85566732D01*
X340445097Y-85566732D01*
X340349859Y-85519113D01*
X340302240Y-85471494D01*
X340254621Y-85376256D01*
X340207002Y-85185780D01*
X340207002Y-84947685D01*
X340254621Y-84757209D01*
X340302240Y-84661971D01*
X340349859Y-84614352D01*
X340445097Y-84566732D01*
%TO.C,U57*%
X317644621Y-84628732D02*
X317644621Y-85438256D01*
X317692240Y-85533494D01*
X317739859Y-85581113D01*
X317835097Y-85628732D01*
X318025574Y-85628732D01*
X318120812Y-85581113D01*
X318168431Y-85533494D01*
X318216050Y-85438256D01*
X318216050Y-84628732D01*
X319168431Y-84628732D02*
X318692240Y-84628732D01*
X318644621Y-85104923D01*
X318692240Y-85057304D01*
X318787478Y-85009685D01*
X319025574Y-85009685D01*
X319120812Y-85057304D01*
X319168431Y-85104923D01*
X319216050Y-85200161D01*
X319216050Y-85438256D01*
X319168431Y-85533494D01*
X319120812Y-85581113D01*
X319025574Y-85628732D01*
X318787478Y-85628732D01*
X318692240Y-85581113D01*
X318644621Y-85533494D01*
X319549383Y-84628732D02*
X320216050Y-84628732D01*
X319787478Y-85628732D01*
%TO.C,J6*%
X31957666Y-38175380D02*
X31957666Y-38889666D01*
X31910047Y-39032523D01*
X31814809Y-39127761D01*
X31671952Y-39175380D01*
X31576714Y-39175380D01*
X32862428Y-38175380D02*
X32671952Y-38175380D01*
X32576714Y-38223000D01*
X32529095Y-38270619D01*
X32433857Y-38413476D01*
X32386238Y-38603952D01*
X32386238Y-38984904D01*
X32433857Y-39080142D01*
X32481476Y-39127761D01*
X32576714Y-39175380D01*
X32767190Y-39175380D01*
X32862428Y-39127761D01*
X32910047Y-39080142D01*
X32957666Y-38984904D01*
X32957666Y-38746809D01*
X32910047Y-38651571D01*
X32862428Y-38603952D01*
X32767190Y-38556333D01*
X32576714Y-38556333D01*
X32481476Y-38603952D01*
X32433857Y-38651571D01*
X32386238Y-38746809D01*
X155903666Y-46196380D02*
X155570333Y-45720190D01*
X155332238Y-46196380D02*
X155332238Y-45196380D01*
X155713190Y-45196380D01*
X155808428Y-45244000D01*
X155856047Y-45291619D01*
X155903666Y-45386857D01*
X155903666Y-45529714D01*
X155856047Y-45624952D01*
X155808428Y-45672571D01*
X155713190Y-45720190D01*
X155332238Y-45720190D01*
X156332238Y-45672571D02*
X156665571Y-45672571D01*
X156808428Y-46196380D02*
X156332238Y-46196380D01*
X156332238Y-45196380D01*
X156808428Y-45196380D01*
X157570333Y-45672571D02*
X157237000Y-45672571D01*
X157237000Y-46196380D02*
X157237000Y-45196380D01*
X157713190Y-45196380D01*
X158237000Y-45196380D02*
X158237000Y-45434476D01*
X157998904Y-45339238D02*
X158237000Y-45434476D01*
X158475095Y-45339238D01*
X158094142Y-45624952D02*
X158237000Y-45434476D01*
X158379857Y-45624952D01*
X158998904Y-45196380D02*
X158998904Y-45434476D01*
X158760809Y-45339238D02*
X158998904Y-45434476D01*
X159237000Y-45339238D01*
X158856047Y-45624952D02*
X158998904Y-45434476D01*
X159141761Y-45624952D01*
%TO.C,U31*%
X133336111Y-88853732D02*
X133336111Y-89663256D01*
X133383730Y-89758494D01*
X133431349Y-89806113D01*
X133526587Y-89853732D01*
X133717064Y-89853732D01*
X133812302Y-89806113D01*
X133859921Y-89758494D01*
X133907540Y-89663256D01*
X133907540Y-88853732D01*
X134288492Y-88853732D02*
X134907540Y-88853732D01*
X134574207Y-89234685D01*
X134717064Y-89234685D01*
X134812302Y-89282304D01*
X134859921Y-89329923D01*
X134907540Y-89425161D01*
X134907540Y-89663256D01*
X134859921Y-89758494D01*
X134812302Y-89806113D01*
X134717064Y-89853732D01*
X134431349Y-89853732D01*
X134336111Y-89806113D01*
X134288492Y-89758494D01*
X135859921Y-89853732D02*
X135288492Y-89853732D01*
X135574207Y-89853732D02*
X135574207Y-88853732D01*
X135478968Y-88996590D01*
X135383730Y-89091828D01*
X135288492Y-89139447D01*
%TO.C,U35*%
X152513111Y-145288542D02*
X152513111Y-146098066D01*
X152560730Y-146193304D01*
X152608349Y-146240923D01*
X152703587Y-146288542D01*
X152894064Y-146288542D01*
X152989302Y-146240923D01*
X153036921Y-146193304D01*
X153084540Y-146098066D01*
X153084540Y-145288542D01*
X153465492Y-145288542D02*
X154084540Y-145288542D01*
X153751207Y-145669495D01*
X153894064Y-145669495D01*
X153989302Y-145717114D01*
X154036921Y-145764733D01*
X154084540Y-145859971D01*
X154084540Y-146098066D01*
X154036921Y-146193304D01*
X153989302Y-146240923D01*
X153894064Y-146288542D01*
X153608349Y-146288542D01*
X153513111Y-146240923D01*
X153465492Y-146193304D01*
X154989302Y-145288542D02*
X154513111Y-145288542D01*
X154465492Y-145764733D01*
X154513111Y-145717114D01*
X154608349Y-145669495D01*
X154846445Y-145669495D01*
X154941683Y-145717114D01*
X154989302Y-145764733D01*
X155036921Y-145859971D01*
X155036921Y-146098066D01*
X154989302Y-146193304D01*
X154941683Y-146240923D01*
X154846445Y-146288542D01*
X154608349Y-146288542D01*
X154513111Y-146240923D01*
X154465492Y-146193304D01*
%TO.C,U55*%
X295603874Y-88853732D02*
X295603874Y-89663256D01*
X295651493Y-89758494D01*
X295699112Y-89806113D01*
X295794350Y-89853732D01*
X295984827Y-89853732D01*
X296080065Y-89806113D01*
X296127684Y-89758494D01*
X296175303Y-89663256D01*
X296175303Y-88853732D01*
X297127684Y-88853732D02*
X296651493Y-88853732D01*
X296603874Y-89329923D01*
X296651493Y-89282304D01*
X296746731Y-89234685D01*
X296984827Y-89234685D01*
X297080065Y-89282304D01*
X297127684Y-89329923D01*
X297175303Y-89425161D01*
X297175303Y-89663256D01*
X297127684Y-89758494D01*
X297080065Y-89806113D01*
X296984827Y-89853732D01*
X296746731Y-89853732D01*
X296651493Y-89806113D01*
X296603874Y-89758494D01*
X298080065Y-88853732D02*
X297603874Y-88853732D01*
X297556255Y-89329923D01*
X297603874Y-89282304D01*
X297699112Y-89234685D01*
X297937208Y-89234685D01*
X298032446Y-89282304D01*
X298080065Y-89329923D01*
X298127684Y-89425161D01*
X298127684Y-89663256D01*
X298080065Y-89758494D01*
X298032446Y-89806113D01*
X297937208Y-89853732D01*
X297699112Y-89853732D01*
X297603874Y-89806113D01*
X297556255Y-89758494D01*
%TO.C,R2*%
X34051380Y-193727750D02*
X33575190Y-194061084D01*
X34051380Y-194299179D02*
X33051380Y-194299179D01*
X33051380Y-193918226D01*
X33099000Y-193822988D01*
X33146619Y-193775369D01*
X33241857Y-193727750D01*
X33384714Y-193727750D01*
X33479952Y-193775369D01*
X33527571Y-193822988D01*
X33575190Y-193918226D01*
X33575190Y-194299179D01*
X33146619Y-193346798D02*
X33099000Y-193299179D01*
X33051380Y-193203941D01*
X33051380Y-192965845D01*
X33099000Y-192870607D01*
X33146619Y-192822988D01*
X33241857Y-192775369D01*
X33337095Y-192775369D01*
X33479952Y-192822988D01*
X34051380Y-193394417D01*
X34051380Y-192775369D01*
%TO.C,U14*%
X73204904Y-88119380D02*
X73204904Y-88928904D01*
X73252523Y-89024142D01*
X73300142Y-89071761D01*
X73395380Y-89119380D01*
X73585857Y-89119380D01*
X73681095Y-89071761D01*
X73728714Y-89024142D01*
X73776333Y-88928904D01*
X73776333Y-88119380D01*
X74776333Y-89119380D02*
X74204904Y-89119380D01*
X74490619Y-89119380D02*
X74490619Y-88119380D01*
X74395380Y-88262238D01*
X74300142Y-88357476D01*
X74204904Y-88405095D01*
X75633476Y-88452714D02*
X75633476Y-89119380D01*
X75395380Y-88071761D02*
X75157285Y-88786047D01*
X75776333Y-88786047D01*
%TO.C,U28*%
X135939111Y-84374732D02*
X135939111Y-85184256D01*
X135986730Y-85279494D01*
X136034349Y-85327113D01*
X136129587Y-85374732D01*
X136320064Y-85374732D01*
X136415302Y-85327113D01*
X136462921Y-85279494D01*
X136510540Y-85184256D01*
X136510540Y-84374732D01*
X136939111Y-84469971D02*
X136986730Y-84422352D01*
X137081968Y-84374732D01*
X137320064Y-84374732D01*
X137415302Y-84422352D01*
X137462921Y-84469971D01*
X137510540Y-84565209D01*
X137510540Y-84660447D01*
X137462921Y-84803304D01*
X136891492Y-85374732D01*
X137510540Y-85374732D01*
X138081968Y-84803304D02*
X137986730Y-84755685D01*
X137939111Y-84708066D01*
X137891492Y-84612828D01*
X137891492Y-84565209D01*
X137939111Y-84469971D01*
X137986730Y-84422352D01*
X138081968Y-84374732D01*
X138272445Y-84374732D01*
X138367683Y-84422352D01*
X138415302Y-84469971D01*
X138462921Y-84565209D01*
X138462921Y-84612828D01*
X138415302Y-84708066D01*
X138367683Y-84755685D01*
X138272445Y-84803304D01*
X138081968Y-84803304D01*
X137986730Y-84850923D01*
X137939111Y-84898542D01*
X137891492Y-84993780D01*
X137891492Y-85184256D01*
X137939111Y-85279494D01*
X137986730Y-85327113D01*
X138081968Y-85374732D01*
X138272445Y-85374732D01*
X138367683Y-85327113D01*
X138415302Y-85279494D01*
X138462921Y-85184256D01*
X138462921Y-84993780D01*
X138415302Y-84898542D01*
X138367683Y-84850923D01*
X138272445Y-84803304D01*
%TO.C,U40*%
X194169111Y-88853732D02*
X194169111Y-89663256D01*
X194216730Y-89758494D01*
X194264349Y-89806113D01*
X194359587Y-89853732D01*
X194550064Y-89853732D01*
X194645302Y-89806113D01*
X194692921Y-89758494D01*
X194740540Y-89663256D01*
X194740540Y-88853732D01*
X195645302Y-89187066D02*
X195645302Y-89853732D01*
X195407207Y-88806113D02*
X195169111Y-89520399D01*
X195788159Y-89520399D01*
X196359587Y-88853732D02*
X196454826Y-88853732D01*
X196550064Y-88901352D01*
X196597683Y-88948971D01*
X196645302Y-89044209D01*
X196692921Y-89234685D01*
X196692921Y-89472780D01*
X196645302Y-89663256D01*
X196597683Y-89758494D01*
X196550064Y-89806113D01*
X196454826Y-89853732D01*
X196359587Y-89853732D01*
X196264349Y-89806113D01*
X196216730Y-89758494D01*
X196169111Y-89663256D01*
X196121492Y-89472780D01*
X196121492Y-89234685D01*
X196169111Y-89044209D01*
X196216730Y-88948971D01*
X196264349Y-88901352D01*
X196359587Y-88853732D01*
%TO.C,U46*%
X234428111Y-88853732D02*
X234428111Y-89663256D01*
X234475730Y-89758494D01*
X234523349Y-89806113D01*
X234618587Y-89853732D01*
X234809064Y-89853732D01*
X234904302Y-89806113D01*
X234951921Y-89758494D01*
X234999540Y-89663256D01*
X234999540Y-88853732D01*
X235904302Y-89187066D02*
X235904302Y-89853732D01*
X235666207Y-88806113D02*
X235428111Y-89520399D01*
X236047159Y-89520399D01*
X236856683Y-88853732D02*
X236666207Y-88853732D01*
X236570968Y-88901352D01*
X236523349Y-88948971D01*
X236428111Y-89091828D01*
X236380492Y-89282304D01*
X236380492Y-89663256D01*
X236428111Y-89758494D01*
X236475730Y-89806113D01*
X236570968Y-89853732D01*
X236761445Y-89853732D01*
X236856683Y-89806113D01*
X236904302Y-89758494D01*
X236951921Y-89663256D01*
X236951921Y-89425161D01*
X236904302Y-89329923D01*
X236856683Y-89282304D01*
X236761445Y-89234685D01*
X236570968Y-89234685D01*
X236475730Y-89282304D01*
X236428111Y-89329923D01*
X236380492Y-89425161D01*
%TO.C,U61*%
X336316621Y-88853732D02*
X336316621Y-89663256D01*
X336364240Y-89758494D01*
X336411859Y-89806113D01*
X336507097Y-89853732D01*
X336697574Y-89853732D01*
X336792812Y-89806113D01*
X336840431Y-89758494D01*
X336888050Y-89663256D01*
X336888050Y-88853732D01*
X337792812Y-88853732D02*
X337602336Y-88853732D01*
X337507097Y-88901352D01*
X337459478Y-88948971D01*
X337364240Y-89091828D01*
X337316621Y-89282304D01*
X337316621Y-89663256D01*
X337364240Y-89758494D01*
X337411859Y-89806113D01*
X337507097Y-89853732D01*
X337697574Y-89853732D01*
X337792812Y-89806113D01*
X337840431Y-89758494D01*
X337888050Y-89663256D01*
X337888050Y-89425161D01*
X337840431Y-89329923D01*
X337792812Y-89282304D01*
X337697574Y-89234685D01*
X337507097Y-89234685D01*
X337411859Y-89282304D01*
X337364240Y-89329923D01*
X337316621Y-89425161D01*
X338840431Y-89853732D02*
X338269002Y-89853732D01*
X338554717Y-89853732D02*
X338554717Y-88853732D01*
X338459478Y-88996590D01*
X338364240Y-89091828D01*
X338269002Y-89139447D01*
%TO.C,U5*%
X444937606Y-54874391D02*
X444937606Y-55683915D01*
X444985225Y-55779153D01*
X445032844Y-55826772D01*
X445128082Y-55874391D01*
X445318558Y-55874391D01*
X445413796Y-55826772D01*
X445461415Y-55779153D01*
X445509034Y-55683915D01*
X445509034Y-54874391D01*
X446461415Y-54874391D02*
X445985225Y-54874391D01*
X445937606Y-55350582D01*
X445985225Y-55302963D01*
X446080463Y-55255344D01*
X446318558Y-55255344D01*
X446413796Y-55302963D01*
X446461415Y-55350582D01*
X446509034Y-55445820D01*
X446509034Y-55683915D01*
X446461415Y-55779153D01*
X446413796Y-55826772D01*
X446318558Y-55874391D01*
X446080463Y-55874391D01*
X445985225Y-55826772D01*
X445937606Y-55779153D01*
%TO.C,U4*%
X520686891Y-46901415D02*
X521496415Y-46901415D01*
X521591653Y-46853796D01*
X521639272Y-46806177D01*
X521686891Y-46710939D01*
X521686891Y-46520463D01*
X521639272Y-46425225D01*
X521591653Y-46377606D01*
X521496415Y-46329987D01*
X520686891Y-46329987D01*
X521020225Y-45425225D02*
X521686891Y-45425225D01*
X520639272Y-45663320D02*
X521353558Y-45901415D01*
X521353558Y-45282368D01*
%TO.C,R4*%
X33551380Y-173227750D02*
X33075190Y-173561084D01*
X33551380Y-173799179D02*
X32551380Y-173799179D01*
X32551380Y-173418226D01*
X32599000Y-173322988D01*
X32646619Y-173275369D01*
X32741857Y-173227750D01*
X32884714Y-173227750D01*
X32979952Y-173275369D01*
X33027571Y-173322988D01*
X33075190Y-173418226D01*
X33075190Y-173799179D01*
X32884714Y-172370607D02*
X33551380Y-172370607D01*
X32503761Y-172608703D02*
X33218047Y-172846798D01*
X33218047Y-172227750D01*
%TO.C,U30*%
X490871891Y-39900106D02*
X491681415Y-39900106D01*
X491776653Y-39852487D01*
X491824272Y-39804868D01*
X491871891Y-39709630D01*
X491871891Y-39519153D01*
X491824272Y-39423915D01*
X491776653Y-39376296D01*
X491681415Y-39328677D01*
X490871891Y-39328677D01*
X490871891Y-38947725D02*
X490871891Y-38328677D01*
X491252844Y-38662011D01*
X491252844Y-38519153D01*
X491300463Y-38423915D01*
X491348082Y-38376296D01*
X491443320Y-38328677D01*
X491681415Y-38328677D01*
X491776653Y-38376296D01*
X491824272Y-38423915D01*
X491871891Y-38519153D01*
X491871891Y-38804868D01*
X491824272Y-38900106D01*
X491776653Y-38947725D01*
X490871891Y-37709630D02*
X490871891Y-37614391D01*
X490919511Y-37519153D01*
X490967130Y-37471534D01*
X491062368Y-37423915D01*
X491252844Y-37376296D01*
X491490939Y-37376296D01*
X491681415Y-37423915D01*
X491776653Y-37471534D01*
X491824272Y-37519153D01*
X491871891Y-37614391D01*
X491871891Y-37709630D01*
X491824272Y-37804868D01*
X491776653Y-37852487D01*
X491681415Y-37900106D01*
X491490939Y-37947725D01*
X491252844Y-37947725D01*
X491062368Y-37900106D01*
X490967130Y-37852487D01*
X490919511Y-37804868D01*
X490871891Y-37709630D01*
%TO.C,R3*%
X39838624Y-117488910D02*
X39362434Y-117822244D01*
X39838624Y-118060339D02*
X38838624Y-118060339D01*
X38838624Y-117679386D01*
X38886244Y-117584148D01*
X38933863Y-117536529D01*
X39029101Y-117488910D01*
X39171958Y-117488910D01*
X39267196Y-117536529D01*
X39314815Y-117584148D01*
X39362434Y-117679386D01*
X39362434Y-118060339D01*
X38838624Y-117155577D02*
X38838624Y-116536529D01*
X39219577Y-116869863D01*
X39219577Y-116727005D01*
X39267196Y-116631767D01*
X39314815Y-116584148D01*
X39410053Y-116536529D01*
X39648148Y-116536529D01*
X39743386Y-116584148D01*
X39791005Y-116631767D01*
X39838624Y-116727005D01*
X39838624Y-117012720D01*
X39791005Y-117107958D01*
X39743386Y-117155577D01*
%TO.C,J19*%
X410092380Y-39759523D02*
X410806666Y-39759523D01*
X410949523Y-39807142D01*
X411044761Y-39902380D01*
X411092380Y-40045238D01*
X411092380Y-40140476D01*
X411092380Y-38759523D02*
X411092380Y-39330952D01*
X411092380Y-39045238D02*
X410092380Y-39045238D01*
X410235238Y-39140476D01*
X410330476Y-39235714D01*
X410378095Y-39330952D01*
X411092380Y-38283333D02*
X411092380Y-38092857D01*
X411044761Y-37997619D01*
X410997142Y-37950000D01*
X410854285Y-37854761D01*
X410663809Y-37807142D01*
X410282857Y-37807142D01*
X410187619Y-37854761D01*
X410140000Y-37902380D01*
X410092380Y-37997619D01*
X410092380Y-38188095D01*
X410140000Y-38283333D01*
X410187619Y-38330952D01*
X410282857Y-38378571D01*
X410520952Y-38378571D01*
X410616190Y-38330952D01*
X410663809Y-38283333D01*
X410711428Y-38188095D01*
X410711428Y-37997619D01*
X410663809Y-37902380D01*
X410616190Y-37854761D01*
X410520952Y-37807142D01*
%TO.C,J3*%
X525797380Y-51638333D02*
X526511666Y-51638333D01*
X526654523Y-51685952D01*
X526749761Y-51781190D01*
X526797380Y-51924047D01*
X526797380Y-52019285D01*
X525797380Y-51257380D02*
X525797380Y-50638333D01*
X526178333Y-50971666D01*
X526178333Y-50828809D01*
X526225952Y-50733571D01*
X526273571Y-50685952D01*
X526368809Y-50638333D01*
X526606904Y-50638333D01*
X526702142Y-50685952D01*
X526749761Y-50733571D01*
X526797380Y-50828809D01*
X526797380Y-51114523D01*
X526749761Y-51209761D01*
X526702142Y-51257380D01*
%TO.C,U24*%
X515001891Y-72857606D02*
X515811415Y-72857606D01*
X515906653Y-72809987D01*
X515954272Y-72762368D01*
X516001891Y-72667130D01*
X516001891Y-72476653D01*
X515954272Y-72381415D01*
X515906653Y-72333796D01*
X515811415Y-72286177D01*
X515001891Y-72286177D01*
X515097130Y-71857606D02*
X515049511Y-71809987D01*
X515001891Y-71714749D01*
X515001891Y-71476653D01*
X515049511Y-71381415D01*
X515097130Y-71333796D01*
X515192368Y-71286177D01*
X515287606Y-71286177D01*
X515430463Y-71333796D01*
X516001891Y-71905225D01*
X516001891Y-71286177D01*
X515335225Y-70429034D02*
X516001891Y-70429034D01*
X514954272Y-70667130D02*
X515668558Y-70905225D01*
X515668558Y-70286177D01*
%TO.C,U67*%
X237806111Y-196466542D02*
X237806111Y-197276066D01*
X237853730Y-197371304D01*
X237901349Y-197418923D01*
X237996587Y-197466542D01*
X238187064Y-197466542D01*
X238282302Y-197418923D01*
X238329921Y-197371304D01*
X238377540Y-197276066D01*
X238377540Y-196466542D01*
X239282302Y-196466542D02*
X239091826Y-196466542D01*
X238996587Y-196514162D01*
X238948968Y-196561781D01*
X238853730Y-196704638D01*
X238806111Y-196895114D01*
X238806111Y-197276066D01*
X238853730Y-197371304D01*
X238901349Y-197418923D01*
X238996587Y-197466542D01*
X239187064Y-197466542D01*
X239282302Y-197418923D01*
X239329921Y-197371304D01*
X239377540Y-197276066D01*
X239377540Y-197037971D01*
X239329921Y-196942733D01*
X239282302Y-196895114D01*
X239187064Y-196847495D01*
X238996587Y-196847495D01*
X238901349Y-196895114D01*
X238853730Y-196942733D01*
X238806111Y-197037971D01*
X239710873Y-196466542D02*
X240377540Y-196466542D01*
X239948968Y-197466542D01*
%TO.C,U43*%
X214108111Y-88853732D02*
X214108111Y-89663256D01*
X214155730Y-89758494D01*
X214203349Y-89806113D01*
X214298587Y-89853732D01*
X214489064Y-89853732D01*
X214584302Y-89806113D01*
X214631921Y-89758494D01*
X214679540Y-89663256D01*
X214679540Y-88853732D01*
X215584302Y-89187066D02*
X215584302Y-89853732D01*
X215346207Y-88806113D02*
X215108111Y-89520399D01*
X215727159Y-89520399D01*
X216012873Y-88853732D02*
X216631921Y-88853732D01*
X216298587Y-89234685D01*
X216441445Y-89234685D01*
X216536683Y-89282304D01*
X216584302Y-89329923D01*
X216631921Y-89425161D01*
X216631921Y-89663256D01*
X216584302Y-89758494D01*
X216536683Y-89806113D01*
X216441445Y-89853732D01*
X216155730Y-89853732D01*
X216060492Y-89806113D01*
X216012873Y-89758494D01*
%TO.C,U6*%
X520711891Y-59901415D02*
X521521415Y-59901415D01*
X521616653Y-59853796D01*
X521664272Y-59806177D01*
X521711891Y-59710939D01*
X521711891Y-59520463D01*
X521664272Y-59425225D01*
X521616653Y-59377606D01*
X521521415Y-59329987D01*
X520711891Y-59329987D01*
X520711891Y-58425225D02*
X520711891Y-58615701D01*
X520759511Y-58710939D01*
X520807130Y-58758558D01*
X520949987Y-58853796D01*
X521140463Y-58901415D01*
X521521415Y-58901415D01*
X521616653Y-58853796D01*
X521664272Y-58806177D01*
X521711891Y-58710939D01*
X521711891Y-58520463D01*
X521664272Y-58425225D01*
X521616653Y-58377606D01*
X521521415Y-58329987D01*
X521283320Y-58329987D01*
X521188082Y-58377606D01*
X521140463Y-58425225D01*
X521092844Y-58520463D01*
X521092844Y-58710939D01*
X521140463Y-58806177D01*
X521188082Y-58853796D01*
X521283320Y-58901415D01*
%TO.C,U64*%
X358504621Y-84566732D02*
X358504621Y-85376256D01*
X358552240Y-85471494D01*
X358599859Y-85519113D01*
X358695097Y-85566732D01*
X358885574Y-85566732D01*
X358980812Y-85519113D01*
X359028431Y-85471494D01*
X359076050Y-85376256D01*
X359076050Y-84566732D01*
X359980812Y-84566732D02*
X359790336Y-84566732D01*
X359695097Y-84614352D01*
X359647478Y-84661971D01*
X359552240Y-84804828D01*
X359504621Y-84995304D01*
X359504621Y-85376256D01*
X359552240Y-85471494D01*
X359599859Y-85519113D01*
X359695097Y-85566732D01*
X359885574Y-85566732D01*
X359980812Y-85519113D01*
X360028431Y-85471494D01*
X360076050Y-85376256D01*
X360076050Y-85138161D01*
X360028431Y-85042923D01*
X359980812Y-84995304D01*
X359885574Y-84947685D01*
X359695097Y-84947685D01*
X359599859Y-84995304D01*
X359552240Y-85042923D01*
X359504621Y-85138161D01*
X360933193Y-84900066D02*
X360933193Y-85566732D01*
X360695097Y-84519113D02*
X360457002Y-85233399D01*
X361076050Y-85233399D01*
%TO.C,U13*%
X493001891Y-72857606D02*
X493811415Y-72857606D01*
X493906653Y-72809987D01*
X493954272Y-72762368D01*
X494001891Y-72667130D01*
X494001891Y-72476653D01*
X493954272Y-72381415D01*
X493906653Y-72333796D01*
X493811415Y-72286177D01*
X493001891Y-72286177D01*
X494001891Y-71286177D02*
X494001891Y-71857606D01*
X494001891Y-71571891D02*
X493001891Y-71571891D01*
X493144749Y-71667130D01*
X493239987Y-71762368D01*
X493287606Y-71857606D01*
X493001891Y-70952844D02*
X493001891Y-70333796D01*
X493382844Y-70667130D01*
X493382844Y-70524272D01*
X493430463Y-70429034D01*
X493478082Y-70381415D01*
X493573320Y-70333796D01*
X493811415Y-70333796D01*
X493906653Y-70381415D01*
X493954272Y-70429034D01*
X494001891Y-70524272D01*
X494001891Y-70809987D01*
X493954272Y-70905225D01*
X493906653Y-70952844D01*
%TO.C,U8*%
X459667130Y-97940106D02*
X458857606Y-97940106D01*
X458762368Y-97987725D01*
X458714749Y-98035344D01*
X458667130Y-98130582D01*
X458667130Y-98321058D01*
X458714749Y-98416296D01*
X458762368Y-98463915D01*
X458857606Y-98511534D01*
X459667130Y-98511534D01*
X459238558Y-99130582D02*
X459286177Y-99035344D01*
X459333796Y-98987725D01*
X459429034Y-98940106D01*
X459476653Y-98940106D01*
X459571891Y-98987725D01*
X459619511Y-99035344D01*
X459667130Y-99130582D01*
X459667130Y-99321058D01*
X459619511Y-99416296D01*
X459571891Y-99463915D01*
X459476653Y-99511534D01*
X459429034Y-99511534D01*
X459333796Y-99463915D01*
X459286177Y-99416296D01*
X459238558Y-99321058D01*
X459238558Y-99130582D01*
X459190939Y-99035344D01*
X459143320Y-98987725D01*
X459048082Y-98940106D01*
X458857606Y-98940106D01*
X458762368Y-98987725D01*
X458714749Y-99035344D01*
X458667130Y-99130582D01*
X458667130Y-99321058D01*
X458714749Y-99416296D01*
X458762368Y-99463915D01*
X458857606Y-99511534D01*
X459048082Y-99511534D01*
X459143320Y-99463915D01*
X459190939Y-99416296D01*
X459238558Y-99321058D01*
X483048082Y-96321058D02*
X483048082Y-97082963D01*
X482667130Y-96702011D02*
X483429034Y-96702011D01*
X483048082Y-96321058D02*
X483048082Y-97082963D01*
X482667130Y-96702011D02*
X483429034Y-96702011D01*
X483048082Y-100321058D02*
X483048082Y-101082963D01*
%TO.C,D1*%
X495111904Y-41842380D02*
X495111904Y-40842380D01*
X495350000Y-40842380D01*
X495492857Y-40890000D01*
X495588095Y-40985238D01*
X495635714Y-41080476D01*
X495683333Y-41270952D01*
X495683333Y-41413809D01*
X495635714Y-41604285D01*
X495588095Y-41699523D01*
X495492857Y-41794761D01*
X495350000Y-41842380D01*
X495111904Y-41842380D01*
X496635714Y-41842380D02*
X496064285Y-41842380D01*
X496350000Y-41842380D02*
X496350000Y-40842380D01*
X496254761Y-40985238D01*
X496159523Y-41080476D01*
X496064285Y-41128095D01*
%TO.C,U51*%
X276819111Y-84501732D02*
X276819111Y-85311256D01*
X276866730Y-85406494D01*
X276914349Y-85454113D01*
X277009587Y-85501732D01*
X277200064Y-85501732D01*
X277295302Y-85454113D01*
X277342921Y-85406494D01*
X277390540Y-85311256D01*
X277390540Y-84501732D01*
X278342921Y-84501732D02*
X277866730Y-84501732D01*
X277819111Y-84977923D01*
X277866730Y-84930304D01*
X277961968Y-84882685D01*
X278200064Y-84882685D01*
X278295302Y-84930304D01*
X278342921Y-84977923D01*
X278390540Y-85073161D01*
X278390540Y-85311256D01*
X278342921Y-85406494D01*
X278295302Y-85454113D01*
X278200064Y-85501732D01*
X277961968Y-85501732D01*
X277866730Y-85454113D01*
X277819111Y-85406494D01*
X279342921Y-85501732D02*
X278771492Y-85501732D01*
X279057207Y-85501732D02*
X279057207Y-84501732D01*
X278961968Y-84644590D01*
X278866730Y-84739828D01*
X278771492Y-84787447D01*
%TO.C,U11*%
X457461415Y-54874391D02*
X457461415Y-55683915D01*
X457509034Y-55779153D01*
X457556653Y-55826772D01*
X457651891Y-55874391D01*
X457842368Y-55874391D01*
X457937606Y-55826772D01*
X457985225Y-55779153D01*
X458032844Y-55683915D01*
X458032844Y-54874391D01*
X459032844Y-55874391D02*
X458461415Y-55874391D01*
X458747130Y-55874391D02*
X458747130Y-54874391D01*
X458651891Y-55017249D01*
X458556653Y-55112487D01*
X458461415Y-55160106D01*
X459985225Y-55874391D02*
X459413796Y-55874391D01*
X459699511Y-55874391D02*
X459699511Y-54874391D01*
X459604272Y-55017249D01*
X459509034Y-55112487D01*
X459413796Y-55160106D01*
%TO.C,U41*%
X192899111Y-145223542D02*
X192899111Y-146033066D01*
X192946730Y-146128304D01*
X192994349Y-146175923D01*
X193089587Y-146223542D01*
X193280064Y-146223542D01*
X193375302Y-146175923D01*
X193422921Y-146128304D01*
X193470540Y-146033066D01*
X193470540Y-145223542D01*
X194375302Y-145556876D02*
X194375302Y-146223542D01*
X194137207Y-145175923D02*
X193899111Y-145890209D01*
X194518159Y-145890209D01*
X195422921Y-146223542D02*
X194851492Y-146223542D01*
X195137207Y-146223542D02*
X195137207Y-145223542D01*
X195041968Y-145366400D01*
X194946730Y-145461638D01*
X194851492Y-145509257D01*
%TO.C,U32*%
X131821111Y-145096542D02*
X131821111Y-145906066D01*
X131868730Y-146001304D01*
X131916349Y-146048923D01*
X132011587Y-146096542D01*
X132202064Y-146096542D01*
X132297302Y-146048923D01*
X132344921Y-146001304D01*
X132392540Y-145906066D01*
X132392540Y-145096542D01*
X132773492Y-145096542D02*
X133392540Y-145096542D01*
X133059207Y-145477495D01*
X133202064Y-145477495D01*
X133297302Y-145525114D01*
X133344921Y-145572733D01*
X133392540Y-145667971D01*
X133392540Y-145906066D01*
X133344921Y-146001304D01*
X133297302Y-146048923D01*
X133202064Y-146096542D01*
X132916349Y-146096542D01*
X132821111Y-146048923D01*
X132773492Y-146001304D01*
X133773492Y-145191781D02*
X133821111Y-145144162D01*
X133916349Y-145096542D01*
X134154445Y-145096542D01*
X134249683Y-145144162D01*
X134297302Y-145191781D01*
X134344921Y-145287019D01*
X134344921Y-145382257D01*
X134297302Y-145525114D01*
X133725873Y-146096542D01*
X134344921Y-146096542D01*
%TO.C,U54*%
X297461621Y-84506732D02*
X297461621Y-85316256D01*
X297509240Y-85411494D01*
X297556859Y-85459113D01*
X297652097Y-85506732D01*
X297842574Y-85506732D01*
X297937812Y-85459113D01*
X297985431Y-85411494D01*
X298033050Y-85316256D01*
X298033050Y-84506732D01*
X298985431Y-84506732D02*
X298509240Y-84506732D01*
X298461621Y-84982923D01*
X298509240Y-84935304D01*
X298604478Y-84887685D01*
X298842574Y-84887685D01*
X298937812Y-84935304D01*
X298985431Y-84982923D01*
X299033050Y-85078161D01*
X299033050Y-85316256D01*
X298985431Y-85411494D01*
X298937812Y-85459113D01*
X298842574Y-85506732D01*
X298604478Y-85506732D01*
X298509240Y-85459113D01*
X298461621Y-85411494D01*
X299890193Y-84840066D02*
X299890193Y-85506732D01*
X299652097Y-84459113D02*
X299414002Y-85173399D01*
X300033050Y-85173399D01*
D14*
%TO.C,U45*%
X243089207Y-58469352D02*
X232809207Y-58469352D01*
X232809207Y-84109352D02*
X243089207Y-84109352D01*
X235299207Y-58529352D02*
X235299207Y-84049352D01*
X240599207Y-84049352D02*
X240599207Y-58529352D01*
X235299207Y-84049352D02*
X236949207Y-84049352D01*
X238949207Y-84049352D02*
X240599207Y-84049352D01*
X243089207Y-84109352D02*
X243089207Y-58469352D01*
X240599207Y-58529352D02*
X235299207Y-58529352D01*
X232809207Y-58469352D02*
X232809207Y-84109352D01*
X238949207Y-84049352D02*
G75*
G03*
X236949207Y-84049352I-1000000J0D01*
G01*
%TO.C,J8*%
X67942929Y-63728000D02*
X68340000Y-63728000D01*
X77000000Y-64488000D02*
X71000000Y-64488000D01*
X65630000Y-57758000D02*
X66900000Y-57758000D01*
X67942929Y-61948000D02*
X68340000Y-61948000D01*
X77000000Y-63728000D02*
X77000000Y-64488000D01*
X71000000Y-65438000D02*
X71000000Y-57698000D01*
X77000000Y-59408000D02*
X71000000Y-59408000D01*
X71000000Y-58708000D02*
X77000000Y-58708000D01*
X68340000Y-57698000D02*
X68340000Y-65438000D01*
X65630000Y-59028000D02*
X65630000Y-57758000D01*
X67942929Y-61188000D02*
X68340000Y-61188000D01*
X68340000Y-60298000D02*
X71000000Y-60298000D01*
X71000000Y-61188000D02*
X77000000Y-61188000D01*
X71000000Y-58948000D02*
X77000000Y-58948000D01*
X71000000Y-57698000D02*
X68340000Y-57698000D01*
X77000000Y-61188000D02*
X77000000Y-61948000D01*
X71000000Y-59068000D02*
X77000000Y-59068000D01*
X77000000Y-58648000D02*
X77000000Y-59408000D01*
X71000000Y-58828000D02*
X77000000Y-58828000D01*
X68010000Y-59408000D02*
X68340000Y-59408000D01*
X68010000Y-58648000D02*
X68340000Y-58648000D01*
X68340000Y-65438000D02*
X71000000Y-65438000D01*
X71000000Y-59308000D02*
X77000000Y-59308000D01*
X71000000Y-58648000D02*
X77000000Y-58648000D01*
X77000000Y-61948000D02*
X71000000Y-61948000D01*
X67942929Y-64488000D02*
X68340000Y-64488000D01*
X68340000Y-62838000D02*
X71000000Y-62838000D01*
X71000000Y-63728000D02*
X77000000Y-63728000D01*
X71000000Y-59188000D02*
X77000000Y-59188000D01*
%TO.C,J18*%
X34966000Y-203843000D02*
X42706000Y-203843000D01*
X37447900Y-212473000D02*
X37447900Y-203843000D01*
X38476000Y-203843000D02*
X38476000Y-203433000D01*
X36385045Y-212473000D02*
X36385045Y-203843000D01*
X35440285Y-212473000D02*
X35440285Y-203843000D01*
X36621235Y-212473000D02*
X36621235Y-203843000D01*
X34966000Y-212473000D02*
X34966000Y-203843000D01*
X37211710Y-212473000D02*
X37211710Y-203843000D01*
X39196000Y-203843000D02*
X39196000Y-203433000D01*
X36030760Y-212473000D02*
X36030760Y-203843000D01*
X36975520Y-212473000D02*
X36975520Y-203843000D01*
X35558380Y-212473000D02*
X35558380Y-203843000D01*
X35912665Y-212473000D02*
X35912665Y-203843000D01*
X35936000Y-203843000D02*
X35936000Y-203493000D01*
X35794570Y-212473000D02*
X35794570Y-203843000D01*
X34966000Y-212473000D02*
X42706000Y-212473000D01*
X36266950Y-212473000D02*
X36266950Y-203843000D01*
X36857425Y-212473000D02*
X36857425Y-203843000D01*
X35086000Y-212473000D02*
X35086000Y-203843000D01*
X34966000Y-202383000D02*
X34966000Y-201273000D01*
X41736000Y-203843000D02*
X41736000Y-203433000D01*
X42706000Y-212473000D02*
X42706000Y-203843000D01*
X37093615Y-212473000D02*
X37093615Y-203843000D01*
X41016000Y-203843000D02*
X41016000Y-203433000D01*
X35204095Y-212473000D02*
X35204095Y-203843000D01*
X40106000Y-212473000D02*
X40106000Y-203843000D01*
X36656000Y-203843000D02*
X36656000Y-203493000D01*
X34966000Y-201273000D02*
X36296000Y-201273000D01*
X35322190Y-212473000D02*
X35322190Y-203843000D01*
X37566000Y-212473000D02*
X37566000Y-203843000D01*
X36739330Y-212473000D02*
X36739330Y-203843000D01*
X35676475Y-212473000D02*
X35676475Y-203843000D01*
X36503140Y-212473000D02*
X36503140Y-203843000D01*
X36148855Y-212473000D02*
X36148855Y-203843000D01*
X37329805Y-212473000D02*
X37329805Y-203843000D01*
%TO.C,U44*%
X214893207Y-159786162D02*
X220893207Y-159786162D01*
X212893207Y-146726162D02*
X217893207Y-146726162D01*
%TO.C,U2*%
X49050000Y-90663000D02*
X38890000Y-90663000D01*
X38890000Y-90663000D02*
X38890000Y-141363000D01*
X38890000Y-141363000D02*
X49050000Y-141363000D01*
X49050000Y-141363000D02*
X49050000Y-90663000D01*
%TO.C,J5*%
X408739511Y-64587011D02*
X408739511Y-61927011D01*
X407089511Y-61927011D02*
X407089511Y-55927011D01*
X409629511Y-64984082D02*
X409629511Y-64587011D01*
X402769511Y-55927011D02*
X402769511Y-61927011D01*
X402009511Y-64917011D02*
X402009511Y-64587011D01*
X404549511Y-61927011D02*
X404549511Y-55927011D01*
X402309511Y-61927011D02*
X402309511Y-55927011D01*
X411339511Y-61927011D02*
X401059511Y-61927011D01*
X410389511Y-64984082D02*
X410389511Y-64587011D01*
X405309511Y-55927011D02*
X405309511Y-61927011D01*
X402389511Y-67297011D02*
X401119511Y-67297011D01*
X402069511Y-61927011D02*
X402069511Y-55927011D01*
X401059511Y-61927011D02*
X401059511Y-64587011D01*
X402769511Y-64917011D02*
X402769511Y-64587011D01*
X406199511Y-64587011D02*
X406199511Y-61927011D01*
X402669511Y-61927011D02*
X402669511Y-55927011D01*
X404549511Y-64984082D02*
X404549511Y-64587011D01*
X407849511Y-55927011D02*
X407849511Y-61927011D01*
X409629511Y-61927011D02*
X409629511Y-55927011D01*
X402549511Y-61927011D02*
X402549511Y-55927011D01*
X409629511Y-55927011D02*
X410389511Y-55927011D01*
X403659511Y-64587011D02*
X403659511Y-61927011D01*
X407849511Y-64984082D02*
X407849511Y-64587011D01*
X401059511Y-64587011D02*
X411339511Y-64587011D01*
X407089511Y-64984082D02*
X407089511Y-64587011D01*
X402009511Y-61927011D02*
X402009511Y-55927011D01*
X401119511Y-67297011D02*
X401119511Y-66027011D01*
X410389511Y-55927011D02*
X410389511Y-61927011D01*
X402189511Y-61927011D02*
X402189511Y-55927011D01*
X411339511Y-64587011D02*
X411339511Y-61927011D01*
X405309511Y-64984082D02*
X405309511Y-64587011D01*
X402429511Y-61927011D02*
X402429511Y-55927011D01*
X404549511Y-55927011D02*
X405309511Y-55927011D01*
X407089511Y-55927011D02*
X407849511Y-55927011D01*
X402009511Y-55927011D02*
X402769511Y-55927011D01*
%TO.C,U12*%
X434784511Y-109642011D02*
X434784511Y-119922011D01*
X434844511Y-112132011D02*
X434844511Y-117432011D01*
X460364511Y-117432011D02*
X460364511Y-115782011D01*
X460424511Y-119922011D02*
X460424511Y-109642011D01*
X434844511Y-117432011D02*
X460364511Y-117432011D01*
X460364511Y-112132011D02*
X434844511Y-112132011D01*
X460364511Y-113782011D02*
X460364511Y-112132011D01*
X434784511Y-119922011D02*
X460424511Y-119922011D01*
X460424511Y-109642011D02*
X434784511Y-109642011D01*
X460364511Y-113782011D02*
G75*
G03*
X460364511Y-115782011I0J-1000000D01*
G01*
%TO.C,U36*%
X174466207Y-58529352D02*
X174466207Y-84049352D01*
X178116207Y-84049352D02*
X179766207Y-84049352D01*
X182256207Y-58469352D02*
X171976207Y-58469352D01*
X174466207Y-84049352D02*
X176116207Y-84049352D01*
X179766207Y-58529352D02*
X174466207Y-58529352D01*
X171976207Y-84109352D02*
X182256207Y-84109352D01*
X179766207Y-84049352D02*
X179766207Y-58529352D01*
X182256207Y-84109352D02*
X182256207Y-58469352D01*
X171976207Y-58469352D02*
X171976207Y-84109352D01*
X178116207Y-84049352D02*
G75*
G03*
X176116207Y-84049352I-1000000J0D01*
G01*
%TO.C,U62*%
X336974717Y-159786162D02*
X342974717Y-159786162D01*
X334974717Y-146726162D02*
X339974717Y-146726162D01*
%TO.C,J7*%
X51246000Y-206690489D02*
X51246000Y-212690489D01*
X51546000Y-206690489D02*
X51546000Y-212690489D01*
X49896000Y-204030489D02*
X49896000Y-206690489D01*
X44756000Y-204030489D02*
X44756000Y-206690489D01*
X46466000Y-212690489D02*
X45706000Y-212690489D01*
X49006000Y-212690489D02*
X48246000Y-212690489D01*
X50786000Y-212690489D02*
X50786000Y-206690489D01*
X48246000Y-212690489D02*
X48246000Y-206690489D01*
X45706000Y-212690489D02*
X45706000Y-206690489D01*
X47356000Y-204030489D02*
X47356000Y-206690489D01*
X45706000Y-203633418D02*
X45706000Y-204030489D01*
X52496000Y-206690489D02*
X52496000Y-204030489D01*
X51486000Y-206690489D02*
X51486000Y-212690489D01*
X49006000Y-203633418D02*
X49006000Y-204030489D01*
X50886000Y-206690489D02*
X50886000Y-212690489D01*
X49006000Y-206690489D02*
X49006000Y-212690489D01*
X52436000Y-201320489D02*
X52436000Y-202590489D01*
X51366000Y-206690489D02*
X51366000Y-212690489D01*
X51006000Y-206690489D02*
X51006000Y-212690489D01*
X46466000Y-203633418D02*
X46466000Y-204030489D01*
X52496000Y-204030489D02*
X44756000Y-204030489D01*
X51546000Y-212690489D02*
X50786000Y-212690489D01*
X51166000Y-201320489D02*
X52436000Y-201320489D01*
X51126000Y-206690489D02*
X51126000Y-212690489D01*
X51546000Y-203700489D02*
X51546000Y-204030489D01*
X44756000Y-206690489D02*
X52496000Y-206690489D01*
X46466000Y-206690489D02*
X46466000Y-212690489D01*
X48246000Y-203633418D02*
X48246000Y-204030489D01*
X50786000Y-203700489D02*
X50786000Y-204030489D01*
%TO.C,J13*%
X37079000Y-43017000D02*
X38409000Y-43017000D01*
X38409000Y-43017000D02*
X38409000Y-44347000D01*
X35749000Y-45617000D02*
X38409000Y-45617000D01*
X38409000Y-45617000D02*
X38409000Y-83777000D01*
X35749000Y-45617000D02*
X35749000Y-83777000D01*
X35749000Y-83777000D02*
X38409000Y-83777000D01*
%TO.C,U59*%
X314527717Y-146726162D02*
X319527717Y-146726162D01*
X316527717Y-159786162D02*
X322527717Y-159786162D01*
%TO.C,J11*%
X200491207Y-207445162D02*
X200491207Y-204785162D01*
X218271207Y-207445162D02*
X218271207Y-204785162D01*
X216621207Y-198785162D02*
X217381207Y-198785162D01*
X234401207Y-198785162D02*
X235161207Y-198785162D01*
X219161207Y-204785162D02*
X219161207Y-198785162D01*
X199601207Y-207842233D02*
X199601207Y-207445162D01*
X222461207Y-198785162D02*
X222461207Y-204785162D01*
X233511207Y-207445162D02*
X233511207Y-204785162D01*
X216621207Y-207842233D02*
X216621207Y-207445162D01*
X224241207Y-204785162D02*
X224241207Y-198785162D01*
X217381207Y-207842233D02*
X217381207Y-207445162D01*
X225891207Y-207445162D02*
X225891207Y-204785162D01*
X229321207Y-198785162D02*
X230081207Y-198785162D01*
X195351207Y-207445162D02*
X236111207Y-207445162D01*
X236111207Y-207445162D02*
X236111207Y-204785162D01*
X229321207Y-207842233D02*
X229321207Y-207445162D01*
X196601207Y-204785162D02*
X196601207Y-198785162D01*
X214841207Y-207842233D02*
X214841207Y-207445162D01*
X222461207Y-207842233D02*
X222461207Y-207445162D01*
X224241207Y-198785162D02*
X225001207Y-198785162D01*
X217381207Y-198785162D02*
X217381207Y-204785162D01*
X195411207Y-210155162D02*
X195411207Y-208885162D01*
X209001207Y-198785162D02*
X209761207Y-198785162D01*
X203031207Y-207445162D02*
X203031207Y-204785162D01*
X225001207Y-198785162D02*
X225001207Y-204785162D01*
X214081207Y-198785162D02*
X214841207Y-198785162D01*
X216621207Y-204785162D02*
X216621207Y-198785162D01*
X214081207Y-207842233D02*
X214081207Y-207445162D01*
X235161207Y-198785162D02*
X235161207Y-204785162D01*
X203921207Y-198785162D02*
X204681207Y-198785162D01*
X224241207Y-207842233D02*
X224241207Y-207445162D01*
X196841207Y-204785162D02*
X196841207Y-198785162D01*
X203921207Y-204785162D02*
X203921207Y-198785162D01*
X197061207Y-198785162D02*
X197061207Y-204785162D01*
X198841207Y-198785162D02*
X199601207Y-198785162D01*
X207221207Y-198785162D02*
X207221207Y-204785162D01*
X201381207Y-207842233D02*
X201381207Y-207445162D01*
X235161207Y-207842233D02*
X235161207Y-207445162D01*
X196301207Y-207775162D02*
X196301207Y-207445162D01*
X227541207Y-207842233D02*
X227541207Y-207445162D01*
X219921207Y-198785162D02*
X219921207Y-204785162D01*
X221701207Y-204785162D02*
X221701207Y-198785162D01*
X234401207Y-204785162D02*
X234401207Y-198785162D01*
X199601207Y-198785162D02*
X199601207Y-204785162D01*
X206461207Y-204785162D02*
X206461207Y-198785162D01*
X209001207Y-207842233D02*
X209001207Y-207445162D01*
X221701207Y-198785162D02*
X222461207Y-198785162D01*
X208111207Y-207445162D02*
X208111207Y-204785162D01*
X227541207Y-198785162D02*
X227541207Y-204785162D01*
X196961207Y-204785162D02*
X196961207Y-198785162D01*
X205571207Y-207445162D02*
X205571207Y-204785162D01*
X232621207Y-198785162D02*
X232621207Y-204785162D01*
X229321207Y-204785162D02*
X229321207Y-198785162D01*
X231861207Y-207842233D02*
X231861207Y-207445162D01*
X232621207Y-207842233D02*
X232621207Y-207445162D01*
X212301207Y-198785162D02*
X212301207Y-204785162D01*
X236111207Y-204785162D02*
X195351207Y-204785162D01*
X215731207Y-207445162D02*
X215731207Y-204785162D01*
X209761207Y-207842233D02*
X209761207Y-207445162D01*
X209001207Y-204785162D02*
X209001207Y-198785162D01*
X196481207Y-204785162D02*
X196481207Y-198785162D01*
X219161207Y-207842233D02*
X219161207Y-207445162D01*
X201381207Y-204785162D02*
X201381207Y-198785162D01*
X211541207Y-207842233D02*
X211541207Y-207445162D01*
X206461207Y-207842233D02*
X206461207Y-207445162D01*
X196721207Y-204785162D02*
X196721207Y-198785162D01*
X201381207Y-198785162D02*
X202141207Y-198785162D01*
X226781207Y-207842233D02*
X226781207Y-207445162D01*
X231861207Y-204785162D02*
X231861207Y-198785162D01*
X213191207Y-207445162D02*
X213191207Y-204785162D01*
X210651207Y-207445162D02*
X210651207Y-204785162D01*
X212301207Y-207842233D02*
X212301207Y-207445162D01*
X225001207Y-207842233D02*
X225001207Y-207445162D01*
X196681207Y-210155162D02*
X195411207Y-210155162D01*
X202141207Y-198785162D02*
X202141207Y-204785162D01*
X221701207Y-207842233D02*
X221701207Y-207445162D01*
X230971207Y-207445162D02*
X230971207Y-204785162D01*
X198841207Y-204785162D02*
X198841207Y-198785162D01*
X196361207Y-204785162D02*
X196361207Y-198785162D01*
X228431207Y-207445162D02*
X228431207Y-204785162D01*
X234401207Y-207842233D02*
X234401207Y-207445162D01*
X219921207Y-207842233D02*
X219921207Y-207445162D01*
X231861207Y-198785162D02*
X232621207Y-198785162D01*
X226781207Y-204785162D02*
X226781207Y-198785162D01*
X214841207Y-198785162D02*
X214841207Y-204785162D01*
X204681207Y-198785162D02*
X204681207Y-204785162D01*
X230081207Y-198785162D02*
X230081207Y-204785162D01*
X220811207Y-207445162D02*
X220811207Y-204785162D01*
X209761207Y-198785162D02*
X209761207Y-204785162D01*
X196301207Y-204785162D02*
X196301207Y-198785162D01*
X197061207Y-207775162D02*
X197061207Y-207445162D01*
X197951207Y-207445162D02*
X197951207Y-204785162D01*
X230081207Y-207842233D02*
X230081207Y-207445162D01*
X214081207Y-204785162D02*
X214081207Y-198785162D01*
X204681207Y-207842233D02*
X204681207Y-207445162D01*
X219161207Y-198785162D02*
X219921207Y-198785162D01*
X207221207Y-207842233D02*
X207221207Y-207445162D01*
X202141207Y-207842233D02*
X202141207Y-207445162D01*
X206461207Y-198785162D02*
X207221207Y-198785162D01*
X195351207Y-204785162D02*
X195351207Y-207445162D01*
X198841207Y-207842233D02*
X198841207Y-207445162D01*
X226781207Y-198785162D02*
X227541207Y-198785162D01*
X196301207Y-198785162D02*
X197061207Y-198785162D01*
X223351207Y-207445162D02*
X223351207Y-204785162D01*
X211541207Y-204785162D02*
X211541207Y-198785162D01*
X203921207Y-207842233D02*
X203921207Y-207445162D01*
X211541207Y-198785162D02*
X212301207Y-198785162D01*
%TO.C,U7*%
X405679511Y-112162011D02*
X405679511Y-117462011D01*
X405619511Y-119952011D02*
X431259511Y-119952011D01*
X431199511Y-117462011D02*
X431199511Y-115812011D01*
X431259511Y-109672011D02*
X405619511Y-109672011D01*
X431199511Y-112162011D02*
X405679511Y-112162011D01*
X431199511Y-113812011D02*
X431199511Y-112162011D01*
X405619511Y-109672011D02*
X405619511Y-119952011D01*
X431259511Y-119952011D02*
X431259511Y-109672011D01*
X405679511Y-117462011D02*
X431199511Y-117462011D01*
X431199511Y-113812011D02*
G75*
G03*
X431199511Y-115812011I0J-1000000D01*
G01*
%TO.C,J4*%
X420569511Y-90042011D02*
X420569511Y-89712011D01*
X420229511Y-87052011D02*
X420229511Y-81052011D01*
X428189511Y-81052011D02*
X428189511Y-87052011D01*
X453589511Y-81052011D02*
X453589511Y-87052011D01*
X509469511Y-90109082D02*
X509469511Y-89712011D01*
X456129511Y-81052011D02*
X456129511Y-87052011D01*
X475689511Y-90109082D02*
X475689511Y-89712011D01*
X432509511Y-90109082D02*
X432509511Y-89712011D01*
X419809511Y-90042011D02*
X419809511Y-89712011D01*
X418859511Y-87052011D02*
X418859511Y-89712011D01*
X470609511Y-90109082D02*
X470609511Y-89712011D01*
X483309511Y-81052011D02*
X484069511Y-81052011D01*
X420349511Y-87052011D02*
X420349511Y-81052011D01*
X420189511Y-92422011D02*
X418919511Y-92422011D01*
X493469511Y-81052011D02*
X494229511Y-81052011D01*
X484959511Y-89712011D02*
X484959511Y-87052011D01*
X463749511Y-90109082D02*
X463749511Y-89712011D01*
X509469511Y-81052011D02*
X509469511Y-87052011D01*
X466289511Y-81052011D02*
X466289511Y-87052011D01*
X435809511Y-81052011D02*
X435809511Y-87052011D01*
X524015551Y-90109082D02*
X524015551Y-89712011D01*
X421459511Y-89712011D02*
X421459511Y-87052011D01*
X468069511Y-81052011D02*
X468829511Y-81052011D01*
X464639511Y-89712011D02*
X464639511Y-87052011D01*
X484069511Y-90109082D02*
X484069511Y-89712011D01*
X490929511Y-81052011D02*
X491689511Y-81052011D01*
X485849511Y-90109082D02*
X485849511Y-89712011D01*
X456129511Y-90109082D02*
X456129511Y-89712011D01*
X491689511Y-81052011D02*
X491689511Y-87052011D01*
X425649511Y-81052011D02*
X425649511Y-87052011D01*
X423109511Y-81052011D02*
X423109511Y-87052011D01*
X432509511Y-81052011D02*
X433269511Y-81052011D01*
X420109511Y-87052011D02*
X420109511Y-81052011D01*
X462099511Y-89712011D02*
X462099511Y-87052011D01*
X470609511Y-81052011D02*
X471369511Y-81052011D01*
X496769511Y-90109082D02*
X496769511Y-89712011D01*
X441779511Y-89712011D02*
X441779511Y-87052011D01*
X493469511Y-87052011D02*
X493469511Y-81052011D01*
X471369511Y-90109082D02*
X471369511Y-89712011D01*
X492579511Y-89712011D02*
X492579511Y-87052011D01*
X483309511Y-87052011D02*
X483309511Y-81052011D01*
X522235551Y-90109082D02*
X522235551Y-89712011D01*
X498549511Y-87052011D02*
X498549511Y-81052011D01*
X468069511Y-90109082D02*
X468069511Y-89712011D01*
X465529511Y-81052011D02*
X466289511Y-81052011D01*
X459559511Y-89712011D02*
X459559511Y-87052011D01*
X518869511Y-81052011D02*
X519629511Y-81052011D01*
X427429511Y-87052011D02*
X427429511Y-81052011D01*
X497659511Y-89712011D02*
X497659511Y-87052011D01*
X423999511Y-89712011D02*
X423999511Y-87052011D01*
X508709511Y-90109082D02*
X508709511Y-89712011D01*
X458669511Y-81052011D02*
X458669511Y-87052011D01*
X502739511Y-89712011D02*
X502739511Y-87052011D01*
X466289511Y-90109082D02*
X466289511Y-89712011D01*
X447749511Y-90109082D02*
X447749511Y-89712011D01*
X510359511Y-89712011D02*
X510359511Y-87052011D01*
X501849511Y-81052011D02*
X501849511Y-87052011D01*
X496009511Y-81052011D02*
X496769511Y-81052011D01*
X476449511Y-90109082D02*
X476449511Y-89712011D01*
X506929511Y-81052011D02*
X506929511Y-87052011D01*
X445209511Y-90109082D02*
X445209511Y-89712011D01*
X451049511Y-81052011D02*
X451049511Y-87052011D01*
X518869511Y-90109082D02*
X518869511Y-89712011D01*
X504389511Y-81052011D02*
X504389511Y-87052011D01*
X506169511Y-81052011D02*
X506929511Y-81052011D01*
X491689511Y-90109082D02*
X491689511Y-89712011D01*
X435049511Y-81052011D02*
X435809511Y-81052011D01*
X422349511Y-81052011D02*
X423109511Y-81052011D01*
X423109511Y-90109082D02*
X423109511Y-89712011D01*
X503629511Y-90109082D02*
X503629511Y-89712011D01*
X490929511Y-87052011D02*
X490929511Y-81052011D01*
X489149511Y-90109082D02*
X489149511Y-89712011D01*
X496769511Y-81052011D02*
X496769511Y-87052011D01*
X512899511Y-89712011D02*
X512899511Y-87052011D01*
X442669511Y-90109082D02*
X442669511Y-89712011D01*
X520585551Y-89712011D02*
X520585551Y-87052011D01*
X473149511Y-90109082D02*
X473149511Y-89712011D01*
X521475551Y-81052011D02*
X522235551Y-81052011D01*
X500199511Y-89712011D02*
X500199511Y-87052011D01*
X504389511Y-90109082D02*
X504389511Y-89712011D01*
X445209511Y-81052011D02*
X445969511Y-81052011D01*
X474799511Y-89712011D02*
X474799511Y-87052011D01*
X430729511Y-90109082D02*
X430729511Y-89712011D01*
X428189511Y-90109082D02*
X428189511Y-89712011D01*
X462989511Y-81052011D02*
X463749511Y-81052011D01*
X435809511Y-90109082D02*
X435809511Y-89712011D01*
X419989511Y-87052011D02*
X419989511Y-81052011D01*
X481529511Y-90109082D02*
X481529511Y-89712011D01*
X516329511Y-90109082D02*
X516329511Y-89712011D01*
X419809511Y-81052011D02*
X420569511Y-81052011D01*
X452829511Y-90109082D02*
X452829511Y-89712011D01*
X488389511Y-81052011D02*
X489149511Y-81052011D01*
X521475551Y-90109082D02*
X521475551Y-89712011D01*
X513789511Y-90109082D02*
X513789511Y-89712011D01*
X485849511Y-87052011D02*
X485849511Y-81052011D01*
X447749511Y-87052011D02*
X447749511Y-81052011D01*
X443429511Y-81052011D02*
X443429511Y-87052011D01*
X427429511Y-90109082D02*
X427429511Y-89712011D01*
X437589511Y-87052011D02*
X437589511Y-81052011D01*
X448509511Y-81052011D02*
X448509511Y-87052011D01*
X468069511Y-87052011D02*
X468069511Y-81052011D01*
X461209511Y-81052011D02*
X461209511Y-87052011D01*
X440129511Y-87052011D02*
X440129511Y-81052011D01*
X516329511Y-87052011D02*
X516329511Y-81052011D01*
X513789511Y-81052011D02*
X514549511Y-81052011D01*
X455369511Y-81052011D02*
X456129511Y-81052011D01*
X521475551Y-87052011D02*
X521475551Y-81052011D01*
X467179511Y-89712011D02*
X467179511Y-87052011D01*
X488389511Y-87052011D02*
X488389511Y-81052011D01*
X458669511Y-90109082D02*
X458669511Y-89712011D01*
X506169511Y-87052011D02*
X506169511Y-81052011D01*
X473149511Y-87052011D02*
X473149511Y-81052011D01*
X479879511Y-89712011D02*
X479879511Y-87052011D01*
X512009511Y-90109082D02*
X512009511Y-89712011D01*
X451939511Y-89712011D02*
X451939511Y-87052011D01*
X454479511Y-89712011D02*
X454479511Y-87052011D01*
X496009511Y-90109082D02*
X496009511Y-89712011D01*
X524015551Y-87052011D02*
X524015551Y-81052011D01*
X438349511Y-90109082D02*
X438349511Y-89712011D01*
X445969511Y-81052011D02*
X445969511Y-87052011D01*
X511249511Y-87052011D02*
X511249511Y-81052011D01*
X418919511Y-92422011D02*
X418919511Y-91152011D01*
X511249511Y-81052011D02*
X512009511Y-81052011D01*
X508709511Y-81052011D02*
X509469511Y-81052011D01*
X425649511Y-90109082D02*
X425649511Y-89712011D01*
X507819511Y-89712011D02*
X507819511Y-87052011D01*
X473909511Y-81052011D02*
X473909511Y-87052011D01*
X427429511Y-81052011D02*
X428189511Y-81052011D01*
X494229511Y-81052011D02*
X494229511Y-87052011D01*
X450289511Y-87052011D02*
X450289511Y-81052011D01*
X426539511Y-89712011D02*
X426539511Y-87052011D01*
X511249511Y-90109082D02*
X511249511Y-89712011D01*
X420469511Y-87052011D02*
X420469511Y-81052011D01*
X453589511Y-90109082D02*
X453589511Y-89712011D01*
X493469511Y-90109082D02*
X493469511Y-89712011D01*
X457909511Y-90109082D02*
X457909511Y-89712011D01*
X498549511Y-90109082D02*
X498549511Y-89712011D01*
X424889511Y-81052011D02*
X425649511Y-81052011D01*
X451049511Y-90109082D02*
X451049511Y-89712011D01*
X442669511Y-81052011D02*
X443429511Y-81052011D01*
X452829511Y-87052011D02*
X452829511Y-81052011D01*
X430729511Y-81052011D02*
X430729511Y-87052011D01*
X506169511Y-90109082D02*
X506169511Y-89712011D01*
X478229511Y-90109082D02*
X478229511Y-89712011D01*
X440129511Y-90109082D02*
X440129511Y-89712011D01*
X523125551Y-89712011D02*
X523125551Y-87052011D01*
X460449511Y-81052011D02*
X461209511Y-81052011D01*
X438349511Y-81052011D02*
X438349511Y-87052011D01*
X442669511Y-87052011D02*
X442669511Y-81052011D01*
X524775551Y-90109082D02*
X524775551Y-89712011D01*
X418859511Y-89712011D02*
X525665551Y-89712011D01*
X447749511Y-81052011D02*
X448509511Y-81052011D01*
X435049511Y-90109082D02*
X435049511Y-89712011D01*
X516329511Y-81052011D02*
X517089511Y-81052011D01*
X433269511Y-81052011D02*
X433269511Y-87052011D01*
X506929511Y-90109082D02*
X506929511Y-89712011D01*
X432509511Y-87052011D02*
X432509511Y-81052011D01*
X519629511Y-90109082D02*
X519629511Y-89712011D01*
X525665551Y-87052011D02*
X418859511Y-87052011D01*
X435049511Y-87052011D02*
X435049511Y-81052011D01*
X429969511Y-81052011D02*
X430729511Y-81052011D01*
X455369511Y-87052011D02*
X455369511Y-81052011D01*
X486609511Y-90109082D02*
X486609511Y-89712011D01*
X455369511Y-90109082D02*
X455369511Y-89712011D01*
X440129511Y-81052011D02*
X440889511Y-81052011D01*
X433269511Y-90109082D02*
X433269511Y-89712011D01*
X429969511Y-87052011D02*
X429969511Y-81052011D01*
X437589511Y-81052011D02*
X438349511Y-81052011D01*
X457909511Y-87052011D02*
X457909511Y-81052011D01*
X484069511Y-81052011D02*
X484069511Y-87052011D01*
X470609511Y-87052011D02*
X470609511Y-81052011D01*
X450289511Y-81052011D02*
X451049511Y-81052011D01*
X482419511Y-89712011D02*
X482419511Y-87052011D01*
X477339511Y-89712011D02*
X477339511Y-87052011D01*
X465529511Y-90109082D02*
X465529511Y-89712011D01*
X517089511Y-81052011D02*
X517089511Y-87052011D01*
X501089511Y-87052011D02*
X501089511Y-81052011D01*
X450289511Y-90109082D02*
X450289511Y-89712011D01*
X508709511Y-87052011D02*
X508709511Y-81052011D01*
X505279511Y-89712011D02*
X505279511Y-87052011D01*
X457019511Y-89712011D02*
X457019511Y-87052011D01*
X436699511Y-89712011D02*
X436699511Y-87052011D01*
X490929511Y-90109082D02*
X490929511Y-89712011D01*
X518869511Y-87052011D02*
X518869511Y-81052011D01*
X462989511Y-87052011D02*
X462989511Y-81052011D01*
X424889511Y-87052011D02*
X424889511Y-81052011D01*
X490039511Y-89712011D02*
X490039511Y-87052011D01*
X481529511Y-81052011D02*
X481529511Y-87052011D01*
X480769511Y-90109082D02*
X480769511Y-89712011D01*
X457909511Y-81052011D02*
X458669511Y-81052011D01*
X472259511Y-89712011D02*
X472259511Y-87052011D01*
X480769511Y-81052011D02*
X481529511Y-81052011D01*
X478989511Y-90109082D02*
X478989511Y-89712011D01*
X483309511Y-90109082D02*
X483309511Y-89712011D01*
X431619511Y-89712011D02*
X431619511Y-87052011D01*
X462989511Y-90109082D02*
X462989511Y-89712011D01*
X475689511Y-87052011D02*
X475689511Y-81052011D01*
X422349511Y-87052011D02*
X422349511Y-81052011D01*
X445209511Y-87052011D02*
X445209511Y-81052011D01*
X463749511Y-81052011D02*
X463749511Y-87052011D01*
X496009511Y-87052011D02*
X496009511Y-81052011D01*
X486609511Y-81052011D02*
X486609511Y-87052011D01*
X501089511Y-81052011D02*
X501849511Y-81052011D01*
X419809511Y-87052011D02*
X419809511Y-81052011D01*
X478989511Y-81052011D02*
X478989511Y-87052011D01*
X519629511Y-81052011D02*
X519629511Y-87052011D01*
X524015551Y-81052011D02*
X524775551Y-81052011D01*
X476449511Y-81052011D02*
X476449511Y-87052011D01*
X465529511Y-87052011D02*
X465529511Y-81052011D01*
X514549511Y-90109082D02*
X514549511Y-89712011D01*
X498549511Y-81052011D02*
X499309511Y-81052011D01*
X469719511Y-89712011D02*
X469719511Y-87052011D01*
X452829511Y-81052011D02*
X453589511Y-81052011D01*
X514549511Y-81052011D02*
X514549511Y-87052011D01*
X424889511Y-90109082D02*
X424889511Y-89712011D01*
X429969511Y-90109082D02*
X429969511Y-89712011D01*
X439239511Y-89712011D02*
X439239511Y-87052011D01*
X499309511Y-81052011D02*
X499309511Y-87052011D01*
X419869511Y-87052011D02*
X419869511Y-81052011D01*
X485849511Y-81052011D02*
X486609511Y-81052011D01*
X517979511Y-89712011D02*
X517979511Y-87052011D01*
X440889511Y-90109082D02*
X440889511Y-89712011D01*
X515439511Y-89712011D02*
X515439511Y-87052011D01*
X437589511Y-90109082D02*
X437589511Y-89712011D01*
X513789511Y-87052011D02*
X513789511Y-81052011D01*
X503629511Y-81052011D02*
X504389511Y-81052011D01*
X440889511Y-81052011D02*
X440889511Y-87052011D01*
X461209511Y-90109082D02*
X461209511Y-89712011D01*
X489149511Y-81052011D02*
X489149511Y-87052011D01*
X468829511Y-90109082D02*
X468829511Y-89712011D01*
X449399511Y-89712011D02*
X449399511Y-87052011D01*
X475689511Y-81052011D02*
X476449511Y-81052011D01*
X494229511Y-90109082D02*
X494229511Y-89712011D01*
X522235551Y-81052011D02*
X522235551Y-87052011D01*
X480769511Y-87052011D02*
X480769511Y-81052011D01*
X478229511Y-87052011D02*
X478229511Y-81052011D01*
X512009511Y-81052011D02*
X512009511Y-87052011D01*
X473909511Y-90109082D02*
X473909511Y-89712011D01*
X488389511Y-90109082D02*
X488389511Y-89712011D01*
X444319511Y-89712011D02*
X444319511Y-87052011D01*
X446859511Y-89712011D02*
X446859511Y-87052011D01*
X495119511Y-89712011D02*
X495119511Y-87052011D01*
X503629511Y-87052011D02*
X503629511Y-81052011D01*
X422349511Y-90109082D02*
X422349511Y-89712011D01*
X517089511Y-90109082D02*
X517089511Y-89712011D01*
X445969511Y-90109082D02*
X445969511Y-89712011D01*
X525665551Y-89712011D02*
X525665551Y-87052011D01*
X501089511Y-90109082D02*
X501089511Y-89712011D01*
X471369511Y-81052011D02*
X471369511Y-87052011D01*
X460449511Y-87052011D02*
X460449511Y-81052011D01*
X501849511Y-90109082D02*
X501849511Y-89712011D01*
X460449511Y-90109082D02*
X460449511Y-89712011D01*
X420569511Y-81052011D02*
X420569511Y-87052011D01*
X478229511Y-81052011D02*
X478989511Y-81052011D01*
X487499511Y-89712011D02*
X487499511Y-87052011D01*
X473149511Y-81052011D02*
X473909511Y-81052011D01*
X443429511Y-90109082D02*
X443429511Y-89712011D01*
X499309511Y-90109082D02*
X499309511Y-89712011D01*
X468829511Y-81052011D02*
X468829511Y-87052011D01*
X429079511Y-89712011D02*
X429079511Y-87052011D01*
X448509511Y-90109082D02*
X448509511Y-89712011D01*
X524775551Y-81052011D02*
X524775551Y-87052011D01*
X434159511Y-89712011D02*
X434159511Y-87052011D01*
%TO.C,J9*%
X123973207Y-209418417D02*
X123973207Y-206758417D01*
X85813207Y-206758417D02*
X123973207Y-206758417D01*
X85813207Y-209418417D02*
X85813207Y-206758417D01*
X83213207Y-208088417D02*
X83213207Y-206758417D01*
X85813207Y-209418417D02*
X123973207Y-209418417D01*
X83213207Y-206758417D02*
X84543207Y-206758417D01*
%TO.C,U68*%
X444704511Y-43802011D02*
X444704511Y-33522011D01*
X444644511Y-36012011D02*
X426744511Y-36012011D01*
X426744511Y-41312011D02*
X444644511Y-41312011D01*
X426744511Y-36012011D02*
X426744511Y-41312011D01*
X444704511Y-33522011D02*
X426684511Y-33522011D01*
X426684511Y-43802011D02*
X444704511Y-43802011D01*
X444644511Y-41312011D02*
X444644511Y-39662011D01*
X444644511Y-37662011D02*
X444644511Y-36012011D01*
X426684511Y-33522011D02*
X426684511Y-43802011D01*
X444644511Y-37662011D02*
G75*
G03*
X444644511Y-39662011I0J-1000000D01*
G01*
%TO.C,J16*%
X409055000Y-54260000D02*
X409175000Y-54260000D01*
X406515000Y-51600000D02*
X407845000Y-51600000D01*
X406515000Y-52930000D02*
X406515000Y-51600000D01*
X409055000Y-51600000D02*
X409175000Y-51600000D01*
X409175000Y-54260000D02*
X409175000Y-51600000D01*
%TO.C,U29*%
X156776000Y-202793000D02*
X156776000Y-201143000D01*
X156836000Y-208933000D02*
X156836000Y-198653000D01*
X156776000Y-206443000D02*
X156776000Y-204793000D01*
X138876000Y-206443000D02*
X156776000Y-206443000D01*
X138816000Y-208933000D02*
X156836000Y-208933000D01*
X156776000Y-201143000D02*
X138876000Y-201143000D01*
X138876000Y-201143000D02*
X138876000Y-206443000D01*
X156836000Y-198653000D02*
X138816000Y-198653000D01*
X138816000Y-198653000D02*
X138816000Y-208933000D01*
X156776000Y-202793000D02*
G75*
G03*
X156776000Y-204793000I0J-1000000D01*
G01*
%TO.C,U16*%
X55115000Y-211079489D02*
X75675000Y-211079489D01*
X75615000Y-203289489D02*
X55175000Y-203289489D01*
X75675000Y-211079489D02*
X75675000Y-200799489D01*
X55115000Y-200799489D02*
X55115000Y-211079489D01*
X55175000Y-206939489D02*
X55175000Y-208589489D01*
X75615000Y-208589489D02*
X75615000Y-203289489D01*
X55175000Y-203289489D02*
X55175000Y-204939489D01*
X75675000Y-200799489D02*
X55115000Y-200799489D01*
X55175000Y-208589489D02*
X75615000Y-208589489D01*
X55175000Y-206939489D02*
G75*
G03*
X55175000Y-204939489I0J1000000D01*
G01*
%TO.C,U1*%
X415549511Y-52597011D02*
X420849511Y-52597011D01*
X413059511Y-52657011D02*
X423339511Y-52657011D01*
X420849511Y-52597011D02*
X420849511Y-34697011D01*
X417199511Y-34697011D02*
X415549511Y-34697011D01*
X420849511Y-34697011D02*
X419199511Y-34697011D01*
X423339511Y-52657011D02*
X423339511Y-34637011D01*
X413059511Y-34637011D02*
X413059511Y-52657011D01*
X415549511Y-34697011D02*
X415549511Y-52597011D01*
X423339511Y-34637011D02*
X413059511Y-34637011D01*
X417199511Y-34697011D02*
G75*
G03*
X419199511Y-34697011I1000000J0D01*
G01*
%TO.C,U48*%
X260707207Y-58661352D02*
X255407207Y-58661352D01*
X255407207Y-84181352D02*
X257057207Y-84181352D01*
X255407207Y-58661352D02*
X255407207Y-84181352D01*
X263197207Y-84241352D02*
X263197207Y-58601352D01*
X252917207Y-58601352D02*
X252917207Y-84241352D01*
X260707207Y-84181352D02*
X260707207Y-58661352D01*
X252917207Y-84241352D02*
X263197207Y-84241352D01*
X263197207Y-58601352D02*
X252917207Y-58601352D01*
X259057207Y-84181352D02*
X260707207Y-84181352D01*
X259057207Y-84181352D02*
G75*
G03*
X257057207Y-84181352I-1000000J0D01*
G01*
%TO.C,U39*%
X202068207Y-84109352D02*
X202068207Y-58469352D01*
X202068207Y-58469352D02*
X191788207Y-58469352D01*
X199578207Y-58529352D02*
X194278207Y-58529352D01*
X191788207Y-84109352D02*
X202068207Y-84109352D01*
X194278207Y-84049352D02*
X195928207Y-84049352D01*
X191788207Y-58469352D02*
X191788207Y-84109352D01*
X199578207Y-84049352D02*
X199578207Y-58529352D01*
X197928207Y-84049352D02*
X199578207Y-84049352D01*
X194278207Y-58529352D02*
X194278207Y-84049352D01*
X197928207Y-84049352D02*
G75*
G03*
X195928207Y-84049352I-1000000J0D01*
G01*
%TO.C,U37*%
X173904207Y-90291352D02*
X178904207Y-90291352D01*
X175904207Y-103351352D02*
X181904207Y-103351352D01*
%TO.C,U63*%
X191346207Y-210964162D02*
X186346207Y-210964162D01*
X189346207Y-197904162D02*
X183346207Y-197904162D01*
%TO.C,R6*%
X493109511Y-98152011D02*
X490849511Y-98152011D01*
X496549511Y-98152011D02*
G75*
G03*
X496549511Y-98152011I-1720000J0D01*
G01*
%TO.C,U26*%
X114055207Y-159786162D02*
X120055207Y-159786162D01*
X112055207Y-146726162D02*
X117055207Y-146726162D01*
%TO.C,U53*%
X273980207Y-146726162D02*
X278980207Y-146726162D01*
X275980207Y-159786162D02*
X281980207Y-159786162D01*
%TO.C,U21*%
X91608207Y-146726162D02*
X96608207Y-146726162D01*
X93608207Y-159786162D02*
X99608207Y-159786162D01*
%TO.C,U22*%
X121306207Y-58347352D02*
X111026207Y-58347352D01*
X117166207Y-83927352D02*
X118816207Y-83927352D01*
X113516207Y-58407352D02*
X113516207Y-83927352D01*
X121306207Y-83987352D02*
X121306207Y-58347352D01*
X111026207Y-83987352D02*
X121306207Y-83987352D01*
X118816207Y-83927352D02*
X118816207Y-58407352D01*
X118816207Y-58407352D02*
X113516207Y-58407352D01*
X111026207Y-58347352D02*
X111026207Y-83987352D01*
X113516207Y-83927352D02*
X115166207Y-83927352D01*
X117166207Y-83927352D02*
G75*
G03*
X115166207Y-83927352I-1000000J0D01*
G01*
%TO.C,J2*%
X370172717Y-171680162D02*
X371502717Y-171680162D01*
X370172717Y-173010162D02*
X370172717Y-171680162D01*
X372832717Y-174280162D02*
X372832717Y-212440162D01*
X370172717Y-174280162D02*
X372832717Y-174280162D01*
X370172717Y-212440162D02*
X372832717Y-212440162D01*
X370172717Y-174280162D02*
X370172717Y-212440162D01*
%TO.C,J17*%
X131651000Y-209953000D02*
X131651000Y-211283000D01*
X128991000Y-212493000D02*
X128991000Y-212613000D01*
X128991000Y-212613000D02*
X131651000Y-212613000D01*
X131651000Y-212493000D02*
X131651000Y-212613000D01*
X130321000Y-209953000D02*
X131651000Y-209953000D01*
%TO.C,U17*%
X81876000Y-72609000D02*
X61436000Y-72609000D01*
X61376000Y-80399000D02*
X81936000Y-80399000D01*
X61436000Y-72609000D02*
X61436000Y-74259000D01*
X81876000Y-77909000D02*
X81876000Y-72609000D01*
X61436000Y-76259000D02*
X61436000Y-77909000D01*
X81936000Y-80399000D02*
X81936000Y-70119000D01*
X61376000Y-70119000D02*
X61376000Y-80399000D01*
X81936000Y-70119000D02*
X61376000Y-70119000D01*
X61436000Y-77909000D02*
X81876000Y-77909000D01*
X61436000Y-76259000D02*
G75*
G03*
X61436000Y-74259000I0J1000000D01*
G01*
%TO.C,U3*%
X48829000Y-150049000D02*
X38669000Y-150049000D01*
X38669000Y-150049000D02*
X38669000Y-200749000D01*
X38669000Y-200749000D02*
X48829000Y-200749000D01*
X48829000Y-200749000D02*
X48829000Y-150049000D01*
%TO.C,U47*%
X232959207Y-146726162D02*
X237959207Y-146726162D01*
X234959207Y-159786162D02*
X240959207Y-159786162D01*
%TO.C,U56*%
X294334717Y-146726162D02*
X299334717Y-146726162D01*
X296334717Y-159786162D02*
X302334717Y-159786162D01*
%TO.C,J12*%
X358360717Y-200936300D02*
X358360717Y-206936300D01*
X349980717Y-206936300D02*
X349980717Y-200936300D01*
X359250717Y-209596300D02*
X359250717Y-206936300D01*
X357600717Y-206936300D02*
X357600717Y-200936300D01*
X332960717Y-209993371D02*
X332960717Y-209596300D01*
X327180717Y-206936300D02*
X327180717Y-200936300D01*
X332200717Y-209993371D02*
X332200717Y-209596300D01*
X332200717Y-206936300D02*
X332200717Y-200936300D01*
X353280717Y-209993371D02*
X353280717Y-209596300D01*
X327300717Y-206936300D02*
X327300717Y-200936300D01*
X338040717Y-200936300D02*
X338040717Y-206936300D01*
X350740717Y-200936300D02*
X350740717Y-206936300D01*
X351630717Y-209596300D02*
X351630717Y-206936300D01*
X360140717Y-209993371D02*
X360140717Y-209596300D01*
X334740717Y-200936300D02*
X335500717Y-200936300D01*
X327540717Y-206936300D02*
X327540717Y-200936300D01*
X365980717Y-200936300D02*
X365980717Y-206936300D01*
X326170717Y-206936300D02*
X326170717Y-209596300D01*
X355820717Y-209993371D02*
X355820717Y-209596300D01*
X327880717Y-209926300D02*
X327880717Y-209596300D01*
X366930717Y-206936300D02*
X326170717Y-206936300D01*
X342360717Y-209993371D02*
X342360717Y-209596300D01*
X327120717Y-200936300D02*
X327880717Y-200936300D01*
X327660717Y-206936300D02*
X327660717Y-200936300D01*
X326230717Y-212306300D02*
X326230717Y-211036300D01*
X335500717Y-200936300D02*
X335500717Y-206936300D01*
X349980717Y-209993371D02*
X349980717Y-209596300D01*
X363440717Y-209993371D02*
X363440717Y-209596300D01*
X366930717Y-209596300D02*
X366930717Y-206936300D01*
X345660717Y-209993371D02*
X345660717Y-209596300D01*
X349090717Y-209596300D02*
X349090717Y-206936300D01*
X328770717Y-209596300D02*
X328770717Y-206936300D01*
X338930717Y-209596300D02*
X338930717Y-206936300D01*
X365980717Y-209993371D02*
X365980717Y-209596300D01*
X327500717Y-212306300D02*
X326230717Y-212306300D01*
X353280717Y-200936300D02*
X353280717Y-206936300D01*
X336390717Y-209596300D02*
X336390717Y-206936300D01*
X355060717Y-200936300D02*
X355820717Y-200936300D01*
X342360717Y-206936300D02*
X342360717Y-200936300D01*
X365220717Y-200936300D02*
X365980717Y-200936300D01*
X344010717Y-209596300D02*
X344010717Y-206936300D01*
X337280717Y-206936300D02*
X337280717Y-200936300D01*
X357600717Y-200936300D02*
X358360717Y-200936300D01*
X344900717Y-206936300D02*
X344900717Y-200936300D01*
X362680717Y-209993371D02*
X362680717Y-209596300D01*
X360140717Y-200936300D02*
X360900717Y-200936300D01*
X327120717Y-209926300D02*
X327120717Y-209596300D01*
X339820717Y-206936300D02*
X339820717Y-200936300D01*
X352520717Y-209993371D02*
X352520717Y-209596300D01*
X356710717Y-209596300D02*
X356710717Y-206936300D01*
X330420717Y-200936300D02*
X330420717Y-206936300D01*
X337280717Y-200936300D02*
X338040717Y-200936300D01*
X347440717Y-206936300D02*
X347440717Y-200936300D01*
X341470717Y-209596300D02*
X341470717Y-206936300D01*
X355820717Y-200936300D02*
X355820717Y-206936300D01*
X337280717Y-209993371D02*
X337280717Y-209596300D01*
X327120717Y-206936300D02*
X327120717Y-200936300D01*
X327880717Y-200936300D02*
X327880717Y-206936300D01*
X363440717Y-200936300D02*
X363440717Y-206936300D01*
X327420717Y-206936300D02*
X327420717Y-200936300D01*
X343120717Y-209993371D02*
X343120717Y-209596300D01*
X365220717Y-209993371D02*
X365220717Y-209596300D01*
X330420717Y-209993371D02*
X330420717Y-209596300D01*
X329660717Y-200936300D02*
X330420717Y-200936300D01*
X352520717Y-206936300D02*
X352520717Y-200936300D01*
X335500717Y-209993371D02*
X335500717Y-209596300D01*
X333850717Y-209596300D02*
X333850717Y-206936300D01*
X348200717Y-209993371D02*
X348200717Y-209596300D01*
X334740717Y-206936300D02*
X334740717Y-200936300D01*
X362680717Y-200936300D02*
X363440717Y-200936300D01*
X360900717Y-209993371D02*
X360900717Y-209596300D01*
X364330717Y-209596300D02*
X364330717Y-206936300D01*
X326170717Y-209596300D02*
X366930717Y-209596300D01*
X355060717Y-206936300D02*
X355060717Y-200936300D01*
X339820717Y-200936300D02*
X340580717Y-200936300D01*
X340580717Y-200936300D02*
X340580717Y-206936300D01*
X332200717Y-200936300D02*
X332960717Y-200936300D01*
X357600717Y-209993371D02*
X357600717Y-209596300D01*
X342360717Y-200936300D02*
X343120717Y-200936300D01*
X360900717Y-200936300D02*
X360900717Y-206936300D01*
X355060717Y-209993371D02*
X355060717Y-209596300D01*
X346550717Y-209596300D02*
X346550717Y-206936300D01*
X332960717Y-200936300D02*
X332960717Y-206936300D01*
X343120717Y-200936300D02*
X343120717Y-206936300D01*
X354170717Y-209596300D02*
X354170717Y-206936300D01*
X361790717Y-209596300D02*
X361790717Y-206936300D01*
X352520717Y-200936300D02*
X353280717Y-200936300D01*
X340580717Y-209993371D02*
X340580717Y-209596300D01*
X347440717Y-200936300D02*
X348200717Y-200936300D01*
X344900717Y-200936300D02*
X345660717Y-200936300D01*
X327780717Y-206936300D02*
X327780717Y-200936300D01*
X334740717Y-209993371D02*
X334740717Y-209596300D01*
X345660717Y-200936300D02*
X345660717Y-206936300D01*
X329660717Y-209993371D02*
X329660717Y-209596300D01*
X365220717Y-206936300D02*
X365220717Y-200936300D01*
X344900717Y-209993371D02*
X344900717Y-209596300D01*
X349980717Y-200936300D02*
X350740717Y-200936300D01*
X348200717Y-200936300D02*
X348200717Y-206936300D01*
X360140717Y-206936300D02*
X360140717Y-200936300D01*
X362680717Y-206936300D02*
X362680717Y-200936300D01*
X358360717Y-209993371D02*
X358360717Y-209596300D01*
X331310717Y-209596300D02*
X331310717Y-206936300D01*
X350740717Y-209993371D02*
X350740717Y-209596300D01*
X347440717Y-209993371D02*
X347440717Y-209596300D01*
X338040717Y-209993371D02*
X338040717Y-209596300D01*
X329660717Y-206936300D02*
X329660717Y-200936300D01*
X339820717Y-209993371D02*
X339820717Y-209596300D01*
%TO.C,U50*%
X255533207Y-159786162D02*
X261533207Y-159786162D01*
X253533207Y-146726162D02*
X258533207Y-146726162D01*
%TO.C,J15*%
X34491000Y-41283000D02*
X34491000Y-39953000D01*
X37091000Y-42613000D02*
X65091000Y-42613000D01*
X37091000Y-42613000D02*
X37091000Y-39953000D01*
X65091000Y-42613000D02*
X65091000Y-39953000D01*
X34491000Y-39953000D02*
X35821000Y-39953000D01*
X37091000Y-39953000D02*
X65091000Y-39953000D01*
%TO.C,U38*%
X174507207Y-159786162D02*
X180507207Y-159786162D01*
X172507207Y-146726162D02*
X177507207Y-146726162D01*
%TO.C,U18*%
X101357207Y-83982352D02*
X101357207Y-58342352D01*
X91077207Y-58342352D02*
X91077207Y-83982352D01*
X91077207Y-83982352D02*
X101357207Y-83982352D01*
X98867207Y-83922352D02*
X98867207Y-58402352D01*
X98867207Y-58402352D02*
X93567207Y-58402352D01*
X93567207Y-83922352D02*
X95217207Y-83922352D01*
X101357207Y-58342352D02*
X91077207Y-58342352D01*
X93567207Y-58402352D02*
X93567207Y-83922352D01*
X97217207Y-83922352D02*
X98867207Y-83922352D01*
X97217207Y-83922352D02*
G75*
G03*
X95217207Y-83922352I-1000000J0D01*
G01*
%TO.C,U19*%
X470699511Y-56422011D02*
X469049511Y-56422011D01*
X466559511Y-56362011D02*
X466559511Y-76922011D01*
X466559511Y-76922011D02*
X476839511Y-76922011D01*
X476839511Y-76922011D02*
X476839511Y-56362011D01*
X474349511Y-76862011D02*
X474349511Y-56422011D01*
X469049511Y-76862011D02*
X474349511Y-76862011D01*
X469049511Y-56422011D02*
X469049511Y-76862011D01*
X476839511Y-56362011D02*
X466559511Y-56362011D01*
X474349511Y-56422011D02*
X472699511Y-56422011D01*
X470699511Y-56422011D02*
G75*
G03*
X472699511Y-56422011I1000000J0D01*
G01*
%TO.C,U66*%
X357294717Y-159786162D02*
X363294717Y-159786162D01*
X355294717Y-146726162D02*
X360294717Y-146726162D01*
%TO.C,U23*%
X481849511Y-76762011D02*
X487149511Y-76762011D01*
X487149511Y-56322011D02*
X485499511Y-56322011D01*
X489639511Y-56262011D02*
X479359511Y-56262011D01*
X483499511Y-56322011D02*
X481849511Y-56322011D01*
X489639511Y-76822011D02*
X489639511Y-56262011D01*
X481849511Y-56322011D02*
X481849511Y-76762011D01*
X479359511Y-76822011D02*
X489639511Y-76822011D01*
X479359511Y-56262011D02*
X479359511Y-76822011D01*
X487149511Y-76762011D02*
X487149511Y-56322011D01*
X483499511Y-56322011D02*
G75*
G03*
X485499511Y-56322011I1000000J0D01*
G01*
%TO.C,U25*%
X115198207Y-103351352D02*
X121198207Y-103351352D01*
X113198207Y-90291352D02*
X118198207Y-90291352D01*
%TO.C,J1*%
X375332717Y-118139352D02*
X375332717Y-156299352D01*
X372672717Y-156299352D02*
X375332717Y-156299352D01*
X372672717Y-118139352D02*
X372672717Y-156299352D01*
X372672717Y-118139352D02*
X375332717Y-118139352D01*
X372672717Y-116869352D02*
X372672717Y-115539352D01*
X372672717Y-115539352D02*
X374002717Y-115539352D01*
%TO.C,U42*%
X214979207Y-58529352D02*
X214979207Y-84049352D01*
X212489207Y-84109352D02*
X222769207Y-84109352D01*
X222769207Y-58469352D02*
X212489207Y-58469352D01*
X214979207Y-84049352D02*
X216629207Y-84049352D01*
X220279207Y-84049352D02*
X220279207Y-58529352D01*
X222769207Y-84109352D02*
X222769207Y-58469352D01*
X218629207Y-84049352D02*
X220279207Y-84049352D01*
X220279207Y-58529352D02*
X214979207Y-58529352D01*
X212489207Y-58469352D02*
X212489207Y-84109352D01*
X218629207Y-84049352D02*
G75*
G03*
X216629207Y-84049352I-1000000J0D01*
G01*
%TO.C,R5*%
X493109511Y-102152011D02*
X490849511Y-102152011D01*
X496549511Y-102152011D02*
G75*
G03*
X496549511Y-102152011I-1720000J0D01*
G01*
%TO.C,U20*%
X92878207Y-90291352D02*
X97878207Y-90291352D01*
X94878207Y-103351352D02*
X100878207Y-103351352D01*
%TO.C,U10*%
X63401000Y-159566810D02*
X66051000Y-159566810D01*
X63401000Y-146746810D02*
X58951000Y-146746810D01*
X63401000Y-146746810D02*
X66051000Y-146746810D01*
X63401000Y-159566810D02*
X60751000Y-159566810D01*
%TO.C,U34*%
X155711207Y-103351352D02*
X161711207Y-103351352D01*
X153711207Y-90291352D02*
X158711207Y-90291352D01*
%TO.C,R7*%
X504265000Y-36430000D02*
X502005000Y-36430000D01*
X507705000Y-36430000D02*
G75*
G03*
X507705000Y-36430000I-1720000J0D01*
G01*
%TO.C,U58*%
X317851970Y-103351352D02*
X323851970Y-103351352D01*
X315851970Y-90291352D02*
X320851970Y-90291352D01*
%TO.C,R1*%
X36412244Y-136083244D02*
X36412244Y-138343244D01*
X38132244Y-134363244D02*
G75*
G03*
X38132244Y-134363244I-1720000J0D01*
G01*
%TO.C,U15*%
X72371000Y-146626810D02*
X77371000Y-146626810D01*
X74371000Y-159686810D02*
X80371000Y-159686810D01*
%TO.C,U52*%
X274869207Y-90291352D02*
X279869207Y-90291352D01*
X276869207Y-103351352D02*
X282869207Y-103351352D01*
%TO.C,U9*%
X63655000Y-89550000D02*
X59205000Y-89550000D01*
X63655000Y-102370000D02*
X61005000Y-102370000D01*
X63655000Y-102370000D02*
X66305000Y-102370000D01*
X63655000Y-89550000D02*
X66305000Y-89550000D01*
%TO.C,U33*%
X154527207Y-83922352D02*
X156177207Y-83922352D01*
X152037207Y-83982352D02*
X162317207Y-83982352D01*
X152037207Y-58342352D02*
X152037207Y-83982352D01*
X159827207Y-83922352D02*
X159827207Y-58402352D01*
X162317207Y-58342352D02*
X152037207Y-58342352D01*
X162317207Y-83982352D02*
X162317207Y-58342352D01*
X159827207Y-58402352D02*
X154527207Y-58402352D01*
X158177207Y-83922352D02*
X159827207Y-83922352D01*
X154527207Y-58402352D02*
X154527207Y-83922352D01*
X158177207Y-83922352D02*
G75*
G03*
X156177207Y-83922352I-1000000J0D01*
G01*
%TO.C,U49*%
X254549207Y-90291352D02*
X259549207Y-90291352D01*
X256549207Y-103351352D02*
X262549207Y-103351352D01*
%TO.C,U27*%
X466144511Y-36012011D02*
X448244511Y-36012011D01*
X466144511Y-41312011D02*
X466144511Y-39662011D01*
X448184511Y-33522011D02*
X448184511Y-43802011D01*
X466144511Y-37662011D02*
X466144511Y-36012011D01*
X466204511Y-43802011D02*
X466204511Y-33522011D01*
X448244511Y-36012011D02*
X448244511Y-41312011D01*
X466204511Y-33522011D02*
X448184511Y-33522011D01*
X448184511Y-43802011D02*
X466204511Y-43802011D01*
X448244511Y-41312011D02*
X466144511Y-41312011D01*
X466144511Y-37662011D02*
G75*
G03*
X466144511Y-39662011I0J-1000000D01*
G01*
%TO.C,U65*%
X358564717Y-103351352D02*
X364564717Y-103351352D01*
X356564717Y-90291352D02*
X361564717Y-90291352D01*
%TO.C,U60*%
X334352717Y-84174352D02*
X344632717Y-84174352D01*
X336842717Y-58594352D02*
X336842717Y-84114352D01*
X334352717Y-58534352D02*
X334352717Y-84174352D01*
X344632717Y-84174352D02*
X344632717Y-58534352D01*
X340492717Y-84114352D02*
X342142717Y-84114352D01*
X342142717Y-84114352D02*
X342142717Y-58594352D01*
X342142717Y-58594352D02*
X336842717Y-58594352D01*
X336842717Y-84114352D02*
X338492717Y-84114352D01*
X344632717Y-58534352D02*
X334352717Y-58534352D01*
X340492717Y-84114352D02*
G75*
G03*
X338492717Y-84114352I-1000000J0D01*
G01*
%TO.C,U57*%
X316232717Y-84176352D02*
X317882717Y-84176352D01*
X313742717Y-58596352D02*
X313742717Y-84236352D01*
X321532717Y-58656352D02*
X316232717Y-58656352D01*
X324022717Y-58596352D02*
X313742717Y-58596352D01*
X316232717Y-58656352D02*
X316232717Y-84176352D01*
X324022717Y-84236352D02*
X324022717Y-58596352D01*
X319882717Y-84176352D02*
X321532717Y-84176352D01*
X313742717Y-84236352D02*
X324022717Y-84236352D01*
X321532717Y-84176352D02*
X321532717Y-58656352D01*
X319882717Y-84176352D02*
G75*
G03*
X317882717Y-84176352I-1000000J0D01*
G01*
%TO.C,J6*%
X30551000Y-41283000D02*
X30551000Y-40013000D01*
X30551000Y-40013000D02*
X31821000Y-40013000D01*
%TO.C,U31*%
X135264207Y-103351352D02*
X141264207Y-103351352D01*
X133264207Y-90291352D02*
X138264207Y-90291352D01*
%TO.C,U35*%
X154441207Y-159786162D02*
X160441207Y-159786162D01*
X152441207Y-146726162D02*
X157441207Y-146726162D01*
%TO.C,U55*%
X297531970Y-103351352D02*
X303531970Y-103351352D01*
X295531970Y-90291352D02*
X300531970Y-90291352D01*
%TO.C,R2*%
X36409000Y-196141084D02*
X36409000Y-198401084D01*
X38129000Y-194421084D02*
G75*
G03*
X38129000Y-194421084I-1720000J0D01*
G01*
%TO.C,U14*%
X73133000Y-89557000D02*
X78133000Y-89557000D01*
X75133000Y-102617000D02*
X81133000Y-102617000D01*
%TO.C,U28*%
X142317207Y-58342352D02*
X132037207Y-58342352D01*
X139827207Y-83922352D02*
X139827207Y-58402352D01*
X132037207Y-58342352D02*
X132037207Y-83982352D01*
X138177207Y-83922352D02*
X139827207Y-83922352D01*
X142317207Y-83982352D02*
X142317207Y-58342352D01*
X134527207Y-83922352D02*
X136177207Y-83922352D01*
X134527207Y-58402352D02*
X134527207Y-83922352D01*
X139827207Y-58402352D02*
X134527207Y-58402352D01*
X132037207Y-83982352D02*
X142317207Y-83982352D01*
X138177207Y-83922352D02*
G75*
G03*
X136177207Y-83922352I-1000000J0D01*
G01*
%TO.C,U40*%
X196097207Y-103351352D02*
X202097207Y-103351352D01*
X194097207Y-90291352D02*
X199097207Y-90291352D01*
%TO.C,U46*%
X234356207Y-90291352D02*
X239356207Y-90291352D01*
X236356207Y-103351352D02*
X242356207Y-103351352D01*
%TO.C,U61*%
X336244717Y-90291352D02*
X341244717Y-90291352D01*
X338244717Y-103351352D02*
X344244717Y-103351352D01*
%TO.C,U5*%
X450839511Y-56362011D02*
X440559511Y-56362011D01*
X440559511Y-56362011D02*
X440559511Y-76922011D01*
X444699511Y-56422011D02*
X443049511Y-56422011D01*
X443049511Y-76862011D02*
X448349511Y-76862011D01*
X448349511Y-56422011D02*
X446699511Y-56422011D01*
X443049511Y-56422011D02*
X443049511Y-76862011D01*
X450839511Y-76922011D02*
X450839511Y-56362011D01*
X440559511Y-76922011D02*
X450839511Y-76922011D01*
X448349511Y-76862011D02*
X448349511Y-56422011D01*
X444699511Y-56422011D02*
G75*
G03*
X446699511Y-56422011I1000000J0D01*
G01*
%TO.C,U4*%
X520294511Y-40999511D02*
X499734511Y-40999511D01*
X520234511Y-48789511D02*
X520234511Y-47139511D01*
X499734511Y-51279511D02*
X520294511Y-51279511D01*
X520294511Y-51279511D02*
X520294511Y-40999511D01*
X499794511Y-48789511D02*
X520234511Y-48789511D01*
X499794511Y-43489511D02*
X499794511Y-48789511D01*
X520234511Y-43489511D02*
X499794511Y-43489511D01*
X520234511Y-45139511D02*
X520234511Y-43489511D01*
X499734511Y-40999511D02*
X499734511Y-51279511D01*
X520234511Y-45139511D02*
G75*
G03*
X520234511Y-47139511I0J-1000000D01*
G01*
%TO.C,R4*%
X36129000Y-175741000D02*
X36129000Y-178001000D01*
X37849000Y-174021000D02*
G75*
G03*
X37849000Y-174021000I-1720000J0D01*
G01*
%TO.C,U30*%
X469979511Y-41312011D02*
X490419511Y-41312011D01*
X469919511Y-33522011D02*
X469919511Y-43802011D01*
X490479511Y-43802011D02*
X490479511Y-33522011D01*
X490419511Y-36012011D02*
X469979511Y-36012011D01*
X490419511Y-37662011D02*
X490419511Y-36012011D01*
X490419511Y-41312011D02*
X490419511Y-39662011D01*
X469979511Y-36012011D02*
X469979511Y-41312011D01*
X469919511Y-43802011D02*
X490479511Y-43802011D01*
X490479511Y-33522011D02*
X469919511Y-33522011D01*
X490419511Y-37662011D02*
G75*
G03*
X490419511Y-39662011I0J-1000000D01*
G01*
%TO.C,R3*%
X36666244Y-115763244D02*
X36666244Y-118023244D01*
X38386244Y-114043244D02*
G75*
G03*
X38386244Y-114043244I-1720000J0D01*
G01*
%TO.C,J19*%
X405690000Y-41870000D02*
X405690000Y-42280000D01*
X408961905Y-33240000D02*
X408961905Y-41870000D01*
X408489525Y-33240000D02*
X408489525Y-41870000D01*
X407780955Y-33240000D02*
X407780955Y-41870000D01*
X407544765Y-33240000D02*
X407544765Y-41870000D01*
X408843810Y-33240000D02*
X408843810Y-41870000D01*
X401460000Y-33240000D02*
X401460000Y-41870000D01*
X402430000Y-41870000D02*
X402430000Y-42280000D01*
X408230000Y-41870000D02*
X408230000Y-42220000D01*
X407662860Y-33240000D02*
X407662860Y-41870000D01*
X408371430Y-33240000D02*
X408371430Y-41870000D01*
X408017145Y-33240000D02*
X408017145Y-41870000D01*
X404060000Y-33240000D02*
X404060000Y-41870000D01*
X409080000Y-33240000D02*
X409080000Y-41870000D01*
X409200000Y-33240000D02*
X409200000Y-41870000D01*
X407190480Y-33240000D02*
X407190480Y-41870000D01*
X404970000Y-41870000D02*
X404970000Y-42280000D01*
X403150000Y-41870000D02*
X403150000Y-42280000D01*
X408135240Y-33240000D02*
X408135240Y-41870000D01*
X409200000Y-41870000D02*
X401460000Y-41870000D01*
X407510000Y-41870000D02*
X407510000Y-42220000D01*
X408725715Y-33240000D02*
X408725715Y-41870000D01*
X406600000Y-33240000D02*
X406600000Y-41870000D01*
X407072385Y-33240000D02*
X407072385Y-41870000D01*
X408253335Y-33240000D02*
X408253335Y-41870000D01*
X406718100Y-33240000D02*
X406718100Y-41870000D01*
X406836195Y-33240000D02*
X406836195Y-41870000D01*
X409200000Y-44440000D02*
X407870000Y-44440000D01*
X407899050Y-33240000D02*
X407899050Y-41870000D01*
X408607620Y-33240000D02*
X408607620Y-41870000D01*
X407426670Y-33240000D02*
X407426670Y-41870000D01*
X407308575Y-33240000D02*
X407308575Y-41870000D01*
X406954290Y-33240000D02*
X406954290Y-41870000D01*
X409200000Y-43330000D02*
X409200000Y-44440000D01*
X409200000Y-33240000D02*
X401460000Y-33240000D01*
%TO.C,J3*%
X522490000Y-46990000D02*
X530230000Y-46990000D01*
X523200475Y-55620000D02*
X523200475Y-46990000D01*
X522490000Y-44420000D02*
X523820000Y-44420000D01*
X523082380Y-55620000D02*
X523082380Y-46990000D01*
X523554760Y-55620000D02*
X523554760Y-46990000D01*
X526000000Y-46990000D02*
X526000000Y-46580000D01*
X522964285Y-55620000D02*
X522964285Y-46990000D01*
X522490000Y-55620000D02*
X522490000Y-46990000D01*
X527630000Y-55620000D02*
X527630000Y-46990000D01*
X524381425Y-55620000D02*
X524381425Y-46990000D01*
X522846190Y-55620000D02*
X522846190Y-46990000D01*
X524853805Y-55620000D02*
X524853805Y-46990000D01*
X524145235Y-55620000D02*
X524145235Y-46990000D01*
X523790950Y-55620000D02*
X523790950Y-46990000D01*
X528540000Y-46990000D02*
X528540000Y-46580000D01*
X529260000Y-46990000D02*
X529260000Y-46580000D01*
X526720000Y-46990000D02*
X526720000Y-46580000D01*
X524735710Y-55620000D02*
X524735710Y-46990000D01*
X524027140Y-55620000D02*
X524027140Y-46990000D01*
X524180000Y-46990000D02*
X524180000Y-46640000D01*
X524617615Y-55620000D02*
X524617615Y-46990000D01*
X522490000Y-45530000D02*
X522490000Y-44420000D01*
X524499520Y-55620000D02*
X524499520Y-46990000D01*
X530230000Y-55620000D02*
X530230000Y-46990000D01*
X523672855Y-55620000D02*
X523672855Y-46990000D01*
X523318570Y-55620000D02*
X523318570Y-46990000D01*
X523909045Y-55620000D02*
X523909045Y-46990000D01*
X524971900Y-55620000D02*
X524971900Y-46990000D01*
X523436665Y-55620000D02*
X523436665Y-46990000D01*
X524263330Y-55620000D02*
X524263330Y-46990000D01*
X522490000Y-55620000D02*
X530230000Y-55620000D01*
X523460000Y-46990000D02*
X523460000Y-46640000D01*
X522610000Y-55620000D02*
X522610000Y-46990000D01*
X522728095Y-55620000D02*
X522728095Y-46990000D01*
X525090000Y-55620000D02*
X525090000Y-46990000D01*
%TO.C,U24*%
X516549511Y-74269511D02*
X534449511Y-74269511D01*
X516549511Y-68969511D02*
X516549511Y-70619511D01*
X516489511Y-66479511D02*
X516489511Y-76759511D01*
X516549511Y-72619511D02*
X516549511Y-74269511D01*
X516489511Y-76759511D02*
X534509511Y-76759511D01*
X534449511Y-68969511D02*
X516549511Y-68969511D01*
X534449511Y-74269511D02*
X534449511Y-68969511D01*
X534509511Y-76759511D02*
X534509511Y-66479511D01*
X534509511Y-66479511D02*
X516489511Y-66479511D01*
X516549511Y-72619511D02*
G75*
G03*
X516549511Y-70619511I0J1000000D01*
G01*
%TO.C,U67*%
X239734207Y-210964162D02*
X245734207Y-210964162D01*
X237734207Y-197904162D02*
X242734207Y-197904162D01*
%TO.C,U43*%
X216036207Y-103351352D02*
X222036207Y-103351352D01*
X214036207Y-90291352D02*
X219036207Y-90291352D01*
%TO.C,U6*%
X520319511Y-53999511D02*
X494679511Y-53999511D01*
X494739511Y-56489511D02*
X494739511Y-61789511D01*
X494739511Y-61789511D02*
X520259511Y-61789511D01*
X494679511Y-53999511D02*
X494679511Y-64279511D01*
X520259511Y-56489511D02*
X494739511Y-56489511D01*
X520259511Y-58139511D02*
X520259511Y-56489511D01*
X520259511Y-61789511D02*
X520259511Y-60139511D01*
X520319511Y-64279511D02*
X520319511Y-53999511D01*
X494679511Y-64279511D02*
X520319511Y-64279511D01*
X520259511Y-58139511D02*
G75*
G03*
X520259511Y-60139511I0J-1000000D01*
G01*
%TO.C,U64*%
X362392717Y-58594352D02*
X357092717Y-58594352D01*
X354602717Y-58534352D02*
X354602717Y-84174352D01*
X362392717Y-84114352D02*
X362392717Y-58594352D01*
X357092717Y-58594352D02*
X357092717Y-84114352D01*
X354602717Y-84174352D02*
X364882717Y-84174352D01*
X357092717Y-84114352D02*
X358742717Y-84114352D01*
X360742717Y-84114352D02*
X362392717Y-84114352D01*
X364882717Y-58534352D02*
X354602717Y-58534352D01*
X364882717Y-84174352D02*
X364882717Y-58534352D01*
X360742717Y-84114352D02*
G75*
G03*
X358742717Y-84114352I-1000000J0D01*
G01*
%TO.C,U13*%
X494549511Y-72619511D02*
X494549511Y-74269511D01*
X512449511Y-74269511D02*
X512449511Y-68969511D01*
X494549511Y-74269511D02*
X512449511Y-74269511D01*
X512449511Y-68969511D02*
X494549511Y-68969511D01*
X512509511Y-66479511D02*
X494489511Y-66479511D01*
X494549511Y-68969511D02*
X494549511Y-70619511D01*
X494489511Y-76759511D02*
X512509511Y-76759511D01*
X494489511Y-66479511D02*
X494489511Y-76759511D01*
X512509511Y-76759511D02*
X512509511Y-66479511D01*
X494549511Y-72619511D02*
G75*
G03*
X494549511Y-70619511I0J1000000D01*
G01*
%TO.C,U8*%
X433769511Y-93622011D02*
X484469511Y-93622011D01*
X484469511Y-93622011D02*
X484469511Y-103782011D01*
X484469511Y-103782011D02*
X433769511Y-103782011D01*
X433769511Y-103782011D02*
X433769511Y-93622011D01*
%TO.C,D1*%
X498410000Y-38975000D02*
X498410000Y-35885000D01*
X498410000Y-35885170D02*
G75*
G03*
X492860000Y-37430462I-2560000J-1544830D01*
G01*
X492860000Y-37429538D02*
G75*
G03*
X498410000Y-38974830I2990000J-462D01*
G01*
X498350000Y-37430000D02*
G75*
G03*
X498350000Y-37430000I-2500000J0D01*
G01*
%TO.C,U51*%
X275407207Y-84049352D02*
X277057207Y-84049352D01*
X280707207Y-58529352D02*
X275407207Y-58529352D01*
X283197207Y-58469352D02*
X272917207Y-58469352D01*
X280707207Y-84049352D02*
X280707207Y-58529352D01*
X272917207Y-58469352D02*
X272917207Y-84109352D01*
X275407207Y-58529352D02*
X275407207Y-84049352D01*
X279057207Y-84049352D02*
X280707207Y-84049352D01*
X272917207Y-84109352D02*
X283197207Y-84109352D01*
X283197207Y-84109352D02*
X283197207Y-58469352D01*
X279057207Y-84049352D02*
G75*
G03*
X277057207Y-84049352I-1000000J0D01*
G01*
%TO.C,U11*%
X456049511Y-76862011D02*
X461349511Y-76862011D01*
X463839511Y-76922011D02*
X463839511Y-56362011D01*
X456049511Y-56422011D02*
X456049511Y-76862011D01*
X457699511Y-56422011D02*
X456049511Y-56422011D01*
X453559511Y-56362011D02*
X453559511Y-76922011D01*
X461349511Y-56422011D02*
X459699511Y-56422011D01*
X453559511Y-76922011D02*
X463839511Y-76922011D01*
X463839511Y-56362011D02*
X453559511Y-56362011D01*
X461349511Y-76862011D02*
X461349511Y-56422011D01*
X457699511Y-56422011D02*
G75*
G03*
X459699511Y-56422011I1000000J0D01*
G01*
%TO.C,U41*%
X194827207Y-159721162D02*
X200827207Y-159721162D01*
X192827207Y-146661162D02*
X197827207Y-146661162D01*
%TO.C,U32*%
X133749207Y-159594162D02*
X139749207Y-159594162D01*
X131749207Y-146534162D02*
X136749207Y-146534162D01*
%TO.C,U54*%
X299699717Y-84054352D02*
X301349717Y-84054352D01*
X296049717Y-84054352D02*
X297699717Y-84054352D01*
X293559717Y-84114352D02*
X303839717Y-84114352D01*
X301349717Y-58534352D02*
X296049717Y-58534352D01*
X303839717Y-84114352D02*
X303839717Y-58474352D01*
X301349717Y-84054352D02*
X301349717Y-58534352D01*
X303839717Y-58474352D02*
X293559717Y-58474352D01*
X293559717Y-58474352D02*
X293559717Y-84114352D01*
X296049717Y-58534352D02*
X296049717Y-84054352D01*
X299699717Y-84054352D02*
G75*
G03*
X297699717Y-84054352I-1000000J0D01*
G01*
%TD*%
M02*
