%TF.GenerationSoftware,KiCad,Pcbnew,6.0.2-378541a8eb~116~ubuntu21.10.1*%
%TF.CreationDate,2022-02-16T21:59:07+01:00*%
%TF.ProjectId,register_file_kicad,72656769-7374-4657-925f-66696c655f6b,Rev v0.4*%
%TF.SameCoordinates,Original*%
%TF.FileFunction,Soldermask,Bot*%
%TF.FilePolarity,Negative*%
%FSLAX46Y46*%
G04 Gerber Fmt 4.6, Leading zero omitted, Abs format (unit mm)*
G04 Created by KiCad (PCBNEW 6.0.2-378541a8eb~116~ubuntu21.10.1) date 2022-02-16 21:59:07*
%MOMM*%
%LPD*%
G01*
G04 APERTURE LIST*
%ADD10R,1.600000X1.600000*%
%ADD11O,1.600000X1.600000*%
%ADD12R,1.700000X1.700000*%
%ADD13O,1.700000X1.700000*%
%ADD14C,1.524000*%
%ADD15C,1.600000*%
%ADD16R,1.800000X1.800000*%
%ADD17C,1.800000*%
G04 APERTURE END LIST*
D10*
%TO.C,U45*%
X241137600Y-82748200D03*
D11*
X241137600Y-80208200D03*
X241137600Y-77668200D03*
X241137600Y-75128200D03*
X241137600Y-72588200D03*
X241137600Y-70048200D03*
X241137600Y-67508200D03*
X241137600Y-64968200D03*
X241137600Y-62428200D03*
X241137600Y-59888200D03*
X233517600Y-59888200D03*
X233517600Y-62428200D03*
X233517600Y-64968200D03*
X233517600Y-67508200D03*
X233517600Y-70048200D03*
X233517600Y-72588200D03*
X233517600Y-75128200D03*
X233517600Y-77668200D03*
X233517600Y-80208200D03*
X233517600Y-82748200D03*
%TD*%
D12*
%TO.C,J8*%
X66900000Y-59028000D03*
D13*
X66900000Y-61568000D03*
X66900000Y-64108000D03*
%TD*%
D12*
%TO.C,J18*%
X36296000Y-202383000D03*
D13*
X38836000Y-202383000D03*
X41376000Y-202383000D03*
%TD*%
D14*
%TO.C,U2*%
X47620000Y-140013000D03*
X47620000Y-137513000D03*
X47620000Y-135013000D03*
X47620000Y-132513000D03*
X47620000Y-130013000D03*
X47620000Y-127513000D03*
X47620000Y-125013000D03*
X47620000Y-122513000D03*
X47620000Y-120013000D03*
X47620000Y-117513000D03*
X47620000Y-115013000D03*
X47620000Y-112513000D03*
X47620000Y-110013000D03*
X47620000Y-107513000D03*
X47620000Y-105013000D03*
X47620000Y-102513000D03*
X47620000Y-100013000D03*
X47620000Y-97513000D03*
X47620000Y-95013000D03*
X47620000Y-92513000D03*
X40320000Y-140013000D03*
X40320000Y-137513000D03*
X40320000Y-135013000D03*
X40320000Y-132513000D03*
X40320000Y-130013000D03*
X40320000Y-127513000D03*
X40320000Y-125013000D03*
X40320000Y-122513000D03*
X40320000Y-120013000D03*
X40320000Y-117513000D03*
X40320000Y-115013000D03*
X40320000Y-112513000D03*
X40320000Y-110013000D03*
X40320000Y-107513000D03*
X40320000Y-105013000D03*
X40320000Y-102513000D03*
X40320000Y-100013000D03*
X40320000Y-97513000D03*
X40320000Y-95013000D03*
X40320000Y-92513000D03*
%TD*%
D12*
%TO.C,J5*%
X498001000Y-26527000D03*
D13*
X498001000Y-29067000D03*
X498001000Y-31607000D03*
X498001000Y-34147000D03*
%TD*%
D10*
%TO.C,U12*%
X453056000Y-83172000D03*
D11*
X453056000Y-80632000D03*
X453056000Y-78092000D03*
X453056000Y-75552000D03*
X453056000Y-73012000D03*
X453056000Y-70472000D03*
X453056000Y-67932000D03*
X453056000Y-65392000D03*
X453056000Y-62852000D03*
X453056000Y-60312000D03*
X445436000Y-60312000D03*
X445436000Y-62852000D03*
X445436000Y-65392000D03*
X445436000Y-67932000D03*
X445436000Y-70472000D03*
X445436000Y-73012000D03*
X445436000Y-75552000D03*
X445436000Y-78092000D03*
X445436000Y-80632000D03*
X445436000Y-83172000D03*
%TD*%
D10*
%TO.C,U36*%
X180926207Y-82719352D03*
D11*
X180926207Y-80179352D03*
X180926207Y-77639352D03*
X180926207Y-75099352D03*
X180926207Y-72559352D03*
X180926207Y-70019352D03*
X180926207Y-67479352D03*
X180926207Y-64939352D03*
X180926207Y-62399352D03*
X180926207Y-59859352D03*
X173306207Y-59859352D03*
X173306207Y-62399352D03*
X173306207Y-64939352D03*
X173306207Y-67479352D03*
X173306207Y-70019352D03*
X173306207Y-72559352D03*
X173306207Y-75099352D03*
X173306207Y-77639352D03*
X173306207Y-80179352D03*
X173306207Y-82719352D03*
%TD*%
D12*
%TO.C,J7*%
X51166000Y-202590489D03*
D13*
X48626000Y-202590489D03*
X46086000Y-202590489D03*
%TD*%
D12*
%TO.C,J13*%
X37007400Y-44907200D03*
D13*
X37007400Y-47447200D03*
X37007400Y-49987200D03*
X37007400Y-52527200D03*
X37007400Y-55067200D03*
X37007400Y-57607200D03*
X37007400Y-60147200D03*
X37007400Y-62687200D03*
X37007400Y-65227200D03*
X37007400Y-67767200D03*
X37007400Y-70307200D03*
X37007400Y-72847200D03*
X37007400Y-75387200D03*
X37007400Y-77927200D03*
X37007400Y-80467200D03*
X37007400Y-83007200D03*
%TD*%
D12*
%TO.C,J11*%
X196681207Y-208885162D03*
D13*
X199221207Y-208885162D03*
X201761207Y-208885162D03*
X204301207Y-208885162D03*
X206841207Y-208885162D03*
X209381207Y-208885162D03*
X211921207Y-208885162D03*
X214461207Y-208885162D03*
X217001207Y-208885162D03*
X219541207Y-208885162D03*
X222081207Y-208885162D03*
X224621207Y-208885162D03*
X227161207Y-208885162D03*
X229701207Y-208885162D03*
X232241207Y-208885162D03*
X234781207Y-208885162D03*
%TD*%
D10*
%TO.C,U7*%
X453026000Y-54007000D03*
D11*
X453026000Y-51467000D03*
X453026000Y-48927000D03*
X453026000Y-46387000D03*
X453026000Y-43847000D03*
X453026000Y-41307000D03*
X453026000Y-38767000D03*
X453026000Y-36227000D03*
X453026000Y-33687000D03*
X453026000Y-31147000D03*
X445406000Y-31147000D03*
X445406000Y-33687000D03*
X445406000Y-36227000D03*
X445406000Y-38767000D03*
X445406000Y-41307000D03*
X445406000Y-43847000D03*
X445406000Y-46387000D03*
X445406000Y-48927000D03*
X445406000Y-51467000D03*
X445406000Y-54007000D03*
%TD*%
D12*
%TO.C,J4*%
X471500000Y-34300000D03*
D13*
X471500000Y-36840000D03*
X471500000Y-39380000D03*
X471500000Y-41920000D03*
X471500000Y-44460000D03*
X471500000Y-47000000D03*
X471500000Y-49540000D03*
X471500000Y-52080000D03*
X471500000Y-54620000D03*
X471500000Y-57160000D03*
X471500000Y-59700000D03*
X471500000Y-62240000D03*
X471500000Y-64780000D03*
X471500000Y-67320000D03*
X471500000Y-69860000D03*
X471500000Y-72400000D03*
X471500000Y-74940000D03*
X471500000Y-77480000D03*
X471500000Y-80020000D03*
X471500000Y-82560000D03*
X471500000Y-85100000D03*
X471500000Y-87640000D03*
X471500000Y-90180000D03*
X471500000Y-92720000D03*
X471500000Y-95260000D03*
X471500000Y-97800000D03*
X471500000Y-100340000D03*
X471500000Y-102880000D03*
X471500000Y-105420000D03*
X471500000Y-107960000D03*
X471500000Y-110500000D03*
X471500000Y-113040000D03*
X471500000Y-115580000D03*
X471500000Y-118120000D03*
X471500000Y-120660000D03*
X471500000Y-123200000D03*
X471500000Y-125740000D03*
X471500000Y-128280000D03*
X471500000Y-130820000D03*
X471500000Y-133360000D03*
X471500000Y-135900000D03*
X471500000Y-138440000D03*
%TD*%
D12*
%TO.C,J9*%
X84543207Y-208088417D03*
D13*
X87083207Y-208088417D03*
X89623207Y-208088417D03*
X92163207Y-208088417D03*
X94703207Y-208088417D03*
X97243207Y-208088417D03*
X99783207Y-208088417D03*
X102323207Y-208088417D03*
X104863207Y-208088417D03*
X107403207Y-208088417D03*
X109943207Y-208088417D03*
X112483207Y-208088417D03*
X115023207Y-208088417D03*
X117563207Y-208088417D03*
X120103207Y-208088417D03*
X122643207Y-208088417D03*
%TD*%
D10*
%TO.C,U68*%
X529176000Y-67452000D03*
D11*
X529176000Y-64912000D03*
X529176000Y-62372000D03*
X529176000Y-59832000D03*
X529176000Y-57292000D03*
X529176000Y-54752000D03*
X529176000Y-52212000D03*
X521556000Y-52212000D03*
X521556000Y-54752000D03*
X521556000Y-57292000D03*
X521556000Y-59832000D03*
X521556000Y-62372000D03*
X521556000Y-64912000D03*
X521556000Y-67452000D03*
%TD*%
D12*
%TO.C,J16*%
X511098011Y-31982489D03*
%TD*%
D10*
%TO.C,U29*%
X146475000Y-197950000D03*
D11*
X143935000Y-197950000D03*
X141395000Y-197950000D03*
X138855000Y-197950000D03*
X136315000Y-197950000D03*
X133775000Y-197950000D03*
X131235000Y-197950000D03*
X131235000Y-205570000D03*
X133775000Y-205570000D03*
X136315000Y-205570000D03*
X138855000Y-205570000D03*
X141395000Y-205570000D03*
X143935000Y-205570000D03*
X146475000Y-205570000D03*
%TD*%
D10*
%TO.C,U16*%
X56505000Y-209749489D03*
D11*
X59045000Y-209749489D03*
X61585000Y-209749489D03*
X64125000Y-209749489D03*
X66665000Y-209749489D03*
X69205000Y-209749489D03*
X71745000Y-209749489D03*
X74285000Y-209749489D03*
X74285000Y-202129489D03*
X71745000Y-202129489D03*
X69205000Y-202129489D03*
X66665000Y-202129489D03*
X64125000Y-202129489D03*
X61585000Y-202129489D03*
X59045000Y-202129489D03*
X56505000Y-202129489D03*
%TD*%
D10*
%TO.C,U1*%
X528001000Y-38527000D03*
D11*
X525461000Y-38527000D03*
X522921000Y-38527000D03*
X520381000Y-38527000D03*
X517841000Y-38527000D03*
X515301000Y-38527000D03*
X512761000Y-38527000D03*
X512761000Y-46147000D03*
X515301000Y-46147000D03*
X517841000Y-46147000D03*
X520381000Y-46147000D03*
X522921000Y-46147000D03*
X525461000Y-46147000D03*
X528001000Y-46147000D03*
%TD*%
D10*
%TO.C,U48*%
X261867207Y-82851352D03*
D11*
X261867207Y-80311352D03*
X261867207Y-77771352D03*
X261867207Y-75231352D03*
X261867207Y-72691352D03*
X261867207Y-70151352D03*
X261867207Y-67611352D03*
X261867207Y-65071352D03*
X261867207Y-62531352D03*
X261867207Y-59991352D03*
X254247207Y-59991352D03*
X254247207Y-62531352D03*
X254247207Y-65071352D03*
X254247207Y-67611352D03*
X254247207Y-70151352D03*
X254247207Y-72691352D03*
X254247207Y-75231352D03*
X254247207Y-77771352D03*
X254247207Y-80311352D03*
X254247207Y-82851352D03*
%TD*%
D10*
%TO.C,U39*%
X200802400Y-82697400D03*
D11*
X200802400Y-80157400D03*
X200802400Y-77617400D03*
X200802400Y-75077400D03*
X200802400Y-72537400D03*
X200802400Y-69997400D03*
X200802400Y-67457400D03*
X200802400Y-64917400D03*
X200802400Y-62377400D03*
X200802400Y-59837400D03*
X193182400Y-59837400D03*
X193182400Y-62377400D03*
X193182400Y-64917400D03*
X193182400Y-67457400D03*
X193182400Y-69997400D03*
X193182400Y-72537400D03*
X193182400Y-75077400D03*
X193182400Y-77617400D03*
X193182400Y-80157400D03*
X193182400Y-82697400D03*
%TD*%
D15*
%TO.C,R6*%
X465876000Y-118967000D03*
D11*
X465876000Y-113887000D03*
%TD*%
D10*
%TO.C,U22*%
X119878000Y-82595800D03*
D11*
X119878000Y-80055800D03*
X119878000Y-77515800D03*
X119878000Y-74975800D03*
X119878000Y-72435800D03*
X119878000Y-69895800D03*
X119878000Y-67355800D03*
X119878000Y-64815800D03*
X119878000Y-62275800D03*
X119878000Y-59735800D03*
X112258000Y-59735800D03*
X112258000Y-62275800D03*
X112258000Y-64815800D03*
X112258000Y-67355800D03*
X112258000Y-69895800D03*
X112258000Y-72435800D03*
X112258000Y-74975800D03*
X112258000Y-77515800D03*
X112258000Y-80055800D03*
X112258000Y-82595800D03*
%TD*%
D12*
%TO.C,J2*%
X371502717Y-173010162D03*
D13*
X371502717Y-175550162D03*
X371502717Y-178090162D03*
X371502717Y-180630162D03*
X371502717Y-183170162D03*
X371502717Y-185710162D03*
X371502717Y-188250162D03*
X371502717Y-190790162D03*
X371502717Y-193330162D03*
X371502717Y-195870162D03*
X371502717Y-198410162D03*
X371502717Y-200950162D03*
X371502717Y-203490162D03*
X371502717Y-206030162D03*
X371502717Y-208570162D03*
X371502717Y-211110162D03*
%TD*%
D12*
%TO.C,J17*%
X130321000Y-211283000D03*
%TD*%
D10*
%TO.C,U17*%
X62766000Y-79069000D03*
D11*
X65306000Y-79069000D03*
X67846000Y-79069000D03*
X70386000Y-79069000D03*
X72926000Y-79069000D03*
X75466000Y-79069000D03*
X78006000Y-79069000D03*
X80546000Y-79069000D03*
X80546000Y-71449000D03*
X78006000Y-71449000D03*
X75466000Y-71449000D03*
X72926000Y-71449000D03*
X70386000Y-71449000D03*
X67846000Y-71449000D03*
X65306000Y-71449000D03*
X62766000Y-71449000D03*
%TD*%
D14*
%TO.C,U3*%
X47399000Y-199399000D03*
X47399000Y-196899000D03*
X47399000Y-194399000D03*
X47399000Y-191899000D03*
X47399000Y-189399000D03*
X47399000Y-186899000D03*
X47399000Y-184399000D03*
X47399000Y-181899000D03*
X47399000Y-179399000D03*
X47399000Y-176899000D03*
X47399000Y-174399000D03*
X47399000Y-171899000D03*
X47399000Y-169399000D03*
X47399000Y-166899000D03*
X47399000Y-164399000D03*
X47399000Y-161899000D03*
X47399000Y-159399000D03*
X47399000Y-156899000D03*
X47399000Y-154399000D03*
X47399000Y-151899000D03*
X40099000Y-199399000D03*
X40099000Y-196899000D03*
X40099000Y-194399000D03*
X40099000Y-191899000D03*
X40099000Y-189399000D03*
X40099000Y-186899000D03*
X40099000Y-184399000D03*
X40099000Y-181899000D03*
X40099000Y-179399000D03*
X40099000Y-176899000D03*
X40099000Y-174399000D03*
X40099000Y-171899000D03*
X40099000Y-169399000D03*
X40099000Y-166899000D03*
X40099000Y-164399000D03*
X40099000Y-161899000D03*
X40099000Y-159399000D03*
X40099000Y-156899000D03*
X40099000Y-154399000D03*
X40099000Y-151899000D03*
%TD*%
D12*
%TO.C,J20*%
X36450000Y-37135000D03*
D13*
X38990000Y-37135000D03*
%TD*%
D12*
%TO.C,J21*%
X439015000Y-155750000D03*
D13*
X439015000Y-153210000D03*
%TD*%
D12*
%TO.C,J12*%
X327500717Y-211036300D03*
D13*
X330040717Y-211036300D03*
X332580717Y-211036300D03*
X335120717Y-211036300D03*
X337660717Y-211036300D03*
X340200717Y-211036300D03*
X342740717Y-211036300D03*
X345280717Y-211036300D03*
X347820717Y-211036300D03*
X350360717Y-211036300D03*
X352900717Y-211036300D03*
X355440717Y-211036300D03*
X357980717Y-211036300D03*
X360520717Y-211036300D03*
X363060717Y-211036300D03*
X365600717Y-211036300D03*
%TD*%
D12*
%TO.C,J15*%
X35700000Y-41317000D03*
D13*
X38240000Y-41300000D03*
X40780000Y-41300000D03*
X43320000Y-41300000D03*
X45860000Y-41300000D03*
X48400000Y-41300000D03*
X50940000Y-41300000D03*
X53480000Y-41300000D03*
X56020000Y-41300000D03*
X58560000Y-41300000D03*
X61100000Y-41300000D03*
X63640000Y-41300000D03*
%TD*%
D10*
%TO.C,U18*%
X99964400Y-82595800D03*
D11*
X99964400Y-80055800D03*
X99964400Y-77515800D03*
X99964400Y-74975800D03*
X99964400Y-72435800D03*
X99964400Y-69895800D03*
X99964400Y-67355800D03*
X99964400Y-64815800D03*
X99964400Y-62275800D03*
X99964400Y-59735800D03*
X92344400Y-59735800D03*
X92344400Y-62275800D03*
X92344400Y-64815800D03*
X92344400Y-67355800D03*
X92344400Y-69895800D03*
X92344400Y-72435800D03*
X92344400Y-74975800D03*
X92344400Y-77515800D03*
X92344400Y-80055800D03*
X92344400Y-82595800D03*
%TD*%
D10*
%TO.C,U19*%
X506276000Y-92027000D03*
D11*
X503736000Y-92027000D03*
X501196000Y-92027000D03*
X498656000Y-92027000D03*
X496116000Y-92027000D03*
X493576000Y-92027000D03*
X491036000Y-92027000D03*
X488496000Y-92027000D03*
X488496000Y-99647000D03*
X491036000Y-99647000D03*
X493576000Y-99647000D03*
X496116000Y-99647000D03*
X498656000Y-99647000D03*
X501196000Y-99647000D03*
X503736000Y-99647000D03*
X506276000Y-99647000D03*
%TD*%
D10*
%TO.C,U23*%
X506376000Y-104827000D03*
D11*
X503836000Y-104827000D03*
X501296000Y-104827000D03*
X498756000Y-104827000D03*
X496216000Y-104827000D03*
X493676000Y-104827000D03*
X491136000Y-104827000D03*
X488596000Y-104827000D03*
X488596000Y-112447000D03*
X491136000Y-112447000D03*
X493676000Y-112447000D03*
X496216000Y-112447000D03*
X498756000Y-112447000D03*
X501296000Y-112447000D03*
X503836000Y-112447000D03*
X506376000Y-112447000D03*
%TD*%
D12*
%TO.C,J1*%
X374002717Y-116869352D03*
D13*
X374002717Y-119409352D03*
X374002717Y-121949352D03*
X374002717Y-124489352D03*
X374002717Y-127029352D03*
X374002717Y-129569352D03*
X374002717Y-132109352D03*
X374002717Y-134649352D03*
X374002717Y-137189352D03*
X374002717Y-139729352D03*
X374002717Y-142269352D03*
X374002717Y-144809352D03*
X374002717Y-147349352D03*
X374002717Y-149889352D03*
X374002717Y-152429352D03*
X374002717Y-154969352D03*
%TD*%
D10*
%TO.C,U42*%
X221439207Y-82719352D03*
D11*
X221439207Y-80179352D03*
X221439207Y-77639352D03*
X221439207Y-75099352D03*
X221439207Y-72559352D03*
X221439207Y-70019352D03*
X221439207Y-67479352D03*
X221439207Y-64939352D03*
X221439207Y-62399352D03*
X221439207Y-59859352D03*
X213819207Y-59859352D03*
X213819207Y-62399352D03*
X213819207Y-64939352D03*
X213819207Y-67479352D03*
X213819207Y-70019352D03*
X213819207Y-72559352D03*
X213819207Y-75099352D03*
X213819207Y-77639352D03*
X213819207Y-80179352D03*
X213819207Y-82719352D03*
%TD*%
D15*
%TO.C,R5*%
X461876000Y-118967000D03*
D11*
X461876000Y-113887000D03*
%TD*%
D15*
%TO.C,R7*%
X527598011Y-130122489D03*
D11*
X527598011Y-125042489D03*
%TD*%
D15*
%TO.C,R1*%
X36412244Y-134363244D03*
D11*
X36412244Y-139443244D03*
%TD*%
D10*
%TO.C,U33*%
X160467200Y-82592352D03*
D11*
X160467200Y-80052352D03*
X160467200Y-77512352D03*
X160467200Y-74972352D03*
X160467200Y-72432352D03*
X160467200Y-69892352D03*
X160467200Y-67352352D03*
X160467200Y-64812352D03*
X160467200Y-62272352D03*
X160467200Y-59732352D03*
X152847200Y-59732352D03*
X152847200Y-62272352D03*
X152847200Y-64812352D03*
X152847200Y-67352352D03*
X152847200Y-69892352D03*
X152847200Y-72432352D03*
X152847200Y-74972352D03*
X152847200Y-77512352D03*
X152847200Y-80052352D03*
X152847200Y-82592352D03*
%TD*%
D10*
%TO.C,U27*%
X529176000Y-88952000D03*
D11*
X529176000Y-86412000D03*
X529176000Y-83872000D03*
X529176000Y-81332000D03*
X529176000Y-78792000D03*
X529176000Y-76252000D03*
X529176000Y-73712000D03*
X521556000Y-73712000D03*
X521556000Y-76252000D03*
X521556000Y-78792000D03*
X521556000Y-81332000D03*
X521556000Y-83872000D03*
X521556000Y-86412000D03*
X521556000Y-88952000D03*
%TD*%
D10*
%TO.C,U60*%
X343302717Y-82784352D03*
D11*
X343302717Y-80244352D03*
X343302717Y-77704352D03*
X343302717Y-75164352D03*
X343302717Y-72624352D03*
X343302717Y-70084352D03*
X343302717Y-67544352D03*
X343302717Y-65004352D03*
X343302717Y-62464352D03*
X343302717Y-59924352D03*
X335682717Y-59924352D03*
X335682717Y-62464352D03*
X335682717Y-65004352D03*
X335682717Y-67544352D03*
X335682717Y-70084352D03*
X335682717Y-72624352D03*
X335682717Y-75164352D03*
X335682717Y-77704352D03*
X335682717Y-80244352D03*
X335682717Y-82784352D03*
%TD*%
D10*
%TO.C,U57*%
X322692717Y-82846352D03*
D11*
X322692717Y-80306352D03*
X322692717Y-77766352D03*
X322692717Y-75226352D03*
X322692717Y-72686352D03*
X322692717Y-70146352D03*
X322692717Y-67606352D03*
X322692717Y-65066352D03*
X322692717Y-62526352D03*
X322692717Y-59986352D03*
X315072717Y-59986352D03*
X315072717Y-62526352D03*
X315072717Y-65066352D03*
X315072717Y-67606352D03*
X315072717Y-70146352D03*
X315072717Y-72686352D03*
X315072717Y-75226352D03*
X315072717Y-77766352D03*
X315072717Y-80306352D03*
X315072717Y-82846352D03*
%TD*%
D12*
%TO.C,J6*%
X31779000Y-41317000D03*
D13*
X31800000Y-43840000D03*
X31800000Y-46380000D03*
X31800000Y-48920000D03*
X31800000Y-51460000D03*
X31800000Y-54000000D03*
X31800000Y-56540000D03*
X31800000Y-59080000D03*
X31800000Y-61620000D03*
X31800000Y-64160000D03*
X31800000Y-66700000D03*
X31800000Y-69240000D03*
X31800000Y-71780000D03*
X31800000Y-74320000D03*
X31800000Y-76860000D03*
X31800000Y-79400000D03*
X31800000Y-81940000D03*
X31800000Y-84480000D03*
X31800000Y-87020000D03*
X31800000Y-89560000D03*
X31800000Y-92100000D03*
X31800000Y-94640000D03*
X31800000Y-97180000D03*
X31800000Y-99720000D03*
X31800000Y-102260000D03*
X31800000Y-104800000D03*
X31800000Y-107340000D03*
X31800000Y-109880000D03*
X31800000Y-112420000D03*
X31800000Y-114960000D03*
X31800000Y-117500000D03*
X31800000Y-120040000D03*
X31800000Y-122580000D03*
X31800000Y-125120000D03*
X31800000Y-127660000D03*
X31800000Y-130200000D03*
X31800000Y-132740000D03*
X31800000Y-135280000D03*
X31800000Y-137820000D03*
X31800000Y-140360000D03*
X31800000Y-142900000D03*
X31800000Y-145440000D03*
X31800000Y-147980000D03*
X31800000Y-150520000D03*
X31800000Y-153060000D03*
X31800000Y-155600000D03*
X31800000Y-158140000D03*
X31800000Y-160680000D03*
X31800000Y-163220000D03*
X31800000Y-165760000D03*
X31800000Y-168300000D03*
X31800000Y-170840000D03*
X31800000Y-173380000D03*
X31800000Y-175920000D03*
X31800000Y-178460000D03*
X31800000Y-181000000D03*
X31800000Y-183540000D03*
X31800000Y-186080000D03*
X31800000Y-188620000D03*
X31800000Y-191160000D03*
X31800000Y-193700000D03*
X31800000Y-196240000D03*
X31800000Y-198780000D03*
X31800000Y-201320000D03*
X31800000Y-203860000D03*
X31800000Y-206400000D03*
X31800000Y-208940000D03*
X31800000Y-211480000D03*
X31800000Y-214020000D03*
X31800000Y-216560000D03*
X31800000Y-219100000D03*
X31800000Y-221640000D03*
X31800000Y-224180000D03*
X31800000Y-226720000D03*
X31800000Y-229260000D03*
X31800000Y-231800000D03*
X31800000Y-234340000D03*
X31800000Y-236880000D03*
%TD*%
D15*
%TO.C,R2*%
X36409000Y-194421084D03*
D11*
X36409000Y-199501084D03*
%TD*%
D10*
%TO.C,U28*%
X140706000Y-82592352D03*
D11*
X140706000Y-80052352D03*
X140706000Y-77512352D03*
X140706000Y-74972352D03*
X140706000Y-72432352D03*
X140706000Y-69892352D03*
X140706000Y-67352352D03*
X140706000Y-64812352D03*
X140706000Y-62272352D03*
X140706000Y-59732352D03*
X133086000Y-59732352D03*
X133086000Y-62272352D03*
X133086000Y-64812352D03*
X133086000Y-67352352D03*
X133086000Y-69892352D03*
X133086000Y-72432352D03*
X133086000Y-74972352D03*
X133086000Y-77512352D03*
X133086000Y-80052352D03*
X133086000Y-82592352D03*
%TD*%
D10*
%TO.C,U5*%
X506276000Y-66027000D03*
D11*
X503736000Y-66027000D03*
X501196000Y-66027000D03*
X498656000Y-66027000D03*
X496116000Y-66027000D03*
X493576000Y-66027000D03*
X491036000Y-66027000D03*
X488496000Y-66027000D03*
X488496000Y-73647000D03*
X491036000Y-73647000D03*
X493576000Y-73647000D03*
X496116000Y-73647000D03*
X498656000Y-73647000D03*
X501196000Y-73647000D03*
X503736000Y-73647000D03*
X506276000Y-73647000D03*
%TD*%
D10*
%TO.C,U4*%
X521698500Y-143042000D03*
D11*
X521698500Y-140502000D03*
X521698500Y-137962000D03*
X521698500Y-135422000D03*
X521698500Y-132882000D03*
X521698500Y-130342000D03*
X521698500Y-127802000D03*
X521698500Y-125262000D03*
X514078500Y-125262000D03*
X514078500Y-127802000D03*
X514078500Y-130342000D03*
X514078500Y-132882000D03*
X514078500Y-135422000D03*
X514078500Y-137962000D03*
X514078500Y-140502000D03*
X514078500Y-143042000D03*
%TD*%
D15*
%TO.C,R4*%
X36129000Y-174021000D03*
D11*
X36129000Y-179101000D03*
%TD*%
D10*
%TO.C,U30*%
X529176000Y-113227000D03*
D11*
X529176000Y-110687000D03*
X529176000Y-108147000D03*
X529176000Y-105607000D03*
X529176000Y-103067000D03*
X529176000Y-100527000D03*
X529176000Y-97987000D03*
X529176000Y-95447000D03*
X521556000Y-95447000D03*
X521556000Y-97987000D03*
X521556000Y-100527000D03*
X521556000Y-103067000D03*
X521556000Y-105607000D03*
X521556000Y-108147000D03*
X521556000Y-110687000D03*
X521556000Y-113227000D03*
%TD*%
D15*
%TO.C,R3*%
X36666244Y-114043244D03*
D11*
X36666244Y-119123244D03*
%TD*%
D12*
%TO.C,J19*%
X520698011Y-32007489D03*
D13*
X520698011Y-29467489D03*
X520698011Y-26927489D03*
%TD*%
D12*
%TO.C,J3*%
X518498011Y-147957489D03*
D13*
X518498011Y-150497489D03*
X518498011Y-153037489D03*
%TD*%
D10*
%TO.C,U24*%
X488598500Y-142017000D03*
D11*
X488598500Y-144557000D03*
X488598500Y-147097000D03*
X488598500Y-149637000D03*
X488598500Y-152177000D03*
X488598500Y-154717000D03*
X488598500Y-157257000D03*
X496218500Y-157257000D03*
X496218500Y-154717000D03*
X496218500Y-152177000D03*
X496218500Y-149637000D03*
X496218500Y-147097000D03*
X496218500Y-144557000D03*
X496218500Y-142017000D03*
%TD*%
D10*
%TO.C,U6*%
X508698500Y-143067000D03*
D11*
X508698500Y-140527000D03*
X508698500Y-137987000D03*
X508698500Y-135447000D03*
X508698500Y-132907000D03*
X508698500Y-130367000D03*
X508698500Y-127827000D03*
X508698500Y-125287000D03*
X508698500Y-122747000D03*
X508698500Y-120207000D03*
X501078500Y-120207000D03*
X501078500Y-122747000D03*
X501078500Y-125287000D03*
X501078500Y-127827000D03*
X501078500Y-130367000D03*
X501078500Y-132907000D03*
X501078500Y-135447000D03*
X501078500Y-137987000D03*
X501078500Y-140527000D03*
X501078500Y-143067000D03*
%TD*%
D10*
%TO.C,U64*%
X363552717Y-82784352D03*
D11*
X363552717Y-80244352D03*
X363552717Y-77704352D03*
X363552717Y-75164352D03*
X363552717Y-72624352D03*
X363552717Y-70084352D03*
X363552717Y-67544352D03*
X363552717Y-65004352D03*
X363552717Y-62464352D03*
X363552717Y-59924352D03*
X355932717Y-59924352D03*
X355932717Y-62464352D03*
X355932717Y-65004352D03*
X355932717Y-67544352D03*
X355932717Y-70084352D03*
X355932717Y-72624352D03*
X355932717Y-75164352D03*
X355932717Y-77704352D03*
X355932717Y-80244352D03*
X355932717Y-82784352D03*
%TD*%
D10*
%TO.C,U13*%
X488598500Y-120017000D03*
D11*
X488598500Y-122557000D03*
X488598500Y-125097000D03*
X488598500Y-127637000D03*
X488598500Y-130177000D03*
X488598500Y-132717000D03*
X488598500Y-135257000D03*
X496218500Y-135257000D03*
X496218500Y-132717000D03*
X496218500Y-130177000D03*
X496218500Y-127637000D03*
X496218500Y-125097000D03*
X496218500Y-122557000D03*
X496218500Y-120017000D03*
%TD*%
D14*
%TO.C,U8*%
X468050000Y-97170000D03*
X468050000Y-94670000D03*
X468050000Y-92170000D03*
X468050000Y-89670000D03*
X468050000Y-87170000D03*
X468050000Y-84670000D03*
X468050000Y-82170000D03*
X468050000Y-79670000D03*
X468050000Y-77170000D03*
X468050000Y-74670000D03*
X468050000Y-72170000D03*
X468050000Y-69670000D03*
X468050000Y-67170000D03*
X468050000Y-64670000D03*
X468050000Y-62170000D03*
X468050000Y-59670000D03*
X468050000Y-57170000D03*
X468050000Y-54670000D03*
X468050000Y-52170000D03*
X468050000Y-49670000D03*
X460750000Y-97170000D03*
X460750000Y-94670000D03*
X460750000Y-92170000D03*
X460750000Y-89670000D03*
X460750000Y-87170000D03*
X460750000Y-84670000D03*
X460750000Y-82170000D03*
X460750000Y-79670000D03*
X460750000Y-77170000D03*
X460750000Y-74670000D03*
X460750000Y-72170000D03*
X460750000Y-69670000D03*
X460750000Y-67170000D03*
X460750000Y-64670000D03*
X460750000Y-62170000D03*
X460750000Y-59670000D03*
X460750000Y-57170000D03*
X460750000Y-54670000D03*
X460750000Y-52170000D03*
X460750000Y-49670000D03*
%TD*%
D16*
%TO.C,D1*%
X526598011Y-121257489D03*
D17*
X526598011Y-118717489D03*
%TD*%
D10*
%TO.C,U51*%
X281574400Y-82697400D03*
D11*
X281574400Y-80157400D03*
X281574400Y-77617400D03*
X281574400Y-75077400D03*
X281574400Y-72537400D03*
X281574400Y-69997400D03*
X281574400Y-67457400D03*
X281574400Y-64917400D03*
X281574400Y-62377400D03*
X281574400Y-59837400D03*
X273954400Y-59837400D03*
X273954400Y-62377400D03*
X273954400Y-64917400D03*
X273954400Y-67457400D03*
X273954400Y-69997400D03*
X273954400Y-72537400D03*
X273954400Y-75077400D03*
X273954400Y-77617400D03*
X273954400Y-80157400D03*
X273954400Y-82697400D03*
%TD*%
D10*
%TO.C,U11*%
X506276000Y-79027000D03*
D11*
X503736000Y-79027000D03*
X501196000Y-79027000D03*
X498656000Y-79027000D03*
X496116000Y-79027000D03*
X493576000Y-79027000D03*
X491036000Y-79027000D03*
X488496000Y-79027000D03*
X488496000Y-86647000D03*
X491036000Y-86647000D03*
X493576000Y-86647000D03*
X496116000Y-86647000D03*
X498656000Y-86647000D03*
X501196000Y-86647000D03*
X503736000Y-86647000D03*
X506276000Y-86647000D03*
%TD*%
D10*
%TO.C,U54*%
X302509717Y-82724352D03*
D11*
X302509717Y-80184352D03*
X302509717Y-77644352D03*
X302509717Y-75104352D03*
X302509717Y-72564352D03*
X302509717Y-70024352D03*
X302509717Y-67484352D03*
X302509717Y-64944352D03*
X302509717Y-62404352D03*
X302509717Y-59864352D03*
X294889717Y-59864352D03*
X294889717Y-62404352D03*
X294889717Y-64944352D03*
X294889717Y-67484352D03*
X294889717Y-70024352D03*
X294889717Y-72564352D03*
X294889717Y-75104352D03*
X294889717Y-77644352D03*
X294889717Y-80184352D03*
X294889717Y-82724352D03*
%TD*%
D12*
%TO.C,J14*%
X438400000Y-26300000D03*
D13*
X440940000Y-26300000D03*
X443480000Y-26300000D03*
X446020000Y-26300000D03*
X448560000Y-26300000D03*
X451100000Y-26300000D03*
X453640000Y-26300000D03*
X456180000Y-26300000D03*
X458720000Y-26300000D03*
X461260000Y-26300000D03*
X463800000Y-26300000D03*
X466340000Y-26300000D03*
%TD*%
D12*
%TO.C,J10*%
X440330011Y-29927889D03*
D13*
X440330011Y-32467889D03*
X440330011Y-35007889D03*
X440330011Y-37547889D03*
X440330011Y-40087889D03*
X440330011Y-42627889D03*
X440330011Y-45167889D03*
X440330011Y-47707889D03*
X440330011Y-50247889D03*
X440330011Y-52787889D03*
X440330011Y-55327889D03*
X440330011Y-57867889D03*
X440330011Y-60407889D03*
X440330011Y-62947889D03*
X440330011Y-65487889D03*
X440330011Y-68027889D03*
%TD*%
M02*
