%TF.GenerationSoftware,KiCad,Pcbnew,6.0.2-378541a8eb~116~ubuntu21.10.1*%
%TF.CreationDate,2022-02-16T21:59:06+01:00*%
%TF.ProjectId,register_file_kicad,72656769-7374-4657-925f-66696c655f6b,Rev v0.4*%
%TF.SameCoordinates,Original*%
%TF.FileFunction,Paste,Top*%
%TF.FilePolarity,Positive*%
%FSLAX46Y46*%
G04 Gerber Fmt 4.6, Leading zero omitted, Abs format (unit mm)*
G04 Created by KiCad (PCBNEW 6.0.2-378541a8eb~116~ubuntu21.10.1) date 2022-02-16 21:59:06*
%MOMM*%
%LPD*%
G01*
G04 APERTURE LIST*
G04 Aperture macros list*
%AMRoundRect*
0 Rectangle with rounded corners*
0 $1 Rounding radius*
0 $2 $3 $4 $5 $6 $7 $8 $9 X,Y pos of 4 corners*
0 Add a 4 corners polygon primitive as box body*
4,1,4,$2,$3,$4,$5,$6,$7,$8,$9,$2,$3,0*
0 Add four circle primitives for the rounded corners*
1,1,$1+$1,$2,$3*
1,1,$1+$1,$4,$5*
1,1,$1+$1,$6,$7*
1,1,$1+$1,$8,$9*
0 Add four rect primitives between the rounded corners*
20,1,$1+$1,$2,$3,$4,$5,0*
20,1,$1+$1,$4,$5,$6,$7,0*
20,1,$1+$1,$6,$7,$8,$9,0*
20,1,$1+$1,$8,$9,$2,$3,0*%
G04 Aperture macros list end*
%ADD10R,1.500000X0.600000*%
%ADD11RoundRect,0.150000X-0.837500X-0.150000X0.837500X-0.150000X0.837500X0.150000X-0.837500X0.150000X0*%
G04 APERTURE END LIST*
D10*
%TO.C,U44*%
X213143207Y-147541162D03*
X213143207Y-148811162D03*
X213143207Y-150081162D03*
X213143207Y-151351162D03*
X213143207Y-152621162D03*
X213143207Y-153891162D03*
X213143207Y-155161162D03*
X213143207Y-156431162D03*
X213143207Y-157701162D03*
X213143207Y-158971162D03*
X222643207Y-158971162D03*
X222643207Y-157701162D03*
X222643207Y-156431162D03*
X222643207Y-155161162D03*
X222643207Y-153891162D03*
X222643207Y-152621162D03*
X222643207Y-151351162D03*
X222643207Y-150081162D03*
X222643207Y-148811162D03*
X222643207Y-147541162D03*
%TD*%
%TO.C,U62*%
X335224717Y-147541162D03*
X335224717Y-148811162D03*
X335224717Y-150081162D03*
X335224717Y-151351162D03*
X335224717Y-152621162D03*
X335224717Y-153891162D03*
X335224717Y-155161162D03*
X335224717Y-156431162D03*
X335224717Y-157701162D03*
X335224717Y-158971162D03*
X344724717Y-158971162D03*
X344724717Y-157701162D03*
X344724717Y-156431162D03*
X344724717Y-155161162D03*
X344724717Y-153891162D03*
X344724717Y-152621162D03*
X344724717Y-151351162D03*
X344724717Y-150081162D03*
X344724717Y-148811162D03*
X344724717Y-147541162D03*
%TD*%
%TO.C,U59*%
X314777717Y-147541162D03*
X314777717Y-148811162D03*
X314777717Y-150081162D03*
X314777717Y-151351162D03*
X314777717Y-152621162D03*
X314777717Y-153891162D03*
X314777717Y-155161162D03*
X314777717Y-156431162D03*
X314777717Y-157701162D03*
X314777717Y-158971162D03*
X324277717Y-158971162D03*
X324277717Y-157701162D03*
X324277717Y-156431162D03*
X324277717Y-155161162D03*
X324277717Y-153891162D03*
X324277717Y-152621162D03*
X324277717Y-151351162D03*
X324277717Y-150081162D03*
X324277717Y-148811162D03*
X324277717Y-147541162D03*
%TD*%
%TO.C,U37*%
X174154207Y-91106352D03*
X174154207Y-92376352D03*
X174154207Y-93646352D03*
X174154207Y-94916352D03*
X174154207Y-96186352D03*
X174154207Y-97456352D03*
X174154207Y-98726352D03*
X174154207Y-99996352D03*
X174154207Y-101266352D03*
X174154207Y-102536352D03*
X183654207Y-102536352D03*
X183654207Y-101266352D03*
X183654207Y-99996352D03*
X183654207Y-98726352D03*
X183654207Y-97456352D03*
X183654207Y-96186352D03*
X183654207Y-94916352D03*
X183654207Y-93646352D03*
X183654207Y-92376352D03*
X183654207Y-91106352D03*
%TD*%
%TO.C,U63*%
X191096207Y-210149162D03*
X191096207Y-208879162D03*
X191096207Y-207609162D03*
X191096207Y-206339162D03*
X191096207Y-205069162D03*
X191096207Y-203799162D03*
X191096207Y-202529162D03*
X191096207Y-201259162D03*
X191096207Y-199989162D03*
X191096207Y-198719162D03*
X181596207Y-198719162D03*
X181596207Y-199989162D03*
X181596207Y-201259162D03*
X181596207Y-202529162D03*
X181596207Y-203799162D03*
X181596207Y-205069162D03*
X181596207Y-206339162D03*
X181596207Y-207609162D03*
X181596207Y-208879162D03*
X181596207Y-210149162D03*
%TD*%
%TO.C,U26*%
X112305207Y-147541162D03*
X112305207Y-148811162D03*
X112305207Y-150081162D03*
X112305207Y-151351162D03*
X112305207Y-152621162D03*
X112305207Y-153891162D03*
X112305207Y-155161162D03*
X112305207Y-156431162D03*
X112305207Y-157701162D03*
X112305207Y-158971162D03*
X121805207Y-158971162D03*
X121805207Y-157701162D03*
X121805207Y-156431162D03*
X121805207Y-155161162D03*
X121805207Y-153891162D03*
X121805207Y-152621162D03*
X121805207Y-151351162D03*
X121805207Y-150081162D03*
X121805207Y-148811162D03*
X121805207Y-147541162D03*
%TD*%
%TO.C,U53*%
X274230207Y-147541162D03*
X274230207Y-148811162D03*
X274230207Y-150081162D03*
X274230207Y-151351162D03*
X274230207Y-152621162D03*
X274230207Y-153891162D03*
X274230207Y-155161162D03*
X274230207Y-156431162D03*
X274230207Y-157701162D03*
X274230207Y-158971162D03*
X283730207Y-158971162D03*
X283730207Y-157701162D03*
X283730207Y-156431162D03*
X283730207Y-155161162D03*
X283730207Y-153891162D03*
X283730207Y-152621162D03*
X283730207Y-151351162D03*
X283730207Y-150081162D03*
X283730207Y-148811162D03*
X283730207Y-147541162D03*
%TD*%
%TO.C,U21*%
X91858207Y-147541162D03*
X91858207Y-148811162D03*
X91858207Y-150081162D03*
X91858207Y-151351162D03*
X91858207Y-152621162D03*
X91858207Y-153891162D03*
X91858207Y-155161162D03*
X91858207Y-156431162D03*
X91858207Y-157701162D03*
X91858207Y-158971162D03*
X101358207Y-158971162D03*
X101358207Y-157701162D03*
X101358207Y-156431162D03*
X101358207Y-155161162D03*
X101358207Y-153891162D03*
X101358207Y-152621162D03*
X101358207Y-151351162D03*
X101358207Y-150081162D03*
X101358207Y-148811162D03*
X101358207Y-147541162D03*
%TD*%
%TO.C,U47*%
X233209207Y-147541162D03*
X233209207Y-148811162D03*
X233209207Y-150081162D03*
X233209207Y-151351162D03*
X233209207Y-152621162D03*
X233209207Y-153891162D03*
X233209207Y-155161162D03*
X233209207Y-156431162D03*
X233209207Y-157701162D03*
X233209207Y-158971162D03*
X242709207Y-158971162D03*
X242709207Y-157701162D03*
X242709207Y-156431162D03*
X242709207Y-155161162D03*
X242709207Y-153891162D03*
X242709207Y-152621162D03*
X242709207Y-151351162D03*
X242709207Y-150081162D03*
X242709207Y-148811162D03*
X242709207Y-147541162D03*
%TD*%
%TO.C,U56*%
X294584717Y-147541162D03*
X294584717Y-148811162D03*
X294584717Y-150081162D03*
X294584717Y-151351162D03*
X294584717Y-152621162D03*
X294584717Y-153891162D03*
X294584717Y-155161162D03*
X294584717Y-156431162D03*
X294584717Y-157701162D03*
X294584717Y-158971162D03*
X304084717Y-158971162D03*
X304084717Y-157701162D03*
X304084717Y-156431162D03*
X304084717Y-155161162D03*
X304084717Y-153891162D03*
X304084717Y-152621162D03*
X304084717Y-151351162D03*
X304084717Y-150081162D03*
X304084717Y-148811162D03*
X304084717Y-147541162D03*
%TD*%
%TO.C,U50*%
X253783207Y-147541162D03*
X253783207Y-148811162D03*
X253783207Y-150081162D03*
X253783207Y-151351162D03*
X253783207Y-152621162D03*
X253783207Y-153891162D03*
X253783207Y-155161162D03*
X253783207Y-156431162D03*
X253783207Y-157701162D03*
X253783207Y-158971162D03*
X263283207Y-158971162D03*
X263283207Y-157701162D03*
X263283207Y-156431162D03*
X263283207Y-155161162D03*
X263283207Y-153891162D03*
X263283207Y-152621162D03*
X263283207Y-151351162D03*
X263283207Y-150081162D03*
X263283207Y-148811162D03*
X263283207Y-147541162D03*
%TD*%
%TO.C,U38*%
X172757207Y-147541162D03*
X172757207Y-148811162D03*
X172757207Y-150081162D03*
X172757207Y-151351162D03*
X172757207Y-152621162D03*
X172757207Y-153891162D03*
X172757207Y-155161162D03*
X172757207Y-156431162D03*
X172757207Y-157701162D03*
X172757207Y-158971162D03*
X182257207Y-158971162D03*
X182257207Y-157701162D03*
X182257207Y-156431162D03*
X182257207Y-155161162D03*
X182257207Y-153891162D03*
X182257207Y-152621162D03*
X182257207Y-151351162D03*
X182257207Y-150081162D03*
X182257207Y-148811162D03*
X182257207Y-147541162D03*
%TD*%
%TO.C,U66*%
X355544717Y-147541162D03*
X355544717Y-148811162D03*
X355544717Y-150081162D03*
X355544717Y-151351162D03*
X355544717Y-152621162D03*
X355544717Y-153891162D03*
X355544717Y-155161162D03*
X355544717Y-156431162D03*
X355544717Y-157701162D03*
X355544717Y-158971162D03*
X365044717Y-158971162D03*
X365044717Y-157701162D03*
X365044717Y-156431162D03*
X365044717Y-155161162D03*
X365044717Y-153891162D03*
X365044717Y-152621162D03*
X365044717Y-151351162D03*
X365044717Y-150081162D03*
X365044717Y-148811162D03*
X365044717Y-147541162D03*
%TD*%
%TO.C,U25*%
X113448207Y-91106352D03*
X113448207Y-92376352D03*
X113448207Y-93646352D03*
X113448207Y-94916352D03*
X113448207Y-96186352D03*
X113448207Y-97456352D03*
X113448207Y-98726352D03*
X113448207Y-99996352D03*
X113448207Y-101266352D03*
X113448207Y-102536352D03*
X122948207Y-102536352D03*
X122948207Y-101266352D03*
X122948207Y-99996352D03*
X122948207Y-98726352D03*
X122948207Y-97456352D03*
X122948207Y-96186352D03*
X122948207Y-94916352D03*
X122948207Y-93646352D03*
X122948207Y-92376352D03*
X122948207Y-91106352D03*
%TD*%
%TO.C,U20*%
X93128207Y-91106352D03*
X93128207Y-92376352D03*
X93128207Y-93646352D03*
X93128207Y-94916352D03*
X93128207Y-96186352D03*
X93128207Y-97456352D03*
X93128207Y-98726352D03*
X93128207Y-99996352D03*
X93128207Y-101266352D03*
X93128207Y-102536352D03*
X102628207Y-102536352D03*
X102628207Y-101266352D03*
X102628207Y-99996352D03*
X102628207Y-98726352D03*
X102628207Y-97456352D03*
X102628207Y-96186352D03*
X102628207Y-94916352D03*
X102628207Y-93646352D03*
X102628207Y-92376352D03*
X102628207Y-91106352D03*
%TD*%
D11*
%TO.C,U10*%
X59938500Y-147441810D03*
X59938500Y-148711810D03*
X59938500Y-149981810D03*
X59938500Y-151251810D03*
X59938500Y-152521810D03*
X59938500Y-153791810D03*
X59938500Y-155061810D03*
X59938500Y-156331810D03*
X59938500Y-157601810D03*
X59938500Y-158871810D03*
X66863500Y-158871810D03*
X66863500Y-157601810D03*
X66863500Y-156331810D03*
X66863500Y-155061810D03*
X66863500Y-153791810D03*
X66863500Y-152521810D03*
X66863500Y-151251810D03*
X66863500Y-149981810D03*
X66863500Y-148711810D03*
X66863500Y-147441810D03*
%TD*%
D10*
%TO.C,U34*%
X153961207Y-91106352D03*
X153961207Y-92376352D03*
X153961207Y-93646352D03*
X153961207Y-94916352D03*
X153961207Y-96186352D03*
X153961207Y-97456352D03*
X153961207Y-98726352D03*
X153961207Y-99996352D03*
X153961207Y-101266352D03*
X153961207Y-102536352D03*
X163461207Y-102536352D03*
X163461207Y-101266352D03*
X163461207Y-99996352D03*
X163461207Y-98726352D03*
X163461207Y-97456352D03*
X163461207Y-96186352D03*
X163461207Y-94916352D03*
X163461207Y-93646352D03*
X163461207Y-92376352D03*
X163461207Y-91106352D03*
%TD*%
%TO.C,U58*%
X316101970Y-91106352D03*
X316101970Y-92376352D03*
X316101970Y-93646352D03*
X316101970Y-94916352D03*
X316101970Y-96186352D03*
X316101970Y-97456352D03*
X316101970Y-98726352D03*
X316101970Y-99996352D03*
X316101970Y-101266352D03*
X316101970Y-102536352D03*
X325601970Y-102536352D03*
X325601970Y-101266352D03*
X325601970Y-99996352D03*
X325601970Y-98726352D03*
X325601970Y-97456352D03*
X325601970Y-96186352D03*
X325601970Y-94916352D03*
X325601970Y-93646352D03*
X325601970Y-92376352D03*
X325601970Y-91106352D03*
%TD*%
%TO.C,U15*%
X72621000Y-147441810D03*
X72621000Y-148711810D03*
X72621000Y-149981810D03*
X72621000Y-151251810D03*
X72621000Y-152521810D03*
X72621000Y-153791810D03*
X72621000Y-155061810D03*
X72621000Y-156331810D03*
X72621000Y-157601810D03*
X72621000Y-158871810D03*
X82121000Y-158871810D03*
X82121000Y-157601810D03*
X82121000Y-156331810D03*
X82121000Y-155061810D03*
X82121000Y-153791810D03*
X82121000Y-152521810D03*
X82121000Y-151251810D03*
X82121000Y-149981810D03*
X82121000Y-148711810D03*
X82121000Y-147441810D03*
%TD*%
%TO.C,U52*%
X275119207Y-91106352D03*
X275119207Y-92376352D03*
X275119207Y-93646352D03*
X275119207Y-94916352D03*
X275119207Y-96186352D03*
X275119207Y-97456352D03*
X275119207Y-98726352D03*
X275119207Y-99996352D03*
X275119207Y-101266352D03*
X275119207Y-102536352D03*
X284619207Y-102536352D03*
X284619207Y-101266352D03*
X284619207Y-99996352D03*
X284619207Y-98726352D03*
X284619207Y-97456352D03*
X284619207Y-96186352D03*
X284619207Y-94916352D03*
X284619207Y-93646352D03*
X284619207Y-92376352D03*
X284619207Y-91106352D03*
%TD*%
D11*
%TO.C,U9*%
X60192500Y-90245000D03*
X60192500Y-91515000D03*
X60192500Y-92785000D03*
X60192500Y-94055000D03*
X60192500Y-95325000D03*
X60192500Y-96595000D03*
X60192500Y-97865000D03*
X60192500Y-99135000D03*
X60192500Y-100405000D03*
X60192500Y-101675000D03*
X67117500Y-101675000D03*
X67117500Y-100405000D03*
X67117500Y-99135000D03*
X67117500Y-97865000D03*
X67117500Y-96595000D03*
X67117500Y-95325000D03*
X67117500Y-94055000D03*
X67117500Y-92785000D03*
X67117500Y-91515000D03*
X67117500Y-90245000D03*
%TD*%
D10*
%TO.C,U49*%
X254799207Y-91106352D03*
X254799207Y-92376352D03*
X254799207Y-93646352D03*
X254799207Y-94916352D03*
X254799207Y-96186352D03*
X254799207Y-97456352D03*
X254799207Y-98726352D03*
X254799207Y-99996352D03*
X254799207Y-101266352D03*
X254799207Y-102536352D03*
X264299207Y-102536352D03*
X264299207Y-101266352D03*
X264299207Y-99996352D03*
X264299207Y-98726352D03*
X264299207Y-97456352D03*
X264299207Y-96186352D03*
X264299207Y-94916352D03*
X264299207Y-93646352D03*
X264299207Y-92376352D03*
X264299207Y-91106352D03*
%TD*%
%TO.C,U65*%
X356814717Y-91106352D03*
X356814717Y-92376352D03*
X356814717Y-93646352D03*
X356814717Y-94916352D03*
X356814717Y-96186352D03*
X356814717Y-97456352D03*
X356814717Y-98726352D03*
X356814717Y-99996352D03*
X356814717Y-101266352D03*
X356814717Y-102536352D03*
X366314717Y-102536352D03*
X366314717Y-101266352D03*
X366314717Y-99996352D03*
X366314717Y-98726352D03*
X366314717Y-97456352D03*
X366314717Y-96186352D03*
X366314717Y-94916352D03*
X366314717Y-93646352D03*
X366314717Y-92376352D03*
X366314717Y-91106352D03*
%TD*%
%TO.C,U31*%
X133514207Y-91106352D03*
X133514207Y-92376352D03*
X133514207Y-93646352D03*
X133514207Y-94916352D03*
X133514207Y-96186352D03*
X133514207Y-97456352D03*
X133514207Y-98726352D03*
X133514207Y-99996352D03*
X133514207Y-101266352D03*
X133514207Y-102536352D03*
X143014207Y-102536352D03*
X143014207Y-101266352D03*
X143014207Y-99996352D03*
X143014207Y-98726352D03*
X143014207Y-97456352D03*
X143014207Y-96186352D03*
X143014207Y-94916352D03*
X143014207Y-93646352D03*
X143014207Y-92376352D03*
X143014207Y-91106352D03*
%TD*%
%TO.C,U35*%
X152691207Y-147541162D03*
X152691207Y-148811162D03*
X152691207Y-150081162D03*
X152691207Y-151351162D03*
X152691207Y-152621162D03*
X152691207Y-153891162D03*
X152691207Y-155161162D03*
X152691207Y-156431162D03*
X152691207Y-157701162D03*
X152691207Y-158971162D03*
X162191207Y-158971162D03*
X162191207Y-157701162D03*
X162191207Y-156431162D03*
X162191207Y-155161162D03*
X162191207Y-153891162D03*
X162191207Y-152621162D03*
X162191207Y-151351162D03*
X162191207Y-150081162D03*
X162191207Y-148811162D03*
X162191207Y-147541162D03*
%TD*%
%TO.C,U55*%
X295781970Y-91106352D03*
X295781970Y-92376352D03*
X295781970Y-93646352D03*
X295781970Y-94916352D03*
X295781970Y-96186352D03*
X295781970Y-97456352D03*
X295781970Y-98726352D03*
X295781970Y-99996352D03*
X295781970Y-101266352D03*
X295781970Y-102536352D03*
X305281970Y-102536352D03*
X305281970Y-101266352D03*
X305281970Y-99996352D03*
X305281970Y-98726352D03*
X305281970Y-97456352D03*
X305281970Y-96186352D03*
X305281970Y-94916352D03*
X305281970Y-93646352D03*
X305281970Y-92376352D03*
X305281970Y-91106352D03*
%TD*%
%TO.C,U14*%
X73383000Y-90372000D03*
X73383000Y-91642000D03*
X73383000Y-92912000D03*
X73383000Y-94182000D03*
X73383000Y-95452000D03*
X73383000Y-96722000D03*
X73383000Y-97992000D03*
X73383000Y-99262000D03*
X73383000Y-100532000D03*
X73383000Y-101802000D03*
X82883000Y-101802000D03*
X82883000Y-100532000D03*
X82883000Y-99262000D03*
X82883000Y-97992000D03*
X82883000Y-96722000D03*
X82883000Y-95452000D03*
X82883000Y-94182000D03*
X82883000Y-92912000D03*
X82883000Y-91642000D03*
X82883000Y-90372000D03*
%TD*%
%TO.C,U40*%
X194347207Y-91106352D03*
X194347207Y-92376352D03*
X194347207Y-93646352D03*
X194347207Y-94916352D03*
X194347207Y-96186352D03*
X194347207Y-97456352D03*
X194347207Y-98726352D03*
X194347207Y-99996352D03*
X194347207Y-101266352D03*
X194347207Y-102536352D03*
X203847207Y-102536352D03*
X203847207Y-101266352D03*
X203847207Y-99996352D03*
X203847207Y-98726352D03*
X203847207Y-97456352D03*
X203847207Y-96186352D03*
X203847207Y-94916352D03*
X203847207Y-93646352D03*
X203847207Y-92376352D03*
X203847207Y-91106352D03*
%TD*%
%TO.C,U46*%
X234606207Y-91106352D03*
X234606207Y-92376352D03*
X234606207Y-93646352D03*
X234606207Y-94916352D03*
X234606207Y-96186352D03*
X234606207Y-97456352D03*
X234606207Y-98726352D03*
X234606207Y-99996352D03*
X234606207Y-101266352D03*
X234606207Y-102536352D03*
X244106207Y-102536352D03*
X244106207Y-101266352D03*
X244106207Y-99996352D03*
X244106207Y-98726352D03*
X244106207Y-97456352D03*
X244106207Y-96186352D03*
X244106207Y-94916352D03*
X244106207Y-93646352D03*
X244106207Y-92376352D03*
X244106207Y-91106352D03*
%TD*%
%TO.C,U61*%
X336494717Y-91106352D03*
X336494717Y-92376352D03*
X336494717Y-93646352D03*
X336494717Y-94916352D03*
X336494717Y-96186352D03*
X336494717Y-97456352D03*
X336494717Y-98726352D03*
X336494717Y-99996352D03*
X336494717Y-101266352D03*
X336494717Y-102536352D03*
X345994717Y-102536352D03*
X345994717Y-101266352D03*
X345994717Y-99996352D03*
X345994717Y-98726352D03*
X345994717Y-97456352D03*
X345994717Y-96186352D03*
X345994717Y-94916352D03*
X345994717Y-93646352D03*
X345994717Y-92376352D03*
X345994717Y-91106352D03*
%TD*%
%TO.C,U67*%
X237984207Y-198719162D03*
X237984207Y-199989162D03*
X237984207Y-201259162D03*
X237984207Y-202529162D03*
X237984207Y-203799162D03*
X237984207Y-205069162D03*
X237984207Y-206339162D03*
X237984207Y-207609162D03*
X237984207Y-208879162D03*
X237984207Y-210149162D03*
X247484207Y-210149162D03*
X247484207Y-208879162D03*
X247484207Y-207609162D03*
X247484207Y-206339162D03*
X247484207Y-205069162D03*
X247484207Y-203799162D03*
X247484207Y-202529162D03*
X247484207Y-201259162D03*
X247484207Y-199989162D03*
X247484207Y-198719162D03*
%TD*%
%TO.C,U43*%
X214286207Y-91106352D03*
X214286207Y-92376352D03*
X214286207Y-93646352D03*
X214286207Y-94916352D03*
X214286207Y-96186352D03*
X214286207Y-97456352D03*
X214286207Y-98726352D03*
X214286207Y-99996352D03*
X214286207Y-101266352D03*
X214286207Y-102536352D03*
X223786207Y-102536352D03*
X223786207Y-101266352D03*
X223786207Y-99996352D03*
X223786207Y-98726352D03*
X223786207Y-97456352D03*
X223786207Y-96186352D03*
X223786207Y-94916352D03*
X223786207Y-93646352D03*
X223786207Y-92376352D03*
X223786207Y-91106352D03*
%TD*%
%TO.C,U41*%
X193077207Y-147476162D03*
X193077207Y-148746162D03*
X193077207Y-150016162D03*
X193077207Y-151286162D03*
X193077207Y-152556162D03*
X193077207Y-153826162D03*
X193077207Y-155096162D03*
X193077207Y-156366162D03*
X193077207Y-157636162D03*
X193077207Y-158906162D03*
X202577207Y-158906162D03*
X202577207Y-157636162D03*
X202577207Y-156366162D03*
X202577207Y-155096162D03*
X202577207Y-153826162D03*
X202577207Y-152556162D03*
X202577207Y-151286162D03*
X202577207Y-150016162D03*
X202577207Y-148746162D03*
X202577207Y-147476162D03*
%TD*%
%TO.C,U32*%
X132410000Y-147548600D03*
X132410000Y-148818600D03*
X132410000Y-150088600D03*
X132410000Y-151358600D03*
X132410000Y-152628600D03*
X132410000Y-153898600D03*
X132410000Y-155168600D03*
X132410000Y-156438600D03*
X132410000Y-157708600D03*
X132410000Y-158978600D03*
X141910000Y-158978600D03*
X141910000Y-157708600D03*
X141910000Y-156438600D03*
X141910000Y-155168600D03*
X141910000Y-153898600D03*
X141910000Y-152628600D03*
X141910000Y-151358600D03*
X141910000Y-150088600D03*
X141910000Y-148818600D03*
X141910000Y-147548600D03*
%TD*%
M02*
