%TF.GenerationSoftware,KiCad,Pcbnew,6.0.2-378541a8eb~116~ubuntu21.10.1*%
%TF.CreationDate,2022-02-16T21:59:06+01:00*%
%TF.ProjectId,register_file_kicad,72656769-7374-4657-925f-66696c655f6b,Rev v0.4*%
%TF.SameCoordinates,Original*%
%TF.FileFunction,Legend,Bot*%
%TF.FilePolarity,Positive*%
%FSLAX46Y46*%
G04 Gerber Fmt 4.6, Leading zero omitted, Abs format (unit mm)*
G04 Created by KiCad (PCBNEW 6.0.2-378541a8eb~116~ubuntu21.10.1) date 2022-02-16 21:59:06*
%MOMM*%
%LPD*%
G01*
G04 APERTURE LIST*
%ADD10C,0.150000*%
%ADD11C,0.120000*%
G04 APERTURE END LIST*
D10*
%TO.C,J14*%
X471431534Y-26907869D02*
X471431534Y-27622155D01*
X471479153Y-27765012D01*
X471574391Y-27860250D01*
X471717249Y-27907869D01*
X471812487Y-27907869D01*
X470431534Y-27907869D02*
X471002963Y-27907869D01*
X470717249Y-27907869D02*
X470717249Y-26907869D01*
X470812487Y-27050727D01*
X470907725Y-27145965D01*
X471002963Y-27193584D01*
X469574391Y-27241203D02*
X469574391Y-27907869D01*
X469812487Y-26860250D02*
X470050582Y-27574536D01*
X469431534Y-27574536D01*
%TO.C,J10*%
X441139534Y-26610269D02*
X441139534Y-27324555D01*
X441187153Y-27467412D01*
X441282391Y-27562650D01*
X441425249Y-27610269D01*
X441520487Y-27610269D01*
X440139534Y-27610269D02*
X440710963Y-27610269D01*
X440425249Y-27610269D02*
X440425249Y-26610269D01*
X440520487Y-26753127D01*
X440615725Y-26848365D01*
X440710963Y-26895984D01*
X439520487Y-26610269D02*
X439425249Y-26610269D01*
X439330011Y-26657889D01*
X439282391Y-26705508D01*
X439234772Y-26800746D01*
X439187153Y-26991222D01*
X439187153Y-27229317D01*
X439234772Y-27419793D01*
X439282391Y-27515031D01*
X439330011Y-27562650D01*
X439425249Y-27610269D01*
X439520487Y-27610269D01*
X439615725Y-27562650D01*
X439663344Y-27515031D01*
X439710963Y-27419793D01*
X439758582Y-27229317D01*
X439758582Y-26991222D01*
X439710963Y-26800746D01*
X439663344Y-26705508D01*
X439615725Y-26657889D01*
X439520487Y-26610269D01*
D11*
%TO.C,J14*%
X439670000Y-24970000D02*
X439670000Y-27630000D01*
X467670000Y-24970000D02*
X467670000Y-27630000D01*
X437070000Y-26300000D02*
X437070000Y-27630000D01*
X439670000Y-24970000D02*
X467670000Y-24970000D01*
X439670000Y-27630000D02*
X467670000Y-27630000D01*
X437070000Y-27630000D02*
X438400000Y-27630000D01*
%TO.C,J10*%
X441660011Y-31197889D02*
X439000011Y-31197889D01*
X441660011Y-31197889D02*
X441660011Y-69357889D01*
X440330011Y-28597889D02*
X439000011Y-28597889D01*
X441660011Y-69357889D02*
X439000011Y-69357889D01*
X439000011Y-31197889D02*
X439000011Y-69357889D01*
X439000011Y-28597889D02*
X439000011Y-29927889D01*
%TD*%
M02*
